<svg width="1161" height="802" viewBox="0 0 1161 802" fill="none" xmlns="http://www.w3.org/2000/svg">
<path d="M0 801.459H186.75" stroke="#3F3D56" stroke-miterlimit="10"/>
<path d="M1080.68 138.129H295.197C283.145 138.129 273.375 147.519 273.375 159.102V656.686C273.375 668.269 283.145 677.659 295.197 677.659H1080.68C1092.73 677.659 1102.5 668.269 1102.5 656.686V159.102C1102.5 147.519 1092.73 138.129 1080.68 138.129Z" fill="#001C55"/>
<path d="M1055.37 104.071H269.885C257.833 104.071 248.062 113.461 248.062 125.044V622.628C248.062 634.211 257.833 643.601 269.885 643.601H1055.37C1067.42 643.601 1077.19 634.211 1077.19 622.628V125.044C1077.19 113.461 1067.42 104.071 1055.37 104.071Z" stroke="#3F3D56" stroke-miterlimit="10"/>
<path d="M248.062 155.797H1077.19" stroke="#3F3D56" stroke-miterlimit="10"/>
<path opacity="0.3" d="M961.771 277.066H751.604C747.197 277.066 743.625 280.5 743.625 284.735V302.916C743.625 307.151 747.197 310.584 751.604 310.584H961.771C966.178 310.584 969.75 307.151 969.75 302.916V284.735C969.75 280.5 966.178 277.066 961.771 277.066Z" fill="#6C63FF"/>
<path opacity="0.3" d="M1005.08 370.051H708.292C703.885 370.051 700.312 373.485 700.312 377.72V389.413C700.312 393.649 703.885 397.082 708.292 397.082H1005.08C1009.49 397.082 1013.06 393.649 1013.06 389.413V377.72C1013.06 373.485 1009.49 370.051 1005.08 370.051Z" fill="#6C63FF"/>
<path opacity="0.3" d="M1005.08 443.575H708.292C703.885 443.575 700.312 447.008 700.312 451.243V462.937C700.312 467.172 703.885 470.605 708.292 470.605H1005.08C1009.49 470.605 1013.06 467.172 1013.06 462.937V451.243C1013.06 447.008 1009.49 443.575 1005.08 443.575Z" fill="#6C63FF"/>
<path opacity="0.3" d="M1005.08 517.098H708.292C703.885 517.098 700.312 520.531 700.312 524.766V536.46C700.312 540.695 703.885 544.128 708.292 544.128H1005.08C1009.49 544.128 1013.06 540.695 1013.06 536.46V524.766C1013.06 520.531 1009.49 517.098 1005.08 517.098Z" fill="#6C63FF"/>
<path d="M973.021 266.254H762.854C758.447 266.254 754.875 269.687 754.875 273.923V292.103C754.875 296.339 758.447 299.772 762.854 299.772H973.021C977.428 299.772 981 296.339 981 292.103V273.923C981 269.687 977.428 266.254 973.021 266.254Z" stroke="#3F3D56" stroke-miterlimit="10"/>
<path d="M1016.33 359.239H719.542C715.135 359.239 711.562 362.673 711.562 366.908V378.601C711.562 382.836 715.135 386.27 719.542 386.27H1016.33C1020.74 386.27 1024.31 382.836 1024.31 378.601V366.908C1024.31 362.673 1020.74 359.239 1016.33 359.239Z" stroke="#3F3D56" stroke-miterlimit="10"/>
<path d="M1016.33 432.762H719.542C715.135 432.762 711.562 436.196 711.562 440.431V452.124C711.562 456.36 715.135 459.793 719.542 459.793H1016.33C1020.74 459.793 1024.31 456.36 1024.31 452.124V440.431C1024.31 436.196 1020.74 432.762 1016.33 432.762Z" stroke="#3F3D56" stroke-miterlimit="10"/>
<path d="M1016.33 506.286H719.542C715.135 506.286 711.562 509.719 711.562 513.954V525.648C711.562 529.883 715.135 533.316 719.542 533.316H1016.33C1020.74 533.316 1024.31 529.883 1024.31 525.648V513.954C1024.31 509.719 1020.74 506.286 1016.33 506.286Z" stroke="#3F3D56" stroke-miterlimit="10"/>
<path opacity="0.3" d="M311.063 152.726C320.382 152.726 327.938 145.465 327.938 136.507C327.938 127.55 320.382 120.289 311.063 120.289C301.743 120.289 294.188 127.55 294.188 136.507C294.188 145.465 301.743 152.726 311.063 152.726Z" fill="#6C63FF"/>
<path opacity="0.3" d="M358.312 152.726C367.632 152.726 375.187 145.465 375.187 136.507C375.187 127.55 367.632 120.289 358.312 120.289C348.993 120.289 341.438 127.55 341.438 136.507C341.438 145.465 348.993 152.726 358.312 152.726Z" fill="#6C63FF"/>
<path opacity="0.3" d="M405.562 152.726C414.882 152.726 422.438 145.465 422.438 136.507C422.438 127.55 414.882 120.289 405.562 120.289C396.243 120.289 388.688 127.55 388.688 136.507C388.688 145.465 396.243 152.726 405.562 152.726Z" fill="#6C63FF"/>
<path d="M317.813 146.238C327.132 146.238 334.688 138.977 334.688 130.02C334.688 121.063 327.132 113.802 317.813 113.802C308.493 113.802 300.938 121.063 300.938 130.02C300.938 138.977 308.493 146.238 317.813 146.238Z" fill="#4F73B6" stroke="#3F3D56" stroke-miterlimit="10"/>
<path d="M365.062 146.238C374.382 146.238 381.938 138.977 381.938 130.02C381.938 121.063 374.382 113.802 365.062 113.802C355.743 113.802 348.188 121.063 348.188 130.02C348.188 138.977 355.743 146.238 365.062 146.238Z" fill="#F0C418" stroke="#3F3D56" stroke-miterlimit="10"/>
<path d="M412.313 146.238C421.632 146.238 429.188 138.977 429.188 130.02C429.188 121.063 421.632 113.802 412.313 113.802C402.993 113.802 395.438 121.063 395.438 130.02C395.438 138.977 402.993 146.238 412.313 146.238Z" fill="#E8472C" stroke="#3F3D56" stroke-miterlimit="10"/>
<path d="M510.023 620.895C507.198 608.387 506.449 591.303 507.399 579.419C507.399 579.419 493.113 519.101 481.873 513.474L481.87 513.477C481.697 513.69 476.242 520.563 475.55 541.831C474.848 563.437 466.888 577.616 466.888 577.616C466.888 577.616 469.464 604.547 467.991 620.895L510.023 620.895Z" fill="#6C63FF"/>
<path d="M613.944 237.061H354.681C351.169 237.061 347.691 237.726 344.447 239.018C341.202 240.309 338.254 242.202 335.77 244.589C333.287 246.976 331.317 249.809 329.973 252.928C328.629 256.046 327.938 259.388 327.938 262.764V595.193C327.938 598.568 328.629 601.91 329.973 605.029C331.317 608.147 333.287 610.98 335.77 613.367C338.254 615.754 341.202 617.647 344.447 618.939C347.691 620.23 351.169 620.895 354.681 620.895H445.643C442.605 608.786 438.828 589.874 442.653 576.725L442.651 576.716L442.654 576.722C442.832 576.108 443.022 575.503 443.234 574.915C445.861 566.382 446.737 557.438 445.813 548.583C447.501 541.017 447.501 533.193 445.813 525.627C443.003 513.025 441.035 500.645 441.035 500.645C441.035 500.645 439.486 483.992 440.839 473.783C440.869 473.559 440.904 473.346 440.936 473.128C440.459 473.024 440.191 472.964 440.191 472.964C440.191 472.964 444.172 455.634 445.577 444.606C445.909 442.003 446.346 438.702 446.818 435.183C445.521 434.976 444.244 434.665 443.001 434.253C430.356 429.977 426.375 391.266 426.375 391.266V379.001C426.375 379.001 422.16 360.208 436.913 351.881C451.119 343.862 456.791 341.667 457.192 341.516C457.3 341.441 457.406 341.374 457.517 341.292C459.122 340.08 460.393 338.508 461.218 336.714C461.237 336.405 461.242 336.098 461.231 335.793C460.991 331.396 457.807 327.397 454.785 323.908C452.207 320.932 449.63 317.956 447.052 314.98C446.169 314.093 445.49 313.038 445.06 311.882C444.897 311.244 444.827 310.588 444.85 309.932C444.848 309.689 444.85 309.446 444.855 309.204C444.897 306.985 444.959 304.767 445.043 302.549C445.115 300.611 445.623 298.166 447.597 297.768C448.624 297.56 449.984 297.922 450.526 297.059C450.709 296.703 450.755 296.297 450.658 295.912C450.651 295.941 450.65 295.971 450.641 295.999C450.634 295.963 450.628 295.927 450.621 295.891C450.215 294.337 449.969 292.749 449.889 291.148C449.867 290.426 449.975 289.706 450.206 289.019C451.35 285.802 455.289 284.482 458.769 283.875C462.25 283.268 466.156 282.746 468.341 280.072C468.926 279.184 469.56 278.327 470.241 277.505C471.243 276.63 472.474 276.033 473.803 275.779C478.123 274.728 482.687 275.117 486.747 276.883C488.431 277.621 490.122 278.616 491.968 278.503C493.887 278.386 495.525 277.089 497.419 276.773C500.478 276.263 503.403 278.466 504.91 281.075C505.868 282.734 506.346 284.609 506.297 286.506C506.333 288.394 505.624 290.226 504.312 291.632C502.996 292.974 501.032 293.896 500.485 295.664C500.262 296.384 500.314 297.159 500.117 297.886C500.093 297.977 500.053 298.061 500.02 298.149C500.057 298.194 500.096 298.237 500.132 298.282C502.434 301.199 503.978 304.602 504.633 308.209C505.289 311.815 505.037 315.52 503.9 319.014C502.762 322.508 500.771 325.69 498.094 328.294C495.416 330.898 492.13 332.849 488.508 333.983C488.499 334.211 488.49 334.439 488.491 334.668C488.423 336.087 488.674 337.503 489.225 338.821C489.776 340.139 490.615 341.327 491.685 342.306L512.551 350.53C512.551 350.53 525.113 349.067 529.646 367.083C530.372 370.078 530.634 373.159 530.422 376.228C530.257 378.944 530.641 383.727 533.861 389.916C539.013 399.819 537.842 422.55 527.304 424.8C517.323 426.932 513.44 426.037 513.057 425.936L513.035 426.334C513.199 430.599 514.779 467.387 520.513 471.838C522.099 473.069 521.796 473.901 520.495 474.461L520.498 474.465C520.498 474.465 520.508 474.701 520.533 475.126C520.705 477.817 521.59 488.063 525.429 493.893C529.88 500.645 529.413 539.583 529.413 539.583L532.455 562.539C532.455 562.539 530.582 576.718 532.455 579.193C533.518 580.596 534.807 602.335 535.723 620.895H613.944C621.037 620.895 627.839 618.187 632.855 613.367C637.87 608.547 640.687 602.009 640.687 595.193V262.764C640.687 259.388 639.996 256.046 638.652 252.928C637.308 249.809 635.338 246.976 632.855 244.589C630.371 242.202 627.423 240.309 624.178 239.018C620.934 237.726 617.456 237.061 613.944 237.061V237.061Z" fill="#6C63FF"/>
<path d="M586.944 207.868H327.681C312.911 207.868 300.938 219.375 300.938 233.571V566C300.938 580.195 312.911 591.702 327.681 591.702H586.944C601.714 591.702 613.688 580.195 613.688 566V233.571C613.688 219.375 601.714 207.868 586.944 207.868Z" stroke="#3F3D56" stroke-miterlimit="10"/>
<path d="M113.427 347.754C113.427 347.754 102.938 344.773 100.688 348.017C98.4376 351.261 103.755 374.775 103.755 374.775L126.869 376.125L118.803 356.548L113.427 347.754Z" fill="#2F2E41"/>
<path d="M32.5622 540.85C32.5622 540.85 53.5937 585.226 37.397 583.832C21.2003 582.438 14.915 540.85 14.915 540.85H32.5622Z" fill="#E68688"/>
<path d="M170.113 536.227C170.113 536.227 160.886 584.176 176.25 579.055C191.613 573.934 187.235 532.12 187.235 532.12L170.113 536.227Z" fill="#E68688"/>
<path d="M150.048 525.284C150.048 525.284 161.41 548.749 152.466 622.399C152.466 622.399 155.125 648.421 152.949 653.3C150.774 658.179 132.885 724.394 132.885 724.394C132.885 724.394 109.919 729.273 106.777 714.636C106.777 714.636 109.919 693.726 109.678 690.473C109.436 687.221 114.754 651.674 114.754 651.674L103.876 582.902L95.6566 644.936C95.6566 644.936 95.6566 662.826 92.9975 666.775C90.3383 670.725 92.9975 750.183 92.9975 750.183C92.9975 750.183 100.491 762.265 89.1296 762.497C77.7677 762.729 67.6146 762.265 66.6476 754.598C65.6806 746.931 65.1971 739.264 62.7797 734.617C60.3623 729.97 57.2197 676.766 57.9449 658.179C58.6701 639.592 41.99 544.103 47.3083 534.112C52.6266 524.122 150.048 525.284 150.048 525.284Z" fill="#2F2E41"/>
<path d="M67.6147 362.417C67.6147 362.417 85.2618 374.963 110.886 364.973C110.886 364.973 119.347 361.023 118.622 354.982C117.897 348.942 136.269 403.54 136.269 403.54L154.883 498.565L153.916 537.365C153.916 537.365 145.697 533.415 120.073 542.244C94.448 551.073 52.6267 532.254 52.6267 532.254L54.0772 432.582L55.5276 374.498L59.3955 361.72C59.3955 361.72 61.3294 358.235 67.6147 362.417Z" fill="#346E93"/>
<path d="M109.759 346.82C109.759 346.82 114.029 346.154 118.139 352.427C122.248 358.7 131.918 362.649 131.918 362.649C131.918 362.649 155.367 364.043 158.751 376.125C162.135 388.206 170.596 404.702 174.706 435.138C178.816 465.574 187.035 514.132 188.244 518.081C189.452 522.031 186.551 534.112 189.936 537.83C193.32 541.547 166.003 541.547 166.003 541.547C166.003 541.547 163.586 522.496 161.894 522.496C160.202 522.496 160.685 535.274 162.377 544.567C164.069 553.861 150.048 544.567 150.048 544.567C150.048 544.567 139.17 502.05 128.775 463.715C118.38 425.38 112.337 404.237 114.271 395.641C116.205 387.045 121.523 362.417 117.655 360.094C113.787 357.77 109.759 346.82 109.759 346.82Z" fill="#2F2E41"/>
<path d="M74.8975 346.8C74.8975 346.8 68.5818 350.103 52.6268 361.023C36.6718 371.943 25.7935 380.307 25.7935 380.307C25.7935 380.307 19.5082 384.954 15.6404 412.601C11.7725 440.249 3.06982 511.808 6.45421 520.869C9.8386 529.93 11.0473 535.274 9.83859 540.618C8.62988 545.961 35.2214 545.729 35.7049 544.567C36.1884 543.406 34.9797 522.263 36.1884 521.799C37.3971 521.334 43.9241 534.345 45.1328 545.264C46.3415 556.184 60.3626 564.78 63.5052 564.78C66.6479 564.78 82.8445 501.818 83.0863 458.836C83.328 415.854 77.768 379.61 73.6584 374.498C69.5488 369.387 74.8975 346.8 74.8975 346.8Z" fill="#2F2E41"/>
<path d="M117.413 726.485C117.413 726.485 119.347 721.374 126.116 723C132.885 724.626 137.478 718.818 137.478 718.818C137.478 718.818 141.104 718.353 138.687 722.768C136.269 727.182 134.335 730.203 134.335 730.203C134.335 730.203 148.84 762.032 139.412 769.699C129.984 777.366 119.106 772.72 119.106 772.72C119.106 772.72 108.469 765.517 108.952 746.466C108.952 746.466 108.469 740.425 102.667 730.667C96.8654 720.909 92.514 706.04 99.5245 703.252C106.535 700.464 108.339 700.36 108.339 700.36C108.339 700.36 105.059 714.781 113.533 719.82L117.413 726.485Z" fill="#3F3D56"/>
<path d="M72.4495 762.497C72.4495 762.497 66.6477 752.042 76.3173 750.88C85.987 749.719 96.3819 749.022 95.8984 753.901C95.4149 758.78 94.2062 766.215 94.2062 766.215L95.8984 771.558C95.8984 771.558 96.3819 784.801 98.074 786.428C99.7662 788.054 108.952 801.994 89.3713 801.994C69.7903 801.994 63.9885 799.903 65.6807 795.489C67.3729 791.074 67.8564 769.235 67.8564 769.235L72.4495 762.497Z" fill="#3F3D56"/>
<path d="M1051.74 8.06308C1046.95 8.32341 1042.32 9.86247 1038.38 12.5077C1034.45 15.1529 1031.36 18.7997 1029.45 23.0391C1023.88 35.9855 1031.06 51.1929 1041.83 60.6335C1052.6 70.0741 1066.44 75.4703 1079.01 82.5632C1095.89 92.0902 1111.07 105.315 1119.52 122.292C1127.96 139.268 1128.86 160.297 1118.93 176.515C1109.71 191.568 1092.95 200.577 1076.97 208.886" stroke="#3F3D56" stroke-miterlimit="10"/>
<path d="M1065.94 18.3808C1076.81 18.3808 1085.63 14.2661 1085.63 9.19039C1085.63 4.11468 1076.81 0 1065.94 0C1055.06 0 1046.25 4.11468 1046.25 9.19039C1046.25 14.2661 1055.06 18.3808 1065.94 18.3808Z" fill="#6C63FF"/>
<path d="M1081.69 78.9293C1092.56 78.9293 1101.38 74.8146 1101.38 69.7389C1101.38 64.6631 1092.56 60.5485 1081.69 60.5485C1070.81 60.5485 1062 64.6631 1062 69.7389C1062 74.8146 1070.81 78.9293 1081.69 78.9293Z" fill="#6C63FF"/>
<path d="M1045.69 88.6603C1056.56 88.6603 1065.38 84.5456 1065.38 79.4699C1065.38 74.3942 1056.56 70.2795 1045.69 70.2795C1034.81 70.2795 1026 74.3942 1026 79.4699C1026 84.5456 1034.81 88.6603 1045.69 88.6603Z" fill="#6C63FF"/>
<path d="M1101.94 139.478C1112.81 139.478 1121.62 135.363 1121.62 130.287C1121.62 125.212 1112.81 121.097 1101.94 121.097C1091.06 121.097 1082.25 125.212 1082.25 130.287C1082.25 135.363 1091.06 139.478 1101.94 139.478Z" fill="#6C63FF"/>
<path d="M1141.31 139.478C1152.19 139.478 1161 135.363 1161 130.287C1161 125.212 1152.19 121.097 1141.31 121.097C1130.44 121.097 1121.62 125.212 1121.62 130.287C1121.62 135.363 1130.44 139.478 1141.31 139.478Z" fill="#6C63FF"/>
<path d="M140.631 284.334C140.799 284.092 140.944 283.841 141.103 283.587L140.951 282.739C141.038 282.484 141.134 282.222 141.215 281.962C141.206 281.694 141.203 281.427 141.182 281.165C141.15 280.898 141.1 280.635 141.031 280.377C140.992 280.122 140.966 279.864 140.953 279.606L140.911 278.843L141.051 278.078L140.968 277.321L140.943 276.56C141.004 276.297 141.072 276.036 141.127 275.773L140.982 275.014L140.495 274.304L140.401 273.545C140.369 273.292 140.319 273.04 140.273 272.789C140.317 272.52 140.344 272.249 140.355 271.978C140.291 271.728 140.238 271.476 140.155 271.241L139.838 270.517L139.732 269.721L139.049 269.164C139.004 268.905 138.934 268.654 138.871 268.397C138.731 268.18 138.569 267.974 138.413 267.77C138.358 267.508 138.287 267.251 138.202 266.999C138.043 266.794 137.891 266.586 137.716 266.396C137.558 266.189 137.374 266.005 137.168 265.849C137.061 265.764 137.028 265.61 136.897 265.544C136.898 265.513 136.909 265.482 136.93 265.459C137.059 265.084 136.874 265.253 136.845 265.238C136.69 265.166 136.529 265.108 136.363 265.066C136.126 264.932 135.878 264.818 135.622 264.725C135.384 264.5 135.122 264.304 134.84 264.141C134.481 264.173 134.126 264.247 133.782 264.361C133.377 264.281 132.958 264.288 132.551 264.38C132.202 264.649 131.91 264.99 131.693 265.38C131.322 265.598 130.987 265.879 130.703 266.209C130.6 266.57 130.54 266.941 130.525 267.314C130.479 267.627 130.453 267.942 130.448 268.257C130.447 268.553 130.458 268.838 130.473 269.093L130.364 269.858L130.862 270.587L130.331 271.38L130.73 272.107L130.906 272.841L130.797 273.609L130.865 274.354L130.755 275.126L131.074 275.839L131.313 276.556L131.082 277.341L131.42 278.043L131.222 278.825L131.754 279.49L131.462 280.285L131.822 280.975L131.405 281.79L132.111 282.425L132.053 283.193L131.719 284.028L132.233 284.713L132.295 285.5L132.172 286.366C132.419 286.577 132.678 286.774 132.946 286.957C133.008 287.217 133.071 287.471 133.149 287.74C133.193 288.07 133.267 288.394 133.37 288.708C133.642 289.024 133.962 289.293 134.317 289.505C134.557 289.868 134.876 290.167 135.249 290.379C135.655 290.504 136.086 290.527 136.506 290.444L136.551 290.415C136.911 290.16 137.212 289.824 137.43 289.432C137.837 289.385 138.315 289.151 138.635 289.118C138.802 288.858 138.934 288.576 139.092 288.312C139.249 288.048 139.472 287.852 139.647 287.608C139.672 287.283 139.68 286.958 139.67 286.633C139.938 286.443 140.195 286.239 140.442 286.021C140.414 285.704 140.371 285.39 140.312 285.079C140.412 284.843 140.517 284.59 140.631 284.334Z" fill="#102B4C"/>
<path d="M135.437 324.431C135.437 324.431 135.423 323.523 135.37 322.623C135.317 321.723 135.25 320.829 135.25 320.829L135.51 319.721L135.707 318.843C135.737 318.633 136.186 317.553 133.668 317.531L133.671 317.507L133.858 317.488C134.227 317.443 134.6 317.395 134.906 317.338C135.533 317.213 135.714 317.044 135.727 316.882C135.743 315.988 135.694 315.096 135.581 314.213L135.587 310.743L135.393 307.31C135.515 306.166 135.651 305.029 135.801 303.898C135.951 302.769 136.201 301.574 136.383 300.416C136.307 299.247 136.212 298.082 136.098 296.923L136.442 293.41C136.311 292.248 136.166 291.09 136.007 289.936C135.926 288.777 135.838 287.617 135.737 286.458C135.722 285.293 135.7 284.127 135.654 282.962C135.357 281.828 135.043 280.699 134.721 279.573L134.773 276.044L134.677 272.543C134.391 271.309 134.016 270.1 133.558 268.928C133.403 267.615 133.129 266.323 132.74 265.07C132.119 263.865 131.36 262.744 130.479 261.731C129.556 260.716 128.49 259.851 127.315 259.166C126.301 258.226 125.169 257.434 123.946 256.808C122.656 256.618 121.347 256.569 120.04 256.662C118.828 256.713 117.618 256.842 116.417 257.046C115.253 256.765 114.095 256.538 112.935 256.321L109.579 256.466L106.315 257.768L102.938 257.007L99.6689 258.098C98.5626 258.155 97.4483 258.197 96.2751 258.292C95.0624 258.361 93.8536 258.517 92.6576 258.759C91.2967 258.858 89.9512 259.153 88.66 259.636C87.3458 260.331 86.1479 261.247 85.1159 262.346C84.4193 263.593 83.8953 264.933 83.5596 266.325C83.0106 267.466 82.5491 268.648 82.1794 269.861C81.386 270.89 80.6285 271.956 79.9339 273.012C79.9673 274.264 79.9446 275.503 80.0401 276.728C79.7656 277.884 79.4677 279.038 79.2499 280.205C78.748 281.325 78.2447 282.455 77.7796 283.604L77.9032 285.424L78.0875 287.226C78.1327 288.42 78.2336 289.606 78.3317 290.789C77.8254 291.94 77.3824 293.103 76.9105 294.277C77.2025 295.467 77.5514 296.643 77.8676 297.807L77.1314 301.337L77.8472 304.808C77.5972 305.985 77.3322 307.171 77.1018 308.355C77.5172 309.489 77.9458 310.617 78.3876 311.739C78.2615 312.911 78.1388 314.083 78.0405 315.251L78.9263 318.634C78.7584 319.811 78.6573 320.975 78.549 322.142C78.9101 323.255 79.1098 324.398 79.6996 325.491C80.0708 326.606 80.4424 327.742 80.8376 328.856L80.8821 329.072L80.8786 329.096L80.9256 329.102L80.9182 329.155L80.9195 329.265L80.9283 329.707L80.952 330.596C80.9701 331.189 80.999 331.785 81.0388 332.385C81.2638 333.554 81.5455 334.708 81.8829 335.844C82.0564 336.433 82.2706 337.008 82.5238 337.563C82.7626 338.158 83.0601 338.724 83.4116 339.253L83.9918 339.982C84.1947 340.214 84.4261 340.415 84.642 340.627L85.2986 341.252C85.5281 341.442 85.7702 341.615 86.0008 341.798L86.615 342.432C86.8258 342.633 87.0529 342.815 87.268 343.01C87.6978 343.401 88.148 343.768 88.6166 344.108C89.4771 344.901 90.378 345.646 91.3154 346.34L92.8135 347.205L94.3467 347.992C95.4732 348.272 96.5927 348.53 97.7222 348.718C98.2231 348.996 98.74 349.233 99.255 349.484C99.7699 349.735 100.29 349.973 100.818 350.204C101.381 350.309 101.947 350.399 102.515 350.465C103.084 350.531 103.647 350.611 104.222 350.659C104.77 350.815 105.32 350.954 105.873 351.074C106.428 351.213 107.007 351.306 107.584 351.408C109.915 351.453 112.251 351.299 114.567 350.947C115.145 350.851 115.725 350.74 116.295 350.607C116.865 350.474 117.441 350.32 118.007 350.144C119.185 349.906 120.348 349.58 121.485 349.168C122.595 348.629 123.663 347.995 124.676 347.274L125.422 346.701C125.665 346.505 125.895 346.285 126.133 346.081C126.608 345.662 127.059 345.214 127.484 344.739C128.209 343.691 128.828 342.568 129.33 341.391C130.04 340.384 130.677 339.325 131.236 338.222C131.866 337.161 132.433 336.064 132.963 334.965C133.309 333.808 133.607 332.658 133.888 331.527C134.112 330.407 134.355 329.162 134.504 327.971C134.875 326.808 135.186 325.626 135.437 324.431V324.431Z" fill="#E68688"/>
<path d="M139.346 305.595C138.833 305.327 138.514 305.168 138.32 305.086C137.826 304.859 138.079 305.077 138.067 305.107C138.009 305.23 137.959 305.357 137.918 305.486C137.782 305.633 137.638 305.77 137.486 305.897C137.234 305.9 136.983 305.868 136.74 305.801C136.652 306.008 136.539 306.204 136.404 306.384C136.163 306.318 135.927 306.237 135.697 306.14C135.525 306.33 135.341 306.507 135.145 306.67C134.897 306.491 134.659 306.295 134.435 306.084C134.217 306.165 133.994 306.233 133.77 306.291C133.542 306.301 133.304 306.295 133.062 306.289C132.82 306.282 132.568 306.275 132.314 306.256L131.574 305.976L130.648 306.569C130.442 306.236 130.247 305.902 130.069 305.562C129.778 305.685 129.487 305.808 129.195 305.916C128.931 305.914 128.673 305.902 128.412 305.887C128.206 305.721 128.005 305.553 127.821 305.38C127.601 305.291 127.381 305.203 127.177 305.098C127.017 304.914 126.868 304.719 126.733 304.515C126.487 304.512 126.244 304.491 125.991 304.462C125.763 304.42 125.543 304.34 125.341 304.226C125.29 303.961 125.26 303.692 125.25 303.421C125.017 303.341 124.789 303.242 124.571 303.127C124.569 302.849 124.577 302.58 124.599 302.306C124.293 302.208 123.995 302.09 123.705 301.952C123.784 301.635 123.872 301.33 123.971 301.023C123.765 300.836 123.567 300.615 123.373 300.416C123.544 300.082 123.728 299.75 123.91 299.436C123.551 299.244 123.231 299.11 122.885 298.923C122.916 298.672 122.965 298.422 123.033 298.178C123.221 297.929 123.436 297.702 123.673 297.502C123.483 297.296 123.311 297.073 123.159 296.835C123.229 296.63 123.313 296.43 123.412 296.238C123.607 296.088 123.811 295.953 124.024 295.833C123.843 295.54 123.692 295.229 123.571 294.903C123.71 294.725 123.86 294.557 124.02 294.399C124.23 294.29 124.448 294.199 124.671 294.127C124.746 293.887 124.843 293.654 124.962 293.432C125.223 293.399 125.485 293.385 125.747 293.39C125.929 293.268 126.157 293.208 126.348 293.091C126.451 292.766 126.576 292.449 126.723 292.143C127.041 292.308 127.355 292.505 127.654 292.686C127.851 292.53 128.064 292.383 128.275 292.243C128.506 292.208 128.731 292.188 128.99 292.168C129.21 291.922 129.453 291.683 129.698 291.451L130.548 291.944C130.799 291.721 131.056 291.498 131.326 291.29L132.141 291.424C132.411 291.544 132.681 291.671 132.943 291.797C133.208 291.67 133.475 291.548 133.745 291.431C134.006 291.514 134.265 291.597 134.515 291.69C134.779 291.663 135.034 291.646 135.293 291.63C135.552 291.613 135.821 291.527 136.083 291.489C136.333 291.471 136.584 291.484 136.83 291.528C137.064 291.567 137.295 291.62 137.522 291.688C137.699 291.821 137.861 291.975 138.004 292.145C138.159 292.206 138.307 292.282 138.447 292.373C138.524 292.45 138.584 292.544 138.624 292.648C138.564 292.766 138.471 292.864 138.358 292.927C138.408 293.129 138.464 293.481 138.518 293.748L139.144 294.54L139.188 295.409L139.239 296.27L138.928 297.155L138.966 297.995C139.022 298.273 139.071 298.549 139.117 298.829L138.868 299.662C139.069 299.936 139.295 300.221 139.492 300.514C139.402 300.79 139.311 301.063 139.218 301.335C139.266 301.619 139.295 301.9 139.329 302.189L138.921 302.973L138.935 303.81C138.934 304.065 138.916 304.319 138.881 304.572C138.855 304.75 138.602 304.82 138.846 305.126C138.864 305.16 138.767 305.286 139.346 305.595Z" fill="#96CCED"/>
<path d="M229.318 207.13L229.198 207.034L229.318 207.13Z" fill="#96CCED"/>
<path d="M142.16 301.572C142.141 301.252 142.111 300.932 142.071 300.617C142.194 300.306 142.3 299.996 142.403 299.678C142.338 299.364 142.281 299.051 142.195 298.738C142.178 298.426 142.157 298.117 142.129 297.811L142.214 296.88L141.758 296.003L142.007 295.068L142.139 294.142L141.793 293.283L141.938 292.818L142.009 292.585C142.045 292.496 142.065 292.401 142.07 292.305C141.98 291.779 141.792 291.279 141.517 290.833C141.244 290.435 140.905 290.092 140.515 289.818C140.286 289.431 140.021 289.07 139.722 288.738C139.331 288.669 138.933 288.644 138.535 288.664C138.181 288.656 137.826 288.675 137.474 288.719C137.206 288.461 136.929 288.223 136.641 287.983C136.31 287.908 136.014 287.845 135.704 287.791C135.363 287.979 135.034 288.175 134.714 288.375C134.43 288.14 134.14 287.917 133.839 287.697C133.528 287.867 133.219 288.044 132.919 288.227L132.023 288.197L131.125 288.163L130.197 287.813L129.274 287.804C128.987 288.045 128.709 288.29 128.432 288.55C128.135 288.618 127.813 288.694 127.506 288.786C127.135 288.579 126.739 288.361 126.327 288.176C126.062 288.494 125.813 288.827 125.583 289.172C125.265 289.288 124.941 289.378 124.63 289.523C124.219 289.471 123.804 289.453 123.389 289.47C123.17 289.822 122.974 290.187 122.802 290.565C122.597 290.891 122.418 291.233 122.266 291.588C121.793 291.621 121.324 291.7 120.864 291.824C120.816 292.286 120.806 292.752 120.833 293.214C120.488 293.45 120.158 293.708 119.843 293.987C119.832 294.4 119.847 294.813 119.889 295.223C119.568 295.53 119.269 295.861 118.995 296.215C119.179 296.633 119.403 297.03 119.664 297.4C119.479 297.756 119.319 298.125 119.185 298.505C119.358 298.863 119.561 299.205 119.792 299.525C119.636 299.904 119.483 300.325 119.347 300.677C119.572 300.952 119.797 301.219 120.03 301.477C120.145 301.779 120.262 302.083 120.394 302.381C120.255 302.792 120.137 303.21 120.041 303.633C120.187 303.954 120.343 304.273 120.52 304.591C120.716 304.903 120.939 305.194 121.186 305.463C121.588 305.626 122.001 305.76 122.422 305.864C122.616 306.157 122.827 306.439 123.054 306.706C123.164 307.111 123.299 307.508 123.46 307.893C123.721 308.147 123.99 308.395 124.272 308.623C124.707 308.572 125.14 308.491 125.566 308.38C125.763 308.722 125.977 309.049 126.207 309.377C126.578 309.343 126.941 309.29 127.296 309.229C127.566 309.417 127.841 309.601 128.118 309.772C128.46 309.773 128.766 309.763 129.083 309.743L129.975 309.915L130.849 310.12C131.118 310.325 131.394 310.545 131.683 310.728C131.992 310.789 132.305 310.847 132.63 310.896C132.96 310.932 133.293 310.94 133.626 310.921C133.972 310.699 134.306 310.468 134.629 310.218C134.972 310.293 135.319 310.35 135.669 310.387C136.05 310.513 136.439 310.611 136.835 310.679C137.203 310.537 137.562 310.369 137.909 310.177C138.246 309.927 138.564 309.649 138.859 309.346C139.263 309.2 139.652 309.012 140.02 308.783C140.113 308.561 140.194 308.334 140.264 308.103C140.361 307.76 140.424 307.413 140.424 307.413C140.541 307.347 140.652 307.269 140.755 307.181L140.981 306.965C141.045 306.923 141.423 306.666 139.532 305.68L139.427 305.624L139.533 305.676L139.623 305.716C139.799 305.796 139.976 305.876 140.122 305.93C140.447 306.053 140.546 306.052 140.579 306.013C140.727 305.787 140.825 305.532 140.867 305.264C140.998 304.948 141.111 304.624 141.204 304.294C141.254 303.945 141.277 303.663 141.308 303.347L141.702 302.459L142.16 301.572ZM138.068 305.111C138.01 305.234 137.96 305.36 137.918 305.49C137.783 305.636 137.639 305.774 137.487 305.901C137.235 305.904 136.984 305.871 136.741 305.805C136.653 306.012 136.54 306.208 136.405 306.388C136.164 306.322 135.928 306.241 135.697 306.144C135.526 306.334 135.342 306.511 135.146 306.674C134.898 306.495 134.66 306.299 134.436 306.088C134.218 306.168 133.995 306.237 133.77 306.294C133.543 306.304 133.305 306.298 133.063 306.292C132.821 306.286 132.569 306.279 132.315 306.26L131.575 305.98L130.649 306.572C130.443 306.24 130.248 305.906 130.07 305.566C129.779 305.689 129.488 305.812 129.195 305.92C128.932 305.918 128.674 305.906 128.413 305.89C128.207 305.725 128.005 305.557 127.821 305.384C127.601 305.295 127.382 305.206 127.177 305.102C127.018 304.918 126.869 304.723 126.734 304.519C126.488 304.515 126.245 304.495 125.992 304.466C125.764 304.424 125.544 304.344 125.342 304.229C125.291 303.965 125.261 303.695 125.251 303.425C125.018 303.344 124.79 303.246 124.571 303.131C124.57 302.853 124.578 302.584 124.6 302.309C124.294 302.212 123.996 302.094 123.706 301.956C123.785 301.639 123.873 301.334 123.972 301.026C123.766 300.84 123.568 300.619 123.374 300.42C123.545 300.086 123.729 299.754 123.911 299.439C123.552 299.247 123.232 299.114 122.886 298.927C122.916 298.675 122.966 298.426 123.033 298.181C123.222 297.933 123.437 297.706 123.674 297.506C123.484 297.3 123.312 297.077 123.16 296.839C123.23 296.634 123.314 296.434 123.413 296.242C123.608 296.092 123.812 295.957 124.025 295.837C123.844 295.544 123.693 295.233 123.572 294.907C123.711 294.729 123.861 294.561 124.021 294.403C124.231 294.294 124.448 294.203 124.672 294.131C124.747 293.89 124.844 293.657 124.963 293.435C125.224 293.402 125.486 293.389 125.748 293.394C125.93 293.272 126.157 293.212 126.349 293.094C126.451 292.77 126.577 292.453 126.723 292.147C127.042 292.312 127.356 292.509 127.655 292.69C127.852 292.533 128.064 292.386 128.276 292.246C128.507 292.212 128.732 292.191 128.991 292.171C129.211 291.926 129.454 291.687 129.699 291.455L130.549 291.948C130.8 291.724 131.057 291.501 131.326 291.294L132.142 291.427C132.412 291.547 132.682 291.675 132.944 291.801C133.208 291.674 133.476 291.552 133.746 291.434C134.007 291.518 134.266 291.601 134.516 291.693C134.78 291.667 135.035 291.65 135.294 291.633C135.553 291.617 135.822 291.53 136.084 291.493C136.334 291.475 136.585 291.488 136.831 291.532C137.065 291.571 137.296 291.624 137.523 291.692C137.7 291.825 137.862 291.978 138.005 292.149C138.16 292.21 138.308 292.286 138.448 292.377C138.525 292.454 138.585 292.548 138.625 292.652C138.565 292.77 138.472 292.867 138.359 292.931C138.409 293.133 138.465 293.485 138.519 293.752L139.145 294.543L139.188 295.413L139.24 296.274L138.929 297.158L138.967 297.999C139.023 298.277 139.072 298.553 139.118 298.833L138.869 299.665C139.069 299.94 139.296 300.225 139.493 300.517C139.403 300.794 139.312 301.067 139.219 301.339C139.267 301.623 139.296 301.904 139.33 302.193L138.92 302.976L138.934 303.814C138.933 304.068 138.915 304.323 138.88 304.575C138.855 304.753 138.602 304.824 138.846 305.129C138.886 305.181 138.79 305.307 139.368 305.619C138.855 305.351 138.536 305.192 138.342 305.111C137.825 304.863 138.079 305.077 138.068 305.111Z" fill="#1B557A"/>
<path d="M124.724 312.91C124.644 312.683 124.545 312.464 124.455 312.257C124.38 312.112 124.318 312.04 124.249 311.925L124.224 311.21L123.977 310.549L123.654 309.91L123.406 309.248L123.204 308.579L123.153 307.861L122.933 307.196L122.767 306.513L122.769 305.78L122.521 305.115L122.04 304.531L121.874 303.851L121.697 303.174L121.695 302.441L121.5 301.769L121.242 301.134L121.164 300.413L120.624 299.856L120.529 299.151L120.22 298.513L120.159 297.794L119.88 297.154L119.606 296.51C119.542 296.36 119.622 296.157 119.393 296.063C119.365 296.027 119.328 296.001 119.286 295.987C119.243 295.973 119.197 295.973 119.154 295.986C119.056 295.838 118.952 295.701 118.952 295.701C118.778 295.409 118.555 295.153 118.294 294.944C118.085 294.646 117.826 294.389 117.529 294.187C117.165 294.146 116.796 294.175 116.439 294.275C116.044 294.206 115.637 294.235 115.25 294.36C114.959 294.609 114.716 294.912 114.534 295.254C114.22 295.437 113.929 295.66 113.667 295.918C113.562 296.214 113.483 296.52 113.43 296.83C113.353 297.111 113.294 297.381 113.246 297.642L113.14 298.382L112.927 299.066L113.213 299.814L112.62 300.45L112.816 301.186L112.817 301.898L112.566 302.577L112.466 303.275L112.209 303.954L112.331 304.681L112.392 305.4L112.041 306.066L112.183 306.796L111.858 307.465L112.175 308.217L111.773 308.902L111.946 309.636L111.401 310.384L111.891 311.122L111.797 311.466C111.776 311.547 111.758 311.629 111.745 311.712L111.702 312.016C111.54 312.432 111.378 312.917 111.208 313.464C111.253 313.662 111.299 313.846 111.348 314.015L111.367 314.078L111.454 314.089L111.65 314.079L112.027 314.053L113.157 314.333L113.727 314.581C113.864 314.655 113.941 314.715 114.041 314.781L114.803 314.374L115.463 314.544L116.103 314.854L116.8 314.769L117.429 315.156L118.091 315.309L118.835 315.006C119.023 315.226 119.217 315.447 119.426 315.665L120.163 315.625C120.402 315.677 120.652 315.727 120.903 315.766C121.172 315.655 121.435 315.536 121.689 315.409C121.756 315.445 121.824 315.478 121.894 315.506C121.992 315.54 122.099 315.561 122.204 315.589C122.429 315.643 122.658 315.682 122.889 315.705C123.236 315.533 123.534 315.267 123.751 314.937C124.063 314.738 124.304 314.437 124.434 314.082C124.626 313.722 124.725 313.318 124.724 312.91V312.91Z" fill="#102B4C"/>
<path d="M92.489 292.05L92.5499 292.15L91.8227 292.117C92.0171 292.05 92.2114 291.982 92.408 291.922L92.489 292.05Z" fill="#96CCED"/>
<path d="M92.5501 292.15C92.7272 292.444 92.8666 292.689 92.9846 292.893C92.7748 293.013 92.5467 293.093 92.3112 293.13C92.2675 293.124 92.193 293.047 92.0588 292.742C92.0459 292.712 92.0341 292.674 92.0185 292.64C92.172 292.451 92.3512 292.286 92.5501 292.15V292.15Z" fill="#96CCED"/>
<path d="M112.451 295.281L112.315 296.235C112.269 296.552 112.194 296.863 112.125 297.178C111.949 297.479 111.763 297.771 111.572 298.06L111.292 298.963L111.67 300.011C111.608 300.323 111.549 300.639 111.478 300.946C111.116 301.173 110.744 301.38 110.363 301.568C110.475 301.91 110.586 302.262 110.679 302.619C110.545 302.882 110.403 303.138 110.252 303.382C109.938 303.532 109.616 303.661 109.287 303.766C109.308 304.079 109.31 304.393 109.293 304.706C109.24 305.001 109.164 305.291 109.067 305.573C108.68 305.561 108.297 305.512 107.921 305.426C107.885 305.797 107.819 306.164 107.723 306.525C107.402 306.523 107.08 306.499 106.767 306.466C106.597 306.725 106.408 306.992 106.2 307.25C105.872 307.155 105.518 307.042 105.184 306.913C105.004 307.264 104.794 307.61 104.574 307.955C104.242 307.881 103.913 307.792 103.584 307.696C103.324 307.916 103.059 308.141 102.782 308.358L101.77 307.872L100.935 308.476C100.641 308.549 100.347 308.614 100.059 308.67C99.7535 308.445 99.4614 308.202 99.1843 307.942C98.9172 307.968 98.6559 307.977 98.4023 307.98C98.1487 307.983 97.8901 308.046 97.6379 308.063C97.3508 308.291 97.0492 308.499 96.7352 308.683C96.4936 308.586 96.2585 308.472 96.031 308.344C95.8743 308.068 95.7488 307.774 95.6567 307.467C95.4924 307.327 95.3418 307.171 95.2067 307C94.8718 307.107 94.5261 307.169 94.1781 307.185C94.1808 306.881 94.224 306.577 94.3066 306.283C94.0455 306.199 93.7981 306.076 93.5719 305.919C93.5622 305.651 93.5747 305.371 93.592 305.082C93.4444 304.846 93.3007 304.582 93.1576 304.315C93.0971 304.019 93.0431 303.702 92.9885 303.39L92.9089 302.437L93.27 301.416L93.2643 300.473L93.1962 299.536C92.9653 299.236 92.7383 298.933 92.5229 298.62L92.8073 297.658C92.9915 297.326 93.1785 297.022 93.3692 296.716L93.3164 295.792C93.2473 295.509 93.1862 295.241 93.1405 294.987C93.2535 294.789 93.3945 294.609 93.5586 294.453C93.5586 294.453 93.462 294.292 93.3783 294.135C93.3205 294.029 93.2688 293.919 93.2234 293.806L93.3947 293.828C93.4266 293.826 93.4584 293.831 93.4888 293.84C93.4888 293.84 93.5505 293.887 93.4377 293.694L93.1369 293.165L92.9818 292.885C93.2815 292.799 93.592 292.733 93.8987 292.669C94.2005 292.577 94.4979 292.469 94.7898 292.346L95.7543 292.395C96.0902 292.438 96.4 292.521 96.719 292.587C97.012 292.475 97.3108 292.371 97.6119 292.275L98.5508 292.456L99.4541 292.167C99.7622 292.117 100.069 292.103 100.378 292.068C100.684 292.108 100.992 292.126 101.295 292.186L102.239 291.781L103.139 292.16C103.438 292.248 103.733 292.364 104.029 292.473C104.34 292.421 104.658 292.352 104.975 292.311L105.815 292.831L106.721 292.926C107.032 292.931 107.337 292.952 107.644 292.981C107.904 293.199 108.162 293.403 108.409 293.634L109.397 293.498C109.726 293.469 110.047 293.471 110.378 293.457C110.609 293.728 110.83 294.006 111.041 294.3L111.82 294.691C111.887 294.585 111.975 294.495 112.077 294.425C112.18 294.356 112.295 294.309 112.414 294.288C112.374 294.402 112.312 294.507 112.23 294.595C112.148 294.683 112.05 294.753 111.941 294.799C112.033 294.787 112.126 294.809 112.203 294.861C112.299 294.992 112.382 295.133 112.451 295.281Z" fill="#96CCED"/>
<path d="M115.079 300.766C114.975 301.108 114.868 301.45 114.746 301.807C114.73 302.182 114.699 302.563 114.664 302.953C114.283 303.231 113.903 303.495 113.525 303.742C113.6 304.183 113.651 304.629 113.677 305.078C113.494 305.439 113.288 305.788 113.063 306.123C112.736 306.397 112.393 306.651 112.037 306.884C111.875 307.278 111.688 307.662 111.477 308.031C111.126 308.257 110.76 308.457 110.383 308.627C110.065 308.854 109.736 309.064 109.397 309.254C109.216 309.713 109.013 310.161 108.788 310.599C108.37 310.648 107.958 310.681 107.561 310.687C107.203 310.797 106.847 310.897 106.493 310.976C106.208 311.295 105.913 311.588 105.611 311.887C105.202 311.778 104.809 311.653 104.424 311.521C104.082 311.527 103.719 311.527 103.371 311.518C103.088 311.894 102.799 312.266 102.507 312.637C102.128 312.443 101.753 312.241 101.379 312.033C101.051 312.219 100.714 312.403 100.364 312.575C99.9898 312.417 99.6209 312.245 99.2582 312.077C98.8961 312.326 98.5211 312.553 98.1348 312.758C97.7611 312.596 97.3937 312.414 97.0379 312.222C96.6276 312.299 96.2137 312.349 95.7986 312.372C95.4533 312.116 95.1252 311.837 94.8166 311.535C94.4121 311.467 94.0132 311.371 93.6228 311.246C93.1892 311.151 92.7654 311.017 92.3561 310.845C92.0646 310.493 91.805 310.113 91.5807 309.71C91.2786 309.375 91.0064 309.011 90.7675 308.624C90.6188 308.203 90.5057 307.768 90.4295 307.325C90.2257 306.972 90.0415 306.606 89.8776 306.23C89.6065 305.9 89.3504 305.561 89.1039 305.227C89.3092 304.795 89.5303 304.396 89.7508 304.001C89.4522 303.696 89.1815 303.388 88.9018 303.071L88.954 301.985L88.8217 300.923L88.7393 299.845L88.5489 298.782C88.7621 298.415 88.9777 298.055 89.1994 297.699C89.075 297.349 88.9582 296.992 88.8453 296.633L89.3627 295.572C89.2708 295.165 89.2064 294.751 89.1698 294.334C89.426 293.927 89.71 293.539 90.0195 293.173C90.1921 292.714 90.4323 292.284 90.7316 291.899C90.8078 291.741 90.9024 291.593 91.0133 291.459C91.1258 291.318 91.2487 291.186 91.3808 291.065C91.4247 291.021 91.41 290.62 91.7979 291.019L91.8451 291.071C91.8336 291.099 91.8238 291.127 91.8159 291.156C91.8064 291.223 91.5825 291.258 91.7813 291.902C91.8008 291.972 91.8242 292.04 91.8513 292.107V292.107C91.8641 292.137 91.8769 292.167 91.8864 292.197L92.0489 292.616C92.0646 292.65 92.0764 292.687 92.0892 292.717C92.2216 293.037 92.2951 293.121 92.3417 293.105C92.5773 293.069 92.8055 292.989 93.0153 292.868L93.1704 293.148L93.4711 293.677C93.584 293.87 93.5357 293.824 93.5223 293.823C93.4919 293.813 93.4601 293.809 93.4282 293.811L93.2569 293.789C93.3023 293.902 93.354 294.011 93.4117 294.118C93.4954 294.275 93.5921 294.436 93.5921 294.436C93.428 294.592 93.287 294.772 93.1739 294.969C93.2197 295.224 93.2807 295.492 93.3499 295.775L93.4027 296.699C93.2119 297.005 93.0235 297.319 92.8408 297.641L92.5563 298.603C92.7717 298.916 92.9988 299.219 93.2296 299.519L93.2978 300.456L93.3035 301.399L92.9424 302.42L93.022 303.373C93.0765 303.685 93.1306 304.002 93.191 304.298C93.322 304.562 93.4671 304.818 93.6255 305.065C93.6081 305.354 93.5957 305.634 93.6053 305.902C93.8316 306.059 94.0789 306.182 94.3401 306.266C94.2575 306.56 94.2142 306.864 94.2115 307.168C94.5595 307.152 94.9052 307.09 95.2401 306.983C95.3753 307.154 95.526 307.31 95.6901 307.45C95.7822 307.757 95.9078 308.051 96.0645 308.327C96.2919 308.455 96.5271 308.569 96.7686 308.666C97.0826 308.481 97.3843 308.274 97.6713 308.046C97.9235 308.029 98.1767 308.004 98.4357 307.963C98.6948 307.922 98.9506 307.951 99.2178 307.925C99.4949 308.185 99.7869 308.428 100.092 308.653C100.381 308.597 100.674 308.532 100.968 308.459L101.804 307.855L102.815 308.341C103.093 308.124 103.357 307.898 103.618 307.679C103.946 307.775 104.276 307.864 104.607 307.938C104.83 307.603 105.034 307.255 105.218 306.896C105.542 307.023 105.888 307.135 106.234 307.233C106.441 306.975 106.63 306.708 106.8 306.449C107.117 306.487 107.437 306.507 107.757 306.508C107.852 306.147 107.918 305.78 107.954 305.409C108.33 305.495 108.714 305.544 109.1 305.556C109.198 305.274 109.274 304.984 109.326 304.689C109.344 304.376 109.342 304.062 109.32 303.749C109.649 303.644 109.972 303.515 110.285 303.365C110.436 303.121 110.579 302.865 110.712 302.602C110.621 302.234 110.509 301.892 110.397 301.551C110.778 301.363 111.15 301.156 111.512 300.929C111.583 300.622 111.642 300.306 111.703 299.994L111.326 298.946L111.605 298.043C111.797 297.754 111.982 297.462 112.159 297.161C112.228 296.846 112.293 296.534 112.348 296.217C112.403 295.901 112.439 295.582 112.484 295.264C112.419 295.114 112.34 294.972 112.247 294.839C112.17 294.787 112.078 294.765 111.986 294.777C112.094 294.73 112.193 294.661 112.274 294.572C112.356 294.484 112.419 294.379 112.459 294.265C112.339 294.286 112.224 294.333 112.122 294.402C112.019 294.472 111.932 294.563 111.864 294.669L111.085 294.277C110.874 293.983 110.654 293.706 110.422 293.434C110.078 293.447 109.771 293.446 109.441 293.475L108.454 293.611C108.206 293.38 107.946 293.19 107.688 292.958C107.382 292.922 107.074 292.904 106.766 292.904L105.859 292.808L104.989 292.287C104.672 292.329 104.354 292.398 104.042 292.45C103.747 292.341 103.452 292.225 103.153 292.137L102.253 291.758L101.308 292.17L100.391 292.052C100.081 292.087 99.775 292.101 99.4669 292.15L98.5639 292.461L97.6251 292.28C97.3239 292.376 97.0252 292.48 96.7322 292.592C96.3997 292.524 96.0889 292.449 95.7674 292.4L94.8029 292.351C94.5018 292.448 94.2073 292.57 93.9119 292.674C93.6165 292.778 93.2946 292.805 92.995 292.891C92.8769 292.687 92.7375 292.441 92.5604 292.148L92.4994 292.048L92.419 291.917C92.2456 291.619 92.0477 291.338 91.8274 291.076C91.9654 290.756 92.2218 290.853 92.4264 290.762C92.737 290.599 93.0479 290.457 93.3661 290.313C93.6842 290.169 93.9948 290.007 94.3144 289.877L95.3624 289.94C95.6839 289.797 96.0068 289.668 96.3297 289.538C96.6711 289.543 97.0105 289.562 97.3479 289.595C97.6595 289.329 97.9741 289.042 98.3049 288.786L99.3418 288.951C99.6956 288.868 100.021 288.821 100.362 288.755C100.704 288.709 101.049 288.701 101.392 288.731L102.397 289.119L103.412 289.193C103.751 289.215 104.084 289.279 104.42 289.323C104.783 289.177 105.149 289.011 105.51 288.879L106.525 288.956L107.473 289.502C107.805 289.576 108.134 289.668 108.462 289.767C108.79 289.866 109.13 289.882 109.46 289.963L110.37 290.468C110.7 290.553 111.026 290.663 111.355 290.758C111.683 290.854 112.017 290.914 112.345 291.013C112.673 291.112 113.016 291.1 113.407 291.189C113.992 291.379 114.522 291.707 114.957 292.149C115.286 292.673 115.467 293.283 115.482 293.913C115.587 294.205 115.667 294.507 115.719 294.815L115.868 295.429C115.718 295.783 115.559 296.132 115.397 296.474C115.306 296.825 115.209 297.168 115.106 297.504L115.509 298.64C115.267 298.965 115.013 299.288 114.755 299.611L115.079 300.766Z" fill="#1B557A"/>
<path d="M92.9863 292.879C92.7764 292.999 92.5482 293.079 92.3127 293.116C92.2691 293.11 92.1945 293.033 92.0602 292.728C92.0474 292.698 92.0356 292.661 92.0199 292.627L91.8574 292.207C91.8614 292.179 91.8351 292.148 91.8223 292.118C91.7952 292.051 91.7718 291.983 91.7523 291.913C91.5535 291.268 91.764 291.232 91.7869 291.167C91.7948 291.138 91.8046 291.109 91.8161 291.082C92.0365 291.343 92.2344 291.625 92.4077 291.922L92.4882 292.054L92.5492 292.154C92.7268 292.444 92.8662 292.689 92.9863 292.879Z" fill="#1B557A"/>
<path d="M121.042 292.875C121.308 292.236 121.116 292.646 121.104 292.655L120.952 292.81C120.927 292.773 120.892 292.746 120.85 292.733L120.962 292.121L120.684 292.48L120.76 291.953L120.476 292.357L120.58 291.631L120.381 291.804L120.243 291.811L120.098 291.843L120.023 291.652L119.68 292.397L119.81 291.489L119.527 292.032L119.351 292.213L119.297 291.921L119.172 291.905L119.115 291.588L118.905 291.956L118.73 292.204L118.701 291.706L118.504 292.082L118.459 291.632L118.221 292.313L118.19 291.718L118.006 292.118L117.989 291.33L117.747 292.255L117.655 292.012L117.601 291.337L117.419 291.918L117.309 291.779L117.218 291.316L117.038 292.168L116.924 292.079L116.815 291.762L116.681 292.101L116.569 291.667L116.446 291.615L116.32 292.31L116.191 291.437L116.068 291.677L115.939 291.575L115.852 292.186L115.698 291.533L115.611 292.145L115.479 291.967L115.322 291.556L115.232 291.971L115.087 291.746L114.978 291.907L114.89 292.191L114.787 292.334L114.678 292.405L114.526 292.201L114.416 292.297L114.292 292.281L114.109 291.959L114.006 292.08L114.002 292.681L113.881 292.666L113.763 292.679L113.555 292.336L113.437 292.374L113.359 292.559L113.174 292.347L113.246 293.068L113.063 292.863L113.027 293.118L112.812 292.845L112.745 293.028L112.676 293.197C112.671 293.239 112.53 292.954 112.653 293.365C112.715 293.657 112.808 293.941 112.929 294.211L113.074 294.586L113.318 295.271C113.47 295.689 113.525 295.81 113.525 295.81L113.546 295.664L113.632 295.636L113.657 295.461L113.82 295.681L114.01 296.008L114.044 295.77L114.201 296.014L114.235 295.77L114.302 295.686L114.415 295.782L114.4 295.336L114.559 295.637L114.69 295.846L114.732 295.549L114.894 295.926L114.961 295.838L115.019 295.672L115.175 296.115L115.192 295.68L115.227 295.296L115.387 295.872L115.477 295.937L115.486 295.226L115.638 295.911L115.673 295.336L115.764 295.394L115.857 295.484L115.963 295.914L116.049 296.003L116.108 295.328L116.194 295.253L116.29 296.162L116.366 295.461L116.452 295.532L116.523 296.21L116.617 295.667L116.715 295.267L116.759 296.183L116.87 295.408L116.917 295.962L117.035 295.5L117.058 296.197L117.216 295.403L117.246 295.915L117.382 295.46L117.381 296.142L117.524 295.688L117.619 295.622L117.573 296.427L117.654 296.409L117.755 296.279L117.983 295.515L118.045 295.637L117.992 296.292L118.038 296.451L118.314 295.618L118.235 296.291L118.447 295.788L118.451 296.098L118.602 295.858L118.686 295.869L118.75 295.948L118.673 296.483L118.718 296.599L118.792 296.608L119.104 295.937L119.054 296.286L118.902 296.921L119.002 296.863L119.181 296.615L119.105 297.008L119.441 296.4L119.385 296.599L119.339 296.753C119.337 296.771 119.293 296.886 119.407 296.637L120.416 294.363L121.042 292.875Z" fill="#1B557A"/>
<path d="M90.9263 292.838C90.8855 292.189 90.8732 292.611 90.864 292.627L90.7137 292.818C90.6359 292.792 90.5539 292.782 90.4718 292.787L90.2106 292.22L89.9861 292.643L89.7139 292.152L89.4906 292.614L89.2229 291.926L88.9912 292.159L88.7531 292.221L88.5155 292.304L88.2694 292.159L88.0612 292.946L87.7858 292.072L87.5704 292.67L87.3397 292.896L87.0889 292.64L86.8515 292.674L86.6004 292.396L86.3778 292.805L86.1487 293.092L85.8904 292.625L85.6664 293.044L85.4111 292.627L85.2 293.34L84.9383 292.776L84.7156 293.21L84.4458 292.464L84.241 293.419L83.991 293.206L83.7403 292.565L83.5239 293.171L83.2796 293.061L83.024 292.623L82.8188 293.486L82.5752 293.419L82.3226 293.127L82.0981 293.453L81.8424 293.04L81.6005 293.009L81.39 293.693L81.1178 292.844L80.8874 293.091L80.644 293L80.4266 293.612L80.1754 292.975L79.9609 293.591L79.7145 293.424L79.4586 293.036L79.2346 293.455L78.9874 293.246L78.7527 293.404L78.5246 293.684L78.2885 293.828L78.0524 293.901L77.8037 293.702L77.5684 293.792L77.3269 293.783L77.0763 293.477L76.8399 293.599L76.6213 294.172L76.3822 294.17L76.1444 294.182L75.8925 293.862L75.6546 293.899L75.4223 294.064L75.1765 293.869L74.9614 294.514L74.7131 294.336L74.4833 294.555L74.2349 294.307C74.1588 294.361 74.0774 294.404 73.9997 294.468L73.7669 294.638C73.7134 294.677 73.6469 294.448 73.6048 294.791C73.5968 294.847 73.5476 294.784 73.5689 295.498L73.585 295.816L73.6182 296.376C73.6161 296.527 73.6326 296.677 73.6672 296.823C73.7304 296.859 73.7881 296.767 73.8463 296.743L74.0882 296.774C74.1691 296.739 74.2479 296.7 74.3241 296.655L74.5732 296.875L74.8255 297.192C74.9022 297.135 74.9822 297.077 75.0599 297.013L75.3088 297.258L75.5394 297.056L75.7764 297.002L76.0208 297.111L76.2452 296.713L76.4962 297.016L76.7457 297.233L76.9752 296.967L77.2311 297.356L77.4667 297.286L77.7009 297.132L77.9565 297.57L78.1806 297.15L78.4044 296.781L78.666 297.344L78.9096 297.411L79.1202 296.727L79.3871 297.398L79.6046 296.832L79.8464 296.888L80.0904 296.976L80.3451 297.397L80.5877 297.471L80.8016 296.787L81.0397 296.7L81.3132 297.589L81.5248 296.872L81.7666 296.928L82.0158 297.579L82.2348 297.028L82.4578 296.615L82.7317 297.501L82.9428 296.717L83.2094 297.246L83.4314 296.769L83.6987 297.436L83.9065 296.627L84.1787 297.118L84.4001 296.645L84.6652 297.305L84.8876 296.825L85.1229 296.734L85.3945 297.516L85.6329 297.475L85.8676 297.317L86.0777 296.515L86.3212 296.607L86.5739 297.233L86.8196 297.357L87.0245 296.473L87.2752 297.114L87.4936 296.565L87.7448 296.843L87.9739 296.556L88.2108 296.526L88.4527 296.557L88.7233 297.058L88.9654 297.135L89.2042 297.116L89.4158 296.4L89.6687 296.713L89.9254 297.312L90.1604 297.2L90.3891 296.891L90.6409 297.237L90.7512 296.895L90.8548 296.553L90.9378 296.738L91.0029 296.881C91.0029 296.881 91.0363 297.007 91.0487 296.752C91.0611 296.498 91.0547 295.871 90.9973 294.426L90.9263 292.838Z" fill="#1B557A"/>
<path d="M102.143 298.281C101.848 298.114 101.503 298.06 101.168 298.128C100.833 298.196 100.528 298.382 100.306 298.654C100.084 298.926 99.9578 299.268 99.9497 299.62C99.9416 299.973 100.052 300.314 100.261 300.586C100.462 300.838 100.738 301.012 101.048 301.082C101.357 301.152 101.683 301.114 101.975 300.973C102.26 300.814 102.483 300.557 102.606 300.247C102.729 299.938 102.744 299.596 102.647 299.281C102.529 298.978 102.303 298.736 102.015 298.604C101.727 298.472 101.399 298.46 101.096 298.57" fill="#102B4C"/>
<path d="M101.406 299.417L101.461 299.563L101.449 299.526L101.431 299.435L101.457 299.47C101.467 299.525 101.474 299.58 101.478 299.636L101.486 299.577C101.482 299.624 101.475 299.67 101.466 299.717L101.463 299.738C101.476 299.698 101.491 299.66 101.507 299.622C101.485 299.707 101.459 299.79 101.427 299.872L101.43 299.851L101.451 299.821L101.487 299.783L101.542 299.737C101.595 299.692 101.65 299.649 101.707 299.609L101.639 299.682L101.581 299.724L101.598 299.726L101.639 299.707L101.695 299.693C101.65 299.712 101.604 299.726 101.556 299.735C101.507 299.742 101.457 299.743 101.408 299.741C101.475 299.742 101.541 299.751 101.606 299.767C101.653 299.783 101.698 299.804 101.741 299.83C101.654 299.827 101.567 299.816 101.482 299.797C101.546 299.828 101.607 299.866 101.664 299.909C101.588 299.888 101.515 299.86 101.444 299.824C101.547 299.894 101.643 299.975 101.731 300.064C101.637 300.014 101.548 299.955 101.466 299.887C101.517 299.943 101.564 300.004 101.604 300.069C101.553 300.019 101.504 299.967 101.459 299.911L101.404 299.84L101.468 299.944C101.511 300.018 101.55 300.095 101.586 300.173C101.555 300.141 101.526 300.107 101.501 300.07C101.473 300.014 101.448 299.956 101.427 299.897L101.393 299.796L101.413 299.877C101.423 299.931 101.431 299.986 101.437 300.04L101.399 299.971C101.382 299.885 101.373 299.797 101.372 299.708C101.363 299.87 101.34 300.032 101.303 300.19C101.287 300.171 101.273 300.152 101.26 300.131C101.254 300.069 101.254 300.005 101.259 299.943C101.231 300 101.198 300.056 101.161 300.108C101.173 300.023 101.193 299.94 101.22 299.859C101.221 299.846 101.222 299.833 101.226 299.821C101.154 299.936 101.072 300.045 100.981 300.145C101.062 299.997 101.156 299.856 101.263 299.726C101.233 299.759 101.2 299.789 101.165 299.817C101.177 299.799 101.191 299.783 101.206 299.768C101.114 299.839 101.016 299.899 100.913 299.948C101.012 299.868 101.117 299.797 101.227 299.736C101.124 299.785 101.017 299.824 100.906 299.851C100.935 299.823 100.965 299.797 100.996 299.774C101.069 299.738 101.144 299.709 101.221 299.685C101.144 299.693 101.068 299.694 100.991 299.688C101.035 299.668 101.079 299.653 101.125 299.641L101.048 299.602C100.997 299.586 100.947 299.565 100.899 299.541C100.876 299.519 100.854 299.496 100.834 299.472L100.816 299.405C100.858 299.401 100.901 299.399 100.943 299.4L100.922 299.337L100.953 299.306C101.01 299.331 101.064 299.362 101.115 299.398C101.105 299.379 101.098 299.359 101.093 299.338C101.028 299.253 100.972 299.161 100.926 299.064C100.945 299.053 100.965 299.044 100.985 299.036L101.044 299.008C101.09 299.055 101.133 299.106 101.173 299.16L101.218 299.13C101.226 299.095 101.238 299.061 101.253 299.028C101.28 299.062 101.305 299.099 101.327 299.137C101.334 299.012 101.351 298.888 101.379 298.766C101.407 298.805 101.432 298.845 101.455 298.886C101.48 298.847 101.508 298.811 101.539 298.776C101.556 298.834 101.569 298.892 101.579 298.952C101.604 298.931 101.631 298.912 101.659 298.895L101.747 298.853C101.77 298.856 101.727 298.993 101.825 298.809C101.916 298.692 101.993 298.563 102.054 298.426L102.152 298.243L102.319 297.909C102.419 297.712 102.438 297.651 102.433 297.643C102.379 297.632 102.325 297.625 102.271 297.622L102.09 297.549C102.023 297.552 101.956 297.559 101.889 297.569C101.837 297.512 101.782 297.457 101.724 297.406C101.666 297.335 101.605 297.268 101.541 297.204C101.47 297.236 101.402 297.272 101.337 297.313C101.267 297.266 101.194 297.222 101.12 297.182C101.017 297.291 100.887 297.37 100.745 297.408C100.673 297.405 100.601 297.407 100.529 297.412C100.49 297.506 100.458 297.603 100.433 297.702C100.347 297.678 100.259 297.659 100.171 297.647C100.086 297.649 100.002 297.656 99.918 297.668C99.8863 297.753 99.8602 297.84 99.8398 297.928C99.7332 297.925 99.6263 297.929 99.5199 297.941C99.4758 298.01 99.4346 298.083 99.3968 298.156C99.3653 298.233 99.3434 298.314 99.3317 298.397C99.2115 298.421 99.0926 298.454 98.9758 298.493C99.009 298.598 99.0492 298.701 99.0962 298.8C99.1324 298.892 99.1746 298.98 99.2226 299.065C99.0982 299.109 98.9765 299.161 98.8582 299.221C98.8274 299.297 98.8004 299.374 98.7773 299.453C98.9005 299.539 99.0303 299.616 99.1656 299.681C99.034 299.754 98.9078 299.838 98.7878 299.931C98.8981 299.997 99.0134 300.055 99.1327 300.103C99.1304 300.177 99.1324 300.251 99.1387 300.324C99.1381 300.401 99.1421 300.478 99.1505 300.554C99.096 300.662 99.0501 300.776 99.0134 300.892C99.033 300.977 99.0576 301.061 99.087 301.143C99.2351 301.149 99.3837 301.142 99.5313 301.122C99.5856 301.174 99.6426 301.223 99.702 301.268C99.624 301.448 99.5609 301.634 99.5132 301.824C99.6623 301.779 99.8078 301.721 99.9483 301.652C99.9997 301.707 100.054 301.759 100.111 301.808C100.11 301.962 100.12 302.115 100.141 302.267C100.259 302.21 100.372 302.144 100.481 302.069C100.576 302.023 100.669 301.97 100.757 301.909C100.778 302.098 100.814 302.285 100.865 302.467C100.973 302.336 101.07 302.196 101.157 302.049C101.221 302.16 101.293 302.266 101.372 302.365C101.452 302.275 101.526 302.18 101.594 302.081C101.682 302.203 101.781 302.316 101.888 302.421C101.947 302.255 101.992 302.085 102.022 301.911C102.122 301.98 102.228 302.039 102.339 302.087C102.384 301.977 102.421 301.862 102.449 301.746C102.579 301.815 102.716 301.872 102.856 301.916C102.884 301.794 102.902 301.67 102.909 301.545C102.959 301.481 103 301.408 103.044 301.342C103.205 301.377 103.369 301.398 103.534 301.405C103.58 301.326 103.629 301.247 103.668 301.166C103.686 301.074 103.699 300.98 103.708 300.887C103.623 300.748 103.527 300.616 103.421 300.494C103.466 300.431 103.506 300.365 103.542 300.296C103.676 300.25 103.805 300.192 103.93 300.122C103.97 300.036 104.005 299.948 104.036 299.858C103.89 299.759 103.736 299.674 103.576 299.604C103.694 299.509 103.804 299.405 103.905 299.29C103.805 299.218 103.699 299.155 103.59 299.1C103.619 299.001 103.64 298.899 103.654 298.796C103.578 298.731 103.497 298.675 103.411 298.626C103.37 298.553 103.324 298.484 103.273 298.419C103.235 298.347 103.192 298.277 103.145 298.211C103.159 298.083 103.164 297.954 103.159 297.825C103.104 297.753 103.046 297.683 102.983 297.617C102.917 297.559 102.842 297.512 102.76 297.479C102.629 297.548 102.503 297.628 102.384 297.718C102.338 297.631 102.286 297.547 102.228 297.467C102.183 297.336 102.127 297.21 102.06 297.09C101.963 297.089 101.866 297.094 101.77 297.106C101.672 297.151 101.576 297.203 101.485 297.261C101.394 297.194 101.295 297.142 101.189 297.106C101.109 297.245 101.038 297.389 100.977 297.537L100.87 297.47L100.781 297.423C100.781 297.423 100.723 297.373 100.745 297.508C100.843 297.902 100.971 298.287 101.128 298.659L101.406 299.417Z" fill="#102B4C"/>
<path d="M131.156 297.845C130.843 297.773 130.511 297.833 130.235 298.012C129.958 298.191 129.758 298.475 129.679 298.801C129.619 299.134 129.68 299.475 129.849 299.759C130.017 300.044 130.283 300.251 130.595 300.341C130.909 300.412 131.24 300.371 131.534 300.224C131.829 300.078 132.07 299.834 132.219 299.533C132.34 299.289 132.386 299.013 132.349 298.745C132.312 298.477 132.195 298.23 132.015 298.037C131.924 297.952 131.817 297.886 131.7 297.844C131.584 297.801 131.46 297.783 131.335 297.791C131.211 297.798 131.089 297.831 130.975 297.887C130.862 297.944 130.76 298.022 130.675 298.119V298.119C130.658 298.138 130.642 298.158 130.626 298.179" fill="#102B4C"/>
<path d="M131.241 298.571L131.267 298.599L131.298 298.65C131.309 298.669 131.319 298.689 131.327 298.71C131.335 298.731 131.341 298.752 131.345 298.773L131.334 298.85L131.352 298.724C131.361 298.707 131.372 298.69 131.383 298.675L131.386 298.654L131.28 298.775L131.26 298.794L131.302 298.767C131.266 298.794 131.228 298.818 131.189 298.838V298.838C131.151 298.855 131.113 298.869 131.073 298.88C131.13 298.866 131.187 298.857 131.245 298.853C131.294 298.854 131.342 298.86 131.389 298.871C131.304 298.89 131.218 298.902 131.131 298.906C131.201 298.908 131.271 298.917 131.34 298.932C131.262 298.936 131.185 298.932 131.109 298.921C131.228 298.949 131.345 298.989 131.458 299.04C131.355 299.024 131.255 298.998 131.157 298.962C131.224 298.994 131.288 299.033 131.346 299.079C131.22 299.024 131.099 298.957 130.984 298.88C131.123 298.972 131.252 299.078 131.37 299.196C131.328 299.182 131.287 299.165 131.248 299.145C131.153 299.071 131.064 298.989 130.981 298.901C131.048 298.984 131.107 299.074 131.159 299.169L131.089 299.131C131.035 299.067 130.987 298.997 130.944 298.924C131.01 299.066 131.064 299.213 131.107 299.365L131.045 299.339C131.013 299.289 130.985 299.235 130.962 299.179C130.966 299.241 130.965 299.302 130.96 299.364C130.934 299.286 130.916 299.205 130.905 299.122C130.899 299.112 130.895 299.1 130.893 299.088C130.886 299.218 130.868 299.346 130.838 299.473C130.846 299.39 130.858 299.307 130.874 299.225L130.896 299.067C130.853 299.163 130.801 299.254 130.741 299.339C130.794 299.224 130.857 299.113 130.929 299.008C130.862 299.102 130.786 299.19 130.703 299.27C130.717 299.235 130.733 299.2 130.752 299.166C130.801 299.102 130.856 299.043 130.914 298.988C130.853 299.035 130.787 299.077 130.719 299.112C130.749 299.078 130.782 299.047 130.818 299.018L130.736 299.036C130.688 299.051 130.638 299.061 130.588 299.067L130.511 299.057L130.474 299.027C130.513 299.009 130.554 298.995 130.596 298.986L130.553 298.981L130.555 298.963L130.696 298.981C130.599 298.938 130.507 298.883 130.422 298.818L130.457 298.79L130.489 298.759C130.549 298.793 130.606 298.833 130.66 298.877L130.664 298.849C130.654 298.819 130.647 298.789 130.643 298.757C130.674 298.788 130.704 298.82 130.732 298.854C130.681 298.735 130.641 298.611 130.613 298.483C130.643 298.511 130.671 298.541 130.696 298.572C130.699 298.526 130.705 298.481 130.716 298.436C130.74 298.484 130.761 298.534 130.777 298.586C130.786 298.556 130.799 298.527 130.813 298.498C130.828 298.472 130.846 298.447 130.865 298.423C130.865 298.423 130.846 298.552 130.916 298.355C130.971 298.221 131.016 298.083 131.05 297.942L131.105 297.75L131.195 297.406C131.248 297.199 131.254 297.136 131.234 297.13C131.181 297.132 131.127 297.139 131.074 297.148L130.879 297.123C130.815 297.143 130.751 297.165 130.688 297.191C130.626 297.151 130.556 297.11 130.483 297.072C130.41 297.034 130.326 296.97 130.241 296.924C130.182 296.974 130.127 297.027 130.074 297.084C129.99 297.073 129.907 297.034 129.817 297.015C129.768 297.08 129.724 297.149 129.688 297.223C129.636 297.269 129.585 297.319 129.537 297.37C129.488 297.425 129.403 297.424 129.337 297.455C129.337 297.56 129.345 297.664 129.361 297.768C129.27 297.777 129.18 297.793 129.091 297.815C129.011 297.85 128.933 297.89 128.858 297.934C128.863 298.028 128.875 298.121 128.894 298.213C128.793 298.253 128.696 298.303 128.602 298.36C128.585 298.444 128.573 298.529 128.566 298.615C128.576 298.699 128.592 298.782 128.613 298.863C128.519 298.937 128.431 299.019 128.349 299.106C128.425 299.187 128.509 299.259 128.598 299.323C128.672 299.387 128.751 299.443 128.834 299.492C128.739 299.593 128.652 299.701 128.573 299.815C128.582 299.893 128.595 299.97 128.611 300.047C128.758 300.061 128.905 300.062 129.052 300.05C128.967 300.176 128.891 300.308 128.825 300.445C128.951 300.446 129.077 300.437 129.202 300.418C129.267 300.547 129.335 300.674 129.404 300.8C129.4 300.914 129.405 301.028 129.42 301.14C129.473 301.201 129.53 301.258 129.591 301.311C129.723 301.241 129.849 301.16 129.968 301.068C130.036 301.082 130.106 301.091 130.176 301.095C130.188 301.285 130.216 301.473 130.26 301.657C130.37 301.546 130.47 301.424 130.558 301.293C130.626 301.315 130.696 301.332 130.766 301.345C130.833 301.48 130.909 301.608 130.995 301.73C131.069 301.625 131.134 301.515 131.189 301.399C131.248 301.314 131.299 301.224 131.344 301.131C131.444 301.281 131.556 301.423 131.677 301.554C131.706 301.393 131.722 301.23 131.726 301.066C131.827 301.134 131.933 301.194 132.043 301.246C132.067 301.131 132.084 301.014 132.092 300.897C132.215 300.968 132.342 301.029 132.473 301.081C132.449 300.917 132.412 300.755 132.364 300.597C132.475 300.62 132.587 300.635 132.7 300.64C132.691 300.529 132.675 300.419 132.652 300.31C132.789 300.333 132.928 300.344 133.068 300.343C133.043 300.23 133.011 300.12 132.971 300.014C132.993 299.941 133.012 299.867 133.026 299.793C133.187 299.779 133.346 299.752 133.503 299.712L133.539 299.461C133.532 299.374 133.52 299.288 133.504 299.203C133.377 299.109 133.242 299.025 133.102 298.953C133.112 298.883 133.139 298.815 133.156 298.743C133.267 298.661 133.373 298.572 133.471 298.474C133.488 298.387 133.501 298.3 133.509 298.212C133.344 298.17 133.177 298.142 133.007 298.129C133.095 298.017 133.173 297.896 133.24 297.768C133.122 297.734 133 297.71 132.877 297.697C132.881 297.598 132.877 297.5 132.864 297.403C132.777 297.369 132.687 297.342 132.595 297.323C132.533 297.266 132.467 297.214 132.399 297.166C132.336 297.111 132.27 297.059 132.202 297.012C132.172 296.884 132.13 296.76 132.077 296.641C131.998 296.594 131.916 296.552 131.831 296.516C131.743 296.5 131.653 296.488 131.563 296.482C131.461 296.595 131.37 296.718 131.291 296.849C131.243 296.801 131.192 296.757 131.139 296.716C131.047 296.618 130.945 296.531 130.834 296.456C130.742 296.502 130.652 296.553 130.566 296.61C130.491 296.699 130.423 296.794 130.361 296.893C130.249 296.904 130.139 296.929 130.032 296.968C130.024 297.128 130.028 297.288 130.046 297.447L129.924 297.463L129.829 297.483C129.806 297.48 129.594 297.477 130.716 298.219L131.241 298.571Z" fill="#102B4C"/>
<path d="M82.5103 317.373L82.408 317.082L82.2954 316.865L82.8848 315.995L82.3783 315.133L83.1671 314.231L82.8902 313.367L82.7953 312.497L82.6619 311.634L82.7717 310.744L81.8223 309.989C82.1275 309.673 82.4304 309.324 82.7251 308.985C82.4744 308.727 82.2209 308.474 81.9645 308.226L81.607 307.422L81.7712 306.511L81.5974 305.667L81.7568 304.742L81.1435 304.005L80.6562 303.249L80.9782 302.262L80.3206 301.548C80.4007 301.203 80.4808 300.857 80.544 300.51C80.2099 300.31 79.8603 300.123 79.5203 299.941C79.6273 299.574 79.732 299.199 79.8209 298.816C79.5551 298.593 79.293 298.393 79.016 298.176C79.1598 297.744 79.2826 297.306 79.3844 296.864C78.9062 296.764 78.4355 296.682 77.9608 296.628C77.8677 296.3 77.7585 295.977 77.6335 295.661C77.6412 295.211 77.6197 294.761 77.5689 294.315C77.1592 294.217 76.7434 294.144 76.3239 294.098C76.0932 293.82 75.845 293.557 75.5807 293.313C75.3794 292.936 75.152 292.575 74.9001 292.233L74.5153 292.34C74.3669 292.364 74.2196 292.396 74.074 292.436C73.8004 292.509 73.5326 292.606 73.2734 292.725C72.8596 292.572 72.4263 292.48 71.9854 292.449C71.7599 292.386 71.5288 292.344 71.2951 292.325C71.0554 292.291 70.8125 292.283 70.5701 292.299C70.1618 292.573 69.7945 292.908 69.4806 293.294C68.9904 293.401 68.5158 293.579 68.0708 293.824C67.7581 294.143 67.4708 294.488 67.2121 294.855C67.2339 295.326 67.3014 295.792 67.4138 296.247C66.9295 296.41 66.4556 296.607 65.9956 296.836C65.9603 297.211 65.9444 297.586 65.948 297.961L65.5946 298.88C65.7675 299.244 65.9591 299.597 66.1687 299.939C65.843 300.207 65.5165 300.49 65.189 300.788C65.41 301.132 65.647 301.462 65.8782 301.783C65.7696 302.089 65.6633 302.403 65.5843 302.716L65.0213 303.69C65.2026 304.001 65.4023 304.304 65.5761 304.597C65.4889 304.92 65.4008 305.25 65.34 305.58L65.6378 306.49C65.7986 306.777 65.9811 307.057 66.1507 307.331C66.2635 307.62 66.369 307.911 66.5074 308.188L66.805 309.051C66.7855 309.38 66.7944 309.701 66.7879 310.034C66.9156 310.314 67.0495 310.598 67.186 310.865L67.4888 311.739C67.4591 312.091 67.4496 312.446 67.4443 312.818C67.6264 313.077 67.7975 313.34 67.9989 313.583C68.3895 313.707 68.7734 313.822 69.1506 313.927C69.2904 314.194 69.4596 314.447 69.6153 314.698C69.772 314.958 69.943 315.208 70.1277 315.447C70.1726 315.804 70.2258 316.166 70.2872 316.534C70.4896 316.77 70.7075 316.994 70.9181 317.22C71.1803 317.396 71.4392 317.572 71.7189 317.721L72.1829 318.617C72.64 318.555 73.0956 318.478 73.5326 318.388C73.7167 318.675 73.9162 318.95 74.13 319.212C74.4605 319.294 74.7934 319.358 75.1284 319.408C75.3572 319.712 75.6216 319.985 75.9156 320.221C76.2911 320.25 76.6687 320.255 77.0459 320.234C77.2359 320.228 77.4256 320.211 77.6143 320.183C77.8074 320.14 77.9969 320.08 78.1804 320.003C78.3642 319.938 78.6223 320.095 78.8056 319.842C78.8783 320.389 79.0082 320.926 79.193 321.442C79.512 322.155 79.6897 321.606 79.762 321.554C80.0047 321.447 80.2346 321.309 80.4465 321.144C80.5758 321.035 80.6905 320.909 80.7874 320.769C80.8286 320.71 80.8669 320.65 80.9022 320.588C81.2803 320.172 81.5689 319.679 81.7481 319.142C82.0917 318.786 82.4074 318.402 82.6919 317.994C82.6374 317.777 82.5746 317.569 82.5103 317.373Z" fill="#E68688"/>
<path d="M139.731 257.77C139.61 256.968 139.374 256.193 139.033 255.468C138.898 254.644 138.623 253.854 138.219 253.137C137.759 252.416 137.168 251.795 136.479 251.309C135.739 250.948 134.94 250.725 134.12 250.65C133.32 250.377 132.472 250.268 131.624 250.329C131.537 250.377 131.458 250.44 131.392 250.516V250.516L131.312 250.62C131.283 250.659 131.289 250.617 131.279 250.616C131.26 250.58 131.243 250.544 131.229 250.506C131.273 250.405 131.333 250.312 131.406 250.23L131.448 250.193L131.475 250.196C131.485 250.198 131.488 250.105 131.495 250.06L131.516 249.455C131.277 248.709 130.975 247.988 130.612 247.3C130.278 246.625 129.883 245.984 129.431 245.388C129.208 244.647 128.921 243.929 128.574 243.243C128.104 242.638 127.582 242.079 127.013 241.574C126.666 241.4 126.308 241.25 125.941 241.126C125.584 240.995 125.219 240.886 124.848 240.801C124.278 240.277 123.656 239.817 122.992 239.428C122.233 239.372 121.469 239.393 120.711 239.49C119.989 239.405 119.26 239.39 118.532 239.445C117.794 239.498 117.061 239.617 116.34 239.8C115.587 239.892 114.843 240.054 114.115 240.286C113.763 240.44 113.419 240.615 113.086 240.812C112.915 240.9 112.748 240.997 112.586 241.103L112.341 241.264L112.194 241.358C112.218 241.475 112.208 241.598 112.164 241.71C112.138 241.798 112.108 241.884 112.072 241.969L112.007 242.117L111.968 242.194L111.948 242.191C111.908 242.089 111.855 241.994 111.79 241.908C111.752 241.864 111.718 241.817 111.676 241.772L111.551 241.642C111.479 241.569 111.412 241.493 111.336 241.426C110.876 240.693 110.295 240.052 109.618 239.53C108.852 239.405 108.073 239.367 107.295 239.416C106.606 239.266 105.909 239.158 105.206 239.095C104.499 238.872 103.876 238.685 103.184 238.497C102.482 238.623 101.778 238.764 101.066 238.954C100.351 239.103 99.6466 239.314 98.9616 239.583C98.1477 239.534 97.3283 239.616 96.5324 239.826C95.897 240.398 95.3537 241.072 94.9239 241.821C94.5921 242.082 94.2846 242.374 94.0055 242.695C93.9316 242.777 93.8622 242.863 93.7977 242.953L93.6966 243.086C93.6628 243.131 93.6207 243.186 93.6227 243.172C93.5866 243.185 93.5486 243.191 93.5107 243.19C93.5457 243.305 93.5688 243.478 93.6103 243.715C93.6028 243.767 93.5635 243.755 93.5279 243.765C93.4337 243.644 93.3503 243.514 93.2788 243.377L93.2641 243.336L93.2666 243.318L93.3271 243.326L93.0296 243.181C92.8271 243.078 92.6159 242.994 92.3985 242.929C91.5427 242.993 90.7048 243.241 89.9379 243.655C89.1378 243.73 88.3508 243.932 87.6048 244.255C86.9697 244.779 86.413 245.399 85.9539 246.092C85.3027 246.635 84.7397 247.284 84.2877 248.012C84.0789 248.806 83.9761 249.623 83.9822 250.441C83.9598 250.574 83.9476 250.708 83.9455 250.842C83.6387 250.754 83.3241 250.696 83.0057 250.668C82.6875 250.539 82.358 250.441 82.0213 250.374C81.3699 250.169 80.6705 250.165 80.0078 250.364C79.6814 250.42 79.3595 250.503 79.0451 250.614C78.4402 250.82 77.8511 251.076 77.2835 251.38C76.6761 251.547 76.0768 251.747 75.4878 251.978C75.0011 252.392 74.5369 252.824 74.0951 253.275C73.6544 253.727 73.2122 254.164 72.8064 254.635C72.2527 254.92 71.6945 255.236 71.1707 255.574C70.7133 255.999 70.2797 256.448 69.8547 256.909C69.5693 257.495 69.3132 258.091 69.0777 258.687C68.5805 259.079 68.0972 259.493 67.6153 259.922C67.3922 260.526 67.1893 261.133 67.0133 261.744C66.7041 262.28 66.4107 262.826 66.1433 263.382C65.8758 263.938 65.6213 264.499 65.3667 265.061C65.1122 265.622 64.7431 266.147 64.4625 266.723C64.2626 267.309 64.0454 267.896 63.8685 268.489C63.8594 269.128 63.8648 269.762 63.898 270.392C63.7749 270.992 63.6925 271.593 63.6068 272.194C63.2831 272.76 63.0126 273.337 62.7133 273.925C62.8018 274.551 62.908 275.173 63.0086 275.787C62.9536 276.388 62.8814 276.991 62.8365 277.593C62.6591 278.189 62.4667 278.794 62.3085 279.4C62.4168 280.008 62.5327 280.61 62.6607 281.224C62.7886 281.838 62.8562 282.419 62.9669 283.009C62.7741 283.618 62.6048 284.229 62.4249 284.843L63.0517 286.588L62.8257 288.412C62.9796 289.011 63.1571 289.614 63.3499 290.204C63.2936 290.863 63.2748 291.523 63.2936 292.182C63.6283 292.766 64.0065 293.321 64.4251 293.842C64.6062 294.52 64.8712 295.168 65.2137 295.772C65.7419 296.259 66.3482 296.647 67.0067 296.92C67.5364 297.399 68.1361 297.789 68.7847 298.077C69.3925 298.103 70.0019 298.097 70.6106 298.059C71.1137 298.106 71.6111 298.198 72.0974 298.332C72.4956 298.642 72.8578 298.999 73.1772 299.395C73.5796 299.623 73.9583 299.892 74.3078 300.199C74.4001 300.271 74.4885 300.347 74.577 300.422C74.6413 300.475 74.7029 300.532 74.7615 300.591C74.8997 300.739 75.0234 300.9 75.1307 301.073C75.5502 301.471 75.9466 301.895 76.318 302.342C76.4545 302.651 76.612 302.95 76.7892 303.235C76.9901 303.559 77.2368 303.85 77.5214 304.098C77.7419 304.396 77.9947 304.667 78.275 304.906C78.4278 305.044 78.5939 305.165 78.7707 305.268C78.9714 305.372 79.1787 305.477 79.4117 305.571C79.6779 305.611 79.9465 305.633 80.2162 305.639C80.4868 305.61 80.7555 305.562 81.0203 305.493C81.2736 305.392 81.5195 305.272 81.7559 305.133C81.9532 304.973 82.1686 304.83 82.3582 304.652C82.7931 303.956 83.0462 303.158 83.092 302.338C83.4501 301.736 83.7433 301.096 83.9662 300.43C83.9389 299.746 83.8465 299.068 83.6905 298.406L83.8179 296.602L83.5715 294.852C83.5452 294.269 83.5247 293.694 83.5108 293.119C83.497 292.545 83.5263 291.979 83.5653 291.419C83.693 290.859 83.8529 290.314 84.0174 289.784C84.0976 289.249 84.2065 288.718 84.3436 288.193C84.4764 287.67 84.5978 287.13 84.759 286.6C84.7726 286.025 84.8178 285.444 84.8713 284.854C85.1325 284.342 85.4053 283.836 85.6898 283.337C86.0312 282.862 86.3785 282.394 86.7381 281.935C86.9603 281.409 87.1959 280.884 87.4349 280.36L88.0681 278.727L89.0879 277.286L89.3491 276.366C89.489 275.865 89.5794 275.375 89.5794 275.375C89.6965 275.202 89.8141 275.025 89.9217 274.847L90.1746 274.417C90.2365 274.318 90.6517 273.806 88.9624 273.322L89.0262 273.33C89.1448 273.351 89.2656 273.357 89.3863 273.348C89.613 273.341 89.7046 273.275 89.7501 273.195C89.9286 272.754 90.051 272.291 90.114 271.82C90.2506 271.222 90.3743 270.619 90.4605 270.015C90.5333 269.409 90.5722 268.8 90.577 268.191C90.6838 267.585 90.7705 266.978 90.8376 266.364L90.866 266.165C91.4102 266.427 91.955 266.66 92.4993 266.898C92.9493 267.436 93.3969 267.991 93.8889 268.499C94.5299 268.802 95.1783 269.052 95.8268 269.303C96.3715 269.729 96.9493 270.091 97.5202 270.477C98.1706 270.714 98.7906 270.996 99.45 271.17C100.075 271.439 100.71 271.688 101.355 271.891C102 272.095 102.665 272.298 103.301 272.497L104.273 272.875C104.429 272.945 104.59 273.004 104.754 273.05L105.28 273.036C105.458 273.009 105.629 272.985 105.816 272.948L106.083 272.897L106.103 272.9L106.112 272.841L106.219 272.854C106.261 272.857 106.302 272.863 106.343 272.87C106.671 272.969 107.003 273.044 107.332 273.133C107.994 273.289 108.667 273.368 109.338 273.462C110.025 273.441 110.702 273.394 111.369 273.321C112.041 273.407 112.713 273.494 113.39 273.548C114.066 273.603 114.729 273.753 115.401 273.839C116.09 273.803 116.748 273.749 117.417 273.685C118.086 273.622 118.749 273.462 119.409 273.34C120.094 273.336 120.764 273.315 121.446 273.286L122.428 272.946L123.401 272.577L124.055 272.568L124.574 272.553C124.694 272.551 125.37 272.655 125.006 271.012L125.044 271.13C125.115 271.35 125.199 271.565 125.294 271.774C125.459 272.151 125.569 272.244 125.675 272.225C126.183 272.075 126.679 271.881 127.157 271.644C127.811 271.418 128.464 271.182 129.109 270.906C129.75 270.609 130.371 270.266 130.966 269.878C131.624 269.607 132.268 269.316 132.91 268.986C133.571 268.667 134.214 268.305 134.833 267.903C135.357 267.366 135.843 266.79 136.287 266.18C136.842 265.667 137.363 265.114 137.846 264.527C138.215 263.837 138.523 263.115 138.766 262.369C139.059 261.648 139.281 260.9 139.427 260.135C139.614 259.359 139.716 258.565 139.731 257.77Z" fill="#102B4C"/>
<path d="M77.7969 346.022L78.8985 344.367L78.1356 342.185L79.7632 340.68C79.7439 340.437 79.7479 340.192 79.7751 339.948C79.7933 339.665 79.8334 339.384 79.8952 339.107C79.9934 338.529 80.1693 337.966 80.4177 337.435C81.2763 336.711 82.328 336.283 83.4211 336.213C83.6397 336.053 83.8663 335.905 84.1 335.77C84.3212 335.662 84.533 335.533 84.733 335.386L85.5437 334.714L87.4986 335.567L89.172 334.484L91.085 334.815L92.7476 333.496L94.6777 333.85L96.5313 333.662C97.1019 333.187 97.6672 332.702 98.2569 332.237C98.8892 332.169 99.512 332.096 100.152 332.046C100.792 332.018 101.433 332.026 102.071 332.069C102.73 332.391 103.381 332.725 104.025 333.071C104.651 332.977 105.287 332.909 105.922 332.845C106.555 332.51 107.205 332.22 107.867 331.921C108.516 331.852 109.178 331.841 109.835 331.818C110.457 332.254 111.069 332.756 111.65 333.222C112.324 332.978 113.009 332.76 113.708 332.554C114.314 332.913 114.905 333.277 115.486 333.669C116.152 333.672 116.822 333.698 117.505 333.757C118.111 334.066 118.713 334.403 119.3 334.771C119.942 335.025 120.57 335.316 121.18 335.642C121.838 335.956 122.472 336.32 123.078 336.729C123.867 336.999 124.618 337.369 125.315 337.831C125.452 337.976 125.651 338.187 125.822 338.401C125.999 338.627 126.16 338.865 126.306 339.114C126.592 339.619 126.818 340.159 126.979 340.723C127.191 341.618 127.29 342.54 127.272 343.467C126.968 344.232 126.598 344.968 126.165 345.665C126.223 346.384 126.248 347.099 126.26 347.78C126.395 348.508 126.511 349.235 126.619 349.939C126.417 350.585 126.204 351.215 126.005 351.841L125.096 353.613C125.064 354.27 125.051 354.934 125.001 355.574L123.64 357.107C123.683 357.304 123.704 357.506 123.701 357.709L123.686 358.148C123.679 358.197 123.739 358.379 123.372 358.431C123.252 358.447 123.131 358.455 123.01 358.452C122.917 358.453 122.824 358.448 122.731 358.438L122.432 358.399C122.023 358.347 121.455 358.274 120.694 358.112L120.816 358.149C121.051 358.225 121.293 358.303 121.468 358.375C121.869 358.533 121.976 358.646 121.971 358.735C121.906 359.221 121.787 359.698 121.614 360.158C121.485 360.792 121.346 361.432 121.179 362.079C120.963 362.718 120.716 363.345 120.439 363.958C120.282 364.625 120.117 365.304 119.902 365.967C119.688 366.629 119.525 367.341 119.287 368.004C118.874 368.552 118.434 369.078 117.97 369.581C117.672 370.208 117.353 370.818 117.023 371.426C116.536 371.893 116.035 372.334 115.535 372.768C115.035 373.202 114.623 373.718 114.159 374.163L112.917 375.679C112.338 375.992 111.753 376.283 111.166 376.563L110.63 377.394L110.563 377.5L110.443 377.651L110.181 377.973L109.913 378.295C109.833 378.412 109.74 378.52 109.635 378.615C109.238 379.004 108.792 379.336 108.31 379.6C107.828 379.848 107.307 380 106.775 380.05C105.731 379.853 104.79 379.292 104.108 378.459C103.994 378.395 103.884 378.327 103.762 378.272L103.416 378.061L103.328 378.007L103.271 377.999L103.157 377.953L102.935 377.86C102.634 377.74 102.345 377.603 102.049 377.476L100.804 376.128L99.6409 374.691L97.8043 373.992L96.9486 372.221L96.0402 370.508C95.381 370.333 94.7229 370.15 94.066 369.959L92.6834 368.764L92.1763 366.611L90.105 366.167L89.4357 364.192L88.0613 362.987L86.6546 361.818L84.8832 361.046L83.4885 359.864L82.9163 357.784L81.6959 356.411L79.4295 356.184C79.2489 355.383 79.0095 354.6 78.7136 353.84C77.9962 353.083 77.4933 352.135 77.2578 351.096C76.9939 350.591 76.8006 350.049 76.6836 349.485C76.6225 349.188 76.5775 348.886 76.549 348.582C76.532 348.438 76.5292 348.242 76.5105 348.133L76.4663 347.771C76.8722 347.159 77.3168 346.574 77.7969 346.022V346.022Z" fill="#E68688"/>
<path d="M107.873 283.101C108.118 282.652 107.922 282.929 107.897 282.933L107.68 282.994L107.484 282.855L107.495 282.32L107.132 282.469C107.125 282.304 107.114 282.139 107.095 281.987L106.721 282.21L106.726 281.595L106.431 281.653L106.191 281.587L105.939 281.554L105.752 281.349L105.319 281.848L105.314 281.09C105.187 281.212 105.064 281.328 104.94 281.454L104.66 281.55L104.486 281.279L104.248 281.248L104.07 280.958C103.967 281.038 103.864 281.131 103.764 281.214L103.483 281.381L103.322 280.955L103.027 281.223L102.845 280.844L102.524 281.364L102.351 280.876L102.073 281.196L101.897 280.558L101.59 281.294L101.368 281.102L101.157 280.566L100.896 281.031L100.661 280.926L100.424 280.572L100.187 281.252L99.9516 281.197L99.7045 280.963C99.6279 281.053 99.5531 281.145 99.4803 281.24L99.2207 280.925L98.9763 280.912L98.79 281.475L98.5188 280.785L98.302 281.01L98.0501 280.978L97.888 281.49L97.5486 281.016L97.3999 281.531L97.1381 281.447L96.8336 281.184L96.6741 281.559L96.3957 281.448C96.3258 281.507 96.2616 281.573 96.1945 281.636L96.0245 281.916L95.8286 282.09L95.6196 282.213C95.5255 282.201 95.4331 282.153 95.3434 282.134L95.1438 282.287L94.9172 282.364L94.5962 282.216L94.4042 282.387L94.3655 282.898L94.147 282.991L93.9337 283.095L93.6103 282.964C93.5428 283.006 93.4687 283.046 93.4041 283.091L93.2545 283.324L92.9656 283.287L93.0184 283.852L92.7303 283.833C92.691 283.917 92.6535 284.012 92.6171 284.1L92.2811 284.056L92.146 284.284L92.0089 284.502C91.9775 284.554 91.8001 284.407 91.935 284.684C91.9559 284.729 91.883 284.713 92.2712 285.229L92.453 285.466L92.7794 285.863C92.8574 285.979 92.9478 286.085 93.0491 286.179C93.1053 286.168 93.09 286.06 93.1143 286.009L93.2758 285.884L93.3783 285.67L93.6403 285.704C93.7442 285.725 93.8449 285.76 93.9404 285.806L94.0319 285.572L94.3052 285.647L94.3977 285.406L94.5478 285.265C94.6213 285.269 94.6951 285.265 94.7682 285.255L94.8211 284.884L95.1066 285.017L95.3559 285.092C95.3862 285 95.4169 284.904 95.4534 284.816L95.7649 285.031L95.9231 284.905L96.0652 284.724L96.3697 284.987L96.4494 284.621L96.553 284.278L96.8723 284.654L97.074 284.655L97.1203 284.067L97.4448 284.549L97.5332 284.073L97.7383 284.075L97.9432 284.101C98.0292 284.194 98.1136 284.297 98.1952 284.397L98.3968 284.423L98.5067 283.868L98.694 283.778L98.9733 284.458L99.1031 283.884L99.3046 283.91L99.5363 284.42L99.699 283.975C99.7563 283.861 99.8164 283.751 99.8799 283.642L100.096 284.357L100.277 283.736L100.422 284.231L100.619 283.855L100.793 284.411L101.012 283.784L101.183 284.194L101.402 283.834C101.452 284.015 101.5 284.203 101.546 284.386L101.773 284.039L101.974 284L102.075 284.657L102.261 284.649C102.327 284.615 102.396 284.592 102.461 284.564L102.76 283.977L102.935 284.095L103.013 284.632C103.066 284.678 103.117 284.727 103.166 284.78L103.514 284.159L103.561 284.717L103.859 284.356L103.977 284.631C104.06 284.578 104.138 284.535 104.224 284.485L104.408 284.537L104.575 284.64L104.606 285.089C104.655 285.134 104.707 285.173 104.752 285.222L104.919 285.293L105.324 284.858L105.388 285.175L105.348 285.693L105.546 285.697L105.818 285.565L105.854 285.886L106.247 285.531L106.205 285.828C106.205 285.828 106.17 285.93 106.285 285.767C106.401 285.604 106.662 285.186 107.249 284.191L107.873 283.101Z" fill="#102B4C"/>
<path d="M124.364 286.369C124.727 286.704 124.504 286.469 124.502 286.458L124.457 286.293L124.577 286.219C124.716 286.301 124.852 286.388 124.985 286.481C124.948 286.38 124.917 286.276 124.892 286.171L125.267 286.421L125.179 286.054C125.334 286.186 125.486 286.324 125.636 286.469C125.645 286.406 125.64 286.324 125.647 286.25L125.747 286.145L125.84 286.022L126.035 286.047L125.833 285.402L126.333 285.997L126.231 285.489L126.285 285.254L126.523 285.384L126.649 285.294L126.892 285.46L126.894 285.083L126.935 284.801L127.231 285.12L127.249 284.734L127.528 285.033L127.469 284.41L127.782 284.835L127.812 284.433L128.159 285.022L128.069 284.189L128.277 284.336L128.576 284.851L128.593 284.302C128.655 284.314 128.714 284.336 128.769 284.368L129.001 284.728L128.995 283.959L129.162 283.981L129.358 284.216L129.462 283.898L129.663 284.258L129.811 284.277L129.9 283.652L130.113 284.391L130.238 284.165L130.379 284.251L130.504 283.712L130.649 284.278L130.797 283.743C130.846 283.793 130.891 283.848 130.932 283.906L131.04 284.275L131.197 283.94L131.304 284.146L131.451 284.026L131.614 283.823L131.762 283.742L131.906 283.718L131.986 283.92C132.031 283.904 132.078 283.893 132.124 283.888L132.228 283.951L132.229 284.261L132.364 284.221C132.465 284.089 132.581 283.951 132.687 283.833L132.776 283.926L132.871 284.002C132.856 284.109 132.831 284.214 132.796 284.316L132.895 284.364C132.945 284.355 132.997 284.349 133.048 284.345L132.988 284.572C133.141 284.465 133.299 284.367 133.461 284.277L133.406 284.494C133.475 284.483 133.544 284.481 133.612 284.489L133.457 284.76L133.608 284.805L133.761 284.863C133.801 284.869 133.591 285.023 133.909 284.882C134.139 284.814 134.359 284.713 134.564 284.582L134.86 284.425L135.38 284.136C135.521 284.073 135.655 283.992 135.777 283.895C135.786 283.833 135.646 283.829 135.593 283.797L135.47 283.6L135.252 283.476L135.297 283.161C135.333 283.039 135.36 282.914 135.377 282.788L135.086 282.722L135.082 282.366L134.79 282.328C134.725 282.28 134.659 282.233 134.59 282.192L134.457 281.972C134.325 282.019 134.196 282.072 134.072 282.129L134.021 281.767L133.914 281.461C133.808 281.49 133.704 281.525 133.602 281.567L133.526 281.159L133.281 281.127L133.022 281.148C132.989 280.99 132.953 280.84 132.916 280.693C132.807 280.786 132.701 280.88 132.598 280.976C132.501 281.059 132.404 281.139 132.313 281.227C132.279 281.047 132.24 280.864 132.196 280.679C132.126 280.641 132.05 280.596 131.98 280.562C131.875 280.752 131.776 280.946 131.681 281.142C131.638 280.938 131.589 280.731 131.534 280.522C131.443 280.677 131.357 280.833 131.276 280.991L131.068 280.911C131 280.875 130.931 280.843 130.859 280.816L130.654 280.434L130.436 280.356C130.367 280.551 130.302 280.748 130.242 280.947L130.041 281.013L129.776 280.229L129.623 280.874L129.411 280.847L129.129 280.284L128.988 280.789C128.936 280.914 128.893 281.051 128.847 281.184L128.509 280.429L128.44 281.131L128.158 280.711L128.05 281.156L127.711 280.629L127.691 281.369L127.384 281.003L127.303 281.455L126.94 280.949L126.875 281.41L126.711 281.549L126.294 280.973L126.108 281.077L125.96 281.275L126.025 281.995L125.809 281.999L125.405 281.591L125.17 281.561L125.297 282.328L124.873 281.918L124.896 282.429L124.601 282.31L124.533 282.621C124.475 282.658 124.419 282.698 124.365 282.742L124.172 282.824L123.774 282.573L123.556 282.634L123.38 282.764C123.43 282.966 123.481 283.183 123.54 283.393L123.228 283.328C123.078 283.247 122.926 283.171 122.771 283.099L122.66 283.33L122.65 283.684L122.31 283.673L122.398 283.944L122.49 284.208L122.33 284.155L122.202 284.114C122.202 284.114 122.107 284.066 122.233 284.214C122.359 284.362 122.69 284.703 123.497 285.468L124.364 286.369Z" fill="#102B4C"/>
<path d="M107.645 326.774C107.415 327.068 107.589 326.899 107.599 326.9L107.761 326.921L107.885 327.083L107.826 327.495L108.126 327.427C108.116 327.545 108.116 327.664 108.127 327.782L108.441 327.67L108.395 328.133L108.635 328.132C108.696 328.161 108.758 328.187 108.822 328.21L109.019 328.267L109.155 328.441L109.541 328.135L109.501 328.702L109.819 328.462L110.044 328.42L110.163 328.638L110.347 328.697C110.386 328.777 110.427 328.853 110.471 328.927L110.727 328.764L110.957 328.665L111.057 328.995L111.303 328.824L111.419 329.12L111.702 328.765L111.803 329.133L112.04 328.936L112.127 329.428L112.42 328.91L112.574 329.08L112.688 329.503L112.929 329.179L113.099 329.282L113.245 329.578L113.496 329.091L113.67 329.164L113.832 329.373L114.033 329.189L114.192 329.462L114.374 329.506L114.585 329.107L114.734 329.645L114.924 329.51L115.105 329.583L115.3 329.224L115.471 329.63L115.663 329.267L115.843 329.379L116.021 329.636L116.204 329.386L116.385 329.53L116.566 329.44L116.741 329.267L116.918 329.179L117.095 329.138L117.281 329.268L117.457 329.209L117.638 329.215L117.834 329.421L118.012 329.352L118.161 328.976L118.339 328.974L118.519 328.962L118.721 329.18L118.899 329.153L119.067 329.032L119.263 329.164L119.384 328.699L119.581 328.828C119.634 328.774 119.689 328.724 119.738 328.663L119.944 328.832C119.998 328.785 120.052 328.746 120.106 328.7L120.265 328.567C120.304 328.536 120.375 328.709 120.372 328.442C120.378 328.4 120.412 328.447 120.325 327.906L120.281 327.662L120.199 327.235C120.185 327.12 120.159 327.007 120.12 326.898C120.073 326.892 120.043 326.959 120.005 326.983L119.836 326.997C119.783 327.029 119.736 327.073 119.683 327.112L119.494 326.974L119.296 326.774L119.149 326.94L118.962 326.792L118.815 326.961L118.655 327.023L118.482 326.968L118.344 327.26L118.159 327.073L117.982 326.947L117.831 327.144L117.648 326.911L117.489 326.976L117.329 327.087L117.152 326.815L117.001 327.088L116.843 327.327L116.668 326.974L116.5 326.952L116.341 327.394L116.172 326.974L116.011 327.309L115.843 327.287L115.68 327.231L115.523 326.965L115.364 326.909L115.186 327.313L115.02 327.352L114.887 326.798L114.697 327.215L114.537 327.162L114.412 326.748L114.221 327.079L114.034 327.307L113.937 326.744L113.723 327.189L113.607 326.847L113.409 327.106L113.317 326.678L113.082 327.125L112.977 326.802L112.768 327.049L112.691 326.63L112.479 326.869L112.313 326.88L112.274 326.384L112.123 326.365L111.952 326.414L111.675 326.816L111.543 326.71L111.513 326.3L111.397 326.175L111.086 326.605L111.082 326.181L110.826 326.418L110.75 326.202L110.546 326.29L110.408 326.23L110.288 326.132L110.294 325.777L110.191 325.665C110.148 325.643 110.107 325.619 110.068 325.592L109.737 325.873L109.714 325.628L109.792 325.247C109.743 325.244 109.695 325.238 109.648 325.228L109.441 325.284C109.45 325.203 109.454 325.121 109.452 325.04L109.27 325.162L109.086 325.277L109.115 325.078C109.115 325.078 109.148 325.011 109.044 325.119C108.94 325.226 108.701 325.487 108.17 326.116L107.645 326.774Z" fill="#102B4C"/>
<path d="M134.465 333.021C134.387 333.181 134.29 333.336 134.199 333.492L134.572 334.162L133.809 334.476L133.437 334.905L134.113 335.704L133.234 335.946L133.417 336.581L132.716 336.876L133.134 337.616C132.946 337.73 132.759 337.841 132.549 337.95L132.677 338.588L132.046 338.884L132.06 339.48L132.175 340.135L131.68 340.488L131.451 340.97L130.974 341.318L130.892 341.887C130.966 342.139 131.036 342.39 131.095 342.625L130.094 342.642L130.417 343.491L130 343.875L129.762 344.371L129.472 344.839L129.31 345.401C129.058 345.415 128.801 345.421 128.547 345.424L128.46 345.413L128.442 345.538C128.288 345.756 128.13 345.973 127.97 346.189L127.715 346.224L127.665 346.573L127.437 346.853C127.056 347.309 126.652 347.743 126.225 348.152C125.335 349.012 124.336 349.742 123.258 350.321C122.257 350.972 121.199 351.519 120.1 351.957C119.002 352.362 117.878 352.682 116.738 352.912C115.879 353.132 115.004 353.266 114.125 353.312C114.031 353.318 113.939 353.297 113.856 353.254C113.773 353.21 113.704 353.144 113.654 353.063C113.587 352.957 113.528 352.845 113.48 352.728C113.482 352.71 113.461 352.69 113.454 352.668L113.431 352.665C113.553 354.633 112.422 354.413 112.214 354.383L111.324 354.268C110.951 354.22 110.575 354.172 110.207 354.089L109.642 354.116C109.298 354.129 108.843 354.131 108.416 354.126C107.544 354.124 106.671 354.079 106.671 354.079C105.549 353.793 104.444 353.477 103.352 353.123C102.23 352.911 101.109 352.664 100.001 352.393C98.8937 352.123 97.8244 351.729 96.7501 351.371C95.7321 350.849 94.7293 350.317 93.7416 349.775L90.7031 348.317C89.5542 348.04 88.427 347.682 87.3293 347.243C86.2366 346.614 85.2355 345.83 84.3534 344.915C83.5151 343.995 82.7813 342.977 82.1659 341.881C81.66 340.789 81.2219 339.664 80.854 338.511C80.4001 337.425 79.9765 336.318 79.6178 335.187C79.2592 334.056 78.9145 332.923 78.666 331.764C78.3496 330.624 78.067 329.464 77.8589 328.285C77.7729 327.089 77.7287 325.889 77.7555 324.693C77.5829 323.501 77.4689 322.3 77.414 321.093L77.7307 319.376L78.0074 317.676C77.828 316.536 77.6307 315.401 77.4248 314.254L77.5115 310.769C77.679 309.595 77.8469 308.418 78.0427 307.238C78.1328 306.054 78.2403 304.869 78.4226 303.687C78.4079 303.383 78.4166 303.082 78.4125 302.775C78.4024 302.448 78.4114 302.12 78.4396 301.793C78.4926 301.268 78.6755 300.762 78.9707 300.325C79.1908 300.013 79.4714 299.752 79.794 299.558C80.1165 299.365 80.4735 299.244 80.8412 299.203C81.4662 299.177 82.0798 299.346 82.602 299.689C83.0914 300.004 83.4892 300.449 83.7556 300.979C84.1178 301.783 84.271 302.675 84.2003 303.569C84.1544 304.274 84.1059 304.734 84.0761 305.303C84.0462 305.872 84.0262 306.396 84.0273 306.94C83.8209 308.021 83.6901 309.115 83.6358 310.212C83.7719 311.239 84.0386 312.239 84.4291 313.188C84.8867 313.963 85.5285 314.603 86.2952 315.046C87.008 315.815 87.7953 316.506 88.6453 317.108C89.666 317.531 90.7489 317.998 91.7891 318.548C92.73 319.298 93.6008 320.137 94.3904 321.055C94.5981 321.206 94.8134 321.351 95.009 321.515L95.315 321.768L95.4714 321.895C95.5106 321.929 95.5518 321.96 95.5948 321.989C95.7444 322.044 95.8376 322.038 95.8855 321.966C95.9083 321.938 95.9237 321.904 95.9301 321.868C95.9277 322.149 96.0298 322.657 96.0681 323.419C96.07 323.437 96.0756 323.455 96.0847 323.471C96.0596 322.831 96.0918 322.366 96.0914 322.081L96.0875 321.988C96.1309 321.986 96.1732 321.972 96.2097 321.947L96.2473 321.923C96.2154 321.955 96.2855 321.871 96.3019 321.852L96.6004 321.439C97.0044 320.911 97.4564 320.425 97.9501 319.987C98.7067 318.894 99.6261 317.931 100.673 317.136C101.866 316.715 103.101 316.45 104.35 316.345C104.632 316.243 104.922 316.152 105.209 316.057C105.505 315.959 105.807 315.879 106.112 315.818C106.702 315.684 107.278 315.584 107.868 315.496C109.052 315.276 110.249 315.147 111.447 315.109C112.651 315.399 113.88 315.707 115.119 316.584C115.523 316.825 115.877 317.145 116.162 317.526C116.438 317.908 116.618 318.358 116.687 318.835C116.747 319.305 116.704 319.785 116.561 320.241C116.405 320.696 116.135 321.102 115.781 321.418C115.615 321.595 115.435 321.758 115.243 321.903C115.147 321.981 115.046 322.052 114.942 322.117L114.705 322.272C114.407 322.453 114.1 322.618 113.786 322.765C113.206 323.028 112.615 323.261 112.014 323.462C110.8 323.456 109.658 323.355 108.559 323.292C108.296 323.337 108.036 323.385 107.792 323.443C107.675 323.47 107.558 323.498 107.457 323.531L107.325 323.575L107.143 323.647C106.662 323.834 106.193 324.054 105.739 324.306C104.979 324.833 104.367 325.561 103.968 326.412C103.514 327.041 103.305 327.819 103.383 328.588C103.35 329.453 103.603 330.296 104.1 330.978C104.713 331.709 105.473 332.292 106.329 332.687C107.271 333.116 108.257 333.44 109.27 333.652L110.498 333.725C110.689 333.728 110.966 333.753 111.05 333.739C111.095 333.719 111.134 333.688 111.166 333.65C111.197 333.601 111.226 333.541 111.207 333.503C111.374 333.433 111.527 333.332 111.66 333.205L111.807 333.086L112.047 332.867C112.215 332.709 112.393 332.562 112.579 332.427C112.921 332.169 113.312 331.99 113.724 331.902C113.925 331.871 114.128 331.862 114.33 331.877C114.527 331.909 114.72 331.959 114.907 332.026C115.037 332.08 115.16 332.148 115.275 332.229C115.679 332.403 116.046 332.655 116.356 332.973C116.416 333.039 116.485 333.095 116.562 333.138L116.703 333.228C116.795 333.286 116.89 333.339 116.988 333.385C117.371 333.581 117.78 333.716 118.204 333.787C118.97 334.141 119.815 334.287 120.661 334.213C121.541 334.293 122.431 334.11 123.226 333.685C123.895 333.029 124.399 332.213 124.69 331.313C124.969 330.46 125.04 329.553 124.895 328.675C124.945 328.25 124.939 327.821 124.879 327.399C124.828 327.007 124.707 326.629 124.521 326.286C124.03 325.7 123.098 325.182 122.104 324.429C121.982 324.327 121.861 324.237 121.739 324.133L121.56 323.975L121.42 323.857C121.399 323.854 121.386 323.828 121.373 323.822L121.35 323.819L121.227 323.765L120.906 323.624C120.79 323.572 120.679 323.513 120.572 323.446C120.371 323.319 120.193 323.159 120.044 322.972C119.897 322.774 119.786 322.549 119.718 322.308C119.594 321.804 119.577 321.275 119.669 320.758C119.722 320.492 119.801 320.231 119.906 319.981L120.069 319.611L120.29 319.283C120.439 319.064 120.611 318.86 120.8 318.677C120.962 318.528 121.135 318.392 121.317 318.27C121.974 317.845 122.715 317.582 123.479 317.502C124.225 317.315 124.999 317.311 125.738 317.49C125.844 317.515 125.947 317.55 126.045 317.594C126.136 317.623 126.225 317.66 126.31 317.703L126.727 317.902L127.564 318.312C128.585 319.044 129.488 319.936 130.242 320.957C130.607 321.47 130.931 322.014 131.211 322.583C131.349 322.864 131.471 323.154 131.576 323.451C131.701 323.735 131.804 324.029 131.885 324.331C132.097 324.739 132.281 325.164 132.436 325.6C132.51 325.535 132.585 325.47 132.652 325.404L132.816 324.927L132.952 324.45L132.527 323.908L133.213 323.484L132.661 322.94L132.788 322.458L133.352 322.008L133.083 321.497L132.782 320.989L133.216 320.518L133.129 320.023L133.103 319.532L133.476 319.05L133.277 318.555L133.484 318.063L133.767 317.565L133.439 317.079L133.562 316.582L133.522 316.09L133.352 315.606L133.571 315.1C133.519 314.941 133.477 314.775 133.435 314.617C133.535 314.445 133.629 314.286 133.717 314.102L133.899 313.592C133.852 313.432 133.823 313.268 133.812 313.1L133.901 312.596C133.879 312.464 133.899 312.327 133.957 312.205C133.96 312.18 134.04 312.151 134.237 312.109L134.557 312.054L134.731 312.027C135.11 311.987 135.131 312.078 135.171 312.108C135.432 312.199 135.366 312.329 135.397 312.447L135.631 312.936C135.708 313.095 135.769 313.263 135.813 313.436C135.761 313.61 135.703 313.777 135.636 313.961L135.842 314.46C135.796 314.636 135.755 314.805 135.699 314.983L136.259 315.471L136.088 315.993L136.231 316.506L136.246 317.02L135.946 317.54L135.931 318.053L135.906 318.566L136.369 319.088L136.431 319.608L136.122 320.12L136.083 320.634L136.128 321.155L135.899 321.66L135.911 322.177L135.986 322.702L136.183 323.24C136.213 323.414 136.241 323.603 136.265 323.77L136.002 324.269L136.306 324.828L135.875 325.302L135.651 325.796L136.12 326.39L135.437 326.79L135.899 327.393L135.718 327.893L135.844 328.45L134.943 328.814L135.458 329.449L135.291 329.972L134.789 330.398C134.854 330.592 134.921 330.771 134.973 330.98L134.568 331.419L134.362 331.908L135.012 332.629L134.465 333.021Z" fill="#102B4C"/>
</svg>
