<?xml version="1.0" encoding="UTF-8"?><svg version="1.1" xmlns="http://www.w3.org/2000/svg" xmlns:xlink="http://www.w3.org/1999/xlink" viewBox="0 0 1500 1500" width="1500" height="1500" x="0px" y="0px">
              
              <!-- ITEM 0 -->
<g transform="translate(482.0 383.0) scale(5.352755352755352 5.321839778222951) rotate(0.0 79.772 24.709500000000002)">
<g transform="translate(-0.0 -0.0)">

<path fill="#A1C3FC" d="M46.341,28.339c0-0.015-0.001-0.031-0.001-0.046c-0.021-2.154,2.123-1.69,3.771-1.546  c0.482,0.042,0.976,0.111,1.394,0.354c0.418,0.243,0.744,0.701,0.697,1.182c-0.047,0.481-0.453,0.865-0.906,1.034  c-0.453,0.168-0.949,0.162-1.432,0.154c-0.766-0.013-1.531-0.026-2.297-0.038c-0.226-0.004-0.459-0.009-0.664-0.104  C46.541,29.16,46.35,28.739,46.341,28.339z M51.025,33.122c-0.672-0.173-1.38-0.113-2.07-0.034c-0.604,0.07-2.131-0.169-2.531,0.341  c-0.324,0.414-0.033,1.379,0.021,1.851c0.086,0.747,0.051,1.131,0.816,1.252c0.896,0.142,1.803,0.009,2.7-0.042  c0.708-0.04,1.473,0.131,2.067-0.322c0.043-0.033,0.086-0.069,0.127-0.109c0.431-0.417,0.595-1.089,0.403-1.657  C52.336,33.744,51.697,33.295,51.025,33.122z M64.739,37.734c-0.348,0.289-0.508,0.742-0.64,1.175  c-0.132,0.433-0.263,0.888-0.578,1.214c-0.029,0.03-0.072,0.058-0.119,0.086h10.417c-0.161-0.113-0.299-0.256-0.397-0.443  c-0.281-0.537-0.132-1.251-0.506-1.728c-0.341-0.435-0.969-0.489-1.522-0.506c-1.651-0.053-3.302-0.106-4.953-0.159  C65.848,37.354,65.196,37.354,64.739,37.734z M67.315,33.263h1.55l1.156,0.074l0.32-0.098l0.197-0.197l0.074-0.246l-0.099-0.32  l-0.541-1.673l-0.123-0.369l-0.492-1.451l-0.123-0.32l-0.246-0.172l-0.32-0.074l-0.271,0.074l-0.246,0.246l-0.664,1.673  l-0.148,0.369l-0.64,1.648l-0.074,0.369l0.074,0.295l0.271,0.123L67.315,33.263z M52.783,40.209h5.893  c-0.053-0.047-0.094-0.099-0.119-0.155l0.025-0.32l0.049-0.197C59.77,36.5,61.1,33.541,62.464,30.6  c0.684-1.474,1.377-2.942,2.061-4.416c0.232-0.5,0.402-1.262,0.665-1.942h-9.784c0.548,0.446,1.013,0.981,1.334,1.614  c0.486,0.957,0.571,2.134,0.22,3.149c-0.217,0.626-1.543,1.672-1.33,2.241c0.994,1.103,1.795,2.396,1.923,3.768  c0.079,0.849-0.099,1.727-0.649,2.61C56.016,39.051,54.457,39.838,52.783,40.209z M93.679,40.209  c-0.261-0.235-0.488-0.514-0.704-0.794c-2.067-2.665-4.134-5.331-6.201-7.996c-0.059,2.788-0.119,5.576-0.178,8.365  c-0.003,0.141-0.012,0.289-0.047,0.425H93.679z M86.985,24.242c0.617,0.612,1.145,1.32,1.664,2.022c1.368,1.85,2.736,3.7,4.104,5.55  c0.078,0.106,0.181,0.223,0.312,0.208c0.185-0.021,0.23-0.268,0.225-0.454c-0.059-2.349-0.118-4.698-0.177-7.046  c-0.002-0.091,0-0.186,0.001-0.28H86.985z M78.708,40.209h2.802c-0.189-0.718,0.043-2.328,0.045-2.739  c0.008-1.454,0.016-2.908,0.025-4.363c0.016-2.908,0.033-5.817,0.049-8.725c0-0.046,0.005-0.092,0.006-0.139h-9.463  c0.177,0.542,0.305,1.12,0.507,1.579c0.654,1.484,1.308,2.968,1.962,4.451c0.969,2.198,1.981,4.376,2.951,6.573  c0.245,0.555,1.218,2.088,1.289,2.884c0.009,0.101,0.003,0.191-0.021,0.265C78.832,40.079,78.774,40.146,78.708,40.209z   M112.122,40.209c-2.247-0.947-3.083-3.925-5.165-5.3c-0.056,1.523-0.112,3.046-0.168,4.569c-0.009,0.256-0.038,0.532-0.185,0.731  H112.122z M113.804,27.275c-0.638,0.746-1.277,1.492-1.915,2.238c-0.435,0.508-1.54,1.312-1.349,2.058  c0.213,0.836,1.376,1.804,1.937,2.432c1.194,1.337,2.389,2.674,3.583,4.012V24.584c-0.153,0.209-0.275,0.378-0.34,0.453  C115.081,25.783,114.443,26.529,113.804,27.275z M101.863,40.209c-0.147-0.19-0.161-0.458-0.16-0.704  c0.023-2.95,0.045-5.901,0.068-8.851c0.005-0.684-0.144-4.292,0.009-6.412h-3.525c0,0.83,0.001,1.66,0.001,2.49  c0.001,3.993,0.002,7.986,0.004,11.979c0,0.523-0.016,1.092-0.345,1.497H101.863z M109.66,25.021  c0.177-0.257,0.357-0.521,0.543-0.779h-3.408c0.026,1.306,0.053,2.612,0.079,3.919C107.927,27.234,108.865,26.177,109.66,25.021z"/>
<rect x="18.105" y="44.753" fill="#A1C3FC" width="123.333" height="4.667"/>
<g>
	<polygon fill="#A1C3FC" points="157.449,41.355 79.772,5.506 2.095,41.355 0,36.816 79.772,0 159.544,36.816  "/>
</g>

</g>
</g>

<!-- ITEM 1 -->
<g transform="translate(536.0 773.0) scale(4.6875 4.685714285714286) rotate(0.0 80.0 35.0)">
<g transform="translate(-0.0 -0.0)">

<polygon fill="#E7EFFE" points="130.623,66.946 0,66.946 29.377,31.231 160,31.231 "/>
<polygon fill="#D2E2FE" points="130.623,59.562 0,59.562 29.377,23.847 160,23.847 "/>
<polygon fill="#E7EFFE" points="130.623,53.484 0,53.484 29.377,17.769 160,17.769 "/>
<polygon fill="#D2E2FE" points="130.623,46.101 0,46.101 29.377,10.386 160,10.386 "/>
<polygon fill="#E7EFFE" points="130.623,38.562 0,38.562 29.377,2.847 160,2.847 "/>
<path fill="#CFE0FD" d="M99.634,20.705c-6.399,7.78-20.376,14.085-31.22,14.085s-14.447-6.306-8.048-14.085  C66.764,12.926,80.742,6.62,91.586,6.62S106.033,12.925,99.634,20.705z"/>
<g>
	<path fill="#CFE0FD" d="M105.904,26.992l2.893-3.48c3.317,0,4.565-1.378,6.148-3.304c0.366-0.445,0.429-0.72,0.423-0.783   c-0.059-0.124-0.732-0.672-2.687-0.672l1.904-2.78c2.824,0,3.217,0.502,3.95,2.154c0.338,0.764,0.335,2.284-1.224,4.18   C115.15,24.934,110.139,26.992,105.904,26.992z"/>
</g>
<g>
	<path fill="#CFE0FD" d="M117.37,26.992l2.893-3.48c3.317,0,4.565-1.378,6.149-3.305c0.366-0.444,0.429-0.719,0.422-0.782   c-0.059-0.124-0.731-0.672-2.687-0.672l1.904-2.78c2.824,0,3.241,0.053,3.974,1.705c0.339,0.762,0.311,2.732-1.248,4.628   C126.616,24.934,121.605,26.992,117.37,26.992z"/>
</g>
<g>
	<path fill="#CFE0FD" d="M29.612,26.992l2.379-2.852c3.317,0,5.077-2.006,6.661-3.933c0.366-0.444,0.429-0.72,0.423-0.782   c-0.059-0.124-0.732-0.672-2.687-0.672l1.564-2.87c2.823,0,3.821,0.591,4.554,2.243c0.339,0.762,0.07,2.283-1.49,4.18   C38.858,24.934,33.846,26.992,29.612,26.992z"/>
</g>
<g>
	<path fill="#CFE0FD" d="M41.079,26.992l2.379-2.852c3.317,0,4.983-1.215,6.566-3.141c0.366-0.444,0.535-1.514,0.518-1.573   c-0.037-0.132-0.732-0.672-2.687-0.672l1.564-2.869c2.823,0,3.673,0.142,4.406,1.795c0.339,0.762,0.218,2.732-1.342,4.628   C50.323,24.934,45.313,26.992,41.079,26.992z"/>
</g>
<polygon fill="#CFE0FD" points="145.461,12.94 135.318,12.94 140.347,6.828 150.489,6.828 "/>
<polygon fill="#CFE0FD" points="126.989,35.397 116.847,35.397 121.874,29.285 132.017,29.285 "/>
<polygon fill="#CFE0FD" points="36.976,12.94 26.833,12.94 31.861,6.828 42.003,6.828 "/>
<polygon fill="#CFE0FD" points="18.504,35.397 8.361,35.397 13.389,29.285 23.532,29.285 "/>
<g>
	<path fill="#E2ECFE" d="M74.347,29.192c-4.281,0-7.214-1.296-8.257-3.646c-0.46-1.039-0.902-3.186,1.324-5.891   c3.431-4.171,11.442-7.438,18.238-7.438c4.282,0,7.214,1.296,8.258,3.646c0.46,1.038,0.902,3.186-1.323,5.891   C89.155,25.926,81.144,29.192,74.347,29.192z M85.652,15.447c-5.792,0-13.063,2.888-15.875,6.306   c-0.473,0.574-1.212,1.654-0.864,2.439c0.39,0.88,2.222,1.768,5.433,1.768c5.793,0,13.064-2.888,15.876-6.306   c0.472-0.574,1.212-1.654,0.864-2.439C90.695,16.336,88.863,15.447,85.652,15.447z"/>
</g>
<polygon fill="#B7D1FD" points="102.811,0 82.077,0 55.64,36.615 76.375,36.615 "/>
<rect x="55.64" y="36.615" fill="#A4C5FC" width="20.735" height="33.385"/>

</g>
</g>

<!-- ITEM 2 -->
<g transform="translate(536.0 710.0) scale(4.6875 4.685714285714286) rotate(0.0 80.0 35.0)">
<g transform="translate(-0.0 -0.0)">

<polygon fill="#E7EFFE" points="130.623,66.946 0,66.946 29.377,31.231 160,31.231 "/>
<polygon fill="#D2E2FE" points="130.623,59.562 0,59.562 29.377,23.847 160,23.847 "/>
<polygon fill="#E7EFFE" points="130.623,53.484 0,53.484 29.377,17.769 160,17.769 "/>
<polygon fill="#D2E2FE" points="130.623,46.101 0,46.101 29.377,10.386 160,10.386 "/>
<polygon fill="#E7EFFE" points="130.623,38.562 0,38.562 29.377,2.847 160,2.847 "/>
<path fill="#CFE0FD" d="M99.634,20.705c-6.399,7.78-20.376,14.085-31.22,14.085s-14.447-6.306-8.048-14.085  C66.764,12.926,80.742,6.62,91.586,6.62S106.033,12.925,99.634,20.705z"/>
<g>
	<path fill="#CFE0FD" d="M105.904,26.992l2.893-3.48c3.317,0,4.565-1.378,6.148-3.304c0.366-0.445,0.429-0.72,0.423-0.783   c-0.059-0.124-0.732-0.672-2.687-0.672l1.904-2.78c2.824,0,3.217,0.502,3.95,2.154c0.338,0.764,0.335,2.284-1.224,4.18   C115.15,24.934,110.139,26.992,105.904,26.992z"/>
</g>
<g>
	<path fill="#CFE0FD" d="M117.37,26.992l2.893-3.48c3.317,0,4.565-1.378,6.149-3.305c0.366-0.444,0.429-0.719,0.422-0.782   c-0.059-0.124-0.731-0.672-2.687-0.672l1.904-2.78c2.824,0,3.241,0.053,3.974,1.705c0.339,0.762,0.311,2.732-1.248,4.628   C126.616,24.934,121.605,26.992,117.37,26.992z"/>
</g>
<g>
	<path fill="#CFE0FD" d="M29.612,26.992l2.379-2.852c3.317,0,5.077-2.006,6.661-3.933c0.366-0.444,0.429-0.72,0.423-0.782   c-0.059-0.124-0.732-0.672-2.687-0.672l1.564-2.87c2.823,0,3.821,0.591,4.554,2.243c0.339,0.762,0.07,2.283-1.49,4.18   C38.858,24.934,33.846,26.992,29.612,26.992z"/>
</g>
<g>
	<path fill="#CFE0FD" d="M41.079,26.992l2.379-2.852c3.317,0,4.983-1.215,6.566-3.141c0.366-0.444,0.535-1.514,0.518-1.573   c-0.037-0.132-0.732-0.672-2.687-0.672l1.564-2.869c2.823,0,3.673,0.142,4.406,1.795c0.339,0.762,0.218,2.732-1.342,4.628   C50.323,24.934,45.313,26.992,41.079,26.992z"/>
</g>
<polygon fill="#CFE0FD" points="145.461,12.94 135.318,12.94 140.347,6.828 150.489,6.828 "/>
<polygon fill="#CFE0FD" points="126.989,35.397 116.847,35.397 121.874,29.285 132.017,29.285 "/>
<polygon fill="#CFE0FD" points="36.976,12.94 26.833,12.94 31.861,6.828 42.003,6.828 "/>
<polygon fill="#CFE0FD" points="18.504,35.397 8.361,35.397 13.389,29.285 23.532,29.285 "/>
<g>
	<path fill="#E2ECFE" d="M74.347,29.192c-4.281,0-7.214-1.296-8.257-3.646c-0.46-1.039-0.902-3.186,1.324-5.891   c3.431-4.171,11.442-7.438,18.238-7.438c4.282,0,7.214,1.296,8.258,3.646c0.46,1.038,0.902,3.186-1.323,5.891   C89.155,25.926,81.144,29.192,74.347,29.192z M85.652,15.447c-5.792,0-13.063,2.888-15.875,6.306   c-0.473,0.574-1.212,1.654-0.864,2.439c0.39,0.88,2.222,1.768,5.433,1.768c5.793,0,13.064-2.888,15.876-6.306   c0.472-0.574,1.212-1.654,0.864-2.439C90.695,16.336,88.863,15.447,85.652,15.447z"/>
</g>
<polygon fill="#B7D1FD" points="102.811,0 82.077,0 55.64,36.615 76.375,36.615 "/>
<rect x="55.64" y="36.615" fill="#A4C5FC" width="20.735" height="33.385"/>

</g>
</g>

<!-- ITEM 3 -->
<g transform="translate(62.0 438.0) scale(3.497951857136282 3.4927046950992757) rotate(351.193261752266 108.635 137.143)">
<g transform="translate(-0.0 -0.0)">

<path fill="#F8AFA9" d="M144.646,137.239c7.885-2.187,14.482-7.236,22.461-9.329c4.966-1.304,6.621,1.356,10.852,4.178  c6.314,4.212,12.83,8.797,18.939,13.371c3.422,2.562,6.371,4.275,2.555,7.912c-2.304,2.195-6.527,3.297-9.496,3.77  c-7.853,1.249-12.825-1.586-19.125-5.852c-1.229-0.832-3.569-3.071-4.926-3.084c-2.098-0.019-4.481,3.026-5.89,4.296  c-2.992,2.697-7.06,8.5-11.278,9.391c-2.976,0.628-2.502-0.06-3.052-3.176c-0.421-2.39-0.781-4.697-1.295-7.087  c-1.079-5.019-0.679-8.582-0.127-13.558C144.64,137.962,144.259,137.15,144.646,137.239z"/>
<path fill="#F8AFA9" d="M149.597,81.061c16.43,1.962,33.687,1.528,50.191,2.366c2.916,0.148,13.555,0.602,14.252,3.551  c2.072,8.774-18.019,15.757-25.007,15.175c-14.07-1.172-28.365-2.592-42.706-2.739c0.006-3.047,0.633-6.095,1.228-9.041  c0.554-2.738,2.303-6,2-8.72C149.88,81.426,149.351,80.581,149.597,81.061z"/>
<path fill="#F8AFA9" d="M111.457,79.852c12.849-3.901,21.576-17.841,33.645-23.489c5.784-2.707,13.913-0.981,19.987-0.373  c7.443,0.745,15.111,0.852,22.697,0.861c3.665,0.004,7.519-0.67,11.328-0.87c3.624-0.19,7.211-1.159,8.304,2.739  c1.872,6.678-5.237,12.939-10.26,15.948c-6.567,3.933-12.712,4.714-20.358,4.715c-6.06,0.001-13.988-3.738-19.949-2.298  c-4.372,1.056-8.961,7.41-12.504,10.086c-4.734,3.575-9.018,6.7-13.216,10.757c-5.332,5.154-12.566,8.565-16.063,0.003  C113.075,93.053,105.21,81.749,111.457,79.852z"/>
<path fill="#F8AFA9" d="M111.251,104.984c13.325,1.664,26.968-7.52,40.291-7.77c6.385-0.119,13.109,4.763,18.41,7.791  c6.496,3.708,13.457,6.926,20.384,10.02c3.346,1.494,7.141,2.446,10.703,3.814c3.388,1.301,7.059,1.875,6.471,5.88  c-1.007,6.862-10.047,9.689-15.861,10.394c-7.599,0.921-13.53-0.865-20.516-3.975c-5.537-2.465-11.257-9.105-17.289-10.215  c-4.424-0.814-11.201,3.124-15.526,4.127c-5.78,1.339-10.963,2.452-16.449,4.45c-6.967,2.538-14.964,2.712-14.675-6.533  C107.36,117.7,104.773,104.175,111.251,104.984z"/>
<path fill="#F2A19C" d="M93.333,103.903c5.407-3.241,6.847-13.045,9.917-18.073c3.268-5.351,6.218-11.462,10.4-16.244  c9.871-11.288,24.161,6.996,31.683,12.91c11.378,8.947,5.014,16.92,16,26.406c4.48,3.868,11.932,15.579,12,22  c0.07,6.564-8.489,22.544-12.667,27.333c-9.096,10.427-5.685,12.077-18.333,17.916c-12.167,5.617-21.93,12.091-30.642,22.394  c-4.907,5.803-9.147,12.171-12.603,18.941c-2.888,5.658-34.485,52.571-39.473,56.753C57.659,275.881,5.324,232.912,0,228.236  c10.578-7.268,53.991-48.588,56.684-61.983c1.448-7.204,0.32-14.41,3.649-21.276c3.696-7.622,8.497-15.045,13-22.24  c5.051-8.07,13.528-14.553,21.466-19.713C94.311,103.317,93.822,103.61,93.333,103.903z"/>
<g>
	<path fill="#C1D7FD" d="M178.336,177.385h-62.038c-6.356,0-11.509-5.153-11.509-11.509V11.509c0-6.356,5.153-11.509,11.51-11.509   h62.038c6.356,0,11.509,5.153,11.509,11.509v154.366C189.846,172.232,184.693,177.385,178.336,177.385z"/>
	<circle fill="#A1C3FC" cx="135.097" cy="11.139" r="2.014"/>
	<path fill="#A1C3FC" d="M178.336,0h-11.909c-0.611,0.38-1.211,0.77-1.799,1.164C149.025,11.61,135.604,26.4,130.383,44.437   c-2.105,7.27-2.834,14.861-4.434,22.259c-3.664,16.939-11.827,32.574-21.16,47.185v51.995c0,6.356,5.153,11.509,11.509,11.509   h62.038c6.356,0,11.509-5.153,11.509-11.509V11.509C189.846,5.153,184.693,0,178.336,0z"/>
	
		<linearGradient id="SVGID_1_-i3" gradientUnits="userSpaceOnUse" x1="140.791" y1="108.976" x2="155.087" y2="108.976" gradientTransform="matrix(1 0 0 -1 0 276)">
		<stop offset="0" style="stop-color:#A1C3FC"/>
		<stop offset="1" style="stop-color:#8AB8FD"/>
	</linearGradient>
	<circle fill="url(#SVGID_1_-i3)" cx="147.939" cy="167.024" r="7.148"/>
	
		<rect x="140.663" y="9.642" transform="matrix(-0.9923 0.1238 -0.1238 -0.9923 295.9735 3.3745)" fill="#A1C3FC" width="14.438" height="2.483"/>
	<rect x="108.158" y="20.081" fill="#FFFFFF" width="78.319" height="137.4"/>
	<circle fill="#C1D7FD" cx="147.096" cy="166.182" r="5.463"/>
	<g>
		<path fill="#428DFC" d="M153.142,11.019H141.37c-0.233,0-0.421-0.189-0.421-0.421c0-0.233,0.188-0.421,0.421-0.421h11.773    c0.233,0,0.421,0.189,0.421,0.421C153.564,10.831,153.375,11.019,153.142,11.019z"/>
	</g>
	<path fill="none" d="M148.763,65.703"/>
</g>
<linearGradient id="SVGID_2_-i3" gradientUnits="userSpaceOnUse" x1="106.1256" y1="160.2328" x2="60.9974" y2="141.8472" gradientTransform="matrix(0.9998 0.0201 0.0201 -0.9998 -6.3023 280.1519)">
	<stop offset="0" style="stop-color:#FFBEB6"/>
	<stop offset="1" style="stop-color:#F2A19C"/>
</linearGradient>
<path fill="url(#SVGID_2_-i3)" d="M84.877,61.566c-2.565,3.199-1.188,11.011-1.231,12.358c-0.694,21.604-18.32,36.169-22.127,47.585  c-7.962,23.881-7.35,50.801,13.811,67.7c6.911,5.519,19.707,9.755,25.355-2.126c9.399-19.773,0.699-44.446-1.374-48.562  c-2.614-5.192-2.736-10.592-6.416-14.722c4.525-13.662,12.994-21.017,11.899-33.086c-0.568-6.263-0.721-13.187-3.359-19.08  C99.15,66.527,97.21,60.256,91.506,59.3C87.436,58.617,84.877,61.566,84.877,61.566z"/>
<path id="texure_9_-i3" opacity="0.51" fill="#FFFFFF" enable-background="new    " d="M94.696,163.886  c-0.011,0.153,0.106,0.285,0.259,0.296c0.152,0.01,0.286-0.106,0.297-0.258c0.011-0.153-0.106-0.285-0.259-0.296l0,0  C94.839,163.619,94.708,163.734,94.696,163.886L94.696,163.886z M101.492,164.288c-0.005,0.158,0.112,0.293,0.268,0.313  c0.155,0.002,0.283-0.12,0.288-0.274c0.019-0.143-0.082-0.276-0.227-0.295c-0.01-0.002-0.02-0.002-0.033-0.002  C101.635,164.019,101.503,164.136,101.492,164.288L101.492,164.288L101.492,164.288z M104.153,190.759  c-0.12,0.102-0.133,0.283-0.03,0.401l0,0c0.091,0.112,0.255,0.129,0.365,0.038c0.01-0.006,0.019-0.015,0.027-0.026  c0.117-0.097,0.134-0.267,0.04-0.385C104.452,190.668,104.272,190.656,104.153,190.759L104.153,190.759L104.153,190.759z   M101.883,151.02c-0.066,0.134-0.012,0.298,0.122,0.366c0.135,0.066,0.298,0.012,0.366-0.123c0.069-0.134,0.012-0.298-0.122-0.366  c-0.124-0.071-0.283-0.027-0.354,0.098C101.89,151.004,101.886,151.011,101.883,151.02z M100.241,176.842  c-0.144,0.062-0.218,0.22-0.176,0.369c0.053,0.151,0.219,0.228,0.37,0.176c0.151-0.053,0.23-0.218,0.176-0.369  C100.549,176.874,100.389,176.8,100.241,176.842z M106.679,174.619c-0.144,0.054-0.214,0.216-0.16,0.36l0,0  c0.038,0.143,0.185,0.229,0.329,0.191c0.007-0.003,0.015-0.004,0.023-0.007c0.147-0.057,0.224-0.218,0.176-0.369  C106.987,174.652,106.828,174.576,106.679,174.619z M80.891,129.454c-0.147,0.25-0.064,0.575,0.188,0.723  c0.004,0.004,0.011,0.005,0.016,0.009c0.249,0.144,0.57,0.058,0.714-0.191c0.001-0.001,0-0.002,0.001-0.004  c0.147-0.25,0.064-0.575-0.188-0.723c-0.004-0.004-0.011-0.005-0.016-0.009c-0.249-0.144-0.57-0.058-0.714,0.191  C80.89,129.451,80.89,129.451,80.891,129.454L80.891,129.454z M92.09,135.848c-0.147,0.257-0.061,0.584,0.196,0.735  c0.258,0.15,0.585,0.061,0.736-0.197c0.001-0.004,0.004-0.004,0.005-0.009c0.144-0.249,0.058-0.569-0.19-0.712  c-0.001-0.001-0.002,0-0.004-0.001C92.573,135.518,92.247,135.6,92.09,135.848L92.09,135.848z M63.094,176.65  c-0.283,0.083-0.447,0.376-0.37,0.66c0.066,0.277,0.341,0.448,0.616,0.385c0.01-0.003,0.019-0.003,0.028-0.007  c0.283-0.083,0.447-0.376,0.37-0.661C63.663,176.746,63.376,176.577,63.094,176.65L63.094,176.65L63.094,176.65z M88.02,169.875  c-0.282,0.075-0.448,0.36-0.374,0.642c0.001,0.005,0.003,0.012,0.006,0.017c0.066,0.277,0.341,0.448,0.616,0.385  c0.01-0.003,0.019-0.003,0.028-0.007c0.284-0.089,0.452-0.379,0.388-0.669C88.597,169.962,88.304,169.797,88.02,169.875  L88.02,169.875z M100.471,166.483c-0.284,0.079-0.451,0.376-0.37,0.66c0.079,0.285,0.376,0.449,0.66,0.369  c0.283-0.073,0.452-0.361,0.379-0.643l0,0c-0.072-0.286-0.361-0.462-0.649-0.391C100.484,166.479,100.477,166.482,100.471,166.483  L100.471,166.483z M66.942,149.357c-0.029,0.291,0.185,0.549,0.477,0.577c0.292,0.029,0.55-0.185,0.578-0.477  c0.028-0.286-0.178-0.54-0.463-0.574C67.242,148.855,66.978,149.065,66.942,149.357L66.942,149.357z M79.754,150.987  c-0.029,0.291,0.185,0.549,0.477,0.577c0.292,0.029,0.55-0.185,0.578-0.477c0.028-0.286-0.178-0.54-0.463-0.574  C80.054,150.483,79.791,150.694,79.754,150.987L79.754,150.987z M92.552,152.624c-0.029,0.298,0.19,0.562,0.488,0.591  c0.287,0.028,0.547-0.173,0.591-0.458c0.046-0.296-0.158-0.571-0.455-0.618c-0.296-0.046-0.573,0.159-0.619,0.454  C92.553,152.606,92.552,152.615,92.552,152.624z M79.687,196.718c-0.229,0.185-0.27,0.519-0.086,0.753  c0.173,0.23,0.502,0.272,0.731,0.099c0.001-0.001,0.003-0.002,0.004-0.003c0.234-0.158,0.294-0.476,0.137-0.71  c-0.008-0.011-0.015-0.021-0.024-0.034C80.261,196.596,79.93,196.552,79.687,196.718z M100.134,180.946  c-0.227,0.167-0.279,0.486-0.112,0.714c0.004,0.006,0.009,0.014,0.016,0.019c0.17,0.238,0.502,0.29,0.74,0.12  c0.008-0.005,0.015-0.01,0.022-0.015c0.233-0.184,0.273-0.519,0.091-0.752c-0.184-0.233-0.521-0.272-0.752-0.09  C100.137,180.944,100.135,180.946,100.134,180.946z M68.886,136.859c-0.057,0.255,0.102,0.508,0.355,0.569  c0.254,0.059,0.509-0.1,0.57-0.355c0.06-0.256-0.1-0.509-0.355-0.569l0,0C69.201,136.447,68.948,136.605,68.886,136.859  L68.886,136.859z M80.126,139.399c-0.057,0.255,0.102,0.508,0.355,0.569c0.253,0.067,0.514-0.084,0.581-0.337  s-0.083-0.513-0.337-0.58c-0.009-0.003-0.02-0.004-0.029-0.007c-0.248-0.063-0.501,0.088-0.566,0.336  C80.129,139.385,80.129,139.392,80.126,139.399L80.126,139.399z M91.571,141.663c-0.105,0.055-0.18,0.157-0.202,0.276  c-0.057,0.255,0.102,0.508,0.355,0.569c0.262,0.061,0.522-0.097,0.587-0.359c0-0.002,0-0.002,0.001-0.005  c0.036-0.154-0.006-0.318-0.115-0.435l-0.009-0.017c-0.058-0.068-0.141-0.11-0.232-0.116  C91.819,141.537,91.673,141.57,91.571,141.663L91.571,141.663z M77.293,184.296c-0.221,0.152-0.285,0.446-0.148,0.675  c0.135,0.216,0.417,0.281,0.634,0.148c0.006-0.004,0.011-0.008,0.018-0.012c0.225-0.135,0.297-0.427,0.161-0.649  c-0.002-0.003-0.003-0.004-0.005-0.008C77.807,184.236,77.519,184.167,77.293,184.296z M96.805,172.021  c-0.225,0.135-0.297,0.427-0.163,0.652c0.002,0.003,0.004,0.005,0.005,0.008c0.123,0.214,0.399,0.286,0.612,0.163  c0.013-0.007,0.026-0.015,0.038-0.025c0.225-0.135,0.297-0.427,0.163-0.652c-0.002-0.003-0.004-0.005-0.005-0.008  C97.308,171.948,97.023,171.888,96.805,172.021L96.805,172.021z M106.538,165.885c-0.22,0.149-0.279,0.447-0.13,0.666  c0.143,0.214,0.431,0.275,0.651,0.138c0.215-0.145,0.284-0.431,0.157-0.658C107.065,165.811,106.768,165.747,106.538,165.885  L106.538,165.885z M74.125,159.266c-0.257,0.053-0.425,0.301-0.379,0.558c0.044,0.256,0.285,0.429,0.541,0.385  c0.258-0.049,0.436-0.289,0.405-0.549C74.641,159.399,74.39,159.221,74.125,159.266z M85.495,157.326  c-0.25,0.033-0.427,0.264-0.393,0.513c0.001,0.008,0.004,0.019,0.004,0.027c0.044,0.256,0.285,0.429,0.541,0.385  c0.258-0.049,0.436-0.289,0.405-0.549C86.001,157.447,85.752,157.279,85.495,157.326z M96.855,155.371  c-0.257,0.045-0.426,0.289-0.382,0.544c0.045,0.252,0.283,0.424,0.537,0.383c0.256-0.041,0.433-0.281,0.394-0.539  c-0.041-0.258-0.28-0.432-0.539-0.393C96.862,155.369,96.86,155.37,96.855,155.371z M103.688,187.503  c-0.151,0.216-0.104,0.514,0.109,0.672c0.222,0.146,0.521,0.089,0.67-0.134c0.14-0.212,0.094-0.495-0.105-0.649  c-0.205-0.156-0.501-0.118-0.658,0.085C103.698,187.489,103.692,187.496,103.688,187.503z M95.611,156.585  c-0.144,0.054-0.214,0.216-0.16,0.36c0.054,0.143,0.217,0.214,0.36,0.16s0.214-0.216,0.16-0.36l0,0  C95.917,156.6,95.755,156.53,95.611,156.585L95.611,156.585L95.611,156.585z M101.946,154.116c-0.143,0.065-0.208,0.231-0.15,0.378  c0.054,0.143,0.217,0.214,0.36,0.16l0,0c0.139-0.047,0.214-0.2,0.166-0.34c-0.003-0.007-0.004-0.012-0.008-0.02  c-0.051-0.148-0.213-0.227-0.362-0.179C101.95,154.115,101.948,154.114,101.946,154.116z M96.592,142.287  c0.007,0.151,0.124,0.273,0.275,0.287c0.15,0.008,0.28-0.11,0.288-0.262c0.001-0.005,0-0.01,0-0.016  c0.01-0.148-0.101-0.275-0.249-0.286c-0.01,0-0.018-0.001-0.026,0C96.724,142.01,96.595,142.132,96.592,142.287L96.592,142.287z   M105.894,166.387c-0.113,0.105-0.118,0.28-0.013,0.391c0.106,0.113,0.28,0.118,0.394,0.012c0.113-0.091,0.13-0.255,0.039-0.365  c-0.006-0.009-0.016-0.019-0.026-0.027c-0.1-0.112-0.275-0.119-0.386-0.019C105.898,166.382,105.897,166.384,105.894,166.387  L105.894,166.387z M88.143,125.806c-0.04,0.164,0.061,0.331,0.226,0.371c0.002,0,0.005,0.002,0.009,0.003  c0.167,0.046,0.339-0.052,0.386-0.218c0.001-0.008,0.003-0.017,0.006-0.025c0.04-0.164-0.061-0.331-0.226-0.371  c-0.002,0-0.005-0.002-0.009-0.003C88.359,125.526,88.187,125.633,88.143,125.806L88.143,125.806z M93.451,157.819  c-0.145,0.079-0.197,0.261-0.119,0.404c0.005,0.011,0.013,0.021,0.021,0.032c0.094,0.147,0.289,0.191,0.436,0.099  c0.144-0.099,0.194-0.289,0.115-0.446C93.806,157.757,93.604,157.717,93.451,157.819C93.454,157.816,93.454,157.816,93.451,157.819  L93.451,157.819z M100.052,153.734c-0.151,0.1-0.192,0.3-0.09,0.452l0.001,0.001c0.094,0.147,0.289,0.191,0.436,0.099  c0.144-0.099,0.194-0.289,0.115-0.446C100.411,153.691,100.212,153.646,100.052,153.734L100.052,153.734z M91.571,141.663  c-0.013,0.044-0.018,0.09-0.015,0.136c0.025,0.171,0.187,0.289,0.359,0.263c0.003-0.001,0.005-0.001,0.011-0.001  c0.17-0.03,0.286-0.183,0.27-0.351l-0.009-0.017c-0.025-0.171-0.187-0.289-0.359-0.263c-0.003,0.001-0.008,0.001-0.011,0.001  C91.692,141.448,91.595,141.541,91.571,141.663L91.571,141.663z M106.967,166.93c-0.104,0.142-0.071,0.341,0.071,0.444  c0.004,0.001,0.006,0.006,0.009,0.005c0.14,0.099,0.335,0.067,0.435-0.073c0.108-0.13,0.092-0.321-0.038-0.431  c-0.006-0.006-0.01-0.008-0.017-0.014C107.281,166.757,107.078,166.786,106.967,166.93L106.967,166.93z M57.25,140.669  c-0.297,0.066-0.49,0.352-0.44,0.654c0.054,0.298,0.337,0.497,0.635,0.446c0.298-0.064,0.494-0.353,0.44-0.654  C57.832,140.816,57.55,140.617,57.25,140.669L57.25,140.669z M70.351,138.293c-0.299,0.053-0.498,0.336-0.447,0.635  c0.051,0.298,0.337,0.497,0.635,0.446c0.299-0.053,0.498-0.336,0.447-0.635C70.934,138.442,70.65,138.243,70.351,138.293  L70.351,138.293z M83.443,135.901c-0.298,0.064-0.494,0.353-0.44,0.653c0.064,0.295,0.355,0.483,0.65,0.419  c0.294-0.062,0.484-0.355,0.421-0.649C84.015,136.037,83.734,135.848,83.443,135.901z M94.816,176.981  c-0.167,0.25-0.109,0.588,0.136,0.765c0.25,0.174,0.592,0.114,0.767-0.136c0.175-0.249,0.114-0.591-0.136-0.765l0,0  C95.333,176.675,94.993,176.735,94.816,176.981L94.816,176.981z M102.397,166.054c-0.169,0.25-0.111,0.59,0.136,0.765  c0.259,0.169,0.602,0.105,0.784-0.146c0.166-0.26,0.089-0.602-0.167-0.767C102.899,165.751,102.569,165.815,102.397,166.054z   M83.491,155.889c-0.258,0.168-0.332,0.511-0.166,0.768c0,0,0,0,0.001,0.001c0.162,0.248,0.496,0.317,0.743,0.154l0,0  c0.257-0.158,0.336-0.494,0.178-0.75c-0.158-0.258-0.494-0.335-0.751-0.177C83.495,155.885,83.492,155.887,83.491,155.889  L83.491,155.889z M94.676,148.687c-0.254,0.156-0.335,0.488-0.179,0.742c0.002,0.003,0.004,0.006,0.006,0.009  c0.159,0.262,0.5,0.347,0.764,0.188c0.262-0.159,0.348-0.499,0.189-0.763c-0.159-0.262-0.5-0.347-0.764-0.188  C94.686,148.68,94.68,148.684,94.676,148.687z M77.03,150.194c-0.262,0.159-0.347,0.499-0.19,0.761  c0.156,0.252,0.485,0.338,0.745,0.197c0.261-0.163,0.351-0.499,0.206-0.77C77.629,150.128,77.295,150.044,77.03,150.194  L77.03,150.194z M88.468,143.486c-0.262,0.159-0.347,0.499-0.19,0.761c0.151,0.26,0.486,0.349,0.745,0.197  c0.26-0.151,0.35-0.485,0.199-0.745l0,0C89.069,143.44,88.736,143.345,88.468,143.486L88.468,143.486z M76.635,126.637  c-0.296,0.045-0.498,0.32-0.458,0.614c0.001,0.001-0.001,0.003,0.001,0.003c0.037,0.301,0.309,0.514,0.61,0.48  c0.302-0.047,0.511-0.326,0.474-0.628C77.211,126.809,76.935,126.603,76.635,126.637L76.635,126.637z M89.783,124.815  c-0.3,0.035-0.512,0.31-0.477,0.609s0.309,0.511,0.609,0.476c0.003-0.001,0.008-0.001,0.014-0.003  c0.299-0.05,0.508-0.326,0.474-0.628c-0.043-0.296-0.32-0.498-0.615-0.457C89.786,124.816,89.786,124.816,89.783,124.815  L89.783,124.815z M88.436,172.575c-0.178,0.248-0.126,0.594,0.118,0.775c0.24,0.178,0.581,0.131,0.759-0.11  c0.188-0.228,0.155-0.565-0.074-0.752c-0.006-0.006-0.011-0.011-0.02-0.015c-0.238-0.19-0.584-0.151-0.773,0.088  C88.442,172.566,88.44,172.57,88.436,172.575z M96.439,162.011c-0.178,0.248-0.126,0.594,0.118,0.775  c0.24,0.178,0.581,0.131,0.759-0.11c0.188-0.228,0.155-0.565-0.074-0.752c-0.006-0.006-0.011-0.011-0.02-0.015  c-0.238-0.19-0.586-0.15-0.773,0.088C96.447,162.002,96.443,162.007,96.439,162.011z M87.304,149.631  c-0.167,0.156-0.178,0.417-0.022,0.586c0.152,0.163,0.405,0.176,0.574,0.031c0.166-0.14,0.189-0.391,0.051-0.558  c-0.008-0.011-0.019-0.022-0.029-0.031C87.725,149.497,87.47,149.486,87.304,149.631z M94.674,142.903  c-0.169,0.156-0.177,0.422-0.021,0.589s0.422,0.176,0.589,0.02c0.168-0.151,0.182-0.411,0.031-0.578  c-0.003-0.004-0.006-0.006-0.01-0.011C95.105,142.759,94.845,142.75,94.674,142.903L94.674,142.903z M81.273,129.32  c-0.211,0.081-0.319,0.319-0.242,0.53c0.09,0.206,0.318,0.31,0.532,0.241c0.213-0.078,0.323-0.314,0.245-0.527  c-0.001-0.001-0.001-0.001-0.001-0.003c-0.07-0.207-0.295-0.321-0.504-0.253C81.291,129.313,81.283,129.316,81.273,129.32z   M90.682,125.9c-0.215,0.083-0.328,0.32-0.259,0.54c0.078,0.213,0.314,0.322,0.528,0.244c0.001-0.001,0.001-0.001,0.003-0.001  c0.21-0.069,0.324-0.291,0.257-0.501c-0.001-0.005-0.004-0.009-0.006-0.014c-0.069-0.217-0.299-0.338-0.517-0.27  C90.686,125.899,90.684,125.899,90.682,125.9L90.682,125.9z"/>

</g>
</g>

<!-- ITEM 4 -->
<g transform="translate(383.0 232.0) scale(1.95 1.9485714285714286) rotate(345.5797550406648 110.00000000000001 175.0)">
<g transform="translate(-0.0 -0.0)">

<linearGradient id="SVGID_1_-i4" gradientUnits="userSpaceOnUse" x1="-472.5338" y1="772.5233" x2="-349.6127" y2="772.5233" gradientTransform="matrix(0.8612 0.5083 0.5083 -0.8612 102.0323 1003.1466)">
	<stop offset="0" style="stop-color:#92C4FE"/>
	<stop offset="1" style="stop-color:#5BABF2"/>
</linearGradient>
<path fill="url(#SVGID_1_-i4)" d="M95.307,205.795c14.729,8.693,25.193,21.497,30.353,35.318c20.508-13.6,41.559-36.241,58.482-64.914  c34.505-58.466,9.547-137.102,9.547-137.102s-80.903,16.157-115.408,74.624c-16.923,28.674-26.569,58.045-28.563,82.573  C64.311,194.13,80.578,197.102,95.307,205.795z"/>
<path fill="#EFEFEF" d="M159.06,129.144c3.903,2.303,7.07,5.374,9.427,8.907c0.907-10.802-4.274-21.683-14.235-27.562  c-13.863-8.181-31.733-3.576-39.916,10.287c-5.879,9.961-5.155,21.99,0.86,31.009c0.356-4.232,1.645-8.451,3.948-12.354  C127.326,125.568,145.198,120.963,159.06,129.144z"/>
<path fill="#FFFFFF" d="M164.539,150.405c2.303-3.903,3.593-8.122,3.948-12.354c-2.356-3.533-5.525-6.604-9.427-8.907  c-13.863-8.181-31.735-3.576-39.916,10.287c-2.303,3.903-3.593,8.122-3.948,12.354c2.356,3.533,5.525,6.604,9.427,8.907  C138.487,168.874,156.358,164.268,164.539,150.405z"/>
<path fill="#FF4945" d="M170.241,177.313l-48.468,59.685l19.214,42.241C167.273,241.909,176.212,208.098,170.241,177.313z"/>
<path fill="#FF4945" d="M86.869,128.108l-28.824,71.278l-46.267,3.596C31.754,161.929,57.034,137.76,86.869,128.108z"/>
<g>
	<path fill="#FF4945" d="M190.566,46.754c-0.269,0-0.54-0.069-0.788-0.215c-0.737-0.435-0.982-1.386-0.547-2.123l25.765-43.654   c0.437-0.737,1.39-0.981,2.124-0.548c0.737,0.435,0.982,1.386,0.547,2.123l-25.765,43.654   C191.611,46.482,191.095,46.754,190.566,46.754z"/>
</g>
<g>
	<path fill="#5BABF2" d="M81.623,328.212c-0.048,0-0.097-0.007-0.146-0.022c-0.274-0.081-0.431-0.367-0.349-0.641   c6.579-22.379,11.33-43.057,15.404-67.046c0.048-0.28,0.314-0.469,0.596-0.423c0.281,0.049,0.471,0.315,0.424,0.596   c-4.081,24.031-8.841,44.745-15.432,67.163C82.053,328.065,81.848,328.212,81.623,328.212z"/>
</g>
<g>
	<path fill="#5BABF2" d="M0.517,280.344c-0.131,0-0.263-0.05-0.364-0.15c-0.203-0.201-0.205-0.528-0.004-0.731   c16.444-16.608,32.278-30.787,51.34-45.97c0.223-0.181,0.549-0.142,0.727,0.082c0.178,0.223,0.141,0.548-0.083,0.726   c-19.028,15.159-34.834,29.312-51.249,45.89C0.783,280.292,0.65,280.344,0.517,280.344z"/>
</g>
<rect x="71.04" y="336.231" transform="matrix(-0.3479 -0.9375 0.9375 -0.3479 -216.9981 533.5798)" fill="#FF4945" width="12.05" height="12.05"/>
<rect x="4.291" y="329.717" transform="matrix(0.7429 -0.6694 0.6694 0.7429 -222.0938 93.2242)" fill="#1B236D" width="12.05" height="12.05"/>
<rect x="9.453" y="247.158" transform="matrix(-0.3479 -0.9375 0.9375 -0.3479 -217.2908 351.3933)" fill="#5BABF2" width="8.212" height="8.212"/>
<g>
	<path fill="#5BABF2" d="M20.482,323.681c-0.089,0-0.18-0.023-0.261-0.071c-0.246-0.146-0.328-0.462-0.183-0.708l36.748-62.267   c0.146-0.246,0.463-0.326,0.708-0.183c0.246,0.146,0.328,0.462,0.183,0.708l-36.748,62.267   C20.83,323.59,20.657,323.681,20.482,323.681z"/>
</g>
<g>
	<path fill="#5BABF2" d="M61.01,311.706c-0.061,0-0.122-0.01-0.181-0.033c-0.268-0.1-0.403-0.398-0.303-0.666l6.347-16.94   c0.1-0.267,0.399-0.405,0.666-0.302c0.268,0.1,0.403,0.398,0.303,0.666l-6.347,16.94C61.416,311.577,61.219,311.706,61.01,311.706z   "/>
</g>
<g>
	<path fill="#FF4945" d="M139.41,169.91c-6.107,0-12.128-1.648-17.413-4.768c-7.894-4.659-13.501-12.113-15.788-20.989   c-2.287-8.875-0.982-18.111,3.677-26.005c6.144-10.411,17.479-16.879,29.58-16.879c6.107,0,12.128,1.648,17.413,4.767   c16.296,9.617,21.728,30.698,12.112,46.993C162.845,163.443,151.511,169.91,139.41,169.91z M139.466,111.607   c-8.462,0-16.385,4.52-20.679,11.796c-3.255,5.516-4.167,11.97-2.569,18.173c1.599,6.202,5.517,11.411,11.033,14.667   c3.695,2.181,7.9,3.333,12.161,3.333c8.462,0,16.386-4.521,20.68-11.797c6.72-11.387,2.923-26.118-8.464-32.838   C147.931,112.759,143.726,111.607,139.466,111.607z"/>
</g>
<path fill="#5BABF2" d="M133.794,76.781c29.573,17.454,51.031,42.866,62.541,70.729c15.081-52.561-2.645-108.413-2.645-108.413  s-37.718,7.538-72.63,30.928C125.354,72.061,129.605,74.31,133.794,76.781z"/>
<linearGradient id="SVGID_2_-i4" gradientUnits="userSpaceOnUse" x1="-452.5461" y1="853.5646" x2="-369.6049" y2="853.5646" gradientTransform="matrix(0.8612 0.5083 0.5083 -0.8612 102.0323 1003.1466)">
	<stop offset="0" style="stop-color:#FF4945"/>
	<stop offset="1" style="stop-color:#F92424"/>
</linearGradient>
<path fill="url(#SVGID_2_-i4)" d="M204.07,103.103c0.888-36.806-8.663-66.916-8.663-66.916s-30.975,6.192-62.767,24.759L204.07,103.103  z"/>

</g>
</g>

              </svg>