<?xml version="1.0" encoding="UTF-8"?><svg version="1.1" xmlns="http://www.w3.org/2000/svg" xmlns:xlink="http://www.w3.org/1999/xlink" viewBox="0 0 1200 1600" width="1200" height="1600" x="0px" y="0px">
              
              <!-- ITEM 0 -->
<g transform="translate(166.0 1101.0) scale(1.1733333333333333 1.1741935483870967) rotate(0.0 150.0 155.00000000000003)">
<g transform="translate(-0.0 -0.0)">

<path fill="#EF9A9A" d="M126.941,44.361c1.211-0.994,2.329,3.402,3.866,3.102c8.496-1.656,17.867-0.365,25.31-4.79  c2.286-1.36,4.74-4.837,7.378-4.501c3.329,0.424,10.088-21.351,11.197-18.179c2.358,6.747,2.661,39.281,5.019,46.028  c0.465,1.33,0.037,8.617-0.251,9.996c-0.665,3.168-9.01,4.06-12.171,4.741c-16.848,3.633-28.559,11.076-44.999,16.261  c-2.848,0.899-6.592,1.294-8.227-1.21c-0.967-1.479-10.047,1.869-9.775,0.124c0.51-3.278,17.545-22.425,21.109-31.459  C127.41,59.374,125.729,45.357,126.941,44.361z"/>
<g>
	<g>
		<polygon fill="#23286B" points="255.734,115.026 207.382,111.098 182.691,60.198 215.239,13.945 263.594,17.87 261.098,48.714     230.324,46.214 218.443,63.1 227.456,81.684 258.228,84.18   "/>
	</g>
	<g>
		<polygon fill="#23286B" points="84.09,101.091 35.595,97.154 38.09,66.311 69.006,68.822 80.888,51.935 71.874,33.351     40.96,30.841 43.454,0 91.95,3.938 116.639,54.837   "/>
	</g>
	<g>
		<polygon fill="#23286B" points="88.421,37.8 206.947,47.425 204.451,78.264 85.925,68.639   "/>
	</g>
</g>
<linearGradient id="SVGID_1_-i0" gradientUnits="userSpaceOnUse" x1="892.6735" y1="-1700.7046" x2="2954.5291" y2="-1700.7046" gradientTransform="matrix(0.1455 0 0 -0.1455 -129.884 26.1818)">
	<stop offset="0" style="stop-color:#23286B"/>
	<stop offset="1" style="stop-color:#151A4F"/>
</linearGradient>
<ellipse fill="url(#SVGID_1_-i0)" cx="150" cy="273.634" rx="150" ry="36.008"/>
<path id="texure_4_-i0" opacity="0.51" fill="#FFFFFF" enable-background="new    " d="M73.905,265.553  c0.187,0.065,0.392-0.037,0.456-0.225c0.064-0.187-0.037-0.393-0.224-0.457c-0.187-0.065-0.392,0.037-0.457,0.225l0,0  C73.619,265.285,73.718,265.488,73.905,265.553L73.905,265.553z M76.676,257.193c0.196,0.059,0.403-0.042,0.481-0.231  c0.054-0.193-0.056-0.394-0.247-0.451c-0.173-0.071-0.372,0.01-0.444,0.185c-0.006,0.012-0.009,0.025-0.013,0.041  C76.388,256.925,76.489,257.129,76.676,257.193L76.676,257.193L76.676,257.193z M110.651,262.706  c0.088,0.184,0.309,0.26,0.491,0.172l0,0c0.17-0.076,0.246-0.276,0.17-0.444c-0.004-0.014-0.013-0.029-0.023-0.042  c-0.082-0.178-0.289-0.257-0.468-0.178C110.638,262.302,110.562,262.522,110.651,262.706L110.651,262.706L110.651,262.706z   M60.222,252.274c0.146,0.127,0.368,0.114,0.498-0.031c0.127-0.147,0.114-0.368-0.031-0.499s-0.368-0.114-0.498,0.031  c-0.13,0.131-0.128,0.345,0.004,0.475C60.205,252.26,60.212,252.267,60.222,252.274z M91.95,262.949  c0.029,0.2,0.202,0.346,0.403,0.343c0.206-0.016,0.358-0.197,0.343-0.404c-0.016-0.206-0.196-0.361-0.403-0.343  C92.093,262.575,91.947,262.749,91.95,262.949z M91.321,254.159c0.02,0.198,0.199,0.34,0.397,0.32l0,0  c0.191,0,0.348-0.155,0.349-0.348c-0.001-0.01,0-0.02-0.001-0.031c-0.022-0.203-0.197-0.353-0.403-0.343  C91.465,253.785,91.317,253.959,91.321,254.159z M26.257,271.312c0.264,0.267,0.697,0.272,0.966,0.006  c0.006-0.004,0.01-0.012,0.017-0.017c0.263-0.263,0.263-0.693,0-0.956c-0.001-0.001-0.003-0.001-0.004-0.003  c-0.264-0.267-0.697-0.272-0.966-0.006c-0.006,0.004-0.01,0.012-0.017,0.017c-0.263,0.263-0.263,0.693,0,0.956  C26.253,271.312,26.253,271.312,26.257,271.312L26.257,271.312z M37.988,259.449c0.272,0.27,0.71,0.272,0.984,0  c0.273-0.272,0.272-0.711,0-0.986c-0.004-0.003-0.004-0.006-0.009-0.009c-0.263-0.263-0.692-0.263-0.954,0  c-0.001,0.001-0.001,0.003-0.003,0.004C37.737,258.735,37.731,259.169,37.988,259.449L37.988,259.449z M79.306,309.316  c0.009,0.381,0.321,0.685,0.701,0.683c0.368,0.01,0.674-0.276,0.687-0.642c0-0.014,0.002-0.025,0-0.037  c-0.009-0.381-0.321-0.685-0.703-0.683C79.616,308.636,79.309,308.939,79.306,309.316L79.306,309.316L79.306,309.316z   M79.161,275.898c0,0.378,0.301,0.68,0.678,0.682c0.007,0,0.016,0,0.023-0.002c0.368,0.01,0.674-0.276,0.687-0.642  c0-0.014,0.002-0.025,0-0.037c-0.016-0.384-0.323-0.692-0.707-0.708C79.462,275.205,79.158,275.517,79.161,275.898L79.161,275.898z   M79.079,259.202c0.004,0.382,0.32,0.689,0.701,0.683c0.383-0.004,0.687-0.32,0.682-0.702c0.003-0.378-0.3-0.685-0.677-0.689l0,0  c-0.381-0.006-0.698,0.297-0.706,0.681C79.078,259.185,79.079,259.194,79.079,259.202L79.079,259.202z M46.477,295.392  c0.354,0.133,0.748-0.048,0.88-0.404c0.133-0.355-0.048-0.749-0.403-0.882c-0.348-0.13-0.734,0.042-0.872,0.387  C45.949,294.85,46.124,295.25,46.477,295.392L46.477,295.392z M52.792,279.922c0.354,0.133,0.748-0.048,0.88-0.404  c0.133-0.355-0.048-0.749-0.403-0.882c-0.348-0.13-0.734,0.042-0.872,0.387C52.263,279.379,52.438,279.778,52.792,279.922  L52.792,279.922z M59.112,264.473c0.363,0.136,0.766-0.05,0.902-0.413c0.131-0.349-0.034-0.742-0.375-0.891  c-0.355-0.156-0.767,0.007-0.924,0.362c-0.156,0.355,0.007,0.769,0.361,0.926C59.09,264.466,59.1,264.47,59.112,264.473z   M109.93,295.276c0.155,0.348,0.559,0.511,0.912,0.359c0.345-0.14,0.508-0.536,0.368-0.88c-0.001-0.001-0.001-0.004-0.003-0.006  c-0.12-0.345-0.497-0.527-0.842-0.409c-0.016,0.006-0.032,0.012-0.051,0.019C109.969,294.518,109.804,294.917,109.93,295.276z   M97.044,264.453c0.133,0.34,0.514,0.511,0.855,0.378c0.009-0.003,0.02-0.007,0.029-0.014c0.354-0.133,0.53-0.53,0.397-0.885  c-0.004-0.012-0.007-0.022-0.012-0.032c-0.152-0.353-0.558-0.515-0.909-0.365c-0.352,0.152-0.514,0.56-0.364,0.91  C97.042,264.448,97.044,264.451,97.044,264.453z M31.505,288.79c0.3,0.156,0.669,0.042,0.83-0.254  c0.158-0.298,0.045-0.67-0.253-0.831c-0.3-0.161-0.669-0.045-0.83,0.254l0,0C31.095,288.258,31.208,288.628,31.505,288.79  L31.505,288.79z M38.432,275.588c0.3,0.156,0.669,0.042,0.83-0.254c0.168-0.294,0.066-0.67-0.227-0.838  c-0.294-0.168-0.669-0.067-0.837,0.228c-0.007,0.01-0.012,0.023-0.019,0.034c-0.162,0.289-0.057,0.656,0.231,0.819  C38.416,275.58,38.425,275.582,38.432,275.588L38.432,275.588z M45.084,262.039c0.034,0.15,0.136,0.277,0.278,0.345  c0.3,0.156,0.669,0.042,0.83-0.254c0.164-0.307,0.053-0.685-0.253-0.853c-0.003-0.001-0.003-0.001-0.006-0.003  c-0.181-0.096-0.399-0.098-0.582-0.002l-0.025,0.006c-0.105,0.05-0.185,0.139-0.222,0.251  C45.009,261.687,45.002,261.88,45.084,262.039L45.084,262.039z M93.605,294.121c0.116,0.327,0.463,0.505,0.795,0.41  c0.315-0.096,0.491-0.427,0.397-0.743c-0.003-0.009-0.006-0.016-0.009-0.026c-0.094-0.327-0.434-0.514-0.758-0.418  c-0.004,0.001-0.006,0.003-0.012,0.004C93.701,293.458,93.519,293.796,93.605,294.121z M84.777,265.634  c0.094,0.327,0.434,0.514,0.76,0.421c0.004-0.001,0.007-0.003,0.012-0.004c0.309-0.082,0.491-0.403,0.408-0.711  c-0.004-0.019-0.01-0.038-0.019-0.056c-0.094-0.327-0.434-0.514-0.76-0.421c-0.004,0.002-0.007,0.003-0.012,0.004  C84.854,264.98,84.683,265.317,84.777,265.634L84.777,265.634z M80.357,251.419c0.113,0.325,0.465,0.498,0.789,0.385  c0.315-0.108,0.488-0.447,0.39-0.768c-0.11-0.317-0.444-0.499-0.77-0.416C80.44,250.736,80.261,251.086,80.357,251.419  L80.357,251.419z M61.261,289.723c-0.02,0.339,0.234,0.632,0.571,0.66c0.335,0.031,0.631-0.213,0.662-0.548  c0.025-0.339-0.216-0.642-0.551-0.69C61.599,289.122,61.293,289.376,61.261,289.723z M62.632,274.864  c-0.042,0.323,0.187,0.622,0.51,0.663c0.01,0.001,0.025,0.001,0.035,0.004c0.335,0.031,0.631-0.213,0.662-0.548  c0.025-0.339-0.216-0.642-0.551-0.69C62.953,274.272,62.66,274.527,62.632,274.864z M63.982,260.011  c-0.029,0.336,0.219,0.629,0.553,0.659c0.33,0.028,0.624-0.212,0.658-0.543c0.034-0.334-0.206-0.635-0.542-0.672  c-0.336-0.035-0.634,0.206-0.671,0.542C63.982,260.002,63.982,260.005,63.982,260.011z M106.426,262.2  c0.219,0.261,0.608,0.302,0.877,0.088c0.257-0.228,0.285-0.622,0.056-0.882c-0.218-0.246-0.587-0.283-0.846-0.085  c-0.264,0.204-0.315,0.587-0.113,0.851C106.412,262.182,106.419,262.193,106.426,262.2z M65.084,261.972  c0.02,0.198,0.199,0.34,0.397,0.32c0.197-0.02,0.34-0.2,0.32-0.397s-0.199-0.34-0.397-0.32l0,0  C65.205,261.594,65.063,261.774,65.084,261.972L65.084,261.972L65.084,261.972z M64.113,253.229  c0.034,0.201,0.219,0.337,0.422,0.314c0.197-0.02,0.34-0.2,0.32-0.397l0,0c-0.012-0.19-0.178-0.334-0.37-0.321  c-0.01,0.001-0.017,0.001-0.028,0.003c-0.202,0.014-0.355,0.19-0.345,0.393C64.113,253.224,64.112,253.226,64.113,253.229z   M47.54,255.971c0.191,0.042,0.383-0.064,0.451-0.248c0.06-0.185-0.044-0.387-0.231-0.447c-0.006-0.003-0.012-0.003-0.02-0.006  c-0.181-0.062-0.378,0.034-0.441,0.215c-0.003,0.012-0.007,0.022-0.009,0.032C47.238,255.714,47.348,255.916,47.54,255.971  L47.54,255.971z M80.769,252.391c0.094,0.177,0.31,0.241,0.485,0.147c0.177-0.095,0.241-0.311,0.146-0.488  c-0.076-0.171-0.275-0.247-0.443-0.171c-0.013,0.004-0.029,0.014-0.042,0.023c-0.173,0.088-0.241,0.304-0.153,0.476  C80.764,252.385,80.767,252.387,80.769,252.391L80.769,252.391z M24.119,261.029c0.191,0.105,0.434,0.034,0.539-0.158  c0.001-0.003,0.004-0.006,0.007-0.01c0.113-0.194,0.048-0.441-0.143-0.555c-0.009-0.004-0.02-0.01-0.029-0.016  c-0.191-0.105-0.434-0.034-0.539,0.158c-0.001,0.003-0.004,0.006-0.007,0.01C23.841,260.665,23.918,260.916,24.119,261.029  L24.119,261.029z M65.905,265.083c0.05,0.207,0.26,0.333,0.465,0.283c0.016-0.003,0.031-0.009,0.047-0.016  c0.215-0.068,0.335-0.297,0.269-0.512c-0.076-0.213-0.297-0.339-0.519-0.292C65.947,264.619,65.829,264.859,65.905,265.083  C65.903,265.079,65.903,265.079,65.905,265.083L65.905,265.083z M63.004,255.469c0.074,0.222,0.311,0.34,0.535,0.263l0.001-0.001  c0.215-0.068,0.335-0.297,0.269-0.512c-0.076-0.213-0.297-0.339-0.519-0.292C63.07,255.006,62.947,255.24,63.004,255.469  L63.004,255.469z M45.084,262.039c0.051,0.031,0.107,0.053,0.165,0.064c0.222,0.026,0.424-0.137,0.448-0.361  c0-0.004,0.001-0.007,0.003-0.014c0.019-0.222-0.133-0.418-0.349-0.455l-0.025,0.006c-0.222-0.026-0.424,0.137-0.448,0.361  c0,0.004-0.001,0.01-0.003,0.014C44.856,261.816,44.94,261.968,45.084,262.039L45.084,262.039z M81.807,251.232  c0.143,0.177,0.403,0.203,0.579,0.059c0.003-0.004,0.009-0.006,0.009-0.009c0.171-0.142,0.196-0.396,0.054-0.568  c-0.127-0.178-0.371-0.222-0.551-0.096c-0.009,0.006-0.013,0.01-0.023,0.016C81.695,250.781,81.663,251.045,81.807,251.232  L81.807,251.232z M32.382,304.606c-0.016,0.393,0.276,0.73,0.671,0.768c0.39,0.032,0.734-0.255,0.769-0.645  c0.02-0.394-0.276-0.735-0.671-0.768C32.76,303.927,32.416,304.214,32.382,304.606L32.382,304.606z M33.786,287.437  c-0.034,0.391,0.254,0.735,0.644,0.771s0.734-0.255,0.769-0.645c0.034-0.391-0.254-0.735-0.644-0.771  C34.167,286.758,33.823,287.047,33.786,287.437L33.786,287.437z M35.168,270.274c-0.02,0.394,0.276,0.735,0.669,0.768  c0.39,0.019,0.722-0.283,0.741-0.672c0.02-0.388-0.282-0.723-0.671-0.743C35.529,269.605,35.199,269.893,35.168,270.274z   M90.312,269.776c0.257,0.292,0.698,0.333,1.002,0.086c0.301-0.254,0.34-0.702,0.086-1.004c-0.253-0.302-0.701-0.34-1.002-0.086l0,0  C90.103,269.027,90.064,269.472,90.312,269.776L90.312,269.776z M79.186,256.652c0.256,0.295,0.7,0.336,1.002,0.086  c0.297-0.267,0.332-0.718,0.08-1.029c-0.269-0.294-0.723-0.312-1.014-0.047C78.974,255.923,78.944,256.357,79.186,256.652z   M60.167,276.888c0.124,0.379,0.528,0.585,0.905,0.464c0,0,0,0,0.001-0.001c0.364-0.12,0.562-0.514,0.441-0.877l0,0  c-0.111-0.374-0.505-0.585-0.878-0.473c-0.375,0.111-0.584,0.505-0.472,0.88C60.164,276.882,60.165,276.887,60.167,276.888  L60.167,276.888z M54.9,260.503c0.11,0.37,0.498,0.581,0.868,0.472c0.004-0.001,0.009-0.003,0.013-0.004  c0.38-0.111,0.601-0.509,0.49-0.892c-0.111-0.381-0.508-0.602-0.891-0.491c-0.38,0.111-0.601,0.509-0.49,0.892  C54.894,260.489,54.897,260.497,54.9,260.503z M50.892,283.063c0.111,0.381,0.508,0.6,0.888,0.491  c0.367-0.111,0.584-0.494,0.495-0.866c-0.117-0.381-0.507-0.605-0.893-0.515C51.009,282.292,50.793,282.682,50.892,283.063  L50.892,283.063z M46.326,266.526c0.111,0.381,0.508,0.6,0.888,0.491c0.375-0.102,0.598-0.491,0.495-0.866  c-0.102-0.375-0.49-0.599-0.865-0.497l0,0C46.469,265.759,46.239,266.144,46.326,266.526L46.326,266.526z M21.315,275.691  c-0.042,0.385,0.234,0.73,0.615,0.777c0.001-0.001,0.003,0.002,0.004,0c0.389,0.054,0.746-0.215,0.803-0.602  c0.042-0.393-0.237-0.747-0.627-0.802C21.723,275.028,21.373,275.304,21.315,275.691L21.315,275.691z M23.428,258.648  c-0.056,0.387,0.216,0.744,0.602,0.8c0.386,0.056,0.742-0.216,0.798-0.603c0-0.004,0.001-0.01,0.001-0.019  c0.037-0.39-0.238-0.744-0.627-0.802c-0.384-0.045-0.729,0.234-0.776,0.616C23.43,258.645,23.43,258.645,23.428,258.648  L23.428,258.648z M82.675,276.279c0.25,0.305,0.7,0.356,1.008,0.111c0.303-0.241,0.357-0.682,0.116-0.986  c-0.222-0.311-0.655-0.382-0.964-0.159c-0.009,0.006-0.017,0.01-0.025,0.02c-0.317,0.234-0.384,0.679-0.148,0.996  C82.665,276.268,82.67,276.273,82.675,276.279z M72.143,262.749c0.25,0.305,0.7,0.356,1.008,0.111  c0.303-0.241,0.357-0.682,0.116-0.986c-0.222-0.311-0.655-0.382-0.964-0.159c-0.009,0.006-0.017,0.01-0.025,0.02  c-0.317,0.234-0.383,0.682-0.148,0.996C72.134,262.736,72.139,262.742,72.143,262.749z M53.619,270.033  c0.139,0.261,0.462,0.362,0.725,0.223c0.254-0.136,0.355-0.447,0.231-0.707c-0.12-0.255-0.425-0.367-0.681-0.25  c-0.016,0.007-0.034,0.017-0.048,0.026C53.592,269.462,53.492,269.777,53.619,270.033z M47.67,258.574  c0.139,0.264,0.468,0.362,0.729,0.223c0.261-0.139,0.361-0.469,0.222-0.73c-0.133-0.261-0.453-0.365-0.712-0.232  c-0.006,0.003-0.01,0.006-0.017,0.009C47.634,257.988,47.536,258.31,47.67,258.574L47.67,258.574z M26.218,270.789  c0.031,0.291,0.292,0.505,0.582,0.479c0.288-0.044,0.494-0.294,0.479-0.584c-0.026-0.292-0.284-0.509-0.577-0.482  c-0.001,0.001-0.001,0.001-0.004,0c-0.282,0.019-0.5,0.261-0.484,0.545C26.215,270.764,26.216,270.776,26.218,270.789z   M25.084,257.887c0.032,0.297,0.291,0.517,0.589,0.504c0.292-0.026,0.508-0.285,0.481-0.578c-0.001-0.001-0.001-0.001,0-0.004  c-0.016-0.285-0.256-0.502-0.541-0.488c-0.007,0-0.012,0.002-0.02,0.003c-0.295,0.014-0.522,0.261-0.51,0.556  C25.084,257.881,25.084,257.884,25.084,257.887L25.084,257.887z"/>
<linearGradient id="SVGID_2_-i0" gradientUnits="userSpaceOnUse" x1="1918.3452" y1="-1639.0415" x2="2637.7861" y2="-1822.9489" gradientTransform="matrix(0.1455 0 0 -0.1455 -129.884 26.1818)">
	<stop offset="0" style="stop-color:#428DFC"/>
	<stop offset="1" style="stop-color:#89B3F4"/>
</linearGradient>
<path fill="url(#SVGID_2_-i0)" d="M132.582,287.731c-1.115-1.227-2.171-2.688-2.168-4.346c0.003-1.685,1.143-3.206,2.559-4.114  c1.416-0.908,3.089-1.315,4.727-1.697c9.308-2.168,18.745-4.009,28.298-4.288c7.847-0.229,7.977-2.146,15.829-2.2  c7.851-0.053,18.175-2.92,25.151-6.532c8.924-4.623,21.483-8.819,31.462-10.001c-2.493,10.233-6.038,20.863-14.027,27.71  c-3.435,2.945-7.512,5.019-11.545,7.064c-5.809,2.946-11.667,5.912-17.948,7.632c-5.892,1.613-12.03,2.095-18.129,2.435  c-7.875,0.438-15.843,0.647-23.581-0.882C145.466,296.983,137.891,293.572,132.582,287.731z"/>
<linearGradient id="SVGID_3_-i0" gradientUnits="userSpaceOnUse" x1="1590.1458" y1="-1089.8813" x2="2462.1755" y2="-1089.8813" gradientTransform="matrix(0.1455 0 0 -0.1455 -129.884 26.1818)">
	<stop offset="0" style="stop-color:#FFBEB6"/>
	<stop offset="1" style="stop-color:#F2A19C"/>
</linearGradient>
<path fill="url(#SVGID_3_-i0)" d="M228.363,292.425c-6.415-10.099-72.544-102.025-80.868-126.596  c-4.341-12.817-8.69-25.653-11.864-38.81c-1.28-5.307-2.376-10.79-1.622-16.198c1.373-9.863,13.624-17.59,16.716-19.225  c10.978-5.81,20.722-6.458,30.488-7.51c3.464-0.372,1.651-1.783,0.815-5.172c-2.718-11.035-5.611-6.37-16.475-3.094  c-2.151,0.648-8.268,0.064-10.297,1.032c-7.768,3.7-17.386,3.051-24.102,8.432c-8.57-0.252-17.513,0.6-22.348,3.941  c-4.724,3.265-6.669,11.016-7.23,16.737c-0.45,4.587,0.801,9.153,2.031,13.595c16.123,58.192,31.1,117.592,30.215,177.976  C155.672,296.646,206.514,293.315,228.363,292.425z"/>
<linearGradient id="SVGID_4_-i0" gradientUnits="userSpaceOnUse" x1="1785.7455" y1="-1739.1521" x2="2532.0164" y2="-1739.1521" gradientTransform="matrix(0.1455 0 0 -0.1455 -129.884 26.1818)">
	<stop offset="0" style="stop-color:#428DFC"/>
	<stop offset="1" style="stop-color:#1D72D8"/>
</linearGradient>
<path fill="url(#SVGID_4_-i0)" d="M238.524,254.977c-1.523,13.37-3.001,28.775-4.049,42.188c-33.161,6.939-66.68,8.044-100.302,3.885  c-1.213-0.15-3.2-2.111-3.777-3.19c-0.306-0.571-0.46-2.695-0.454-3.344c0.054-4.893,0.261-8.341,0.315-13.231  c30.916,7.61,43.384,7.54,73.721-2.13c7.756-2.472,21.951-10.505,25.208-12.891C233.769,262.908,237.295,259.023,238.524,254.977z"/>
<path fill="none" d="M159.74,58.504c6.004-5.269,11.446-11.181,16.203-17.604c-8.132,3.025-13.737,11.799-13.068,20.463  c3.313,1.967,7.445-0.492,10.335-3.04c6.637-5.849,12.371-12.721,16.937-20.302c0.482-0.8,0.967-1.668,0.928-2.601  c-0.073-1.756-1.875-2.869-3.497-3.543c-14.693-6.118-33.015-2.034-43.733,9.746c-3.39,3.726-6.026,8.071-8.459,12.488  c-1.584,2.878-3.134,6.233-2.039,9.331c13.008-4.18,24.613-12.621,32.61-23.716c-6.989,1.53-11.17,8.521-14.522,14.852  c-0.766,1.447-1.552,3.119-0.988,4.657c0.633,1.733,2.811,2.478,4.612,2.094C156.861,60.941,158.354,59.72,159.74,58.504z"/>
<linearGradient id="SVGID_5_-i0" gradientUnits="userSpaceOnUse" x1="1677.9634" y1="-327.579" x2="2217.7056" y2="-327.579" gradientTransform="matrix(0.1455 0 0 -0.1455 -129.884 26.1818)">
	<stop offset="0" style="stop-color:#FFBEB6"/>
	<stop offset="1" style="stop-color:#F2A19C"/>
</linearGradient>
<path fill="url(#SVGID_5_-i0)" d="M186.347,35.844c3.543,1.032,5.803,4.705,6.304,8.367c0.5,3.662-0.414,7.354-1.321,10.937  c-2.579,10.191-5.157,20.382-7.736,30.572c-0.123,0.479-0.25,0.974-0.551,1.365c-0.561,0.726-1.555,0.914-2.459,1.058  c-20.483,3.263-41.074,10.088-56.49,23.987c0.285-8.683-9.156-15.071-9.834-23.732c15.941-5.955,32.393-10.536,49.115-13.675  c0.95-0.178,1.964-0.385,2.641-1.077c0.589-0.602,0.811-1.463,1.01-2.282c1.669-6.855,3.335-13.71,5.003-20.565  c0.919-3.776,1.889-7.665,4.213-10.774C178.566,36.914,182.623,34.759,186.347,35.844z"/>
<linearGradient id="SVGID_6_-i0" gradientUnits="userSpaceOnUse" x1="1638.6537" y1="-74.6052" x2="1866.2268" y2="-74.6052" gradientTransform="matrix(0.1455 0 0 -0.1455 -129.884 26.1818)">
	<stop offset="0" style="stop-color:#FFBEB6"/>
	<stop offset="1" style="stop-color:#F2A19C"/>
</linearGradient>
<path fill="url(#SVGID_6_-i0)" d="M140.176,27.372c1.186-2.221,2.255-5.274,0.399-6.97c-1.978-1.807-4.842-3.252-7.413-2.505  c-15.229,4.417-21.803,18.712-24.488,32.241c-0.435,2.197-0.321,5.034,1.713,5.966c1.122,0.514,2.439,0.215,3.609-0.175  C126.557,51.744,133.931,39.063,140.176,27.372z"/>
<linearGradient id="SVGID_7_-i0" gradientUnits="userSpaceOnUse" x1="1755.4552" y1="-64.2048" x2="1983.0212" y2="-64.2048" gradientTransform="matrix(0.1455 0 0 -0.1455 -129.884 26.1818)">
	<stop offset="0" style="stop-color:#FFBEB6"/>
	<stop offset="1" style="stop-color:#F2A19C"/>
</linearGradient>
<path fill="url(#SVGID_7_-i0)" d="M157.165,25.825c1.186-2.221,2.255-5.274,0.399-6.97c-1.979-1.807-4.796-3.065-7.413-2.505  c-15.229,3.257-21.803,18.712-24.487,32.241c-0.435,2.197-0.321,5.034,1.713,5.966c1.122,0.514,2.439,0.215,3.609-0.175  C143.546,50.197,150.921,37.517,157.165,25.825z"/>
<linearGradient id="SVGID_8_-i0" gradientUnits="userSpaceOnUse" x1="1871.9813" y1="-68.977" x2="2099.8296" y2="-68.977" gradientTransform="matrix(0.1455 0 0 -0.1455 -129.884 26.1818)">
	<stop offset="0" style="stop-color:#FFBEB6"/>
	<stop offset="1" style="stop-color:#F2A19C"/>
</linearGradient>
<path fill="url(#SVGID_8_-i0)" d="M174.155,25.825c1.186-2.221,2.255-5.274,0.399-6.97c-1.979-1.807-4.857-3.303-7.413-2.505  c-12.912,4.03-21.803,18.712-24.488,32.241c-0.435,2.197-0.495,6.442,1.537,7.373c1.122,0.514,5.006,0.39,6.178,0  C162.928,51.78,167.911,37.517,174.155,25.825z"/>

</g>
</g>

<!-- ITEM 1 -->
<g transform="translate(674.0 1082.0) scale(0.8925 0.892271662763466) rotate(0.0 200.0 213.50000000000003)">
<g transform="translate(-0.0 -0.0)">

<path fill="#FFBEB6" d="M201.121,146.763c-8.729-0.791-17.746,3.277-22.914,10.346c-5.171,7.067-6.312,16.879-2.899,24.94  c3.095,0.162,0.272-2.272,1.454-5.132c1.182-2.86,2.03-10.744,3.895-13.216c2.09-2.777,50.478-12.931,69.432-16.609  c8.307-1.614,31.834-4.877,32.187-13.32c0.389-9.33-19.071-2.741-24.009-2.095C253.327,132.322,203.678,146.995,201.121,146.763z"/>
<linearGradient id="SVGID_1_-i1" gradientUnits="userSpaceOnUse" x1="1749.8864" y1="-942.746" x2="2339.3174" y2="-942.746" gradientTransform="matrix(0.1778 0 0 -0.1778 -157.0402 -56.9793)">
	<stop offset="0" style="stop-color:#FFBEB6"/>
	<stop offset="1" style="stop-color:#F2A19C"/>
</linearGradient>
<path fill="url(#SVGID_1_-i1)" d="M161.535,124.999c4.416-5.543,9.385-11.382,16.283-13.036c-5.284,9.083-8.328,12.699-6.502,23.042  c14.022-4.058,18.927-6.905,32.949-10.965c9.874-12.812,14.909-19.857,20.593-35.636c-10.239-11.96-13.816-29.484-24.055-41.443  c-1.607-1.877-3.281-3.892-3.643-6.335c-0.365-2.443,1.205-5.341,3.675-5.44c1.068-0.043,2.086,0.428,3.037,0.915  c22.352,11.455,56.597,47.138,54.962,50.923c-9.817,18.473-18.649,37.465-26.45,56.872c-0.543,1.353-1.1,2.737-2.067,3.828  c-1.545,1.743-3.895,2.492-6.125,3.166c-11.804,3.567-23.608,7.135-35.413,10.703c-6.386,1.93-13.225,4.171-17.16,9.548  c-3.174,4.336-3.87,9.945-5.807,14.955c-3.218-11.32-6.44-22.64-9.658-33.958c-1.343-4.722-2.698-9.661-1.742-14.475  C155.363,132.867,158.485,128.827,161.535,124.999z"/>
<linearGradient id="SVGID_2_-i1" gradientUnits="userSpaceOnUse" x1="883.2407" y1="-2450.2485" x2="3132.9595" y2="-2450.2485" gradientTransform="matrix(0.1778 0 0 -0.1778 -157.0402 -56.9793)">
	<stop offset="0" style="stop-color:#23286B"/>
	<stop offset="1" style="stop-color:#151A4F"/>
</linearGradient>
<ellipse fill="url(#SVGID_2_-i1)" cx="200" cy="378.675" rx="200" ry="47.847"/>
<path id="texure_3_-i1" opacity="0.51" fill="#FFFFFF" enable-background="new    " d="M98.54,367.937  c0.249,0.086,0.524-0.049,0.607-0.298c0.086-0.248-0.049-0.523-0.298-0.606c-0.249-0.086-0.524,0.049-0.61,0.298l0,0  C98.157,367.581,98.291,367.85,98.54,367.937L98.54,367.937z M102.235,356.828c0.261,0.079,0.537-0.055,0.641-0.306  c0.071-0.257-0.074-0.524-0.329-0.6c-0.23-0.095-0.497,0.015-0.593,0.247c-0.009,0.016-0.012,0.033-0.018,0.053  C101.849,356.47,101.985,356.742,102.235,356.828L102.235,356.828L102.235,356.828z M147.533,364.153  c0.117,0.245,0.412,0.346,0.655,0.229l0,0c0.227-0.101,0.328-0.367,0.227-0.59c-0.006-0.018-0.018-0.039-0.031-0.055  c-0.11-0.236-0.386-0.341-0.623-0.236C147.517,363.617,147.416,363.909,147.533,364.153L147.533,364.153L147.533,364.153z   M80.297,350.29c0.196,0.169,0.49,0.153,0.665-0.041c0.169-0.196,0.153-0.49-0.041-0.664c-0.193-0.175-0.492-0.153-0.665,0.041  c-0.172,0.175-0.171,0.459,0.006,0.631C80.272,350.272,80.282,350.282,80.297,350.29z M122.599,364.476  c0.039,0.266,0.27,0.46,0.537,0.456c0.272-0.021,0.478-0.261,0.457-0.536c-0.021-0.273-0.261-0.478-0.537-0.456  C122.791,363.978,122.595,364.21,122.599,364.476z M121.761,352.797c0.027,0.263,0.266,0.453,0.53,0.426l0,0  c0.255,0,0.463-0.205,0.466-0.463c-0.002-0.015,0-0.027-0.002-0.041c-0.028-0.269-0.264-0.469-0.537-0.456  C121.953,352.299,121.757,352.529,121.761,352.797z M35.008,375.589c0.352,0.355,0.929,0.362,1.288,0.009  c0.009-0.006,0.015-0.016,0.022-0.022c0.35-0.349,0.35-0.921,0-1.271c-0.002-0.002-0.004-0.002-0.006-0.004  c-0.352-0.355-0.929-0.362-1.288-0.009c-0.009,0.006-0.015,0.016-0.022,0.022c-0.35,0.349-0.35,0.921,0,1.271  C35.004,375.589,35.004,375.589,35.008,375.589L35.008,375.589z M50.651,359.826c0.362,0.359,0.947,0.362,1.312,0  s0.362-0.946,0-1.31c-0.006-0.004-0.006-0.009-0.012-0.012c-0.35-0.349-0.923-0.349-1.273,0c-0.002,0.002-0.002,0.004-0.004,0.006  C50.315,358.876,50.307,359.454,50.651,359.826L50.651,359.826z M105.741,426.091c0.012,0.506,0.429,0.91,0.936,0.909  c0.49,0.015,0.898-0.367,0.917-0.854c0-0.018,0.002-0.033,0-0.049c-0.012-0.506-0.429-0.91-0.936-0.909  C106.153,425.185,105.745,425.589,105.741,426.091L105.741,426.091L105.741,426.091z M105.548,381.682  c0,0.502,0.402,0.904,0.904,0.907c0.01,0,0.021,0,0.031-0.002c0.49,0.015,0.898-0.367,0.917-0.854c0-0.018,0.002-0.033,0-0.049  c-0.021-0.509-0.43-0.919-0.944-0.942C105.95,380.761,105.546,381.177,105.548,381.682L105.548,381.682z M105.438,359.497  c0.006,0.508,0.426,0.915,0.936,0.909c0.511-0.006,0.917-0.426,0.911-0.934c0.004-0.502-0.399-0.91-0.902-0.915l0,0  c-0.509-0.009-0.93,0.395-0.941,0.904C105.437,359.474,105.438,359.486,105.438,359.497L105.438,359.497z M61.968,407.587  c0.472,0.177,0.997-0.064,1.174-0.536c0.177-0.471-0.064-0.995-0.537-1.172c-0.463-0.172-0.978,0.055-1.163,0.514  C61.265,406.867,61.499,407.398,61.968,407.587L61.968,407.587z M70.39,387.029c0.472,0.177,0.997-0.064,1.174-0.536  c0.177-0.471-0.064-0.995-0.537-1.172c-0.463-0.172-0.978,0.055-1.163,0.514C69.684,386.309,69.918,386.839,70.39,387.029  L70.39,387.029z M78.816,366.501c0.484,0.181,1.021-0.065,1.202-0.549c0.175-0.465-0.046-0.985-0.5-1.185  c-0.473-0.208-1.024,0.01-1.232,0.481c-0.208,0.472,0.01,1.022,0.482,1.23C78.785,366.491,78.8,366.497,78.816,366.501z   M146.574,407.433c0.206,0.462,0.745,0.679,1.215,0.477c0.46-0.187,0.678-0.711,0.49-1.17c-0.002-0.002-0.002-0.006-0.004-0.009  c-0.16-0.459-0.663-0.701-1.122-0.542c-0.021,0.009-0.043,0.016-0.068,0.025C146.625,406.426,146.405,406.956,146.574,407.433z   M129.391,366.474c0.177,0.453,0.686,0.679,1.138,0.502c0.012-0.004,0.027-0.01,0.039-0.018c0.472-0.177,0.706-0.705,0.53-1.176  c-0.006-0.016-0.01-0.028-0.016-0.043c-0.202-0.469-0.743-0.685-1.211-0.485c-0.469,0.202-0.686,0.744-0.485,1.209  C129.389,366.469,129.391,366.473,129.391,366.474z M42.006,398.814c0.399,0.208,0.892,0.055,1.106-0.337  c0.209-0.397,0.059-0.891-0.338-1.105c-0.399-0.214-0.892-0.059-1.106,0.337l0,0C41.46,398.107,41.611,398.598,42.006,398.814  L42.006,398.814z M51.242,381.272c0.399,0.208,0.892,0.055,1.106-0.337c0.224-0.391,0.089-0.891-0.303-1.114  s-0.892-0.089-1.116,0.303c-0.01,0.015-0.016,0.031-0.025,0.046c-0.216,0.385-0.076,0.872,0.307,1.087  C51.221,381.26,51.233,381.263,51.242,381.272L51.242,381.272z M60.112,363.267c0.046,0.199,0.181,0.368,0.371,0.459  c0.399,0.208,0.892,0.055,1.106-0.337c0.218-0.407,0.07-0.91-0.338-1.133c-0.004-0.002-0.004-0.002-0.009-0.004  c-0.241-0.128-0.531-0.129-0.776-0.003l-0.033,0.009c-0.14,0.065-0.248,0.185-0.297,0.333  C60.013,362.799,60.002,363.056,60.112,363.267L60.112,363.267z M124.807,405.899c0.154,0.434,0.617,0.673,1.061,0.545  c0.42-0.128,0.655-0.567,0.53-0.986c-0.004-0.012-0.009-0.021-0.012-0.034c-0.126-0.434-0.579-0.683-1.012-0.555  c-0.006,0.002-0.009,0.004-0.016,0.006C124.935,405.017,124.692,405.465,124.807,405.899z M113.035,368.044  c0.126,0.434,0.579,0.683,1.013,0.56c0.006-0.002,0.01-0.004,0.016-0.006c0.412-0.109,0.655-0.535,0.543-0.946  c-0.006-0.025-0.015-0.052-0.025-0.074c-0.126-0.434-0.579-0.683-1.013-0.56c-0.006,0.002-0.01,0.004-0.016,0.006  C113.139,367.174,112.91,367.622,113.035,368.044L113.035,368.044z M107.142,349.154c0.15,0.432,0.62,0.662,1.052,0.512  c0.42-0.144,0.651-0.594,0.521-1.02c-0.147-0.422-0.593-0.664-1.028-0.554C107.253,348.247,107.014,348.711,107.142,349.154  L107.142,349.154z M81.68,400.054c-0.027,0.45,0.31,0.841,0.761,0.878c0.447,0.041,0.843-0.284,0.883-0.728  c0.033-0.45-0.288-0.854-0.736-0.916C82.131,399.255,81.723,399.593,81.68,400.054z M83.51,380.31  c-0.055,0.429,0.249,0.827,0.68,0.879c0.015,0.002,0.033,0.002,0.047,0.006c0.447,0.041,0.843-0.284,0.883-0.728  c0.033-0.45-0.288-0.854-0.736-0.916C83.937,379.521,83.547,379.861,83.51,380.31z M85.309,360.572  c-0.039,0.447,0.292,0.836,0.737,0.876c0.441,0.037,0.832-0.282,0.877-0.722c0.046-0.444-0.274-0.845-0.723-0.892  c-0.448-0.047-0.846,0.273-0.893,0.72C85.309,360.56,85.309,360.564,85.309,360.572z M141.902,363.481  c0.292,0.347,0.812,0.401,1.169,0.117c0.344-0.303,0.379-0.827,0.074-1.172c-0.291-0.327-0.782-0.376-1.129-0.113  c-0.352,0.272-0.42,0.779-0.15,1.13C141.883,363.457,141.893,363.472,141.902,363.481z M86.777,363.178  c0.027,0.263,0.266,0.453,0.53,0.426c0.264-0.027,0.453-0.266,0.426-0.529c-0.027-0.263-0.266-0.453-0.53-0.426l0,0  C86.94,362.676,86.75,362.914,86.777,363.178L86.777,363.178L86.777,363.178z M85.484,351.561c0.046,0.267,0.292,0.448,0.562,0.417  c0.264-0.027,0.453-0.266,0.426-0.529l0,0c-0.016-0.253-0.237-0.444-0.492-0.428c-0.015,0.002-0.022,0.002-0.037,0.004  c-0.27,0.018-0.473,0.253-0.46,0.523C85.484,351.552,85.482,351.557,85.484,351.561z M63.385,355.204  c0.255,0.055,0.511-0.086,0.601-0.328c0.08-0.247-0.058-0.514-0.307-0.594c-0.009-0.004-0.016-0.004-0.027-0.009  c-0.241-0.082-0.504,0.046-0.589,0.285c-0.004,0.016-0.01,0.028-0.012,0.043C62.984,354.862,63.13,355.131,63.385,355.204  L63.385,355.204z M107.692,350.447c0.126,0.235,0.414,0.321,0.647,0.196s0.322-0.413,0.196-0.648  c-0.101-0.226-0.367-0.327-0.591-0.226c-0.018,0.006-0.039,0.018-0.055,0.031c-0.23,0.117-0.322,0.403-0.203,0.633  C107.686,350.438,107.689,350.44,107.692,350.447L107.692,350.447z M32.158,361.925c0.255,0.14,0.579,0.046,0.718-0.209  c0.002-0.004,0.006-0.009,0.01-0.015c0.15-0.26,0.064-0.586-0.191-0.738c-0.012-0.006-0.027-0.015-0.039-0.021  c-0.255-0.14-0.579-0.046-0.718,0.209c-0.002,0.004-0.006,0.009-0.01,0.015C31.787,361.442,31.891,361.775,32.158,361.925  L32.158,361.925z M87.873,367.312c0.065,0.276,0.346,0.442,0.62,0.376c0.021-0.004,0.041-0.012,0.062-0.021  c0.286-0.091,0.447-0.395,0.359-0.68c-0.101-0.284-0.395-0.45-0.692-0.389C87.928,366.694,87.772,367.013,87.873,367.312  C87.871,367.307,87.871,367.307,87.873,367.312L87.873,367.312z M84.005,354.536c0.099,0.294,0.416,0.453,0.712,0.349l0.002-0.002  c0.286-0.091,0.447-0.395,0.359-0.68c-0.101-0.284-0.395-0.45-0.692-0.389C84.094,353.921,83.929,354.231,84.005,354.536  L84.005,354.536z M60.112,363.267c0.068,0.041,0.142,0.07,0.221,0.086c0.297,0.034,0.564-0.183,0.598-0.478  c0-0.006,0.002-0.01,0.004-0.018c0.025-0.294-0.177-0.555-0.466-0.604l-0.033,0.009c-0.297-0.034-0.564,0.183-0.598,0.478  c0,0.006-0.002,0.015-0.004,0.018C59.806,362.97,59.919,363.173,60.112,363.267L60.112,363.267z M109.075,348.907  c0.191,0.235,0.537,0.269,0.773,0.079c0.004-0.006,0.012-0.009,0.012-0.012c0.229-0.189,0.261-0.526,0.071-0.754  c-0.169-0.236-0.494-0.294-0.736-0.128c-0.012,0.009-0.018,0.015-0.031,0.021C108.928,348.306,108.884,348.658,109.075,348.907  L109.075,348.907z M43.176,419.83c-0.021,0.523,0.368,0.971,0.893,1.02c0.521,0.043,0.978-0.339,1.025-0.857  c0.027-0.524-0.368-0.977-0.893-1.02C43.681,418.927,43.221,419.309,43.176,419.83L43.176,419.83z M45.047,397.015  c-0.046,0.52,0.34,0.977,0.859,1.023c0.519,0.047,0.978-0.34,1.025-0.857c0.046-0.52-0.34-0.977-0.859-1.023  C45.556,396.114,45.098,396.497,45.047,397.015L45.047,397.015z M46.89,374.209c-0.027,0.524,0.368,0.977,0.892,1.02  c0.521,0.025,0.962-0.376,0.988-0.892c0.027-0.517-0.377-0.961-0.893-0.986C47.371,373.32,46.932,373.703,46.89,374.209z   M120.417,373.547c0.344,0.389,0.93,0.442,1.337,0.116c0.402-0.337,0.453-0.934,0.116-1.335c-0.338-0.401-0.935-0.453-1.337-0.116  l0,0C120.136,372.552,120.085,373.145,120.417,373.547L120.417,373.547z M105.581,356.109c0.341,0.392,0.933,0.447,1.337,0.116  c0.395-0.355,0.442-0.955,0.107-1.367c-0.359-0.391-0.963-0.416-1.353-0.061C105.299,355.14,105.257,355.716,105.581,356.109z   M80.223,382.998c0.165,0.503,0.705,0.777,1.206,0.616c0,0,0,0,0.002-0.002c0.485-0.159,0.749-0.683,0.589-1.166l0,0  c-0.148-0.497-0.674-0.777-1.172-0.629c-0.5,0.148-0.779,0.673-0.63,1.17C80.219,382.99,80.22,382.996,80.223,382.998  L80.223,382.998z M73.2,361.225c0.147,0.491,0.665,0.772,1.157,0.627c0.006-0.002,0.012-0.004,0.018-0.006  c0.506-0.148,0.801-0.677,0.653-1.186c-0.148-0.506-0.678-0.799-1.188-0.652c-0.506,0.148-0.801,0.677-0.653,1.186  C73.193,361.207,73.196,361.218,73.2,361.225z M67.856,391.203c0.148,0.506,0.678,0.798,1.184,0.652  c0.488-0.148,0.779-0.656,0.662-1.151c-0.156-0.506-0.675-0.804-1.19-0.685C68.01,390.179,67.722,390.697,67.856,391.203  L67.856,391.203z M61.768,369.229c0.148,0.506,0.678,0.797,1.184,0.652c0.5-0.135,0.797-0.652,0.662-1.151  c-0.136-0.499-0.653-0.796-1.153-0.661l0,0C61.959,368.21,61.652,368.721,61.768,369.229L61.768,369.229z M28.42,381.407  c-0.055,0.512,0.31,0.971,0.819,1.032c0.002-0.002,0.004,0.002,0.006,0c0.519,0.073,0.994-0.285,1.071-0.799  c0.055-0.523-0.315-0.993-0.837-1.065C28.965,380.527,28.497,380.893,28.42,381.407L28.42,381.407z M31.238,358.76  c-0.074,0.514,0.288,0.989,0.803,1.063c0.515,0.074,0.991-0.288,1.065-0.802c0-0.006,0.002-0.015,0.002-0.025  c0.049-0.518-0.317-0.989-0.837-1.065c-0.513-0.059-0.972,0.31-1.034,0.818C31.24,358.757,31.24,358.757,31.238,358.76  L31.238,358.76z M110.234,382.19c0.334,0.405,0.933,0.472,1.344,0.148c0.404-0.321,0.476-0.907,0.154-1.31  c-0.297-0.413-0.874-0.508-1.285-0.212c-0.012,0.009-0.022,0.015-0.033,0.027c-0.423,0.31-0.513,0.903-0.197,1.324  C110.22,382.174,110.227,382.182,110.234,382.19z M96.19,364.21c0.334,0.405,0.933,0.472,1.344,0.148  c0.404-0.321,0.476-0.907,0.154-1.31c-0.297-0.413-0.874-0.508-1.285-0.212c-0.012,0.009-0.022,0.015-0.033,0.027  c-0.423,0.31-0.511,0.907-0.197,1.324C96.178,364.192,96.184,364.201,96.19,364.21z M71.491,373.89  c0.185,0.347,0.616,0.481,0.966,0.296c0.34-0.181,0.473-0.594,0.307-0.94c-0.16-0.34-0.567-0.487-0.908-0.331  c-0.021,0.01-0.046,0.022-0.064,0.034C71.457,373.132,71.322,373.549,71.491,373.89z M63.56,358.662  c0.185,0.352,0.623,0.481,0.972,0.296c0.347-0.185,0.482-0.622,0.297-0.971c-0.177-0.347-0.604-0.485-0.95-0.309  c-0.009,0.004-0.015,0.009-0.022,0.012C63.511,357.883,63.382,358.313,63.56,358.662L63.56,358.662z M34.956,374.894  c0.041,0.386,0.389,0.673,0.776,0.637c0.383-0.058,0.659-0.391,0.638-0.775c-0.035-0.389-0.379-0.677-0.77-0.64  c-0.002,0.002-0.002,0.002-0.006,0c-0.377,0.025-0.668,0.347-0.644,0.723C34.953,374.861,34.955,374.878,34.956,374.894z   M33.446,357.749c0.043,0.395,0.387,0.686,0.785,0.67c0.389-0.034,0.678-0.379,0.641-0.769c-0.002-0.002-0.002-0.002,0-0.006  c-0.021-0.379-0.341-0.668-0.721-0.647c-0.01,0-0.016,0.002-0.027,0.004c-0.393,0.018-0.696,0.348-0.68,0.74  C33.446,357.741,33.446,357.746,33.446,357.749L33.446,357.749z"/>
<g>
	<ellipse fill="#FFD54F" cx="177.793" cy="66.817" rx="66.927" ry="66.817"/>
	<rect x="147.371" y="36.445" fill="#FFB300" width="60.842" height="60.742"/>
</g>
<linearGradient id="SVGID_3_-i1" gradientUnits="userSpaceOnUse" x1="2001.7579" y1="-2382.7314" x2="2786.7791" y2="-2583.4028" gradientTransform="matrix(0.1778 0 0 -0.1778 -157.0402 -56.9793)">
	<stop offset="0" style="stop-color:#428DFC"/>
	<stop offset="1" style="stop-color:#89B3F4"/>
</linearGradient>
<path fill="url(#SVGID_3_-i1)" d="M176.775,397.406c-1.487-1.63-2.895-3.571-2.892-5.775c0.004-2.239,1.524-4.26,3.413-5.466  s4.119-1.748,6.303-2.256c12.412-2.881,24.994-5.327,37.731-5.699c10.463-0.304,10.636-2.851,21.105-2.924  c10.468-0.07,24.234-3.88,33.533-8.68c11.898-6.143,28.644-11.719,41.948-13.289c-3.324,13.598-8.05,27.721-18.703,36.821  c-4.58,3.913-10.017,6.669-15.393,9.388c-7.745,3.914-15.556,7.856-23.932,10.142c-7.856,2.144-16.04,2.784-24.172,3.236  c-10.501,0.582-21.124,0.86-31.441-1.172C193.954,409.7,183.855,405.169,176.775,397.406z"/>
<linearGradient id="SVGID_4_-i1" gradientUnits="userSpaceOnUse" x1="1644.2631" y1="-1663.563" x2="2595.7463" y2="-1663.563" gradientTransform="matrix(0.1778 0 0 -0.1778 -157.0402 -56.9793)">
	<stop offset="0" style="stop-color:#FFBEB6"/>
	<stop offset="1" style="stop-color:#F2A19C"/>
</linearGradient>
<path fill="url(#SVGID_4_-i1)" d="M173.717,126.953c8.843-22.415,20.142-57.015,5.987-59.6c-12.87-2.352-18.003,18.133-22.626,30.354  c-4.623,12.22-8.217,24.924-13.59,36.836c-3.143,6.966-7.305,13.727-8.054,21.333c-0.599,6.096,1.067,12.163,2.708,18.066  c21.497,77.327,41.467,156.257,40.286,236.498c29.134-1.185,96.921-5.607,126.055-6.791  c-8.552-13.421-96.726-135.573-107.824-168.223c-5.788-17.031-11.585-34.089-15.817-51.571c-1.708-7.052-3.168-14.337-2.162-21.523  c2.131-15.259,30.23-27.846,23.353-30.234C193.721,129.205,171.659,143.4,173.717,126.953z"/>
<linearGradient id="SVGID_5_-i1" gradientUnits="userSpaceOnUse" x1="1857.6792" y1="-2492.0566" x2="2671.9438" y2="-2492.0566" gradientTransform="matrix(0.1778 0 0 -0.1778 -157.0402 -56.9793)">
	<stop offset="0" style="stop-color:#428DFC"/>
	<stop offset="1" style="stop-color:#1D72D8"/>
</linearGradient>
<path fill="url(#SVGID_5_-i1)" d="M318.031,353.882c-2.03,17.766-4.002,38.236-5.399,56.06c-44.215,9.22-88.906,10.689-133.735,5.163  c-1.616-0.199-4.267-2.806-5.037-4.24c-0.408-0.759-0.614-3.582-0.605-4.443c0.073-6.501,0.347-11.084,0.42-17.582  c41.221,10.113,57.846,10.019,98.295-2.832c10.342-3.285,29.267-13.96,33.61-17.13C311.691,364.421,316.393,359.259,318.031,353.882  z"/>

</g>
</g>

<!-- ITEM 2 -->
<g transform="translate(324.0 220.0) scale(2.286363636363636 2.2857142857142856) rotate(329.22246961446547 110.00000000000001 175.0)">
<g transform="translate(-0.0 -0.0)">

<linearGradient id="SVGID_1_-i2" gradientUnits="userSpaceOnUse" x1="-472.5338" y1="772.5233" x2="-349.6127" y2="772.5233" gradientTransform="matrix(0.8612 0.5083 0.5083 -0.8612 102.0323 1003.1466)">
	<stop offset="0" style="stop-color:#92C4FE"/>
	<stop offset="1" style="stop-color:#5BABF2"/>
</linearGradient>
<path fill="url(#SVGID_1_-i2)" d="M95.307,205.795c14.729,8.693,25.193,21.497,30.353,35.318c20.508-13.6,41.559-36.241,58.482-64.914  c34.505-58.466,9.547-137.102,9.547-137.102s-80.903,16.157-115.408,74.624c-16.923,28.674-26.569,58.045-28.563,82.573  C64.311,194.13,80.578,197.102,95.307,205.795z"/>
<path fill="#EFEFEF" d="M159.06,129.144c3.903,2.303,7.07,5.374,9.427,8.907c0.907-10.802-4.274-21.683-14.235-27.562  c-13.863-8.181-31.733-3.576-39.916,10.287c-5.879,9.961-5.155,21.99,0.86,31.009c0.356-4.232,1.645-8.451,3.948-12.354  C127.326,125.568,145.198,120.963,159.06,129.144z"/>
<path fill="#FFFFFF" d="M164.539,150.405c2.303-3.903,3.593-8.122,3.948-12.354c-2.356-3.533-5.525-6.604-9.427-8.907  c-13.863-8.181-31.735-3.576-39.916,10.287c-2.303,3.903-3.593,8.122-3.948,12.354c2.356,3.533,5.525,6.604,9.427,8.907  C138.487,168.874,156.358,164.268,164.539,150.405z"/>
<path fill="#FF4945" d="M170.241,177.313l-48.468,59.685l19.214,42.241C167.273,241.909,176.212,208.098,170.241,177.313z"/>
<path fill="#FF4945" d="M86.869,128.108l-28.824,71.278l-46.267,3.596C31.754,161.929,57.034,137.76,86.869,128.108z"/>
<g>
	<path fill="#FF4945" d="M190.566,46.754c-0.269,0-0.54-0.069-0.788-0.215c-0.737-0.435-0.982-1.386-0.547-2.123l25.765-43.654   c0.437-0.737,1.39-0.981,2.124-0.548c0.737,0.435,0.982,1.386,0.547,2.123l-25.765,43.654   C191.611,46.482,191.095,46.754,190.566,46.754z"/>
</g>
<g>
	<path fill="#5BABF2" d="M81.623,328.212c-0.048,0-0.097-0.007-0.146-0.022c-0.274-0.081-0.431-0.367-0.349-0.641   c6.579-22.379,11.33-43.057,15.404-67.046c0.048-0.28,0.314-0.469,0.596-0.423c0.281,0.049,0.471,0.315,0.424,0.596   c-4.081,24.031-8.841,44.745-15.432,67.163C82.053,328.065,81.848,328.212,81.623,328.212z"/>
</g>
<g>
	<path fill="#5BABF2" d="M0.517,280.344c-0.131,0-0.263-0.05-0.364-0.15c-0.203-0.201-0.205-0.528-0.004-0.731   c16.444-16.608,32.278-30.787,51.34-45.97c0.223-0.181,0.549-0.142,0.727,0.082c0.178,0.223,0.141,0.548-0.083,0.726   c-19.028,15.159-34.834,29.312-51.249,45.89C0.783,280.292,0.65,280.344,0.517,280.344z"/>
</g>
<rect x="71.04" y="336.231" transform="matrix(-0.3479 -0.9375 0.9375 -0.3479 -216.9981 533.5798)" fill="#FF4945" width="12.05" height="12.05"/>
<rect x="4.291" y="329.717" transform="matrix(0.7429 -0.6694 0.6694 0.7429 -222.0938 93.2242)" fill="#1B236D" width="12.05" height="12.05"/>
<rect x="9.453" y="247.158" transform="matrix(-0.3479 -0.9375 0.9375 -0.3479 -217.2908 351.3933)" fill="#5BABF2" width="8.212" height="8.212"/>
<g>
	<path fill="#5BABF2" d="M20.482,323.681c-0.089,0-0.18-0.023-0.261-0.071c-0.246-0.146-0.328-0.462-0.183-0.708l36.748-62.267   c0.146-0.246,0.463-0.326,0.708-0.183c0.246,0.146,0.328,0.462,0.183,0.708l-36.748,62.267   C20.83,323.59,20.657,323.681,20.482,323.681z"/>
</g>
<g>
	<path fill="#5BABF2" d="M61.01,311.706c-0.061,0-0.122-0.01-0.181-0.033c-0.268-0.1-0.403-0.398-0.303-0.666l6.347-16.94   c0.1-0.267,0.399-0.405,0.666-0.302c0.268,0.1,0.403,0.398,0.303,0.666l-6.347,16.94C61.416,311.577,61.219,311.706,61.01,311.706z   "/>
</g>
<g>
	<path fill="#FF4945" d="M139.41,169.91c-6.107,0-12.128-1.648-17.413-4.768c-7.894-4.659-13.501-12.113-15.788-20.989   c-2.287-8.875-0.982-18.111,3.677-26.005c6.144-10.411,17.479-16.879,29.58-16.879c6.107,0,12.128,1.648,17.413,4.767   c16.296,9.617,21.728,30.698,12.112,46.993C162.845,163.443,151.511,169.91,139.41,169.91z M139.466,111.607   c-8.462,0-16.385,4.52-20.679,11.796c-3.255,5.516-4.167,11.97-2.569,18.173c1.599,6.202,5.517,11.411,11.033,14.667   c3.695,2.181,7.9,3.333,12.161,3.333c8.462,0,16.386-4.521,20.68-11.797c6.72-11.387,2.923-26.118-8.464-32.838   C147.931,112.759,143.726,111.607,139.466,111.607z"/>
</g>
<path fill="#5BABF2" d="M133.794,76.781c29.573,17.454,51.031,42.866,62.541,70.729c15.081-52.561-2.645-108.413-2.645-108.413  s-37.718,7.538-72.63,30.928C125.354,72.061,129.605,74.31,133.794,76.781z"/>
<linearGradient id="SVGID_2_-i2" gradientUnits="userSpaceOnUse" x1="-452.5461" y1="853.5646" x2="-369.6049" y2="853.5646" gradientTransform="matrix(0.8612 0.5083 0.5083 -0.8612 102.0323 1003.1466)">
	<stop offset="0" style="stop-color:#FF4945"/>
	<stop offset="1" style="stop-color:#F92424"/>
</linearGradient>
<path fill="url(#SVGID_2_-i2)" d="M204.07,103.103c0.888-36.806-8.663-66.916-8.663-66.916s-30.975,6.192-62.767,24.759L204.07,103.103  z"/>

</g>
</g>

<!-- ITEM 3 -->
<g transform="translate(521.0 824.0) scale(-0.6566666666666666 0.6561264822134387) rotate(-253.37800577553728 150.0 126.5)">
<g transform="translate(-0.0 -0.0)">

<polygon fill="#A1C3FC" points="15.652,104.241 0,97.009 7.225,81.34 22.877,88.573 "/>
<polygon fill="#E94A47" points="134.833,123.971 92.215,104.277 111.888,61.615 154.507,81.309 "/>
<polygon fill="#1D72D8" points="280.334,62.356 237.716,42.663 257.389,0 300.008,19.694 "/>
<g>
	<path fill="#23286B" d="M208.486,81.834c-0.612,0-1.216-0.306-1.574-0.863c-27.21-42.667-84.119-63.428-132.379-48.307   c-0.989,0.31-2.03-0.239-2.336-1.225c-0.31-0.986,0.239-2.032,1.224-2.338c49.809-15.615,108.553,5.823,136.644,49.86   c0.552,0.87,0.298,2.024-0.567,2.577C209.18,81.74,208.833,81.834,208.486,81.834z"/>
</g>
<g>
	<path fill="#23286B" d="M12.464,253c-0.041,0-0.078,0-0.119-0.004c-1.026-0.067-1.81-0.952-1.742-1.979   c2.38-37.532,36.079-71.025,73.586-73.139c1.048-0.138,1.91,0.732,1.966,1.759c0.06,1.027-0.728,1.912-1.757,1.968   c-35.717,2.017-67.807,33.909-70.075,69.644C14.259,252.242,13.438,253,12.464,253z"/>
</g>

</g>
</g>

<!-- ITEM 4 -->
<g transform="translate(603.0 809.0) scale(0.7066666666666667 0.7066666666666667) rotate(102.87173413702254 150.0 150.0)">
<g transform="translate(-0.0 -0.0)">

<circle style="fill:#D9E021;" cx="192.103" cy="276.35" r="17.156"/>
<rect x="2.217" y="35.642" transform="matrix(-0.2968 0.9549 -0.9549 -0.2968 56.7448 47.1144)" style="fill:#A1C3FC;" width="17.616" height="17.616"/>
<rect x="100.47" y="63.366" transform="matrix(-0.2968 0.9549 -0.9549 -0.2968 244.8036 -5.5692)" style="fill:#E94A47;" width="47.965" height="47.965"/>
<rect x="32.781" y="237.765" transform="matrix(-0.2968 0.9549 -0.9549 -0.2968 323.5641 285.2325)" style="fill:#1D72D8;" width="47.965" height="47.965"/>
<g>
	<path style="fill:#23286B;" d="M68.404,147.546c-0.721,0-1.407-0.408-1.731-1.106C44.218,98.065,58.068,35.695,98.883,1.364   c0.804-0.679,2.005-0.572,2.688,0.233c0.679,0.804,0.572,2.009-0.233,2.688C61.797,37.544,48.381,97.97,70.135,144.839   c0.442,0.953,0.027,2.089-0.926,2.531C68.945,147.488,68.671,147.546,68.404,147.546z"/>
</g>
<g>
	<path style="fill:#23286B;" d="M194.749,217.594c-0.499,0-0.999-0.194-1.372-0.583c-0.728-0.755-0.709-1.963,0.053-2.695   c27.628-26.637,76.114-28.669,105.865-4.415c0.82,0.667,0.942,1.864,0.274,2.68c-0.667,0.823-1.868,0.934-2.68,0.274   c-28.341-23.091-74.505-21.162-100.814,4.209C195.702,217.415,195.226,217.594,194.749,217.594z"/>
</g>

</g>
</g>

<!-- ITEM 5 -->
<g transform="translate(496.0 976.0) scale(0.25 0.25) rotate(0.0 50.0 50.0)">
<g transform="translate(-0.0 -0.0)">

<circle fill="#A1C3FC" cx="50" cy="50" r="50"/>

</g>
</g>

<!-- ITEM 6 -->
<g transform="translate(295.0 940.0) scale(0.13059275116950472 0.12867587924687846) rotate(346.67040473359526 107.2035 108.8005)">
<g transform="translate(1630.003 -447.024)">

<polygon fill="#D9E021" points="-1415.596,530.566 -1506.08,664.625 -1630.003,581.083 -1539.519,447.024 "/>

</g>
</g>

<!-- ITEM 7 -->
<g transform="translate(759.0 990.0) scale(3.652004544716767 3.652004544716767) rotate(0.0 6.161 6.161)">
<g transform="translate(1373.77 -605.694)">

<circle fill="#D9E021" cx="-1367.609" cy="611.855" r="6.161"/>

</g>
</g>

<!-- ITEM 8 -->
<g transform="translate(872.0 941.0) scale(0.24249549913656904 0.242543621102765) rotate(0.0 68.0425 68.029)">
<g transform="translate(1935.913 -257.638)">

<polygon fill="#A1C3FC" points="-1867.871,393.696 -1935.913,325.667 -1867.871,257.638 -1799.828,325.667 "/>

</g>
</g>

              </svg>