<?xml version="1.0" encoding="UTF-8"?><svg version="1.1" xmlns="http://www.w3.org/2000/svg" xmlns:xlink="http://www.w3.org/1999/xlink" viewBox="0 0 1600 1200" width="1600" height="1200" x="0px" y="0px">
              
              <!-- ITEM 0 -->
<g transform="translate(139.0 169.0) scale(1.66125 1.6616666666666666) rotate(0.0 400.0 300.0)">
<g transform="translate(-0.0 -0.0)">

<path style="fill:#E6E6E6;" d="M672.876,476.948l12.227-3.821c0.983-0.655,2.074-1.092,3.057-1.965l-18.996,6.114  C670.474,477.166,671.675,477.166,672.876,476.948z M664.251,476.948l27.62-8.952c0.546-0.437,0.873-0.983,1.419-1.419  l-30.895,9.825C663.05,476.729,663.705,476.838,664.251,476.948z M659.448,475.747l36.135-11.572  c0.437-0.327,0.546-0.764,0.983-1.201l-38.101,12.118C658.793,475.528,659.12,475.528,659.448,475.747z M656.609,473.891  l41.485-13.319c0.218-0.327,0.437-0.764,0.655-1.092l-42.795,13.756C656.063,473.563,656.391,473.782,656.609,473.891z   M654.535,471.816l45.197-14.411c0.218-0.328,0.218-0.655,0.437-1.092l-46.179,14.847  C654.317,471.38,654.426,471.707,654.535,471.816z M653.225,469.633l48.035-15.284c0-0.327,0.218-0.655,0.218-1.092l-48.69,15.611  C652.898,469.087,653.007,469.415,653.225,469.633z M652.024,467.231l49.891-16.048c0-0.328,0.109-0.655,0.218-1.092l-50.437,16.048  C651.806,466.685,651.915,466.904,652.024,467.231z M651.151,464.83l51.419-16.485c0-0.327,0.109-0.655,0.109-0.983l-51.856,16.703  C650.932,464.175,651.042,464.502,651.151,464.83z M650.714,461.882c0.109,0.109-0.109,0.218,0,0.327l52.293-16.703  c0-0.327,0.109-0.655,0.109-0.983l-52.075,16.594C650.932,461.336,650.823,461.554,650.714,461.882z M653.443,458.17  c-0.109,0.109-0.218,0.328-0.437,0.328l50.109-16.048c0-0.328-0.109-0.546,0-0.873l-48.799,15.721  C653.88,457.624,653.662,457.952,653.443,458.17z M655.845,455.004l46.834-14.956c0-0.328-0.109-0.546-0.218-0.873l-46.179,14.847  C656.282,454.349,656.063,454.568,655.845,455.004z M657.374,451.729l45.088-14.411c-0.109-0.327-0.109-0.546-0.218-0.873  l-44.433,14.301C657.483,451.183,657.483,451.511,657.374,451.729z M658.138,448.781l43.668-13.865  c-0.109-0.328-0.218-0.437-0.218-0.873l-43.122,13.865C658.247,448.236,658.138,448.454,658.138,448.781z M658.356,445.943  l42.467-13.537c-0.109-0.327-0.218-0.437-0.327-0.764l-42.249,13.428C658.356,445.397,658.356,445.725,658.356,445.943z   M658.138,443.214l41.267-13.21c-0.109-0.327-0.218-0.437-0.328-0.764l-41.048,13.1  C658.138,442.668,658.138,443.105,658.138,443.214z M657.592,440.703l40.284-12.991c-0.109-0.327-0.437-0.546-0.546-0.655  l-40.175,12.882C657.374,440.266,657.483,440.484,657.592,440.703z M695.365,424.982l-39.192,12.445  c0.109,0.327,0.218,0.437,0.328,0.764l39.52-12.664C696.02,425.419,695.693,425.201,695.365,424.982z M693.072,423.017  l-38.21,12.227c0.109,0.328,0.437,0.546,0.546,0.655l38.537-12.336C693.618,423.563,693.291,423.236,693.072,423.017z   M690.016,421.27l-36.463,11.572c0.109,0.328,0.218,0.437,0.328,0.764l37.227-12.009C690.671,421.598,690.452,421.38,690.016,421.27  z M686.195,419.851c-0.109,0.109-0.218-0.109-0.327,0l-32.205,10.262c-0.109,0.218-0.109,0.655-0.109,0.983l34.061-10.917  C687.068,420.179,686.631,419.96,686.195,419.851z M678.007,419.524l-20.852,6.659c-0.655,0.546-1.419,0.983-2.074,1.528  l26.419-8.406C680.409,419.415,679.099,419.415,678.007,419.524z"/>
<g>
	
		<linearGradient id="SVGID_1_-i0" gradientUnits="userSpaceOnUse" x1="5958.4717" y1="-2529.595" x2="7354.1338" y2="-2529.595" gradientTransform="matrix(0.1 0 0 -0.1 0 18)">
		<stop offset="0" style="stop-color:#B9D3FD"/>
		<stop offset="1" style="stop-color:#89B3F4"/>
	</linearGradient>
	<path style="fill:url(#SVGID_1_-i0);" d="M734.666,291.794c1.528,4.585-0.218,9.498-2.511,13.756   c-6.223,11.681-16.266,21.288-28.275,26.856c-6.659,3.166-13.865,5.022-20.742,7.86c-19.978,8.297-36.245,24.891-43.996,45.088   c2.293-13.974-5.022-27.839-13.974-38.865c-8.843-11.026-19.542-20.961-25.873-33.625c-5.459-10.917-5.568-27.074,5.459-32.315   c8.079-3.821,18.232,0.437,26.529-3.057c2.948-1.31,5.568-3.93,5.458-7.096c-0.437-8.079-16.376-7.533-16.812-15.611   c-0.437-9.28,24.018-6.55,20.852-15.393c-1.31-3.712-6.55-4.804-8.297-8.297c-1.856-3.493-1.747-8.406,1.419-10.917   c4.039-3.275,10.153-0.655,15.284-1.856c5.786-1.31,9.498-7.205,10.699-13.1c1.201-5.895,0.546-11.9,1.419-17.795   c2.074-14.52,13.974-27.074,28.275-30.131c14.301-3.057,30.24,3.712,37.991,16.157c3.166,5.131,4.913,12.009,1.528,16.921   c-2.948,4.148-9.279,6.878-8.734,11.9c0.655,6.878,13.428,7.533,13.646,14.411c0.218,8.079-16.376,8.079-15.939,16.157   c0.218,3.603,4.039,5.677,6.332,8.515c4.367,5.24,2.62,14.301-3.384,17.576c-2.402,1.31-5.24,1.856-7.096,3.712   c-4.804,4.694-0.109,12.991,5.568,16.485C725.169,282.624,732.592,285.353,734.666,291.794z"/>
	
		<linearGradient id="SVGID_2_-i0" gradientUnits="userSpaceOnUse" x1="6414.0796" y1="-2855.1492" x2="7869.9307" y2="-2855.1492" gradientTransform="matrix(0.1 0 0 -0.1 0 18)">
		<stop offset="0" style="stop-color:#DEEAFE"/>
		<stop offset="1" style="stop-color:#E9F1FE"/>
	</linearGradient>
	<path style="fill:url(#SVGID_2_-i0);" d="M692.745,292.34c3.384-1.856,6.987-3.603,9.716-6.441c5.568-6.114,5.24-15.284,5.677-23.581   c0.437-8.297,3.384-18.013,11.354-20.197c6.659-1.856,15.066,2.183,19.978-2.62c1.856-1.747,2.62-4.367,3.93-6.55   c5.677-9.498,20.633-8.734,28.93-1.419c8.188,7.314,11.354,18.668,14.083,29.367c0.983,3.93,1.092,9.389-2.729,10.48   c-3.712,0.983-7.424-3.603-10.917-2.183c-2.838,1.092-3.057,5.131-1.965,8.079c0.983,2.838,2.729,5.786,2.074,8.843   c-1.31,5.677-9.279,6.004-14.956,4.476c-5.677-1.528-12.991-3.057-16.266,1.856c3.603,11.463,6.659,25.437-1.419,34.498   c-9.279,10.371-26.419,9.28-40.284,10.59c-25.764,2.402-43.996,22.052-58.516,43.559   C640.561,345.069,661.195,309.48,692.745,292.34z"/>
</g>
<g>
	<path style="fill:#FFFFFF;" d="M660.43,364.72c-0.109,0-0.109,0-0.218,0c-0.328-0.109-0.437-0.437-0.328-0.655   c13.101-40.066,33.952-67.904,72.053-95.961c7.096-5.24,28.494-14.083,37.773-14.847c0.218,0,0.546,0.218,0.546,0.546   s-0.218,0.546-0.546,0.546c-8.843,0.764-30.349,9.607-37.118,14.629c-37.991,27.948-58.734,55.568-71.725,95.415   C660.867,364.502,660.649,364.72,660.43,364.72z"/>
</g>
<path style="fill:#FFFFFF;" d="M680.627,247.252l-4.367-12.009c-1.528-0.109-3.166,0.109-4.694,0.655l4.694,12.882  c0.218,0.764-0.109,1.528-0.873,1.747c-0.764,0.218-1.528-0.109-1.747-0.873l-4.694-12.664c-1.419,0.873-2.62,2.074-3.603,3.384  l3.93,10.699c0.218,0.764-0.109,1.528-0.873,1.747c-0.764,0.218-1.528-0.109-1.747-0.873l-3.057-8.406  c-1.747,4.367-1.856,9.935,0.109,15.393c0,0.109,0.109,0.218,0.109,0.328c-0.983,0.546-2.074,1.201-2.948,1.965  c-2.729,1.965-6.223,5.349-7.424,10.153l1.31,0.328c1.092-4.367,4.367-7.533,6.878-9.28c0.873-0.655,1.747-1.201,2.729-1.747  c2.074,4.585,5.458,8.297,9.17,10.262l-2.948-7.969c-0.218-0.764,0.109-1.528,0.873-1.747s1.528,0.109,1.747,0.873l3.821,10.262  c1.638,0.437,3.275,0.546,4.913,0.218l-4.367-12.009c-0.218-0.764,0.109-1.528,0.873-1.747c0.764-0.218,1.528,0.109,1.747,0.873  l4.476,12.118c1.419-0.655,2.729-1.638,3.821-2.729l-4.039-10.917c-0.218-0.764,0.109-1.528,0.873-1.747  c0.764-0.218,1.528,0.109,1.747,0.873l3.493,9.389c1.092-1.638,2.074-3.384,2.948-5.24l-2.183-5.895  c-0.218-0.764,0.109-1.528,0.873-1.747c0.764-0.218,1.528,0.109,1.747,0.873l1.201,3.166c2.183-5.24,3.603-10.371,5.459-12.009  c-3.057-0.655-7.314-3.493-12.009-6.114l1.528,4.039c0.218,0.764-0.109,1.528-0.873,1.747c-0.764,0.218-1.528-0.109-1.747-0.873  l-2.511-6.878c-1.856-0.873-3.712-1.528-5.568-1.965l3.821,10.59c0.218,0.764-0.109,1.528-0.873,1.747  C681.719,248.344,680.954,248.016,680.627,247.252z"/>
<rect x="342.853" y="380.986" style="fill:#D6D7D8;" width="121.835" height="135.481"/>
<rect x="267.415" y="512.101" style="fill:#428DFC;" width="272.709" height="10.48"/>
<linearGradient id="SVGID_3_-i0" gradientUnits="userSpaceOnUse" x1="1361.9219" y1="-2771.7815" x2="6713.4741" y2="-2771.7815" gradientTransform="matrix(0.1 0 0 -0.1 0 18)">
	<stop offset="0" style="stop-color:#EEEEEE"/>
	<stop offset="1" style="stop-color:#D6D7D8"/>
</linearGradient>
<rect x="136.192" y="121.924" style="fill:url(#SVGID_3_-i0);" width="535.155" height="346.508"/>
<rect x="145.581" y="130.549" style="fill:#FFFFFF;" width="516.378" height="285.372"/>
<g>
	
		<rect x="379.613" y="437.736" transform="matrix(-0.7071 -0.7071 0.7071 -0.7071 343.4806 1027.6814)" style="fill:#A1C3FC;" width="9.934" height="9.934"/>
	
		<rect x="398.775" y="437.721" transform="matrix(-0.7071 -0.7071 0.7071 -0.7071 376.2033 1041.2053)" style="fill:#FFFFFF;" width="9.934" height="9.934"/>
	
		<rect x="417.938" y="437.751" transform="matrix(-0.7071 -0.7071 0.7071 -0.7071 408.8945 1054.8064)" style="fill:#1D72D8;" width="9.934" height="9.934"/>
</g>
<path style="fill:#D3E3FE;" d="M660.539,81.422c0,0.218,0,0.437,0,0.655c0,9.061,7.314,16.376,16.376,16.376  s16.376-7.314,16.376-16.376c0-0.218,0-0.437,0-0.655H660.539z"/>
<path style="fill:#A1C3FC;" d="M719.164,41.574c0,0.328,0,0.764,0,1.092c0,14.956,12.118,27.074,27.074,27.074  s27.074-12.118,27.074-27.074c0-0.328,0-0.764,0-1.092C773.313,41.574,719.164,41.574,719.164,41.574z"/>
<path style="fill:#F4F4F4;" d="M32.698,13.19c0,0.655,0,1.201,0,1.856c0,25.218,20.524,45.743,45.743,45.743  s45.743-20.524,45.743-45.743c0-0.655,0-1.201,0-1.856C124.183,13.19,32.698,13.19,32.698,13.19z"/>
<path style="fill:#E7EFFE;" d="M80.624,13.19c0,0.437,0,0.873,0,1.31c0,18.341,14.847,33.188,33.188,33.188S147,32.841,147,14.5  c0-0.437,0-0.873,0-1.31C147,13.19,80.624,13.19,80.624,13.19z"/>
<g>
	
		<linearGradient id="SVGID_4_-i0" gradientUnits="userSpaceOnUse" x1="4547.144" y1="-2848.5498" x2="5952.8911" y2="-2848.5498" gradientTransform="matrix(-0.0964 0.0265 -0.0265 -0.0964 553.6074 -2.2324)">
		<stop offset="0" style="stop-color:#B9D3FD"/>
		<stop offset="1" style="stop-color:#89B3F4"/>
	</linearGradient>
	<path style="fill:url(#SVGID_4_-i0);" d="M61.41,450.31c-0.218,4.803,2.729,9.17,6.114,12.664c9.17,9.716,21.507,16.376,34.607,18.559   c7.314,1.201,14.847,1.201,22.271,2.074c21.616,2.729,41.812,14.52,54.804,31.987c-6.004-12.991-2.511-28.384,3.166-41.485   c5.677-13.1,13.428-25.546,16.157-39.52c2.402-12.009-1.856-27.839-13.974-29.913c-8.952-1.528-17.686,5.349-26.638,4.039   c-3.166-0.437-6.55-2.293-7.205-5.459c-1.747-7.969,13.974-11.681,12.118-19.651c-2.074-9.17-25.109,0-24.345-9.28   c0.328-3.93,5.022-6.332,5.895-10.262s-0.546-8.624-4.258-10.153c-4.804-2.074-10.044,2.074-15.284,2.293   c-6.004,0.328-11.135-4.476-13.865-9.825s-3.712-11.463-6.114-16.921c-5.895-13.537-20.742-22.598-35.481-21.725   c-14.738,0.873-28.384,11.681-32.642,25.873c-1.747,5.786-1.638,12.991,3.057,16.921c3.93,3.275,10.808,4.148,11.681,9.17   c1.201,6.878-11.026,10.917-9.389,17.686c1.856,7.969,18.122,3.493,19.76,11.463c0.764,3.603-2.402,6.659-3.821,9.935   c-2.838,6.223,1.31,14.52,7.969,16.157c2.62,0.655,5.568,0.327,7.969,1.638c5.895,3.275,3.603,12.555-0.983,17.467   C68.179,439.065,61.847,443.541,61.41,450.31z"/>
	
		<linearGradient id="SVGID_5_-i0" gradientUnits="userSpaceOnUse" x1="5005.2349" y1="-3177.0505" x2="6471.7524" y2="-3177.0505" gradientTransform="matrix(-0.0964 0.0265 -0.0265 -0.0964 553.6074 -2.2324)">
		<stop offset="0" style="stop-color:#DEEAFE"/>
		<stop offset="1" style="stop-color:#E9F1FE"/>
	</linearGradient>
	<path style="fill:url(#SVGID_5_-i0);" d="M102.458,439.72c-3.821-0.873-7.751-1.638-11.135-3.712   c-7.096-4.476-9.17-13.537-11.79-21.397c-2.62-7.86-8.079-16.594-16.376-16.594c-6.987,0-14.083,6.223-20.087,2.838   c-2.293-1.31-3.712-3.603-5.568-5.349c-7.969-7.642-22.38-2.948-28.384,6.332s-6.004,21.179-5.895,32.315   c0.109,4.039,1.419,9.389,5.459,9.389c3.821,0,6.223-5.459,10.044-5.022c3.057,0.327,4.367,4.258,4.148,7.314   c-0.218,3.057-1.092,6.332,0.328,9.061c2.729,5.24,10.699,3.384,15.721,0.327c5.022-3.057,11.79-6.441,16.266-2.511   c-0.437,12.118,0.328,26.528,10.59,33.079c11.79,7.533,28.166,1.965,41.922-0.437c25.655-4.585,48.69,9.716,68.45,26.747   C167.088,476.948,137.611,447.908,102.458,439.72z"/>
	<path style="fill:none;stroke:#428DFC;stroke-width:2;stroke-linecap:round;stroke-miterlimit:10;" d="M178.878,517.232   c-8.734-22.817-15.721-46.288-21.07-70.088"/>
	
		<ellipse transform="matrix(-0.2235 -0.9747 0.9747 -0.2235 -240.659 697.7426)" style="fill:#23286B;" cx="157.599" cy="444.732" rx="4.694" ry="12.445"/>
	<path style="fill:none;stroke:#428DFC;stroke-width:2;stroke-linecap:round;stroke-miterlimit:10;" d="M157.153,444.305   c-2.948-13.537-5.349-27.074-7.205-40.83"/>
	
		<ellipse transform="matrix(-0.3174 -0.9483 0.9483 -0.3174 -182.6591 669.1458)" style="fill:#23286B;" cx="149.504" cy="400.314" rx="5.568" ry="14.957"/>
	<path style="fill:none;stroke:#428DFC;stroke-width:2;stroke-linecap:round;stroke-miterlimit:10;" d="M149.402,399.873   c-1.419-11.354-2.511-22.708-3.275-34.061"/>
	
		<ellipse transform="matrix(-0.0106 -0.9999 0.9999 -0.0106 -213.3985 512.5897)" style="fill:#23286B;" cx="146.883" cy="361.865" rx="5.567" ry="14.956"/>
	<path style="fill:none;stroke:#428DFC;stroke-width:2;stroke-linecap:round;stroke-miterlimit:10;" d="M145.908,361.008   c-0.437-8.624-0.655-17.358-0.764-26.092"/>
	
		<ellipse transform="matrix(-0.0106 -0.9999 0.9999 -0.0106 -183.616 479.1787)" style="fill:#23286B;" cx="145.246" cy="330.426" rx="7.532" ry="20.087"/>
	<path style="fill:none;stroke:#428DFC;stroke-width:2;stroke-linecap:round;stroke-miterlimit:10;" d="M145.144,329.021   c0.109-5.786,0.218-11.572,0.437-17.358"/>
</g>
<path style="fill:#FFFFFF;" d="M132.808,484.917l4.367-12.009c1.528-0.109,3.166,0.109,4.694,0.655l-4.694,12.882  c-0.218,0.764,0.109,1.528,0.873,1.747s1.528-0.109,1.747-0.873l4.694-12.664c1.419,0.873,2.62,2.074,3.603,3.384l-3.93,10.699  c-0.218,0.764,0.109,1.528,0.873,1.747s1.528-0.109,1.747-0.873l3.057-8.406c1.747,4.367,1.856,9.935-0.109,15.393  c0,0.109-0.109,0.218-0.109,0.328c0.983,0.546,2.074,1.201,2.948,1.965c2.729,1.965,6.223,5.349,7.424,10.153l-1.31,0.328  c-1.092-4.367-4.367-7.533-6.878-9.28c-0.873-0.655-1.747-1.201-2.729-1.747c-2.074,4.585-5.459,8.297-9.17,10.262l2.948-7.969  c0.218-0.764-0.109-1.528-0.873-1.747c-0.764-0.218-1.528,0.109-1.747,0.873l-3.821,10.262c-1.638,0.437-3.275,0.546-4.913,0.218  l4.367-12.009c0.218-0.764-0.109-1.528-0.873-1.747s-1.528,0.109-1.747,0.873l-4.476,12.118c-1.419-0.655-2.729-1.638-3.821-2.729  l4.039-10.917c0.218-0.764-0.109-1.528-0.873-1.747c-0.764-0.218-1.528,0.109-1.747,0.873l-3.493,9.389  c-1.092-1.638-2.074-3.384-2.948-5.24l2.183-5.895c0.218-0.764-0.109-1.528-0.873-1.747s-1.528,0.109-1.747,0.873l-1.201,3.166  c-2.183-5.24-3.603-10.371-5.459-12.009c3.057-0.655,7.314-3.493,12.009-6.114l-1.528,4.039c-0.218,0.764,0.109,1.528,0.873,1.747  s1.528-0.109,1.747-0.873l2.511-6.878c1.856-0.873,3.712-1.528,5.568-1.965l-3.821,10.59c-0.218,0.764,0.109,1.528,0.873,1.747  C131.716,486.009,132.48,485.681,132.808,484.917z"/>
<path style="fill:#B3C9EE;" d="M109.555,136.007l-8.188-0.983c-0.764,0.109-1.528,0.109-2.293,0.328l12.773,1.419  C110.974,136.553,110.319,136.225,109.555,136.007z M114.576,138.3l-18.559-2.074c-0.437,0.109-0.764,0.328-1.201,0.437  l20.742,2.402C115.231,138.736,114.904,138.518,114.576,138.3z M117.087,140.265l-24.236-2.729  c-0.328,0.109-0.546,0.328-0.873,0.437l25.546,2.948C117.415,140.592,117.196,140.483,117.087,140.265z M118.288,142.121  l-27.839-3.166c-0.218,0.109-0.437,0.328-0.655,0.437l28.712,3.275C118.507,142.448,118.397,142.23,118.288,142.121z   M118.943,143.867l-30.349-3.493c-0.218,0.109-0.328,0.328-0.546,0.546l31.005,3.493  C118.943,144.195,118.943,143.977,118.943,143.867z M119.162,145.505l-32.205-3.712c-0.109,0.218-0.328,0.328-0.437,0.546  l32.642,3.712C119.162,145.942,119.162,145.723,119.162,145.505z M119.162,147.252l-33.515-3.821  c-0.109,0.218-0.218,0.328-0.437,0.546l33.843,3.93C119.162,147.579,119.162,147.47,119.162,147.252z M119.052,148.889l-34.498-3.93  c-0.109,0.218-0.218,0.328-0.328,0.546l34.825,3.93C119.052,149.326,119.052,149.108,119.052,148.889z M118.507,150.745  c0-0.109,0.109-0.109,0.109-0.218l-35.044-4.039c-0.109,0.218-0.218,0.328-0.328,0.546l34.935,4.039  C118.288,150.964,118.397,150.854,118.507,150.745z M115.996,152.164c0.109,0,0.218-0.109,0.328-0.109l-33.625-3.821  c-0.109,0.218-0.109,0.328-0.218,0.546l32.751,3.712C115.559,152.383,115.777,152.274,115.996,152.164z M113.703,153.365  l-31.441-3.603c-0.109,0.218-0.109,0.328-0.109,0.546l31.005,3.493C113.266,153.693,113.485,153.584,113.703,153.365z   M111.956,154.894l-30.24-3.493c0,0.218-0.109,0.328-0.109,0.546l29.804,3.384C111.738,155.221,111.847,155.003,111.956,154.894z   M110.755,156.422l-29.258-3.384c0,0.218,0,0.328-0.109,0.546l28.93,3.275C110.537,156.75,110.646,156.64,110.755,156.422z   M109.882,158.06l-28.494-3.275c0,0.218,0,0.328,0,0.546l28.275,3.275C109.664,158.387,109.773,158.169,109.882,158.06z   M109.227,159.697l-27.729-3.166c0,0.218,0,0.328,0,0.546l27.511,3.166C109.118,160.025,109.227,159.806,109.227,159.697z   M108.899,161.335l-27.074-3.057c0,0.218,0.109,0.437,0.109,0.546l26.965,3.057C108.899,161.662,108.899,161.444,108.899,161.335z   M82.589,160.571l26.31,3.057c0-0.218,0-0.328,0-0.546l-26.529-3.057C82.371,160.134,82.48,160.352,82.589,160.571z M83.463,162.317  l25.655,2.948c0-0.218-0.109-0.437-0.109-0.546l-25.873-2.948C83.244,161.881,83.354,162.099,83.463,162.317z M84.773,164.173  l24.454,2.838c0-0.218,0-0.328,0-0.546l-25-2.838C84.445,163.737,84.554,163.955,84.773,164.173z M86.629,166.029  c0.109,0,0.109,0.109,0.218,0.109l21.616,2.511c0.109-0.109,0.218-0.328,0.328-0.546l-22.817-2.62  C86.192,165.592,86.41,165.811,86.629,166.029z M91.323,168.322l13.974,1.638c0.546-0.109,1.092-0.218,1.638-0.328l-17.686-2.074  C89.904,167.776,90.668,168.103,91.323,168.322z"/>
<path style="fill:#B3C9EE;" d="M687.068,497.253l12.773,0.546c1.201-0.218,2.402-0.328,3.493-0.764l-19.978-0.655  C684.775,496.598,685.867,497.035,687.068,497.253z M678.989,494.306l29.039,0.983c0.655-0.218,1.092-0.546,1.856-0.873  l-32.424-1.201C678.007,493.76,678.443,494.087,678.989,494.306z M674.95,491.576l37.882,1.31c0.546-0.218,0.764-0.546,1.31-0.764  l-39.956-1.528C674.404,491.14,674.732,491.249,674.95,491.576z M672.767,488.847l43.559,1.528c0.327-0.218,0.655-0.546,0.983-0.764  l-44.869-1.638C672.439,488.41,672.657,488.738,672.767,488.847z M671.566,486.227l47.489,1.747  c0.328-0.218,0.437-0.546,0.764-0.873l-48.472-1.747C671.566,485.681,671.566,486.009,671.566,486.227z M671.02,483.716  l50.328,1.856c0.109-0.328,0.437-0.546,0.655-0.873l-51.092-1.856C671.02,483.061,671.02,483.389,671.02,483.716z M670.802,480.987  l52.402,1.965c0.109-0.328,0.327-0.546,0.655-0.873l-52.948-2.074C670.802,480.55,670.802,480.659,670.802,480.987z   M670.802,478.476l53.93,1.965c0.109-0.328,0.328-0.546,0.437-0.873l-54.476-1.965C670.802,477.821,670.802,478.148,670.802,478.476  z M671.457,475.528c0,0.218-0.109,0.218-0.109,0.328l54.804,2.074c0.109-0.327,0.328-0.546,0.437-0.873l-54.585-2.074  C671.784,475.201,671.566,475.31,671.457,475.528z M675.168,473.017c-0.218,0-0.328,0.218-0.546,0.218l52.62,1.856  c0.109-0.327,0.109-0.546,0.328-0.873l-51.201-1.856C675.823,472.581,675.496,472.799,675.168,473.017z M678.553,470.834  l49.127,1.856c0.109-0.328,0.109-0.546,0.109-0.873l-48.472-1.747C679.208,470.288,678.88,470.506,678.553,470.834z   M681.064,468.323l47.271,1.747c0-0.328,0.109-0.546,0.109-0.873l-46.616-1.638C681.391,467.777,681.282,468.105,681.064,468.323z   M682.81,465.812l45.743,1.747c0-0.327,0-0.546,0.109-0.873l-45.197-1.638C683.029,465.266,682.919,465.485,682.81,465.812z   M683.902,463.192l44.542,1.638c0-0.327,0-0.546-0.109-0.873l-44.214-1.747C684.23,462.646,684.12,462.974,683.902,463.192z   M684.775,460.572l43.341,1.638c0-0.327,0-0.546-0.109-0.873l-43.013-1.638C684.885,460.026,684.775,460.354,684.775,460.572z   M685.103,457.952l42.358,1.528c0-0.327-0.218-0.655-0.218-0.873l-42.14-1.528C684.994,457.406,685.103,457.733,685.103,457.952z   M725.933,455.987l-41.157-1.638c0,0.328,0,0.546,0.109,0.873l41.485,1.528C726.37,456.642,726.151,456.314,725.933,455.987z   M724.404,453.367l-40.066-1.528c0,0.327,0.218,0.655,0.218,0.873l40.502,1.528C724.732,454.022,724.623,453.694,724.404,453.367z   M722.112,450.637l-38.21-1.528c0,0.328,0,0.546,0.109,0.873l39.083,1.419C722.658,451.292,722.439,450.965,722.112,450.637z   M719.055,448.017c-0.218,0-0.218-0.109-0.328-0.109l-33.843-1.31c-0.109,0.218-0.327,0.546-0.437,0.873l35.699,1.31  C719.71,448.672,719.383,448.345,719.055,448.017z M711.522,445.07l-21.834-0.873c-0.873,0.218-1.638,0.437-2.511,0.655l27.62,1.092  C713.706,445.725,712.505,445.288,711.522,445.07z"/>

</g>
</g>

<!-- ITEM 1 -->
<g transform="translate(726.0 145.0) scale(1.8272727272727274 1.8257142857142856) rotate(348.5348492818426 109.99999999999999 175.0)">
<g transform="translate(-0.0 -0.0)">

<linearGradient id="SVGID_1_-i1" gradientUnits="userSpaceOnUse" x1="-472.5338" y1="772.5233" x2="-349.6127" y2="772.5233" gradientTransform="matrix(0.8612 0.5083 0.5083 -0.8612 102.0323 1003.1466)">
	<stop offset="0" style="stop-color:#92C4FE"/>
	<stop offset="1" style="stop-color:#5BABF2"/>
</linearGradient>
<path fill="url(#SVGID_1_-i1)" d="M95.307,205.795c14.729,8.693,25.193,21.497,30.353,35.318c20.508-13.6,41.559-36.241,58.482-64.914  c34.505-58.466,9.547-137.102,9.547-137.102s-80.903,16.157-115.408,74.624c-16.923,28.674-26.569,58.045-28.563,82.573  C64.311,194.13,80.578,197.102,95.307,205.795z"/>
<path fill="#EFEFEF" d="M159.06,129.144c3.903,2.303,7.07,5.374,9.427,8.907c0.907-10.802-4.274-21.683-14.235-27.562  c-13.863-8.181-31.733-3.576-39.916,10.287c-5.879,9.961-5.155,21.99,0.86,31.009c0.356-4.232,1.645-8.451,3.948-12.354  C127.326,125.568,145.198,120.963,159.06,129.144z"/>
<path fill="#FFFFFF" d="M164.539,150.405c2.303-3.903,3.593-8.122,3.948-12.354c-2.356-3.533-5.525-6.604-9.427-8.907  c-13.863-8.181-31.735-3.576-39.916,10.287c-2.303,3.903-3.593,8.122-3.948,12.354c2.356,3.533,5.525,6.604,9.427,8.907  C138.487,168.874,156.358,164.268,164.539,150.405z"/>
<path fill="#FF4945" d="M170.241,177.313l-48.468,59.685l19.214,42.241C167.273,241.909,176.212,208.098,170.241,177.313z"/>
<path fill="#FF4945" d="M86.869,128.108l-28.824,71.278l-46.267,3.596C31.754,161.929,57.034,137.76,86.869,128.108z"/>
<g>
	<path fill="#FF4945" d="M190.566,46.754c-0.269,0-0.54-0.069-0.788-0.215c-0.737-0.435-0.982-1.386-0.547-2.123l25.765-43.654   c0.437-0.737,1.39-0.981,2.124-0.548c0.737,0.435,0.982,1.386,0.547,2.123l-25.765,43.654   C191.611,46.482,191.095,46.754,190.566,46.754z"/>
</g>
<g>
	<path fill="#5BABF2" d="M81.623,328.212c-0.048,0-0.097-0.007-0.146-0.022c-0.274-0.081-0.431-0.367-0.349-0.641   c6.579-22.379,11.33-43.057,15.404-67.046c0.048-0.28,0.314-0.469,0.596-0.423c0.281,0.049,0.471,0.315,0.424,0.596   c-4.081,24.031-8.841,44.745-15.432,67.163C82.053,328.065,81.848,328.212,81.623,328.212z"/>
</g>
<g>
	<path fill="#5BABF2" d="M0.517,280.344c-0.131,0-0.263-0.05-0.364-0.15c-0.203-0.201-0.205-0.528-0.004-0.731   c16.444-16.608,32.278-30.787,51.34-45.97c0.223-0.181,0.549-0.142,0.727,0.082c0.178,0.223,0.141,0.548-0.083,0.726   c-19.028,15.159-34.834,29.312-51.249,45.89C0.783,280.292,0.65,280.344,0.517,280.344z"/>
</g>
<rect x="71.04" y="336.231" transform="matrix(-0.3479 -0.9375 0.9375 -0.3479 -216.9981 533.5798)" fill="#FF4945" width="12.05" height="12.05"/>
<rect x="4.291" y="329.717" transform="matrix(0.7429 -0.6694 0.6694 0.7429 -222.0938 93.2242)" fill="#1B236D" width="12.05" height="12.05"/>
<rect x="9.453" y="247.158" transform="matrix(-0.3479 -0.9375 0.9375 -0.3479 -217.2908 351.3933)" fill="#5BABF2" width="8.212" height="8.212"/>
<g>
	<path fill="#5BABF2" d="M20.482,323.681c-0.089,0-0.18-0.023-0.261-0.071c-0.246-0.146-0.328-0.462-0.183-0.708l36.748-62.267   c0.146-0.246,0.463-0.326,0.708-0.183c0.246,0.146,0.328,0.462,0.183,0.708l-36.748,62.267   C20.83,323.59,20.657,323.681,20.482,323.681z"/>
</g>
<g>
	<path fill="#5BABF2" d="M61.01,311.706c-0.061,0-0.122-0.01-0.181-0.033c-0.268-0.1-0.403-0.398-0.303-0.666l6.347-16.94   c0.1-0.267,0.399-0.405,0.666-0.302c0.268,0.1,0.403,0.398,0.303,0.666l-6.347,16.94C61.416,311.577,61.219,311.706,61.01,311.706z   "/>
</g>
<g>
	<path fill="#FF4945" d="M139.41,169.91c-6.107,0-12.128-1.648-17.413-4.768c-7.894-4.659-13.501-12.113-15.788-20.989   c-2.287-8.875-0.982-18.111,3.677-26.005c6.144-10.411,17.479-16.879,29.58-16.879c6.107,0,12.128,1.648,17.413,4.767   c16.296,9.617,21.728,30.698,12.112,46.993C162.845,163.443,151.511,169.91,139.41,169.91z M139.466,111.607   c-8.462,0-16.385,4.52-20.679,11.796c-3.255,5.516-4.167,11.97-2.569,18.173c1.599,6.202,5.517,11.411,11.033,14.667   c3.695,2.181,7.9,3.333,12.161,3.333c8.462,0,16.386-4.521,20.68-11.797c6.72-11.387,2.923-26.118-8.464-32.838   C147.931,112.759,143.726,111.607,139.466,111.607z"/>
</g>
<path fill="#5BABF2" d="M133.794,76.781c29.573,17.454,51.031,42.866,62.541,70.729c15.081-52.561-2.645-108.413-2.645-108.413  s-37.718,7.538-72.63,30.928C125.354,72.061,129.605,74.31,133.794,76.781z"/>
<linearGradient id="SVGID_2_-i1" gradientUnits="userSpaceOnUse" x1="-452.5461" y1="853.5646" x2="-369.6049" y2="853.5646" gradientTransform="matrix(0.8612 0.5083 0.5083 -0.8612 102.0323 1003.1466)">
	<stop offset="0" style="stop-color:#FF4945"/>
	<stop offset="1" style="stop-color:#F92424"/>
</linearGradient>
<path fill="url(#SVGID_2_-i1)" d="M204.07,103.103c0.888-36.806-8.663-66.916-8.663-66.916s-30.975,6.192-62.767,24.759L204.07,103.103  z"/>

</g>
</g>

<!-- ITEM 2 -->
<g transform="translate(836.0 208.0) scale(-4.5 4.506024096385542) rotate(-328.30042670892334 100.0 41.5)">
<g transform="translate(-0.0 -0.0)">

<path fill="#151A4F" d="M85.859,83c18.203-6.987,25.627-18.26,38.407-21.96c0,0-10.404-29.674-12.402-44.119  c-6.459-2.96-16.012-0.914-22.985,0.381c-11.149,2.072-22.716,1.81-33.763-0.761c-2.814,15.076-7.864,47.892-7.864,47.892  C59.601,66.388,70.581,76.902,85.859,83z"/>
<polygon fill="#23286B" points="0,32.897 87.452,50.32 164.821,18.642 70.324,0 "/>
<polygon fill="#428DFC" points="71.423,23.005 84.249,25.561 95.597,20.915 81.737,18.18 "/>
<g>
	<path fill="#428DFC" d="M184.905,43.605c-7.244,0-14.54-2.233-20.373-6.435c-2.338-1.684-4.471-3.674-6.535-5.597   c-1.612-1.503-3.279-3.056-5.024-4.445c-9.063-7.212-21.749-11.053-35.785-10.828c-13.014,0.215-25.698,3.66-37.466,7.352   c-0.228,0.071-0.467-0.055-0.538-0.28c-0.071-0.226,0.054-0.466,0.281-0.537c11.83-3.711,24.586-7.175,37.71-7.391   c14.201-0.228,27.115,3.678,36.333,11.014c1.771,1.41,3.451,2.975,5.075,4.489c2.044,1.905,4.159,3.876,6.453,5.528   c8.112,5.843,19.131,7.783,28.756,5.065c2.767-0.781,4.389-1.857,5.106-3.388c0.448-0.957,0.265-2.318-0.438-3.238   c-0.293-0.383-0.921-1-1.86-0.842c-0.229,0.038-0.455-0.117-0.495-0.349c-0.039-0.234,0.118-0.455,0.351-0.494   c1.011-0.177,1.988,0.253,2.688,1.168c0.899,1.178,1.118,2.871,0.532,4.121c-1.091,2.327-3.748,3.311-5.651,3.849   C191.075,43.199,187.994,43.605,184.905,43.605z"/>
</g>
<g>
	<path fill="#428DFC" d="M183.242,38.078c-4.44,0-9.052-0.845-12.778-1.644c-5.252-1.125-10.104-3.426-14.832-7.035   c-0.189-0.143-0.224-0.412-0.081-0.601c0.145-0.19,0.414-0.224,0.602-0.08c4.625,3.53,9.365,5.78,14.49,6.878   c4.569,0.978,10.48,2.028,15.695,1.467c4.392-0.474,6.21-3.291,6.432-5.56c0.159-1.614-0.473-2.927-1.57-3.268   c-0.227-0.07-0.352-0.311-0.282-0.536c0.071-0.227,0.309-0.352,0.538-0.281c1.496,0.466,2.368,2.142,2.168,4.171   c-0.273,2.792-2.604,5.832-7.195,6.327C185.388,38.029,184.32,38.078,183.242,38.078z"/>
</g>
<g>
	<path fill="#428DFC" d="M183.86,50.412c-5.681,0-11.375-1.639-16.14-4.72c-6.535-4.226-10.723-9.647-12.448-16.11   c-0.061-0.229,0.076-0.463,0.304-0.524c0.232-0.06,0.464,0.076,0.525,0.303c1.668,6.252,5.734,11.505,12.084,15.612   c5.884,3.803,13.227,5.343,20.145,4.226c0.228-0.036,0.455,0.12,0.492,0.354c0.039,0.234-0.121,0.453-0.355,0.492   C186.947,50.291,185.403,50.412,183.86,50.412z"/>
</g>

</g>
</g>

<!-- ITEM 3 -->
<g transform="translate(1013.0 717.0) scale(0.2519480519480519 0.25333333333333335) rotate(318.52391591115895 192.50000000000003 150.0)">
<g transform="translate(-0.0 -0.0)">

<g id="message-i3">
	
		<linearGradient id="bottom_1_-i3" gradientUnits="userSpaceOnUse" x1="179.0632" y1="-163.3896" x2="154.1742" y2="521.0507" gradientTransform="matrix(0.5555 0 0 -0.5555 100 251.1035)">
		<stop offset="0.0898" style="stop-color:#EEEEEE"/>
		<stop offset="0.8178" style="stop-color:#D6D7D8"/>
	</linearGradient>
	<rect id="bottom-i3" fill="url(#bottom_1_-i3)" width="385" height="300"/>
	<polygon id="top-i3" fill="#EEEEEE" points="0,0 192.5,150.018 385,0  "/>
</g>

</g>
</g>

<!-- ITEM 4 -->
<g transform="translate(609.0 581.0) scale(0.2519480519480519 0.25333333333333335) rotate(342.94248723221676 192.50000000000003 150.0)">
<g transform="translate(-0.0 -0.0)">

<g id="message-i4">
	
		<linearGradient id="bottom_1_-i4" gradientUnits="userSpaceOnUse" x1="179.0632" y1="-163.3896" x2="154.1742" y2="521.0507" gradientTransform="matrix(0.5555 0 0 -0.5555 100 251.1035)">
		<stop offset="0.0898" style="stop-color:#EEEEEE"/>
		<stop offset="0.8178" style="stop-color:#D6D7D8"/>
	</linearGradient>
	<rect id="bottom-i4" fill="url(#bottom_1_-i4)" width="385" height="300"/>
	<polygon id="top-i4" fill="#EEEEEE" points="0,0 192.5,150.018 385,0  "/>
</g>

</g>
</g>

<!-- ITEM 5 -->
<g transform="translate(656.0 744.0) scale(0.2753246753246753 0.27666666666666667) rotate(324.6672076535722 192.5 150.0)">
<g transform="translate(-0.0 -0.0)">

<g id="message-i5">
	
		<linearGradient id="bottom_1_-i5" gradientUnits="userSpaceOnUse" x1="179.0632" y1="-163.3896" x2="154.1742" y2="521.0507" gradientTransform="matrix(0.5555 0 0 -0.5555 100 251.1035)">
		<stop offset="0.0898" style="stop-color:#EEEEEE"/>
		<stop offset="0.8178" style="stop-color:#D6D7D8"/>
	</linearGradient>
	<rect id="bottom-i5" fill="url(#bottom_1_-i5)" width="385" height="300"/>
	<polygon id="top-i5" fill="#EEEEEE" points="0,0 192.5,150.018 385,0  "/>
</g>

</g>
</g>

<!-- ITEM 6 -->
<g transform="translate(651.0 694.0) scale(0.27 0.27) rotate(348.8549471028385 49.99999999999999 49.99999999999999)">
<g transform="translate(-0.0 -0.0)">

<path fill="#A1C3FC" d="M98.663,98.531c-33.052,1.963-65.546,1.955-97.487,0c-1.46-34.57-1.676-67.372,0-97.487  c32.497-1.392,64.992-1.392,97.487,0C100.512,32.524,100.381,65.091,98.663,98.531z"/>

</g>
</g>

<!-- ITEM 7 -->
<g transform="translate(1081.0 619.0) scale(0.2204504537605173 0.22049420100251366) rotate(0.0 68.0425 68.02899999999998)">
<g transform="translate(1935.913 -257.638)">

<polygon fill="#A1C3FC" points="-1867.871,393.696 -1935.913,325.667 -1867.871,257.638 -1799.828,325.667 "/>

</g>
</g>

<!-- ITEM 8 -->
<g transform="translate(959.0 657.0) scale(0.41401144619880664 0.41734614225320543) rotate(0.0 61.5925 64.6945)">
<g transform="translate(1366.388 -703.252)">

<g>
	<polygon fill="#A1C3FC" points="-1283.815,703.252 -1294.129,708.536 -1281.106,708.536  "/>
	<polygon fill="#A1C3FC" points="-1330.206,727.014 -1271.63,727.014 -1276.617,717.289 -1311.217,717.289  "/>
	<polygon fill="#A1C3FC" points="-1366.282,745.492 -1262.155,745.492 -1267.142,735.767 -1347.295,735.767  "/>
	<polygon fill="#A1C3FC" points="-1361.401,763.97 -1252.678,763.97 -1257.666,754.245 -1366.388,754.245  "/>
	<polygon fill="#A1C3FC" points="-1351.924,782.448 -1243.203,782.448 -1248.19,772.723 -1356.911,772.723  "/>
	<polygon fill="#A1C3FC" points="-1342.449,800.926 -1264.265,800.926 -1245.278,791.201 -1347.436,791.201  "/>
	<polygon fill="#A1C3FC" points="-1332.973,819.403 -1300.341,819.403 -1281.353,809.679 -1337.96,809.679  "/>
	<polygon fill="#A1C3FC" points="-1326.185,832.641 -1317.429,828.156 -1328.485,828.156  "/>
</g>

</g>
</g>

<!-- ITEM 9 -->
<g transform="translate(788.0 559.0) scale(0.25977188781101596 0.26277349697424046) rotate(0.0 61.5925 64.6945)">
<g transform="translate(1366.388 -703.252)">

<g>
	<polygon fill="#A1C3FC" points="-1283.815,703.252 -1294.129,708.536 -1281.106,708.536  "/>
	<polygon fill="#A1C3FC" points="-1330.206,727.014 -1271.63,727.014 -1276.617,717.289 -1311.217,717.289  "/>
	<polygon fill="#A1C3FC" points="-1366.282,745.492 -1262.155,745.492 -1267.142,735.767 -1347.295,735.767  "/>
	<polygon fill="#A1C3FC" points="-1361.401,763.97 -1252.678,763.97 -1257.666,754.245 -1366.388,754.245  "/>
	<polygon fill="#A1C3FC" points="-1351.924,782.448 -1243.203,782.448 -1248.19,772.723 -1356.911,772.723  "/>
	<polygon fill="#A1C3FC" points="-1342.449,800.926 -1264.265,800.926 -1245.278,791.201 -1347.436,791.201  "/>
	<polygon fill="#A1C3FC" points="-1332.973,819.403 -1300.341,819.403 -1281.353,809.679 -1337.96,809.679  "/>
	<polygon fill="#A1C3FC" points="-1326.185,832.641 -1317.429,828.156 -1328.485,828.156  "/>
</g>

</g>
</g>

<!-- ITEM 10 -->
<g transform="translate(975.0 808.0) scale(0.15431531763236211 0.15434594070175955) rotate(0.0 68.0425 68.029)">
<g transform="translate(1935.913 -257.638)">

<polygon fill="#A1C3FC" points="-1867.871,393.696 -1935.913,325.667 -1867.871,257.638 -1799.828,325.667 "/>

</g>
</g>

<!-- ITEM 11 -->
<g transform="translate(721.0 578.0) scale(0.19 0.19) rotate(347.8125490491564 50.0 50.0)">
<g transform="translate(-0.0 -0.0)">

<path fill="#E94A47" d="M98.663,98.531c-33.052,1.963-65.546,1.955-97.487,0c-1.46-34.57-1.676-67.372,0-97.487  c32.497-1.392,64.992-1.392,97.487,0C100.512,32.524,100.381,65.091,98.663,98.531z"/>

</g>
</g>

<!-- ITEM 12 -->
<g transform="translate(1104.0 682.0) scale(0.15 0.15) rotate(0.0 50.0 50.0)">
<g transform="translate(-0.0 -0.0)">

<path fill="#E94A47" d="M98.663,98.531c-33.052,1.963-65.546,1.955-97.487,0c-1.46-34.57-1.676-67.372,0-97.487  c32.497-1.392,64.992-1.392,97.487,0C100.512,32.524,100.381,65.091,98.663,98.531z"/>

</g>
</g>

<!-- ITEM 13 -->
<g transform="translate(600.0 770.0) scale(0.14 0.14) rotate(332.28232006053565 50.0 50.0)">
<g transform="translate(-0.0 -0.0)">

<path fill="#E94A47" d="M98.663,98.531c-33.052,1.963-65.546,1.955-97.487,0c-1.46-34.57-1.676-67.372,0-97.487  c32.497-1.392,64.992-1.392,97.487,0C100.512,32.524,100.381,65.091,98.663,98.531z"/>

</g>
</g>

<!-- ITEM 14 -->
<g transform="translate(884.0 647.0) scale(0.16 0.16) rotate(317.2271371759353 50.0 50.0)">
<g transform="translate(-0.0 -0.0)">

<path fill="#A1C3FC" d="M98.663,98.531c-33.052,1.963-65.546,1.955-97.487,0c-1.46-34.57-1.676-67.372,0-97.487  c32.497-1.392,64.992-1.392,97.487,0C100.512,32.524,100.381,65.091,98.663,98.531z"/>

</g>
</g>

              </svg>