<svg width="1377" height="634" viewBox="0 0 1377 634" fill="none" xmlns="http://www.w3.org/2000/svg">
<path d="M1027.98 601.946H0V623.014H1027.98V601.946Z" fill="#E0E0E0"/>
<path d="M984.413 623.023H43.5642V631.641H984.413V623.023Z" fill="#E0E0E0"/>
<path opacity="0.1" d="M984.413 623.023H43.5642V625.893H984.413V623.023Z" fill="black"/>
<path opacity="0.1" d="M307.942 603.554C307.942 603.554 445.88 603.227 492.788 603.227C539.695 603.227 677.633 603.554 677.633 603.554V591.412H307.942V603.554Z" fill="black"/>
<path d="M677.649 601.118C677.649 601.118 539.712 600.791 492.804 600.791C445.896 600.791 307.958 601.118 307.958 601.118V447.695C307.958 418.051 327.431 389.621 362.093 368.658C396.755 347.696 443.766 335.918 492.788 335.916V335.916C517.063 335.914 541.101 338.805 563.53 344.421C585.958 350.038 606.337 358.272 623.503 368.652C640.669 379.031 654.286 391.354 663.577 404.916C672.867 418.479 677.649 433.015 677.649 447.695V601.118Z" fill="#0E6BA8"/>
<path d="M536.256 339.401C536.256 339.401 770.063 317.38 721.85 536.086L693.731 598.778L613.353 596.853C613.353 596.853 665.595 523.954 633.448 475.348C601.3 426.743 536.256 339.401 536.256 339.401Z" fill="#0E6BA8"/>
<path d="M449.335 339.401C449.335 339.401 215.592 317.38 263.741 536.086L291.861 598.778L372.238 596.853C372.238 596.853 319.996 523.954 352.144 475.348C384.291 426.743 449.335 339.401 449.335 339.401Z" fill="#0E6BA8"/>
<path opacity="0.1" d="M348.131 435.774C348.131 435.774 332.049 510.878 360.185 532.745Z" fill="black"/>
<path opacity="0.1" d="M637.46 437.7C637.46 437.7 653.542 510.878 625.407 532.745Z" fill="black"/>
<path d="M643.399 623.399C667.811 623.399 687.6 611.432 687.6 596.67C687.6 581.907 667.811 569.94 643.399 569.94C618.988 569.94 599.198 581.907 599.198 596.67C599.198 611.432 618.988 623.399 643.399 623.399Z" fill="#FDB797"/>
<path d="M342.192 623.399C366.604 623.399 386.393 611.432 386.393 596.67C386.393 581.907 366.604 569.94 342.192 569.94C317.78 569.94 297.991 581.907 297.991 596.67C297.991 611.432 317.78 623.399 342.192 623.399Z" fill="#FDB797"/>
<path d="M598.816 446.77H386.536C367.77 446.77 352.558 455.97 352.558 467.318V576.43C352.558 587.778 367.77 596.978 386.536 596.978H598.816C617.582 596.978 632.795 587.778 632.795 576.43V467.318C632.795 455.97 617.582 446.77 598.816 446.77Z" fill="#E0E0E0"/>
<path d="M439.224 586.319V575.044C439.231 574.881 439.18 574.72 439.074 574.571C438.967 574.422 438.809 574.289 438.609 574.181C438.409 574.073 438.172 573.992 437.915 573.945C437.659 573.898 437.388 573.885 437.122 573.907C434.471 573.938 431.857 574.289 429.432 574.938V586.29H424.177V565.415H429.416V572.309C432.104 571.674 434.954 571.326 437.839 571.279C442.616 571.279 444.383 573.05 444.383 575.477V586.309H439.192L439.224 586.319ZM454.207 579.502C454.382 583.276 455.608 584.018 459.446 584.018C462.553 583.93 465.613 583.52 468.49 582.804L469.366 585.183C466.169 586.128 462.669 586.641 459.111 586.685C450.37 586.685 449.016 583.796 449.016 579.155C448.914 576.815 449.354 574.479 450.322 572.213C453.707 571.515 457.272 571.188 460.847 571.25C468.012 571.25 470.193 573.657 470.193 577.855V579.463H454.271L454.207 579.502ZM460.847 573.927C458.8 573.905 456.754 573.992 454.733 574.187C454.381 575.213 454.189 576.258 454.159 577.306H465.082C465.082 575.111 464.43 573.927 460.847 573.927ZM479.954 574.957V586.309H474.715V573.532C478.484 572.346 482.624 571.654 486.864 571.5V574.139C484.509 574.189 482.182 574.465 479.97 574.957H479.954ZM500.653 586.685C492.835 586.685 489.301 584.364 489.301 579.049C489.301 573.426 493.966 571.288 500.653 571.288C508.471 571.288 512.006 573.609 512.006 578.924C512.006 584.547 507.325 586.685 500.653 586.685ZM500.653 573.927C496.641 573.927 494.412 575.323 494.412 579.049C494.412 583.112 496.291 584.018 500.653 584.018C504.666 584.018 506.895 582.641 506.895 578.924C506.895 574.861 505.016 573.936 500.653 573.936V573.927ZM537.275 586.309H531.113C529.661 583.831 527.44 581.543 524.569 579.569H521.814V586.309H516.687V565.415H521.926V577.403H524.378C526.988 575.716 529.076 573.759 530.54 571.625H536.431C534.518 573.982 531.997 576.14 528.964 578.019C532.258 580.58 535.082 583.35 537.387 586.28L537.275 586.309ZM547.1 586.675C542.323 586.675 540.555 584.903 540.555 582.477V571.664H545.746V582.891C545.739 583.053 545.79 583.214 545.896 583.363C546.003 583.512 546.161 583.646 546.361 583.754C546.561 583.862 546.798 583.942 547.055 583.989C547.312 584.037 547.582 584.05 547.848 584.027C550.587 583.998 553.29 583.648 555.809 582.997V571.664H561.111V584.393C556.892 585.883 552.097 586.673 547.211 586.685L547.1 586.675ZM544.791 560.09H440.386C438.261 560.093 436.155 559.842 434.19 559.352C432.224 558.862 430.438 558.143 428.932 557.235C427.427 556.328 426.232 555.249 425.416 554.062C424.6 552.875 424.179 551.603 424.177 550.317V467.27C424.177 465.985 424.596 464.713 425.409 463.526C426.222 462.339 427.413 461.261 428.915 460.352C430.418 459.444 432.201 458.724 434.164 458.232C436.127 457.74 438.23 457.487 440.355 457.487H544.854C546.985 457.482 549.096 457.731 551.067 458.221C553.038 458.71 554.83 459.429 556.34 460.338C557.851 461.247 559.049 462.327 559.868 463.517C560.687 464.706 561.109 465.982 561.111 467.27V550.317C561.111 551.603 560.692 552.876 559.878 554.063C559.064 555.251 557.871 556.329 556.368 557.238C554.864 558.147 553.078 558.867 551.114 559.358C549.149 559.849 547.044 560.101 544.918 560.1L544.791 560.09Z" fill="#6762A6"/>
<path d="M509.984 545.984V505.236C509.984 505.236 514.363 495.482 455.991 509.222C455.879 509.395 455.879 471.535 455.879 471.535L474.986 471.468V495.723C474.986 495.723 528.391 483.003 528.391 505.351V545.965H509.984V545.984ZM520.859 486.142H500.606C507.882 480.76 514.474 471.535 514.474 471.535H535.396C535.396 471.535 531.814 477.544 520.827 486.142H520.859ZM456.229 545.907V522.702L475.416 534.305L456.229 545.907V545.907Z" fill="white"/>
<path d="M1181.45 439.279C1181.4 440.664 1181.68 442.047 1182.3 443.381C1182.97 444.523 1183.79 445.633 1184.74 446.703C1185.08 447.018 1185.26 447.385 1185.28 447.762C1185.23 448.046 1185.07 448.318 1184.82 448.559C1184.57 448.8 1184.23 449.002 1183.83 449.149L1179.05 451.074C1178.47 451.327 1177.78 451.471 1177.06 451.488C1176.19 451.454 1175.37 451.224 1174.77 450.843C1173.74 450.176 1172.83 449.45 1172.03 448.677C1171.26 447.897 1170.44 447.021 1169.67 445.952C1166.98 447.976 1163.57 449.601 1159.68 450.704C1155.8 451.807 1151.55 452.359 1147.25 452.317C1140.88 452.317 1135.74 451.209 1132 448.995C1128.15 446.455 1126.13 443.097 1126.37 439.657C1126.61 436.217 1129.1 432.975 1133.29 430.642C1137.94 428.245 1144.12 427.041 1151.97 427.041C1154.67 427.053 1157.38 427.176 1160.06 427.407C1162.87 427.638 1165.77 428.004 1168.83 428.418V425.048C1168.83 421.543 1167.6 419.098 1165.25 417.673C1162.89 416.248 1158.69 415.554 1152.81 415.554C1150.04 415.554 1147.27 415.754 1144.58 416.151C1141.78 416.556 1139.03 417.08 1136.35 417.721C1135.48 417.955 1134.58 418.154 1133.67 418.318C1133.27 418.395 1132.86 418.441 1132.45 418.453C1131.38 418.453 1130.85 417.99 1130.85 417.028V414.765C1130.77 414.205 1130.96 413.643 1131.39 413.147C1131.97 412.729 1132.7 412.399 1133.53 412.184C1136.57 411.27 1139.77 410.572 1143.08 410.104C1146.97 409.501 1150.96 409.207 1154.98 409.228C1164.05 409.228 1170.69 410.47 1174.96 412.964C1179.23 415.458 1181.33 419.232 1181.33 424.307V439.279H1181.45ZM1150.5 446.289C1153.17 446.272 1155.83 445.992 1158.35 445.461C1161.15 444.875 1163.65 443.855 1165.6 442.505C1166.83 441.654 1167.72 440.642 1168.19 439.549C1168.72 438.234 1168.97 436.886 1168.96 435.534V433.608C1166.64 433.269 1164.3 433.009 1161.93 432.828C1159.56 432.645 1157.16 432.552 1154.77 432.549C1149.66 432.549 1145.92 433.146 1143.4 434.398C1141.49 435.236 1140.09 436.426 1139.39 437.789C1138.7 439.152 1138.76 440.615 1139.55 441.957C1140.35 443.298 1141.85 444.447 1143.82 445.23C1145.79 446.013 1148.13 446.388 1150.49 446.299L1150.5 446.289ZM1211.74 451.267C1210.71 451.331 1209.68 451.167 1208.84 450.805C1208.05 450.305 1207.5 449.682 1207.25 449.004L1189.34 413.378C1188.99 412.78 1188.76 412.16 1188.65 411.53C1188.61 411.377 1188.63 411.221 1188.71 411.073C1188.79 410.926 1188.92 410.791 1189.1 410.68C1189.28 410.568 1189.49 410.483 1189.73 410.43C1189.97 410.377 1190.23 410.358 1190.48 410.374H1197.95C1199 410.296 1200.07 410.461 1200.93 410.836C1201.72 411.337 1202.27 411.96 1202.52 412.637L1215.26 443.169L1227.15 412.637C1227.31 411.959 1227.82 411.329 1228.6 410.836C1229.52 410.496 1230.59 410.335 1231.66 410.374H1237.76C1238.83 410.305 1239.92 410.469 1240.81 410.836C1241.61 411.323 1242.12 411.956 1242.26 412.637L1254.32 443.535L1267.52 412.637C1267.78 411.963 1268.33 411.342 1269.11 410.836C1270 410.496 1271.04 410.334 1272.09 410.374H1279.17C1279.43 410.352 1279.7 410.366 1279.95 410.416C1280.19 410.466 1280.42 410.55 1280.61 410.663C1280.79 410.775 1280.93 410.912 1281.01 411.062C1281.1 411.212 1281.12 411.373 1281.08 411.53C1281.06 411.779 1281.01 412.027 1280.92 412.271C1280.8 412.665 1280.62 413.052 1280.38 413.426L1262.01 449.052C1261.78 449.734 1261.23 450.361 1260.42 450.853C1259.55 451.187 1258.54 451.349 1257.52 451.315H1250.96C1249.88 451.384 1248.8 451.221 1247.9 450.853C1247.1 450.346 1246.59 449.698 1246.45 449.004L1234.64 419.261L1222.89 448.956C1222.71 449.644 1222.21 450.286 1221.44 450.805C1220.53 451.164 1219.46 451.327 1218.38 451.267H1211.74ZM1309.73 452.509C1305.77 452.513 1301.83 452.235 1297.98 451.681C1294.93 451.305 1291.98 450.684 1289.2 449.832C1288.22 449.552 1287.4 449.103 1286.85 448.542C1286.55 448.136 1286.39 447.697 1286.38 447.252V444.903C1286.38 443.94 1286.99 443.477 1288.14 443.477C1288.6 443.477 1289.06 443.523 1289.51 443.612C1289.97 443.709 1290.65 443.891 1291.42 444.074C1294.11 444.792 1296.92 445.334 1299.81 445.692C1302.8 446.057 1305.84 446.241 1308.88 446.241C1312.76 446.38 1316.63 445.853 1320.03 444.72C1321.27 444.266 1322.29 443.622 1322.99 442.852C1323.68 442.083 1324.03 441.215 1323.99 440.338C1324.02 439.745 1323.85 439.155 1323.5 438.601C1323.15 438.048 1322.62 437.542 1321.94 437.113C1319.71 435.967 1317.07 435.147 1314.23 434.715L1303.1 432.636C1297.53 431.576 1293.42 430.007 1290.91 427.927C1288.46 426.014 1287.12 423.665 1287.1 421.245C1287.04 419.458 1287.74 417.693 1289.16 416.122C1290.52 414.638 1292.39 413.347 1294.65 412.338C1297.03 411.249 1299.73 410.436 1302.61 409.941C1305.71 409.401 1308.93 409.139 1312.16 409.161C1313.87 409.153 1315.58 409.214 1317.27 409.344C1319.03 409.479 1320.63 409.671 1322.23 409.854C1323.82 410.037 1325.2 410.316 1326.57 410.596C1327.68 410.804 1328.75 411.081 1329.76 411.424C1330.66 411.698 1331.44 412.093 1332.05 412.579C1332.55 413.028 1332.79 413.562 1332.74 414.1V416.267C1332.74 417.23 1332.13 417.74 1330.98 417.74C1329.97 417.671 1328.98 417.485 1328.09 417.191C1323.48 415.958 1318.48 415.344 1313.44 415.391C1309.93 415.265 1306.42 415.71 1303.29 416.681C1302.13 417.099 1301.18 417.703 1300.55 418.427C1299.92 419.151 1299.63 419.966 1299.71 420.783C1299.69 421.395 1299.89 422.003 1300.28 422.568C1300.68 423.132 1301.26 423.639 1302 424.056C1304.48 425.243 1307.34 426.106 1310.4 426.589L1321.22 428.669C1326.72 429.728 1330.68 431.201 1333.04 433.098C1335.37 434.955 1336.6 437.229 1336.54 439.559C1336.58 441.413 1335.9 443.246 1334.55 444.912C1333.19 446.489 1331.29 447.872 1328.98 448.966C1326.46 450.15 1323.58 451.027 1320.51 451.546C1316.97 452.201 1313.3 452.526 1309.6 452.509H1309.73Z" fill="#252F3E"/>
<path d="M1324.14 474.905C1299.04 486.113 1262.6 492.064 1231.26 492.064C1189.39 492.194 1148.95 482.868 1117.86 465.912C1115.5 464.622 1117.64 462.87 1120.46 463.881C1150.57 474.386 1184.3 480.531 1219.01 481.836C1253.71 483.141 1288.44 479.569 1320.47 471.401C1324.66 470.245 1328.26 473.057 1324.14 474.905V474.905Z" fill="#FF9900"/>
<path d="M1334.58 467.732C1331.4 465.238 1313.39 466.528 1305.22 467.135C1302.78 467.318 1302.4 466.028 1304.62 465.055C1318.95 458.97 1342.51 460.722 1345.27 462.754C1348.02 464.786 1344.5 479.123 1331.08 485.863C1329.03 486.922 1327.03 486.373 1327.89 484.987C1331 480.451 1337.78 470.168 1334.58 467.732Z" fill="#FF9900"/>
<path d="M1018.93 227.843L981.26 188.366L1018.93 148.888H1094.26L1131.94 188.366L1094.26 227.843H1018.93Z" fill="#CAC9C2"/>
<path d="M1057.9 206.4C1052.09 206.4 1046.41 205.359 1041.58 203.408C1036.76 201.457 1032.99 198.684 1030.77 195.44C1028.55 192.195 1027.97 188.625 1029.1 185.181C1030.23 181.737 1033.03 178.573 1037.13 176.09C1041.24 173.607 1046.47 171.916 1052.17 171.231C1057.86 170.546 1063.77 170.897 1069.13 172.241C1074.5 173.585 1079.08 175.861 1082.31 178.781C1085.54 181.7 1087.26 185.133 1087.26 188.645C1087.25 193.352 1084.15 197.866 1078.65 201.194C1073.14 204.523 1065.68 206.395 1057.9 206.4" fill="white"/>
<path d="M1116.94 135.707C1115.55 134.428 1113.69 133.363 1111.51 132.599C1109.32 131.835 1106.86 131.392 1104.34 131.306H1011.51C1008.99 131.392 1006.54 131.835 1004.35 132.599C1002.16 133.363 1000.3 134.428 998.918 135.707L971.85 164.111C971.585 165.891 972.171 167.678 973.538 169.262L991.897 188.241L1024.67 154.001H1128.26C1130.95 154.065 1133.57 154.564 1135.84 155.445L1116.98 135.697" fill="#5072AA"/>
<path d="M972.981 162.879L971.787 164.121C971.523 165.9 972.109 167.688 973.474 169.272L991.833 188.25L1001.59 178.044L972.933 162.869" fill="#4D6796"/>
<path d="M1013.9 145.913C1012.78 145.913 1011.68 145.712 1010.75 145.335C1009.82 144.959 1009.09 144.423 1008.66 143.797C1008.24 143.17 1008.12 142.481 1008.34 141.816C1008.56 141.151 1009.1 140.541 1009.89 140.061C1010.69 139.582 1011.7 139.255 1012.8 139.123C1013.9 138.991 1015.04 139.059 1016.07 139.318C1017.11 139.578 1017.99 140.017 1018.61 140.581C1019.24 141.144 1019.57 141.807 1019.57 142.485C1019.57 143.394 1018.97 144.266 1017.91 144.909C1016.85 145.552 1015.41 145.913 1013.9 145.913V145.913ZM1106.73 142.485C1106.74 142.902 1106.61 143.315 1106.36 143.702C1106.1 144.089 1105.72 144.442 1105.24 144.74C1104.76 145.038 1104.18 145.276 1103.55 145.44C1102.92 145.604 1102.24 145.691 1101.55 145.696C1100.86 145.701 1100.17 145.624 1099.54 145.469C1098.9 145.315 1098.31 145.085 1097.82 144.794C1096.82 144.206 1096.25 143.404 1096.24 142.562C1096.24 142.562 1096.24 142.504 1096.24 142.485C1096.24 141.644 1096.79 140.837 1097.77 140.242C1098.76 139.647 1100.09 139.312 1101.48 139.312C1102.88 139.312 1104.21 139.647 1105.19 140.242C1106.18 140.837 1106.73 141.644 1106.73 142.485V142.485Z" fill="white"/>
<path d="M1163.34 184.322L1135.77 155.436C1133.5 154.554 1130.89 154.056 1128.19 153.991H1090.86L1123.18 188.443L1072.04 243.085C1070.73 244.349 1068.92 245.395 1066.78 246.128H1104.36C1106.88 246.042 1109.33 245.6 1111.52 244.835C1113.71 244.071 1115.57 243.007 1116.95 241.728L1163.37 193.113C1164.51 191.75 1165.1 190.244 1165.1 188.717C1165.1 187.19 1164.51 185.685 1163.37 184.322" fill="#CC4232"/>
<path d="M1137.03 156.755L1135.79 155.455C1133.52 154.573 1130.9 154.075 1128.21 154.011H1090.86L1100.58 164.371L1137.03 156.745" fill="#B23F33"/>
<path d="M1101.48 237.732C1100.35 237.732 1099.26 237.531 1098.33 237.154C1097.39 236.778 1096.67 236.242 1096.24 235.616C1095.81 234.99 1095.7 234.3 1095.92 233.635C1096.14 232.97 1096.67 232.36 1097.47 231.88C1098.26 231.401 1099.27 231.074 1100.37 230.942C1101.47 230.81 1102.61 230.878 1103.65 231.137C1104.68 231.397 1105.57 231.836 1106.19 232.4C1106.81 232.963 1107.14 233.626 1107.14 234.304C1107.14 235.213 1106.55 236.085 1105.48 236.728C1104.42 237.371 1102.98 237.732 1101.48 237.732V237.732ZM1145.57 192.073C1144.44 192.073 1143.35 191.872 1142.42 191.495C1141.48 191.118 1140.76 190.583 1140.33 189.957C1139.9 189.33 1139.79 188.641 1140.01 187.976C1140.22 187.311 1140.76 186.701 1141.56 186.221C1142.35 185.742 1143.36 185.415 1144.46 185.283C1145.56 185.151 1146.7 185.219 1147.73 185.478C1148.77 185.738 1149.66 186.177 1150.28 186.741C1150.9 187.304 1151.23 187.967 1151.23 188.645C1151.23 189.554 1150.64 190.426 1149.57 191.069C1148.51 191.712 1147.07 192.073 1145.57 192.073" fill="white"/>
<path d="M1025.33 222.885L973.506 169.272C972.14 167.688 971.555 165.9 971.818 164.121L952.536 184.341C951.398 185.704 950.805 187.21 950.805 188.736C950.805 190.263 951.398 191.769 952.536 193.132L998.982 241.728C1000.37 243.005 1002.23 244.067 1004.42 244.83C1006.6 245.593 1009.06 246.034 1011.58 246.119H1066.81C1068.96 245.385 1070.76 244.339 1072.07 243.076L1090.98 222.856H1025.33" fill="#ECB02A"/>
<path d="M1063.61 246.128H1066.8C1068.94 245.395 1070.75 244.349 1072.05 243.085L1090.97 222.865H1070.86L1063.61 246.109" fill="#C79732"/>
<path d="M1013.9 237.732C1012.78 237.732 1011.68 237.531 1010.75 237.154C1009.82 236.778 1009.09 236.242 1008.66 235.616C1008.24 234.99 1008.12 234.3 1008.34 233.635C1008.56 232.97 1009.1 232.36 1009.89 231.88C1010.69 231.401 1011.7 231.074 1012.8 230.942C1013.9 230.81 1015.04 230.878 1016.07 231.137C1017.11 231.397 1017.99 231.836 1018.61 232.4C1019.24 232.963 1019.57 233.626 1019.57 234.304C1019.57 235.213 1018.97 236.085 1017.91 236.728C1016.85 237.371 1015.4 237.732 1013.9 237.732V237.732ZM969.732 192.073C968.611 192.073 967.515 191.872 966.583 191.495C965.651 191.118 964.924 190.583 964.495 189.957C964.066 189.33 963.954 188.641 964.173 187.976C964.392 187.311 964.931 186.701 965.724 186.221C966.517 185.742 967.527 185.415 968.627 185.283C969.726 185.151 970.866 185.219 971.902 185.478C972.937 185.738 973.823 186.177 974.446 186.741C975.068 187.304 975.401 187.967 975.401 188.645C975.401 189.554 974.804 190.426 973.741 191.069C972.677 191.712 971.236 192.073 969.732 192.073Z" fill="white"/>
<path d="M601.464 245.241C601.93 244.902 602.332 244.554 602.773 244.202L602.325 243.118C602.565 242.773 602.827 242.419 603.049 242.069C603.016 241.721 603.002 241.374 602.937 241.035C602.842 240.692 602.694 240.356 602.495 240.03C602.381 239.703 602.301 239.371 602.258 239.036L602.123 238.048L602.498 237.033L602.246 236.058L602.158 235.07C602.324 234.72 602.509 234.369 602.656 234.019L602.232 233.051L600.849 232.195L600.569 231.219C600.472 230.894 600.327 230.573 600.192 230.252C600.309 229.896 600.379 229.539 600.401 229.184C600.217 228.868 600.063 228.546 599.825 228.252L598.917 227.354L598.603 226.332L596.673 225.702C596.54 225.372 596.337 225.055 596.155 224.729C595.757 224.466 595.298 224.22 594.856 223.975C594.695 223.643 594.491 223.317 594.245 223.001C593.794 222.756 593.364 222.507 592.869 222.284C592.421 222.036 591.9 221.823 591.319 221.648C591.015 221.553 590.92 221.357 590.551 221.289C590.552 221.248 590.584 221.207 590.641 221.174C590.993 220.668 590.479 220.913 590.398 220.898C589.962 220.826 589.508 220.773 589.042 220.742C588.373 220.6 587.674 220.487 586.954 220.402C586.281 220.142 585.541 219.924 584.746 219.751C583.741 219.843 582.747 219.989 581.784 220.186C580.645 220.139 579.47 220.206 578.331 220.384C577.358 220.783 576.547 221.268 575.948 221.807C574.912 222.143 573.979 222.555 573.189 223.026C572.909 223.51 572.75 224.002 572.715 224.49C572.593 224.904 572.529 225.318 572.522 225.73C572.526 226.114 572.562 226.485 572.611 226.815L572.322 227.826L573.737 228.706L572.267 229.813L573.404 230.704L573.914 231.635L573.625 232.652L573.833 233.613L573.542 234.633L574.454 235.518L575.143 236.418L574.512 237.473L575.476 238.339L574.941 239.386L576.447 240.178L575.648 241.255L576.674 242.103L575.523 243.222L577.519 243.95L577.374 244.958L576.454 246.094L577.914 246.914L578.107 247.93L577.781 249.076C578.48 249.316 579.21 249.536 579.967 249.736C580.147 250.067 580.33 250.388 580.555 250.728C580.685 251.152 580.9 251.563 581.198 251.957C581.968 252.332 582.871 252.637 583.872 252.863C584.554 253.303 585.457 253.647 586.508 253.871C587.649 253.977 588.858 253.945 590.035 253.779L590.161 253.734C591.166 253.352 592.002 252.871 592.604 252.331C593.745 252.212 595.081 251.841 595.976 251.752C596.439 251.39 596.804 251.005 597.24 250.638C597.675 250.272 598.296 249.986 598.781 249.643C598.844 249.217 598.857 248.792 598.823 248.37C599.569 248.086 600.287 247.783 600.973 247.464C600.89 247.056 600.761 246.653 600.589 246.256C600.864 245.934 601.151 245.59 601.464 245.241Z" fill="#102B4C"/>
<path d="M587.831 298.2C587.831 298.2 587.77 297.018 587.6 295.854C587.431 294.69 587.221 293.534 587.221 293.534L587.926 292.054L588.459 290.883C588.538 290.605 589.77 289.135 582.705 289.461L582.714 289.429L583.24 289.378C584.274 289.268 585.319 289.152 586.175 289.036C587.931 288.784 588.436 288.539 588.468 288.326C588.492 287.159 588.334 286.004 587.996 284.87L587.932 280.348L587.306 275.905C587.622 274.398 587.977 272.897 588.371 271.403C588.768 269.911 589.439 268.319 589.923 266.786C589.682 265.273 589.389 263.77 589.042 262.275L589.924 257.651C589.531 256.156 589.097 254.668 588.623 253.187C588.369 251.688 588.096 250.189 587.784 248.695C587.714 247.179 587.626 245.664 587.47 244.152C586.611 242.717 585.703 241.291 584.774 239.869L584.837 235.265L584.487 230.718C583.654 229.151 582.576 227.629 581.262 226.166C580.798 224.478 579.999 222.834 578.877 221.256C577.106 219.774 574.951 218.42 572.457 217.224C569.844 216.031 566.832 215.055 563.52 214.327C560.654 213.246 557.458 212.372 554.014 211.73C550.39 211.663 546.716 211.783 543.052 212.088C539.652 212.325 536.261 212.662 532.897 213.097C529.625 212.894 526.371 212.761 523.113 212.642L513.701 213.302L504.573 215.457L495.08 214.939L485.935 216.82C482.833 217.05 479.708 217.261 476.419 217.549C473.018 217.81 469.631 218.183 466.281 218.665C462.465 218.986 458.697 219.559 455.086 220.369C451.415 221.46 448.076 222.821 445.207 224.397C443.282 226.12 441.843 227.939 440.933 229.799C439.42 231.362 438.153 232.967 437.144 234.598C434.942 236.05 432.842 237.545 430.918 239.018C431.041 240.645 431.006 242.262 431.303 243.844C430.56 245.389 429.751 246.933 429.167 248.484C427.785 250.013 426.399 251.556 425.122 253.119L425.511 255.471L426.07 257.792C426.225 259.341 426.536 260.873 426.838 262.4C425.445 263.971 424.229 265.548 422.933 267.143C423.78 268.652 424.786 270.134 425.7 271.607L423.717 276.308L425.807 280.729C425.133 282.297 424.417 283.879 423.798 285.453C424.99 286.873 426.219 288.282 427.485 289.681C427.158 291.225 426.841 292.769 426.593 294.304L429.157 298.586C428.713 300.143 428.457 301.674 428.18 303.209C429.219 304.609 429.806 306.069 431.486 307.41C432.554 308.81 433.623 310.237 434.758 311.633L434.888 311.908L434.878 311.94L435.01 311.941L434.991 312.011L434.997 312.154L435.032 312.729L435.119 313.883C435.184 314.653 435.279 315.426 435.405 316.202C436.063 317.692 436.88 319.157 437.854 320.589C438.354 321.332 438.968 322.05 439.692 322.738C440.375 323.479 441.223 324.174 442.222 324.814L443.866 325.682C444.441 325.956 445.095 326.185 445.706 326.432L447.562 327.154C448.211 327.368 448.894 327.56 449.545 327.766L451.283 328.505C451.879 328.738 452.521 328.943 453.129 329.167C454.343 329.616 455.615 330.03 456.937 330.408C459.37 331.319 461.915 332.163 464.561 332.936L468.784 333.852L473.104 334.662C476.271 334.869 479.418 335.047 482.591 335.133C484.002 335.425 485.458 335.661 486.909 335.916C488.359 336.171 489.824 336.407 491.311 336.634C492.894 336.691 494.481 336.73 496.078 336.736C497.676 336.742 499.258 336.766 500.871 336.749C502.412 336.875 503.959 336.978 505.513 337.058C507.073 337.161 508.699 337.2 510.32 337.252C516.862 336.983 523.41 336.454 529.9 335.671C531.52 335.464 533.145 335.238 534.74 334.985C536.335 334.732 537.948 334.451 539.531 334.142C542.832 333.666 546.085 333.078 549.265 332.382C552.369 331.523 555.349 330.548 558.175 329.466L560.253 328.615C560.932 328.325 561.571 328.007 562.233 327.708C563.557 327.095 564.813 326.448 565.992 325.77C568.002 324.302 569.712 322.754 571.093 321.15C573.062 319.738 574.825 318.269 576.366 316.754C578.11 315.283 579.675 313.774 581.135 312.269C582.08 310.712 582.888 309.173 583.65 307.661C584.254 306.17 584.906 304.514 585.297 302.943C586.308 301.375 587.154 299.792 587.831 298.2V298.2Z" fill="#E68688"/>
<path d="M598.356 273.116C596.912 272.838 596.012 272.676 595.467 272.597C594.075 272.37 594.789 272.618 594.758 272.66C594.597 272.828 594.459 273 594.347 273.174C593.971 273.384 593.57 273.583 593.146 273.77C592.438 273.809 591.733 273.802 591.052 273.75C590.808 274.032 590.495 274.303 590.122 274.556C589.444 274.504 588.779 274.432 588.131 274.338C587.654 274.609 587.142 274.866 586.597 275.106C585.895 274.907 585.225 274.686 584.591 274.443C583.98 274.578 583.358 274.699 582.729 274.805C582.092 274.849 581.422 274.875 580.743 274.901C580.064 274.927 579.356 274.953 578.644 274.965L576.561 274.704L573.977 275.605C573.392 275.201 572.837 274.793 572.331 274.376C571.517 274.577 570.703 274.777 569.885 274.959C569.147 274.994 568.422 275.015 567.689 275.031C567.108 274.845 566.538 274.654 566.018 274.454C565.398 274.37 564.779 274.285 564.204 274.178C563.751 273.96 563.331 273.727 562.946 273.48C562.256 273.51 561.573 273.518 560.864 273.515C560.222 273.493 559.604 273.42 559.034 273.299C558.885 272.961 558.794 272.615 558.762 272.263C558.104 272.192 557.464 272.096 556.847 271.976C556.837 271.615 556.852 271.263 556.907 270.902C556.048 270.818 555.208 270.706 554.392 270.567C554.607 270.143 554.847 269.733 555.116 269.319C554.534 269.105 553.974 268.845 553.425 268.613C553.897 268.154 554.406 267.696 554.908 267.26C553.896 267.061 552.996 266.932 552.021 266.737C552.1 266.405 552.232 266.073 552.417 265.745C552.941 265.394 553.538 265.069 554.197 264.775C553.66 264.533 553.173 264.267 552.74 263.978C552.931 263.702 553.163 263.43 553.436 263.165C553.979 262.943 554.55 262.738 555.143 262.552C554.63 262.196 554.197 261.811 553.852 261.404C554.237 261.153 554.653 260.912 555.098 260.684C555.685 260.513 556.293 260.364 556.918 260.239C557.124 259.915 557.391 259.598 557.718 259.292C558.45 259.212 559.186 259.158 559.922 259.128C560.428 258.943 561.065 258.833 561.599 258.653C561.88 258.216 562.223 257.786 562.628 257.366C563.525 257.537 564.411 257.749 565.254 257.942C565.803 257.711 566.396 257.49 566.986 257.278C567.632 257.201 568.264 257.142 568.991 257.079C569.602 256.729 570.278 256.383 570.96 256.047L573.356 256.57C574.054 256.243 574.772 255.917 575.522 255.609L577.813 255.668C578.574 255.786 579.332 255.914 580.072 256.042C580.81 255.839 581.557 255.642 582.312 255.452C583.048 255.524 583.775 255.595 584.479 255.681C585.218 255.609 585.935 255.551 586.661 255.493C587.387 255.436 588.139 255.285 588.873 255.2C589.575 255.141 590.279 255.123 590.97 255.146C591.627 255.163 592.277 255.2 592.915 255.257C593.415 255.405 593.872 255.582 594.279 255.784C594.714 255.842 595.132 255.92 595.527 256.019C595.745 256.109 595.915 256.222 596.028 256.352C595.863 256.515 595.606 256.654 595.289 256.753C595.434 257.009 595.599 257.46 595.757 257.8L597.532 258.743L597.674 259.87L597.839 260.983L596.988 262.18L597.112 263.269C597.277 263.623 597.422 263.976 597.556 264.334L596.878 265.454C597.446 265.783 598.087 266.123 598.649 266.476C598.401 266.849 598.154 267.217 597.898 267.585C598.04 267.948 598.126 268.31 598.229 268.681L597.102 269.759L597.161 270.848C597.164 271.18 597.12 271.514 597.028 271.848C596.96 272.083 596.252 272.211 596.944 272.574C596.994 272.616 596.726 272.794 598.356 273.116Z" fill="#96CCED"/>
<path d="M598.876 273.217L598.58 273.159L598.876 273.217Z" fill="#96CCED"/>
<path d="M606.158 267.479C606.096 267.066 606.006 266.653 605.884 266.249C606.222 265.826 606.512 265.407 606.795 264.979C606.606 264.579 606.436 264.179 606.19 263.783C606.134 263.379 606.068 262.98 605.982 262.586L606.199 261.36L604.898 260.282L605.576 259.029L605.925 257.805L604.934 256.734L605.33 256.108L605.523 255.795C605.622 255.673 605.677 255.547 605.687 255.421C605.423 254.749 604.885 254.124 604.101 253.581C603.326 253.102 602.368 252.702 601.269 252.4C600.617 251.929 599.863 251.495 599.017 251.105C597.919 251.07 596.802 251.094 595.686 251.175C594.693 251.215 593.698 251.289 592.709 251.396C591.953 251.097 591.169 250.826 590.357 250.554C589.426 250.503 588.595 250.463 587.723 250.436C586.77 250.728 585.851 251.029 584.96 251.336C584.156 251.069 583.338 250.82 582.49 250.576C581.619 250.841 580.756 251.115 579.92 251.394L577.407 251.481L574.886 251.564L572.273 251.237L569.685 251.356C568.884 251.71 568.11 252.068 567.341 252.445C566.509 252.576 565.607 252.721 564.747 252.884C563.702 252.665 562.585 252.437 561.426 252.254C560.688 252.706 559.999 253.174 559.361 253.657C558.473 253.852 557.566 254.015 556.695 254.247C555.541 254.237 554.377 254.272 553.212 254.353C552.607 254.841 552.065 255.345 551.59 255.861C551.024 256.315 550.529 256.786 550.111 257.269C548.786 257.378 547.471 257.547 546.183 257.773C546.061 258.383 546.043 258.99 546.129 259.589C545.168 259.945 544.247 260.327 543.372 260.734C543.349 261.274 543.402 261.81 543.529 262.338C542.634 262.783 541.803 263.256 541.044 263.755C541.569 264.274 542.207 264.76 542.949 265.205C542.437 265.695 541.996 266.198 541.631 266.711C542.124 267.154 542.702 267.571 543.357 267.956C542.927 268.47 542.509 269.041 542.136 269.519C542.772 269.845 543.41 270.161 544.071 270.464C544.398 270.842 544.735 271.221 545.112 271.59C544.732 272.146 544.411 272.707 544.151 273.272C544.567 273.67 545.013 274.063 545.517 274.452C546.074 274.83 546.706 275.179 547.406 275.494C548.537 275.65 549.699 275.766 550.883 275.842C551.435 276.198 552.034 276.535 552.676 276.851C552.993 277.363 553.382 277.861 553.841 278.34C554.581 278.634 555.341 278.919 556.138 279.177C557.358 279.049 558.568 278.883 559.762 278.679C560.324 279.097 560.93 279.492 561.584 279.887C562.624 279.791 563.642 279.671 564.634 279.541C565.398 279.748 566.173 279.95 566.953 280.133C567.913 280.087 568.771 280.03 569.661 279.96L572.168 280.058L574.625 280.202C575.382 280.432 576.163 280.68 576.977 280.878C577.847 280.914 578.727 280.946 579.639 280.964C580.566 280.964 581.5 280.928 582.432 280.856C583.399 280.518 584.331 280.17 585.231 279.799C586.195 279.85 587.17 279.874 588.152 279.873C589.223 279.984 590.319 280.057 591.43 280.09C592.459 279.854 593.462 279.585 594.431 279.285C595.372 278.912 596.257 278.505 597.076 278.069C598.206 277.823 599.294 277.523 600.321 277.174C600.576 276.871 600.8 276.564 600.99 276.254C601.254 275.793 601.423 275.332 601.423 275.332C601.75 275.229 602.059 275.113 602.345 274.984L602.974 274.67C603.153 274.607 604.209 274.219 598.88 273.199L598.585 273.141L598.882 273.195L599.135 273.234C599.633 273.313 600.131 273.392 600.542 273.442C601.455 273.558 601.734 273.542 601.826 273.487C602.234 273.172 602.504 272.825 602.617 272.471C602.976 272.04 603.284 271.602 603.539 271.16C603.671 270.698 603.729 270.328 603.809 269.912L604.893 268.699L606.158 267.479ZM594.76 272.664C594.599 272.832 594.461 273.004 594.349 273.179C593.973 273.389 593.572 273.588 593.148 273.774C592.44 273.814 591.735 273.807 591.054 273.754C590.81 274.037 590.497 274.308 590.124 274.561C589.446 274.509 588.781 274.436 588.133 274.342C587.656 274.614 587.144 274.871 586.599 275.11C585.897 274.912 585.227 274.691 584.593 274.447C583.982 274.583 583.36 274.703 582.731 274.809C582.094 274.854 581.424 274.88 580.745 274.906C580.066 274.932 579.358 274.958 578.646 274.969L576.563 274.708L573.979 275.61C573.394 275.206 572.839 274.798 572.333 274.381C571.519 274.581 570.705 274.782 569.887 274.964C569.149 274.999 568.424 275.019 567.691 275.036C567.11 274.849 566.54 274.659 566.02 274.459C565.4 274.374 564.781 274.29 564.206 274.182C563.753 273.965 563.333 273.732 562.948 273.485C562.259 273.515 561.575 273.522 560.866 273.52C560.224 273.498 559.606 273.424 559.036 273.303C558.887 272.966 558.796 272.619 558.764 272.268C558.106 272.196 557.466 272.1 556.849 271.981C556.839 271.619 556.854 271.267 556.909 270.907C556.05 270.822 555.21 270.711 554.394 270.572C554.609 270.148 554.849 269.738 555.118 269.324C554.536 269.11 553.976 268.85 553.427 268.617C553.899 268.159 554.408 267.7 554.91 267.265C553.898 267.065 552.998 266.936 552.023 266.742C552.102 266.41 552.235 266.078 552.419 265.75C552.943 265.399 553.54 265.074 554.199 264.78C553.662 264.538 553.175 264.271 552.742 263.983C552.933 263.706 553.165 263.434 553.438 263.17C553.981 262.948 554.552 262.743 555.145 262.556C554.631 262.2 554.199 261.816 553.854 261.409C554.239 261.158 554.655 260.917 555.1 260.689C555.687 260.518 556.295 260.369 556.92 260.243C557.126 259.92 557.393 259.603 557.72 259.297C558.452 259.217 559.188 259.162 559.924 259.133C560.43 258.948 561.067 258.838 561.601 258.658C561.882 258.221 562.226 257.791 562.63 257.371C563.527 257.541 564.413 257.754 565.257 257.947C565.805 257.716 566.398 257.495 566.988 257.283C567.634 257.205 568.266 257.147 568.993 257.084C569.604 256.733 570.28 256.388 570.962 256.052L573.358 256.575C574.056 256.248 574.774 255.921 575.524 255.614L577.815 255.673C578.576 255.791 579.334 255.919 580.074 256.046C580.813 255.844 581.559 255.647 582.314 255.456C583.05 255.528 583.777 255.6 584.481 255.686C585.22 255.614 585.937 255.556 586.663 255.498C587.389 255.44 588.141 255.29 588.875 255.204C589.577 255.145 590.281 255.127 590.972 255.15C591.629 255.168 592.279 255.205 592.917 255.262C593.417 255.41 593.874 255.587 594.281 255.789C594.716 255.846 595.134 255.925 595.529 256.023C595.747 256.113 595.917 256.227 596.03 256.357C595.865 256.519 595.608 256.659 595.291 256.758C595.436 257.014 595.601 257.465 595.759 257.804L597.534 258.748L597.676 259.875L597.842 260.988L596.99 262.184L597.114 263.274C597.279 263.628 597.424 263.981 597.558 264.339L596.88 265.458C597.448 265.788 598.089 266.128 598.651 266.48C598.403 266.853 598.156 267.221 597.9 267.59C598.042 267.952 598.128 268.314 598.231 268.686L597.101 269.764L597.159 270.853C597.163 271.184 597.118 271.518 597.026 271.852C596.959 272.088 596.251 272.215 596.942 272.579C597.057 272.64 596.788 272.818 598.417 273.144C596.973 272.866 596.073 272.705 595.528 272.625C594.073 272.375 594.789 272.618 594.76 272.664Z" fill="#1B557A"/>
<path d="M557.507 284.698C557.276 284.413 556.994 284.142 556.736 283.885C556.522 283.707 556.348 283.622 556.151 283.481L556.066 282.553L555.355 281.727L554.435 280.94L553.724 280.113L553.142 279.269L552.98 278.341L552.348 277.506L551.866 276.639L551.855 275.685L551.145 274.854L549.782 274.16L549.299 273.298L548.787 272.441L548.765 271.486L548.203 270.638L547.463 269.848L547.226 268.919L545.699 268.27L545.418 267.364L544.535 266.577L544.346 265.649L543.551 264.854L542.766 264.054C542.583 263.867 542.803 263.591 542.157 263.502C542.079 263.459 541.974 263.43 541.855 263.418C541.735 263.406 541.607 263.412 541.486 263.435C541.206 263.256 540.912 263.091 540.912 263.091C540.417 262.736 539.786 262.434 539.047 262.198C538.456 261.839 537.723 261.542 536.885 261.32C535.864 261.317 534.827 261.408 533.829 261.587C532.719 261.553 531.577 261.648 530.495 261.866C529.685 262.23 529.01 262.66 528.508 263.13C527.632 263.413 526.819 263.745 526.089 264.117C525.802 264.518 525.588 264.927 525.448 265.338C525.236 265.716 525.077 266.076 524.95 266.422L524.671 267.401L524.086 268.322L524.908 269.256L523.258 270.167L523.825 271.099L523.845 272.025L523.157 272.945L522.894 273.869L522.187 274.789L522.546 275.719L522.736 276.647L521.765 277.564L522.181 278.495L521.286 279.412L522.192 280.348L521.08 281.296L521.581 282.227L520.071 283.278L521.462 284.171L521.208 284.632C521.149 284.741 521.102 284.85 521.067 284.96L520.953 285.362C520.508 285.927 520.066 286.581 519.601 287.317C519.731 287.569 519.867 287.802 520.007 288.016L520.06 288.095L520.306 288.098L520.857 288.057L521.913 287.97L525.089 288.176L526.695 288.419C527.079 288.496 527.297 288.563 527.579 288.635L529.709 287.998L531.565 288.127L533.367 288.441L535.319 288.233L537.092 288.648L538.954 288.754L541.036 288.255C541.567 288.515 542.117 288.775 542.707 289.031L544.776 288.875C545.447 288.909 546.148 288.939 546.853 288.955C547.605 288.772 548.341 288.58 549.051 288.378C549.238 288.417 549.431 288.449 549.629 288.476C549.904 288.507 550.203 288.519 550.5 288.54C551.132 288.58 551.775 288.599 552.423 288.596C553.393 288.323 554.223 287.935 554.824 287.475C555.695 287.171 556.363 286.745 556.72 286.265C557.25 285.769 557.521 285.229 557.507 284.698V284.698Z" fill="#102B4C"/>
<path d="M466.585 262.054L466.758 262.176L464.717 262.235C465.261 262.12 465.804 262.005 466.355 261.899L466.585 262.054Z" fill="#96CCED"/>
<path d="M466.758 262.176C467.261 262.533 467.658 262.833 467.994 263.082C467.408 263.268 466.77 263.404 466.11 263.485C465.988 263.484 465.777 263.394 465.393 263.015C465.357 262.978 465.323 262.931 465.278 262.889C465.704 262.621 466.203 262.381 466.758 262.176V262.176Z" fill="#96CCED"/>
<path d="M522.662 263.458L522.303 264.719C522.183 265.14 521.98 265.555 521.794 265.974C521.306 266.391 520.793 266.799 520.262 267.201L519.499 268.417L520.582 269.729C520.417 270.144 520.259 270.564 520.067 270.975C519.057 271.32 518.018 271.643 516.953 271.941C517.276 272.37 517.594 272.813 517.863 273.265C517.494 273.627 517.101 273.98 516.682 274.319C515.807 274.559 514.905 274.772 513.985 274.956C514.052 275.359 514.065 275.768 514.024 276.179C513.883 276.57 513.677 276.958 513.409 277.34C512.325 277.379 511.248 277.368 510.192 277.309C510.099 277.797 509.922 278.285 509.663 278.768C508.762 278.81 507.859 278.825 506.979 278.826C506.507 279.187 505.984 279.562 505.407 279.927C504.483 279.849 503.489 279.751 502.549 279.631C502.052 280.113 501.47 280.593 500.861 281.074C499.929 281.023 499.003 280.954 498.079 280.876C497.353 281.198 496.616 281.529 495.843 281.85L492.993 281.36L490.664 282.264C489.84 282.4 489.019 282.526 488.211 282.639C487.349 282.389 486.524 282.114 485.74 281.814C484.992 281.885 484.259 281.934 483.547 281.973C482.836 282.013 482.112 282.131 481.405 282.189C480.605 282.526 479.763 282.839 478.887 283.124C478.207 283.03 477.544 282.915 476.903 282.78C476.457 282.443 476.098 282.077 475.833 281.691C475.369 281.531 474.942 281.349 474.559 281.146C473.622 281.332 472.654 281.461 471.678 281.53C471.678 281.134 471.793 280.733 472.018 280.339C471.283 280.265 470.586 280.14 469.948 279.967C469.914 279.619 469.943 279.253 469.985 278.874C469.565 278.587 469.156 278.264 468.748 277.935C468.571 277.559 468.412 277.154 468.252 276.754L468.006 275.524L468.996 274.144L468.958 272.916L468.745 271.705C468.09 271.347 467.446 270.984 466.834 270.607L467.61 269.313C468.119 268.855 468.636 268.434 469.164 268.008L468.994 266.811C468.794 266.453 468.616 266.113 468.482 265.787C468.795 265.513 469.186 265.259 469.643 265.034C469.643 265.034 469.368 264.837 469.129 264.644C468.965 264.514 468.817 264.378 468.687 264.237L469.168 264.242C469.258 264.236 469.347 264.237 469.432 264.244C469.432 264.244 469.607 264.297 469.286 264.062L468.43 263.415L467.988 263.072C468.826 262.918 469.696 262.788 470.555 262.662C471.4 262.499 472.231 262.317 473.047 262.116L475.754 262.045C476.698 262.054 477.569 262.118 478.465 262.159C479.285 261.972 480.121 261.795 480.963 261.627L483.601 261.731L486.129 261.227C486.992 261.119 487.851 261.058 488.719 260.969C489.577 260.977 490.444 260.958 491.294 260.994L493.933 260.334L496.467 260.701C497.308 260.774 498.137 260.884 498.969 260.984C499.843 260.872 500.733 260.737 501.622 260.639L503.988 261.199L506.534 261.196C507.406 261.158 508.261 261.143 509.124 261.137C509.857 261.385 510.587 261.614 511.287 261.881L514.054 261.564C514.977 261.481 515.878 261.438 516.805 261.373C517.461 261.694 518.085 262.025 518.685 262.378L520.879 262.779C521.065 262.631 521.309 262.501 521.595 262.396C521.881 262.291 522.202 262.214 522.538 262.169C522.428 262.324 522.254 262.469 522.027 262.596C521.801 262.722 521.526 262.827 521.222 262.902C521.48 262.874 521.741 262.889 521.957 262.947C522.229 263.103 522.466 263.275 522.662 263.458Z" fill="#96CCED"/>
<path d="M530.165 270.233C529.882 270.694 529.59 271.154 529.254 271.637C529.218 272.128 529.142 272.627 529.053 273.141C527.988 273.557 526.929 273.954 525.876 274.329C526.097 274.893 526.249 275.466 526.332 276.047C525.826 276.543 525.259 277.026 524.633 277.494C523.722 277.898 522.767 278.277 521.775 278.63C521.329 279.166 520.813 279.692 520.229 280.204C519.25 280.547 518.229 280.858 517.173 281.133C516.287 281.474 515.369 281.793 514.422 282.089C513.925 282.711 513.365 283.324 512.745 283.926C511.574 284.049 510.42 284.149 509.304 284.212C508.303 284.406 507.306 284.587 506.316 284.739C505.524 285.195 504.704 285.618 503.862 286.05C502.713 285.965 501.608 285.857 500.525 285.74C499.563 285.796 498.546 285.846 497.571 285.883C496.786 286.413 495.984 286.938 495.172 287.463C494.103 287.263 493.046 287.053 491.992 286.835C491.078 287.122 490.135 287.41 489.158 287.683C488.105 287.529 487.066 287.357 486.045 287.19C485.035 287.565 483.988 287.914 482.909 288.234C481.857 288.076 480.822 287.89 479.819 287.691C478.67 287.849 477.51 287.972 476.346 288.06C475.371 287.775 474.444 287.457 473.571 287.107C472.435 287.076 471.314 287.006 470.215 286.899C468.997 286.836 467.804 286.721 466.652 286.554C465.826 286.136 465.089 285.678 464.45 285.185C463.595 284.791 462.823 284.355 462.144 283.885C461.716 283.357 461.389 282.807 461.165 282.24C460.585 281.808 460.06 281.358 459.591 280.891C458.823 280.499 458.096 280.094 457.397 279.693C457.963 279.101 458.574 278.551 459.183 278.006C458.339 277.65 457.572 277.286 456.78 276.913L456.901 275.492L456.505 274.126L456.249 272.734L455.69 271.376C456.279 270.867 456.875 270.368 457.489 269.874C457.132 269.435 456.796 268.987 456.471 268.535L457.898 267.08C457.63 266.563 457.44 266.033 457.327 265.495C458.037 264.929 458.824 264.383 459.684 263.864C460.158 263.241 460.822 262.648 461.652 262.104C461.862 261.887 462.124 261.681 462.432 261.491C462.744 261.291 463.086 261.102 463.454 260.926C463.576 260.862 463.526 260.343 464.623 260.807L464.757 260.869C464.725 260.907 464.698 260.945 464.677 260.984C464.652 261.072 464.024 261.149 464.597 261.961C464.654 262.049 464.721 262.134 464.798 262.217V262.217C464.835 262.255 464.872 262.292 464.899 262.329L465.365 262.853C465.409 262.895 465.443 262.942 465.48 262.979C465.859 263.376 466.067 263.476 466.198 263.449C466.857 263.368 467.496 263.232 468.082 263.046L468.523 263.388L469.379 264.035C469.7 264.27 469.564 264.218 469.526 264.218C469.441 264.21 469.352 264.209 469.262 264.215L468.781 264.21C468.911 264.351 469.059 264.487 469.223 264.618C469.462 264.81 469.736 265.007 469.736 265.007C469.28 265.232 468.888 265.486 468.576 265.76C468.71 266.086 468.888 266.426 469.088 266.784L469.258 267.981C468.73 268.407 468.209 268.842 467.704 269.286L466.928 270.58C467.54 270.957 468.184 271.32 468.838 271.678L469.051 272.889L469.089 274.117L468.1 275.497L468.346 276.727C468.506 277.127 468.665 277.532 468.842 277.909C469.215 278.234 469.628 278.547 470.078 278.847C470.037 279.226 470.008 279.592 470.041 279.94C470.68 280.113 471.377 280.238 472.111 280.312C471.886 280.706 471.772 281.107 471.772 281.503C472.748 281.434 473.716 281.305 474.653 281.119C475.036 281.322 475.463 281.504 475.926 281.664C476.192 282.05 476.551 282.416 476.997 282.753C477.638 282.888 478.301 283.003 478.981 283.097C479.857 282.812 480.698 282.499 481.498 282.162C482.206 282.104 482.915 282.037 483.641 281.946C484.367 281.856 485.085 281.858 485.834 281.787C486.618 282.087 487.443 282.362 488.305 282.612C489.112 282.499 489.934 282.373 490.758 282.237L493.087 281.333L495.937 281.823C496.709 281.502 497.447 281.171 498.173 280.849C499.096 280.927 500.023 280.996 500.954 281.047C501.573 280.58 502.137 280.098 502.643 279.604C503.554 279.724 504.529 279.821 505.5 279.9C506.077 279.535 506.6 279.16 507.072 278.799C507.962 278.805 508.859 278.785 509.757 278.741C510.016 278.258 510.193 277.77 510.286 277.283C511.342 277.341 512.419 277.352 513.503 277.313C513.771 276.931 513.977 276.543 514.118 276.152C514.159 275.741 514.146 275.332 514.078 274.929C514.999 274.745 515.9 274.532 516.776 274.292C517.194 273.953 517.588 273.6 517.956 273.238C517.692 272.772 517.369 272.343 517.047 271.914C518.112 271.616 519.151 271.293 520.16 270.948C520.353 270.537 520.511 270.117 520.676 269.702L519.593 268.39L520.356 267.174C520.887 266.772 521.4 266.364 521.888 265.948C522.074 265.528 522.249 265.113 522.397 264.692C522.545 264.272 522.636 263.852 522.756 263.431C522.571 263.245 522.345 263.071 522.081 262.911C521.865 262.854 521.605 262.838 521.347 262.867C521.651 262.791 521.925 262.686 522.152 262.56C522.379 262.433 522.553 262.288 522.662 262.133C522.327 262.178 522.006 262.255 521.72 262.36C521.434 262.465 521.19 262.595 521.004 262.743L518.809 262.342C518.21 261.989 517.585 261.658 516.929 261.337C515.965 261.402 515.101 261.445 514.179 261.529L511.411 261.845C510.711 261.579 509.977 261.368 509.249 261.101C508.389 261.098 507.525 261.117 506.659 261.16L504.113 261.163L501.66 260.607C500.772 260.705 499.882 260.84 499.008 260.952C498.176 260.851 497.346 260.742 496.506 260.669L493.971 260.302L491.33 260.971L488.754 260.946C487.887 261.035 487.028 261.097 486.165 261.204L483.639 261.736L481 261.632C480.158 261.8 479.322 261.977 478.503 262.164C477.569 262.122 476.695 262.067 475.792 262.05L473.085 262.121C472.242 262.289 471.419 262.489 470.592 262.667C469.766 262.844 468.864 262.923 468.025 263.077C467.689 262.829 467.292 262.528 466.789 262.172L466.615 262.049L466.386 261.89C465.893 261.526 465.331 261.188 464.707 260.878C465.087 260.441 465.808 260.532 466.38 260.384C467.248 260.129 468.117 259.901 469.006 259.668C469.895 259.436 470.763 259.18 471.656 258.966L474.598 258.902C475.497 258.67 476.399 258.456 477.302 258.242C478.26 258.201 479.213 258.177 480.16 258.173C481.028 257.782 481.904 257.365 482.826 256.984L485.739 257.054C486.73 256.897 487.64 256.79 488.596 256.655C489.555 256.548 490.523 256.489 491.484 256.479L494.313 256.845L497.164 256.798C498.116 256.779 499.051 256.816 499.995 256.825C501.009 256.585 502.031 256.316 503.041 256.095L505.891 256.052L508.565 256.629C509.496 256.68 510.421 256.754 511.344 256.837C512.266 256.92 513.22 256.892 514.149 256.952L516.713 257.481C517.641 257.546 518.559 257.642 519.483 257.721C520.407 257.799 521.343 257.831 522.266 257.914C523.188 257.997 524.153 257.932 525.252 257.994C526.895 258.159 528.391 258.512 529.621 259.027C530.556 259.662 531.079 260.432 531.135 261.251C531.437 261.617 531.667 261.999 531.822 262.393L532.253 263.17C531.841 263.653 531.402 264.13 530.957 264.599C530.709 265.069 530.446 265.529 530.166 265.981L531.321 267.405C530.651 267.861 529.944 268.318 529.228 268.774L530.165 270.233Z" fill="#1B557A"/>
<path d="M468 263.063C467.415 263.249 466.776 263.386 466.116 263.467C465.994 263.466 465.783 263.376 465.399 262.997C465.362 262.959 465.328 262.913 465.283 262.871L464.818 262.347C464.828 262.31 464.754 262.273 464.717 262.235C464.64 262.152 464.572 262.066 464.516 261.978C463.943 261.167 464.533 261.089 464.596 261.002C464.617 260.963 464.644 260.924 464.676 260.887C465.3 261.197 465.862 261.535 466.355 261.899L466.584 262.058L466.757 262.181C467.262 262.533 467.659 262.833 468 263.063Z" fill="#1B557A"/>
<path d="M546.709 259.117C547.439 258.248 546.91 258.808 546.878 258.822L546.455 259.045C546.384 259.001 546.284 258.971 546.167 258.959L546.465 258.146L545.696 258.653L545.895 257.956L545.109 258.523L545.383 257.562L544.828 257.816L544.441 257.844L544.036 257.905L543.82 257.667L542.877 258.686L543.219 257.485L542.439 258.233L541.949 258.492L541.79 258.12L541.441 258.117L541.272 257.712L540.692 258.221L540.205 258.568L540.115 257.923L539.57 258.442L539.432 257.861L538.782 258.781L538.68 258.012L538.174 258.558L538.107 257.534L537.451 258.773L537.187 258.47L537.019 257.597L536.522 258.38L536.21 258.215L535.943 257.624L535.459 258.759L535.137 258.658L534.824 258.262L534.457 258.721L534.131 258.172L533.786 258.122L533.447 259.045L533.066 257.925L532.726 258.255L532.361 258.141L532.131 258.949L531.686 258.12L531.456 258.929L531.081 258.717L530.631 258.203L530.388 258.756L529.974 258.484L529.674 258.708L529.433 259.09L529.148 259.291L528.843 259.399L528.411 259.154L528.106 259.295L527.757 259.292L527.236 258.898L526.95 259.071L526.954 259.854L526.614 259.851L526.283 259.884L525.693 259.466L525.361 259.533L525.148 259.785L524.623 259.535L524.841 260.463L524.323 260.222L524.227 260.56L523.62 260.234L523.435 260.482L523.247 260.712C523.231 260.768 522.83 260.416 523.184 260.934C523.366 261.306 523.633 261.662 523.978 261.998L524.394 262.465L525.095 263.324C525.532 263.847 525.688 263.997 525.688 263.997L525.744 263.803L525.984 263.754L526.05 263.523L526.514 263.787L527.053 264.186L527.143 263.872L527.588 264.168L527.681 263.844L527.866 263.726L528.184 263.835L528.132 263.256L528.585 263.626L528.957 263.88L529.069 263.487L529.532 263.955L529.718 263.832L529.877 263.606L530.324 264.162L530.363 263.592L530.45 263.088L530.915 263.815L531.169 263.887L531.177 262.961L531.62 263.831L531.702 263.077L531.959 263.14L532.222 263.244L532.53 263.789L532.775 263.893L532.924 263.005L533.163 262.897L533.454 264.067L533.651 263.142L533.893 263.223L534.108 264.096L534.361 263.376L534.626 262.841L534.771 264.028L535.063 263.003L535.209 263.718L535.527 263.1L535.61 264.004L536.034 262.947L536.129 263.611L536.502 262.998L536.514 263.888L536.906 263.275L537.17 263.176L537.059 264.231L537.287 264.196L537.566 264.013L538.189 262.986L538.364 263.136L538.233 263.997L538.365 264.197L539.12 263.074L538.914 263.962L539.497 263.277L539.515 263.68L539.932 263.346L540.168 263.348L540.349 263.443L540.147 264.149L540.276 264.294L540.484 264.296L541.342 263.378L541.21 263.84L540.798 264.688L541.079 264.598L541.575 264.251L541.37 264.773L542.3 263.934L542.148 264.201L542.022 264.408C542.016 264.431 541.896 264.588 542.21 264.248L544.987 261.143L546.709 259.117Z" fill="#1B557A"/>
<path d="M462.219 263.3C462.089 262.46 462.065 263.011 462.039 263.034L461.622 263.303C461.403 263.281 461.173 263.279 460.943 263.297L460.197 262.595L459.577 263.177L458.802 262.577L458.186 263.21L457.419 262.35L456.774 262.687L456.108 262.801L455.443 262.943L454.749 262.788L454.184 263.843L453.391 262.742L452.8 263.552L452.158 263.879L451.449 263.581L450.784 263.658L450.072 263.331L449.458 263.895L448.822 264.301L448.086 263.729L447.467 264.307L446.741 263.8L446.166 264.758L445.418 264.06L444.804 264.657L444.029 263.723L443.477 264.996L442.771 264.753L442.053 263.954L441.46 264.773L440.772 264.664L440.044 264.129L439.489 265.282L438.804 265.229L438.089 264.884L437.466 265.341L436.739 264.839L436.06 264.832L435.485 265.753L434.702 264.685L434.061 265.04L433.376 264.955L432.781 265.783L432.061 264.988L431.474 265.821L430.778 265.638L430.051 265.168L429.433 265.746L428.734 265.508L428.08 265.747L427.446 266.144L426.787 266.364L426.127 266.492L425.424 266.268L424.766 266.419L424.088 266.44L423.378 266.077L422.718 266.27L422.118 267.047L421.447 267.077L420.781 267.127L420.066 266.745L419.4 266.826L418.752 267.075L418.058 266.855L417.469 267.725L416.768 267.528L416.129 267.846L415.426 267.557C415.214 267.638 414.987 267.706 414.77 267.801L414.121 268.054C413.972 268.113 413.78 267.824 413.67 268.277C413.649 268.351 413.509 268.275 413.586 269.202L413.638 269.615L413.744 270.339C413.742 270.536 413.792 270.729 413.893 270.915C414.071 270.953 414.23 270.825 414.393 270.785L415.072 270.792C415.299 270.735 415.519 270.673 415.731 270.603L416.435 270.856L417.151 271.233C417.364 271.147 417.588 271.061 417.804 270.966L418.508 271.251L419.15 270.956L419.814 270.851L420.502 270.96L421.122 270.41L421.834 270.768L422.539 271.016L423.176 270.638L423.903 271.108L424.563 270.985L425.216 270.75L425.943 271.285L426.562 270.707L427.181 270.194L427.929 270.892L428.614 270.945L429.188 270.024L429.953 270.86L430.55 270.092L431.229 270.131L431.916 270.212L432.64 270.724L433.323 270.786L433.907 269.865L434.573 269.719L435.361 270.838L435.938 269.875L436.617 269.914L437.332 270.727L437.933 269.978L438.549 269.41L439.338 270.524L439.912 269.474L440.673 270.125L441.284 269.473L442.05 270.305L442.614 269.222L443.389 269.822L443.999 269.175L444.758 269.997L445.371 269.341L446.029 269.189L446.809 270.17L447.477 270.083L448.132 269.844L448.702 268.77L449.388 268.856L450.111 269.636L450.804 269.763L451.357 268.583L452.076 269.382L452.676 268.637L453.387 268.964L454.023 268.557L454.687 268.485L455.366 268.492L456.137 269.106L456.818 269.173L457.488 269.114L458.065 268.152L458.782 268.524L459.516 269.268L460.172 269.089L460.807 268.655L461.521 269.069L461.823 268.609L462.105 268.149L462.342 268.378L462.528 268.556C462.528 268.556 462.625 268.714 462.654 268.381C462.683 268.048 462.65 267.232 462.455 265.359L462.219 263.3Z" fill="#1B557A"/>
<path d="M493.816 268.814C492.983 268.638 492.015 268.616 491.076 268.752C490.138 268.887 489.287 269.172 488.67 269.558C488.053 269.944 487.707 270.406 487.693 270.866C487.678 271.327 487.995 271.756 488.59 272.081C489.158 272.381 489.937 272.569 490.808 272.617C491.678 272.664 492.591 272.569 493.406 272.345C494.201 272.097 494.823 271.731 495.161 271.31C495.498 270.889 495.531 270.442 495.253 270.046C494.915 269.668 494.276 269.384 493.464 269.252C492.653 269.121 491.731 269.151 490.885 269.337" fill="#102B4C"/>
<path d="M491.775 270.397L491.931 270.58L491.897 270.533L491.845 270.417L491.918 270.459C491.947 270.529 491.968 270.6 491.98 270.673L492.003 270.594C491.992 270.656 491.974 270.717 491.95 270.779L491.942 270.807C491.977 270.754 492.017 270.702 492.062 270.65C492.003 270.764 491.93 270.876 491.844 270.986L491.852 270.959L491.911 270.917L492.011 270.863L492.163 270.795C492.311 270.728 492.465 270.665 492.624 270.605L492.433 270.709L492.273 270.773L492.321 270.773L492.434 270.742L492.592 270.716C492.466 270.747 492.336 270.772 492.202 270.791C492.064 270.806 491.926 270.815 491.787 270.819C491.975 270.811 492.162 270.813 492.344 270.824C492.476 270.838 492.604 270.86 492.723 270.888C492.478 270.897 492.235 270.894 491.997 270.881C492.178 270.913 492.35 270.953 492.511 271.002C492.297 270.985 492.089 270.958 491.89 270.922C492.181 270.999 492.453 271.09 492.702 271.194C492.437 271.143 492.186 271.078 491.953 271.001C492.099 271.067 492.23 271.139 492.345 271.218C492.2 271.161 492.063 271.099 491.934 271.034L491.779 270.949L491.96 271.075C492.083 271.166 492.195 271.259 492.296 271.357C492.208 271.32 492.128 271.279 492.057 271.234C491.976 271.165 491.905 271.093 491.844 271.019L491.747 270.893L491.803 270.995C491.834 271.064 491.858 271.135 491.876 271.204L491.768 271.12C491.718 271.01 491.691 270.896 491.685 270.781C491.665 270.993 491.604 271.207 491.503 271.418C491.459 271.396 491.418 271.373 491.381 271.348C491.364 271.267 491.362 271.185 491.375 271.102C491.297 271.181 491.206 271.258 491.102 271.331C491.135 271.22 491.189 271.109 491.263 270.999C491.264 270.982 491.269 270.965 491.277 270.948C491.078 271.109 490.851 271.262 490.598 271.405C490.823 271.201 491.084 271.004 491.38 270.82C491.296 270.867 491.204 270.911 491.106 270.951C491.14 270.927 491.178 270.904 491.22 270.883C490.966 270.987 490.692 271.08 490.404 271.158C490.679 271.04 490.972 270.932 491.281 270.837C490.992 270.916 490.692 270.982 490.383 271.033C490.461 270.992 490.545 270.954 490.633 270.919C490.836 270.863 491.046 270.814 491.261 270.772C491.047 270.794 490.831 270.806 490.617 270.808C490.738 270.777 490.863 270.75 490.99 270.728L490.774 270.689C490.631 270.675 490.491 270.655 490.356 270.629C490.29 270.605 490.228 270.578 490.171 270.549L490.119 270.465C490.238 270.453 490.357 270.444 490.476 270.44L490.414 270.361L490.502 270.316C490.662 270.34 490.814 270.373 490.957 270.413C490.93 270.389 490.908 270.364 490.893 270.338C490.71 270.236 490.552 270.125 490.421 270.005C490.474 269.988 490.529 269.973 490.585 269.96L490.749 269.915C490.88 269.97 491.002 270.03 491.114 270.095L491.24 270.049C491.263 270.003 491.295 269.956 491.336 269.911C491.413 269.953 491.482 269.997 491.545 270.043C491.562 269.88 491.609 269.716 491.684 269.553C491.763 269.599 491.834 269.648 491.898 269.699C491.968 269.645 492.046 269.593 492.132 269.544C492.182 269.616 492.221 269.691 492.248 269.767C492.319 269.737 492.394 269.708 492.471 269.681L492.717 269.614C492.783 269.615 492.664 269.799 492.935 269.547C493.187 269.381 493.4 269.202 493.569 269.016L493.839 268.763L494.301 268.305C494.577 268.034 494.629 267.951 494.613 267.942C494.463 267.936 494.312 267.934 494.16 267.937L493.65 267.868C493.461 267.881 493.273 267.899 493.086 267.922C492.939 267.854 492.783 267.791 492.619 267.733C492.456 267.649 492.283 267.57 492.1 267.496C491.904 267.547 491.714 267.604 491.531 267.667C491.334 267.614 491.129 267.568 490.919 267.526C490.632 267.683 490.27 267.803 489.874 267.873C489.672 267.879 489.469 267.891 489.267 267.909C489.159 268.037 489.071 268.168 489.005 268.3C488.763 268.28 488.516 268.269 488.267 268.265C488.03 268.279 487.794 268.3 487.559 268.328C487.472 268.443 487.401 268.56 487.346 268.678C487.046 268.688 486.747 268.709 486.448 268.739C486.326 268.835 486.212 268.936 486.108 269.037C486.022 269.142 485.962 269.25 485.931 269.359C485.594 269.408 485.262 269.467 484.935 269.535C485.03 269.667 485.146 269.796 485.28 269.918C485.383 270.032 485.504 270.142 485.641 270.246C485.293 270.321 484.953 270.405 484.622 270.5C484.537 270.603 484.463 270.708 484.4 270.813C484.748 270.908 485.114 270.989 485.495 271.055C485.128 271.17 484.775 271.296 484.441 271.434C484.752 271.505 485.077 271.564 485.413 271.61C485.408 271.707 485.415 271.803 485.435 271.898C485.435 271.998 485.448 272.097 485.473 272.194C485.323 272.344 485.197 272.498 485.096 272.654C485.153 272.762 485.224 272.868 485.309 272.971C485.724 272.958 486.141 272.928 486.555 272.881C486.708 272.941 486.869 272.997 487.037 273.048C486.822 273.293 486.65 273.544 486.52 273.798C486.937 273.719 487.344 273.623 487.737 273.513C487.882 273.578 488.036 273.638 488.196 273.694C488.198 273.894 488.23 274.093 488.292 274.287C488.621 274.197 488.938 274.095 489.24 273.982C489.508 273.909 489.766 273.826 490.011 273.734C490.075 273.978 490.181 274.216 490.328 274.446C490.627 274.26 490.898 274.064 491.138 273.861C491.32 273.996 491.524 274.123 491.748 274.242C491.97 274.114 492.176 273.98 492.364 273.84C492.615 273.987 492.893 274.121 493.196 274.242C493.358 274.018 493.48 273.79 493.561 273.56C493.843 273.635 494.142 273.697 494.454 273.744C494.579 273.594 494.68 273.44 494.755 273.284C495.122 273.356 495.505 273.411 495.901 273.448C495.976 273.285 496.023 273.121 496.04 272.958C496.18 272.867 496.294 272.766 496.414 272.675C496.868 272.697 497.328 272.701 497.792 272.688C497.918 272.578 498.053 272.468 498.16 272.358C498.208 272.235 498.244 272.112 498.265 271.988C498.025 271.819 497.754 271.661 497.454 271.517C497.576 271.429 497.688 271.337 497.787 271.243C498.161 271.164 498.524 271.069 498.87 270.961C498.981 270.844 499.079 270.724 499.162 270.603C498.752 270.494 498.318 270.405 497.866 270.335C498.196 270.196 498.502 270.044 498.781 269.881C498.499 269.801 498.202 269.733 497.893 269.678C497.972 269.544 498.03 269.408 498.065 269.272C497.851 269.199 497.622 269.136 497.381 269.085C497.264 268.996 497.133 268.913 496.988 268.835C496.879 268.746 496.758 268.662 496.625 268.582C496.662 268.413 496.672 268.244 496.655 268.077C496.5 267.991 496.333 267.909 496.158 267.831C495.971 267.764 495.758 267.713 495.529 267.682C495.162 267.79 494.811 267.913 494.479 268.047C494.348 267.939 494.2 267.837 494.036 267.742C493.907 267.577 493.745 267.421 493.554 267.274C493.283 267.286 493.012 267.307 492.742 267.335C492.467 267.408 492.201 267.489 491.944 267.578C491.689 267.503 491.408 267.449 491.111 267.417C490.889 267.609 490.694 267.807 490.526 268.009L490.225 267.937L489.974 267.888C489.974 267.888 489.81 267.831 489.875 268.003C490.16 268.503 490.528 268.986 490.976 269.449L491.775 270.397Z" fill="#102B4C"/>
<path d="M575.201 264.171C574.32 264.121 573.392 264.246 572.62 264.518C571.848 264.79 571.293 265.187 571.078 265.623C570.919 266.065 571.097 266.501 571.577 266.848C572.058 267.194 572.808 267.427 573.684 267.501C574.568 267.549 575.496 267.449 576.318 267.216C577.141 266.984 577.811 266.633 578.221 266.22C578.556 265.885 578.677 265.52 578.569 265.176C578.46 264.831 578.126 264.526 577.614 264.301C577.357 264.202 577.056 264.131 576.728 264.092C576.4 264.053 576.052 264.048 575.703 264.075C575.354 264.102 575.012 264.162 574.695 264.251C574.379 264.34 574.095 264.457 573.859 264.594V264.594C573.811 264.622 573.765 264.651 573.722 264.68" fill="#102B4C"/>
<path d="M575.455 265.104L575.531 265.138L575.617 265.199C575.65 265.222 575.677 265.247 575.7 265.274C575.722 265.299 575.74 265.325 575.753 265.353L575.724 265.454L575.772 265.288C575.797 265.264 575.825 265.241 575.857 265.219L575.865 265.192L575.57 265.365L575.515 265.392L575.631 265.352C575.531 265.392 575.426 265.428 575.316 265.46V265.46C575.211 265.486 575.103 265.51 574.993 265.531C575.151 265.504 575.312 265.484 575.474 265.471C575.61 265.465 575.746 265.467 575.879 265.474C575.641 265.511 575.399 265.538 575.156 265.555C575.353 265.549 575.549 265.551 575.741 265.561C575.524 265.576 575.307 265.582 575.093 265.578C575.43 265.599 575.758 265.635 576.075 265.685C575.787 265.679 575.504 265.659 575.231 265.626C575.419 265.658 575.598 265.7 575.763 265.751C575.408 265.697 575.067 265.627 574.744 265.542C575.134 265.643 575.498 265.763 575.834 265.9C575.715 265.888 575.6 265.871 575.488 265.851C575.22 265.768 574.968 265.674 574.736 265.57C574.925 265.67 575.093 265.778 575.239 265.894L575.042 265.855C574.89 265.779 574.753 265.695 574.631 265.606C574.819 265.782 574.975 265.966 575.098 266.157L574.926 266.132C574.833 266.071 574.754 266.005 574.688 265.935C574.7 266.015 574.699 266.095 574.686 266.176C574.611 266.078 574.558 265.975 574.528 265.869C574.509 265.857 574.497 265.842 574.492 265.827C574.475 265.996 574.427 266.166 574.348 266.335C574.367 266.226 574.399 266.116 574.441 266.007L574.5 265.799C574.381 265.93 574.237 266.055 574.072 266.175C574.219 266.017 574.392 265.864 574.59 265.717C574.405 265.85 574.195 265.975 573.963 266.091C574.001 266.042 574.047 265.995 574.098 265.948C574.235 265.858 574.386 265.773 574.549 265.693C574.377 265.763 574.195 265.827 574.003 265.883C574.088 265.834 574.18 265.788 574.279 265.746L574.051 265.781C573.915 265.807 573.777 265.827 573.637 265.842L573.42 265.84L573.316 265.806C573.425 265.777 573.54 265.753 573.657 265.736L573.535 265.734L573.541 265.711L573.938 265.715C573.663 265.673 573.404 265.614 573.164 265.541L573.261 265.5L573.35 265.455C573.52 265.491 573.682 265.534 573.833 265.584L573.844 265.548C573.816 265.51 573.795 265.471 573.782 265.431C573.871 265.466 573.955 265.504 574.034 265.545C573.889 265.397 573.775 265.24 573.693 265.078C573.777 265.11 573.855 265.145 573.929 265.182C573.934 265.122 573.952 265.062 573.98 265.002C574.049 265.061 574.107 265.124 574.154 265.189C574.18 265.148 574.214 265.108 574.254 265.07C574.296 265.033 574.344 264.998 574.398 264.965C574.398 264.965 574.349 265.135 574.538 264.869C574.692 264.686 574.814 264.5 574.905 264.312L575.054 264.054L575.299 263.593C575.444 263.316 575.459 263.233 575.403 263.228C575.253 263.239 575.103 263.254 574.955 263.274L574.408 263.269C574.227 263.303 574.048 263.342 573.873 263.385C573.696 263.341 573.501 263.298 573.294 263.259C573.088 263.22 572.853 263.148 572.611 263.099C572.448 263.172 572.294 263.25 572.148 263.331C571.912 263.329 571.677 263.289 571.425 263.278C571.288 263.369 571.168 263.465 571.069 263.566C570.922 263.634 570.782 263.706 570.648 263.78C570.513 263.857 570.273 263.869 570.089 263.918C570.091 264.055 570.116 264.19 570.163 264.322C569.908 264.347 569.656 264.38 569.406 264.421C569.183 264.478 568.966 264.541 568.756 264.609C568.772 264.731 568.808 264.85 568.863 264.967C568.581 265.034 568.309 265.112 568.049 265.2C568.002 265.312 567.97 265.425 567.953 265.537C567.983 265.645 568.028 265.751 568.09 265.854C567.829 265.964 567.584 266.082 567.355 266.208C567.571 266.302 567.807 266.385 568.06 266.456C568.268 266.528 568.491 266.59 568.726 266.643C568.462 266.787 568.219 266.939 568 267.099C568.027 267.2 568.065 267.299 568.114 267.396C568.524 267.394 568.938 267.375 569.35 267.339C569.115 267.514 568.905 267.697 568.722 267.884C569.075 267.868 569.428 267.839 569.778 267.797C569.966 267.955 570.158 268.111 570.354 268.266C570.346 268.414 570.364 268.562 570.408 268.706C570.559 268.778 570.72 268.845 570.891 268.905C571.259 268.796 571.611 268.672 571.942 268.536C572.135 268.544 572.33 268.546 572.527 268.541C572.565 268.787 572.648 269.028 572.776 269.262C573.082 269.101 573.36 268.929 573.604 268.746C573.796 268.765 573.991 268.777 574.189 268.784C574.378 268.95 574.596 269.107 574.84 269.254C575.044 269.107 575.224 268.954 575.378 268.796C575.539 268.676 575.682 268.552 575.805 268.424C576.09 268.606 576.406 268.774 576.749 268.929C576.826 268.715 576.869 268.5 576.876 268.286C577.161 268.36 577.459 268.423 577.768 268.476C577.834 268.322 577.878 268.168 577.899 268.014C578.244 268.089 578.602 268.152 578.972 268.2C578.899 267.99 578.793 267.784 578.655 267.586C578.966 267.6 579.281 267.603 579.599 267.595C579.571 267.451 579.523 267.31 579.454 267.172C579.84 267.182 580.231 267.176 580.623 267.155C580.551 267.013 580.458 266.874 580.343 266.74C580.405 266.643 580.455 266.544 580.494 266.445C580.943 266.404 581.39 266.346 581.829 266.273L581.924 265.94C581.901 265.829 581.866 265.719 581.82 265.61C581.461 265.504 581.082 265.414 580.686 265.34C580.712 265.247 580.785 265.156 580.832 265.059C581.143 264.937 581.437 264.805 581.711 264.664C581.757 264.549 581.79 264.433 581.809 264.318C581.348 264.286 580.876 264.274 580.401 264.281C580.645 264.121 580.861 263.953 581.046 263.778C580.712 263.75 580.371 263.736 580.027 263.735C580.035 263.607 580.02 263.48 579.984 263.355C579.738 263.323 579.485 263.301 579.227 263.288C579.051 263.223 578.865 263.164 578.672 263.111C578.495 263.048 578.309 262.99 578.116 262.939C578.027 262.777 577.907 262.62 577.757 262.472C577.533 262.422 577.302 262.38 577.064 262.345C576.815 262.336 576.563 262.333 576.31 262.338C576.028 262.5 575.776 262.673 575.557 262.854C575.421 262.799 575.278 262.748 575.127 262.702C574.867 262.587 574.578 262.488 574.266 262.406C574.008 262.479 573.758 262.558 573.517 262.645C573.309 262.771 573.119 262.904 572.949 263.042C572.635 263.072 572.326 263.12 572.028 263.186C572.007 263.396 572.024 263.604 572.078 263.807L571.736 263.846L571.47 263.885C571.404 263.884 570.81 263.911 573.975 264.72L575.455 265.104Z" fill="#102B4C"/>
<path d="M439.182 296.44L438.888 296.076L438.567 295.809L440.2 294.592L438.759 293.541L440.951 292.256L440.154 291.169L439.867 290.05L439.473 288.943L439.76 287.77L437.079 286.919C437.928 286.464 438.769 285.967 439.588 285.484C438.879 285.184 438.162 284.89 437.437 284.602L436.415 283.605L436.854 282.396L436.347 281.321L436.773 280.093L435.035 279.219L433.65 278.303L434.531 276.972L432.669 276.135C432.886 275.674 433.102 275.212 433.271 274.751C432.329 274.538 431.344 274.343 430.386 274.153C430.678 273.66 430.963 273.158 431.203 272.646C430.452 272.394 429.712 272.169 428.93 271.925C429.323 271.342 429.658 270.756 429.933 270.165C428.589 270.101 427.267 270.061 425.934 270.057C425.665 269.643 425.351 269.238 424.993 268.844C425.004 268.256 424.933 267.674 424.78 267.1C423.629 267.029 422.46 266.993 421.282 266.993C420.629 266.662 419.926 266.355 419.179 266.074C418.605 265.611 417.959 265.173 417.244 264.763L416.167 264.956C415.752 265.009 415.339 265.071 414.932 265.144C414.166 265.277 413.417 265.44 412.692 265.632C411.528 265.491 410.31 265.431 409.072 265.453C408.438 265.403 407.789 265.381 407.133 265.388C406.46 265.378 405.778 265.401 405.098 265.457C403.959 265.871 402.937 266.359 402.065 266.905C400.692 267.114 399.365 267.413 398.122 267.794C397.252 268.254 396.455 268.743 395.737 269.258C395.809 269.868 396.01 270.466 396.336 271.043C394.981 271.323 393.656 271.646 392.371 272.01C392.28 272.502 392.244 272.994 392.263 273.482L391.293 274.728C391.787 275.177 392.333 275.611 392.929 276.027C392.021 276.422 391.112 276.837 390.2 277.27C390.828 277.688 391.501 278.084 392.157 278.47C391.859 278.884 391.568 279.307 391.354 279.727L389.797 281.074C390.313 281.454 390.881 281.82 391.375 282.177C391.138 282.61 390.898 283.053 390.736 283.491L391.592 284.634C392.05 284.986 392.569 285.325 393.051 285.658C393.374 286.018 393.677 286.382 394.072 286.724L394.927 287.807C394.88 288.237 394.912 288.655 394.902 289.09C395.267 289.436 395.649 289.787 396.038 290.115L396.908 291.212C396.833 291.675 396.815 292.138 396.808 292.624C397.325 292.935 397.811 293.255 398.382 293.543C399.481 293.649 400.56 293.744 401.621 293.828C402.02 294.157 402.5 294.462 402.943 294.768C403.388 295.084 403.874 295.386 404.398 295.671C404.532 296.129 404.69 296.594 404.871 297.065C405.444 297.344 406.06 297.605 406.657 297.87C407.396 298.062 408.127 298.254 408.915 298.41L410.238 299.512C411.518 299.366 412.795 299.203 414.019 299.024C414.542 299.371 415.108 299.701 415.714 300.013C416.643 300.073 417.579 300.11 418.52 300.128C419.169 300.492 419.917 300.81 420.747 301.076C421.801 301.062 422.861 301.015 423.918 300.935C424.451 300.9 424.983 300.851 425.512 300.788C426.053 300.706 426.583 300.601 427.096 300.475C427.61 300.364 428.338 300.533 428.846 300.177C429.063 300.88 429.44 301.561 429.97 302.207C430.882 303.091 431.367 302.35 431.569 302.273C432.248 302.099 432.889 301.887 433.48 301.643C433.84 301.483 434.159 301.302 434.428 301.106C434.542 301.024 434.648 300.94 434.745 300.854C435.796 300.26 436.595 299.577 437.085 298.852C438.04 298.34 438.917 297.795 439.706 297.223C439.548 296.949 439.367 296.687 439.182 296.44Z" fill="#E68688"/>
<path d="M598.317 210.765C597.959 209.738 597.281 208.761 596.305 207.864C595.909 206.81 595.118 205.82 593.969 204.942C592.661 204.068 590.989 203.342 589.043 202.806C586.958 202.44 584.714 202.262 582.41 202.279C580.158 202.036 577.778 202.013 575.401 202.212C575.157 202.286 574.938 202.38 574.754 202.488V202.488L574.533 202.634C574.451 202.689 574.467 202.634 574.438 202.633C574.385 202.59 574.338 202.545 574.297 202.498C574.419 202.36 574.584 202.23 574.785 202.113L574.905 202.059L574.98 202.059C575.009 202.06 575.015 201.939 575.032 201.879L575.078 201.088C574.39 200.15 573.525 199.253 572.492 198.409C571.538 197.575 570.414 196.797 569.134 196.083C568.491 195.149 567.669 194.254 566.679 193.41C565.347 192.688 563.868 192.033 562.26 191.455C561.283 191.277 560.275 191.133 559.243 191.023C558.238 190.901 557.212 190.811 556.169 190.752C554.558 190.15 552.801 189.638 550.929 189.224C548.799 189.258 546.657 189.393 544.532 189.626C542.505 189.616 540.458 189.699 538.417 189.873C536.349 190.046 534.294 190.303 532.275 190.643C530.166 190.869 528.081 191.185 526.046 191.589C525.061 191.839 524.1 192.116 523.17 192.418C522.692 192.557 522.226 192.707 521.774 192.868L521.09 193.112L520.68 193.256C520.751 193.405 520.725 193.566 520.605 193.718C520.535 193.836 520.451 193.953 520.354 194.068L520.173 194.27L520.068 194.376L520.011 194.375C519.897 194.248 519.746 194.131 519.561 194.028C519.453 193.976 519.356 193.919 519.238 193.867L518.884 193.716C518.681 193.63 518.489 193.541 518.274 193.464C516.967 192.574 515.322 191.821 513.413 191.236C511.26 191.181 509.074 191.24 506.891 191.414C504.957 191.315 502.997 191.273 501.024 191.288C499.035 191.098 497.282 190.942 495.337 190.794C493.37 191.057 491.398 191.34 489.407 191.687C487.402 191.982 485.432 192.355 483.517 192.802C481.232 192.852 478.935 193.074 476.707 193.459C474.938 194.294 473.43 195.248 472.241 196.284C471.317 196.67 470.461 197.095 469.685 197.552C469.48 197.669 469.287 197.79 469.108 197.917L468.828 198.104C468.734 198.168 468.617 198.245 468.623 198.227C468.522 198.249 468.415 198.262 468.309 198.266C468.41 198.41 468.478 198.633 468.6 198.936C468.581 199.005 468.47 198.994 468.371 199.012C468.103 198.868 467.866 198.71 467.662 198.542L467.62 198.491L467.627 198.468L467.797 198.469L466.959 198.322C466.388 198.217 465.794 198.137 465.182 198.083C462.783 198.286 460.438 198.726 458.296 199.374C456.054 199.583 453.85 199.958 451.765 200.483C449.995 201.255 448.448 202.14 447.176 203.107C445.362 203.907 443.798 204.831 442.547 205.842C441.979 206.906 441.71 207.985 441.746 209.049C441.687 209.225 441.655 209.402 441.653 209.577C440.79 209.505 439.906 209.474 439.012 209.482C438.116 209.359 437.19 209.277 436.244 209.237C434.411 209.062 432.449 209.156 430.594 209.508C429.68 209.626 428.779 209.78 427.9 209.968C426.207 210.322 424.561 210.738 422.975 211.213C421.275 211.517 419.598 211.861 417.951 212.244C416.596 212.852 415.304 213.48 414.075 214.129C412.849 214.78 411.619 215.412 410.491 216.082C408.944 216.531 407.386 217.021 405.924 217.535C404.651 218.153 403.445 218.799 402.263 219.459C401.476 220.262 400.772 221.075 400.125 221.884C398.739 222.464 397.393 223.072 396.051 223.698C395.439 224.517 394.884 225.336 394.405 226.156C393.55 226.898 392.74 227.65 392.002 228.412C391.265 229.174 390.564 229.941 389.863 230.708C389.162 231.474 388.139 232.21 387.365 233C386.818 233.791 386.222 234.587 385.74 235.384C385.729 236.217 385.759 237.042 385.867 237.859C385.536 238.657 385.319 239.451 385.092 240.246C384.197 241.03 383.452 241.819 382.626 242.626C382.889 243.43 383.201 244.225 383.498 245.011C383.358 245.802 383.169 246.597 383.057 247.388C382.573 248.189 382.048 249.004 381.618 249.815C381.936 250.592 382.276 251.36 382.649 252.141C383.022 252.923 383.225 253.671 383.55 254.424C383.023 255.244 382.562 256.064 382.072 256.888L383.871 259.074L383.28 261.481C383.725 262.241 384.237 263.001 384.792 263.743C384.649 264.608 384.612 265.471 384.68 266.326C385.633 267.04 386.707 267.71 387.893 268.33C388.417 269.188 389.176 269.995 390.151 270.733C391.644 271.293 393.354 271.713 395.208 271.977C396.705 272.527 398.397 272.951 400.223 273.234C401.929 273.182 403.638 273.089 405.345 272.954C406.758 272.945 408.155 272.994 409.523 273.101C410.647 273.449 411.672 273.863 412.577 274.334C413.711 274.575 414.78 274.872 415.767 275.222C416.028 275.303 416.278 275.389 416.528 275.475C416.71 275.535 416.884 275.6 417.049 275.67C417.441 275.842 417.791 276.035 418.096 276.245C419.283 276.705 420.405 277.202 421.457 277.732C421.847 278.115 422.296 278.482 422.8 278.829C423.371 279.223 424.07 279.567 424.874 279.849C425.5 280.207 426.215 280.525 427.007 280.796C427.439 280.954 427.908 281.089 428.406 281.199C428.972 281.306 429.556 281.413 430.212 281.503C430.959 281.517 431.714 281.509 432.47 281.478C433.229 281.403 433.981 281.302 434.723 281.176C435.431 281.009 436.118 280.817 436.778 280.603C437.328 280.367 437.929 280.15 438.457 279.891C439.66 278.924 440.352 277.849 440.461 276.775C441.452 275.94 442.259 275.065 442.869 274.167C442.776 273.28 442.501 272.41 442.048 271.569L442.364 269.201L441.632 266.956C441.544 266.2 441.473 265.454 441.421 264.708C441.369 263.961 441.438 263.221 441.534 262.485C441.879 261.738 442.315 261.006 442.764 260.292C442.977 259.583 443.27 258.876 443.642 258.174C444.002 257.474 444.33 256.754 444.77 256.04C444.795 255.29 444.908 254.527 445.044 253.75C445.765 253.047 446.519 252.35 447.305 251.659C448.252 250.992 449.215 250.334 450.214 249.686C450.825 248.969 451.473 248.253 452.132 247.537L453.87 245.321L456.697 243.3L457.408 242.066C457.789 241.393 458.031 240.742 458.031 240.742C458.356 240.5 458.682 240.253 458.979 240.005L459.679 239.41C459.85 239.273 461.003 238.547 456.252 238.154L456.432 238.156C456.765 238.166 457.104 238.157 457.442 238.129C458.078 238.088 458.334 237.989 458.459 237.879C458.95 237.279 459.282 236.659 459.448 236.035C459.817 235.238 460.15 234.435 460.378 233.636C460.568 232.836 460.663 232.037 460.662 231.243C460.948 230.44 461.177 229.636 461.351 228.827L461.426 228.564C462.959 228.829 464.492 229.057 466.025 229.289C467.3 229.927 468.569 230.587 469.961 231.18C471.766 231.484 473.591 231.72 475.416 231.955C476.955 232.433 478.584 232.824 480.195 233.247C482.025 233.463 483.771 233.744 485.625 233.878C487.385 234.14 489.173 234.375 490.986 234.55C492.8 234.725 494.672 234.896 496.459 235.066L499.196 235.421C499.635 235.491 500.087 235.544 500.55 235.582L502.024 235.49C502.523 235.43 503.003 235.374 503.525 235.3L504.274 235.196L504.33 235.197L504.353 235.118L504.655 235.121C504.772 235.119 504.888 235.12 505.004 235.125C505.926 235.208 506.858 235.258 507.784 235.327C509.644 235.438 511.534 235.447 513.418 235.474C515.346 235.351 517.244 235.194 519.114 235.005C521.001 235.023 522.888 235.042 524.787 235.018C526.686 234.995 528.549 235.096 530.436 235.114C532.369 234.97 534.213 234.807 536.089 234.631C537.965 234.454 539.82 234.152 541.67 233.902C543.591 233.8 545.47 233.679 547.382 233.544L550.13 232.964L552.851 232.346L554.687 232.243L556.142 232.15C556.479 232.131 558.378 232.172 557.318 230.082L557.427 230.231C557.632 230.507 557.871 230.776 558.144 231.035C558.616 231.503 558.927 231.607 559.221 231.569C560.644 231.302 562.03 230.979 563.366 230.603C565.197 230.218 567.024 229.818 568.826 229.368C570.617 228.891 572.35 228.357 574.012 227.768C575.851 227.323 577.65 226.854 579.444 226.334C581.292 225.825 583.086 225.263 584.814 224.653C586.271 223.879 587.621 223.06 588.852 222.204C590.398 221.457 591.848 220.665 593.189 219.832C594.207 218.881 595.054 217.897 595.72 216.892C596.524 215.911 597.128 214.905 597.521 213.889C598.027 212.851 598.294 211.804 598.317 210.765Z" fill="#102B4C"/>
<path d="M426.628 334.42L429.68 332.11L427.489 329.375L432.02 327.185C431.96 326.872 431.966 326.552 432.036 326.231C432.081 325.86 432.187 325.488 432.354 325.118C432.615 324.351 433.096 323.593 433.78 322.866C436.172 321.803 439.113 321.098 442.178 320.853C442.787 320.614 443.419 320.389 444.072 320.181C444.69 320.009 445.281 319.811 445.839 319.591L448.098 318.603L453.602 319.439L458.271 317.793L463.646 317.956L468.279 316.004L473.702 316.195L478.898 315.689C480.488 314.99 482.062 314.278 483.706 313.59C485.478 313.412 487.224 313.23 489.018 313.076C490.814 312.949 492.612 312.869 494.403 312.836C496.259 313.162 498.094 313.506 499.908 313.866C501.662 313.656 503.444 313.478 505.224 313.305C506.991 312.78 508.809 312.311 510.659 311.829C512.48 311.647 514.336 311.54 516.177 311.419C517.933 311.899 519.663 312.467 521.301 312.992C523.188 312.579 525.103 312.199 527.062 311.833C528.769 312.216 530.436 312.607 532.074 313.035C533.944 312.946 535.825 312.886 537.741 312.867C539.448 313.185 541.144 313.539 542.801 313.935C544.609 314.176 546.376 314.467 548.096 314.805C549.949 315.123 551.736 315.507 553.445 315.955C555.664 316.196 557.78 316.572 559.748 317.076C560.134 317.246 560.698 317.493 561.184 317.747C561.684 318.017 562.143 318.304 562.556 318.608C563.372 319.226 564.019 319.898 564.483 320.609C565.099 321.745 565.396 322.933 565.368 324.143C564.534 325.182 563.512 326.193 562.314 327.162C562.494 328.09 562.58 329.017 562.63 329.902C563.027 330.833 563.368 331.762 563.688 332.664C563.137 333.534 562.554 334.386 562.011 335.228L559.501 337.664C559.426 338.525 559.406 339.391 559.28 340.233L555.497 342.42C555.623 342.67 555.686 342.93 555.683 343.195L555.652 343.769C555.633 343.834 555.804 344.063 554.777 344.182C554.44 344.221 554.1 344.247 553.761 344.261C553.5 344.274 553.239 344.281 552.98 344.281L552.14 344.273C550.989 344.262 549.395 344.247 547.258 344.143L547.599 344.174C548.261 344.24 548.942 344.307 549.433 344.377C550.564 344.527 550.866 344.659 550.852 344.775C550.684 345.417 550.359 346.056 549.884 346.679C549.54 347.523 549.164 348.376 548.709 349.243C548.118 350.105 547.44 350.956 546.676 351.794C546.253 352.684 545.805 353.592 545.219 354.486C544.633 355.379 544.192 356.329 543.54 357.226C542.393 357.997 541.173 358.745 539.884 359.465C539.062 360.323 538.18 361.163 537.269 362.002C535.912 362.679 534.518 363.323 533.126 363.958C531.734 364.593 530.589 365.324 529.299 365.969L525.848 368.118C524.233 368.607 522.597 369.069 520.956 369.516L519.472 370.674L519.288 370.82L518.953 371.035L518.227 371.491L517.482 371.947C517.261 372.112 517.001 372.265 516.709 372.403C515.606 372.966 514.363 373.461 513.017 373.873C511.669 374.263 510.212 374.535 508.72 374.675C505.785 374.564 503.134 373.965 501.201 372.977C500.88 372.909 500.569 372.836 500.225 372.782L499.249 372.555L499.001 372.497L498.84 372.495L498.522 372.451L497.895 372.361C497.048 372.247 496.235 372.109 495.4 371.985L491.878 370.404L488.58 368.696L483.411 368.044L480.969 365.857L478.381 363.753C476.527 363.617 474.677 363.471 472.83 363.315L468.923 361.952L467.45 359.219L461.629 358.932L459.705 356.454L455.821 355.078L451.847 353.752L446.859 352.995L442.919 351.651L441.265 349.022L437.809 347.405L431.446 347.427C430.92 346.41 430.231 345.423 429.383 344.475C427.352 343.59 425.919 342.426 425.234 341.105C424.482 340.485 423.927 339.806 423.586 339.088C423.407 338.709 423.274 338.322 423.187 337.931C423.136 337.745 423.124 337.49 423.069 337.351L422.936 336.886C424.061 336.031 425.294 335.207 426.628 334.42V334.42Z" fill="#E68688"/>
<path d="M509.537 248.236C510.215 247.617 509.669 248.005 509.6 248.014L508.992 248.124L508.439 247.97L508.459 247.271L507.443 247.516C507.419 247.303 507.385 247.089 507.327 246.894L506.284 247.236L506.285 246.435L505.457 246.552L504.781 246.499L504.074 246.492L503.546 246.251L502.341 246.962L502.31 245.975C501.957 246.153 501.616 246.321 501.271 246.503L500.486 246.667L499.993 246.338L499.323 246.331L498.818 245.979C498.529 246.096 498.244 246.233 497.964 246.355L497.181 246.612L496.718 246.079L495.897 246.47L495.378 246.001L494.49 246.725L493.993 246.113L493.22 246.569L492.712 245.763L491.868 246.764L491.24 246.545L490.636 245.877L489.914 246.519L489.253 246.415L488.58 245.987L487.93 246.907L487.269 246.869L486.571 246.598C486.358 246.725 486.15 246.856 485.948 246.99L485.212 246.617L484.526 246.634L484.017 247.393L483.24 246.533L482.637 246.857L481.929 246.85L481.487 247.54L480.523 246.971L480.118 247.662L479.382 247.59L478.521 247.29L478.083 247.799L477.299 247.695C477.104 247.781 476.926 247.876 476.739 247.967L476.269 248.356L475.723 248.611L475.139 248.8C474.875 248.797 474.615 248.748 474.363 248.737L473.806 248.963L473.173 249.096L472.269 248.948L471.734 249.198L471.637 249.868L471.027 250.02L470.431 250.186L469.52 250.061C469.332 250.124 469.125 250.187 468.945 250.255L468.53 250.58L467.719 250.572L467.88 251.301L467.072 251.316C466.963 251.431 466.86 251.56 466.76 251.679L465.817 251.67L465.443 251.986L465.064 252.288C464.976 252.362 464.475 252.195 464.86 252.536C464.92 252.593 464.715 252.581 465.816 253.199L466.332 253.482L467.257 253.954C467.478 254.093 467.734 254.219 468.021 254.327C468.178 254.305 468.133 254.166 468.2 254.097L468.65 253.912L468.932 253.618L469.668 253.625C469.96 253.638 470.244 253.669 470.513 253.716L470.764 253.399L471.532 253.457L471.786 253.131L472.204 252.927C472.41 252.921 472.617 252.906 472.822 252.882L472.962 252.392L473.766 252.525L474.467 252.587C474.55 252.463 474.634 252.334 474.734 252.214L475.613 252.45L476.054 252.264L476.448 252.008L477.309 252.309L477.524 251.82L477.806 251.359L478.711 251.803L479.277 251.776L479.393 251.004L480.315 251.587L480.552 250.955L481.127 250.928L481.702 250.933C481.946 251.042 482.185 251.165 482.416 251.283L482.982 251.288L483.278 250.55L483.801 250.407L484.601 251.253L484.951 250.487L485.517 250.493L486.179 251.124L486.625 250.522C486.783 250.366 486.95 250.215 487.125 250.063L487.748 250.963L488.241 250.13L488.659 250.754L489.204 250.236L489.705 250.936L490.306 250.089L490.794 250.599L491.4 250.1C491.543 250.328 491.684 250.566 491.816 250.799L492.446 250.314L493.008 250.236L493.307 251.077L493.828 251.04C494.014 250.987 494.205 250.947 494.388 250.902L495.214 250.095L495.707 250.225L495.937 250.912C496.088 250.965 496.233 251.022 496.37 251.083L497.334 250.226L497.479 250.946L498.305 250.435L498.643 250.776C498.875 250.695 499.092 250.628 499.332 250.551L499.85 250.593L500.319 250.704L500.419 251.284C500.555 251.337 500.704 251.38 500.83 251.436L501.302 251.506L502.426 250.882L502.613 251.287L502.514 251.967L503.069 251.944L503.829 251.734L503.938 252.147L505.032 251.63L504.92 252.022C504.92 252.022 504.824 252.16 505.144 251.932C505.465 251.703 506.189 251.122 507.811 249.743L509.537 248.236Z" fill="#102B4C"/>
<path d="M555.878 250.177C556.903 250.562 556.272 250.287 556.266 250.273L556.137 250.063L556.472 249.951C556.863 250.038 557.246 250.133 557.621 250.235C557.515 250.108 557.426 249.977 557.354 249.843L558.411 250.118L558.156 249.652C558.593 249.801 559.024 249.96 559.449 250.128C559.472 250.044 559.456 249.938 559.474 249.841L559.753 249.69L560.011 249.517L560.558 249.522L559.975 248.711L561.393 249.414L561.094 248.768L561.241 248.454L561.911 248.59L562.262 248.455L562.948 248.637L562.946 248.146L563.053 247.772L563.892 248.146L563.932 247.641L564.721 247.992L564.543 247.189L565.429 247.697L565.504 247.17L566.491 247.888L566.22 246.816L566.807 246.979L567.659 247.608L567.694 246.89C567.867 246.897 568.033 246.917 568.187 246.95L568.848 247.387L568.811 246.387L569.283 246.391L569.838 246.67L570.12 246.242L570.695 246.683L571.11 246.687L571.345 245.86L571.96 246.792L572.304 246.48L572.703 246.572L573.041 245.853L573.461 246.57L573.864 245.851C574.003 245.91 574.13 245.975 574.244 246.045L574.556 246.511L574.99 246.052L575.296 246.305L575.706 246.128L576.157 245.841L576.571 245.715L576.973 245.663L577.204 245.916C577.329 245.888 577.459 245.868 577.591 245.855L577.884 245.922L577.892 246.325L578.271 246.255C578.552 246.068 578.872 245.872 579.166 245.703L579.419 245.812L579.688 245.898C579.649 246.039 579.58 246.18 579.483 246.318L579.763 246.367C579.905 246.347 580.048 246.332 580.192 246.32L580.03 246.624C580.456 246.463 580.897 246.313 581.35 246.173L581.201 246.464C581.393 246.44 581.587 246.428 581.779 246.428L581.35 246.803L581.775 246.84L582.204 246.895C582.317 246.896 581.731 247.127 582.619 246.899C583.263 246.778 583.879 246.615 584.45 246.416L585.277 246.169L586.73 245.72C587.124 245.618 587.497 245.494 587.838 245.351C587.862 245.268 587.469 245.282 587.318 245.249L586.97 245.009L586.355 244.878L586.473 244.462C586.572 244.298 586.645 244.131 586.691 243.964L585.871 243.919L585.852 243.456L585.031 243.448C584.847 243.395 584.664 243.342 584.468 243.299L584.09 243.031C583.72 243.111 583.361 243.197 583.014 243.29L582.862 242.825L582.555 242.442C582.258 242.494 581.966 242.555 581.681 242.624L581.46 242.103L580.771 242.096L580.044 242.159C579.95 241.958 579.843 241.767 579.735 241.581C579.432 241.717 579.137 241.855 578.852 241.994C578.58 242.117 578.31 242.235 578.056 242.362C577.958 242.132 577.844 241.9 577.716 241.664C577.519 241.625 577.306 241.576 577.107 241.542C576.818 241.805 576.544 242.071 576.284 242.34C576.157 242.08 576.014 241.817 575.855 241.553C575.605 241.767 575.367 241.982 575.141 242.199L574.557 242.124C574.367 242.087 574.17 242.056 573.969 242.031L573.384 241.562L572.77 241.491C572.581 241.755 572.405 242.02 572.24 242.287L571.678 242.403L570.918 241.418L570.502 242.28L569.907 242.274L569.102 241.581L568.72 242.258C568.577 242.428 568.458 242.612 568.331 242.792L567.368 241.856L567.19 242.781L566.389 242.273L566.096 242.868L565.134 242.229L565.094 243.196L564.225 242.762L564.007 243.362L562.978 242.754L562.804 243.364L562.349 243.568L561.165 242.876L560.646 243.038L560.235 243.316L560.434 244.245L559.828 244.281L558.686 243.806L558.026 243.8L558.399 244.781L557.2 244.306L557.276 244.97L556.448 244.855L556.263 245.27C556.102 245.327 555.946 245.387 555.796 245.451L555.256 245.585L554.132 245.315L553.523 245.425L553.033 245.619C553.177 245.875 553.326 246.15 553.496 246.416L552.619 246.375C552.196 246.29 551.767 246.212 551.333 246.14L551.025 246.457L551.007 246.92L550.051 246.952L550.304 247.293L550.569 247.624L550.119 247.578L549.76 247.542C549.76 247.542 549.49 247.494 549.847 247.668C550.204 247.843 551.141 248.241 553.424 249.125L555.878 250.177Z" fill="#102B4C"/>
<path d="M509.915 305.156C509.276 305.571 509.762 305.326 509.791 305.326L510.243 305.331L510.595 305.524L510.44 306.069L511.281 305.938C511.254 306.094 511.257 306.249 511.291 306.401L512.169 306.211L512.051 306.821L512.724 306.786C512.896 306.815 513.072 306.84 513.251 306.86L513.805 306.907L514.191 307.115L515.266 306.662L515.167 307.407L516.054 307.049L516.684 306.963L517.024 307.23L517.54 307.281C517.654 307.38 517.769 307.473 517.895 307.563L518.609 307.315L519.25 307.154L519.539 307.569L520.227 307.312L520.557 307.681L521.343 307.179L521.636 307.645L522.296 307.355L522.552 307.982L523.362 307.268L523.797 307.466L524.127 308.002L524.796 307.545L525.275 307.657L525.691 308.022L526.384 307.352L526.875 307.422L527.333 307.672L527.892 307.404L528.346 307.737L528.857 307.77L529.439 307.219L529.87 307.9L530.401 307.696L530.911 307.766L531.449 307.271L531.939 307.776L532.469 307.276L532.974 307.397L533.482 307.708L533.989 307.356L534.501 307.518L535.005 307.375L535.493 307.125L535.986 306.986L536.482 306.907L537.008 307.051L537.501 306.949L538.007 306.931L538.563 307.173L539.059 307.057L539.47 306.547L539.969 306.519L540.473 306.478L541.044 306.733L541.543 306.673L542.011 306.492L542.566 306.637L542.895 306.014L543.451 306.154C543.596 306.077 543.749 306.004 543.887 305.917L544.467 306.108C544.618 306.04 544.768 305.981 544.919 305.913L545.363 305.718C545.47 305.673 545.674 305.888 545.66 305.541C545.675 305.485 545.773 305.542 545.516 304.849L545.387 304.538L545.145 303.993C545.104 303.845 545.028 303.701 544.917 303.565C544.785 303.564 544.702 303.655 544.597 303.691L544.122 303.733C543.975 303.783 543.843 303.846 543.694 303.905L543.161 303.752L542.603 303.519L542.195 303.756L541.665 303.589L541.256 303.831L540.81 303.933L540.322 303.887L539.944 304.286L539.419 304.068L538.92 303.929L538.5 304.207L537.983 303.929L537.536 304.036L537.091 304.203L536.589 303.874L536.17 304.25L535.734 304.584L535.234 304.148L534.762 304.144L534.327 304.742L533.842 304.218L533.399 304.677L532.927 304.673L532.469 304.622L532.022 304.298L531.573 304.247L531.085 304.799L530.619 304.873L530.233 304.17L529.711 304.739L529.26 304.693L528.898 304.171L528.371 304.629L527.853 304.953L527.566 304.232L526.976 304.843L526.644 304.413L526.095 304.779L525.825 304.234L525.177 304.848L524.876 304.443L524.294 304.794L524.068 304.259L523.478 304.601L523.014 304.638L522.893 303.997L522.469 303.993L521.99 304.081L521.224 304.644L520.851 304.524L520.756 303.995L520.429 303.849L519.566 304.452L519.544 303.9L518.83 304.246L518.614 303.975L518.044 304.118L517.654 304.058L517.316 303.948L517.325 303.485L517.032 303.353C516.912 303.331 516.796 303.305 516.685 303.275L515.763 303.688L515.692 303.372L515.903 302.865C515.767 302.868 515.631 302.867 515.497 302.861L514.92 302.962C514.943 302.855 514.951 302.748 514.945 302.643L514.438 302.828L513.924 303.003L513.999 302.74C513.999 302.74 514.092 302.648 513.802 302.803C513.512 302.958 512.847 303.331 511.372 304.225L509.915 305.156Z" fill="#102B4C"/>
<path d="M585.304 309.525C585.09 309.745 584.82 309.96 584.57 310.176L585.632 310.997L583.498 311.513L582.463 312.124L584.379 313.069L581.917 313.509L582.446 314.31L580.486 314.792L581.676 315.697C581.153 315.873 580.631 316.044 580.043 316.214L580.417 317.029L578.655 317.503L578.708 318.277L579.047 319.114L577.666 319.643L577.033 320.304L575.703 320.824L575.488 321.577C575.701 321.894 575.904 322.211 576.074 322.509L573.265 322.672L574.193 323.732L573.031 324.291L572.374 324.97L571.574 325.62L571.131 326.375C570.425 326.429 569.703 326.473 568.992 326.512L568.747 326.51L568.699 326.676C568.272 326.981 567.835 327.286 567.389 327.59L566.675 327.671L566.544 328.133L565.91 328.53C564.853 329.177 563.728 329.799 562.541 330.393C560.064 331.638 557.279 332.729 554.267 333.635C551.475 334.622 548.52 335.485 545.445 336.209C542.375 336.891 539.229 337.465 536.035 337.925C533.632 338.332 531.18 338.629 528.715 338.814C528.452 338.834 528.192 338.82 527.959 338.775C527.726 338.73 527.53 338.654 527.388 338.555C527.196 338.427 527.03 338.289 526.891 338.143C526.898 338.12 526.838 338.096 526.818 338.068L526.752 338.068C527.142 340.614 523.962 340.487 523.379 340.476L520.878 340.452C519.831 340.442 518.775 340.432 517.74 340.376L516.156 340.49C515.192 340.555 513.915 340.622 512.717 340.675C510.27 340.795 507.821 340.86 507.821 340.86C504.666 340.644 501.56 340.387 498.488 340.08C495.334 339.962 492.183 339.797 489.07 339.601C485.957 339.404 482.947 339.042 479.925 338.725C477.057 338.188 474.231 337.636 471.448 337.069L462.889 335.597C459.66 335.398 456.489 335.089 453.399 334.672C450.319 334.005 447.492 333.126 444.996 332.058C442.623 330.976 440.54 329.754 438.788 328.413C437.344 327.062 436.088 325.657 435.029 324.208C433.73 322.857 432.516 321.474 431.483 320.051C430.451 318.628 429.457 317.201 428.733 315.726C427.819 314.286 426.999 312.814 426.388 311.307C426.118 309.762 425.966 308.204 426.014 306.644C425.501 305.115 425.154 303.566 424.971 302.001L425.82 299.721L426.556 297.468C426.026 296.008 425.446 294.557 424.842 293.092L425.004 288.54C425.446 286.988 425.89 285.431 426.411 283.866C426.637 282.312 426.911 280.753 427.394 279.188C427.346 278.793 427.364 278.4 427.345 278.001C427.309 277.577 427.326 277.148 427.398 276.719C427.534 276.027 428.036 275.342 428.853 274.732C429.464 274.294 430.245 273.914 431.145 273.617C432.046 273.319 433.044 273.112 434.075 273.007C435.828 272.885 437.553 273.02 439.026 273.393C440.406 273.735 441.533 274.258 442.293 274.911C443.328 275.907 443.778 277.048 443.601 278.222C443.488 279.148 443.363 279.753 443.293 280.498C443.222 281.243 443.178 281.929 443.194 282.637C442.64 284.075 442.299 285.518 442.172 286.954C442.578 288.273 443.35 289.539 444.467 290.719C445.769 291.665 447.585 292.408 449.746 292.877C451.764 293.779 453.988 294.569 456.387 295.234C459.261 295.642 462.31 296.097 465.241 296.667C467.898 297.512 470.36 298.483 472.597 299.568C473.183 299.736 473.791 299.894 474.343 300.08L475.208 300.367L475.649 300.51C475.76 300.549 475.876 300.584 475.998 300.615C476.419 300.665 476.68 300.645 476.813 300.544C476.876 300.504 476.918 300.458 476.936 300.411C476.935 300.777 477.234 301.424 477.359 302.412C477.365 302.435 477.381 302.458 477.407 302.477C477.321 301.647 477.401 301.036 477.393 300.666L477.38 300.545C477.502 300.537 477.62 300.512 477.722 300.474L477.827 300.438C477.738 300.484 477.933 300.365 477.978 300.338L478.806 299.757C479.927 299.013 481.184 298.316 482.559 297.676C484.656 296.147 487.213 294.763 490.13 293.58C493.467 292.865 496.927 292.346 500.428 292.034C501.216 291.861 502.027 291.702 502.831 291.539C503.661 291.369 504.505 291.222 505.359 291.1C507.012 290.842 508.624 290.631 510.279 290.433C513.596 289.981 516.948 289.644 520.309 289.427C523.694 289.636 527.148 289.863 530.646 290.833C531.785 291.09 532.785 291.456 533.593 291.913C534.378 292.372 534.894 292.932 535.096 293.544C535.277 294.147 535.168 294.78 534.777 295.393C534.349 296.007 533.603 296.574 532.616 297.036C532.155 297.29 531.654 297.527 531.118 297.744C530.85 297.858 530.57 297.965 530.279 298.065L529.616 298.299C528.785 298.578 527.928 298.835 527.05 299.071C525.43 299.496 523.776 299.882 522.094 300.228C518.69 300.39 515.484 300.42 512.398 300.492C511.662 300.587 510.933 300.686 510.249 300.796C509.922 300.848 509.595 300.9 509.314 300.958L508.942 301.033L508.435 301.153C507.09 301.464 505.779 301.817 504.511 302.209C502.391 303.002 500.69 304.036 499.591 305.2C498.334 306.083 497.766 307.126 498.003 308.117C497.929 309.248 498.658 310.311 500.068 311.13C501.805 311.995 503.951 312.648 506.362 313.043C509.016 313.47 511.789 313.752 514.636 313.887L518.083 313.809C518.619 313.786 519.397 313.78 519.632 313.749C519.756 313.717 519.866 313.672 519.954 313.618C520.039 313.549 520.12 313.467 520.067 313.42C520.533 313.305 520.961 313.153 521.331 312.969L521.74 312.792L522.408 312.474C522.876 312.245 523.371 312.028 523.889 311.826C524.844 311.442 525.937 311.154 527.091 310.981C527.653 310.912 528.223 310.872 528.789 310.863C529.342 310.877 529.885 310.915 530.413 310.976C530.777 311.029 531.124 311.101 531.449 311.19C532.587 311.359 533.622 311.636 534.499 312.007C534.668 312.084 534.864 312.147 535.08 312.193L535.478 312.289C535.737 312.353 536.005 312.408 536.282 312.455C537.36 312.655 538.512 312.774 539.701 312.807C541.86 313.16 544.234 313.232 546.604 313.017C549.076 312.997 551.569 312.634 553.79 311.969C555.652 311.021 557.045 309.887 557.841 308.673C558.604 307.523 558.781 306.332 558.356 305.209C558.484 304.647 558.459 304.089 558.28 303.549C558.128 303.045 557.779 302.571 557.25 302.15C555.858 301.456 553.232 300.912 550.426 300.069C550.08 299.955 549.74 299.854 549.395 299.735L548.889 299.554L548.492 299.421C548.435 299.42 548.397 299.387 548.361 299.382L548.295 299.382L547.951 299.328L547.044 299.189C546.72 299.138 546.405 299.077 546.103 299.004C545.539 298.868 545.035 298.684 544.612 298.462C544.194 298.224 543.879 297.947 543.682 297.642C543.322 297.003 543.263 296.316 543.508 295.63C543.649 295.276 543.866 294.926 544.156 294.585L544.602 294.08L545.215 293.622C545.63 293.315 546.105 293.026 546.634 292.76C547.084 292.543 547.565 292.342 548.073 292.158C549.908 291.512 551.978 291.066 554.121 290.854C556.21 290.506 558.381 290.392 560.459 290.521C560.755 290.538 561.044 290.569 561.322 290.613C561.578 290.639 561.828 290.673 562.068 290.717L563.241 290.919L565.601 291.335C568.481 292.145 571.035 293.181 573.174 294.405C574.21 295.022 575.132 295.684 575.93 296.386C576.324 296.733 576.673 297.094 576.975 297.466C577.332 297.818 577.629 298.186 577.863 298.568C578.467 299.071 578.993 299.597 579.438 300.144C579.645 300.049 579.852 299.953 580.04 299.858L580.488 299.214L580.86 298.573L579.654 297.927L581.57 297.279L580.009 296.647L580.353 296.002L581.924 295.336L581.157 294.708L580.303 294.089L581.507 293.415L581.252 292.782L581.168 292.147L582.204 291.466L581.632 290.85L582.202 290.179L582.984 289.491L582.055 288.903L582.386 288.24L582.264 287.604L581.775 286.997L582.378 286.308C582.227 286.107 582.107 285.898 581.984 285.697C582.26 285.459 582.522 285.239 582.764 284.987L583.263 284.297C583.127 284.096 583.041 283.885 583.007 283.669L583.245 282.999C583.18 282.83 583.232 282.649 583.392 282.482C583.402 282.45 583.624 282.401 584.177 282.318L585.071 282.202L585.561 282.142C586.622 282.036 586.684 282.152 586.797 282.186C587.531 282.267 587.348 282.446 587.438 282.595L588.107 283.199C588.326 283.396 588.501 283.606 588.629 283.825C588.487 284.06 588.328 284.285 588.143 284.533L588.733 285.155C588.609 285.39 588.497 285.616 588.344 285.856L589.926 286.413L589.46 287.117L589.872 287.765L589.927 288.432L589.098 289.152L589.067 289.823L589.009 290.494L590.319 291.109L590.507 291.778L589.652 292.488L589.554 293.163L589.693 293.836L589.062 294.525L589.107 295.197L589.331 295.871L589.896 296.543C589.984 296.766 590.066 297.008 590.138 297.222L589.412 297.91L590.277 298.594L589.08 299.273L588.462 299.948L589.793 300.656L587.886 301.272L589.195 301.993L588.699 302.669L589.065 303.377L586.548 303.978L588.007 304.733L587.551 305.438L586.152 306.064C586.338 306.306 586.53 306.53 586.681 306.796L585.556 307.424L584.988 308.091L586.828 308.937L585.304 309.525Z" fill="#102B4C"/>
<path d="M313.325 177.649L224.78 95.2061L190.233 132.281L251.052 169.843L138.177 176.673L313.325 177.649ZM138.665 115.938L79.7942 168.87L129.908 166.185L217.965 80.5719L138.665 115.938Z" fill="#035BDA"/>
</svg>
