<svg width="1440" height="1024" viewBox="0 0 1440 1024" fill="none" xmlns="http://www.w3.org/2000/svg">
<path d="M1005.23 883.188H140V910.669H1005.23V883.188Z" fill="#E0E0E0"/>
<path d="M968.565 910.682H176.667V921.923H968.565V910.682Z" fill="#E0E0E0"/>
<path opacity="0.1" d="M968.565 910.682H176.667V914.425H968.565V910.682Z" fill="black"/>
<path opacity="0.1" d="M399.19 885.286C399.19 885.286 515.29 884.859 554.772 884.859C594.253 884.859 710.353 885.286 710.353 885.286V869.448H399.19V885.286Z" fill="black"/>
<path d="M710.367 882.108C710.367 882.108 594.267 881.681 554.785 881.681C515.304 881.681 399.204 882.108 399.204 882.108V681.98C399.204 643.312 415.594 606.228 444.768 578.884C473.942 551.54 513.512 536.177 554.772 536.174C575.204 536.172 595.437 539.942 614.315 547.269C633.192 554.596 650.345 565.336 664.793 578.875C679.242 592.415 690.703 608.489 698.523 626.18C706.342 643.871 710.367 662.832 710.367 681.98V882.108Z" fill="#0E6BA8"/>
<path d="M591.359 540.72C591.359 540.72 788.151 511.996 747.57 797.279L723.903 879.056L656.25 876.544C656.25 876.544 700.222 781.454 673.163 718.052C646.105 654.65 591.359 540.72 591.359 540.72Z" fill="#0E6BA8"/>
<path d="M518.198 540.72C518.198 540.72 321.46 511.996 361.987 797.279L385.655 879.056L453.307 876.544C453.307 876.544 409.336 781.454 436.394 718.052C463.452 654.65 518.198 540.72 518.198 540.72Z" fill="#0E6BA8"/>
<path opacity="0.1" d="M433.017 666.431C433.017 666.431 419.481 764.398 443.162 792.921L433.017 666.431Z" fill="black"/>
<path opacity="0.1" d="M676.541 668.943C676.541 668.943 690.077 764.398 666.396 792.921L676.541 668.943Z" fill="black"/>
<path d="M681.54 911.172C702.086 911.172 718.743 895.562 718.743 876.306C718.743 857.05 702.086 841.44 681.54 841.44C660.993 841.44 644.336 857.05 644.336 876.306C644.336 895.562 660.993 911.172 681.54 911.172Z" fill="#FDB797"/>
<path d="M428.018 911.172C448.565 911.172 465.221 895.562 465.221 876.306C465.221 857.05 448.565 841.44 428.018 841.44C407.471 841.44 390.814 857.05 390.814 876.306C390.814 895.562 407.471 911.172 428.018 911.172Z" fill="#FDB797"/>
<path d="M644.014 680.775H465.342C449.547 680.775 436.742 692.775 436.742 707.577V849.905C436.742 864.708 449.547 876.708 465.342 876.708H644.014C659.809 876.708 672.614 864.708 672.614 849.905V707.577C672.614 692.775 659.809 680.775 644.014 680.775Z" fill="#E0E0E0"/>
<path d="M509.688 862.804V848.096C509.694 847.885 509.651 847.675 509.562 847.48C509.472 847.286 509.339 847.112 509.17 846.971C509.002 846.83 508.803 846.725 508.587 846.663C508.371 846.602 508.143 846.585 507.919 846.614C505.688 846.655 503.487 847.112 501.446 847.958V862.766H497.024V835.537H501.433V844.529C503.696 843.701 506.094 843.247 508.522 843.186C512.543 843.186 514.031 845.497 514.031 848.662V862.791H509.662L509.688 862.804ZM522.299 853.912C522.447 858.835 523.479 859.802 526.709 859.802C529.324 859.688 531.899 859.153 534.321 858.22L535.058 861.322C532.367 862.555 529.422 863.224 526.427 863.281C519.07 863.281 517.93 859.513 517.93 853.459C517.845 850.408 518.214 847.36 519.029 844.404C521.879 843.493 524.879 843.068 527.888 843.148C533.919 843.148 535.755 846.288 535.755 851.764V853.861H522.353L522.299 853.912ZM527.888 846.639C526.165 846.612 524.443 846.725 522.742 846.979C522.446 848.318 522.284 849.68 522.259 851.048H531.453C531.453 848.184 530.903 846.639 527.888 846.639ZM543.97 847.983V862.791H539.561V846.124C542.733 844.578 546.217 843.675 549.786 843.474V846.916C547.804 846.982 545.845 847.342 543.984 847.983H543.97ZM561.392 863.281C554.812 863.281 551.837 860.254 551.837 853.321C551.837 845.986 555.764 843.198 561.392 843.198C567.973 843.198 570.948 846.225 570.948 853.158C570.948 860.493 567.008 863.281 561.392 863.281ZM561.392 846.639C558.015 846.639 556.139 848.461 556.139 853.321C556.139 858.621 557.72 859.802 561.392 859.802C564.77 859.802 566.646 858.006 566.646 853.158C566.646 847.858 565.065 846.652 561.392 846.652V846.639ZM592.217 862.791H587.03C585.808 859.559 583.939 856.575 581.522 853.999H579.203V862.791H574.888V835.537H579.297V851.174H581.361C583.558 848.973 585.315 846.421 586.548 843.638H591.506C589.896 846.712 587.774 849.527 585.221 851.977C587.994 855.318 590.371 858.931 592.31 862.754L592.217 862.791ZM600.485 863.269C596.465 863.269 594.977 860.958 594.977 857.792V843.688H599.346V858.333C599.34 858.544 599.383 858.754 599.473 858.949C599.562 859.143 599.696 859.317 599.864 859.458C600.033 859.599 600.232 859.704 600.448 859.766C600.664 859.827 600.892 859.844 601.115 859.815C603.421 859.777 605.696 859.32 607.816 858.471V843.688H612.279V860.292C608.727 862.235 604.692 863.266 600.579 863.281L600.485 863.269ZM598.542 828.591H510.667C508.877 828.594 507.105 828.267 505.451 827.628C503.797 826.989 502.293 826.051 501.026 824.867C499.759 823.683 498.753 822.276 498.067 820.728C497.38 819.18 497.025 817.52 497.024 815.843V707.515C497.024 705.839 497.376 704.179 498.06 702.631C498.744 701.083 499.747 699.676 501.012 698.491C502.276 697.306 503.777 696.366 505.429 695.725C507.081 695.084 508.852 694.754 510.64 694.754H598.596C600.389 694.747 602.166 695.072 603.825 695.71C605.484 696.349 606.992 697.287 608.263 698.473C609.534 699.658 610.543 701.067 611.233 702.619C611.922 704.17 612.277 705.834 612.279 707.515V815.843C612.279 817.52 611.926 819.18 611.241 820.729C610.556 822.278 609.552 823.685 608.286 824.87C607.02 826.056 605.518 826.995 603.864 827.636C602.211 828.276 600.439 828.605 598.649 828.604L598.542 828.591Z" fill="#6762A6"/>
<path d="M569.246 810.191V757.038C569.246 757.038 572.931 744.315 523.8 762.238C523.707 762.464 523.707 713.079 523.707 713.079L539.789 712.991V744.629C539.789 744.629 584.738 728.037 584.738 757.189V810.166H569.246V810.191ZM578.399 732.132H561.352C567.477 725.111 573.025 713.079 573.025 713.079H590.635C590.635 713.079 587.62 720.916 578.372 732.132H578.399ZM524.001 810.09V779.821L540.151 794.956L524.001 810.09Z" fill="white"/>
<path d="M1134.41 671.003C1134.36 672.81 1134.6 674.613 1135.12 676.354C1135.69 677.843 1136.38 679.292 1137.17 680.687C1137.46 681.098 1137.62 681.577 1137.63 682.068C1137.59 682.438 1137.46 682.794 1137.25 683.108C1137.04 683.422 1136.75 683.685 1136.41 683.877L1132.39 686.389C1131.9 686.719 1131.32 686.906 1130.71 686.929C1129.98 686.883 1129.29 686.583 1128.78 686.088C1127.92 685.217 1127.15 684.27 1126.48 683.262C1125.84 682.244 1125.14 681.101 1124.5 679.707C1122.23 682.347 1119.36 684.467 1116.09 685.906C1112.82 687.345 1109.24 688.064 1105.63 688.009C1100.26 688.009 1095.94 686.565 1092.79 683.676C1089.55 680.364 1087.85 675.984 1088.05 671.496C1088.25 667.009 1090.35 662.78 1093.87 659.737C1097.79 656.61 1102.99 655.04 1109.59 655.04C1111.87 655.056 1114.15 655.215 1116.4 655.517C1118.77 655.818 1121.21 656.296 1123.79 656.836V652.44C1123.79 647.868 1122.75 644.678 1120.77 642.819C1118.79 640.96 1115.25 640.056 1110.3 640.056C1107.97 640.055 1105.64 640.316 1103.37 640.835C1101.02 641.362 1098.7 642.046 1096.45 642.882C1095.71 643.187 1094.96 643.447 1094.19 643.66C1093.86 643.762 1093.51 643.821 1093.16 643.836C1092.26 643.836 1091.82 643.234 1091.82 641.978V639.026C1091.75 638.296 1091.91 637.563 1092.28 636.916C1092.76 636.371 1093.38 635.94 1094.07 635.66C1096.63 634.467 1099.33 633.557 1102.11 632.947C1105.38 632.16 1108.75 631.776 1112.13 631.804C1119.76 631.804 1125.35 633.424 1128.94 636.677C1132.54 639.93 1134.31 644.854 1134.31 651.473V671.003H1134.41ZM1108.36 680.147C1110.61 680.124 1112.84 679.759 1114.97 679.067C1117.32 678.302 1119.43 676.972 1121.06 675.211C1122.1 674.101 1122.85 672.781 1123.25 671.355C1123.69 669.64 1123.91 667.881 1123.89 666.117V663.605C1121.94 663.163 1119.97 662.823 1117.98 662.588C1115.98 662.349 1113.97 662.227 1111.95 662.224C1107.65 662.224 1104.5 663.003 1102.38 664.635C1100.78 665.729 1099.59 667.281 1099.01 669.06C1098.43 670.838 1098.47 672.745 1099.15 674.495C1099.82 676.246 1101.08 677.744 1102.74 678.766C1104.4 679.787 1106.37 680.276 1108.35 680.159L1108.36 680.147ZM1159.9 686.64C1159.04 686.723 1158.17 686.509 1157.46 686.037C1156.79 685.385 1156.33 684.572 1156.12 683.689L1141.05 637.217C1140.75 636.437 1140.56 635.628 1140.47 634.806C1140.44 634.606 1140.46 634.403 1140.52 634.211C1140.59 634.019 1140.7 633.843 1140.85 633.698C1140.99 633.552 1141.18 633.44 1141.38 633.371C1141.58 633.302 1141.8 633.277 1142.01 633.299H1148.3C1149.18 633.197 1150.08 633.412 1150.8 633.902C1151.47 634.554 1151.94 635.367 1152.14 636.25L1162.86 676.077L1172.88 636.25C1173.01 635.366 1173.43 634.544 1174.1 633.902C1174.87 633.458 1175.77 633.247 1176.67 633.299H1181.8C1182.71 633.208 1183.62 633.422 1184.37 633.902C1185.05 634.537 1185.47 635.363 1185.59 636.25L1195.74 676.555L1206.85 636.25C1207.07 635.371 1207.53 634.561 1208.19 633.902C1208.94 633.457 1209.81 633.246 1210.7 633.299H1216.66C1216.88 633.269 1217.1 633.288 1217.31 633.353C1217.52 633.419 1217.71 633.529 1217.87 633.675C1218.02 633.821 1218.14 634 1218.21 634.196C1218.28 634.392 1218.3 634.601 1218.27 634.806C1218.25 635.131 1218.21 635.455 1218.13 635.773C1218.03 636.287 1217.88 636.792 1217.68 637.28L1202.21 683.751C1202.02 684.641 1201.56 685.458 1200.87 686.1C1200.15 686.536 1199.29 686.747 1198.43 686.703H1192.91C1192 686.793 1191.09 686.58 1190.34 686.1C1189.67 685.439 1189.24 684.594 1189.12 683.689L1179.17 644.891L1169.28 683.626C1169.13 684.523 1168.71 685.361 1168.06 686.037C1167.3 686.505 1166.4 686.718 1165.49 686.64H1159.9ZM1242.38 688.26C1239.05 688.265 1235.73 687.902 1232.49 687.18C1229.92 686.69 1227.44 685.879 1225.1 684.769C1224.28 684.403 1223.59 683.818 1223.12 683.086C1222.87 682.555 1222.74 681.983 1222.73 681.403V678.338C1222.73 677.082 1223.24 676.479 1224.2 676.479C1224.6 676.479 1224.99 676.539 1225.36 676.655C1225.75 676.781 1226.32 677.019 1226.97 677.258C1229.23 678.194 1231.6 678.902 1234.03 679.368C1236.54 679.844 1239.1 680.084 1241.67 680.084C1244.93 680.266 1248.18 679.578 1251.05 678.1C1252.09 677.508 1252.95 676.667 1253.54 675.664C1254.12 674.66 1254.42 673.529 1254.39 672.385C1254.41 671.611 1254.27 670.841 1253.97 670.119C1253.67 669.396 1253.23 668.737 1252.66 668.177C1250.78 666.683 1248.56 665.613 1246.17 665.05L1236.8 662.337C1232.11 660.955 1228.65 658.908 1226.54 656.195C1224.47 653.7 1223.35 650.636 1223.33 647.479C1223.28 645.148 1223.88 642.845 1225.06 640.797C1226.21 638.86 1227.79 637.177 1229.69 635.861C1231.69 634.439 1233.97 633.379 1236.39 632.734C1239 632.03 1241.71 631.687 1244.43 631.716C1245.87 631.705 1247.3 631.785 1248.73 631.955C1250.2 632.131 1251.56 632.382 1252.9 632.62C1254.24 632.859 1255.4 633.223 1256.56 633.588C1257.49 633.859 1258.39 634.221 1259.24 634.668C1259.99 635.025 1260.65 635.541 1261.17 636.175C1261.58 636.76 1261.79 637.457 1261.74 638.159V640.985C1261.74 642.241 1261.23 642.907 1260.27 642.907C1259.41 642.817 1258.59 642.574 1257.83 642.191C1253.95 640.582 1249.74 639.781 1245.5 639.842C1242.55 639.678 1239.6 640.26 1236.96 641.525C1235.98 642.071 1235.18 642.859 1234.65 643.803C1234.12 644.747 1233.88 645.81 1233.95 646.876C1233.93 647.675 1234.09 648.468 1234.43 649.204C1234.76 649.94 1235.25 650.602 1235.88 651.146C1237.96 652.694 1240.37 653.819 1242.94 654.449L1252.05 657.162C1256.68 658.544 1260.01 660.466 1262 662.94C1263.96 665.362 1264.99 668.329 1264.95 671.367C1264.98 673.786 1264.4 676.178 1263.27 678.351C1262.13 680.408 1260.53 682.211 1258.58 683.638C1256.46 685.183 1254.04 686.327 1251.45 687.004C1248.48 687.859 1245.38 688.283 1242.27 688.26H1242.38Z" fill="#252F3E"/>
<path d="M1254.51 717.474C1233.38 732.094 1202.71 739.856 1176.33 739.856C1141.09 740.027 1107.06 727.861 1080.89 705.744C1078.9 704.061 1080.7 701.775 1083.07 703.093C1108.42 716.797 1136.81 724.813 1166.02 726.515C1195.23 728.217 1224.46 723.558 1251.42 712.903C1254.95 711.395 1257.98 715.063 1254.51 717.474Z" fill="#FF9900"/>
<path d="M1263.3 708.117C1260.62 704.864 1245.46 706.547 1238.58 707.339C1236.53 707.577 1236.21 705.894 1238.08 704.626C1250.14 696.688 1269.97 698.974 1272.29 701.624C1274.61 704.274 1271.65 722.976 1260.35 731.767C1258.62 733.149 1256.95 732.433 1257.67 730.624C1260.28 724.709 1265.99 711.295 1263.3 708.117Z" fill="#FF9900"/>
<path d="M997.621 395.203L965.912 343.707L997.621 292.212H1061.02L1092.73 343.707L1061.02 395.203H997.621Z" fill="#CAC9C2"/>
<path d="M1030.41 367.232C1025.53 367.232 1020.75 365.874 1016.69 363.329C1012.62 360.784 1009.45 357.167 1007.58 352.935C1005.71 348.703 1005.22 344.046 1006.18 339.553C1007.13 335.061 1009.48 330.934 1012.94 327.695C1016.4 324.456 1020.8 322.25 1025.59 321.356C1030.39 320.463 1035.36 320.921 1039.87 322.674C1044.39 324.427 1048.25 327.396 1050.96 331.204C1053.68 335.013 1055.13 339.491 1055.13 344.072C1055.12 350.212 1052.51 356.099 1047.88 360.441C1043.25 364.783 1036.97 367.225 1030.41 367.232Z" fill="white"/>
<path d="M1080.11 275.018C1078.94 273.35 1077.38 271.961 1075.54 270.964C1073.7 269.967 1071.63 269.39 1069.51 269.278H991.375C989.252 269.39 987.187 269.967 985.345 270.964C983.504 271.961 981.939 273.35 980.775 275.018L957.992 312.069C957.769 314.39 958.262 316.723 959.412 318.789L974.864 343.544L1002.45 298.881H1089.64C1091.9 298.965 1094.11 299.616 1096.02 300.765L1080.15 275.005" fill="#5072AA"/>
<path d="M958.943 310.462L957.938 312.082C957.716 314.403 958.209 316.735 959.358 318.801L974.811 343.557L983.026 330.243L958.903 310.449" fill="#4D6796"/>
<path d="M993.386 288.331C992.442 288.331 991.52 288.069 990.735 287.578C989.951 287.086 989.339 286.388 988.978 285.571C988.617 284.754 988.522 283.855 988.706 282.988C988.891 282.12 989.345 281.324 990.012 280.698C990.679 280.073 991.529 279.647 992.455 279.475C993.38 279.302 994.34 279.391 995.212 279.729C996.083 280.067 996.828 280.64 997.353 281.376C997.877 282.111 998.157 282.976 998.157 283.86C998.157 285.046 997.654 286.183 996.759 287.022C995.865 287.86 994.651 288.331 993.386 288.331ZM1071.52 283.86C1071.53 284.403 1071.42 284.943 1071.2 285.447C1070.99 285.952 1070.67 286.412 1070.26 286.801C1069.86 287.19 1069.37 287.5 1068.84 287.714C1068.31 287.928 1067.74 288.042 1067.16 288.049C1066.58 288.055 1066 287.955 1065.46 287.753C1064.92 287.551 1064.43 287.252 1064.02 286.872C1063.18 286.105 1062.7 285.058 1062.69 283.96C1062.69 283.96 1062.69 283.885 1062.69 283.86C1062.69 282.762 1063.15 281.71 1063.98 280.934C1064.81 280.157 1065.93 279.721 1067.1 279.721C1068.27 279.721 1069.4 280.157 1070.22 280.934C1071.05 281.71 1071.52 282.762 1071.52 283.86Z" fill="white"/>
<path d="M1119.16 338.432L1095.96 300.753C1094.05 299.603 1091.85 298.953 1089.58 298.869H1058.16L1085.36 343.808L1042.32 415.085C1041.22 416.732 1039.7 418.097 1037.89 419.054H1069.52C1071.64 418.942 1073.71 418.364 1075.55 417.367C1077.39 416.37 1078.96 414.982 1080.12 413.314L1119.19 349.899C1120.15 348.122 1120.65 346.158 1120.65 344.166C1120.65 342.174 1120.15 340.21 1119.19 338.432" fill="#CC4232"/>
<path d="M1097.02 302.474L1095.98 300.778C1094.07 299.628 1091.86 298.977 1089.6 298.894H1058.16L1066.34 312.408L1097.02 302.461" fill="#B23F33"/>
<path d="M1067.1 408.101C1066.15 408.101 1065.23 407.839 1064.44 407.348C1063.66 406.857 1063.05 406.158 1062.69 405.341C1062.33 404.524 1062.23 403.625 1062.42 402.758C1062.6 401.89 1063.05 401.094 1063.72 400.468C1064.39 399.843 1065.24 399.417 1066.16 399.245C1067.09 399.072 1068.05 399.161 1068.92 399.499C1069.79 399.838 1070.54 400.411 1071.06 401.146C1071.59 401.881 1071.87 402.746 1071.87 403.63C1071.87 404.816 1071.36 405.953 1070.47 406.792C1069.57 407.63 1068.36 408.101 1067.1 408.101ZM1104.21 348.543C1103.26 348.543 1102.34 348.281 1101.55 347.789C1100.77 347.298 1100.16 346.6 1099.8 345.783C1099.44 344.966 1099.34 344.067 1099.53 343.199C1099.71 342.332 1100.16 341.535 1100.83 340.91C1101.5 340.285 1102.35 339.859 1103.27 339.686C1104.2 339.514 1105.16 339.602 1106.03 339.941C1106.9 340.279 1107.65 340.852 1108.17 341.587C1108.7 342.323 1108.98 343.187 1108.98 344.072C1108.98 345.257 1108.47 346.395 1107.58 347.233C1106.68 348.072 1105.47 348.543 1104.21 348.543Z" fill="white"/>
<path d="M1003.01 388.734L959.385 318.801C958.236 316.735 957.743 314.403 957.965 312.082L941.735 338.457C940.778 340.235 940.279 342.199 940.279 344.191C940.279 346.183 940.778 348.146 941.735 349.924L980.828 413.314C981.994 414.979 983.56 416.365 985.401 417.36C987.242 418.355 989.307 418.931 991.429 419.041H1037.92C1039.72 418.084 1041.24 416.72 1042.34 415.072L1058.26 388.697H1003.01" fill="#ECB02A"/>
<path d="M1035.23 419.054H1037.91C1039.71 418.097 1041.23 416.733 1042.33 415.085L1058.25 388.709H1041.32L1035.23 419.028" fill="#C79732"/>
<path d="M993.386 408.101C992.442 408.101 991.52 407.839 990.735 407.348C989.95 406.857 989.339 406.158 988.978 405.341C988.617 404.524 988.522 403.625 988.706 402.758C988.89 401.89 989.345 401.094 990.012 400.468C990.679 399.843 991.529 399.417 992.455 399.245C993.38 399.072 994.34 399.161 995.211 399.499C996.083 399.838 996.828 400.411 997.353 401.146C997.877 401.881 998.157 402.746 998.157 403.63C998.157 404.816 997.654 405.953 996.759 406.792C995.865 407.63 994.651 408.101 993.386 408.101ZM956.209 348.543C955.265 348.543 954.343 348.281 953.558 347.789C952.774 347.298 952.162 346.6 951.801 345.783C951.44 344.966 951.346 344.067 951.53 343.199C951.714 342.332 952.168 341.535 952.835 340.91C953.503 340.285 954.353 339.859 955.278 339.686C956.204 339.514 957.163 339.602 958.035 339.941C958.907 340.279 959.652 340.852 960.176 341.587C960.7 342.323 960.98 343.187 960.98 344.072C960.98 345.257 960.477 346.395 959.583 347.233C958.688 348.072 957.474 348.543 956.209 348.543Z" fill="white"/>
<path d="M646.243 417.896C646.635 417.455 646.973 417 647.345 416.541L646.968 415.127C647.17 414.677 647.39 414.215 647.577 413.759C647.549 413.305 647.537 412.852 647.483 412.41C647.403 411.963 647.278 411.525 647.111 411.099C647.014 410.673 646.948 410.24 646.911 409.803L646.798 408.514L647.113 407.19L646.901 405.918L646.827 404.629C646.967 404.172 647.123 403.715 647.247 403.258L646.89 401.996L645.725 400.879L645.49 399.606C645.408 399.182 645.286 398.764 645.172 398.345C645.271 397.88 645.33 397.415 645.349 396.952C645.194 396.539 645.064 396.12 644.863 395.736L644.099 394.565L643.835 393.231L642.21 392.41C642.098 391.979 641.928 391.565 641.775 391.14C641.44 390.797 641.053 390.477 640.682 390.157C640.546 389.723 640.374 389.299 640.167 388.887C639.788 388.567 639.425 388.241 639.009 387.951C638.632 387.628 638.193 387.349 637.704 387.122C637.449 386.997 637.368 386.742 637.058 386.653C637.059 386.6 637.086 386.547 637.133 386.503C637.43 385.843 636.997 386.163 636.929 386.144C636.562 386.049 636.18 385.98 635.788 385.939C635.225 385.754 634.637 385.606 634.03 385.496C633.464 385.157 632.841 384.872 632.172 384.647C631.326 384.766 630.489 384.957 629.678 385.214C628.72 385.153 627.731 385.241 626.772 385.473C625.954 385.994 625.27 386.626 624.767 387.328C623.895 387.767 623.109 388.305 622.444 388.919C622.209 389.55 622.075 390.192 622.045 390.829C621.943 391.369 621.889 391.909 621.883 392.446C621.887 392.947 621.917 393.431 621.958 393.861L621.715 395.18L622.905 396.328L621.668 397.772L622.625 398.934L623.055 400.149L622.811 401.475L622.987 402.728L622.742 404.06L623.509 405.213L624.089 406.388L623.558 407.764L624.369 408.894L623.919 410.259L625.186 411.293L624.514 412.697L625.378 413.803L624.409 415.263L626.089 416.212L625.967 417.528L625.193 419.009L626.421 420.078L626.584 421.404L626.309 422.899C626.898 423.212 627.512 423.499 628.149 423.76C628.301 424.191 628.455 424.61 628.644 425.054C628.754 425.607 628.935 426.143 629.185 426.657C629.834 427.146 630.593 427.544 631.436 427.839C632.011 428.412 632.77 428.862 633.655 429.153C634.615 429.291 635.632 429.251 636.623 429.034L636.73 428.975C637.575 428.476 638.279 427.849 638.786 427.145C639.746 426.99 640.87 426.505 641.624 426.389C642.014 425.918 642.321 425.415 642.688 424.937C643.054 424.459 643.577 424.086 643.985 423.639C644.038 423.082 644.049 422.528 644.02 421.978C644.648 421.607 645.252 421.212 645.83 420.796C645.76 420.264 645.652 419.738 645.506 419.22C645.738 418.801 645.98 418.351 646.243 417.896Z" fill="#102B4C"/>
<path d="M634.768 486.977C634.768 486.977 634.717 485.436 634.574 483.917C634.432 482.398 634.255 480.891 634.255 480.891L634.849 478.96L635.297 477.432C635.363 477.071 636.401 475.152 630.454 475.578L630.462 475.535L630.904 475.469C631.775 475.325 632.654 475.175 633.375 475.023C634.853 474.694 635.278 474.374 635.305 474.097C635.325 472.575 635.192 471.069 634.908 469.589L634.853 463.691L634.327 457.895C634.592 455.929 634.891 453.972 635.223 452.023C635.557 450.076 636.122 448 636.529 446C636.327 444.027 636.08 442.066 635.788 440.116L636.531 434.084C636.199 432.134 635.834 430.193 635.435 428.261C635.221 426.306 634.992 424.351 634.729 422.402C634.67 420.425 634.596 418.448 634.465 416.476C633.742 414.604 632.977 412.744 632.196 410.889L632.249 404.884L631.954 398.952C631.253 396.908 630.346 394.923 629.239 393.014C628.849 390.812 628.177 388.668 627.232 386.61C625.741 384.676 623.928 382.911 621.829 381.351C619.629 379.795 617.094 378.521 614.306 377.571C611.894 376.161 609.204 375.022 606.306 374.183C603.255 374.097 600.163 374.253 597.079 374.651C594.217 374.96 591.363 375.4 588.532 375.968C585.777 375.703 583.038 375.529 580.296 375.374L572.374 376.235L564.691 379.045L556.701 378.37L549.004 380.824C546.393 381.123 543.763 381.398 540.994 381.774C538.132 382.115 535.281 382.601 532.462 383.23C529.25 383.648 526.079 384.396 523.039 385.453C519.95 386.876 517.139 388.652 514.724 390.707C513.104 392.955 511.892 395.327 511.127 397.753C509.853 399.793 508.787 401.886 507.938 404.014C506.084 405.908 504.317 407.858 502.697 409.779C502.801 411.902 502.771 414.01 503.021 416.074C502.396 418.089 501.715 420.103 501.223 422.126C500.06 424.121 498.894 426.134 497.819 428.172L498.146 431.241L498.617 434.269C498.747 436.289 499.009 438.287 499.263 440.278C498.09 442.327 497.067 444.385 495.976 446.465C496.689 448.434 497.536 450.368 498.305 452.289L496.636 458.421L498.395 464.187C497.828 466.233 497.225 468.297 496.705 470.35C497.708 472.201 498.742 474.04 499.807 475.864C499.533 477.878 499.266 479.892 499.057 481.895L501.215 487.48C500.842 489.511 500.626 491.508 500.393 493.511C501.268 495.336 501.761 497.241 503.176 498.99C504.074 500.816 504.974 502.679 505.929 504.5L506.038 504.858L506.031 504.9L506.142 504.901L506.125 504.992L506.13 505.179L506.16 505.929L506.233 507.435C506.288 508.438 506.368 509.447 506.474 510.459C507.028 512.403 507.716 514.313 508.535 516.182C508.956 517.151 509.473 518.087 510.082 518.984C510.657 519.951 511.371 520.858 512.211 521.693L513.596 522.825C514.079 523.183 514.63 523.481 515.144 523.803L516.707 524.745C517.252 525.025 517.827 525.275 518.375 525.543L519.838 526.507C520.34 526.811 520.88 527.079 521.392 527.37C522.414 527.956 523.484 528.496 524.597 528.989C526.645 530.179 528.787 531.279 531.014 532.287L534.569 533.482L538.204 534.539C540.87 534.808 543.519 535.041 546.189 535.153C547.377 535.533 548.603 535.842 549.824 536.174C551.045 536.506 552.278 536.815 553.529 537.111C554.861 537.185 556.198 537.236 557.542 537.243C558.886 537.251 560.218 537.283 561.576 537.261C562.872 537.426 564.175 537.56 565.483 537.664C566.796 537.798 568.164 537.849 569.529 537.917C575.035 537.566 580.547 536.876 586.009 535.854C587.372 535.584 588.74 535.291 590.083 534.96C591.425 534.63 592.783 534.263 594.115 533.86C596.893 533.24 599.632 532.472 602.308 531.565C604.921 530.444 607.429 529.172 609.808 527.761L611.557 526.651C612.128 526.273 612.666 525.858 613.223 525.467C614.338 524.668 615.394 523.824 616.387 522.94C618.079 521.025 619.518 519.005 620.681 516.913C622.338 515.072 623.821 513.155 625.119 511.179C626.586 509.261 627.904 507.292 629.133 505.329C629.928 503.298 630.608 501.29 631.249 499.318C631.758 497.374 632.306 495.213 632.636 493.163C633.487 491.118 634.199 489.053 634.768 486.977Z" fill="#E68688"/>
<path d="M643.627 454.256C642.412 453.894 641.654 453.683 641.196 453.58C640.024 453.284 640.625 453.608 640.599 453.662C640.463 453.881 640.347 454.105 640.253 454.333C639.937 454.607 639.599 454.866 639.242 455.11C638.646 455.161 638.053 455.152 637.479 455.083C637.274 455.452 637.011 455.805 636.697 456.135C636.126 456.068 635.567 455.973 635.021 455.851C634.62 456.205 634.188 456.54 633.73 456.852C633.139 456.594 632.575 456.305 632.042 455.987C631.527 456.164 631.004 456.321 630.474 456.46C629.938 456.518 629.374 456.552 628.803 456.586C628.231 456.62 627.636 456.653 627.036 456.668L625.283 456.328L623.108 457.504C622.615 456.977 622.148 456.445 621.722 455.9C621.037 456.162 620.352 456.424 619.664 456.661C619.042 456.707 618.432 456.734 617.815 456.755C617.326 456.512 616.846 456.263 616.409 456.003C615.887 455.892 615.366 455.782 614.882 455.642C614.501 455.358 614.147 455.054 613.823 454.732C613.243 454.771 612.668 454.781 612.071 454.778C611.531 454.749 611.011 454.653 610.531 454.495C610.405 454.055 610.329 453.603 610.301 453.144C609.748 453.051 609.209 452.926 608.69 452.77C608.681 452.299 608.694 451.84 608.741 451.369C608.018 451.259 607.31 451.113 606.623 450.933C606.804 450.379 607.006 449.845 607.233 449.304C606.743 449.025 606.272 448.686 605.81 448.383C606.207 447.784 606.635 447.187 607.058 446.619C606.206 446.358 605.449 446.19 604.627 445.936C604.694 445.503 604.806 445.07 604.961 444.642C605.402 444.185 605.905 443.76 606.46 443.377C606.007 443.062 605.597 442.714 605.233 442.338C605.394 441.977 605.589 441.622 605.819 441.277C606.276 440.987 606.756 440.72 607.256 440.477C606.824 440.012 606.46 439.511 606.169 438.98C606.493 438.652 606.843 438.339 607.218 438.041C607.711 437.818 608.224 437.623 608.75 437.46C608.923 437.037 609.148 436.624 609.423 436.225C610.039 436.121 610.659 436.049 611.278 436.011C611.704 435.769 612.24 435.626 612.689 435.391C612.926 434.821 613.215 434.26 613.556 433.712C614.311 433.935 615.056 434.212 615.766 434.464C616.228 434.163 616.727 433.874 617.223 433.598C617.768 433.497 618.299 433.42 618.911 433.339C619.425 432.881 619.994 432.43 620.568 431.992L622.585 432.674C623.173 432.248 623.777 431.822 624.408 431.42L626.337 431.497C626.977 431.652 627.615 431.819 628.238 431.985C628.859 431.721 629.488 431.464 630.123 431.215C630.743 431.309 631.354 431.403 631.947 431.514C632.569 431.421 633.173 431.345 633.784 431.27C634.395 431.194 635.028 430.998 635.646 430.887C636.236 430.81 636.829 430.786 637.41 430.816C637.964 430.839 638.51 430.887 639.048 430.961C639.468 431.155 639.853 431.385 640.195 431.649C640.562 431.724 640.914 431.826 641.246 431.955C641.429 432.072 641.573 432.221 641.668 432.39C641.529 432.602 641.312 432.784 641.046 432.913C641.168 433.247 641.306 433.835 641.44 434.278L642.934 435.509L643.053 436.979L643.193 438.431L642.476 439.991L642.581 441.413C642.719 441.874 642.841 442.335 642.954 442.802L642.383 444.262C642.862 444.692 643.401 445.135 643.874 445.595C643.665 446.082 643.457 446.562 643.242 447.042C643.362 447.515 643.434 447.988 643.52 448.472L642.572 449.878L642.621 451.299C642.624 451.731 642.587 452.167 642.509 452.602C642.453 452.91 641.857 453.076 642.438 453.55C642.481 453.605 642.255 453.837 643.627 454.256Z" fill="#96CCED"/>
<path d="M644.066 454.388L643.816 454.314L644.066 454.388Z" fill="#96CCED"/>
<path d="M650.194 446.904C650.142 446.365 650.066 445.826 649.964 445.299C650.248 444.748 650.492 444.201 650.73 443.643C650.571 443.121 650.428 442.599 650.221 442.082C650.174 441.556 650.118 441.036 650.046 440.521L650.228 438.922L649.133 437.516L649.704 435.881L649.998 434.284L649.164 432.888L649.497 432.072L649.66 431.663C649.743 431.505 649.789 431.34 649.797 431.176C649.576 430.299 649.122 429.484 648.463 428.775C647.811 428.15 647.004 427.629 646.079 427.235C645.53 426.62 644.895 426.054 644.184 425.545C643.259 425.5 642.32 425.531 641.38 425.637C640.544 425.689 639.707 425.786 638.874 425.926C638.237 425.535 637.578 425.181 636.895 424.827C636.111 424.761 635.412 424.708 634.678 424.673C633.875 425.054 633.102 425.447 632.352 425.847C631.675 425.498 630.986 425.174 630.273 424.855C629.54 425.201 628.814 425.558 628.11 425.923L625.995 426.036L623.873 426.144L621.674 425.718L619.495 425.873C618.821 426.334 618.17 426.802 617.522 427.294C616.822 427.465 616.063 427.653 615.339 427.866C614.459 427.581 613.519 427.283 612.543 427.045C611.923 427.633 611.343 428.244 610.806 428.874C610.058 429.128 609.295 429.341 608.562 429.644C607.591 429.631 606.61 429.677 605.63 429.782C605.121 430.419 604.664 431.076 604.265 431.749C603.789 432.341 603.372 432.955 603.02 433.586C601.905 433.728 600.798 433.948 599.714 434.244C599.611 435.038 599.596 435.831 599.669 436.612C598.86 437.076 598.085 437.575 597.348 438.106C597.329 438.81 597.373 439.51 597.48 440.198C596.726 440.778 596.027 441.396 595.389 442.046C595.831 442.723 596.368 443.357 596.992 443.937C596.561 444.577 596.19 445.234 595.882 445.903C596.298 446.48 596.784 447.023 597.336 447.526C596.973 448.197 596.621 448.941 596.308 449.565C596.843 449.99 597.38 450.403 597.936 450.797C598.212 451.291 598.495 451.785 598.813 452.267C598.493 452.991 598.222 453.723 598.003 454.46C598.354 454.979 598.729 455.492 599.154 456C599.622 456.493 600.154 456.948 600.743 457.359C601.696 457.562 602.673 457.714 603.669 457.813C604.134 458.277 604.638 458.716 605.179 459.129C605.446 459.797 605.773 460.446 606.16 461.071C606.782 461.455 607.422 461.827 608.093 462.163C609.12 461.996 610.138 461.779 611.143 461.514C611.616 462.059 612.126 462.574 612.677 463.089C613.552 462.963 614.409 462.807 615.244 462.638C615.887 462.908 616.539 463.171 617.196 463.41C618.003 463.35 618.726 463.276 619.475 463.184L621.585 463.313L623.653 463.5C624.291 463.8 624.948 464.124 625.633 464.382C626.365 464.429 627.106 464.47 627.874 464.494C628.654 464.494 629.44 464.448 630.225 464.353C631.038 463.912 631.822 463.459 632.58 462.975C633.392 463.04 634.212 463.073 635.039 463.072C635.94 463.216 636.862 463.311 637.798 463.354C638.664 463.046 639.508 462.695 640.324 462.304C641.115 461.817 641.86 461.287 642.55 460.718C643.501 460.397 644.416 460.006 645.281 459.55C645.496 459.155 645.684 458.755 645.844 458.35C646.066 457.749 646.209 457.147 646.209 457.147C646.484 457.014 646.744 456.862 646.985 456.693L647.514 456.284C647.664 456.202 648.554 455.695 644.068 454.366L643.82 454.29L644.07 454.36L644.283 454.411C644.702 454.514 645.121 454.617 645.467 454.683C646.236 454.833 646.471 454.812 646.547 454.741C646.891 454.33 647.119 453.877 647.213 453.416C647.516 452.854 647.775 452.282 647.99 451.705C648.1 451.102 648.149 450.62 648.217 450.077L649.129 448.495L650.194 446.904ZM640.601 453.668C640.465 453.887 640.349 454.111 640.254 454.339C639.938 454.613 639.601 454.872 639.244 455.116C638.648 455.167 638.055 455.159 637.481 455.09C637.276 455.458 637.013 455.812 636.698 456.141C636.128 456.074 635.568 455.979 635.023 455.857C634.622 456.211 634.19 456.546 633.732 456.859C633.141 456.6 632.577 456.311 632.043 455.994C631.529 456.17 631.005 456.328 630.476 456.466C629.939 456.524 629.376 456.558 628.804 456.592C628.233 456.626 627.637 456.659 627.037 456.674L625.284 456.334L623.109 457.51C622.617 456.983 622.15 456.451 621.724 455.907C621.039 456.168 620.354 456.43 619.665 456.668C619.044 456.713 618.434 456.74 617.817 456.761C617.328 456.518 616.848 456.269 616.41 456.009C615.889 455.898 615.368 455.788 614.884 455.648C614.503 455.364 614.149 455.06 613.825 454.738C613.244 454.777 612.669 454.787 612.073 454.784C611.532 454.755 611.012 454.659 610.532 454.501C610.407 454.061 610.33 453.609 610.303 453.151C609.749 453.057 609.211 452.932 608.692 452.776C608.683 452.305 608.695 451.846 608.742 451.375C608.019 451.265 607.312 451.119 606.625 450.939C606.806 450.386 607.008 449.851 607.235 449.31C606.744 449.031 606.273 448.692 605.812 448.389C606.208 447.791 606.637 447.193 607.059 446.625C606.208 446.365 605.45 446.196 604.629 445.942C604.696 445.509 604.807 445.076 604.963 444.648C605.403 444.191 605.906 443.767 606.461 443.383C606.009 443.068 605.599 442.72 605.235 442.344C605.395 441.983 605.591 441.628 605.82 441.283C606.277 440.993 606.758 440.726 607.257 440.483C606.825 440.019 606.461 439.517 606.171 438.986C606.495 438.658 606.845 438.345 607.219 438.047C607.713 437.824 608.225 437.63 608.751 437.466C608.924 437.043 609.149 436.63 609.424 436.231C610.04 436.127 610.66 436.055 611.279 436.017C611.706 435.775 612.242 435.632 612.691 435.397C612.927 434.827 613.217 434.266 613.557 433.718C614.312 433.941 615.058 434.218 615.768 434.47C616.229 434.169 616.728 433.88 617.225 433.604C617.769 433.503 618.301 433.426 618.913 433.345C619.427 432.887 619.996 432.436 620.57 431.998L622.586 432.68C623.174 432.254 623.778 431.828 624.409 431.427L626.338 431.504C626.979 431.658 627.617 431.825 628.239 431.991C628.861 431.727 629.49 431.47 630.124 431.222C630.744 431.315 631.356 431.409 631.949 431.521C632.571 431.427 633.174 431.351 633.785 431.276C634.396 431.2 635.03 431.004 635.647 430.893C636.238 430.816 636.831 430.792 637.412 430.822C637.965 430.845 638.512 430.894 639.049 430.968C639.47 431.161 639.855 431.392 640.197 431.655C640.564 431.73 640.915 431.833 641.248 431.961C641.431 432.079 641.574 432.227 641.669 432.396C641.531 432.608 641.314 432.79 641.048 432.919C641.169 433.253 641.308 433.841 641.442 434.284L642.935 435.515L643.055 436.985L643.194 438.437L642.477 439.998L642.582 441.419C642.72 441.88 642.843 442.341 642.956 442.808L642.385 444.268C642.863 444.698 643.403 445.141 643.876 445.601C643.667 446.088 643.459 446.568 643.243 447.048C643.363 447.521 643.436 447.994 643.522 448.478L642.571 449.884L642.62 451.305C642.623 451.737 642.585 452.173 642.508 452.608C642.451 452.916 641.855 453.082 642.437 453.556C642.534 453.636 642.308 453.868 643.679 454.294C642.463 453.931 641.706 453.72 641.247 453.617C640.022 453.291 640.625 453.608 640.601 453.668Z" fill="#1B557A"/>
<path d="M609.246 469.365C609.051 468.993 608.814 468.639 608.597 468.304C608.416 468.072 608.27 467.961 608.104 467.777L608.032 466.567L607.434 465.489L606.659 464.462L606.061 463.384L605.571 462.283L605.435 461.072L604.903 459.983L604.498 458.853L604.488 457.608L603.891 456.524L602.744 455.618L602.337 454.494L601.906 453.376L601.888 452.131L601.414 451.024L600.792 449.994L600.592 448.783L599.307 447.936L599.07 446.754L598.327 445.728L598.168 444.517L597.498 443.48L596.838 442.437C596.684 442.193 596.87 441.833 596.326 441.716C596.26 441.66 596.171 441.622 596.071 441.606C595.97 441.591 595.862 441.599 595.76 441.629C595.525 441.396 595.278 441.181 595.278 441.181C594.861 440.718 594.33 440.323 593.708 440.015C593.21 439.547 592.594 439.159 591.888 438.871C591.028 438.866 590.156 438.984 589.316 439.219C588.382 439.173 587.42 439.298 586.51 439.582C585.828 440.057 585.26 440.617 584.837 441.231C584.1 441.601 583.416 442.033 582.801 442.518C582.56 443.041 582.379 443.575 582.261 444.111C582.083 444.604 581.949 445.073 581.842 445.525L581.607 446.802L581.116 448.004L581.807 449.222L580.419 450.41L580.896 451.626L580.912 452.834L580.333 454.034L580.112 455.239L579.517 456.439L579.82 457.652L579.979 458.863L579.162 460.059L579.512 461.273L578.759 462.47L579.522 463.69L578.586 464.927L579.007 466.142L577.736 467.512L578.907 468.678L578.693 469.279C578.643 469.421 578.604 469.563 578.575 469.706L578.478 470.231C578.104 470.968 577.732 471.821 577.34 472.782C577.45 473.11 577.564 473.413 577.682 473.693L577.727 473.796L577.934 473.8L578.397 473.746L579.286 473.632L581.96 473.902L583.311 474.218C583.635 474.319 583.818 474.407 584.055 474.501L585.848 473.669L587.41 473.838L588.927 474.247L590.57 473.975L592.063 474.517L593.63 474.655L595.382 474.005C595.829 474.344 596.292 474.683 596.788 475.017L598.53 474.813C599.095 474.857 599.685 474.896 600.278 474.917C600.911 474.679 601.531 474.428 602.128 474.165C602.286 474.215 602.448 474.258 602.614 474.293C602.846 474.333 603.098 474.349 603.348 474.377C603.88 474.429 604.421 474.453 604.967 474.449C605.783 474.093 606.481 473.588 606.987 472.987C607.72 472.591 608.282 472.035 608.583 471.409C609.029 470.761 609.257 470.057 609.246 469.365Z" fill="#102B4C"/>
<path d="M532.717 439.827L532.863 439.986L531.145 440.064C531.603 439.913 532.06 439.763 532.524 439.625L532.717 439.827Z" fill="#96CCED"/>
<path d="M532.863 439.987C533.287 440.452 533.621 440.844 533.904 441.168C533.411 441.411 532.873 441.589 532.318 441.694C532.215 441.693 532.038 441.575 531.714 441.081C531.684 441.032 531.655 440.972 531.617 440.917C531.976 440.567 532.396 440.254 532.863 439.987Z" fill="#96CCED"/>
<path d="M579.917 441.659L579.615 443.304C579.514 443.853 579.343 444.394 579.186 444.941C578.776 445.485 578.344 446.017 577.897 446.542L577.255 448.127L578.166 449.839C578.027 450.381 577.894 450.928 577.732 451.464C576.883 451.915 576.008 452.335 575.112 452.724C575.383 453.284 575.651 453.862 575.877 454.451C575.567 454.924 575.236 455.384 574.884 455.826C574.147 456.139 573.388 456.417 572.613 456.657C572.67 457.183 572.681 457.716 572.646 458.252C572.528 458.762 572.355 459.269 572.129 459.767C571.217 459.817 570.31 459.804 569.421 459.727C569.343 460.363 569.194 461 568.976 461.63C568.217 461.685 567.457 461.704 566.716 461.705C566.319 462.176 565.879 462.665 565.393 463.141C564.616 463.039 563.779 462.912 562.988 462.755C562.57 463.383 562.08 464.011 561.567 464.637C560.783 464.571 560.003 464.481 559.226 464.379C558.615 464.799 557.994 465.231 557.344 465.65L554.945 465.01L552.984 466.19C552.291 466.367 551.6 466.532 550.92 466.679C550.194 466.353 549.5 465.994 548.84 465.602C548.21 465.696 547.593 465.759 546.995 465.81C546.396 465.862 545.786 466.016 545.191 466.092C544.518 466.532 543.81 466.939 543.072 467.311C542.5 467.189 541.942 467.039 541.402 466.863C541.027 466.423 540.725 465.946 540.501 465.442C540.111 465.234 539.752 464.996 539.43 464.731C538.641 464.974 537.826 465.142 537.004 465.233C537.005 464.716 537.101 464.193 537.29 463.678C536.672 463.582 536.085 463.419 535.548 463.193C535.52 462.739 535.544 462.262 535.579 461.768C535.226 461.394 534.881 460.972 534.538 460.544C534.39 460.052 534.256 459.524 534.121 459.003L533.914 457.398L534.747 455.598L534.715 453.996L534.535 452.416C533.984 451.949 533.442 451.476 532.927 450.985L533.58 449.296C534.009 448.699 534.444 448.149 534.889 447.594L534.746 446.033C534.577 445.565 534.427 445.122 534.314 444.697C534.577 444.34 534.907 444.009 535.291 443.715C535.291 443.715 535.06 443.457 534.859 443.207C534.721 443.036 534.596 442.859 534.487 442.675L534.892 442.681C534.967 442.674 535.042 442.675 535.114 442.685C535.114 442.685 535.261 442.753 534.991 442.447L534.27 441.603L533.898 441.156C534.604 440.955 535.336 440.785 536.059 440.62C536.77 440.409 537.47 440.171 538.157 439.908L540.435 439.815C541.229 439.827 541.963 439.91 542.717 439.964C543.407 439.72 544.11 439.489 544.819 439.27L547.04 439.406L549.167 438.749C549.894 438.608 550.617 438.529 551.347 438.413C552.07 438.423 552.799 438.398 553.515 438.445L555.736 437.583L557.869 438.062C558.576 438.157 559.275 438.301 559.975 438.432C560.711 438.286 561.46 438.11 562.208 437.982L564.199 438.712L566.342 438.708C567.076 438.659 567.796 438.639 568.522 438.632C569.139 438.955 569.753 439.254 570.342 439.601L572.672 439.189C573.448 439.08 574.207 439.024 574.987 438.939C575.539 439.358 576.065 439.789 576.569 440.25L578.416 440.773C578.573 440.58 578.778 440.41 579.019 440.273C579.259 440.136 579.53 440.036 579.812 439.978C579.72 440.18 579.574 440.369 579.383 440.534C579.192 440.699 578.961 440.836 578.705 440.934C578.922 440.897 579.141 440.917 579.323 440.992C579.553 441.196 579.751 441.42 579.917 441.659Z" fill="#96CCED"/>
<path d="M586.232 450.496C585.994 451.097 585.748 451.698 585.465 452.328C585.435 452.968 585.371 453.62 585.295 454.289C584.399 454.832 583.508 455.35 582.622 455.839C582.807 456.575 582.936 457.323 583.006 458.08C582.58 458.727 582.102 459.358 581.576 459.968C580.809 460.494 580.005 460.989 579.17 461.449C578.795 462.149 578.36 462.835 577.868 463.502C577.045 463.95 576.185 464.356 575.297 464.715C574.551 465.159 573.778 465.575 572.981 465.961C572.563 466.773 572.092 467.572 571.569 468.357C570.584 468.518 569.613 468.648 568.674 468.731C567.831 468.984 566.991 469.22 566.159 469.419C565.492 470.013 564.801 470.565 564.093 471.128C563.126 471.017 562.196 470.876 561.284 470.724C560.475 470.797 559.619 470.862 558.798 470.911C558.137 471.602 557.462 472.286 556.778 472.971C555.879 472.71 554.99 472.437 554.102 472.152C553.333 472.527 552.539 472.902 551.717 473.258C550.83 473.058 549.956 472.833 549.096 472.615C548.246 473.104 547.365 473.559 546.457 473.978C545.571 473.771 544.7 473.529 543.856 473.268C542.889 473.474 541.913 473.636 540.933 473.751C540.113 473.379 539.332 472.964 538.598 472.507C537.641 472.467 536.697 472.376 535.773 472.236C534.747 472.154 533.744 472.004 532.774 471.786C532.079 471.241 531.458 470.643 530.921 470C530.201 469.486 529.551 468.918 528.979 468.304C528.62 467.615 528.344 466.898 528.155 466.159C527.667 465.595 527.225 465.007 526.831 464.399C526.184 463.888 525.573 463.359 524.984 462.837C525.46 462.064 525.975 461.347 526.488 460.635C525.777 460.172 525.131 459.697 524.465 459.209L524.566 457.356L524.233 455.574L524.018 453.759L523.547 451.987C524.043 451.324 524.545 450.673 525.062 450.028C524.761 449.455 524.478 448.871 524.205 448.281L525.405 446.383C525.18 445.709 525.02 445.018 524.926 444.316C525.523 443.577 526.186 442.866 526.909 442.188C527.308 441.376 527.867 440.602 528.566 439.892C528.742 439.61 528.963 439.341 529.222 439.093C529.485 438.832 529.773 438.586 530.082 438.356C530.185 438.273 530.142 437.596 531.066 438.202L531.179 438.282C531.152 438.331 531.13 438.381 531.111 438.432C531.09 438.546 530.562 438.647 531.044 439.706C531.092 439.82 531.148 439.932 531.214 440.041C531.245 440.089 531.275 440.138 531.298 440.187L531.69 440.869C531.728 440.924 531.757 440.985 531.788 441.034C532.106 441.552 532.282 441.682 532.391 441.647C532.947 441.542 533.484 441.364 533.977 441.121L534.349 441.568L535.069 442.412C535.34 442.718 535.225 442.65 535.193 442.65C535.121 442.64 535.046 442.638 534.971 442.646L534.566 442.64C534.675 442.824 534.799 443.001 534.938 443.172C535.139 443.422 535.37 443.679 535.37 443.679C534.986 443.974 534.656 444.305 534.393 444.662C534.506 445.087 534.656 445.53 534.824 445.998L534.967 447.559C534.523 448.114 534.084 448.682 533.659 449.261L533.006 450.95C533.521 451.441 534.063 451.914 534.614 452.381L534.793 453.961L534.825 455.563L533.993 457.363L534.199 458.967C534.334 459.489 534.468 460.017 534.617 460.508C534.931 460.933 535.279 461.342 535.658 461.732C535.623 462.227 535.599 462.704 535.627 463.158C536.164 463.384 536.751 463.547 537.369 463.643C537.18 464.157 537.083 464.681 537.083 465.198C537.904 465.107 538.72 464.939 539.508 464.696C539.831 464.961 540.19 465.199 540.58 465.407C540.803 465.911 541.106 466.388 541.481 466.828C542.021 467.004 542.578 467.154 543.151 467.276C543.888 466.904 544.597 466.497 545.27 466.057C545.865 465.981 546.462 465.893 547.073 465.775C547.684 465.658 548.289 465.661 548.919 465.567C549.579 465.959 550.273 466.318 550.999 466.643C551.678 466.496 552.37 466.331 553.063 466.154L555.024 464.975L557.422 465.615C558.073 465.196 558.694 464.764 559.304 464.344C560.082 464.446 560.861 464.536 561.646 464.602C562.166 463.993 562.641 463.364 563.067 462.72C563.834 462.877 564.655 463.004 565.472 463.106C565.958 462.63 566.398 462.141 566.795 461.67C567.544 461.677 568.299 461.652 569.054 461.595C569.273 460.965 569.422 460.328 569.5 459.692C570.389 459.769 571.295 459.782 572.208 459.732C572.434 459.234 572.607 458.727 572.725 458.217C572.76 457.681 572.749 457.148 572.692 456.621C573.467 456.382 574.226 456.104 574.963 455.791C575.315 455.349 575.646 454.889 575.956 454.416C575.733 453.809 575.462 453.249 575.191 452.689C576.087 452.3 576.961 451.88 577.811 451.429C577.973 450.893 578.106 450.345 578.245 449.804L577.334 448.092L577.975 446.507C578.422 445.981 578.855 445.45 579.265 444.906C579.421 444.359 579.569 443.817 579.693 443.269C579.818 442.721 579.895 442.172 579.996 441.624C579.84 441.381 579.649 441.154 579.428 440.945C579.246 440.87 579.027 440.85 578.81 440.887C579.065 440.789 579.296 440.652 579.487 440.487C579.678 440.323 579.825 440.133 579.917 439.931C579.634 439.989 579.364 440.09 579.124 440.227C578.883 440.363 578.678 440.534 578.521 440.726L576.674 440.203C576.169 439.742 575.644 439.312 575.092 438.893C574.28 438.977 573.553 439.033 572.776 439.142L570.447 439.555C569.858 439.207 569.24 438.932 568.627 438.585C567.904 438.58 567.176 438.606 566.447 438.661L564.304 438.666L562.24 437.94C561.492 438.068 560.743 438.244 560.007 438.39C559.307 438.259 558.609 438.116 557.901 438.021L555.768 437.542L553.545 438.415L551.377 438.383C550.647 438.499 549.924 438.579 549.197 438.719L547.071 439.412L544.851 439.277C544.142 439.496 543.438 439.727 542.748 439.97C541.962 439.916 541.227 439.845 540.467 439.822L538.188 439.915C537.479 440.134 536.786 440.395 536.091 440.627C535.395 440.858 534.635 440.962 533.93 441.163C533.647 440.838 533.313 440.446 532.889 439.981L532.743 439.822L532.55 439.613C532.135 439.139 531.662 438.697 531.137 438.293C531.457 437.724 532.064 437.842 532.545 437.649C533.275 437.316 534.007 437.019 534.755 436.716C535.504 436.412 536.234 436.079 536.986 435.8L539.462 435.716C540.218 435.413 540.978 435.134 541.738 434.856C542.544 434.801 543.346 434.771 544.144 434.765C544.874 434.256 545.611 433.711 546.387 433.215L548.839 433.306C549.673 433.1 550.439 432.961 551.244 432.785C552.051 432.646 552.866 432.569 553.675 432.556L556.056 433.032L558.456 432.971C559.256 432.947 560.044 432.995 560.838 433.007C561.692 432.693 562.552 432.343 563.402 432.054L565.801 431.999L568.051 432.751C568.835 432.818 569.614 432.914 570.39 433.022C571.166 433.13 571.969 433.094 572.751 433.172L574.91 433.863C575.69 433.947 576.463 434.073 577.241 434.175C578.018 434.277 578.807 434.319 579.583 434.428C580.36 434.536 581.171 434.451 582.096 434.531C583.48 434.746 584.739 435.208 585.774 435.879C586.561 436.708 587.001 437.711 587.048 438.78C587.303 439.257 587.496 439.755 587.626 440.269L587.989 441.284C587.643 441.913 587.273 442.536 586.898 443.147C586.69 443.76 586.468 444.361 586.232 444.95L587.205 446.807C586.641 447.403 586.046 447.998 585.443 448.593L586.232 450.496Z" fill="#1B557A"/>
<path d="M533.909 441.144C533.416 441.387 532.878 441.565 532.323 441.67C532.22 441.669 532.042 441.551 531.719 441.057C531.688 441.008 531.66 440.948 531.622 440.893L531.23 440.21C531.239 440.162 531.176 440.113 531.145 440.064C531.08 439.955 531.023 439.844 530.976 439.729C530.494 438.67 530.99 438.569 531.043 438.455C531.061 438.404 531.084 438.354 531.11 438.305C531.636 438.709 532.109 439.151 532.524 439.625L532.717 439.833L532.862 439.993C533.288 440.452 533.622 440.844 533.909 441.144Z" fill="#1B557A"/>
<path d="M600.157 435.996C600.771 434.863 600.326 435.594 600.299 435.612L599.943 435.903C599.883 435.845 599.799 435.806 599.701 435.79L599.951 434.73L599.304 435.392L599.472 434.482L598.81 435.221L599.041 433.968L598.574 434.299L598.248 434.337L597.907 434.416L597.725 434.105L596.931 435.435L597.22 433.868L596.562 434.843L596.15 435.181L596.016 434.696L595.722 434.692L595.581 434.164L595.092 434.827L594.683 435.28L594.606 434.439L594.148 435.115L594.032 434.358L593.485 435.559L593.399 434.554L592.973 435.267L592.916 433.931L592.364 435.548L592.142 435.152L592.001 434.014L591.582 435.035L591.319 434.82L591.095 434.049L590.687 435.529L590.417 435.398L590.154 434.881L589.844 435.48L589.57 434.763L589.279 434.699L588.994 435.903L588.674 434.442L588.387 434.873L588.081 434.723L587.887 435.778L587.512 434.696L587.318 435.751L587.003 435.474L586.624 434.804L586.42 435.526L586.071 435.171L585.818 435.463L585.615 435.961L585.376 436.224L585.119 436.365L584.756 436.045L584.499 436.229L584.205 436.224L583.766 435.71L583.526 435.936L583.529 436.958L583.243 436.953L582.964 436.997L582.467 436.452L582.189 436.539L582.009 436.868L581.567 436.542L581.751 437.753L581.315 437.438L581.234 437.878L580.723 437.454L580.568 437.778L580.409 438.077C580.396 438.15 580.058 437.691 580.356 438.367C580.51 438.852 580.734 439.317 581.024 439.754L581.374 440.364L581.964 441.484C582.333 442.166 582.464 442.362 582.464 442.362L582.51 442.109L582.713 442.045L582.769 441.744L583.159 442.088L583.613 442.608L583.688 442.199L584.063 442.585L584.141 442.163L584.297 442.008L584.565 442.151L584.521 441.395L584.902 441.878L585.215 442.209L585.309 441.697L585.699 442.307L585.856 442.146L585.989 441.852L586.366 442.577L586.399 441.834L586.472 441.177L586.863 442.125L587.077 442.219L587.084 441.01L587.456 442.146L587.526 441.162L587.742 441.244L587.963 441.38L588.223 442.091L588.429 442.227L588.554 441.069L588.755 440.927L589 442.453L589.166 441.247L589.37 441.353L589.551 442.491L589.763 441.552L589.987 440.854L590.108 442.403L590.354 441.065L590.477 441.997L590.745 441.192L590.815 442.371L591.172 440.993L591.252 441.858L591.566 441.059L591.575 442.219L591.905 441.421L592.128 441.291L592.034 442.667L592.226 442.622L592.461 442.383L592.986 441.044L593.133 441.239L593.022 442.362L593.133 442.623L593.769 441.158L593.596 442.316L594.087 441.423L594.101 441.949L594.452 441.513L594.651 441.516L594.803 441.639L594.634 442.561L594.742 442.75L594.917 442.752L595.639 441.555L595.528 442.157L595.181 443.264L595.418 443.146L595.836 442.693L595.663 443.374L596.445 442.28L596.318 442.628L596.212 442.898C596.207 442.929 596.105 443.133 596.37 442.689L598.707 438.639L600.157 435.996Z" fill="#1B557A"/>
<path d="M529.043 441.452C528.934 440.357 528.913 441.076 528.891 441.106L528.54 441.457C528.356 441.428 528.162 441.425 527.968 441.449L527.341 440.533L526.819 441.292L526.166 440.509L525.648 441.335L525.002 440.214L524.46 440.653L523.899 440.802L523.34 440.987L522.756 440.785L522.28 442.162L521.612 440.726L521.115 441.782L520.575 442.209L519.978 441.819L519.418 441.92L518.819 441.494L518.302 442.229L517.766 442.759L517.147 442.013L516.626 442.766L516.015 442.105L515.531 443.354L514.902 442.445L514.385 443.222L513.733 442.004L513.268 443.665L512.673 443.348L512.069 442.306L511.57 443.374L510.991 443.232L510.379 442.534L509.911 444.038L509.334 443.969L508.732 443.519L508.209 444.115L507.597 443.46L507.025 443.451L506.541 444.653L505.882 443.259L505.343 443.722L504.766 443.611L504.265 444.691L503.659 443.655L503.165 444.741L502.58 444.503L501.968 443.89L501.447 444.643L500.859 444.332L500.308 444.645L499.775 445.162L499.22 445.45L498.664 445.617L498.073 445.324L497.519 445.521L496.949 445.549L496.351 445.075L495.795 445.327L495.29 446.34L494.726 446.38L494.165 446.444L493.563 445.946L493.002 446.052L492.457 446.377L491.873 446.09L491.377 447.225L490.788 446.968L490.249 447.383L489.658 447.006C489.479 447.112 489.288 447.2 489.106 447.324L488.559 447.654C488.434 447.731 488.272 447.354 488.18 447.945C488.162 448.041 488.045 447.943 488.109 449.152L488.153 449.69L488.242 450.634C488.241 450.892 488.282 451.144 488.367 451.385C488.517 451.436 488.651 451.269 488.788 451.217L489.36 451.225C489.55 451.152 489.736 451.07 489.915 450.979L490.507 451.309L491.109 451.801C491.289 451.689 491.477 451.577 491.659 451.453L492.252 451.824L492.792 451.439L493.351 451.302L493.93 451.444L494.452 450.727L495.051 451.195L495.644 451.518L496.181 451.024L496.793 451.638L497.348 451.477L497.898 451.171L498.51 451.869L499.031 451.115L499.552 450.446L500.181 451.356L500.758 451.425L501.241 450.223L501.885 451.315L502.387 450.313L502.959 450.364L503.537 450.469L504.147 451.137L504.721 451.218L505.213 450.017L505.773 449.826L506.437 451.286L506.922 450.03L507.494 450.081L508.095 451.141L508.602 450.164L509.12 449.422L509.784 450.876L510.267 449.506L510.907 450.355L511.422 449.505L512.067 450.59L512.541 449.177L513.194 449.96L513.707 449.116L514.346 450.189L514.862 449.332L515.416 449.135L516.072 450.414L516.634 450.301L517.185 449.989L517.666 448.589L518.243 448.7L518.852 449.718L519.434 449.884L519.901 448.344L520.505 449.386L521.01 448.415L521.609 448.841L522.144 448.311L522.703 448.216L523.275 448.225L523.924 449.026L524.497 449.113L525.06 449.037L525.546 447.781L526.149 448.268L526.767 449.237L527.32 449.004L527.854 448.438L528.455 448.979L528.709 448.378L528.947 447.777L529.147 448.076L529.303 448.308C529.303 448.308 529.384 448.515 529.409 448.08C529.433 447.646 529.406 446.582 529.242 444.138L529.043 441.452Z" fill="#1B557A"/>
<path d="M555.637 448.646C554.937 448.416 554.122 448.387 553.331 448.564C552.541 448.741 551.826 449.113 551.306 449.616C550.787 450.119 550.496 450.722 550.484 451.323C550.471 451.923 550.738 452.483 551.239 452.907C551.717 453.298 552.373 453.543 553.105 453.606C553.838 453.668 554.606 453.543 555.292 453.251C555.961 452.928 556.485 452.45 556.769 451.901C557.054 451.353 557.081 450.769 556.847 450.253C556.563 449.759 556.024 449.389 555.341 449.217C554.658 449.045 553.882 449.085 553.171 449.328" fill="#102B4C"/>
<path d="M553.92 450.711L554.051 450.948L554.022 450.887L553.979 450.736L554.04 450.791C554.065 450.883 554.082 450.976 554.092 451.07L554.111 450.967C554.102 451.048 554.087 451.128 554.067 451.208L554.06 451.245C554.09 451.176 554.124 451.108 554.161 451.041C554.112 451.188 554.05 451.335 553.977 451.479L553.984 451.443L554.034 451.389L554.118 451.318L554.246 451.229C554.371 451.142 554.5 451.06 554.634 450.981L554.474 451.118L554.339 451.2L554.379 451.201L554.474 451.16L554.608 451.126C554.502 451.166 554.391 451.199 554.279 451.224C554.163 451.243 554.046 451.256 553.93 451.261C554.088 451.25 554.245 451.253 554.398 451.268C554.51 451.286 554.617 451.314 554.718 451.351C554.512 451.362 554.307 451.359 554.106 451.342C554.259 451.383 554.404 451.436 554.539 451.499C554.359 451.478 554.184 451.443 554.017 451.395C554.261 451.495 554.49 451.614 554.7 451.75C554.477 451.683 554.265 451.599 554.069 451.498C554.192 451.584 554.303 451.678 554.4 451.781C554.278 451.706 554.162 451.626 554.054 451.541L553.923 451.43L554.075 451.595C554.179 451.713 554.273 451.835 554.358 451.962C554.284 451.914 554.217 451.86 554.157 451.802C554.089 451.712 554.029 451.618 553.978 451.521L553.896 451.357L553.943 451.491C553.969 451.58 553.99 451.673 554.005 451.763L553.913 451.653C553.872 451.509 553.849 451.361 553.843 451.211C553.827 451.488 553.776 451.767 553.691 452.043C553.654 452.014 553.62 451.983 553.588 451.951C553.574 451.845 553.572 451.738 553.583 451.63C553.517 451.734 553.44 451.833 553.353 451.929C553.381 451.783 553.427 451.638 553.489 451.496C553.489 451.474 553.493 451.452 553.501 451.43C553.333 451.639 553.142 451.838 552.929 452.025C553.118 451.758 553.338 451.503 553.587 451.262C553.517 451.323 553.439 451.381 553.357 451.433C553.385 451.402 553.417 451.372 553.453 451.344C553.239 451.48 553.008 451.601 552.766 451.703C552.997 451.548 553.244 451.408 553.503 451.285C553.261 451.388 553.008 451.473 552.748 451.539C552.814 451.486 552.884 451.437 552.958 451.391C553.129 451.318 553.306 451.254 553.487 451.2C553.307 451.228 553.125 451.243 552.945 451.246C553.047 451.205 553.152 451.171 553.259 451.142L553.077 451.091C552.956 451.072 552.839 451.046 552.725 451.013C552.669 450.981 552.617 450.946 552.569 450.908L552.526 450.799C552.626 450.783 552.726 450.772 552.826 450.767L552.774 450.663L552.848 450.604C552.983 450.636 553.111 450.679 553.231 450.731C553.208 450.7 553.19 450.668 553.177 450.633C553.023 450.501 552.89 450.355 552.78 450.198C552.824 450.177 552.871 450.158 552.918 450.14L553.056 450.082C553.167 450.153 553.269 450.231 553.363 450.316L553.469 450.257C553.489 450.196 553.516 450.135 553.55 450.077C553.615 450.13 553.673 450.188 553.726 450.249C553.74 450.036 553.78 449.822 553.843 449.61C553.909 449.67 553.97 449.733 554.023 449.8C554.082 449.729 554.148 449.661 554.22 449.597C554.262 449.692 554.295 449.789 554.317 449.889C554.377 449.849 554.44 449.812 554.505 449.777L554.713 449.689C554.768 449.69 554.668 449.93 554.896 449.601C555.108 449.384 555.288 449.152 555.429 448.908L555.657 448.579L556.046 447.981C556.278 447.628 556.322 447.52 556.308 447.508C556.182 447.5 556.055 447.498 555.927 447.502L555.498 447.411C555.339 447.429 555.18 447.452 555.023 447.482C554.899 447.394 554.768 447.311 554.63 447.235C554.493 447.126 554.347 447.023 554.193 446.926C554.028 446.993 553.868 447.067 553.714 447.149C553.548 447.081 553.376 447.02 553.199 446.966C552.957 447.17 552.653 447.327 552.319 447.418C552.149 447.426 551.979 447.442 551.809 447.465C551.718 447.632 551.644 447.802 551.588 447.975C551.384 447.949 551.177 447.934 550.967 447.93C550.768 447.948 550.569 447.975 550.371 448.011C550.298 448.162 550.238 448.314 550.191 448.468C549.94 448.482 549.687 448.508 549.436 448.547C549.334 448.673 549.238 448.804 549.15 448.936C549.077 449.073 549.027 449.214 549.001 449.357C548.717 449.421 548.437 449.497 548.162 449.586C548.243 449.759 548.34 449.926 548.453 450.086C548.54 450.234 548.641 450.377 548.756 450.513C548.464 450.611 548.177 450.721 547.899 450.845C547.828 450.979 547.765 451.115 547.713 451.253C548.005 451.377 548.313 451.483 548.634 451.569C548.325 451.718 548.028 451.883 547.747 452.063C548.009 452.156 548.282 452.233 548.564 452.293C548.56 452.419 548.567 452.544 548.583 452.668C548.583 452.798 548.594 452.927 548.615 453.055C548.489 453.25 548.383 453.45 548.298 453.654C548.346 453.796 548.406 453.934 548.477 454.068C548.827 454.051 549.178 454.012 549.526 453.951C549.655 454.029 549.79 454.101 549.932 454.168C549.751 454.488 549.606 454.815 549.497 455.147C549.848 455.043 550.19 454.919 550.521 454.775C550.643 454.859 550.772 454.938 550.907 455.01C550.909 455.272 550.936 455.531 550.988 455.785C551.265 455.667 551.532 455.534 551.786 455.386C552.011 455.291 552.228 455.183 552.434 455.063C552.488 455.381 552.578 455.691 552.702 455.992C552.953 455.749 553.181 455.494 553.384 455.229C553.537 455.405 553.708 455.571 553.897 455.726C554.084 455.558 554.257 455.383 554.416 455.202C554.626 455.393 554.861 455.568 555.116 455.726C555.252 455.433 555.355 455.136 555.422 454.836C555.66 454.934 555.912 455.015 556.174 455.077C556.28 454.88 556.365 454.679 556.428 454.476C556.737 454.57 557.06 454.641 557.392 454.69C557.456 454.478 557.495 454.264 557.51 454.051C557.627 453.932 557.723 453.801 557.824 453.681C558.206 453.71 558.594 453.716 558.984 453.698C559.09 453.555 559.204 453.412 559.294 453.268C559.335 453.108 559.364 452.947 559.383 452.786C559.181 452.565 558.952 452.359 558.699 452.172C558.802 452.056 558.896 451.936 558.98 451.813C559.295 451.71 559.6 451.587 559.892 451.446C559.985 451.293 560.067 451.137 560.137 450.978C559.792 450.837 559.427 450.72 559.046 450.63C559.324 450.448 559.581 450.25 559.816 450.037C559.579 449.933 559.329 449.844 559.069 449.772C559.136 449.597 559.184 449.42 559.214 449.243C559.034 449.148 558.841 449.066 558.638 448.998C558.54 448.883 558.429 448.774 558.307 448.673C558.216 448.557 558.114 448.447 558.002 448.342C558.033 448.122 558.041 447.902 558.027 447.684C557.896 447.571 557.756 447.464 557.608 447.364C557.451 447.276 557.272 447.21 557.079 447.169C556.77 447.31 556.475 447.47 556.195 447.645C556.085 447.504 555.96 447.371 555.823 447.247C555.714 447.032 555.578 446.828 555.417 446.636C555.189 446.652 554.961 446.679 554.733 446.717C554.502 446.811 554.278 446.917 554.062 447.033C553.848 446.936 553.611 446.865 553.36 446.823C553.174 447.074 553.009 447.332 552.868 447.595L552.615 447.501L552.403 447.437C552.403 447.437 552.266 447.363 552.32 447.587C552.56 448.239 552.87 448.87 553.247 449.474L553.92 450.711Z" fill="#102B4C"/>
<path d="M624.137 442.589C623.396 442.524 622.615 442.686 621.965 443.041C621.315 443.396 620.849 443.914 620.668 444.483C620.534 445.06 620.683 445.629 621.088 446.081C621.492 446.532 622.124 446.836 622.861 446.932C623.605 446.995 624.386 446.864 625.078 446.561C625.77 446.258 626.334 445.801 626.68 445.261C626.962 444.824 627.064 444.348 626.972 443.899C626.881 443.451 626.6 443.051 626.169 442.758C625.952 442.629 625.699 442.537 625.423 442.486C625.147 442.436 624.854 442.428 624.56 442.464C624.267 442.499 623.979 442.577 623.712 442.694C623.446 442.81 623.207 442.962 623.008 443.141C622.968 443.177 622.929 443.215 622.893 443.253" fill="#102B4C"/>
<path d="M624.352 443.807L624.416 443.85L624.489 443.929C624.516 443.96 624.539 443.993 624.558 444.027C624.577 444.06 624.592 444.095 624.603 444.13L624.578 444.263L624.618 444.046C624.639 444.015 624.664 443.985 624.691 443.957L624.697 443.92L624.449 444.146L624.402 444.182L624.5 444.129C624.416 444.181 624.328 444.229 624.235 444.27C624.146 444.305 624.055 444.336 623.963 444.363C624.096 444.328 624.231 444.302 624.368 444.284C624.483 444.277 624.597 444.279 624.709 444.289C624.509 444.337 624.305 444.373 624.1 444.395C624.266 444.387 624.431 444.389 624.593 444.402C624.41 444.422 624.228 444.429 624.047 444.424C624.331 444.451 624.607 444.498 624.874 444.564C624.631 444.556 624.393 444.53 624.163 444.486C624.322 444.528 624.472 444.583 624.611 444.65C624.312 444.579 624.025 444.488 623.753 444.378C624.081 444.51 624.388 444.666 624.671 444.844C624.571 444.829 624.474 444.807 624.38 444.78C624.154 444.672 623.942 444.55 623.747 444.414C623.906 444.544 624.047 444.685 624.17 444.837L624.005 444.786C623.877 444.686 623.761 444.577 623.658 444.461C623.816 444.69 623.948 444.93 624.052 445.18L623.906 445.147C623.829 445.068 623.762 444.982 623.707 444.891C623.717 444.994 623.716 445.099 623.705 445.205C623.642 445.077 623.597 444.942 623.571 444.804C623.556 444.788 623.546 444.769 623.542 444.749C623.527 444.97 623.486 445.192 623.42 445.412C623.436 445.269 623.463 445.127 623.498 444.984L623.548 444.713C623.448 444.883 623.327 445.047 623.187 445.203C623.311 444.997 623.457 444.797 623.624 444.605C623.468 444.779 623.291 444.942 623.096 445.093C623.128 445.03 623.166 444.968 623.21 444.907C623.325 444.79 623.452 444.679 623.59 444.575C623.445 444.666 623.291 444.749 623.13 444.822C623.201 444.758 623.278 444.698 623.362 444.644L623.17 444.689C623.056 444.723 622.939 444.749 622.821 444.769L622.639 444.766L622.551 444.722C622.643 444.684 622.74 444.653 622.839 444.63L622.736 444.628L622.741 444.598L623.075 444.603C622.844 444.548 622.625 444.472 622.424 444.376L622.505 444.323L622.58 444.264C622.723 444.31 622.859 444.367 622.987 444.433L622.995 444.385C622.972 444.336 622.955 444.285 622.944 444.233C623.019 444.278 623.089 444.328 623.155 444.381C623.034 444.188 622.938 443.984 622.869 443.772C622.939 443.814 623.005 443.86 623.067 443.908C623.072 443.83 623.086 443.751 623.11 443.673C623.169 443.75 623.218 443.832 623.257 443.917C623.279 443.864 623.307 443.812 623.341 443.761C623.377 443.714 623.417 443.668 623.462 443.624C623.462 443.624 623.421 443.847 623.58 443.499C623.709 443.261 623.813 443.018 623.889 442.772L624.015 442.436L624.221 441.835C624.343 441.474 624.355 441.365 624.308 441.359C624.182 441.373 624.056 441.393 623.931 441.42L623.47 441.413C623.318 441.457 623.168 441.508 623.021 441.563C622.872 441.507 622.707 441.45 622.533 441.399C622.359 441.348 622.162 441.254 621.958 441.191C621.821 441.286 621.691 441.387 621.568 441.493C621.37 441.49 621.172 441.439 620.96 441.424C620.844 441.543 620.744 441.669 620.66 441.8C620.536 441.889 620.418 441.982 620.306 442.079C620.192 442.18 619.99 442.195 619.835 442.259C619.837 442.437 619.858 442.613 619.897 442.786C619.683 442.819 619.47 442.862 619.26 442.915C619.073 442.989 618.891 443.071 618.714 443.161C618.727 443.319 618.757 443.475 618.803 443.627C618.566 443.715 618.337 443.817 618.118 443.931C618.078 444.078 618.051 444.225 618.037 444.371C618.062 444.512 618.101 444.65 618.152 444.784C617.933 444.928 617.727 445.082 617.534 445.246C617.716 445.368 617.915 445.476 618.128 445.569C618.303 445.663 618.49 445.745 618.688 445.813C618.466 446.001 618.262 446.2 618.077 446.408C618.1 446.539 618.132 446.669 618.173 446.796C618.518 446.794 618.867 446.768 619.214 446.721C619.016 446.95 618.839 447.188 618.685 447.432C618.982 447.412 619.279 447.374 619.574 447.319C619.732 447.525 619.893 447.729 620.058 447.93C620.051 448.124 620.067 448.316 620.104 448.505C620.231 448.598 620.366 448.685 620.51 448.765C620.82 448.622 621.116 448.46 621.395 448.282C621.557 448.293 621.722 448.296 621.887 448.29C621.919 448.61 621.989 448.925 622.097 449.229C622.355 449.02 622.588 448.795 622.794 448.557C622.955 448.581 623.12 448.598 623.286 448.606C623.446 448.823 623.629 449.028 623.835 449.219C624.006 449.028 624.157 448.828 624.287 448.621C624.423 448.466 624.543 448.304 624.647 448.137C624.886 448.374 625.152 448.594 625.441 448.796C625.506 448.516 625.542 448.236 625.548 447.957C625.788 448.053 626.039 448.136 626.298 448.204C626.354 448.004 626.391 447.802 626.409 447.602C626.699 447.7 627.001 447.781 627.312 447.845C627.251 447.57 627.162 447.302 627.045 447.043C627.307 447.062 627.572 447.066 627.839 447.055C627.816 446.868 627.776 446.683 627.718 446.503C628.043 446.516 628.372 446.509 628.701 446.482C628.641 446.296 628.562 446.115 628.466 445.94C628.518 445.813 628.56 445.685 628.593 445.555C628.971 445.502 629.347 445.427 629.717 445.33L629.797 444.897C629.777 444.751 629.748 444.608 629.709 444.466C629.407 444.328 629.088 444.21 628.754 444.114C628.777 443.993 628.838 443.873 628.878 443.747C629.139 443.589 629.387 443.417 629.617 443.232C629.656 443.082 629.684 442.931 629.7 442.78C629.312 442.739 628.915 442.723 628.515 442.732C628.72 442.524 628.902 442.305 629.057 442.076C628.777 442.039 628.49 442.021 628.2 442.021C628.206 441.853 628.194 441.687 628.163 441.525C627.956 441.483 627.744 441.453 627.527 441.437C627.378 441.353 627.222 441.276 627.059 441.206C626.91 441.124 626.754 441.049 626.591 440.982C626.517 440.77 626.416 440.566 626.289 440.373C626.101 440.308 625.907 440.253 625.706 440.207C625.496 440.195 625.284 440.192 625.071 440.198C624.834 440.409 624.622 440.635 624.438 440.871C624.323 440.799 624.203 440.733 624.076 440.672C623.857 440.523 623.614 440.394 623.351 440.287C623.134 440.382 622.923 440.485 622.72 440.598C622.546 440.763 622.386 440.937 622.243 441.116C621.979 441.155 621.718 441.218 621.468 441.304C621.45 441.578 621.464 441.849 621.51 442.115L621.222 442.165L620.997 442.216C620.942 442.215 620.442 442.25 623.106 443.305L624.352 443.807Z" fill="#102B4C"/>
<path d="M509.653 484.681L509.405 484.206L509.135 483.858L510.51 482.271L509.297 480.9L511.142 479.223L510.471 477.805L510.23 476.345L509.898 474.902L510.139 473.371L507.883 472.262C508.597 471.669 509.306 471.02 509.995 470.39C509.398 469.999 508.794 469.615 508.184 469.239L507.324 467.94L507.694 466.362L507.267 464.96L507.625 463.358L506.162 462.218L504.997 461.023L505.738 459.287L504.171 458.195C504.353 457.593 504.536 456.992 504.678 456.389C503.885 456.112 503.056 455.858 502.249 455.61C502.495 454.967 502.735 454.312 502.937 453.644C502.305 453.315 501.682 453.022 501.024 452.704C501.355 451.943 501.636 451.178 501.868 450.408C500.737 450.325 499.624 450.272 498.502 450.267C498.276 449.727 498.011 449.198 497.71 448.684C497.72 447.918 497.66 447.158 497.531 446.41C496.562 446.317 495.579 446.27 494.587 446.269C494.037 445.838 493.445 445.438 492.817 445.071C492.334 444.467 491.79 443.896 491.188 443.361L490.282 443.613C489.932 443.682 489.585 443.763 489.242 443.858C488.597 444.032 487.967 444.245 487.357 444.494C486.377 444.311 485.352 444.233 484.31 444.262C483.776 444.196 483.23 444.167 482.677 444.177C482.111 444.164 481.537 444.194 480.965 444.266C480.006 444.806 479.146 445.443 478.412 446.156C477.257 446.428 476.139 446.818 475.093 447.315C474.361 447.915 473.69 448.553 473.086 449.225C473.147 450.021 473.315 450.801 473.59 451.552C472.449 451.918 471.334 452.34 470.252 452.814C470.176 453.456 470.146 454.097 470.162 454.734L469.346 456.359C469.761 456.946 470.221 457.511 470.722 458.054C469.959 458.57 469.193 459.11 468.426 459.675C468.954 460.221 469.52 460.737 470.073 461.24C469.822 461.781 469.577 462.333 469.397 462.88L468.087 464.637C468.521 465.133 468.998 465.611 469.414 466.077C469.215 466.642 469.013 467.219 468.876 467.791L469.597 469.282C469.983 469.741 470.419 470.182 470.825 470.617C471.097 471.087 471.352 471.562 471.684 472.008L472.404 473.42C472.364 473.982 472.392 474.526 472.383 475.094C472.69 475.545 473.012 476.003 473.339 476.431L474.071 477.862C474.008 478.465 473.993 479.069 473.988 479.704C474.423 480.109 474.832 480.526 475.312 480.902C476.237 481.04 477.146 481.165 478.038 481.275C478.374 481.703 478.778 482.101 479.151 482.5C479.526 482.912 479.935 483.306 480.375 483.678C480.489 484.276 480.621 484.882 480.774 485.497C481.256 485.86 481.775 486.2 482.277 486.546C482.899 486.797 483.514 487.048 484.178 487.251L485.291 488.688C486.369 488.498 487.443 488.285 488.473 488.052C488.914 488.505 489.39 488.935 489.9 489.342C490.682 489.421 491.47 489.468 492.262 489.492C492.808 489.966 493.438 490.382 494.136 490.729C495.024 490.71 495.915 490.649 496.806 490.545C497.254 490.499 497.702 490.435 498.147 490.353C498.602 490.246 499.048 490.109 499.48 489.944C499.913 489.8 500.525 490.02 500.953 489.555C501.136 490.473 501.453 491.361 501.899 492.204C502.667 493.357 503.075 492.39 503.245 492.29C503.816 492.063 504.356 491.787 504.853 491.468C505.157 491.259 505.425 491.023 505.651 490.767C505.747 490.66 505.837 490.551 505.919 490.439C506.803 489.664 507.475 488.773 507.888 487.827C508.692 487.159 509.43 486.449 510.094 485.703C509.961 485.345 509.808 485.004 509.653 484.681Z" fill="#E68688"/>
<path d="M643.594 372.925C643.293 371.586 642.722 370.311 641.901 369.142C641.567 367.766 640.902 366.475 639.935 365.33C638.834 364.189 637.427 363.243 635.789 362.543C634.034 362.066 632.145 361.834 630.206 361.856C628.311 361.539 626.307 361.509 624.306 361.768C624.101 361.865 623.917 361.987 623.762 362.129L623.576 362.319C623.507 362.391 623.52 362.319 623.496 362.318C623.451 362.262 623.411 362.203 623.377 362.141C623.48 361.961 623.618 361.792 623.788 361.64L623.889 361.569L623.952 361.57C623.976 361.57 623.981 361.413 623.996 361.335L624.034 360.302C623.455 359.079 622.727 357.909 621.858 356.807C621.055 355.72 620.109 354.705 619.031 353.774C618.49 352.556 617.799 351.389 616.965 350.287C615.844 349.345 614.599 348.491 613.246 347.736C612.424 347.505 611.575 347.317 610.706 347.173C609.861 347.015 608.997 346.897 608.119 346.82C606.763 346.035 605.285 345.367 603.708 344.827C601.916 344.872 600.113 345.047 598.325 345.351C596.618 345.339 594.895 345.447 593.177 345.674C591.436 345.898 589.707 346.235 588.008 346.678C586.233 346.972 584.478 347.385 582.765 347.912C581.936 348.238 581.127 348.599 580.344 348.993C579.942 349.175 579.55 349.371 579.17 349.58L578.594 349.898L578.248 350.086C578.308 350.28 578.286 350.49 578.185 350.689C578.126 350.843 578.056 350.996 577.974 351.145L577.822 351.409L577.733 351.547L577.685 351.546C577.589 351.38 577.462 351.228 577.307 351.093C577.216 351.025 577.134 350.952 577.035 350.884L576.737 350.686C576.566 350.575 576.405 350.457 576.224 350.358C575.123 349.197 573.739 348.214 572.132 347.451C570.32 347.379 568.48 347.457 566.643 347.684C565.014 347.554 563.365 347.499 561.704 347.52C560.03 347.271 558.554 347.068 556.918 346.875C555.262 347.219 553.602 347.587 551.926 348.039C550.239 348.424 548.581 348.911 546.969 349.494C545.046 349.56 543.113 349.849 541.237 350.351C539.748 351.44 538.479 352.685 537.478 354.036C536.7 354.54 535.98 355.094 535.327 355.69C535.154 355.842 534.992 356.001 534.841 356.166L534.605 356.41C534.526 356.493 534.428 356.595 534.433 356.571C534.348 356.6 534.258 356.617 534.168 356.621C534.253 356.81 534.311 357.1 534.414 357.495C534.397 357.585 534.304 357.572 534.22 357.595C533.995 357.406 533.796 357.201 533.624 356.981L533.589 356.914L533.595 356.884L533.737 356.886L533.032 356.695C532.552 356.557 532.052 356.453 531.537 356.382C529.518 356.648 527.544 357.221 525.741 358.067C523.853 358.34 521.999 358.828 520.244 359.514C518.754 360.52 517.452 361.675 516.381 362.937C514.854 363.979 513.538 365.184 512.485 366.504C512.007 367.891 511.781 369.299 511.811 370.687C511.761 370.917 511.735 371.147 511.732 371.375C511.006 371.282 510.262 371.241 509.51 371.251C508.756 371.091 507.976 370.984 507.18 370.933C505.637 370.704 503.986 370.826 502.425 371.285C501.655 371.44 500.897 371.641 500.157 371.886C498.732 372.347 497.346 372.89 496.012 373.51C494.581 373.906 493.17 374.355 491.783 374.855C490.642 375.648 489.555 376.467 488.521 377.314C487.489 378.163 486.453 378.987 485.504 379.861C484.202 380.446 482.89 381.085 481.66 381.756C480.588 382.562 479.574 383.405 478.579 384.266C477.917 385.314 477.324 386.374 476.779 387.43C475.613 388.186 474.48 388.979 473.35 389.796C472.835 390.863 472.368 391.932 471.965 393.002C471.245 393.97 470.563 394.951 469.942 395.944C469.322 396.938 468.732 397.938 468.142 398.939C467.552 399.939 466.69 400.899 466.039 401.929C465.579 402.961 465.077 403.999 464.671 405.038C464.662 406.126 464.688 407.202 464.778 408.267C464.499 409.308 464.317 410.344 464.126 411.381C463.373 412.403 462.746 413.433 462.05 414.486C462.272 415.535 462.535 416.572 462.784 417.597C462.666 418.628 462.508 419.665 462.413 420.697C462.006 421.742 461.564 422.805 461.202 423.863C461.47 424.876 461.756 425.877 462.07 426.897C462.384 427.917 462.555 428.892 462.828 429.875C462.385 430.944 461.997 432.014 461.584 433.09L463.098 435.94L462.601 439.081C462.976 440.071 463.407 441.062 463.874 442.03C463.754 443.159 463.722 444.284 463.78 445.4C464.581 446.331 465.486 447.205 466.484 448.015C466.925 449.133 467.564 450.186 468.384 451.149C469.641 451.879 471.08 452.427 472.641 452.771C473.901 453.488 475.325 454.041 476.862 454.411C478.297 454.343 479.736 454.221 481.173 454.046C482.362 454.034 483.538 454.098 484.689 454.237C485.635 454.692 486.498 455.232 487.26 455.846C488.214 456.16 489.114 456.548 489.945 457.004C490.165 457.11 490.375 457.222 490.585 457.334C490.738 457.412 490.885 457.497 491.024 457.588C491.353 457.813 491.649 458.064 491.905 458.339C492.904 458.939 493.848 459.586 494.734 460.278C495.062 460.778 495.44 461.256 495.864 461.709C496.345 462.223 496.933 462.671 497.61 463.04C498.137 463.507 498.739 463.921 499.406 464.275C499.769 464.481 500.164 464.657 500.583 464.8C501.059 464.94 501.551 465.08 502.103 465.197C502.732 465.215 503.367 465.205 504.004 465.165C504.642 465.067 505.276 464.935 505.9 464.77C506.496 464.553 507.074 464.303 507.63 464.023C508.092 463.715 508.598 463.433 509.042 463.095C510.055 461.833 510.637 460.431 510.729 459.029C511.563 457.941 512.243 456.8 512.756 455.627C512.678 454.47 512.447 453.336 512.065 452.239L512.331 449.15L511.715 446.222C511.641 445.236 511.581 444.262 511.537 443.289C511.493 442.315 511.551 441.349 511.632 440.39C511.923 439.415 512.29 438.46 512.668 437.529C512.847 436.605 513.093 435.683 513.407 434.767C513.71 433.853 513.986 432.914 514.356 431.983C514.377 431.005 514.473 430.009 514.587 428.996C515.194 428.078 515.828 427.169 516.49 426.269C517.287 425.398 518.098 424.54 518.938 423.695C519.452 422.76 519.998 421.825 520.552 420.891L522.015 418L524.395 415.365L524.994 413.754C525.314 412.877 525.518 412.028 525.518 412.028C525.791 411.712 526.066 411.39 526.316 411.067L526.905 410.29C527.049 410.111 528.019 409.165 524.021 408.652L524.172 408.654C524.452 408.668 524.738 408.656 525.022 408.619C525.557 408.566 525.772 408.437 525.878 408.293C526.291 407.51 526.571 406.702 526.711 405.889C527.021 404.848 527.302 403.801 527.493 402.758C527.653 401.715 527.733 400.673 527.733 399.638C527.973 398.59 528.166 397.541 528.312 396.486L528.375 396.143C529.665 396.488 530.956 396.785 532.246 397.089C533.32 397.92 534.387 398.782 535.559 399.555C537.079 399.952 538.615 400.259 540.151 400.566C541.445 401.189 542.817 401.699 544.173 402.251C545.713 402.534 547.182 402.9 548.743 403.074C550.225 403.416 551.729 403.723 553.256 403.951C554.782 404.179 556.358 404.402 557.862 404.624L560.165 405.087C560.535 405.178 560.916 405.248 561.305 405.297L562.546 405.177C562.966 405.098 563.37 405.026 563.809 404.93L564.439 404.794L564.487 404.795L564.506 404.692L564.76 404.696C564.859 404.693 564.957 404.695 565.054 404.7C565.83 404.809 566.614 404.875 567.394 404.965C568.96 405.109 570.55 405.121 572.136 405.156C573.759 404.995 575.357 404.791 576.931 404.545C578.519 404.568 580.107 404.592 581.705 404.561C583.303 404.531 584.872 404.663 586.46 404.686C588.087 404.499 589.639 404.287 591.218 404.056C592.797 403.826 594.358 403.432 595.916 403.105C597.533 402.972 599.114 402.814 600.723 402.639L603.036 401.882L605.326 401.076L606.872 400.942L608.096 400.821C608.38 400.795 609.978 400.849 609.086 398.123L609.178 398.317C609.35 398.678 609.552 399.028 609.781 399.366C610.179 399.976 610.44 400.113 610.688 400.062C611.885 399.714 613.052 399.293 614.176 398.803C615.718 398.3 617.255 397.779 618.773 397.191C620.28 396.569 621.738 395.872 623.137 395.105C624.686 394.524 626.199 393.912 627.71 393.233C629.265 392.569 630.775 391.837 632.229 391.041C633.456 390.031 634.591 388.964 635.628 387.846C636.929 386.872 638.149 385.839 639.278 384.753C640.135 383.512 640.848 382.228 641.408 380.917C642.085 379.638 642.594 378.326 642.925 377C643.351 375.647 643.575 374.28 643.594 372.925Z" fill="#102B4C"/>
<path d="M499.087 534.223L501.655 531.21L499.811 527.641L503.625 524.786C503.574 524.377 503.579 523.96 503.638 523.541C503.676 523.057 503.765 522.572 503.905 522.089C504.126 521.089 504.53 520.1 505.106 519.152C507.12 517.765 509.595 516.846 512.174 516.526C512.687 516.214 513.219 515.921 513.769 515.649C514.289 515.424 514.787 515.167 515.256 514.88L517.157 513.591L521.79 514.681L525.72 512.534L530.243 512.746L534.144 510.2L538.708 510.449L543.081 509.789C544.419 508.879 545.745 507.95 547.128 507.052C548.62 506.82 550.089 506.582 551.599 506.381C553.111 506.216 554.624 506.111 556.131 506.068C557.693 506.494 559.238 506.942 560.765 507.412C562.241 507.138 563.741 506.906 565.239 506.681C566.727 505.996 568.257 505.384 569.814 504.755C571.346 504.518 572.909 504.378 574.459 504.22C575.936 504.846 577.392 505.586 578.771 506.272C580.359 505.733 581.971 505.238 583.62 504.761C585.057 505.259 586.46 505.77 587.838 506.328C589.412 506.212 590.996 506.133 592.608 506.109C594.045 506.523 595.473 506.985 596.867 507.502C598.389 507.817 599.877 508.196 601.324 508.637C602.884 509.051 604.388 509.552 605.826 510.136C607.694 510.451 609.475 510.942 611.131 511.599C611.457 511.821 611.931 512.143 612.34 512.475C612.761 512.826 613.147 513.201 613.495 513.598C614.181 514.403 614.726 515.28 615.117 516.208C615.635 517.69 615.886 519.239 615.862 520.817C615.16 522.173 614.299 523.491 613.291 524.755C613.442 525.966 613.515 527.175 613.557 528.33C613.891 529.544 614.178 530.756 614.448 531.933C613.984 533.068 613.493 534.178 613.036 535.277L610.923 538.454C610.86 539.577 610.844 540.707 610.737 541.805L607.553 544.658C607.66 544.984 607.712 545.324 607.71 545.669L607.684 546.418C607.668 546.503 607.812 546.801 606.947 546.957C606.664 547.007 606.378 547.041 606.093 547.059C605.873 547.077 605.653 547.086 605.435 547.086L604.728 547.075C603.759 547.061 602.417 547.041 600.619 546.905L600.906 546.946C601.463 547.033 602.036 547.12 602.45 547.211C603.401 547.406 603.656 547.579 603.644 547.73C603.502 548.567 603.229 549.401 602.829 550.213C602.539 551.315 602.223 552.428 601.84 553.558C601.343 554.682 600.772 555.793 600.129 556.886C599.773 558.047 599.395 559.232 598.903 560.397C598.41 561.562 598.039 562.801 597.489 563.971C596.524 564.978 595.497 565.953 594.412 566.892C593.72 568.012 592.978 569.106 592.211 570.201C591.069 571.084 589.895 571.925 588.724 572.753C587.552 573.582 586.589 574.534 585.503 575.376L582.599 578.179C581.239 578.817 579.862 579.419 578.481 580.003L577.232 581.513L577.077 581.704L576.795 581.984L576.184 582.579L575.557 583.174C575.371 583.389 575.152 583.588 574.906 583.768C573.977 584.503 572.932 585.149 571.799 585.686C570.664 586.195 569.438 586.549 568.182 586.732C565.712 586.587 563.48 585.806 561.853 584.517C561.583 584.428 561.322 584.334 561.032 584.263L560.211 583.967L560.002 583.891L559.867 583.889L559.599 583.831L559.071 583.714C558.358 583.565 557.674 583.385 556.971 583.224L554.006 581.161L551.231 578.933L546.88 578.083L544.825 575.23L542.646 572.485C541.086 572.308 539.528 572.118 537.974 571.914L534.685 570.137L533.446 566.571L528.546 566.196L526.927 562.964L523.658 561.169L520.313 559.439L516.115 558.452L512.798 556.699L511.406 553.271L508.498 551.161L503.141 551.19C502.699 549.863 502.119 548.576 501.405 547.339C499.696 546.185 498.49 544.666 497.913 542.943C497.28 542.134 496.813 541.249 496.526 540.312C496.376 539.817 496.264 539.313 496.19 538.802C496.147 538.56 496.137 538.228 496.091 538.046L495.979 537.44C496.925 536.325 497.964 535.25 499.087 534.223Z" fill="#E68688"/>
<path d="M568.87 421.803C569.44 420.995 568.981 421.502 568.923 421.513L568.411 421.657L567.946 421.457L567.962 420.544L567.107 420.864C567.087 420.586 567.058 420.307 567.01 420.053L566.131 420.499L566.132 419.454L565.435 419.607L564.867 419.538L564.271 419.529L563.827 419.214L562.813 420.142L562.787 418.854C562.489 419.085 562.202 419.305 561.912 419.542L561.251 419.756L560.837 419.327L560.273 419.318L559.848 418.859C559.605 419.012 559.365 419.19 559.128 419.35L558.47 419.684L558.08 418.99L557.389 419.499L556.952 418.888L556.205 419.832L555.786 419.034L555.136 419.629L554.708 418.577L553.998 419.884L553.469 419.598L552.961 418.726L552.353 419.563L551.796 419.428L551.23 418.87L550.683 420.07L550.127 420.019L549.539 419.666C549.36 419.833 549.185 420.003 549.015 420.178L548.396 419.692L547.818 419.713L547.39 420.704L546.736 419.582L546.228 420.004L545.633 419.995L545.26 420.896L544.449 420.152L544.108 421.054L543.488 420.96L542.764 420.569L542.395 421.234L541.735 421.097C541.571 421.209 541.421 421.334 541.264 421.453L540.868 421.96L540.409 422.292L539.918 422.538C539.695 422.535 539.476 422.471 539.264 422.456L538.796 422.751L538.262 422.925L537.501 422.732L537.051 423.058L536.97 423.933L536.456 424.13L535.954 424.346L535.188 424.184C535.03 424.266 534.855 424.348 534.704 424.437L534.355 424.86L533.672 424.85L533.808 425.801L533.127 425.821C533.036 425.971 532.949 426.139 532.865 426.295L532.071 426.283L531.756 426.695L531.437 427.089C531.364 427.185 530.942 426.967 531.266 427.413C531.316 427.486 531.144 427.471 532.071 428.277L532.504 428.646L533.283 429.262C533.469 429.444 533.685 429.607 533.926 429.748C534.059 429.72 534.02 429.538 534.077 429.449L534.456 429.206L534.693 428.823L535.313 428.832C535.558 428.85 535.797 428.89 536.023 428.952L536.235 428.538L536.882 428.614L537.095 428.188L537.447 427.922C537.621 427.914 537.795 427.894 537.967 427.863L538.085 427.224L538.762 427.397L539.352 427.479C539.421 427.317 539.492 427.148 539.577 426.993L540.316 427.3L540.687 427.057L541.019 426.724L541.744 427.115L541.925 426.478L542.162 425.877L542.924 426.456L543.4 426.421L543.498 425.413L544.274 426.174L544.473 425.349L544.957 425.314L545.442 425.321C545.646 425.463 545.848 425.624 546.043 425.777L546.519 425.785L546.768 424.821L547.208 424.635L547.881 425.738L548.176 424.74L548.653 424.747L549.21 425.571L549.585 424.785C549.718 424.581 549.858 424.384 550.006 424.187L550.53 425.361L550.945 424.273L551.297 425.088L551.756 424.412L552.177 425.325L552.683 424.221L553.094 424.885L553.604 424.234C553.725 424.532 553.843 424.842 553.954 425.146L554.484 424.513L554.957 424.412L555.209 425.509L555.648 425.461C555.804 425.391 555.965 425.339 556.119 425.281L556.814 424.228L557.229 424.397L557.422 425.294C557.55 425.363 557.672 425.437 557.787 425.517L558.598 424.399L558.72 425.338L559.416 424.671L559.7 425.117C559.895 425.011 560.079 424.923 560.28 424.823L560.716 424.878L561.111 425.023L561.195 425.779C561.31 425.847 561.435 425.904 561.541 425.978L561.938 426.068L562.884 425.255L563.042 425.783L562.958 426.67L563.426 426.64L564.065 426.366L564.157 426.905L565.078 426.23L564.983 426.742C564.983 426.742 564.903 426.922 565.172 426.624C565.442 426.326 566.051 425.568 567.417 423.769L568.87 421.803Z" fill="#102B4C"/>
<path d="M607.874 424.335C608.737 424.837 608.206 424.478 608.201 424.46L608.092 424.187L608.374 424.04C608.703 424.154 609.026 424.277 609.341 424.411C609.252 424.245 609.177 424.075 609.116 423.9L610.006 424.258L609.791 423.65C610.159 423.845 610.522 424.051 610.879 424.271C610.899 424.162 610.885 424.023 610.9 423.896L611.136 423.7L611.352 423.474L611.813 423.481L611.323 422.422L612.516 423.34L612.265 422.497L612.388 422.087L612.952 422.265L613.247 422.088L613.825 422.326L613.823 421.686L613.913 421.198L614.619 421.686L614.653 421.027L615.317 421.485L615.167 420.437L615.913 421.101L615.976 420.413L616.807 421.35L616.579 419.95L617.073 420.163L617.79 420.984L617.819 420.047C617.965 420.056 618.105 420.083 618.234 420.126L618.79 420.696L618.76 419.391L619.157 419.397L619.624 419.76L619.862 419.202L620.345 419.777L620.694 419.782L620.893 418.703L621.41 419.919L621.699 419.513L622.036 419.633L622.32 418.694L622.673 419.63L623.013 418.693C623.129 418.769 623.236 418.854 623.333 418.945L623.595 419.553L623.96 418.954L624.218 419.285L624.563 419.054L624.942 418.679L625.291 418.515L625.63 418.447L625.824 418.777C625.929 418.741 626.038 418.714 626.149 418.697L626.396 418.785L626.403 419.311L626.722 419.219C626.958 418.975 627.228 418.719 627.476 418.499L627.688 418.641L627.914 418.753C627.881 418.938 627.824 419.121 627.742 419.301L627.977 419.365C628.097 419.339 628.218 419.319 628.339 419.304L628.202 419.7C628.561 419.491 628.932 419.295 629.314 419.113L629.188 419.491C629.349 419.46 629.513 419.444 629.675 419.444L629.314 419.934L629.671 419.982L630.032 420.054C630.128 420.055 629.634 420.356 630.382 420.059C630.923 419.901 631.442 419.689 631.923 419.429L632.619 419.107L633.841 418.521C634.174 418.389 634.487 418.227 634.774 418.04C634.794 417.931 634.464 417.95 634.337 417.906L634.044 417.594L633.526 417.423L633.626 416.881C633.709 416.666 633.77 416.449 633.809 416.231L633.119 416.172L633.103 415.568L632.412 415.557C632.257 415.489 632.103 415.42 631.938 415.363L631.62 415.014C631.308 415.118 631.006 415.23 630.714 415.351L630.586 414.745L630.328 414.245C630.078 414.313 629.832 414.392 629.592 414.482L629.406 413.803L628.826 413.794L628.214 413.876C628.135 413.615 628.045 413.365 627.954 413.122C627.699 413.3 627.451 413.48 627.21 413.661C626.982 413.821 626.755 413.975 626.541 414.141C626.458 413.841 626.363 413.538 626.255 413.23C626.089 413.179 625.909 413.116 625.742 413.071C625.499 413.414 625.268 413.761 625.049 414.112C624.942 413.773 624.822 413.43 624.689 413.086C624.478 413.365 624.278 413.646 624.088 413.929L623.596 413.831C623.436 413.783 623.27 413.742 623.101 413.709L622.608 413.097L622.092 413.005C621.933 413.349 621.784 413.695 621.646 414.044L621.172 414.194L620.533 412.909L620.183 414.034L619.682 414.027L619.005 413.122L618.683 414.006C618.562 414.228 618.463 414.468 618.356 414.702L617.545 413.481L617.395 414.687L616.721 414.025L616.474 414.801L615.664 413.967L615.631 415.229L614.899 414.662L614.716 415.445L613.85 414.653L613.704 415.448L613.32 415.715L612.324 414.811L611.887 415.022L611.541 415.386L611.709 416.597L611.199 416.644L610.238 416.025L609.682 416.017L609.996 417.297L608.987 416.677L609.051 417.542L608.354 417.393L608.198 417.934C608.062 418.008 607.931 418.087 607.805 418.17L607.351 418.345L606.404 417.992L605.892 418.136L605.479 418.389C605.601 418.724 605.726 419.082 605.869 419.429L605.131 419.375C604.775 419.265 604.414 419.163 604.048 419.069L603.789 419.482L603.774 420.086L602.97 420.129L603.183 420.573L603.406 421.005L603.027 420.945L602.725 420.898C602.725 420.898 602.497 420.835 602.798 421.063C603.098 421.291 603.887 421.81 605.809 422.962L607.874 424.335Z" fill="#102B4C"/>
<path d="M569.188 496.05C568.65 496.592 569.059 496.272 569.083 496.272L569.464 496.278L569.76 496.53L569.63 497.241L570.338 497.071C570.315 497.274 570.317 497.476 570.346 497.675L571.085 497.426L570.986 498.222L571.552 498.176C571.697 498.215 571.845 498.247 571.996 498.273L572.462 498.335L572.787 498.606L573.692 498.015L573.609 498.986L574.355 498.52L574.886 498.407L575.172 498.756L575.605 498.823C575.701 498.951 575.798 499.073 575.904 499.19L576.505 498.866L577.045 498.657L577.288 499.198L577.867 498.862L578.145 499.344L578.807 498.689L579.054 499.297L579.609 498.918L579.825 499.737L580.506 498.805L580.872 499.064L581.15 499.763L581.713 499.167L582.116 499.312L582.467 499.789L583.049 498.915L583.463 499.006L583.849 499.332L584.319 498.982L584.701 499.417L585.131 499.46L585.621 498.742L585.984 499.63L586.43 499.364L586.86 499.455L587.313 498.809L587.725 499.468L588.172 498.816L588.596 498.974L589.024 499.379L589.45 498.92L589.881 499.132L590.306 498.945L590.716 498.618L591.132 498.437L591.549 498.335L591.992 498.523L592.406 498.39L592.833 498.366L593.3 498.681L593.718 498.53L594.064 497.865L594.484 497.828L594.908 497.774L595.388 498.108L595.809 498.029L596.203 497.794L596.67 497.982L596.946 497.17L597.414 497.352C597.536 497.252 597.665 497.157 597.782 497.044L598.269 497.293C598.397 497.204 598.523 497.127 598.651 497.038L599.024 496.784C599.114 496.725 599.286 497.006 599.273 496.552C599.287 496.48 599.369 496.554 599.153 495.65L599.044 495.244L598.84 494.534C598.806 494.34 598.742 494.153 598.649 493.975C598.537 493.973 598.468 494.093 598.379 494.14L597.979 494.195C597.856 494.259 597.745 494.342 597.619 494.419L597.17 494.219L596.701 493.916L596.357 494.225L595.912 494.007L595.567 494.322L595.192 494.455L594.781 494.395L594.462 494.916L594.021 494.631L593.601 494.45L593.247 494.813L592.812 494.45L592.436 494.59L592.062 494.808L591.639 494.378L591.286 494.868L590.919 495.304L590.498 494.736L590.101 494.73L589.735 495.51L589.327 494.827L588.954 495.426L588.557 495.42L588.171 495.354L587.795 494.931L587.417 494.865L587.006 495.584L586.614 495.681L586.289 494.764L585.85 495.507L585.471 495.447L585.166 494.765L584.722 495.363L584.286 495.786L584.044 494.845L583.548 495.642L583.268 495.082L582.807 495.558L582.579 494.848L582.033 495.649L581.78 495.12L581.29 495.578L581.1 494.88L580.604 495.326L580.213 495.375L580.111 494.539L579.754 494.534L579.351 494.649L578.706 495.382L578.393 495.227L578.312 494.537L578.037 494.345L577.311 495.132L577.292 494.413L576.692 494.863L576.51 494.51L576.03 494.696L575.702 494.619L575.417 494.475L575.425 493.871L575.178 493.698C575.077 493.67 574.979 493.636 574.886 493.597L574.11 494.136L574.051 493.724L574.228 493.062C574.113 493.066 573.999 493.065 573.887 493.057L573.401 493.189C573.42 493.049 573.427 492.91 573.421 492.772L572.995 493.013L572.562 493.243L572.626 492.899C572.626 492.899 572.703 492.779 572.459 492.981C572.215 493.183 571.656 493.67 570.414 494.836L569.188 496.05Z" fill="#102B4C"/>
<path d="M632.642 501.749C632.461 502.037 632.235 502.317 632.024 502.598L632.918 503.669L631.122 504.343L630.251 505.14L631.863 506.372L629.791 506.946L630.236 507.992L628.587 508.62L629.588 509.801C629.148 510.03 628.708 510.253 628.214 510.475L628.528 511.537L627.045 512.156L627.09 513.166L627.375 514.257L626.213 514.947L625.68 515.809L624.56 516.488L624.38 517.47C624.558 517.883 624.729 518.297 624.873 518.686L622.509 518.898L623.289 520.281L622.311 521.01L621.758 521.896L621.085 522.744L620.713 523.73C620.119 523.799 619.511 523.857 618.912 523.908L618.706 523.905L618.666 524.122C618.306 524.52 617.938 524.917 617.563 525.314L616.962 525.42L616.851 526.023L616.318 526.54C615.428 527.384 614.482 528.195 613.483 528.97C611.397 530.594 609.053 532.017 606.518 533.198C604.168 534.487 601.681 535.612 599.093 536.556C596.509 537.447 593.861 538.195 591.173 538.795C589.15 539.326 587.087 539.714 585.011 539.954C584.79 539.98 584.571 539.963 584.375 539.904C584.179 539.845 584.014 539.746 583.895 539.617C583.733 539.449 583.593 539.269 583.476 539.079C583.482 539.049 583.432 539.018 583.414 538.982L583.359 538.981C583.688 542.303 581.011 542.136 580.52 542.123L578.416 542.092C577.534 542.079 576.645 542.065 575.774 541.992L574.441 542.141C573.629 542.226 572.554 542.313 571.546 542.382C569.487 542.539 567.425 542.623 567.425 542.623C564.769 542.342 562.156 542.007 559.57 541.606C556.915 541.452 554.263 541.237 551.643 540.981C549.022 540.724 546.49 540.251 543.946 539.839C541.532 539.138 539.153 538.418 536.81 537.678L529.607 535.758C526.889 535.499 524.22 535.095 521.619 534.552C519.027 533.682 516.647 532.535 514.546 531.142C512.549 529.731 510.796 528.136 509.321 526.387C508.105 524.625 507.049 522.793 506.157 520.902C505.064 519.139 504.042 517.336 503.173 515.48C502.304 513.624 501.468 511.763 500.858 509.838C500.089 507.959 499.399 506.04 498.884 504.074C498.657 502.059 498.529 500.027 498.569 497.991C498.138 495.997 497.845 493.976 497.692 491.936L498.406 488.961L499.026 486.022C498.58 484.118 498.092 482.225 497.583 480.315L497.719 474.377C498.092 472.352 498.465 470.321 498.904 468.28C499.094 466.252 499.324 464.219 499.731 462.177C499.691 461.663 499.705 461.149 499.69 460.63C499.659 460.076 499.674 459.517 499.734 458.956C499.849 458.054 500.271 457.161 500.959 456.364C501.473 455.794 502.131 455.298 502.889 454.91C503.646 454.522 504.487 454.251 505.354 454.115C506.83 453.956 508.282 454.132 509.522 454.619C510.683 455.064 511.632 455.747 512.271 456.599C513.142 457.898 513.522 459.386 513.372 460.918C513.277 462.125 513.172 462.915 513.113 463.887C513.054 464.859 513.017 465.752 513.03 466.677C512.564 468.552 512.276 470.434 512.17 472.308C512.511 474.028 513.161 475.679 514.101 477.219C515.197 478.453 516.725 479.422 518.544 480.034C520.243 481.21 522.115 482.24 524.134 483.108C526.553 483.64 529.119 484.234 531.586 484.977C533.823 486.08 535.895 487.346 537.778 488.761C538.271 488.98 538.783 489.187 539.248 489.43L539.975 489.803L540.347 489.99C540.44 490.04 540.538 490.086 540.64 490.127C540.994 490.193 541.214 490.166 541.326 490.035C541.379 489.983 541.415 489.923 541.43 489.861C541.429 490.338 541.68 491.182 541.786 492.471C541.791 492.502 541.804 492.531 541.826 492.556C541.754 491.473 541.821 490.677 541.814 490.193L541.804 490.036C541.906 490.025 542.006 489.993 542.091 489.943L542.18 489.896C542.105 489.956 542.269 489.801 542.307 489.765L543.004 489.008C543.947 488.038 545.005 487.129 546.162 486.294C547.927 484.298 550.08 482.494 552.535 480.951C555.344 480.018 558.256 479.341 561.203 478.934C561.866 478.709 562.549 478.501 563.225 478.288C563.924 478.067 564.634 477.875 565.353 477.715C566.744 477.379 568.101 477.103 569.494 476.846C572.286 476.256 575.108 475.817 577.937 475.534C580.785 475.806 583.692 476.103 586.637 477.367C587.595 477.702 588.437 478.18 589.117 478.776C589.778 479.375 590.212 480.106 590.382 480.903C590.534 481.691 590.443 482.516 590.114 483.316C589.753 484.117 589.125 484.856 588.295 485.458C587.907 485.79 587.485 486.1 587.034 486.382C586.808 486.531 586.572 486.671 586.328 486.801L585.77 487.107C585.07 487.469 584.349 487.806 583.61 488.114C582.246 488.667 580.854 489.171 579.439 489.623C576.573 489.834 573.875 489.872 571.278 489.967C570.658 490.09 570.045 490.22 569.469 490.363C569.194 490.431 568.918 490.499 568.682 490.575L568.369 490.673L567.942 490.829C566.81 491.235 565.706 491.695 564.639 492.206C562.855 493.241 561.424 494.59 560.498 496.108C559.44 497.26 558.962 498.62 559.161 499.913C559.099 501.389 559.713 502.775 560.899 503.843C562.362 504.972 564.168 505.823 566.197 506.338C568.431 506.895 570.765 507.264 573.161 507.439L576.063 507.337C576.514 507.308 577.168 507.299 577.367 507.26C577.471 507.217 577.563 507.159 577.637 507.089C577.709 506.999 577.777 506.891 577.732 506.83C578.124 506.681 578.485 506.481 578.796 506.242L579.141 506.011L579.703 505.597C580.097 505.297 580.513 505.015 580.949 504.751C581.753 504.25 582.673 503.874 583.644 503.649C584.118 503.559 584.597 503.507 585.074 503.495C585.539 503.514 585.996 503.563 586.44 503.642C586.747 503.711 587.039 503.805 587.313 503.921C588.27 504.142 589.141 504.504 589.88 504.987C590.022 505.088 590.187 505.17 590.369 505.23L590.704 505.355C590.921 505.439 591.148 505.511 591.381 505.571C592.288 505.833 593.257 505.988 594.258 506.031C596.076 506.491 598.073 506.585 600.068 506.304C602.149 506.279 604.247 505.805 606.116 504.938C607.684 503.701 608.856 502.222 609.527 500.638C610.169 499.138 610.318 497.584 609.959 496.119C610.068 495.387 610.046 494.659 609.896 493.955C609.768 493.297 609.474 492.678 609.029 492.129C607.858 491.224 605.647 490.514 603.285 489.415C602.994 489.266 602.708 489.135 602.418 488.98L601.991 488.744L601.657 488.569C601.609 488.569 601.577 488.526 601.547 488.519L601.491 488.519L601.202 488.448L600.439 488.267C600.166 488.201 599.901 488.12 599.647 488.026C599.172 487.848 598.748 487.609 598.392 487.318C598.04 487.009 597.775 486.647 597.609 486.249C597.306 485.415 597.256 484.52 597.462 483.625C597.581 483.163 597.764 482.706 598.008 482.261L598.383 481.602L598.899 481.006C599.248 480.605 599.649 480.228 600.093 479.881C600.473 479.598 600.878 479.335 601.305 479.096C602.849 478.254 604.592 477.671 606.395 477.395C608.153 476.94 609.981 476.791 611.73 476.961C611.979 476.983 612.223 477.023 612.457 477.08C612.672 477.114 612.882 477.159 613.085 477.217L614.071 477.479L616.058 478.022C618.482 479.079 620.631 480.43 622.432 482.026C623.304 482.831 624.08 483.695 624.752 484.611C625.084 485.064 625.377 485.534 625.631 486.02C625.932 486.479 626.182 486.959 626.378 487.457C626.887 488.113 627.33 488.799 627.704 489.513C627.879 489.388 628.053 489.264 628.211 489.14L628.588 488.299L628.901 487.464L627.886 486.621L629.498 485.775L628.185 484.952L628.475 484.11L629.797 483.242L629.151 482.422L628.432 481.614L629.446 480.735L629.231 479.91L629.161 479.081L630.032 478.194L629.551 477.389L630.031 476.514L630.689 475.617L629.907 474.85L630.185 473.984L630.083 473.155L629.671 472.363L630.179 471.465C630.052 471.203 629.951 470.93 629.847 470.668C630.08 470.357 630.3 470.071 630.503 469.741L630.924 468.841C630.809 468.579 630.737 468.304 630.708 468.022L630.908 467.149C630.854 466.928 630.898 466.692 631.033 466.474C631.04 466.432 631.227 466.368 631.693 466.26L632.445 466.109L632.858 466.03C633.751 465.892 633.803 466.044 633.898 466.088C634.516 466.194 634.362 466.427 634.437 466.622L635.001 467.409C635.186 467.666 635.333 467.94 635.44 468.226C635.32 468.532 635.187 468.826 635.031 469.15L635.527 469.961C635.423 470.268 635.329 470.562 635.2 470.875L636.532 471.601L636.14 472.52L636.486 473.365L636.533 474.236L635.835 475.174L635.809 476.05L635.76 476.925L636.862 477.727L637.021 478.6L636.301 479.526L636.219 480.407L636.336 481.284L635.804 482.183L635.842 483.06L636.031 483.939L636.507 484.816C636.581 485.107 636.65 485.422 636.71 485.701L636.099 486.598L636.827 487.491L635.82 488.377L635.3 489.257L636.42 490.18L634.815 490.984L635.916 491.925L635.499 492.807L635.807 493.73L633.688 494.514L634.917 495.499L634.533 496.418L633.355 497.234C633.512 497.551 633.673 497.843 633.801 498.19L632.854 499.009L632.376 499.878L633.924 500.983L632.642 501.749Z" fill="#102B4C"/>
<path d="M403.721 329.728L329.194 222.188L300.116 270.55L351.307 319.545L256.302 328.455L403.721 329.728ZM256.712 249.232L207.162 318.276L249.342 314.775L323.458 203.099L256.712 249.232Z" fill="#035BDA"/>
</svg>
