<?xml version="1.0" encoding="iso-8859-1"?>
<!-- Generator: Adobe Illustrator 23.0.2, SVG Export Plug-In . SVG Version: 6.00 Build 0)  -->
<svg version="1.1" id="message_sent" xmlns="http://www.w3.org/2000/svg" xmlns:xlink="http://www.w3.org/1999/xlink" x="0px"
	 y="0px" viewBox="0 0 1080 1080" style="enable-background:new 0 0 1080 1080;" xml:space="preserve">
<g>
	<g>
		<path style="fill:#FFB400;" d="M632.734,578.751c-0.354-0.761-0.744-1.512-1.171-2.252c-7.964-13.827-25.629-18.58-39.456-10.616
			c-84.338,37.663-206.011,36.462-255.871,33.493c-23.674-1.409-33.002-7.285-35.12-13.777l0.492-7.911
			c2.116-5.283,7.221-9.92,11.244-11.709c7.31-3.25-81.346-6.087-100.132-12.274c-23.794,35.16-29.18,75.787-28.969,113.218
			c0.001,0.122,0.004,0.234,0.005,0.353c-0.169,25.904,4.198,51.584,11.926,75.508c-3.161,3.044-6.417,6.067-9.746,9.06
			c-16.396,14.023-47.597,33.033-80.699,50.205c24.99-11.31,69.949,9.267,106.055,50.14c39.882,45.148,53.859,97.961,31.218,117.961
			c-0.296,0.261-0.599,0.511-0.904,0.759c23.221-15.129,79.878-59.906,99.113-81.949c-28.215-14.87-23.092-26.671-17.941-23.418
			c5.151,3.253,15.441,8.774,31.666,9.321l-13.408,13.771c1.778-1.764,3.553-3.537,5.318-5.336l4.6-4.719
			c1.186-1.233,2.367-2.507,3.547-3.776c59.542-2.153,140.304-31.393,164.112-98.008c28.344-15.46,54.328-44.486,45.213-98.247
			l34.413-51.463l-0.001-0.002c7.421-2.986,15.027-6.705,22.707-11.129C634.032,608.418,638.991,592.189,632.734,578.751z
			 M183.12,754.184c0,0,10.531-9.446,12.631-11.452c3.818,10.286,8.106,20.438,11.625,26.872S197.937,777.514,183.12,754.184z"/>
		<polygon style="fill:#FFB400;" points="234.762,975.011 234.763,975.011 234.762,975.011 		"/>
		<path style="fill:#FFB400;" d="M102.502,803.462c0,0,0.001,0.001,0.001,0.001c0.006-0.003,0.012-0.007,0.018-0.011
			C102.515,803.455,102.508,803.458,102.502,803.462z"/>
		<path style="fill:#FF3A00;" d="M211.293,852.188c-36.106-40.873-81.065-61.45-106.055-50.14c-0.934,0.423-1.84,0.891-2.717,1.404
			c-0.006,0.003-0.012,0.007-0.018,0.011c-1.569,0.919-3.047,1.98-4.419,3.192c-22.641,20-8.664,72.813,31.218,117.961
			c35.823,40.553,80.357,61.121,105.46,50.395c0,0,0,0,0.001,0c2.479-1.059,4.771-2.421,6.844-4.102
			c0.305-0.247,0.608-0.498,0.904-0.759C265.151,950.149,251.175,897.336,211.293,852.188z M159.285,898.13
			c-10.713-12.128-14.468-26.315-8.386-31.687c6.082-5.372,19.697,0.104,30.41,12.232c10.713,12.128,14.468,26.315,8.386,31.687
			C183.614,915.734,169.998,910.258,159.285,898.13z"/>
		
			<ellipse transform="matrix(0.7495 -0.662 0.662 0.7495 -545.4988 335.3242)" style="fill:#FFFFFF;" cx="170.297" cy="888.402" rx="14.694" ry="29.3"/>
		<path style="fill:#FF3A00;" d="M195.751,742.732c-2.1,2.006-12.631,11.452-12.631,11.452
			c14.817,23.331,27.775,21.854,24.256,15.419S199.569,753.017,195.751,742.732z"/>
		<path style="fill:#FF3A00;" d="M322.779,865.542c-5.151-3.253-10.274,8.547,17.941,23.418l0.317-0.325l13.408-13.771
			C338.219,874.316,327.93,868.795,322.779,865.542z"/>
	</g>
	<g>
		<path style="fill:#00AEE0;" d="M828.438,392.443c-1.194-23.637,6.234-57.164,44.215-76.908l-65.949-45.328
			c-50.098,23.191-69.376,57.661-65.124,105.322c4.241,47.651-26.027,49.168-37.404,46.524
			c-45.745-64.893-139.514-85.01-216.552-8.747l82.7,57.065c1.058-1.198,2.139-2.375,3.241-3.533c2.5-2.638,5.128-5.15,7.812-7.603
			c2.703-2.431,5.486-4.779,8.379-6.991c2.88-2.226,5.889-4.301,9.032-6.162c0.486-0.288,1.112-0.127,1.4,0.358
			c0.247,0.418,0.163,0.94-0.174,1.261l-0.012,0.012c-2.619,2.493-5.308,4.86-7.964,7.275l-7.98,7.215l-8.015,7.194
			c-1.035,0.925-2.077,1.846-3.121,2.766l24.252,16.734c5.826-7.838,12.64-15.672,20.038-22.993c0.218-0.22,0.426-0.439,0.644-0.649
			c0.922-0.932,1.835-1.812,2.729-2.621c0.06-0.052,0.109-0.105,0.159-0.147c34.018-32.133,78.574-52.371,97.199-14.727
			c1.962,3.97,4.032,9.321,6.484,15.213l0,0.01c8.196,19.729,20.557,45.404,46.959,44.756c3.839-0.39,7.824-1.028,11.935-1.914
			c0.02-0.001,0.03-0.011,0.051-0.012c3.345-0.957,6.884-2.275,10.615-4.017C846.707,477.242,829.632,416.069,828.438,392.443z
			 M532.911,403.304c-1.947,1.343-3.868,2.732-5.818,4.098c-1.936,1.376-3.898,2.766-5.896,4.076l-0.028,0.018
			c-0.475,0.311-1.112,0.179-1.423-0.296c-0.246-0.375-0.213-0.854,0.045-1.191c1.53-1.986,3.248-3.727,5.068-5.382
			c1.813-1.659,3.755-3.169,5.758-4.6c2.018-1.409,4.135-2.693,6.341-3.815c2.202-1.125,4.526-2.054,6.935-2.688
			c0.549-0.145,1.112,0.183,1.256,0.733c0.115,0.438-0.07,0.884-0.428,1.12l-0.018,0.012l-5.95,3.908
			C536.804,400.631,534.832,401.921,532.911,403.304z M619.766,435.947l-0.017,0.015c-0.902,0.799-1.844,1.438-2.794,2.062
			c-0.954,0.612-1.924,1.184-2.918,1.718c-0.994,0.535-2.009,1.037-3.06,1.495c-1.058,0.447-2.134,0.875-3.322,1.151l-0.007,0.002
			c-0.579,0.135-1.158-0.226-1.293-0.805c-0.076-0.328,0.009-0.66,0.2-0.907c0.763-0.977,1.658-1.773,2.593-2.512
			c0.942-0.729,1.941-1.376,2.988-1.943c1.047-0.567,2.143-1.052,3.284-1.434c1.145-0.371,2.328-0.666,3.583-0.719
			c0.593-0.025,1.095,0.436,1.12,1.03C620.137,435.435,619.997,435.74,619.766,435.947z M630.763,409.307l-0.029,0.004
			c-2.488,0.364-4.944,0.792-7.358,1.414c-2.411,0.63-4.787,1.371-7.119,2.245c-4.655,1.768-9.153,3.967-13.475,6.496
			c-4.331,2.518-8.497,5.345-12.537,8.363c-2.015,1.517-4.01,3.068-5.965,4.675c-0.982,0.799-1.952,1.612-2.918,2.433l-1.444,1.239
			l-0.725,0.621l-0.364,0.315l-0.192,0.166l-0.125,0.108c-0.127,0.111-0.278,0.206-0.428,0.272c-0.527,0.192-1.111-0.08-1.303-0.608
			c-0.192-0.527,0.08-1.111,0.608-1.303c-0.089,0.013-0.181,0.055-0.248,0.113c-0.03,0.024,0.034-0.043,0.046-0.06l0.147-0.173
			l0.311-0.366l0.632-0.736l1.301-1.444c0.874-0.958,1.788-1.876,2.698-2.8c1.85-1.816,3.761-3.575,5.754-5.242
			c3.966-3.359,8.24-6.367,12.739-9.029c2.267-1.301,4.593-2.51,6.975-3.607c2.395-1.068,4.846-2.028,7.357-2.81
			c2.508-0.795,5.086-1.373,7.679-1.809c2.606-0.385,5.24-0.573,7.862-0.506c0.562,0.014,1.007,0.482,0.992,1.044
			C631.621,408.828,631.245,409.237,630.763,409.307z M646.42,383.549c-0.134,0.514-0.637,0.833-1.151,0.746l-0.015-0.003
			c-8.696-1.484-17.479-2.109-26.224-1.853c-8.743,0.28-17.448,1.449-25.943,3.516c-8.504,2.031-16.795,4.952-24.768,8.588
			c-7.96,3.664-15.621,8.025-22.829,13.102l-0.009,0.006c-0.459,0.323-1.094,0.213-1.417-0.246
			c-0.306-0.434-0.221-1.027,0.177-1.364c6.869-5.777,14.472-10.709,22.542-14.712c8.061-4.026,16.593-7.126,25.365-9.261
			c8.779-2.101,17.805-3.226,26.83-3.197c9.023-0.004,18.03,1.169,26.713,3.436C646.236,382.45,646.562,383.005,646.42,383.549z
			 M732.396,437.685c-0.138,0.337-0.436,0.566-0.767,0.637c-1.406,0.291-2.82,0.322-4.216,0.229
			c-1.397-0.095-2.782-0.31-4.131-0.653c-1.351-0.337-2.668-0.796-3.939-1.357c-1.271-0.562-2.499-1.227-3.623-2.101
			c-0.462-0.359-0.546-1.026-0.187-1.488c0.224-0.289,0.568-0.43,0.908-0.407l0.017,0.001c1.383,0.101,2.689,0.341,3.979,0.605
			c1.289,0.264,2.558,0.551,3.817,0.867c1.26,0.31,2.508,0.656,3.763,1.016c1.255,0.361,2.511,0.742,3.785,1.262l0.015,0.006
			C732.358,436.525,732.618,437.143,732.396,437.685z M810.16,454.216l0.005-0.022c1.505-6.144,2.549-12.334,3.049-18.572
			c0.484-6.24,0.41-12.512-0.058-18.796c-0.411-6.289-1.218-12.594-1.655-19.02c-0.448-6.399-0.499-13.043,1.116-19.431
			c0.138-0.545,0.691-0.875,1.236-0.737c0.505,0.128,0.825,0.612,0.76,1.115l-0.003,0.026c-0.79,6.183-0.246,12.427,0.446,18.702
			c0.736,6.276,1.634,12.625,2.091,19.067c0.44,6.437,0.436,12.972-0.387,19.427c-0.781,6.457-2.385,12.797-4.658,18.842
			c-0.198,0.526-0.784,0.792-1.31,0.594C810.303,455.227,810.039,454.709,810.16,454.216z M799.329,359.006
			c0.438-1.769,1.024-3.507,1.765-5.18c0.735-1.676,1.63-3.284,2.659-4.799c1.029-1.514,2.2-2.938,3.585-4.16
			c0.432-0.381,1.091-0.339,1.471,0.093c0.271,0.308,0.328,0.731,0.182,1.086l-0.004,0.01c-0.677,1.64-1.416,3.189-2.135,4.739
			l-2.101,4.648l-2.044,4.69c-0.679,1.578-1.354,3.169-2.159,4.761l-0.004,0.007c-0.26,0.514-0.887,0.719-1.4,0.46
			c-0.367-0.186-0.577-0.56-0.572-0.945C798.6,362.579,798.892,360.775,799.329,359.006z M786.97,461.492
			c2.619-2.986,4.621-6.52,6.144-10.286c1.517-3.779,2.531-7.795,3.333-11.917l0.003-0.018c0.108-0.553,0.643-0.914,1.196-0.807
			c0.487,0.095,0.826,0.523,0.825,1.001c0.001,4.341-0.631,8.733-2.003,12.955c-1.355,4.222-3.518,8.262-6.483,11.696
			c-2.975,3.415-6.759,6.171-10.955,7.844c-4.184,1.707-8.706,2.349-13.075,2.082c-0.563-0.034-0.991-0.519-0.956-1.081
			c0.03-0.496,0.41-0.888,0.885-0.95l0.008-0.001c4.123-0.541,8.108-1.549,11.705-3.311
			C781.189,466.945,784.387,464.506,786.97,461.492z M785.187,405.603c0.178,3.143,0.133,6.318-0.291,9.46
			c-0.411,3.138-1.16,6.25-2.398,9.162c-0.221,0.521-0.823,0.763-1.344,0.542c-0.435-0.185-0.676-0.635-0.615-1.082l0.002-0.012
			c0.413-2.992,0.698-5.946,0.806-8.913c0.094-2.965,0.056-5.934-0.151-8.906c-0.171-2.974-0.507-5.948-0.874-8.935l-1.216-9.021
			c-0.076-0.561,0.318-1.077,0.878-1.152c0.472-0.064,0.913,0.21,1.086,0.63c1.185,2.882,2.081,5.874,2.766,8.923
			C784.532,399.346,784.972,402.461,785.187,405.603z M762.832,331.729c0.65-2.868,1.57-5.701,2.839-8.362
			c0.291-0.68,0.605-1.348,0.964-1.991l1.036-1.955c0.76-1.261,1.51-2.532,2.342-3.746c1.666-2.427,3.471-4.757,5.488-6.895
			c2.009-2.152,4.142-4.146,6.604-5.867c0.463-0.323,1.1-0.21,1.424,0.253c0.267,0.382,0.237,0.882-0.041,1.227l-0.034,0.042
			c-1.757,2.177-3.533,4.407-5.23,6.641c-1.696,2.244-3.348,4.513-4.9,6.841c-1.595,2.301-3.066,4.68-4.485,7.092
			c-1.458,2.4-2.701,4.901-4.09,7.399l-0.024,0.043c-0.275,0.494-0.897,0.671-1.391,0.397
			C762.926,332.624,762.734,332.161,762.832,331.729z M747.257,438.304l0.012-0.004c2.208-0.721,4.324-1.66,6.295-2.823
			c1.977-1.156,3.757-2.603,5.365-4.198c1.619-1.589,2.997-3.406,4.177-5.336c1.19-1.926,2.145-3.997,2.875-6.149
			c1.507-4.293,2.115-8.888,2.067-13.475c-0.018-2.311-0.239-4.561-0.565-6.907c-0.333-2.397-0.608-4.802-0.834-7.216
			c-0.917-9.638-1.056-19.449,0.403-29.115c1.399-9.654,4.458-19.122,9.262-27.579c0.277-0.488,0.898-0.659,1.387-0.382
			c0.465,0.264,0.641,0.844,0.416,1.321c-4.059,8.565-6.526,17.753-7.606,27.098c-0.536,4.675-0.767,9.389-0.727,14.109
			c0.069,4.721,0.346,9.446,0.816,14.162l0.385,3.535l0.45,3.531c0.32,2.403,0.552,4.933,0.551,7.418
			c0.034,4.991-0.785,10.03-2.561,14.753c-1.776,4.712-4.615,9.088-8.387,12.464c-3.766,3.377-8.407,5.702-13.244,6.754
			c-0.549,0.12-1.091-0.229-1.211-0.778C746.472,438.973,746.769,438.465,747.257,438.304z M792.477,476.757
			c-2.406,3.407-5.848,6.103-9.67,7.881c-3.827,1.807-8.031,2.695-12.205,2.88c-4.183,0.152-8.35-0.382-12.317-1.492
			c-3.971-1.098-7.76-2.727-11.242-4.815c-0.483-0.29-0.64-0.917-0.35-1.4c0.253-0.422,0.764-0.595,1.211-0.439l0.02,0.007
			c3.714,1.296,7.42,2.429,11.183,3.181c3.759,0.738,7.565,1.136,11.332,0.963c3.764-0.137,7.483-0.846,10.97-2.167
			c3.486-1.332,6.713-3.312,9.524-5.92l0.016-0.015c0.413-0.383,1.059-0.359,1.442,0.054
			C792.726,475.835,792.75,476.372,792.477,476.757z"/>
		<path style="fill:#04294F;" d="M724.428,462.984l0-0.01c-2.452-5.891-4.523-11.243-6.484-15.213
			c-18.625-37.645-63.182-17.406-97.199,14.727c10.924-9.872,20.598-12.129,30.055-9.922c1.565-1.019,3.15-2.009,4.76-2.964
			c6.306-3.715,12.873-7.107,20.171-9.141c1.836-0.496,3.791-0.8,5.561-1.042c1.826-0.247,3.687-0.471,5.59-0.541
			c3.781-0.13,7.839,0.303,11.469,2.06c3.644,1.705,6.591,4.589,8.657,7.79c2.097,3.212,3.481,6.726,4.487,10.273
			c0.154,0.541-0.16,1.104-0.701,1.258c-0.489,0.139-0.996-0.104-1.202-0.551l-0.012-0.027c-0.749-1.618-1.48-3.231-2.339-4.759
			c-0.865-1.523-1.807-2.983-2.84-4.341c-1.047-1.348-2.195-2.587-3.469-3.637c-1.279-1.044-2.669-1.905-4.151-2.558
			c-2.98-1.285-6.323-1.672-9.748-1.516c-1.715,0.067-3.457,0.238-5.219,0.462c-1.819,0.227-3.446,0.48-5.119,0.885
			c-3.347,0.848-6.662,2.104-9.911,3.521c-3.258,1.41-6.442,3.034-9.591,4.734c-0.786,0.425-1.56,0.877-2.341,1.316
			c15.535,5.647,30.882,22.22,50.673,35.619c-0.236-0.329-0.479-0.654-0.713-0.985c-1.112-1.714-2.231-3.423-3.196-5.223
			c-1.973-3.582-3.643-7.286-4.711-11.311c-0.144-0.543,0.179-1.1,0.723-1.245c0.475-0.126,0.96,0.105,1.171,0.529l0.03,0.061
			c1.724,3.453,3.719,6.876,5.842,10.135c2.138,3.263,4.409,6.435,6.916,9.41c1.46,1.782,2.988,3.509,4.573,5.184
			c15.221,8.431,33.075,14.043,55.228,11.781C744.985,508.388,732.625,482.713,724.428,462.984z M721.045,485.369
			c-0.248,0.176-0.548,0.232-0.825,0.183c-1.108-0.201-2.114-0.649-3.06-1.2c-0.94-0.561-1.808-1.249-2.574-2.043
			c-0.766-0.793-1.433-1.688-1.96-2.662c-0.516-0.979-0.921-2.023-1.05-3.153c-0.068-0.597,0.361-1.137,0.958-1.205
			c0.303-0.035,0.591,0.059,0.81,0.236l0.034,0.028c0.809,0.661,1.472,1.34,2.142,1.997l1.939,1.977l1.923,2.019
			c0.638,0.704,1.295,1.413,1.905,2.276l0.019,0.026C721.654,484.34,721.537,485.021,721.045,485.369z"/>
		<path style="fill:#FFFFFF;" d="M645.693,382.308c-8.683-2.267-17.69-3.44-26.713-3.436c-9.025-0.029-18.051,1.096-26.83,3.197
			c-8.772,2.135-17.304,5.236-25.365,9.261c-8.07,4.003-15.673,8.934-22.542,14.712c-0.398,0.337-0.483,0.93-0.177,1.364
			c0.323,0.459,0.958,0.569,1.417,0.246l0.009-0.006c7.209-5.077,14.869-9.438,22.829-13.102c7.973-3.635,16.263-6.557,24.768-8.588
			c8.495-2.067,17.199-3.236,25.943-3.516c8.745-0.256,17.528,0.369,26.224,1.853l0.015,0.003c0.514,0.086,1.017-0.233,1.151-0.746
			C646.562,383.005,646.236,382.45,645.693,382.308z"/>
		<path style="fill:#FFFFFF;" d="M619.004,434.071c-1.255,0.053-2.438,0.347-3.583,0.719c-1.141,0.382-2.237,0.867-3.284,1.434
			c-1.047,0.567-2.046,1.214-2.988,1.943c-0.935,0.739-1.829,1.535-2.593,2.512c-0.191,0.247-0.276,0.579-0.2,0.907
			c0.135,0.579,0.713,0.94,1.293,0.805l0.007-0.002c1.188-0.276,2.264-0.704,3.322-1.151c1.051-0.458,2.067-0.96,3.06-1.495
			c0.994-0.535,1.964-1.106,2.918-1.718c0.95-0.623,1.892-1.262,2.794-2.062l0.017-0.015c0.231-0.207,0.371-0.512,0.357-0.846
			C620.099,434.507,619.597,434.046,619.004,434.071z"/>
		<path style="fill:#FFFFFF;" d="M584.058,462.203l7.98-7.215c2.656-2.415,5.345-4.782,7.964-7.275l0.012-0.012
			c0.337-0.321,0.421-0.843,0.174-1.261c-0.288-0.486-0.914-0.646-1.4-0.358c-3.143,1.862-6.152,3.936-9.032,6.162
			c-2.893,2.212-5.676,4.56-8.379,6.991c-2.684,2.453-5.312,4.964-7.812,7.603c-1.103,1.158-2.183,2.334-3.241,3.533
			c-1.349,1.527-2.659,3.092-3.904,4.727c-0.283,0.371-0.283,0.901,0.029,1.274c0.362,0.433,1.006,0.491,1.439,0.129l0.012-0.01
			c1.696-1.416,3.363-2.867,5.021-4.328c1.044-0.92,2.086-1.841,3.121-2.766L584.058,462.203z"/>
		<path style="fill:#FFFFFF;" d="M544.722,395.378c0.358-0.236,0.544-0.682,0.428-1.12c-0.145-0.549-0.707-0.877-1.256-0.733
			c-2.409,0.634-4.732,1.563-6.935,2.688c-2.206,1.122-4.323,2.405-6.341,3.815c-2.004,1.431-3.946,2.941-5.758,4.6
			c-1.821,1.655-3.538,3.395-5.068,5.382c-0.259,0.337-0.291,0.815-0.045,1.191c0.311,0.475,0.948,0.607,1.423,0.296l0.028-0.018
			c1.998-1.309,3.959-2.7,5.896-4.076c1.95-1.366,3.87-2.755,5.818-4.098c1.921-1.383,3.894-2.673,5.843-4.007l5.95-3.908
			L544.722,395.378z"/>
		<path style="fill:#FFFFFF;" d="M630.641,407.28c-2.622-0.067-5.256,0.12-7.862,0.506c-2.594,0.436-5.171,1.014-7.679,1.809
			c-2.511,0.783-4.962,1.742-7.357,2.81c-2.382,1.097-4.708,2.305-6.975,3.607c-4.499,2.661-8.773,5.669-12.739,9.029
			c-1.993,1.667-3.905,3.425-5.754,5.242c-0.911,0.924-1.824,1.842-2.698,2.8l-1.301,1.444l-0.632,0.736l-0.311,0.366l-0.147,0.173
			c-0.012,0.017-0.076,0.084-0.046,0.06c0.068-0.058,0.159-0.1,0.248-0.113c-0.528,0.192-0.799,0.775-0.608,1.303
			c0.192,0.528,0.775,0.799,1.303,0.608c0.149-0.066,0.3-0.161,0.428-0.272l0.125-0.108l0.192-0.166l0.364-0.315l0.725-0.621
			l1.444-1.239c0.966-0.821,1.937-1.635,2.918-2.433c1.955-1.607,3.95-3.159,5.965-4.675c4.041-3.018,8.207-5.845,12.537-8.363
			c4.322-2.529,8.819-4.728,13.475-6.496c2.332-0.874,4.708-1.615,7.119-2.245c2.414-0.622,4.87-1.05,7.358-1.414l0.029-0.004
			c0.482-0.07,0.858-0.479,0.87-0.982C631.648,407.762,631.204,407.295,630.641,407.28z"/>
		<path style="fill:#00AEE0;" d="M581.144,353.019c-15.346,1.257-30.441,5.379-44.18,12.09c-0.461,0.228-0.69,0.774-0.508,1.267
			c0.195,0.527,0.78,0.796,1.307,0.602c7.078-2.607,14.275-4.789,21.565-6.503c7.295-1.686,14.691-2.892,22.136-3.47
			c7.442-0.616,14.93-0.605,22.383-0.03c7.452,0.602,14.874,1.755,22.215,3.447c0.502,0.114,1.027-0.165,1.196-0.663
			c0.181-0.532-0.104-1.11-0.636-1.291c-7.248-2.462-14.783-4.167-22.426-5.044C596.557,352.515,588.819,352.418,581.144,353.019z"
			/>
		<path style="fill:#00AEE0;" d="M578.445,344.405l0.005,0.001c1.091,0.301,2.155,0.409,3.213,0.483
			c1.057,0.061,2.106,0.057,3.152-0.001c1.046-0.058,2.089-0.172,3.132-0.352c1.043-0.191,2.088-0.421,3.138-0.845l0.009-0.004
			c0.272-0.111,0.499-0.331,0.609-0.628c0.21-0.564-0.077-1.191-0.641-1.401c-1.075-0.4-2.156-0.581-3.236-0.7
			c-1.081-0.107-2.161-0.126-3.237-0.063c-1.076,0.062-2.147,0.203-3.208,0.432c-1.06,0.242-2.113,0.542-3.136,1.058
			c-0.263,0.134-0.475,0.376-0.559,0.683C577.525,343.646,577.865,344.246,578.445,344.405z"/>
		<path style="fill:#00AEE0;" d="M494.095,373.176c3.837-2.245,7.639-4.491,11.488-6.646c3.854-2.143,7.729-4.234,11.673-6.189
			c3.927-1.988,7.92-3.842,11.944-5.639c4.031-1.786,8.108-3.474,12.212-5.179c0.446-0.185,0.713-0.667,0.608-1.156
			c-0.118-0.551-0.66-0.903-1.211-0.785c-4.403,0.94-8.72,2.257-12.947,3.812c-4.233,1.544-8.362,3.368-12.398,5.373
			c-4.02,2.037-7.95,4.254-11.722,6.715c-3.777,2.449-7.422,5.104-10.83,8.042c-0.365,0.316-0.467,0.858-0.213,1.29
			C492.984,373.299,493.609,373.462,494.095,373.176z"/>
		<path style="fill:#00AEE0;" d="M845.443,363.006c-0.508-0.245-1.119-0.031-1.364,0.477c-1.723,3.575-2.863,7.425-3.601,11.321
			c-0.753,3.9-1.069,7.86-1.149,11.797c-0.044,3.94,0.143,7.862,0.555,11.746c0.399,3.885,0.977,7.735,1.771,11.547
			c0.096,0.463,0.505,0.812,0.996,0.814c0.564,0.002,1.024-0.453,1.026-1.018c0.017-3.886-0.133-7.74-0.239-11.575
			c-0.094-3.836-0.192-7.652-0.111-11.448c0.045-3.797,0.265-7.573,0.679-11.323c0.426-3.75,1.088-7.463,1.986-11.171
			C846.102,363.713,845.885,363.219,845.443,363.006z"/>
		<path style="fill:#00AEE0;" d="M844.701,454.74c-0.553-0.101-1.083,0.264-1.185,0.817l-0.001,0.008
			c-1.28,6.975-3.079,13.809-5.712,20.262c-2.649,6.437-6.18,12.481-10.747,17.652c-4.524,5.207-10.075,9.481-16.178,12.802
			c-6.119,3.314-12.737,5.732-19.55,7.676l-0.035,0.01c-0.491,0.142-0.807,0.634-0.718,1.15c0.096,0.553,0.622,0.924,1.175,0.829
			c7.119-1.232,14.193-3.242,20.781-6.509c1.61-0.88,3.269-1.687,4.832-2.66c1.523-1.036,3.069-2.046,4.575-3.113
			c1.424-1.177,2.844-2.363,4.245-3.569c1.292-1.323,2.613-2.623,3.876-3.974c4.884-5.578,8.586-12.116,11.072-19.004
			c2.524-6.887,3.865-14.105,4.402-21.3C845.568,455.306,845.216,454.835,844.701,454.74z"/>
		<path style="fill:#00AEE0;" d="M869.409,353.899l0.005-0.017c0.094-0.306,0.05-0.65-0.148-0.932
			c-0.341-0.484-1.009-0.6-1.492-0.259c-1.067,0.751-1.951,1.667-2.762,2.637c-0.802,0.977-1.51,2.026-2.121,3.129
			c-0.612,1.103-1.129,2.259-1.534,3.457c-0.394,1.203-0.704,2.438-0.776,3.742c-0.016,0.32,0.112,0.65,0.375,0.874
			c0.45,0.383,1.126,0.329,1.509-0.122l0.008-0.01c0.818-0.961,1.472-1.962,2.117-2.961c0.633-1.003,1.227-2.014,1.797-3.038
			c0.571-1.024,1.116-2.063,1.633-3.131C868.529,356.193,869.03,355.106,869.409,353.899z"/>
		<path style="fill:#00AEE0;" d="M855.406,427.223c-0.131-0.236-0.351-0.427-0.629-0.514c-0.577-0.181-1.191,0.139-1.372,0.716
			l-0.016,0.05c-0.569,1.811-0.565,3.529-0.42,5.239c0.132,1.705,0.279,3.408,0.346,5.112c0.15,3.408,0.159,6.815-0.051,10.206
			c-0.38,6.783-1.604,13.505-3.983,19.91c-0.175,0.469,0.017,1.011,0.47,1.255c0.495,0.267,1.113,0.082,1.38-0.414
			c3.39-6.29,5.119-13.389,5.831-20.46c0.33-3.547,0.454-7.111,0.304-10.656C857.047,434.136,857.24,430.536,855.406,427.223z"/>
		<path style="fill:#00AEE0;" d="M843.558,502.225l-4.22,4.057c-1.399,1.317-2.833,2.569-4.3,3.78
			c-1.471,1.206-2.98,2.365-4.544,3.479l-4.808,3.332c-0.333,0.231-0.517,0.651-0.427,1.072c0.12,0.559,0.671,0.915,1.231,0.795
			c2.037-0.438,3.991-1.197,5.846-2.151c1.856-0.954,3.621-2.106,5.239-3.436c1.623-1.325,3.095-2.832,4.395-4.463
			c1.299-1.631,2.427-3.396,3.257-5.306c0.161-0.372,0.095-0.822-0.204-1.132C844.627,501.84,843.971,501.828,843.558,502.225z"/>
		<path style="fill:#00AEE0;" d="M875.296,365.188c-0.406-0.389-1.05-0.375-1.439,0.031c-1.891,1.975-3.127,4.213-4.164,6.59
			c-1.028,2.37-1.701,4.868-2.18,7.389c-0.396,2.534-0.62,5.093-0.508,7.639c0,1.273,0.195,2.537,0.315,3.795
			c0.199,1.253,0.448,2.496,0.755,3.721c0.102,0.404,0.446,0.723,0.885,0.77c0.563,0.061,1.068-0.346,1.129-0.909l0.008-0.074
			c0.132-1.228,0.146-2.435,0.22-3.637l0.126-1.796c0.037-0.597,0.053-1.193,0.13-1.785c0.064-0.593,0.12-1.184,0.159-1.775
			c0.04-0.592,0.146-1.176,0.216-1.762c0.108-1.178,0.323-2.337,0.506-3.5c0.403-2.317,0.935-4.603,1.587-6.857
			c0.663-2.228,1.478-4.513,2.424-6.564l0.054-0.116C875.693,365.965,875.618,365.496,875.296,365.188z"/>
		<path style="fill:#00AEE0;" d="M758.466,514.023l-0.017-0.006c-1.373-0.459-2.707-0.795-4.023-1.142
			c-1.315-0.345-2.603-0.705-3.885-1.072c-1.28-0.374-2.553-0.76-3.833-1.18c-1.281-0.421-2.563-0.872-3.941-1.272l-0.023-0.007
			c-0.337-0.097-0.715-0.023-0.996,0.229c-0.433,0.389-0.469,1.055-0.08,1.488c1.023,1.139,2.253,2.052,3.57,2.806
			c1.318,0.755,2.728,1.354,4.186,1.776c1.456,0.429,2.96,0.674,4.464,0.759c1.504,0.084,3.014,0.003,4.49-0.354
			c0.338-0.084,0.634-0.336,0.753-0.691C759.317,514.805,759.019,514.207,758.466,514.023z"/>
		<path style="fill:#00AEE0;" d="M721.287,483.822c-0.61-0.863-1.267-1.572-1.905-2.276l-1.923-2.019l-1.939-1.977
			c-0.67-0.658-1.333-1.336-2.142-1.997l-0.034-0.028c-0.219-0.178-0.507-0.271-0.81-0.236c-0.597,0.068-1.026,0.608-0.958,1.205
			c0.129,1.13,0.533,2.174,1.05,3.153c0.527,0.973,1.193,1.869,1.96,2.662c0.766,0.794,1.634,1.482,2.574,2.043
			c0.946,0.551,1.952,0.999,3.06,1.2c0.277,0.049,0.577-0.007,0.825-0.183c0.492-0.348,0.609-1.029,0.261-1.521L721.287,483.822z"/>
		<path style="fill:#00AEE0;" d="M666.782,447.736c3.249-1.417,6.564-2.673,9.911-3.521c1.673-0.405,3.3-0.657,5.119-0.885
			c1.762-0.224,3.504-0.395,5.219-0.462c3.425-0.156,6.769,0.231,9.748,1.516c1.482,0.653,2.873,1.515,4.151,2.558
			c1.274,1.05,2.422,2.289,3.469,3.637c1.033,1.358,1.975,2.818,2.84,4.341c0.86,1.528,1.59,3.141,2.339,4.759l0.012,0.027
			c0.207,0.447,0.713,0.69,1.202,0.551c0.541-0.154,0.855-0.717,0.701-1.258c-1.007-3.546-2.39-7.061-4.487-10.273
			c-2.067-3.201-5.014-6.085-8.657-7.79c-3.63-1.756-7.688-2.189-11.469-2.06c-1.903,0.07-3.764,0.294-5.59,0.541
			c-1.77,0.241-3.725,0.546-5.561,1.042c-7.298,2.035-13.865,5.427-20.171,9.141c-1.61,0.955-3.195,1.946-4.76,2.964
			c-1.496,0.974-2.974,1.974-4.431,3.002c-2.997,2.078-5.909,4.266-8.766,6.518c-0.41,0.325-0.512,0.919-0.217,1.363
			c0.311,0.468,0.943,0.594,1.41,0.283l0.005-0.003c5.254-3.499,10.582-6.868,16.05-9.943c0.78-0.439,1.554-0.89,2.341-1.316
			C660.341,450.77,663.524,449.146,666.782,447.736z"/>
		<path style="fill:#00AEE0;" d="M623.907,472.772c-1.476,0.749-2.83,1.652-4.141,2.609c-1.309,0.958-2.579,1.966-3.793,3.038
			c-1.219,1.066-2.386,2.191-3.506,3.365c-1.12,1.174-2.193,2.398-3.132,3.762c-0.209,0.305-0.249,0.713-0.069,1.065
			c0.262,0.512,0.89,0.715,1.401,0.453l0.047-0.024c1.483-0.759,2.832-1.658,4.134-2.607c1.301-0.949,2.556-1.947,3.759-3.004
			c1.208-1.051,2.36-2.166,3.472-3.331c1.111-1.166,2.178-2.386,3.124-3.76l0.033-0.047c0.208-0.304,0.248-0.709,0.07-1.061
			C625.047,472.717,624.42,472.512,623.907,472.772z"/>
		<path style="fill:#00AEE0;" d="M704.67,481.366c-2.123-3.26-4.118-6.682-5.842-10.135l-0.03-0.061
			c-0.211-0.423-0.697-0.654-1.171-0.529c-0.543,0.144-0.867,0.701-0.723,1.245c1.068,4.025,2.738,7.729,4.711,11.311
			c0.966,1.8,2.084,3.509,3.196,5.223c0.233,0.331,0.476,0.656,0.713,0.985c0.955,1.331,1.929,2.647,2.974,3.911l0.978,1.181
			l1.034,1.134c0.699,0.746,1.355,1.532,2.091,2.243c1.489,1.403,2.917,2.869,4.538,4.122c3.102,2.66,6.573,4.864,10.152,6.769
			c0.417,0.222,0.947,0.13,1.261-0.247c0.36-0.432,0.302-1.075-0.13-1.435l-0.04-0.033c-3.043-2.536-6.096-4.966-8.869-7.717
			c-1.152-1.091-2.264-2.222-3.354-3.373c-1.585-1.675-3.113-3.402-4.573-5.184C709.079,487.801,706.809,484.628,704.67,481.366z"/>
		<path style="fill:#00AEE0;" d="M650.473,467.352c-2.448,0.771-4.693,1.949-6.842,3.227c-2.161,1.271-4.177,2.728-6.152,4.229
			c-1.953,1.53-3.847,3.124-5.64,4.83c-1.801,1.7-3.527,3.465-5.094,5.428c-0.267,0.336-0.306,0.819-0.061,1.2
			c0.308,0.478,0.945,0.615,1.423,0.308l0.007-0.005c4.133-2.664,7.966-5.662,11.811-8.598l5.713-4.442
			c1.908-1.463,3.803-2.926,5.736-4.355l0.02-0.014c0.342-0.254,0.503-0.706,0.368-1.135
			C651.592,467.483,651.015,467.182,650.473,467.352z"/>
		<path style="fill:#00AEE0;" d="M741.668,306.12l4.623-4.696c1.542-1.53,3.082-3.045,4.69-4.487
			c1.583-1.469,3.231-2.866,4.893-4.267c1.671-1.392,3.38-2.752,5.083-4.203l0.007-0.005c0.316-0.27,0.449-0.717,0.301-1.132
			c-0.192-0.537-0.783-0.817-1.32-0.625c-2.173,0.776-4.224,1.844-6.168,3.079c-1.954,1.226-3.776,2.656-5.493,4.202
			c-1.692,1.572-3.282,3.259-4.677,5.098c-1.403,1.829-2.648,3.78-3.609,5.879l-0.004,0.007c-0.174,0.383-0.102,0.85,0.215,1.163
			C740.615,306.531,741.268,306.526,741.668,306.12z"/>
		<path style="fill:#00AEE0;" d="M730.787,326.277c-0.499-0.32-1.162-0.175-1.482,0.324c-0.696,1.085-1.174,2.237-1.583,3.407
			c-0.398,1.172-0.701,2.368-0.917,3.579c-0.216,1.211-0.349,2.436-0.386,3.671c-0.025,1.236,0.016,2.478,0.278,3.737
			c0.067,0.313,0.274,0.598,0.585,0.748c0.534,0.256,1.174,0.032,1.431-0.502l0.002-0.005c0.549-1.143,0.909-2.297,1.239-3.453
			c0.318-1.157,0.575-2.319,0.787-3.488c0.212-1.169,0.374-2.346,0.481-3.539c0.096-1.196,0.163-2.4,0.054-3.661l-0.001-0.013
			C731.246,326.764,731.076,326.463,730.787,326.277z"/>
		<path style="fill:#00AEE0;" d="M702.436,407.64c4.859,0.368,9.83,0.459,14.853-0.856c2.493-0.66,5.025-1.791,7.115-3.642
			c0.546-0.431,0.989-0.971,1.466-1.474c0.414-0.55,0.871-1.08,1.214-1.67c0.763-1.146,1.306-2.379,1.793-3.609
			c1.738-4.996,1.985-9.991,2.072-14.869c0.048-4.889-0.201-9.721-0.63-14.545c-0.045-0.486-0.434-0.888-0.937-0.927
			c-0.562-0.043-1.052,0.377-1.095,0.938c-0.39,4.82-0.571,9.638-0.903,14.388c-0.191,2.371-0.363,4.731-0.715,7.03
			c-0.327,2.297-0.783,4.547-1.542,6.599c-0.754,2.042-1.806,3.882-3.331,5.253c-1.471,1.435-3.429,2.385-5.534,3.117
			c-4.265,1.413-9.063,1.803-13.818,2.233l-0.022,0.002c-0.487,0.044-0.886,0.434-0.924,0.938
			C701.454,407.108,701.875,407.597,702.436,407.64z"/>
		<path style="fill:#00AEE0;" d="M726.53,309.78l0.007-0.008c0.915-1.042,1.687-2.121,2.436-3.205
			c0.748-1.084,1.473-2.168,2.171-3.27c0.704-1.097,1.375-2.215,2.039-3.35c0.664-1.136,1.312-2.29,1.87-3.559l0.008-0.018
			c0.134-0.312,0.117-0.683-0.079-0.991c-0.315-0.494-0.97-0.639-1.464-0.324c-1.213,0.773-2.254,1.731-3.2,2.765
			c-0.946,1.036-1.804,2.148-2.55,3.332c-0.751,1.18-1.394,2.428-1.929,3.723c-0.534,1.294-0.961,2.639-1.155,4.062
			c-0.044,0.338,0.075,0.698,0.351,0.939C725.474,310.263,726.144,310.22,726.53,309.78z"/>
		<path style="fill:#00AEE0;" d="M713.629,381.483c0.511,0.232,1.114,0.006,1.347-0.506c1.629-3.589,2.263-7.436,2.706-11.194
			c0.398-3.775,0.572-7.536,0.66-11.281c0.108-3.746,0.103-7.478,0.131-11.205l0.011-5.585c0.083-1.839-0.032-3.667-0.869-5.548
			l-0.019-0.042c-0.103-0.23-0.284-0.427-0.528-0.546c-0.552-0.268-1.216-0.039-1.484,0.513c-0.898,1.846-1.075,3.746-1.053,5.633
			l0.065,5.598l0.199,11.161c0.042,3.709,0.081,7.407-0.084,11.067c-0.168,3.651-0.526,7.288-1.618,10.666l-0.01,0.029
			C712.924,380.73,713.153,381.267,713.629,381.483z"/>
		<path style="fill:#FFFFFF;" d="M799.145,365.361c0.514,0.26,1.141,0.054,1.4-0.46l0.004-0.007c0.805-1.592,1.48-3.184,2.159-4.761
			l2.044-4.69l2.101-4.648c0.718-1.55,1.457-3.099,2.135-4.739l0.004-0.01c0.146-0.355,0.089-0.778-0.182-1.086
			c-0.381-0.432-1.039-0.473-1.471-0.093c-1.386,1.221-2.556,2.645-3.585,4.16c-1.029,1.516-1.925,3.123-2.659,4.799
			c-0.741,1.673-1.327,3.411-1.765,5.18c-0.438,1.769-0.729,3.573-0.756,5.409C798.569,364.801,798.778,365.175,799.145,365.361z"/>
		<path style="fill:#FFFFFF;" d="M810.79,455.41c0.526,0.198,1.113-0.068,1.31-0.594c2.273-6.045,3.877-12.385,4.658-18.842
			c0.822-6.454,0.827-12.99,0.387-19.427c-0.457-6.442-1.355-12.79-2.091-19.067c-0.692-6.275-1.236-12.519-0.446-18.702
			l0.003-0.026c0.065-0.504-0.255-0.988-0.76-1.115c-0.545-0.138-1.098,0.192-1.236,0.737c-1.615,6.388-1.563,13.032-1.116,19.431
			c0.438,6.426,1.245,12.73,1.655,19.02c0.468,6.284,0.542,12.557,0.058,18.796c-0.5,6.238-1.544,12.429-3.049,18.572l-0.005,0.022
			C810.039,454.709,810.303,455.227,810.79,455.41z"/>
		<path style="fill:#FFFFFF;" d="M790.949,475.42l-0.016,0.015c-2.811,2.608-6.039,4.588-9.524,5.92
			c-3.487,1.321-7.206,2.031-10.97,2.167c-3.767,0.174-7.573-0.224-11.332-0.963c-3.763-0.752-7.469-1.885-11.183-3.181l-0.02-0.007
			c-0.447-0.156-0.958,0.017-1.211,0.439c-0.29,0.483-0.133,1.11,0.35,1.4c3.482,2.088,7.271,3.717,11.242,4.815
			c3.967,1.11,8.134,1.644,12.317,1.492c4.174-0.185,8.378-1.074,12.205-2.88c3.822-1.778,7.264-4.474,9.67-7.881
			c0.273-0.386,0.249-0.923-0.086-1.283C792.008,475.061,791.362,475.037,790.949,475.42z"/>
		<path style="fill:#FFFFFF;" d="M747.794,440.264c4.837-1.053,9.478-3.377,13.244-6.754c3.772-3.375,6.611-7.751,8.387-12.464
			c1.776-4.723,2.595-9.762,2.561-14.753c0.001-2.485-0.231-5.015-0.551-7.418l-0.45-3.531l-0.385-3.535
			c-0.47-4.715-0.747-9.441-0.816-14.162c-0.04-4.72,0.191-9.434,0.727-14.109c1.08-9.345,3.547-18.533,7.606-27.098
			c0.224-0.476,0.049-1.056-0.416-1.321c-0.488-0.277-1.109-0.106-1.387,0.382c-4.804,8.457-7.863,17.924-9.262,27.579
			c-1.459,9.666-1.32,19.477-0.403,29.115c0.226,2.414,0.501,4.819,0.834,7.216c0.326,2.346,0.547,4.596,0.565,6.907
			c0.048,4.587-0.56,9.182-2.067,13.475c-0.73,2.152-1.685,4.223-2.875,6.149c-1.18,1.93-2.558,3.747-4.177,5.336
			c-1.608,1.595-3.388,3.043-5.365,4.198c-1.971,1.163-4.087,2.102-6.295,2.823l-0.012,0.004c-0.488,0.161-0.786,0.669-0.674,1.182
			C746.703,440.035,747.245,440.383,747.794,440.264z"/>
		<path style="fill:#FFFFFF;" d="M731.816,436.303l-0.015-0.006c-1.274-0.52-2.53-0.901-3.785-1.262
			c-1.255-0.36-2.503-0.706-3.763-1.016c-1.258-0.317-2.528-0.603-3.817-0.867c-1.289-0.264-2.595-0.504-3.979-0.605l-0.017-0.001
			c-0.339-0.022-0.683,0.119-0.908,0.407c-0.359,0.462-0.276,1.129,0.187,1.488c1.124,0.874,2.352,1.539,3.623,2.101
			c1.271,0.561,2.588,1.021,3.939,1.357c1.349,0.343,2.734,0.558,4.131,0.653c1.396,0.093,2.81,0.062,4.216-0.229
			c0.331-0.071,0.629-0.3,0.767-0.637C732.618,437.143,732.358,436.525,731.816,436.303z"/>
		<path style="fill:#FFFFFF;" d="M765.894,472.011l-0.008,0.001c-0.475,0.062-0.855,0.454-0.885,0.95
			c-0.034,0.563,0.394,1.047,0.956,1.081c4.368,0.268,8.891-0.375,13.075-2.082c4.196-1.673,7.98-4.43,10.955-7.844
			c2.965-3.434,5.128-7.474,6.483-11.696c1.371-4.222,2.004-8.613,2.003-12.955c0-0.479-0.338-0.906-0.825-1.001
			c-0.553-0.108-1.089,0.253-1.196,0.807l-0.003,0.018c-0.802,4.122-1.816,8.138-3.333,11.917
			c-1.523,3.766-3.526,7.299-6.144,10.286c-2.583,3.014-5.781,5.453-9.371,7.208C774.002,470.462,770.017,471.47,765.894,472.011z"
			/>
		<path style="fill:#FFFFFF;" d="M763.332,332.85c0.494,0.275,1.117,0.097,1.391-0.397l0.024-0.043
			c1.389-2.498,2.633-4.999,4.09-7.399c1.419-2.412,2.89-4.791,4.485-7.092c1.552-2.329,3.204-4.597,4.9-6.841
			c1.697-2.234,3.473-4.464,5.23-6.641l0.034-0.042c0.278-0.345,0.308-0.845,0.041-1.227c-0.323-0.463-0.961-0.576-1.424-0.253
			c-2.462,1.721-4.595,3.715-6.604,5.867c-2.017,2.138-3.822,4.468-5.488,6.895c-0.832,1.214-1.582,2.485-2.342,3.746l-1.036,1.955
			c-0.358,0.643-0.673,1.311-0.964,1.991c-1.269,2.66-2.188,5.494-2.839,8.362C762.734,332.161,762.926,332.624,763.332,332.85z"/>
		<path style="fill:#FFFFFF;" d="M779.984,386.746c-0.561,0.076-0.954,0.591-0.878,1.152l1.216,9.021
			c0.368,2.987,0.704,5.961,0.874,8.935c0.207,2.972,0.245,5.941,0.151,8.906c-0.107,2.967-0.392,5.921-0.806,8.913l-0.002,0.012
			c-0.062,0.447,0.179,0.897,0.615,1.082c0.521,0.221,1.122-0.021,1.344-0.542c1.238-2.912,1.987-6.025,2.398-9.162
			c0.425-3.142,0.47-6.317,0.291-9.46c-0.215-3.142-0.655-6.257-1.351-9.304c-0.684-3.049-1.581-6.04-2.766-8.923
			C780.897,386.956,780.456,386.682,779.984,386.746z"/>
	</g>
	<g>
		<path style="fill:#04294F;" d="M968.007,151.442l-0.008,0.017c0.853,1.631,1.166,3.578,0.647,5.603
			c-3.817,14.874-11.952,42.833-28.184,86.087c-19.838,52.863-35.711,83.719-42.087,95.32c-1.823,3.317-5.722,4.87-9.336,3.745
			c-9.538-2.968-29.983-11.323-61.883-34.173l-0.003,0.003c0,0-1.134,18.11-11.64,22.736l-0.002,0
			c-2.513,1.127-5.551,0.671-7.611-1.226l-0.004-0.001c-0.005-0.006-0.01-0.012-0.014-0.018
			c-12.314-10.326-15.867-42.91-16.833-49.701c0-0.001,0-0.002,0-0.003c-23.397-19.564-34.158-31.261-39.094-37.909
			c-2.486-3.349-1.906-7.935,1.056-10.598c-7.873,6.332-4.635,17.515-0.737,22.328c4.531,6.102,13.97,16.459,33.581,33.247
			l-0.006-0.004c3.057,24.048,8.145,46.112,26.495,51.591c0.898,0.268,1.763,0.412,2.599,0.45l-0.003,0.029
			c0.393-0.011,0.788-0.031,1.183-0.05c0.042-0.003,0.086-0.002,0.128-0.005c8.108-0.416,16.613-2.715,25.834-9.132
			c23.628,15.407,39.282,21.68,47.274,24.167c3.614,1.125,7.513-0.428,9.336-3.745c6.376-11.601,22.249-42.456,42.087-95.32
			c16.232-43.254,24.367-71.213,28.184-86.087C970.207,164.071,971.111,156.821,968.007,151.442z"/>
		<path style="fill:#FFB400;" d="M751.953,241.923c4.936,6.648,15.697,18.345,39.094,37.909c0.001,0.001,0.001,0.001,0.002,0.002
			l150.68-111.289c2.25-1.662,4.996,1.304,3.165,3.42l-117.74,136.077c31.9,22.851,52.345,31.205,61.883,34.173
			c3.614,1.125,7.513-0.428,9.336-3.745c6.376-11.601,22.249-42.456,42.087-95.32c16.232-43.254,24.367-71.213,28.184-86.087
			c0.519-2.024,0.206-3.972-0.647-5.603c-1.648-3.149-5.348-5.094-9.225-3.975c-17.979,5.19-53.897,16.386-102.277,35.539
			c-53.67,21.247-88.326,39.584-102.049,47.272c-0.528,0.296-1.007,0.643-1.437,1.029
			C750.048,233.988,749.467,238.574,751.953,241.923z"/>
		<path style="fill:#FF3A00;" d="M944.896,171.964c1.831-2.116-0.915-5.082-3.165-3.42L791.05,279.834
			c-0.001,0-0.001-0.001-0.002-0.002c0,0.001,0,0.002,0,0.003c0.966,6.79,4.519,39.375,16.833,49.701
			c0.005,0.006,0.01,0.012,0.014,0.018l0.004,0.001c2.06,1.897,5.099,2.353,7.611,1.226l0.002,0
			c10.506-4.626,11.64-22.736,11.64-22.736l0.003-0.003L944.896,171.964z"/>
	</g>
	<g>
		<path style="fill:#04294F;" d="M604.637,495.992c2.95,5.155,3.103,11.55,0.204,16.907c-8.015,14.844-28.753,48.519-80.519,115.496
			c-58.061,75.129-99.792,116.32-116.706,131.952c-5.169,4.778-12.711,5.998-19.106,3.031c-13.796-6.387-40.25-20.912-75.885-50.903
			c-33.711-28.366-49.627-48.264-56.815-59.158c-3.243-4.922-3.71-11.096-1.419-16.404c-9.183,19.812-2.047,37.791,4.104,46.342
			c7.188,10.894,23.115,30.792,56.815,59.158c35.646,29.991,62.089,44.516,75.885,50.903c6.395,2.967,13.937,1.746,19.116-3.031
			c16.903-15.632,64.953-60.199,123.014-135.329c51.766-66.977,68.38-95.197,76.405-110.042
			C614.744,535.995,616.198,513.668,604.637,495.992z M298.355,714.025c-0.451,0.421-1.138,0.43-1.599,0.043
			c-3.947-3.307-7.763-6.773-11.425-10.395c-3.681-3.604-7.197-7.375-10.621-11.227c-3.396-3.877-6.69-7.848-9.792-11.975
			c-3.12-4.112-6.022-8.407-8.589-12.925c-0.316-0.556-0.121-1.263,0.435-1.579c0.511-0.29,1.149-0.15,1.494,0.306l0.021,0.028
			c3.068,4.038,6.227,8.014,9.477,11.925c3.261,3.902,6.568,7.77,9.952,11.572c3.363,3.82,6.792,7.586,10.252,11.327l10.448,11.19
			l0.004,0.005C298.869,712.806,298.843,713.57,298.355,714.025z M318.985,729.145l-0.529,2.996
			c-0.249,1.414-1.907,2.068-3.047,1.197c-4.473-3.415-9.705-8.546-12.023-10.877c-0.693-0.697-0.743-1.802-0.12-2.563l1.349-1.649
			c0.698-0.853,1.965-0.946,2.777-0.2c1.833,1.684,3.864,3.473,6.113,5.366c1.647,1.386,3.239,2.681,4.775,3.889
			C318.837,727.742,319.108,728.447,318.985,729.145z M461.733,726.459c-4.671,5.243-9.471,10.37-14.285,15.485
			c-4.858,5.073-9.77,10.094-14.74,15.061c-4.96,4.977-10.058,9.814-15.163,14.64l-3.844,3.601l-1.925,1.794
			c-0.69,0.631-1.461,1.275-2.254,1.83c-3.196,2.237-7.088,3.502-11.001,3.471c-1.954-0.003-3.906-0.305-5.768-0.893
			c-0.92-0.284-1.864-0.679-2.688-1.066l-2.404-1.167c-3.184-1.579-6.281-3.277-9.362-5.002c-6.146-3.473-12.17-7.131-18.054-11.002
			c-5.89-3.858-11.69-7.848-17.378-11.989c-5.665-4.172-11.266-8.428-16.716-12.871c-0.495-0.404-0.569-1.133-0.166-1.628
			c0.391-0.479,1.091-0.56,1.585-0.199c5.641,4.139,11.305,8.239,17.084,12.171c5.757,3.962,11.581,7.824,17.506,11.519
			c5.933,3.68,11.912,7.283,18,10.665c3.048,1.678,6.115,3.329,9.224,4.843l2.335,1.113c0.766,0.35,1.444,0.625,2.202,0.855
			c1.484,0.456,3.037,0.683,4.589,0.674c3.103-0.021,6.204-0.961,8.761-2.738c0.646-0.449,1.225-0.924,1.835-1.471l1.934-1.778
			l3.856-3.564c5.137-4.753,10.183-9.6,15.243-14.434c5.055-4.839,10.057-9.736,15.006-14.687c4.993-4.908,9.895-9.909,14.83-14.882
			c0.468-0.473,1.231-0.477,1.704-0.009C462.138,725.253,462.154,725.984,461.733,726.459z M607.331,537.155
			c-2.656,5.294-5.55,10.464-8.621,15.518c-3.051,5.068-6.273,10.024-9.568,14.927c-6.638,9.772-13.593,19.318-21.046,28.479
			c-0.404,0.496-1.133,0.571-1.63,0.168c-0.461-0.375-0.554-1.038-0.242-1.527c6.386-9.911,13.055-19.596,19.602-29.355
			c6.579-9.739,13.038-19.528,19.41-29.401c0.36-0.561,1.106-0.724,1.667-0.364C607.426,535.933,607.599,536.612,607.331,537.155z"
			/>
		<path style="fill:#FF3A00;" d="M255.81,653.316c7.188,10.894,23.104,30.792,56.815,59.158
			c35.636,29.991,62.089,44.516,75.885,50.903c6.395,2.967,13.937,1.746,19.106-3.031c16.914-15.632,58.645-56.822,116.706-131.952
			c51.766-66.977,72.505-100.651,80.519-115.496c2.899-5.357,2.746-11.752-0.204-16.907c-0.012-0.032-0.023-0.053-0.034-0.074
			c-0.546-0.818-1.102-1.626-1.701-2.422c-8.183-9.766-25.447-26.989-60.247-50.998c-34.713-23.948-54.785-32.867-65.163-36.174
			c-5.443-1.732-11.385-0.641-15.905,2.869c-12.869,10.009-45.77,38.042-108.102,105.392
			c-60.89,65.794-87.663,103.863-97.814,119.898c-0.389,0.62-0.735,1.249-1.038,1.898c-0.091,0.173-0.172,0.357-0.242,0.53
			C252.1,642.22,252.567,648.393,255.81,653.316z M307.333,683.985c-0.646,0.645-1.695,0.634-2.334-0.017
			c-3.882-3.956-6.5-6.891-7.863-8.469c-0.603-0.698-0.506-1.754,0.208-2.337l3.663-2.992c0.685-0.559,1.685-0.481,2.266,0.185
			c1.283,1.47,3.767,4.231,7.433,7.959c0.631,0.642,0.629,1.677-0.008,2.312L307.333,683.985z M321.629,690.974l-3.115,3.603
			c-0.603,0.697-1.667,0.76-2.347,0.139c-1.598-1.459-3.104-2.862-4.511-4.2c-0.667-0.634-0.676-1.694-0.024-2.345l3.371-3.366
			c0.63-0.629,1.644-0.639,2.29-0.026c1.313,1.247,2.713,2.552,4.197,3.908C322.146,689.288,322.211,690.302,321.629,690.974z
			 M349.53,713.864l-3,3.663c-0.554,0.677-1.55,0.798-2.252,0.276c-8.071-5.992-15.115-11.702-21.141-16.902
			c-0.685-0.591-0.754-1.625-0.162-2.31l3.11-3.598c0.593-0.686,1.624-0.762,2.31-0.169c5.942,5.136,12.89,10.778,20.837,16.681
			C349.984,712.065,350.123,713.139,349.53,713.864z M362.154,722.675l-2.645,3.91c-0.509,0.753-1.541,0.946-2.292,0.434
			c-1.837-1.254-3.629-2.501-5.382-3.74c-0.777-0.549-0.917-1.64-0.314-2.376l2.998-3.662c0.545-0.666,1.505-0.798,2.208-0.302
			c1.626,1.148,3.287,2.303,4.985,3.462C362.459,720.91,362.66,721.927,362.154,722.675z M552.744,466.941
			c2.637-2.783,6.842-3.098,9.376-0.699c1.265,1.198,1.921,2.864,1.848,4.69c-0.069,1.725-0.792,3.397-2.035,4.71
			c-1.242,1.312-2.873,2.125-4.592,2.288c-0.216,0.021-0.429,0.031-0.641,0.031c-1.575,0-3.028-0.563-4.144-1.62
			c-1.265-1.198-1.921-2.864-1.848-4.69C550.778,469.927,551.501,468.254,552.744,466.941z M516.243,441.713
			c0.556-0.464,1.291-0.593,1.94-0.415c2.659,0.749,5.103,1.848,7.473,3.064c2.361,1.229,4.63,2.605,6.812,4.106
			c2.183,1.5,4.276,3.13,6.266,4.898c1.981,1.781,3.878,3.674,5.522,5.895c0.699,0.945,0.5,2.278-0.445,2.977
			c-0.58,0.429-1.306,0.52-1.942,0.307l-0.018-0.006c-2.596-0.887-4.962-2.072-7.266-3.338c-2.295-1.278-4.509-2.663-6.655-4.147
			c-2.147-1.482-4.23-3.057-6.241-4.747c-2.003-1.703-3.953-3.49-5.71-5.594l-0.004-0.004
			C515.221,443.807,515.341,442.466,516.243,441.713z M281.206,624.301c10.345-16.35,23.466-36.719,82.913-100.945
			c62.748-67.8,84.763-84.414,95.78-92.984c0.241-0.188,0.537-0.292,0.815-0.3c0.139-0.004,0.267,0.014,0.386,0.054
			c7.997,2.549,26.532,10.356,60.94,34.099c34.604,23.876,57.091,43.413,63.541,51.122c0.343,0.418,0.402,1.015,0.137,1.503
			c-7.354,13.609-19.297,30.505-70.98,97.383c-58.072,75.13-87.502,104.66-102.707,118.718c-0.344,0.319-0.727,0.372-0.919,0.378
			c-0.203,0.006-0.396-0.032-0.58-0.123c-12.065-5.58-40.783-22.436-75.598-51.745c-33.252-27.983-47.956-46.921-53.751-55.716
			C280.903,625.324,280.909,624.758,281.206,624.301z"/>
		<path style="fill:#04294F;" d="M602.902,493.496c0.599,0.796,1.155,1.603,1.701,2.422
			C604.11,495.066,603.543,494.259,602.902,493.496z"/>
		<path style="fill:#FFFFFF;" d="M334.932,681.46c34.816,29.308,63.534,46.165,75.598,51.745c0.184,0.091,0.377,0.129,0.58,0.123
			c0.192-0.005,0.575-0.058,0.919-0.378c15.205-14.057,44.636-43.588,102.707-118.718c51.683-66.879,63.627-83.775,70.98-97.383
			c0.264-0.488,0.206-1.085-0.137-1.503c-6.449-7.709-28.937-27.246-63.541-51.122c-34.408-23.742-52.943-31.55-60.94-34.099
			c-0.119-0.039-0.247-0.057-0.386-0.054c-0.278,0.008-0.574,0.112-0.815,0.3c-11.017,8.569-33.032,25.184-95.78,92.984
			c-59.448,64.227-72.568,84.595-82.913,100.945c-0.297,0.457-0.303,1.023-0.025,1.443
			C286.976,634.539,301.68,653.477,334.932,681.46z M379.536,637.295c-0.083,0.087-0.184,0.179-0.274,0.254l-25.209,20.595
			c-0.436,0.356-1.077,0.291-1.433-0.144c-0.329-0.403-0.298-0.981,0.052-1.348l22.481-23.542c1.156-1.21,3.074-1.255,4.284-0.099
			C380.647,634.167,380.692,636.085,379.536,637.295z M398.749,660.607c-0.001,0.565-0.461,1.022-1.026,1.021
			c-0.483-0.001-0.887-0.337-0.994-0.787l-3.95-16.664c-0.388-1.637,0.624-3.278,2.261-3.666c1.637-0.388,3.278,0.624,3.666,2.261
			c0.055,0.232,0.081,0.481,0.082,0.71L398.749,660.607z M532.032,514.797c0.565,0.001,1.021,0.46,1.019,1.025
			c-0.001,0.491-0.349,0.9-0.81,0.997l-18.614,3.945c-1.643,0.348-3.258-0.702-3.606-2.345s0.702-3.258,2.345-3.606
			c0.209-0.044,0.433-0.065,0.639-0.066L532.032,514.797z M491.82,501.383c0.08-0.09,0.178-0.185,0.266-0.263l24.537-21.391
			c0.424-0.37,1.067-0.326,1.437,0.098c0.342,0.392,0.33,0.971-0.009,1.349l-21.716,24.25c-1.117,1.247-3.032,1.352-4.279,0.236
			C490.809,504.545,490.704,502.629,491.82,501.383z M472.863,477.644c0.483-0.014,0.897,0.309,1.018,0.755l4.482,16.529
			c0.44,1.623-0.519,3.296-2.142,3.736s-3.296-0.519-3.736-2.142c-0.062-0.23-0.097-0.478-0.105-0.707l-0.509-17.118
			C471.854,478.133,472.298,477.661,472.863,477.644z M431.431,501.5c44.941-4.547,84.511,22.794,88.384,61.065
			s-29.412,72.992-74.352,77.539c-44.94,4.557-84.51-22.784-88.384-61.055C353.194,540.769,386.49,506.058,431.431,501.5z
			 M345.018,623.794l18.614-3.945c1.643-0.348,3.258,0.702,3.606,2.345c0.348,1.643-0.702,3.258-2.345,3.606
			c-0.209,0.044-0.433,0.065-0.639,0.066l-19.028-0.05c-0.565-0.002-1.021-0.46-1.019-1.025
			C344.209,624.3,344.557,623.891,345.018,623.794z"/>
		<path style="fill:#00AEE0;" d="M445.463,640.105c44.941-4.547,78.226-39.268,74.352-77.539s-43.444-65.612-88.384-61.065
			c-44.94,4.558-78.237,39.268-74.352,77.55C360.952,617.321,400.522,644.662,445.463,640.105z M383.318,560.589
			c7.481-4.232,22.489-12.194,40.545-18.818c17.729-6.509,34.933-10.706,44.056-12.717c3.611-0.793,6.999,1.989,6.939,5.676
			c-0.104,7.15-0.981,19.674-4.726,37.501c-4.35,20.728-10.931,34.465-14.476,40.822c-1.354,2.441-4.274,3.514-6.906,2.592
			c-5.718-2.024-16.256-6.106-27.318-12.151c1.61-2.095,3.187-4.2,4.764-6.316c4.586-6.193,9.095-12.449,13.527-18.766
			c4.443-6.318,8.854-12.656,13.177-19.088c4.334-6.4,8.58-12.894,12.739-19.471c0.399-0.641,0.398-1.485-0.069-2.135
			c-0.621-0.849-1.802-1.041-2.661-0.43c-6.307,4.563-12.517,9.198-18.649,13.927c-6.143,4.697-12.21,9.478-18.243,14.29
			c-6.034,4.79-12.002,9.665-17.915,14.569c-2.946,2.452-5.881,4.936-8.783,7.408l-0.532,0.463
			c-8.699-7.53-14.265-14.601-17.392-19.174C379.512,566.014,380.414,562.239,383.318,560.589z"/>
		<path style="fill:#FFFFFF;" d="M398.785,587.946l0.532-0.463c2.903-2.472,5.837-4.956,8.783-7.408
			c5.914-4.905,11.881-9.779,17.915-14.569c6.034-4.812,12.1-9.593,18.243-14.29c6.132-4.729,12.341-9.364,18.649-13.927
			c0.859-0.611,2.04-0.419,2.661,0.43c0.466,0.65,0.468,1.494,0.069,2.135c-4.159,6.577-8.405,13.071-12.739,19.471
			c-4.323,6.432-8.733,12.77-13.177,19.088c-4.433,6.317-8.942,12.573-13.527,18.766c-1.577,2.116-3.154,4.221-4.764,6.316
			c11.062,6.045,21.601,10.128,27.318,12.151c2.632,0.922,5.551-0.151,6.906-2.592c3.545-6.357,10.126-20.094,14.476-40.822
			c3.745-17.827,4.622-30.351,4.726-37.501c0.06-3.688-3.328-6.469-6.939-5.676c-9.123,2.011-26.327,6.209-44.056,12.717
			c-18.057,6.624-33.065,14.587-40.545,18.818c-2.904,1.65-3.805,5.424-1.925,8.183C384.52,573.345,390.086,580.416,398.785,587.946
			z"/>
		<path style="fill:#04294F;" d="M515.978,444.713c1.758,2.104,3.708,3.891,5.71,5.594c2.011,1.689,4.094,3.264,6.241,4.747
			c2.146,1.483,4.36,2.868,6.655,4.147c2.304,1.266,4.669,2.451,7.266,3.338l0.018,0.006c0.636,0.212,1.362,0.122,1.942-0.307
			c0.945-0.699,1.144-2.032,0.445-2.977c-1.644-2.221-3.541-4.114-5.522-5.895c-1.99-1.768-4.083-3.398-6.266-4.898
			c-2.182-1.501-4.45-2.877-6.812-4.106c-2.37-1.215-4.815-2.315-7.473-3.064c-0.649-0.178-1.384-0.049-1.94,0.415
			c-0.902,0.753-1.022,2.094-0.269,2.996L515.978,444.713z"/>
		<path style="fill:#FFB400;" d="M556.963,473.949c0.755-0.072,1.488-0.447,2.065-1.056v0c0.577-0.609,0.912-1.362,0.942-2.12
			c0.026-0.656-0.187-1.233-0.601-1.625c-0.369-0.35-0.866-0.518-1.4-0.518c-0.792,0-1.664,0.369-2.321,1.063
			c-0.577,0.609-0.912,1.362-0.942,2.12c-0.026,0.656,0.187,1.233,0.601,1.625C555.72,473.83,556.303,474.008,556.963,473.949z"/>
		<path style="fill:#04294F;" d="M556.7,477.962c0.212,0,0.425-0.01,0.641-0.031c1.719-0.163,3.35-0.976,4.592-2.288
			c1.243-1.312,1.966-2.985,2.035-4.71c0.073-1.827-0.583-3.493-1.848-4.69c-2.534-2.399-6.739-2.084-9.376,0.699
			c-1.243,1.312-1.966,2.985-2.035,4.71c-0.073,1.827,0.583,3.493,1.848,4.69C553.672,477.398,555.125,477.962,556.7,477.962z
			 M555.648,469.692c0.657-0.694,1.529-1.063,2.321-1.063c0.534,0,1.031,0.168,1.4,0.518c0.414,0.392,0.627,0.969,0.601,1.625
			c-0.03,0.758-0.365,1.511-0.942,2.12v0c-0.577,0.609-1.311,0.984-2.065,1.056c-0.66,0.059-1.243-0.119-1.656-0.511
			c-0.414-0.392-0.627-0.969-0.601-1.625C554.736,471.055,555.071,470.302,555.648,469.692z"/>
		<path style="fill:#00AEE0;" d="M496.335,505.426l21.716-24.25c0.339-0.377,0.351-0.957,0.009-1.349
			c-0.37-0.424-1.013-0.468-1.437-0.098l-24.537,21.391c-0.088,0.078-0.186,0.173-0.266,0.263c-1.116,1.247-1.011,3.163,0.236,4.279
			C493.303,506.778,495.219,506.673,496.335,505.426z"/>
		<path style="fill:#00AEE0;" d="M512.365,514.813c-1.643,0.348-2.693,1.963-2.345,3.606s1.963,2.693,3.606,2.345l18.614-3.945
			c0.461-0.098,0.809-0.507,0.81-0.997c0.001-0.565-0.455-1.023-1.019-1.025l-19.028-0.05
			C512.799,514.748,512.574,514.769,512.365,514.813z"/>
		<path style="fill:#00AEE0;" d="M345.227,625.815l19.028,0.05c0.205-0.001,0.43-0.022,0.639-0.066
			c1.643-0.348,2.693-1.963,2.345-3.606c-0.348-1.643-1.963-2.693-3.606-2.345l-18.614,3.945c-0.461,0.098-0.809,0.506-0.81,0.997
			C344.206,625.355,344.663,625.814,345.227,625.815z"/>
		<path style="fill:#00AEE0;" d="M472.484,496.523c0.44,1.623,2.113,2.583,3.736,2.142s2.583-2.113,2.142-3.736l-4.482-16.529
			c-0.121-0.446-0.536-0.77-1.018-0.755c-0.565,0.017-1.009,0.488-0.993,1.053l0.509,17.118
			C472.388,496.045,472.422,496.292,472.484,496.523z"/>
		<path style="fill:#00AEE0;" d="M375.153,633.11l-22.481,23.542c-0.35,0.366-0.381,0.945-0.052,1.348
			c0.356,0.436,0.997,0.5,1.433,0.144l25.209-20.595c0.091-0.075,0.191-0.167,0.274-0.254c1.156-1.21,1.112-3.129-0.099-4.284
			C378.227,631.855,376.308,631.899,375.153,633.11z"/>
		<path style="fill:#00AEE0;" d="M395.04,640.511c-1.637,0.388-2.649,2.029-2.261,3.666l3.95,16.664
			c0.107,0.45,0.511,0.786,0.994,0.787c0.565,0.001,1.024-0.456,1.026-1.021l0.039-17.126c-0.001-0.229-0.027-0.477-0.082-0.71
			C398.318,641.135,396.677,640.123,395.04,640.511z"/>
		<path style="fill:#FF3A00;" d="M606.904,535.598c-0.561-0.36-1.307-0.197-1.667,0.364c-6.372,9.873-12.831,19.662-19.41,29.401
			c-6.547,9.759-13.216,19.444-19.602,29.355c-0.313,0.489-0.219,1.152,0.242,1.527c0.496,0.404,1.226,0.329,1.63-0.168
			c7.453-9.161,14.407-18.707,21.046-28.479c3.295-4.903,6.516-9.859,9.568-14.927c3.071-5.054,5.965-10.224,8.621-15.518
			C607.599,536.612,607.426,535.933,606.904,535.598z"/>
		<path style="fill:#FF3A00;" d="M459.977,724.81c-4.936,4.972-9.837,9.973-14.83,14.882c-4.95,4.951-9.951,9.848-15.006,14.687
			c-5.06,4.834-10.106,9.681-15.243,14.434l-3.856,3.564l-1.934,1.778c-0.61,0.547-1.189,1.022-1.835,1.471
			c-2.557,1.777-5.658,2.717-8.761,2.738c-1.552,0.009-3.105-0.218-4.589-0.674c-0.757-0.23-1.435-0.505-2.202-0.855l-2.335-1.113
			c-3.109-1.513-6.176-3.165-9.224-4.843c-6.088-3.382-12.068-6.984-18-10.665c-5.925-3.695-11.749-7.557-17.506-11.519
			c-5.779-3.932-11.443-8.033-17.084-12.171c-0.493-0.36-1.194-0.28-1.585,0.199c-0.404,0.495-0.33,1.224,0.166,1.628
			c5.45,4.443,11.05,8.7,16.716,12.871c5.688,4.141,11.488,8.131,17.378,11.989c5.883,3.871,11.908,7.53,18.054,11.002
			c3.081,1.726,6.178,3.423,9.362,5.002l2.404,1.167c0.824,0.387,1.768,0.782,2.688,1.066c1.862,0.588,3.814,0.89,5.768,0.893
			c3.913,0.031,7.806-1.234,11.001-3.471c0.793-0.555,1.564-1.199,2.254-1.83l1.925-1.794l3.844-3.601
			c5.105-4.826,10.203-9.663,15.163-14.64c4.97-4.967,9.882-9.988,14.74-15.061c4.814-5.115,9.614-10.242,14.285-15.485
			c0.421-0.475,0.405-1.206-0.052-1.658C461.208,724.333,460.445,724.337,459.977,724.81z"/>
		<path style="fill:#FF3A00;" d="M313.505,723.414c-2.25-1.893-4.281-3.682-6.113-5.366c-0.812-0.746-2.078-0.653-2.777,0.2
			l-1.349,1.649c-0.622,0.761-0.572,1.866,0.12,2.563c2.317,2.332,7.55,7.462,12.023,10.877c1.141,0.871,2.798,0.217,3.047-1.197
			l0.529-2.996c0.123-0.698-0.148-1.403-0.705-1.841C316.745,726.095,315.152,724.8,313.505,723.414z"/>
		<path style="fill:#FF3A00;" d="M298.409,712.314l-10.448-11.19c-3.46-3.741-6.889-7.506-10.252-11.327
			c-3.384-3.802-6.691-7.67-9.952-11.572c-3.25-3.911-6.409-7.887-9.477-11.925l-0.021-0.028c-0.345-0.456-0.983-0.596-1.494-0.306
			c-0.556,0.316-0.751,1.023-0.435,1.579c2.567,4.518,5.469,8.813,8.589,12.925c3.101,4.127,6.396,8.098,9.792,11.975
			c3.424,3.852,6.94,7.623,10.621,11.227c3.662,3.622,7.478,7.088,11.425,10.395c0.461,0.387,1.148,0.378,1.599-0.043
			c0.487-0.455,0.513-1.219,0.058-1.706L298.409,712.314z"/>
		<path style="fill:#04294F;" d="M349.232,711.506c-7.947-5.903-14.895-11.545-20.837-16.681c-0.686-0.593-1.717-0.517-2.31,0.169
			l-3.11,3.598c-0.592,0.685-0.523,1.718,0.162,2.31c6.026,5.2,13.07,10.91,21.141,16.902c0.703,0.522,1.698,0.401,2.252-0.276
			l3-3.663C350.123,713.139,349.984,712.065,349.232,711.506z"/>
		<path style="fill:#04294F;" d="M317.293,684.779c-0.646-0.613-1.66-0.603-2.29,0.026l-3.371,3.366
			c-0.651,0.65-0.643,1.711,0.024,2.345c1.407,1.337,2.913,2.74,4.511,4.2c0.681,0.621,1.745,0.559,2.347-0.139l3.115-3.603
			c0.581-0.673,0.516-1.687-0.14-2.287C320.006,687.331,318.606,686.026,317.293,684.779z"/>
		<path style="fill:#04294F;" d="M310.706,678.313c-3.667-3.728-6.15-6.489-7.433-7.959c-0.582-0.666-1.582-0.744-2.266-0.185
			l-3.663,2.992c-0.714,0.583-0.81,1.639-0.208,2.337c1.363,1.578,3.981,4.514,7.863,8.469c0.639,0.651,1.689,0.662,2.334,0.017
			l3.365-3.36C311.335,679.989,311.337,678.955,310.706,678.313z"/>
		<path style="fill:#04294F;" d="M361.713,720.401c-1.698-1.16-3.359-2.314-4.985-3.462c-0.703-0.496-1.663-0.364-2.208,0.302
			l-2.998,3.662c-0.602,0.736-0.462,1.827,0.314,2.376c1.753,1.239,3.545,2.486,5.382,3.74c0.75,0.512,1.783,0.318,2.292-0.434
			l2.645-3.91C362.66,721.927,362.459,720.91,361.713,720.401z"/>
	</g>
	<g>
		<path style="fill:#FFB400;" d="M417.409,513.496c-7.378-3.414-14.957-6.612-22.797-9.486c-7.869-2.824-16-5.318-24.436-7.342
			c-16.836-4.043-35.088-6.169-54.322-4.525c-9.595,0.819-19.403,2.664-29.091,5.661c-9.685,2.992-19.235,7.166-28.219,12.434
			c-9,5.253-17.334,11.66-24.846,18.748c-7.513,7.098-14.172,14.908-19.97,23.083l-1.779,2.495c-1.599,2.286-2.997,4.761-4.16,7.414
			c-9.519,21.714,0.367,47.032,22.081,56.551c12.628,5.536,26.471,4.498,37.721-1.603c8.592-12.023,28.748-37.057,28.748-37.057
			s0.002,0.017,0.003,0.03c1.707-2.102,3.525-4.089,5.497-5.927c6.527-6.024,14.724-10.79,24.796-13.75
			c10.036-2.963,21.737-4.112,34.094-3.487c6.178,0.297,12.517,0.989,18.936,2.015c6.421,1.083,12.913,2.492,19.437,4.147
			l0.728,0.19c12.09,3.076,21.802-3.887,27.23-15.618C433.186,534.226,430.65,519.622,417.409,513.496z M359.481,512.669
			c-0.177,1.002-0.252,2.014-0.551,2.993c-0.442,1.978-1.268,3.868-2.311,5.584c-0.296,0.487-0.93,0.641-1.416,0.346
			c-0.356-0.217-0.535-0.615-0.489-1.003l0.01-0.077c0.227-1.881,0.567-3.646,0.69-5.452c0.099-0.893,0.125-1.794,0.183-2.686
			c-0.005-0.899,0.059-1.791,0.021-2.69c-0.021-1.794-0.103-3.598-0.284-5.409c-0.172-1.801-0.426-3.658-0.665-5.45l-0.013-0.095
			c-0.075-0.563,0.32-1.08,0.883-1.155c0.413-0.055,0.802,0.144,1.009,0.477c1.107,1.783,1.794,3.644,2.292,5.601
			c0.498,1.947,0.756,3.961,0.776,5.984C359.65,510.646,359.56,511.66,359.481,512.669z M368.438,514.813
			c-0.427,0.435-1.125,0.441-1.56,0.015c-0.171-0.168-0.276-0.377-0.314-0.596l-0.025-0.144c-0.148-0.84-0.14-1.546-0.196-2.259
			l-0.058-2.076c-0.01-0.69-0.006-1.388,0.006-2.112c0.03-0.716,0.036-1.496,0.185-2.255l0.047-0.24
			c0.115-0.584,0.681-0.964,1.265-0.849c0.223,0.044,0.417,0.154,0.564,0.306c0.724,0.745,1.134,1.53,1.455,2.396
			c0.306,0.859,0.461,1.768,0.477,2.687C370.318,511.506,369.784,513.441,368.438,514.813z M415.943,526.719
			c-1.53,6.317-7.661,10.713-15.213,8.883s-7.55-9.248-6.02-15.565c1.53-6.317,4.01-9.14,11.561-7.31
			C413.824,514.557,417.474,520.402,415.943,526.719z"/>
		<path style="fill:#FF3A00;" d="M406.272,512.727c-7.552-1.829-10.031,0.993-11.561,7.31c-1.53,6.317-1.532,13.735,6.02,15.565
			s13.682-2.567,15.213-8.883C417.474,520.402,413.824,514.557,406.272,512.727z"/>
		<path style="fill:#04294F;" d="M356.548,498.05c-0.207-0.332-0.596-0.532-1.009-0.477c-0.563,0.075-0.958,0.592-0.883,1.155
			l0.013,0.095c0.239,1.792,0.493,3.649,0.665,5.45c0.182,1.811,0.263,3.615,0.284,5.409c0.039,0.899-0.026,1.791-0.021,2.69
			c-0.058,0.892-0.085,1.793-0.183,2.686c-0.122,1.806-0.463,3.572-0.69,5.452l-0.01,0.077c-0.046,0.389,0.132,0.787,0.489,1.003
			c0.487,0.296,1.121,0.141,1.416-0.346c1.043-1.716,1.869-3.606,2.311-5.584c0.299-0.978,0.374-1.99,0.551-2.993
			c0.079-1.008,0.169-2.023,0.135-3.034c-0.02-2.023-0.278-4.037-0.776-5.984C358.342,501.694,357.655,499.832,356.548,498.05z"/>
		<path style="fill:#04294F;" d="M368.351,504.602c-0.147-0.152-0.341-0.262-0.564-0.306c-0.584-0.115-1.15,0.265-1.265,0.849
			l-0.047,0.24c-0.149,0.759-0.154,1.539-0.185,2.255c-0.012,0.724-0.016,1.422-0.006,2.112l0.058,2.076
			c0.056,0.713,0.048,1.42,0.196,2.259l0.025,0.144c0.038,0.219,0.143,0.429,0.314,0.596c0.435,0.427,1.133,0.42,1.56-0.015
			c1.346-1.372,1.88-3.307,1.845-5.128c-0.016-0.919-0.171-1.828-0.477-2.687C369.485,506.132,369.075,505.347,368.351,504.602z"/>
	</g>
	<g>
		<path style="fill:#FFB400;" d="M597.509,624.206c-0.062,0.016-0.118,0.045-0.184,0.05c-0.46,0.029-0.868-0.249-1.024-0.658
			l-0.009-0.025c-0.96-2.526-1.873-5-2.942-7.377c-0.289-0.583-0.57-1.167-0.835-1.758l-0.912-1.702
			c-0.63-1.116-1.284-2.211-2.026-3.236c-1.44-2.077-3.122-3.954-5.056-5.514c-1.949-1.544-4.144-2.75-6.588-3.608l-0.035-0.012
			c-0.483-0.17-0.739-0.664-0.649-1.152c-5.023-0.821-10.694,0.018-16.682,2.402c-14.824,5.906-25.967,19.041-20.06,33.863
			c0.18,0.453,0.387,1.014,0.608,1.69c-10.664-9.054-24.256-15.047-39.642-17.269c-15.791-2.269-26.813,8.414-29.094,24.206
			c-0.944,6.538-0.238,12.922,2.03,18.325c-15.759-4.775-34.048-5.219-53.429-0.991c-15.59,3.401-22.362,18.716-18.96,34.307
			c3.401,15.589,15.686,25.55,31.277,22.149c16.708-3.647,26.961-0.601,30.983,3.464c1.814,1.833,2.775,4.326,3.211,7.015
			c0.099,0.32,0.19,0.642,0.281,0.977l0.265,1.361l0.152,1.369c0.072,0.914,0.065,1.829,0.046,2.742
			c-0.08,0.9-0.102,1.826-0.275,2.71c-0.354,2.362-0.986,4.659-1.819,6.863c-1.961,14.625,7.509,28.602,22.175,31.967
			c2.174,0.499,4.347,0.738,6.487,0.738c10.126,0,19.485-5.372,24.672-13.933c2.45-8.09,4.315-16.325,5.177-24.643
			c1.029-10.042,0.478-20.264-2.563-29.775c-2.944-9.531-8.413-18.179-15.548-25.246c-7.143-7.09-15.751-12.683-24.821-17.371
			l-0.011-0.006c-0.499-0.258-0.694-0.871-0.436-1.37c0.246-0.475,0.817-0.674,1.302-0.469c9.542,4.065,18.747,9.383,26.449,16.652
			c3.861,3.604,7.283,7.711,10.158,12.183c2.858,4.484,5.114,9.358,6.723,14.427c1.581,5.079,2.526,10.339,2.875,15.615
			c0.274,4.55,0.13,9.103-0.352,13.604c2.16,0.492,4.317,0.729,6.443,0.729c13.165,0,25.065-9.059,28.134-22.437
			c1.135-4.945,1.869-9.638,2.273-14.088c1.411,0.343,2.866,0.584,4.358,0.714c0.852,0.075,1.697,0.111,2.536,0.111
			c14.824,0,27.442-11.346,28.75-26.391C602.589,656.231,601.404,638.77,597.509,624.206z M436.703,691.955
			c-8.615,0.514-14.596-6.831-15.026-14.038c-0.43-7.207,4.852-11.546,13.468-12.06c8.615-0.514,11.123,6.228,11.553,13.435
			C447.128,686.498,445.319,691.44,436.703,691.955z M483.356,681c-0.126,1.299-0.444,2.59-0.959,3.801
			c-0.492,1.217-1.226,2.345-2.148,3.285c-0.409,0.417-1.079,0.424-1.496,0.015c-0.238-0.234-0.342-0.552-0.312-0.86l0.011-0.104
			c0.125-1.199,0.379-2.255,0.51-3.345c0.173-1.072,0.309-2.134,0.416-3.208c0.114-1.071,0.213-2.154,0.287-3.258
			c0.093-1.094,0.141-2.254,0.287-3.366l0.019-0.147c0.075-0.574,0.602-0.978,1.175-0.903c0.328,0.043,0.603,0.237,0.762,0.499
			c0.723,1.203,1.086,2.418,1.324,3.703C483.458,678.39,483.491,679.701,483.356,681z M491.278,676.702
			c0.929,2.04,1.416,4.114,1.694,6.261c0.279,2.137,0.298,4.314,0.07,6.471c-0.089,1.081-0.31,2.15-0.516,3.214
			c-0.309,1.046-0.512,2.115-0.946,3.121c-0.706,2.055-1.805,3.97-3.104,5.686c-0.343,0.453-0.988,0.542-1.441,0.199
			c-0.34-0.258-0.475-0.686-0.376-1.075l0.019-0.073c0.506-1.973,1.109-3.821,1.478-5.742c0.224-0.945,0.367-1.909,0.545-2.859
			c0.11-0.966,0.292-1.916,0.363-2.887c0.202-1.929,0.333-3.877,0.353-5.843c0.028-1.954-0.029-3.974-0.095-5.923l-0.003-0.091
			c-0.019-0.567,0.425-1.041,0.991-1.06C490.736,676.088,491.111,676.337,491.278,676.702z M517.167,647.609
			c-3.733,6.179-8.026,9.223-15.414,4.76c-7.387-4.463-8.146-13.904-4.413-20.084c3.733-6.179,10.545-6.757,17.932-2.294
			C522.66,634.454,520.901,641.43,517.167,647.609z M540.797,674.192c-1.513,1.558-3.324,2.824-5.229,3.823
			c-0.503,0.264-1.125,0.07-1.389-0.433c-0.198-0.378-0.138-0.823,0.118-1.133l0.049-0.058c1.298-1.57,2.63-2.985,3.782-4.567
			c0.605-0.759,1.145-1.571,1.71-2.355c0.511-0.827,1.08-1.61,1.557-2.458c1.004-1.66,1.952-3.366,2.807-5.137
			c0.858-1.756,1.666-3.608,2.436-5.4l0.036-0.083c0.224-0.521,0.828-0.761,1.348-0.538c0.392,0.169,0.625,0.554,0.621,0.956
			c-0.028,2.242-0.471,4.326-1.133,6.387c-0.657,2.053-1.567,4.031-2.692,5.885c-0.541,0.94-1.196,1.813-1.836,2.689
			C542.257,672.585,541.618,673.466,540.797,674.192z M566.619,695.672c-0.105,0.553-0.638,0.916-1.191,0.811
			c-0.498-0.094-0.842-0.536-0.829-1.027l0.001-0.022c0.13-4.986-0.348-9.946-1.257-14.824c-0.93-4.873-2.267-9.671-4.034-14.302
			c-1.736-4.643-3.907-9.118-6.46-13.365c-2.567-4.241-5.554-8.227-8.963-11.9l-0.006-0.006c-0.383-0.413-0.359-1.057,0.054-1.44
			c0.372-0.345,0.933-0.36,1.32-0.057c4.109,3.206,7.633,7.159,10.586,11.469c2.968,4.31,5.344,9.008,7.21,13.886
			c1.829,4.893,3.156,9.977,3.818,15.161C567.534,685.228,567.594,690.526,566.619,695.672z M565.271,633.785
			c-1.653-8.471,4.834-15.373,11.92-16.756c7.086-1.383,12.087,3.277,13.74,11.748c1.653,8.471-4.697,11.851-11.783,13.234
			S566.924,642.256,565.271,633.785z M592.231,669.834c-0.263,0.888-0.692,1.522-1.228,2.119c-0.536,0.581-1.177,1.057-1.884,1.421
			c-1.399,0.721-3.13,1.028-4.71,0.402c-0.581-0.23-0.865-0.888-0.635-1.469c0.069-0.174,0.176-0.321,0.308-0.436l0.138-0.118
			c0.565-0.489,1.08-0.775,1.577-1.102c0.501-0.297,0.99-0.57,1.494-0.832c0.505-0.258,1.027-0.498,1.583-0.734
			c0.557-0.216,1.164-0.475,1.827-0.586l0.304-0.051c0.595-0.1,1.158,0.301,1.258,0.896
			C592.289,669.51,592.276,669.681,592.231,669.834z M594.231,655.017c-0.676,1.524-1.599,2.762-2.681,3.912
			c-1.074,1.144-2.305,2.148-3.648,2.983c-1.333,0.85-2.798,1.508-4.325,1.947c-1.512,0.478-3.125,0.65-4.701,0.559
			c-0.575-0.033-1.014-0.526-0.982-1.101c0.021-0.375,0.239-0.693,0.547-0.859l0.078-0.042c1.293-0.693,2.547-1.214,3.746-1.877
			c1.209-0.621,2.373-1.302,3.519-2.021c1.147-0.716,2.289-1.46,3.412-2.263l3.397-2.443l0.082-0.059
			c0.465-0.335,1.114-0.229,1.449,0.237C594.348,654.3,594.375,654.692,594.231,655.017z"/>
		<path style="fill:#FF3A00;" d="M435.145,665.857c-8.615,0.514-13.898,4.853-13.468,12.06c0.43,7.207,6.411,14.552,15.026,14.038
			c8.615-0.514,10.425-5.456,9.995-12.663C446.268,672.085,443.761,665.342,435.145,665.857z"/>
		<path style="fill:#FF3A00;" d="M515.273,629.991c-7.387-4.463-14.199-3.886-17.932,2.294c-3.733,6.179-2.974,15.621,4.413,20.084
			c7.387,4.463,11.681,1.419,15.414-4.76C520.901,641.43,522.66,634.454,515.273,629.991z"/>
		<path style="fill:#FF3A00;" d="M590.931,628.778c-1.653-8.471-6.654-13.131-13.74-11.748c-7.086,1.383-13.573,8.285-11.92,16.756
			c1.653,8.471,6.791,9.609,13.877,8.226S592.584,637.249,590.931,628.778z"/>
		<path style="fill:#04294F;" d="M528.779,723.166c-0.349-5.276-1.294-10.536-2.875-15.615c-1.609-5.069-3.865-9.943-6.723-14.427
			c-2.875-4.472-6.297-8.579-10.158-12.183c-7.702-7.268-16.907-12.586-26.449-16.652c-0.485-0.205-1.056-0.007-1.302,0.469
			c-0.258,0.499-0.062,1.112,0.436,1.37l0.011,0.006c9.071,4.688,17.678,10.281,24.821,17.371
			c7.135,7.067,12.604,15.715,15.548,25.246c3.041,9.511,3.592,19.733,2.563,29.775c-0.861,8.318-2.727,16.553-5.177,24.643
			c-0.515,1.699-1.046,3.394-1.609,5.08c-0.166,0.5,0.077,1.058,0.571,1.264c0.518,0.217,1.114-0.028,1.331-0.546
			c3.999-9.56,7.076-19.614,8.422-30.033c0.096-0.718,0.16-1.442,0.237-2.163C528.908,732.269,529.053,727.716,528.779,723.166z"/>
		<path style="fill:#04294F;" d="M563.05,664.895c-1.866-4.878-4.242-9.576-7.21-13.886c-2.953-4.31-6.476-8.262-10.586-11.469
			c-0.387-0.303-0.948-0.289-1.32,0.057c-0.413,0.383-0.437,1.028-0.054,1.44l0.006,0.006c3.41,3.673,6.396,7.659,8.963,11.9
			c2.553,4.247,4.724,8.722,6.46,13.365c1.767,4.631,3.104,9.429,4.034,14.302c0.909,4.878,1.387,9.838,1.257,14.824l-0.001,0.022
			c-0.013,0.491,0.331,0.933,0.829,1.027c0.553,0.105,1.086-0.259,1.191-0.811c0.975-5.146,0.915-10.444,0.249-15.616
			C566.206,674.872,564.88,669.787,563.05,664.895z"/>
		<path style="fill:#04294F;" d="M577.897,600.366l0.035,0.012c2.444,0.859,4.639,2.064,6.588,3.608
			c1.934,1.56,3.616,3.437,5.056,5.514c0.742,1.025,1.396,2.12,2.026,3.236l0.912,1.702c0.264,0.59,0.545,1.174,0.835,1.758
			c1.069,2.377,1.982,4.85,2.942,7.377l0.009,0.025c0.156,0.409,0.564,0.687,1.024,0.658c0.066-0.004,0.122-0.034,0.184-0.05
			c0.467-0.121,0.806-0.54,0.774-1.039c-0.178-2.791-0.724-5.57-1.61-8.27c-0.873-2.706-2.174-5.302-3.824-7.696
			c-1.686-2.362-3.753-4.534-6.265-6.119c-2.493-1.588-5.395-2.604-8.308-2.709c-0.436-0.015-0.852,0.251-1.004,0.685
			c-0.018,0.051-0.012,0.103-0.022,0.155C577.159,599.702,577.415,600.196,577.897,600.366z"/>
		<path style="fill:#04294F;" d="M489.318,677.162l0.003,0.091c0.066,1.949,0.123,3.969,0.095,5.923
			c-0.02,1.966-0.151,3.914-0.353,5.843c-0.071,0.97-0.253,1.921-0.363,2.887c-0.178,0.95-0.321,1.915-0.545,2.859
			c-0.368,1.921-0.971,3.769-1.478,5.742l-0.019,0.073c-0.099,0.389,0.036,0.817,0.376,1.075c0.453,0.343,1.098,0.254,1.441-0.199
			c1.298-1.715,2.398-3.631,3.104-5.686c0.433-1.006,0.637-2.075,0.946-3.121c0.206-1.065,0.427-2.133,0.516-3.214
			c0.229-2.157,0.21-4.334-0.07-6.471c-0.278-2.147-0.764-4.221-1.694-6.261c-0.167-0.366-0.542-0.615-0.969-0.6
			C489.743,676.121,489.299,676.596,489.318,677.162z"/>
		<path style="fill:#04294F;" d="M481.909,673.411c-0.159-0.262-0.434-0.456-0.762-0.499c-0.574-0.075-1.1,0.329-1.175,0.903
			l-0.019,0.147c-0.146,1.112-0.194,2.272-0.287,3.366c-0.075,1.104-0.173,2.186-0.287,3.258c-0.107,1.074-0.243,2.136-0.416,3.208
			c-0.132,1.09-0.385,2.145-0.51,3.345l-0.011,0.104c-0.03,0.308,0.074,0.626,0.312,0.86c0.417,0.409,1.087,0.403,1.496-0.015
			c0.922-0.94,1.656-2.068,2.148-3.285c0.515-1.212,0.833-2.502,0.959-3.801c0.136-1.299,0.102-2.61-0.123-3.887
			C482.995,675.828,482.631,674.613,481.909,673.411z"/>
		<path style="fill:#04294F;" d="M544.817,669.081c1.125-1.854,2.035-3.832,2.692-5.885c0.663-2.061,1.105-4.145,1.133-6.387
			c0.005-0.402-0.229-0.787-0.621-0.956c-0.521-0.224-1.124,0.017-1.348,0.538l-0.036,0.083c-0.77,1.791-1.578,3.644-2.436,5.4
			c-0.855,1.771-1.803,3.477-2.807,5.137c-0.478,0.848-1.047,1.63-1.557,2.458c-0.565,0.784-1.105,1.596-1.71,2.355
			c-1.151,1.582-2.484,2.997-3.782,4.567l-0.049,0.058c-0.256,0.31-0.316,0.755-0.118,1.133c0.264,0.503,0.886,0.697,1.389,0.433
			c1.905-0.999,3.715-2.265,5.229-3.823c0.82-0.726,1.46-1.607,2.185-2.422C543.621,670.894,544.276,670.022,544.817,669.081z"/>
		<path style="fill:#04294F;" d="M592.676,653.754l-0.082,0.059l-3.397,2.443c-1.123,0.803-2.265,1.547-3.412,2.263
			c-1.147,0.72-2.31,1.401-3.519,2.021c-1.199,0.662-2.453,1.184-3.746,1.877l-0.078,0.042c-0.308,0.166-0.525,0.484-0.547,0.859
			c-0.033,0.575,0.406,1.068,0.982,1.101c1.576,0.09,3.189-0.081,4.701-0.559c1.528-0.439,2.992-1.097,4.325-1.947
			c1.343-0.835,2.574-1.838,3.648-2.983c1.082-1.15,2.005-2.388,2.681-3.912c0.143-0.325,0.116-0.718-0.106-1.027
			C593.79,653.525,593.141,653.419,592.676,653.754z"/>
		<path style="fill:#04294F;" d="M591.004,668.446l-0.304,0.051c-0.663,0.111-1.271,0.371-1.827,0.586
			c-0.555,0.236-1.078,0.476-1.583,0.734c-0.504,0.262-0.992,0.534-1.494,0.832c-0.497,0.328-1.012,0.614-1.577,1.102l-0.138,0.118
			c-0.132,0.115-0.239,0.262-0.308,0.436c-0.23,0.581,0.054,1.239,0.635,1.469c1.58,0.626,3.311,0.32,4.71-0.402
			c0.707-0.364,1.349-0.841,1.884-1.421c0.536-0.597,0.965-1.231,1.228-2.119c0.045-0.153,0.058-0.323,0.03-0.491
			C592.161,668.748,591.598,668.346,591.004,668.446z"/>
		<path style="fill:#04294F;" d="M468.235,734.823c0.019-0.913,0.026-1.827-0.046-2.742l-0.152-1.369l-0.265-1.361
			c-0.091-0.335-0.182-0.657-0.281-0.977c-0.173-0.563-0.378-1.121-0.707-1.736c-0.213-0.399-0.677-0.619-1.136-0.506
			c-0.543,0.134-0.875,0.683-0.742,1.227l0.033,0.133c0.152,0.617,0.23,1.494,0.288,2.248l0.028,1.189l-0.058,1.196
			c-0.102,1.593-0.362,3.18-0.736,4.748c-0.77,3.129-1.888,6.208-3.373,9.148l-0.513,1.121l-0.589,1.091l-1.183,2.182
			c-0.833,1.437-1.723,2.846-2.581,4.281l-2.785,4.203c-0.973,1.38-1.953,2.76-2.872,4.206l-0.031,0.048
			c-0.243,0.383-0.208,0.896,0.116,1.243c0.384,0.412,1.03,0.435,1.443,0.05c1.27-1.184,2.479-2.435,3.695-3.686
			c1.163-1.296,2.258-2.661,3.359-4.021c1.055-1.399,2.025-2.867,3.003-4.331l1.318-2.301l0.65-1.157l0.577-1.203
			c0.533-1.088,1.016-2.209,1.448-3.352c0.833-2.204,1.464-4.501,1.819-6.863C468.133,736.649,468.155,735.723,468.235,734.823z"/>
	</g>
</g>
</svg>
