<?xml version="1.0" encoding="UTF-8"?><svg version="1.1" xmlns="http://www.w3.org/2000/svg" xmlns:xlink="http://www.w3.org/1999/xlink" viewBox="0 0 1200 800" width="1200" height="800" x="0px" y="0px">
              
              <!-- ITEM 0 -->
<g transform="translate(458.0 56.0) scale(1.3327922329924844 1.3319909362179263) rotate(0.0 225.4665 192.19349999999997)">
<g transform="translate(-0.0 -0.0)">
<title>display_monitor</title><g id="Layer_2-i0" data-name="Layer 2"><g id="display_monitor-i0"><path d="M.577,25.587h0a10.737,10.737,0,0,1,10.6-7c44.6,2.3,205.7,13.3,392.2,59.9a10.753,10.753,0,0,1,8.1,9.5c2.6,32.6,11.5,163.8.5,286.7a10.629,10.629,0,0,1-9.1,9.6c-.9,0-1.7.1-2.6.1a7.719,7.719,0,0,1-1.5-.2c-164.5-38.8-344.4-58.8-389.2-63.5a10.634,10.634,0,0,1-9.5-11.6c10.7-117.9,2.9-240.8,0-279A9.951,9.951,0,0,1,.577,25.587Zm393.1,321.9c6.6-98.1,1.7-196.4-1.4-241.9a12.473,12.473,0,0,0-9.4-11.2c-152.2-36.7-285.4-49.6-347.7-54a12.4,12.4,0,0,0-13.2,11.5v1.6c3,49,6.8,142.6,0,236a12.392,12.392,0,0,0,11,13.2c64.5,7.2,207.3,25.1,345.7,55.9a12.374,12.374,0,0,0,14.8-9.4A8.807,8.807,0,0,0,393.677,347.487Z" fill="#fdb813"/><path d="M185.177,331.687a38.61,38.61,0,0,1,7.6-.1c2.5.2,5,.4,7.5.8s4.9.9,7.4,1.5a43.45,43.45,0,0,1,7.2,2.4,2.533,2.533,0,0,1,1.3,3.3,2.584,2.584,0,0,1-2,1.5h0a48.221,48.221,0,0,1-7.6.1c-2.5-.2-5-.5-7.5-.8a64.686,64.686,0,0,1-7.4-1.5,36.1,36.1,0,0,1-7.2-2.5h0a2.429,2.429,0,0,1-1.2-3.2,2.389,2.389,0,0,1,1.9-1.5Z" fill="#10294c"/><path d="M445.277,69.487c2.5,32.6,11.2,165.2.3,288.1-1.4,15.8-20.5,25.7-42.7,26.8a10.729,10.729,0,0,0,9.1-9.6c10.9-122.9,2-254.1-.5-286.7a10.648,10.648,0,0,0-8.1-9.5c-186.5-46.6-347.6-57.6-392.2-59.9a10.874,10.874,0,0,0-10.6,6.9c6.1-20.5,28.7-26.4,44.5-25.5,44.6,2.3,205.7,13.3,392.1,59.9A10.528,10.528,0,0,1,445.277,69.487Z" fill="#10294c"/><path d="M392.277,105.587c3.1,45.4,8,143.7,1.4,241.9a12.4,12.4,0,0,1-13.2,11.5,5.663,5.663,0,0,1-1.8-.3c-138.4-30.8-281.1-48.7-345.7-55.9a12.33,12.33,0,0,1-11-13.2c6.8-93.4,3-187,0-236a12.4,12.4,0,0,1,11.6-13.1h1.6c62.2,4.4,195.4,17.3,347.7,54A12.459,12.459,0,0,1,392.277,105.587Z" fill="#10294c"/><path d="M417.077,75.487a14.517,14.517,0,0,1,3.6-3.8,24.251,24.251,0,0,1,4.4-2.6,21.336,21.336,0,0,1,4.9-1.5,15.135,15.135,0,0,1,5.2,0,2.666,2.666,0,0,1,2.1,3,2.748,2.748,0,0,1-1,1.6l-.2.1a25,25,0,0,1-3.9,2.3,33.894,33.894,0,0,1-3.9,1.8c-1.3.5-2.7,1.1-4.1,1.6a31.66,31.66,0,0,1-4.4,1.2l-.3.1a2.471,2.471,0,0,1-2.8-2,3.425,3.425,0,0,1,.4-1.8Z" fill="#fdb813"/><path d="M435.777,315.987a24.736,24.736,0,0,0-4.6,1.5,3.059,3.059,0,0,1-4-1.7,2.4,2.4,0,0,1-.2-1.4,132.794,132.794,0,0,0,.4-14.1,3.192,3.192,0,0,1,1.6-2.8,33.677,33.677,0,0,1,5.9-2.5,3.121,3.121,0,0,1,3.9,2.1,2.769,2.769,0,0,1,.1.9c0,5.2-.2,10.3-.7,15.5A3.219,3.219,0,0,1,435.777,315.987Z" fill="#f04e23"/><path d="M434.877,339.587a38.8,38.8,0,0,0-4.5,1.4,3.17,3.17,0,0,1-4.1-1.8,2.3,2.3,0,0,1-.2-1.4,23.479,23.479,0,0,0,0-5.3,3.124,3.124,0,0,1,1.6-3,30.413,30.413,0,0,1,5.9-2.4,3.158,3.158,0,0,1,3.9,2.1,2.2,2.2,0,0,1,.1.8,54.767,54.767,0,0,1-.4,7A2.865,2.865,0,0,1,434.877,339.587Z" fill="#fdb813"/></g></g>
</g>
</g>

<!-- ITEM 1 -->
<g transform="translate(652.0 180.0) scale(2.1837861788489232 2.1851525071532825) rotate(0.0 31.5965 60.6365)">
<g transform="translate(-0.0 -0.0)">
<title>spaceship</title><g id="Layer_2-i1" data-name="Layer 2"><g id="spaceship-i1"><path d="M30.7,77.645c-4,6.6-10.2,10.2-10.9,9.9s-2.2-7.4.3-14.7l-2.1-.9c-.2-.1-.3-.2-.5-.2a20.619,20.619,0,0,0-1.2,2.6c-5.4,11.9-3.1,24.6-1.8,25.1,1.2.5,12.3-6,17.8-17.9.4-.8.8-1.8,1.2-2.6-.2-.1-.3-.1-.5-.2Z" fill="#f04e23"/><path d="M19.7,87.445c.8.4,6.9-3.2,10.9-9.9L20,72.645C17.6,80.045,19,87.145,19.7,87.445Z" fill="#ffb400"/><path d="M27.8,69.745c-4-1.8-7.7-3.3-10-5.8l-1.5,3.5a3.353,3.353,0,0,0,1.2,4.2c.2.1.3.2.5.2l2.1.9,10.6,4.9,2.1.9c.2.1.3.2.5.2a3.261,3.261,0,0,0,3.9-1.8l1.5-3.5C35.4,73.345,31.8,71.545,27.8,69.745Z" fill="#fff"/><path d="M31.3,25.645c-7.1-2.7-20.6,12.1-24,19.6-3.2,7.1,1.8,9.5,8.3,12.4,0-2.7.9-6.1,2.9-10.6A140.717,140.717,0,0,1,31.3,25.645Z" fill="#fff"/><path d="M58.9,38.345a149.309,149.309,0,0,1-7.8,23.7c-2,4.5-4,7.4-6.1,9.2,6.5,3,11.6,5.2,14.8-1.8C63.3,61.745,65.6,41.845,58.9,38.345Z" fill="#fff"/><path d="M51.1,61.845a149.309,149.309,0,0,0,7.8-23.7c4.2-16.9,6.3-35.1.5-37.8s-18.2,10.9-28.1,25.1a149.5,149.5,0,0,0-12.8,21.4c-2,4.5-2.9,7.9-2.9,10.6a8.655,8.655,0,0,0,2.3,6.3c2.3,2.5,6,4,10,5.8s7.6,3.6,10.9,3.8a8.514,8.514,0,0,0,6.2-2.4C47,69.245,49,66.345,51.1,61.845Zm-8.6-44a8.469,8.469,0,0,1,15.6,6.6l-.2.4c-1.9,4.2-5.8,3.5-10.1,1.6S40.6,22.045,42.5,17.845Zm-13.6,47.1a3.361,3.361,0,0,1-1.1-2.8,32.6,32.6,0,0,1,2.3-8.1c1.1-2.5,2.4-5,3.6-7.5s2.6-4.9,4-7.2c1.4-2.4,2.9-4.8,4.5-7a2.365,2.365,0,0,1,3.2-.5,2.09,2.09,0,0,1,.8,2.3c-.6,2.8-1.5,5.4-2.3,8a82.136,82.136,0,0,1-2.9,7.8c-1.1,2.6-2,5.2-3.2,7.6a32.567,32.567,0,0,1-4.6,7,2.673,2.673,0,0,1-4.3.4Z" fill="#00aee0"/><path d="M47.9,26.545c4.2,1.9,8.1,2.6,10.1-1.6a8.453,8.453,0,1,0-15.2-7.4l-.2.4C40.6,22.045,43.6,24.545,47.9,26.545Z" fill="#04294f"/><path d="M33.4,64.745a35.229,35.229,0,0,0,4.6-7c1.2-2.5,2.2-5.1,3.2-7.6s1.9-5.2,2.9-7.8a73.161,73.161,0,0,0,2.3-8,2.44,2.44,0,0,0-1.8-2.8,2.474,2.474,0,0,0-2.3.8,75.384,75.384,0,0,0-4.5,7c-1.3,2.4-2.8,4.8-4,7.2-1.2,2.5-2.5,4.9-3.6,7.5a27.913,27.913,0,0,0-2.3,8.1,2.8,2.8,0,0,0,1.1,2.8,2.9,2.9,0,0,0,4.4-.2Z" fill="#fff"/><path d="M6.5,105.045a13.388,13.388,0,0,0-2.7,3.1,14.79,14.79,0,0,0-1.9,3.5c-.5,1.2-1,2.5-1.4,3.8a13.974,13.974,0,0,0-.5,4.1,2.1,2.1,0,0,0,.4,1.1,1.749,1.749,0,0,0,2.5.2h0a13.807,13.807,0,0,0,2.8-3.1,14.79,14.79,0,0,0,1.9-3.5c.5-1.2,1-2.5,1.4-3.8a13.974,13.974,0,0,0,.5-4.1,1.774,1.774,0,0,0-1.8-1.7,2.144,2.144,0,0,0-1.2.4Z" fill="#f04e23"/><path d="M21.4,104.745a3.805,3.805,0,0,0-1.5.5,3.044,3.044,0,0,0-.8.8,2.537,2.537,0,0,0-.2,1.2,3.946,3.946,0,0,0,.6,1.5,3.223,3.223,0,0,0,2.9,1.3,2.7,2.7,0,0,0,1.5-.5,3.044,3.044,0,0,0,.8-.8,2.537,2.537,0,0,0,.2-1.2,3.946,3.946,0,0,0-.6-1.5A3.013,3.013,0,0,0,21.4,104.745Z" fill="#f04e23"/><path d="M.6,93.745a2.17,2.17,0,0,0,2.8,1.1h0a4.5,4.5,0,0,0,1.9-1.4,7.729,7.729,0,0,0,1.7-3.8,6.522,6.522,0,0,0-.2-2.4l-.1-.2a2.17,2.17,0,0,0-2.8-1.1,4.5,4.5,0,0,0-1.9,1.4,8.913,8.913,0,0,0-1.8,3.8,6.522,6.522,0,0,0,.2,2.4C.6,93.645.6,93.745.6,93.745Z" fill="#f04e23"/></g></g>
</g>
</g>

<!-- ITEM 2 -->
<g transform="translate(122.0 361.0) scale(0.2374396823830109 0.23694983949610246) rotate(0.0 724.3945000000001 844.0604999999999)">
<g transform="translate(-0.0 -0.0)">

<g>
	<path style="fill:#FFB400;" d="M916.784,995.557c-1.987-19.306-1.866-43.273,14.049-52.675c13.524-7.99,30.143-0.119,43.757,7.695   c55.235,31.701,110.471,63.402,165.706,95.103c12.757,7.321,25.701,14.789,36.029,25.63c10.328,10.841,17.867,25.714,17.042,41.155   c-0.814,15.241-9.666,28.959-20.837,38.484c-11.172,9.525-24.567,15.502-37.768,21.359c-44.845,19.896-89.69,39.792-134.537,59.688   c-20.877,9.262-47.238,15.362-62.487-8.019c-9.209-14.121-4.26-30.567-3.761-46.484   C935.842,1117.941,922.878,1054.777,916.784,995.557z"/>
	<path style="fill:#FFB400;" d="M210.897,1317.028c36.803,0,74.216-20.505,191.763-222.755   c131.716-226.629,149.149-412.581,149.149-412.581s-43.36-41.207-103.56,14.193c-142.439,131.081-254.785,568.843-340.013,605.646   C143.102,1315.091,210.897,1317.028,210.897,1317.028z"/>
	<path style="fill:#00AEE0;" d="M586.805,666.957c-66.983,2.828-140.049,28.164-169.719,87.329   c-16.388,32.678-16.987,71.067-10.804,106.997c6.183,35.93,18.693,70.475,27.566,105.855   c17.317,69.044,20.638,141.459,9.712,211.757c-4.891,31.469-12.628,63.024-9.829,94.74c4.349,49.267,35.982,95.368,80.795,117.747   c44.813,22.379,101.299,20.285,144.274-5.35c51.552,41.903,124.595,56.72,188.785,38.294   c64.189-18.425,117.682-69.564,138.256-132.171c22.748-69.221,6.328-144.311-10.222-215.215   c-11.601-49.703-23.203-99.406-34.804-149.109c-9.087-38.929-12.743-86.863-32.245-122.42   c-13.608-24.811-42.141-42.631-64.475-59.103c-35.036-25.839-74.353-45.983-115.905-59.55   C681.832,671.62,635.349,666.957,586.805,666.957z"/>
	<path style="fill:#FFB400;" d="M1437.361,911.868c-1.883-4.401-3.642-9.177-7.537-11.96c-3.895-2.783-10.237-2.656-12.687,1.457   c1.983-9.636-2.515-20.276-10.808-25.568c-8.293-5.292-19.837-4.89-27.742,0.967c-1.621-12.128-10.675-22.951-22.328-26.686   c-11.652-3.736-25.311-0.196-33.682,8.729c0.633-10.75-14.213-17.256-23.594-11.968c-9.381,5.288-12.797,17.468-11.667,28.177   c1.131,10.709,5.798,20.674,8.855,31c7.741,26.155,1.802,46.423-5.137,69.119c-2.082,6.81-6.719,12.532-12.906,16.057   c-0.032,0.018-0.064,0.036-0.095,0.054c-34.541,19.686-69.082,39.372-103.623,59.057   c-59.432,33.872-118.109,72.419-179.642,102.267c-16.765,8.133-37.001,6.62-52.96,15.425   c-21.528,11.878-30.738,42.55-31.972,65.356c-1.64,30.312,7.743,60.013,17.016,88.918c5.421,16.898,14.705,36.954,32.427,37.881   c7.553,0.396,14.711-3.066,21.473-6.455c116.935-58.616,384.228-208.349,395.523-215.429   c27.445-17.202,56.895-36.918,66.517-67.846C1445.973,1060.202,1457.083,957.975,1437.361,911.868z"/>
	<path style="fill:#FFB400;" d="M9.378,1233.223c-5.334-6.77-10.551-14.852-9.146-23.355c2.18-13.197,18.052-18.552,31.299-20.411   c53.161-7.458,108.214-0.99,158.2,18.585c22.582,8.844,45.364,21.482,56.972,42.775c10.688,19.605,7.305,52.112-12.942,65.24   c-19.227,12.466-56.469,6.145-77.714,2.581C99.067,1309.078,45.263,1278.767,9.378,1233.223z"/>
	<path style="fill:#FFB400;" d="M768.057,953.692c-12.976-35.069-17.288-74.416-5.539-109.915   c11.748-35.499,41.385-66.118,78.142-72.984c37.862-7.073,59.576,21.845,85.507,50.325c25.93,28.481,59.401,74.015,76.164,107.598   c47.21,94.578,29.836,192.406,42.318,297.373c12.482,104.967,31.659,211.616,83.537,303.717   c9.961,17.684,21.513,37.124,16.998,56.912c-3.746,16.414-18.534,28.845-34.837,33.048s-33.749,1.213-49.458-4.843   c-33.998-13.108-61.329-39.984-81.01-70.65c-19.68-30.666-32.437-65.183-44.339-99.622   c-30.543-88.376-56.474-178.345-77.665-269.417c-8.714-37.449-9.472-90.939-29.269-123.763   C808.384,1017.947,782.259,992.074,768.057,953.692z"/>
	<path style="fill:#FFB400;" d="M1191.994,1486.067c20.314,7.676,32.975,27.519,44.188,46.117c3.31,5.489,6.749,11.799,5.043,17.978   c-2.271,8.227-12.12,11.42-20.575,12.582c-33.898,4.659-69.303-2.488-98.74-19.93   C1061.101,1506.783,1159.649,1473.845,1191.994,1486.067z"/>
	<path style="fill:#FFB400;" d="M1281.999,1688.075c-5.054,0.326-10.244-1.099-14.592-4.407   c-43.104-32.804-98.892-55.243-157.083-63.177c-11.924-1.625-20.273-12.611-18.647-24.535   c1.625-11.924,12.614-20.264,24.535-18.647c65.525,8.933,128.593,34.391,177.591,71.681c9.577,7.287,11.431,20.96,4.141,30.537   C1293.966,1684.756,1288.081,1687.683,1281.999,1688.075z"/>
	<path style="fill:#FFB400;" d="M1332.691,1643.733c-3.965,0.615-8.141,0.143-12.085-1.589   c-46.724-20.529-100.002-30.532-154.076-28.932c-12.03,0.355-22.069-9.108-22.427-21.138c-0.352-12.031,9.146-22.066,21.138-22.427   c60.5-1.79,120.288,9.481,172.894,32.595c11.018,4.841,16.027,17.697,11.186,28.716   C1346.213,1638.032,1339.799,1642.63,1332.691,1643.733z"/>
	<path style="fill:#FFB400;" d="M1358.031,1599.957c-3.067,0.353-6.257,0.057-9.379-0.986   c-59.606-19.912-127.167-21.964-190.205-5.785c-11.643,2.993-23.532-4.031-26.524-15.688c-2.992-11.657,4.034-23.533,15.691-26.524   c71.07-18.236,147.374-15.873,214.842,6.659c11.417,3.813,17.578,16.157,13.767,27.572   C1373.453,1593.496,1366.18,1599.02,1358.031,1599.957z"/>
	<path style="fill:#FFB400;" d="M1142.584,1581.078c-8.705,1.158-17.615-3.052-22.042-11.236   c-5.731-10.584-1.791-23.806,8.793-29.534c68.427-37.034,154.746-49.167,230.89-32.464c11.756,2.58,19.193,14.2,16.615,25.955   c-2.578,11.755-14.2,19.193-25.955,16.615c-66.234-14.529-141.297-3.98-200.81,28.221   C1147.676,1579.937,1145.138,1580.739,1142.584,1581.078z"/>
	<path style="fill:#FFB400;" d="M1212.986,1520.058c8.498,0.885,17.477,2.142,24.021,7.166c8.296,6.37,10.564,17.548,8.22,27.205   s-8.534,18.127-14.91,26.128c-12.996,16.306-28.133,32.321-48.564,40.009c-20.816,7.833-44.282,6.001-66.696,4.038   c-19.615-1.718-40.669-3.985-55.379-15.944c-15.027-12.217-19.88-32.88-14.515-50.576c3.937-12.985,12.943-24.997,24.317-33.55   c9.922-7.461,18.492-5.337,30.485-5.857C1137.924,1517.029,1175.098,1516.111,1212.986,1520.058z"/>
	<path style="fill:#FFB400;" d="M562.156,478.478c-5.587-40.199-17.719-79.342-22.025-119.698s0.208-83.841,24.531-116.331   c25.539-34.114,70.039-50.811,112.626-49.283c42.587,1.529,83.26,19.39,118.378,43.53c50.3,34.577,92.182,84.521,106.723,143.802   S900.111,508.32,852.65,546.7c-14.196,11.479-30.531,20.017-45.216,30.864c-14.685,10.846-28.158,24.815-33.005,42.416   c-3.949,14.341-1.797,29.535-1.302,44.401c0.494,14.867-1.182,30.968-11.038,42.109c-12.564,14.204-33.816,15.714-52.773,16.208   c-30.781,0.803-61.724,1.597-92.228-2.601c-19.147-2.635-52.33-5.371-66.238-20.743c-12.849-14.201-4.106-34.884-0.108-50.886   C564.578,593.085,570.041,535.215,562.156,478.478z"/>
	
		<ellipse transform="matrix(0.74 -0.6726 0.6726 0.74 0.8007 654.8149)" style="fill:#04294F;" cx="847.371" cy="326.372" rx="13.886" ry="27.773"/>
	<path style="fill:#04294F;" d="M836.335,446.71c-2.127-1.625-1.631-6.643,2.353-12.968c1.959-3.169,4.869-6.5,8.535-9.744   c3.71-3.17,8.219-6.186,13.328-8.59c5.125-2.372,10.335-3.864,15.14-4.666c4.827-0.744,9.245-0.804,12.921-0.298   c7.388,0.99,11.566,3.79,11.47,6.467c-0.086,2.818-4.101,5.078-9.822,7.552c-5.763,2.467-13.271,5.334-21.284,9.043   c-3.995,1.887-7.735,3.795-11.205,5.561c-3.522,1.848-6.695,3.512-9.364,4.912C842.856,446.778,838.566,448.435,836.335,446.71z"/>
	<path style="fill:#F04E23;" d="M864.206,132.294c-5.563-43.31-33.447-81.663-69.063-106.924   C774.127,10.465,749.3-0.683,723.545,0.033c-18.521,0.515-37.364,8.286-49.82,21.595c-5.055,5.401-2.87,14.543,4.196,16.732   c10.233,3.171,19.216,13.394,20.393,24.565c1.767,16.757-8.645,32.475-20.876,44.066c-36.704,34.784-90.955,45.667-128.562,79.472   c-38.823,34.899-54.324,90.155-52.169,142.314c2.156,52.159,19.822,102.305,38.273,151.139   c13.163,34.84,37.171,70.363,79.425,69.178c35.677-1.001,72.301-26.783,84.793-59.952c6.622-17.583,7.488-36.158,6.157-54.984   c-4.724,0.329-9.662-0.575-14.183-2.492c-11.867-5.033-21.992-16.717-25.239-30.673c-3.247-13.955,1.062-29.662,11.155-37.286   c21.29-16.082,39.151,12.42,48.614,33.945c0.714,1.623,0.675,3.492,0.871,5.268c9.424-4.721,18.847-9.441,28.271-14.161   c-11.342-22.141-22.891-44.969-25.2-69.738c-1.188-12.749,0.554-26.006,5.57-37.824c1.325-3.122,6.79-9.425,11.505-15.475   c20.644-8.562,44.373-11.842,64.387-22.382C849.741,222.994,869.769,175.604,864.206,132.294z"/>
	
		<ellipse transform="matrix(0.8145 -0.5802 0.5802 0.8145 -101.4387 476.2313)" style="fill:#04294F;" cx="693.936" cy="396.729" rx="8.817" ry="14.107"/>
	<path style="fill:#04294F;" d="M789.31,225.985c-0.467-0.938,0.665-2.661,2.789-4.966c2.025-2.475,5.004-5.66,7.938-10.041   c2.932-4.36,5.778-9.923,7.666-16.409c1.06-3.208,1.575-6.71,2.045-10.283c0.045-1.799,0.323-3.629,0.194-5.471   c-0.023-0.921-0.047-1.848-0.071-2.782c-0.166-1.379-0.091-0.757-0.095-0.793c-0.011,0.035,0.078-0.101,0.058-0.239   c-0.014-0.052-0.056-0.097-0.147-0.119c-0.045-0.011-0.103-0.016-0.173-0.013l-0.027,0.001l-0.286,0.204l-0.596,0.426l-1.182,0.842   c-6.275,4.453-12.055,8.3-17.042,11.361c-9.975,6.121-16.784,9.095-18.061,7.47c-1.278-1.625,3.217-7.541,11.517-15.792   c4.15-4.125,9.252-8.835,15.058-13.883c0.822-0.702,1.654-1.414,2.495-2.133c1.49-1.221,2.996-2.456,4.519-3.704   c1.517-1.2,3.143-2.648,4.647-3.696c1.505-1.029,3.024-2.067,4.557-3.115l2.324-1.577c0.385-0.25,0.791-0.56,1.162-0.761   l0.456,1.398c0.609,1.881,1.224,3.778,1.842,5.688c0.634,1.926,1.13,3.818,1.705,5.758c0.556,1.934,1.156,3.844,1.528,5.99   c0.333,2.11,0.573,4.965,0.664,5.751c0.014,1.256,0.028,2.503,0.043,3.741c0.076,2.481-0.318,4.887-0.533,7.254   c-0.809,4.677-1.873,9.14-3.607,13.108c-3.239,8.02-7.939,14.361-12.672,18.724c-4.745,4.395-9.435,6.801-12.76,7.986   C791.812,226.935,789.759,226.896,789.31,225.985z"/>
	<path style="fill:#04294F;" d="M747.03,89.657c-1.927,0.506-4.413-3.755-9.409-8.88c-1.258-1.275-2.657-2.613-4.257-3.912   c-0.787-0.663-1.623-1.31-2.513-1.936c-0.426-0.334-0.889-0.633-1.357-0.934c-0.426-0.269-1.091-0.757-1.029-0.626   c-0.774-0.029-0.83,0.39-0.607,0.672c0.073,0.106,0.101,0.12,0.101,0.12l-0.01-0.001l-0.004,0.007c0,0.022-0.008-0.09,0.013,0.262   l0.081,1.471c0.006,1.954,0.047,3.883-0.103,5.765c-0.209,3.772-0.793,7.371-1.569,10.731c-1.548,6.731-4.124,12.433-6.806,16.825   c-5.508,8.821-11.143,12.25-12.641,11.013c-1.703-1.332,0.621-6.819,2.97-15.321c1.142-4.267,2.313-9.308,2.896-14.94   c0.294-2.812,0.506-5.759,0.49-8.805c0.038-1.522-0.079-3.068-0.119-4.632c-0.097-1.182-0.194-2.373-0.293-3.572   c-0.167-1.761-0.637-3.716-1.031-5.637c-0.993-5.359-2.84-11.896-3.989-16.934c2.442,0.76,4.849,1.508,7.215,2.244   c2.483,0.791,4.862,1.557,7.165,2.355c4.617,1.686,9.362,4.119,13.299,7.344c1.19,0.835,1.49,1.282,2.092,1.808   c0.548,0.516,1.08,1.031,1.562,1.581c1.002,1.058,1.905,2.138,2.712,3.227c1.643,2.152,2.908,4.32,3.886,6.356   c1.923,4.104,2.695,7.66,2.699,10.172C748.502,87.995,747.914,89.424,747.03,89.657z"/>
	<path style="fill:#04294F;" d="M616.303,512.857c-0.391,1.852-7.654,2.489-18.629-1.108c-1.353-0.49-2.77-1.004-4.246-1.539   c-1.468-0.567-2.902-1.336-4.435-2.062c-3.106-1.4-6.142-3.368-9.375-5.417c-6.275-4.341-12.665-9.923-18.34-16.707   c-5.587-6.856-9.859-14.187-12.934-21.17c-1.4-3.563-2.758-6.916-3.545-10.231c-0.423-1.643-0.907-3.197-1.186-4.745   c-0.246-1.551-0.482-3.04-0.708-4.461c-1.454-11.457,0.546-18.468,2.438-18.502c2.218-0.095,4.04,6.406,7.817,15.875   c0.477,1.178,0.976,2.413,1.497,3.698c0.515,1.28,1.211,2.558,1.814,3.908c1.147,2.728,2.752,5.468,4.266,8.4   c3.311,5.735,7.288,11.792,12.085,17.695c4.888,5.828,10.084,10.879,15.088,15.216c2.593,2.041,4.979,4.136,7.441,5.778   c1.212,0.848,2.335,1.773,3.494,2.521c1.164,0.754,2.282,1.478,3.348,2.17C610.777,507.677,616.815,510.697,616.303,512.857z"/>
	<path style="fill:#04294F;" d="M657.593,483.922c1.232,1.551-0.218,5.302-4.885,9.142c-2.307,1.926-5.433,3.702-9.145,5.115   c-3.725,1.339-8.045,2.263-12.632,2.425c-4.588,0.11-8.956-0.557-12.754-1.672c-3.79-1.19-7.015-2.779-9.432-4.565   c-4.887-3.556-6.556-7.215-5.418-8.836c1.207-1.76,4.752-1.46,9.496-0.934c4.77,0.563,10.888,1.213,17.664,1.042   c6.775-0.23,12.843-1.242,17.571-2.086C652.763,482.746,656.284,482.237,657.593,483.922z"/>
	<path style="fill:#04294F;" d="M726.996,255.396c1.224,1.774-0.74,5.216-3.27,10.04c-1.308,2.395-2.663,5.256-4.04,8.396   c-1.291,3.196-2.558,6.703-3.579,10.496c-0.95,3.81-1.547,7.492-1.971,10.912c-0.322,3.413-0.527,6.572-0.548,9.301   c-0.132,5.445-0.088,9.409-2.019,10.364c-1.736,0.896-5.422-1.727-8.303-8.012c-1.458-3.113-2.489-7.106-2.926-11.64   c-0.338-4.525-0.014-9.582,1.273-14.683c1.352-5.084,3.527-9.661,6.021-13.452c2.584-3.75,5.425-6.74,8.212-8.752   C721.418,254.271,725.914,253.77,726.996,255.396z"/>
	<path style="fill:#04294F;" d="M588.65,218.406c-1.756-1.09,0.227-7.837,4.854-17.865c1.157-2.507,2.479-5.219,3.949-8.099   l0.138-0.27c0.016-0.042,0.007-0.044,0.012-0.067l0.008-0.106l0.007-0.193c0.001-0.12-0.006-0.224-0.019-0.311   c-0.027-0.176-0.081-0.289-0.152-0.353c-0.143-0.129-0.362-0.055-0.555,0.067c-0.273,0.183-0.372,0.299-0.358,0.288   c0,0,0.013-0.02,0.009-0.046c0,0-0.008-0.028-0.021-0.043l-0.026-0.022c0,0,0.057-0.052-0.53,0.218   c-3.44,1.525-6.726,3.084-9.836,4.627c-6.231,3.07-11.734,6.125-16.403,8.721c-9.301,5.225-15.345,8.601-16.8,7.05   c-1.379-1.45,2.212-7.7,10.514-15.568c4.156-3.901,9.488-8.168,15.891-12.206c3.195-2.027,6.649-4.006,10.331-5.867   c0.298-0.163,1.246-0.639,2.155-1.028l2.695-1.203c1.799-0.775,3.661-1.683,5.464-2.365c3.6-1.356,7.349-2.829,10.812-3.879   c3.515-1.118,6.988-2.223,10.411-3.312c1.75-0.544,3.487-1.085,5.211-1.621l2.569-0.791l0.636-0.195   c0.064,0.001,0.305-0.139,0.224-0.022l-0.16,0.285l-0.639,1.135c-1.715,3.009-3.399,5.965-5.049,8.86   c-0.831,1.433-1.653,2.851-2.466,4.253l-1.215,2.075c-0.422,0.702-0.98,1.512-1.458,2.251c-1.962,2.958-3.875,5.843-5.735,8.646   c-1.759,2.591-3.467,5.107-5.118,7.539c-1.928,2.596-3.77,4.985-5.503,7.135C595.571,214.722,590.407,219.496,588.65,218.406z"/>
	<path style="fill:#04294F;" d="M653.541,650.573c-88.366-19.896-195.204-35.037-310.249,159.822   c-8.381,14.195-7.828,31.965,1.201,45.757c29.064,44.394,54.941,78.883,89.356,98.752c9.149,56.322,4.407,119.372,0.015,156.347   c-2.832,23.839,6.237,47.577,24.432,63.239c50.317,43.312,171.995,109.151,409.895,43.468   c-15.216-69.55-24.263-124.302-24.263-124.302s90.373,15.662,173.888-42.233c15.626-10.833,22.634-30.38,17.104-48.572   C1005.959,907.585,925.072,711.708,653.541,650.573z"/>
	<g>
		<g>
			<path style="fill:#FFFFFF;" d="M465.242,1142.604c-2.107,1.777-5.845,0.503-8.341-2.853c-2.495-3.356-2.638-7.3-0.328-8.804     c2.31-1.504,6.048-0.23,8.341,2.852C467.206,1136.882,467.349,1140.827,465.242,1142.604z"/>
		</g>
		<g>
			<path style="fill:#FFFFFF;" d="M499.28,1173.18c-1.497,2.29-8.647,0.278-15.432-5.245c-6.802-5.512-10.217-12.151-8.258-14.066     c1.978-1.944,8.212,1.188,14.554,6.321C496.471,1165.348,500.805,1170.861,499.28,1173.18z"/>
		</g>
		<g>
			<path style="fill:#FFFFFF;" d="M539.949,1194.247c-0.495,1.286-2.538,1.797-5.483,1.567c-2.945-0.214-6.795-1.182-10.704-3.048     c-7.874-3.68-12.858-9.158-11.471-11.527c1.394-2.39,8.272-0.982,15.71,2.491c3.717,1.776,6.952,3.696,9.14,5.553     C539.319,1191.151,540.444,1192.961,539.949,1194.247z"/>
		</g>
		<g>
			<path style="fill:#FFFFFF;" d="M583.991,1206.98c-0.534,2.692-7.805,3.532-16.148,1.381c-8.351-2.141-14.32-6.438-13.46-9.047     c0.864-2.627,7.928-2.674,15.951-0.618C578.355,1200.766,584.532,1204.266,583.991,1206.98z"/>
		</g>
		<g>
			<path style="fill:#FFFFFF;" d="M629.373,1213.702c-0.135,1.361-1.968,2.461-4.833,3.026c-2.86,0.529-6.76,0.573-10.992,0.008     c-8.479-1.132-14.977-4.256-14.514-6.973c0.463-2.717,7.543-4.028,15.812-2.924c4.142,0.553,7.824,1.609,10.451,2.871     C627.929,1210.938,629.51,1212.32,629.373,1213.702z"/>
		</g>
		<g>
			<path style="fill:#FFFFFF;" d="M675.174,1216.433c-0.042,2.756-6.986,4.672-15.511,4.277c-8.525-0.395-15.262-2.945-15.049-5.693     c0.214-2.748,7.158-4.664,15.511-4.277C668.478,1211.127,675.216,1213.677,675.174,1216.433z"/>
		</g>
		<g>
			<path style="fill:#FFFFFF;" d="M721.053,1215.536c0.176,2.751-6.597,5.209-15.127,5.488c-8.53,0.279-15.448-1.731-15.453-4.488     c-0.005-2.756,6.768-5.215,15.127-5.488C713.959,1210.775,720.878,1212.785,721.053,1215.536z"/>
		</g>
		<g>
			<path style="fill:#FFFFFF;" d="M766.716,1211.032c0.391,2.728-6.166,5.712-14.647,6.661c-8.481,0.949-15.536-0.511-15.757-3.259     c-0.222-2.747,6.336-5.73,14.647-6.661C759.27,1206.843,766.325,1208.303,766.716,1211.032z"/>
		</g>
		<g>
			<path style="fill:#FFFFFF;" d="M811.882,1202.945c0.605,2.689-5.696,6.18-14.076,7.794c-8.38,1.615-15.528,0.715-15.965-2.006     c-0.437-2.721,5.865-6.212,14.076-7.795C804.129,1199.357,811.277,1200.256,811.882,1202.945z"/>
		</g>
		<g>
			<path style="fill:#FFFFFF;" d="M840.828,1195.781c0.737,2.656-1.843,5.641-5.765,6.667c-3.921,1.026-7.633-0.313-8.291-2.989     c-0.658-2.677,1.923-5.662,5.765-6.667C836.379,1191.787,840.091,1193.125,840.828,1195.781z"/>
		</g>
	</g>
	
		<ellipse transform="matrix(0.9847 -0.1744 0.1744 0.9847 -164.6636 159.1136)" style="fill:#FFFFFF;" cx="822.774" cy="1016.234" rx="7.486" ry="47.884"/>
	
		<ellipse transform="matrix(0.9917 -0.1282 0.1282 0.9917 -110.9502 62.5786)" style="fill:#FFFFFF;" cx="430.678" cy="893.225" rx="7.486" ry="49.824"/>
	<g>
		<g>
			<path style="fill:#FFFFFF;" d="M869.439,1067.216c-0.076,2.755-3.47,4.77-7.58,4.496c-4.11-0.274-7.206-2.722-6.915-5.463     c0.291-2.741,3.685-4.756,7.58-4.496C866.419,1062.013,869.515,1064.46,869.439,1067.216z"/>
		</g>
		<g>
			<path style="fill:#FFFFFF;" d="M913.129,1064.435c0.468,2.703-5.772,6.042-14.016,6.828c-8.244,0.8-15.008-1.291-15.061-4.035     c-0.057-2.768,6.276-5.138,14.105-5.9C905.989,1060.583,912.66,1061.706,913.129,1064.435z"/>
		</g>
		<g>
			<path style="fill:#FFFFFF;" d="M955.521,1053.448c0.966,2.569-4.541,7.014-12.489,9.335c-7.945,2.334-14.98,1.562-15.552-1.122     c-0.581-2.706,5.194-6.236,12.747-8.457C947.784,1051,954.55,1050.856,955.521,1053.448z"/>
		</g>
		<g>
			<path style="fill:#FFFFFF;" d="M995.093,1034.702c1.436,2.339-3.131,7.75-10.504,11.524c-7.367,3.786-14.421,4.342-15.486,1.813     c-1.077-2.55,3.934-7.096,10.93-10.694C987.036,1033.763,993.647,1032.341,995.093,1034.702z"/>
		</g>
		<g>
			<path style="fill:#FFFFFF;" d="M1019.059,1018.183c1.723,2.151,0.437,5.882-2.876,8.33c-3.313,2.448-7.258,2.582-8.808,0.303     c-1.55-2.279-0.264-6.01,2.876-8.33C1013.391,1016.166,1017.336,1016.032,1019.059,1018.183z"/>
		</g>
	</g>
	<g>
		<g>
			<path style="fill:#FFFFFF;" d="M357.452,841.544c-2.365,1.414-5.86-0.422-7.798-4.105c-1.937-3.684-1.469-7.603,1.037-8.75     c2.506-1.147,6.001,0.689,7.798,4.105C360.285,836.21,359.818,840.129,357.452,841.544z"/>
		</g>
		<g>
			<path style="fill:#FFFFFF;" d="M387.017,878.245c-1.817,2.046-8.772-1.176-14.768-7.93c-6.012-6.741-8.404-14.023-6.161-15.59     c2.27-1.597,8.025,2.693,13.617,8.955C385.275,869.962,388.867,876.175,387.017,878.245z"/>
		</g>
		<g>
			<path style="fill:#FFFFFF;" d="M411.091,896.564c-1.43,2.356-5.377,2.365-8.811,0.013c-3.434-2.353-4.852-6.037-3.172-8.222     c1.679-2.185,5.627-2.194,8.811-0.013C411.104,890.523,412.522,894.208,411.091,896.564z"/>
		</g>
	</g>
	<path style="fill:#04294F;" d="M692.909,1404.606c-0.509,0.899-2.711,0.682-6.369-0.555c-0.914-0.309-1.918-0.682-3.008-1.118   c-1.067-0.467-2.161-1.08-3.361-1.717c-2.362-1.321-5.154-2.758-7.856-4.853c-1.381-1.023-2.828-2.094-4.335-3.21   c-1.489-1.146-2.876-2.511-4.391-3.856c-3.091-2.642-5.929-5.904-8.974-9.311c-5.795-7.034-11.363-15.488-15.791-25.076   c-4.305-9.643-7.006-19.399-8.488-28.391c-0.562-4.535-1.15-8.818-1.105-12.885c-0.016-2.026-0.13-3.968-0.014-5.844   c0.151-1.87,0.297-3.664,0.435-5.377c0.201-3.413,0.956-6.461,1.516-9.109c0.31-1.322,0.569-2.549,0.919-3.66   c0.389-1.107,0.77-2.109,1.138-3c1.475-3.569,2.761-5.369,3.773-5.161c2.203,0.459,1.997,8.581,3.24,20.977   c0.166,1.545,0.34,3.164,0.521,4.85c0.181,1.679,0.57,3.413,0.836,5.206c0.453,3.6,1.438,7.362,2.274,11.327   c2.035,7.866,4.787,16.338,8.587,24.876c3.927,8.48,8.495,16.127,13.079,22.836c2.436,3.239,4.62,6.457,7.033,9.167   c1.176,1.38,2.224,2.814,3.37,4.055c1.151,1.246,2.255,2.443,3.309,3.584C687.762,1397.455,694.013,1402.644,692.909,1404.606z"/>
	<path style="fill:#F04E23;" d="M1193.429,1600.163c0.207-2.691,12.119-3.858,25.871,0.481c13.77,4.283,22.887,12.038,21.521,14.366   c-1.38,2.45-11.867-0.931-24.505-4.841C1203.706,1606.169,1193.164,1602.962,1193.429,1600.163z"/>
	
		<ellipse transform="matrix(0.1424 -0.9898 0.9898 0.1424 -492.2291 2576.0334)" style="fill:#F04E23;" cx="1240.402" cy="1572.061" rx="4.991" ry="27.53"/>
	<path style="fill:#F04E23;" d="M1234.098,1537.299c-0.257-2.693,11.931-5.979,27.134-4.596c15.209,1.33,26.622,6.72,25.893,9.326   c-0.722,2.711-12.54,1.848-26.78,0.616C1246.112,1541.337,1234.329,1540.096,1234.098,1537.299z"/>
	<path style="fill:#F04E23;" d="M1266.086,1589.223c0.253,1.372-0.424,2.747-1.231,4.045c-0.839,1.303-1.85,2.553-3.076,3.776   c-1.209,1.241-2.448,2.266-3.741,3.12c-1.289,0.822-2.656,1.514-4.03,1.277c-1.33-0.222-2.436-1.574-2.55-3.83   c-0.134-2.219,0.897-5.234,3.222-7.584c2.324-2.352,5.327-3.418,7.547-3.309   C1264.484,1586.805,1265.848,1587.895,1266.086,1589.223z"/>
	
		<ellipse transform="matrix(0.7593 -0.6508 0.6508 0.7593 -737.355 1212.6946)" style="fill:#F04E23;" cx="1270.435" cy="1602.978" rx="6.697" ry="4.991"/>
	<path style="fill:#F04E23;" d="M1289.387,1547.186c0.588,1.268-0.076,2.917-1.164,4.715c-1.111,1.806-2.641,3.816-4.354,5.982   c-1.698,2.178-3.287,4.141-4.778,5.648c-1.489,1.484-2.933,2.52-4.305,2.249c-1.326-0.257-2.329-1.943-2.337-4.637   c-0.024-2.664,1.094-6.268,3.57-9.425c2.479-3.154,5.716-5.095,8.309-5.703C1286.947,1545.383,1288.823,1545.958,1289.387,1547.186   z"/>
	
		<ellipse transform="matrix(0.5333 -0.8459 0.8459 0.5333 -715.1611 1826.4749)" style="fill:#F04E23;" cx="1297.723" cy="1561.376" rx="11.087" ry="4.991"/>
	<path style="fill:#F04E23;" d="M1225.422,1629.968c0.244,1.369-0.227,2.713-0.696,3.885c-0.503,1.179-1.06,2.187-1.883,3.05   c-0.804,0.88-1.772,1.505-2.914,2.087c-1.137,0.548-2.446,1.11-3.828,0.96c-1.344-0.141-2.549-1.225-2.87-3.184   c-0.339-1.919,0.377-4.602,2.318-6.676c1.936-2.077,4.565-2.976,6.502-2.768C1224.026,1627.508,1225.19,1628.637,1225.422,1629.968   z"/>
	<path style="fill:#F04E23;" d="M1290.168,1508.701c0.854,1.101,0.723,2.751,0.213,4.543c-0.528,1.805-1.424,3.788-2.565,5.855   c-1.128,2.074-2.317,3.897-3.553,5.314c-1.236,1.395-2.556,2.393-3.943,2.266c-1.352-0.12-2.528-1.486-2.943-3.812   c-0.425-2.3,0.025-5.527,1.686-8.563c1.664-3.034,4.143-5.151,6.309-6.031C1287.554,1507.37,1289.338,1507.626,1290.168,1508.701z"/>
	
		<ellipse transform="matrix(0.3628 -0.9319 0.9319 0.3628 -592.891 2179.033)" style="fill:#F04E23;" cx="1296.82" cy="1523.027" rx="7.014" ry="4.991"/>
	
		<ellipse transform="matrix(0.3477 -0.9376 0.9376 0.3477 -727.8102 2281.2473)" style="fill:#F04E23;" cx="1275.52" cy="1663.667" rx="8.353" ry="13.013"/>
	
		<ellipse transform="matrix(0.3477 -0.9376 0.9376 0.3477 -650.5552 2298.218)" style="fill:#F04E23;" cx="1326.343" cy="1616.632" rx="8.353" ry="13.013"/>
	
		<ellipse transform="matrix(0.3477 -0.9376 0.9376 0.3477 -589.8097 2296.3843)" style="fill:#F04E23;" cx="1355.398" cy="1572.061" rx="8.353" ry="13.013"/>
	
		<ellipse transform="matrix(0.3477 -0.9376 0.9376 0.3477 -543.8343 2264.397)" style="fill:#F04E23;" cx="1355.398" cy="1523.027" rx="8.353" ry="13.013"/>
	
		<ellipse transform="matrix(0.9851 -0.1718 0.1718 0.9851 -242.5548 225.546)" style="fill:#F04E23;" cx="1182.061" cy="1514.398" rx="34.273" ry="4.991"/>
	
		<ellipse transform="matrix(0.9705 -0.2411 0.2411 0.9705 -173.8334 345.7584)" style="fill:#F04E23;" cx="1325.753" cy="883.113" rx="4.991" ry="11.98"/>
	
		<ellipse transform="matrix(0.9775 -0.2111 0.2111 0.9775 -158.1548 310.714)" style="fill:#F04E23;" cx="1376.228" cy="896.114" rx="4.991" ry="10.4"/>
	
		<ellipse transform="matrix(0.9865 -0.164 0.164 0.9865 -131.1866 244.4353)" style="fill:#F04E23;" cx="1414.415" cy="916.528" rx="4.991" ry="8.837"/>
	<ellipse style="fill:#F04E23;" cx="1303.304" cy="864.981" rx="7.445" ry="9.785"/>
	<ellipse style="fill:#F04E23;" cx="1348.702" cy="871.486" rx="7.445" ry="9.785"/>
	<ellipse style="fill:#F04E23;" cx="1396.643" cy="892.898" rx="7.445" ry="9.785"/>
	<path style="fill:#F04E23;" d="M91.58,1226.66c-2.12,1.97-14.726-8.99-32.995-17.113c-18.145-8.394-34.695-10.661-34.61-13.554   c0.051-1.315,4.439-2.503,11.626-2.255c7.155,0.229,17.068,2.18,27.107,6.719c10.028,4.564,18.025,10.737,22.91,15.97   C90.538,1221.671,92.536,1225.755,91.58,1226.66z"/>
	<path style="fill:#F04E23;" d="M142.449,1210.174c-2.079,1.929-9.889-3.283-20.103-7.416c-10.135-4.324-19.339-6.183-19.438-9.017   c-0.004-1.34,2.529-2.669,6.845-3.056c4.286-0.399,10.331,0.332,16.424,2.857c6.088,2.537,10.87,6.306,13.611,9.625   C142.556,1206.499,143.402,1209.231,142.449,1210.174z"/>
	<path style="fill:#F04E23;" d="M57.901,1225.165c0.237,1.384-0.787,2.79-2.054,4.285c-1.3,1.496-2.884,3.136-4.58,4.986   c-1.672,1.871-3.148,3.61-4.507,5.052c-1.362,1.408-2.659,2.567-4.06,2.469c-1.334-0.083-2.573-1.677-2.704-4.485   c-0.154-2.764,1.046-6.613,3.871-9.734c2.825-3.121,6.536-4.697,9.302-4.817C55.977,1222.771,57.686,1223.846,57.901,1225.165z"/>
	
		<ellipse transform="matrix(0.5 -0.866 0.866 0.5 -1042.7766 626.2444)" style="fill:#F04E23;" cx="20.955" cy="1216.193" rx="9.2" ry="12.106"/>
	
		<ellipse transform="matrix(0.5 -0.866 0.866 0.5 -995.7448 679.2345)" style="fill:#F04E23;" cx="90.362" cy="1201.958" rx="7.296" ry="9.601"/>
	<path style="fill:#F04E23;" d="M1055.211,1302.348c-3.897,0.848-18.631-53.45-25.489-122.296   c-7.036-68.828-3.448-124.975,0.541-124.923c4.279-0.004,7.402,55.467,14.355,123.419   C1051.382,1246.521,1059.405,1301.496,1055.211,1302.348z"/>
	
		<ellipse transform="matrix(0.8739 -0.4861 0.4861 0.8739 -395.9289 666.0018)" style="fill:#F04E23;" cx="1085.815" cy="1096.19" rx="65.86" ry="7.486"/>
</g>

</g>
</g>

              </svg>