<svg width="1440" height="1024" viewBox="0 0 1440 1024" fill="none" xmlns="http://www.w3.org/2000/svg">
<g clip-path="url(#clip0)">
<path opacity="0.1" d="M1122.34 547.97C1084.39 612.68 1089.56 699.69 1104.34 768.06C1109.28 790.95 1115.03 815.06 1109.91 840.94C1103.65 872.54 1082.61 897.69 1061.52 912.25C1023.08 938.8 979.78 938.99 948.78 912.75C921.99 890.07 904.85 849.91 877.46 828.48C831.63 792.63 767.38 816.3 711.25 851.89C671.54 877.07 627.77 908.84 591.87 892.14C566.61 880.39 551.39 846.05 544.71 808.47C541.48 790.33 539.71 770.47 531.76 756.76C527.03 748.61 520.42 743.23 513.55 738.85C450.78 698.85 364.09 735.24 303.7 689.77C262.91 659.06 240.64 594.35 234.27 524.77C227.9 455.19 235.72 380.44 245.13 306.77C251.82 254.44 260.59 198.37 286.87 155.36C314.67 109.86 357.51 88.9 394.31 92.36C431.11 95.82 462.65 120.36 489.66 150.54C523.41 188.28 553.57 236.74 597.98 248.21C628.23 256.02 661.64 245.54 694.06 239.32C748.25 228.92 801.45 230.46 854.26 232.82C904.82 235.08 955.67 238.16 1002.46 256.37C1035.57 269.26 1060.63 297.01 1091.46 314.75C1111.53 326.31 1134.41 327.35 1153.01 342.94C1175.93 362.15 1195.38 398.09 1185.15 444.24C1175.42 488.15 1142.52 513.62 1122.34 547.97Z" fill="#6C63FF"/>
<path d="M394.75 751.98C394.75 751.98 328.03 641.47 346.75 542.31C354.62 500.69 349.56 457.63 330.89 419.61C322.002 401.586 311.481 384.414 299.46 368.31" stroke="#535461" stroke-width="2" stroke-miterlimit="10"/>
<path d="M310.94 305.76C314.79 320.44 299.39 369.98 299.39 369.98C299.39 369.98 261.64 334.39 257.78 319.71C255.923 312.661 256.943 305.162 260.615 298.865C264.287 292.567 270.31 287.987 277.36 286.13C284.409 284.273 291.908 285.293 298.205 288.965C304.503 292.637 309.083 298.661 310.94 305.71V305.76Z" fill="#6C63FF"/>
<path d="M376.22 375.54C371.48 389.96 331.62 423.17 331.62 423.17C331.62 423.17 319.27 372.78 324.02 358.36C325.109 354.885 326.878 351.661 329.224 348.876C331.57 346.091 334.446 343.8 337.685 342.136C340.925 340.472 344.462 339.468 348.093 339.184C351.723 338.899 355.374 339.338 358.833 340.477C362.292 341.615 365.49 343.43 368.242 345.815C370.993 348.2 373.244 351.109 374.861 354.371C376.479 357.634 377.432 361.185 377.666 364.819C377.899 368.453 377.407 372.098 376.22 375.54Z" fill="#6C63FF"/>
<path d="M410.77 514.99C399.4 524.99 348.22 533.59 348.22 533.59C348.22 533.59 363 483.86 374.37 473.81C379.848 469.103 386.958 466.741 394.164 467.236C401.369 467.731 408.09 471.043 412.872 476.455C417.655 481.867 420.114 488.944 419.719 496.156C419.324 503.367 416.105 510.133 410.76 514.99H410.77Z" fill="#6C63FF"/>
<path d="M413.16 626.39C403.65 638.22 354.66 655.29 354.66 655.29C354.66 655.29 360.82 603.77 370.33 591.95C374.911 586.313 381.537 582.718 388.76 581.953C395.984 581.187 403.216 583.313 408.877 587.864C414.538 592.416 418.166 599.024 418.969 606.243C419.771 613.463 417.683 620.706 413.16 626.39Z" fill="#6C63FF"/>
<path d="M276.56 440.66C289.77 448.12 341.56 445.84 341.56 445.84C341.56 445.84 316.76 400.27 303.56 392.84C300.413 390.956 296.92 389.722 293.288 389.209C289.656 388.696 285.958 388.916 282.413 389.855C278.867 390.794 275.545 392.433 272.643 394.676C269.741 396.919 267.317 399.72 265.514 402.915C263.712 406.109 262.567 409.632 262.148 413.276C261.728 416.92 262.042 420.611 263.072 424.132C264.101 427.652 265.825 430.931 268.141 433.775C270.458 436.619 273.32 438.97 276.56 440.69V440.66Z" fill="#6C63FF"/>
<path d="M281 570.91C295.84 574.08 344.62 556.39 344.62 556.39C344.62 556.39 307.34 520.33 292.47 517.15C285.342 515.629 277.902 517.002 271.787 520.966C265.671 524.931 261.381 531.162 259.86 538.29C258.339 545.418 259.712 552.858 263.676 558.973C267.641 565.089 273.872 569.379 281 570.9V570.91Z" fill="#6C63FF"/>
<path d="M302.69 696.91C316.78 702.54 367.85 693.35 367.85 693.35C367.85 693.35 337.18 651.5 323.09 645.87C316.39 643.465 309.019 643.754 302.528 646.675C296.036 649.597 290.932 654.923 288.29 661.533C285.647 668.142 285.672 675.519 288.36 682.111C291.048 688.702 296.189 693.993 302.7 696.87L302.69 696.91Z" fill="#6C63FF"/>
<path d="M310.94 305.76C314.79 320.44 299.39 369.98 299.39 369.98C299.39 369.98 261.64 334.39 257.78 319.71C255.923 312.661 256.943 305.162 260.615 298.865C264.287 292.567 270.31 287.987 277.36 286.13C284.409 284.273 291.908 285.293 298.205 288.965C304.503 292.637 309.083 298.661 310.94 305.71V305.76Z" fill="#6C63FF"/>
<path d="M376.22 375.54C371.48 389.96 331.62 423.17 331.62 423.17C331.62 423.17 319.27 372.78 324.02 358.36C325.109 354.885 326.878 351.661 329.224 348.876C331.57 346.091 334.446 343.8 337.685 342.136C340.925 340.472 344.462 339.468 348.093 339.184C351.723 338.899 355.374 339.338 358.833 340.477C362.292 341.615 365.49 343.43 368.242 345.815C370.993 348.2 373.244 351.109 374.861 354.371C376.479 357.634 377.432 361.185 377.666 364.819C377.899 368.453 377.407 372.098 376.22 375.54Z" fill="#6C63FF"/>
<path d="M410.77 514.99C399.4 524.99 348.22 533.59 348.22 533.59C348.22 533.59 363 483.86 374.37 473.81C379.848 469.103 386.958 466.741 394.164 467.236C401.369 467.731 408.09 471.043 412.872 476.455C417.655 481.867 420.114 488.944 419.719 496.156C419.324 503.367 416.105 510.133 410.76 514.99H410.77Z" fill="#FC6681"/>
<path d="M413.16 626.39C403.65 638.22 354.66 655.29 354.66 655.29C354.66 655.29 360.82 603.77 370.33 591.95C374.911 586.313 381.537 582.718 388.76 581.953C395.984 581.187 403.216 583.313 408.877 587.864C414.538 592.416 418.166 599.024 418.969 606.243C419.771 613.463 417.683 620.706 413.16 626.39Z" fill="#FC6681"/>
<path d="M276.56 440.66C289.77 448.12 341.56 445.84 341.56 445.84C341.56 445.84 316.76 400.27 303.56 392.84C300.413 390.956 296.92 389.722 293.288 389.209C289.656 388.696 285.958 388.916 282.413 389.855C278.867 390.794 275.545 392.433 272.643 394.676C269.741 396.919 267.317 399.72 265.514 402.915C263.712 406.109 262.567 409.632 262.148 413.276C261.728 416.92 262.042 420.611 263.072 424.132C264.101 427.652 265.825 430.931 268.141 433.775C270.458 436.619 273.32 438.97 276.56 440.69V440.66Z" fill="#6C63FF"/>
<path d="M281 570.91C295.84 574.08 344.62 556.39 344.62 556.39C344.62 556.39 307.34 520.33 292.47 517.15C285.342 515.629 277.902 517.002 271.787 520.966C265.671 524.931 261.381 531.162 259.86 538.29C258.339 545.418 259.712 552.858 263.676 558.973C267.641 565.089 273.872 569.379 281 570.9V570.91Z" fill="#6C63FF"/>
<path d="M302.69 696.91C316.78 702.54 367.85 693.35 367.85 693.35C367.85 693.35 337.18 651.5 323.09 645.87C316.39 643.465 309.019 643.754 302.528 646.675C296.036 649.597 290.932 654.923 288.29 661.533C285.647 668.142 285.672 675.519 288.36 682.111C291.048 688.702 296.189 693.993 302.7 696.87L302.69 696.91Z" fill="#6C63FF"/>
<path opacity="0.1" d="M728.18 797.58C993.553 797.58 1208.68 782.805 1208.68 764.58C1208.68 746.355 993.553 731.58 728.18 731.58C462.807 731.58 247.68 746.355 247.68 764.58C247.68 782.805 462.807 797.58 728.18 797.58Z" fill="#6C63FF"/>
<path d="M1141.65 736.31C1141.65 736.31 1140.85 735.24 1139.74 734.04L1140.06 733.93C1140.06 733.93 1125.78 698.24 1128.96 683.17C1132.14 668.1 1116.27 631.62 1116.27 631.62C1116.27 631.62 1092.86 583.68 1103.94 545.42C1105.21 540.914 1106.16 536.326 1106.8 531.69C1110.11 509.03 1108.94 504.36 1103.39 496.08L1102.78 495.19C1103.46 494.523 1104.01 493.724 1104.37 492.84C1109.13 480.15 1082.17 457.15 1089.34 435.73C1095.96 415.88 1078.73 374.92 1076.17 369.03L1075.88 368.36L1075.02 368.64C1075.16 363.525 1077.18 358.64 1080.68 354.91L1080.84 354.75C1083.22 352.56 1086.11 350.95 1088.34 348.6L1088.47 348.45C1088.69 348.24 1088.92 348.03 1089.13 347.81C1091.34 345.49 1092.85 342.05 1091.65 339.07C1090.56 336.35 1087.5 334.69 1086.78 331.85C1086.61 330.573 1086.5 329.288 1086.46 328C1085.88 324 1081.99 321.49 1078.46 319.51C1074.07 317.03 1069.46 314.51 1064.39 314.45C1057.53 314.45 1051.39 319.05 1044.58 319.62C1042.26 319.82 1039.85 319.54 1037.65 320.31C1035.97 321.008 1034.43 321.996 1033.1 323.23C1032.32 323.846 1031.57 324.515 1030.88 325.23C1029.34 326.67 1028.03 328.37 1028.09 330.41C1028.2 331.9 1028.9 333.284 1030.03 334.26C1027.84 337.246 1026.32 340.676 1025.59 344.309C1024.86 347.943 1024.94 351.692 1025.82 355.292C1026.69 358.893 1028.35 362.258 1030.66 365.152C1032.98 368.045 1035.9 370.396 1039.22 372.04C1039.3 372.59 1039.38 373.15 1039.46 373.74C1040.46 381.25 1041.05 391.87 1038.38 400.19C1026.99 406.06 1009.24 415.63 1006.06 419.88C1005.81 420.24 1005.65 420.649 1005.58 421.079C1005.5 421.509 1005.52 421.949 1005.64 422.37C1005.55 422.76 1005.53 423.163 1005.58 423.56C1003.09 424.13 999.78 423.56 995.75 419.88C986.23 411.16 956.1 384.98 956.1 384.98C956.1 384.98 942.62 351.67 933.1 357.98C923.58 364.29 944.2 395.26 944.2 395.26L989.34 443.66C989.34 443.66 990.93 453.97 1007.58 448.42C1013.08 446.59 1018.05 444.84 1022.25 443.33L1023.25 444.18C1019.5 466.12 1017.56 495.36 1031.39 503.94C1032.47 505.376 1033.26 507.015 1033.69 508.76C1033.62 509.02 1033.55 509.29 1033.49 509.55C1032.43 513.929 1031.76 518.393 1031.49 522.89C1028.88 528.851 1027.68 535.331 1027.98 541.83L1022.68 617.34C1022.68 617.34 1021.89 633.99 1027.44 646.68C1032.99 659.37 1050.44 722.82 1038.54 727.58L1039.67 727.73C1036.26 731.24 1030.52 736.56 1026.15 737.61C1019.51 739.19 1021.37 749.37 1036.09 751.07C1050.81 752.77 1052.58 752.63 1062.93 744C1072.05 736.4 1073.5 733 1073.71 732.27L1074.23 732.34C1074.23 732.34 1068.68 711.72 1074.23 703C1079.78 694.28 1061.55 641.15 1061.55 641.15C1061.4 634.361 1061.65 627.569 1062.3 620.81C1065.1 628.14 1067.1 633.22 1067.1 633.22C1067.1 633.22 1071.86 656.22 1077.41 660.22C1082.96 664.22 1112.31 718.91 1107.55 742.7L1107 745.47L1108.34 745.08H1108.46C1106.63 749.61 1103.3 756.77 1099.62 759.4C1094.07 763.4 1099.62 772.09 1113.9 768.12C1128.18 764.15 1129.76 763.36 1136.11 751.47C1142.46 739.58 1141.65 736.31 1141.65 736.31Z" fill="url(#paint0_linear)"/>
<path d="M1036.55 524.55L1033.07 520.26C1029.51 526.873 1027.81 534.328 1028.16 541.83L1022.98 615.66C1022.98 615.66 1022.2 631.94 1027.63 644.35C1033.06 656.76 1050.12 718.79 1038.49 723.44L1073.34 728.15C1073.34 728.15 1067.91 707.99 1073.34 699.46C1078.77 690.93 1060.93 638.98 1060.93 638.98C1060.93 638.98 1059.38 595.56 1074.11 585.47C1088.84 575.38 1036.55 524.55 1036.55 524.55Z" fill="#555388"/>
<path d="M1042.43 720.53C1042.43 720.53 1032.86 731.71 1026.38 733.26C1019.9 734.81 1021.71 744.75 1036.1 746.42C1050.49 748.09 1052.22 747.95 1062.35 739.51C1072.48 731.07 1072.93 727.9 1072.93 727.9C1072.93 727.9 1070.93 720.4 1068.51 720.24C1066.09 720.08 1042.43 720.53 1042.43 720.53Z" fill="#603556"/>
<path opacity="0.1" d="M1038.88 526.88L1033.08 520.26C1029.52 526.873 1027.82 534.328 1028.17 541.83L1022.99 615.66C1022.99 615.66 1022.21 631.94 1027.64 644.35C1033.07 656.76 1050.13 718.79 1038.5 723.44L1073.34 728.15C1073.34 728.15 1067.91 707.99 1073.34 699.46C1078.77 690.93 1060.93 638.98 1060.93 638.98C1060.93 638.98 1059.38 595.56 1074.11 585.47C1088.84 575.38 1038.88 526.88 1038.88 526.88Z" fill="black"/>
<path d="M1073.4 628.07C1073.4 628.07 1063.71 437.86 1023.93 370.54C1023.93 370.54 994.76 317.26 970.38 301.72V295.58C930.6 268.04 881.65 295.58 881.65 295.58V298.3L871.45 306.8L825.52 306.64C823.441 304.135 820.836 302.119 817.888 300.736C814.941 299.353 811.725 298.637 808.47 298.64H598.89C595.827 298.637 592.796 299.269 589.99 300.499C587.184 301.728 584.664 303.526 582.59 305.78H534.89C534.89 305.78 532.08 302.51 524.69 299.22V295.58C484.91 268.04 435.96 295.58 435.96 295.58V302.97C434.797 303.738 433.764 304.687 432.9 305.78C432.9 305.78 392.61 332.78 383.43 366.46C383.43 366.46 333.96 514.86 332.94 631.13C331.92 747.4 376.8 763.72 400.25 766.78C423.7 769.84 465.52 765.78 506.32 662.78L523.66 602.61C523.66 602.61 526.72 566.91 563.44 589.35C600.16 611.79 632.79 577.11 632.79 577.11H770.49C770.49 577.11 816.34 605.63 858.2 583.15C858.2 583.15 874.52 561.73 889.82 634.15C889.82 634.15 936.74 783.06 1009.15 767.76C1081.56 752.46 1073.4 628.07 1073.4 628.07Z" fill="url(#paint1_linear)"/>
<path d="M441.18 311.08V300.08C441.18 300.08 489.18 273.08 528.18 300.08V310.08L441.18 311.08Z" fill="#535461"/>
<path d="M878.18 311.08V300.08C878.18 300.08 926.18 273.08 965.18 300.08V310.08L878.18 311.08Z" fill="#535461"/>
<path opacity="0.1" d="M441.18 311.08V300.08C441.18 300.08 489.18 273.08 528.18 300.08V310.08L441.18 311.08Z" fill="black"/>
<path opacity="0.1" d="M878.18 311.08V300.08C878.18 300.08 926.18 273.08 965.18 300.08V310.08L878.18 311.08Z" fill="black"/>
<path d="M585.18 310.08H538.18C538.18 310.08 526.18 296.08 486.18 297.08C446.18 298.08 438.18 310.08 438.18 310.08C438.18 310.08 398.68 336.58 389.68 369.58C389.68 369.58 341.18 515.08 340.18 629.08C339.18 743.08 383.18 759.08 406.18 762.08C429.18 765.08 470.18 761.08 510.18 660.08L527.18 601.08C527.18 601.08 530.18 566.08 566.18 588.08C602.18 610.08 634.18 576.08 634.18 576.08H769.18C769.18 576.08 814.18 604.08 855.18 582.08C855.18 582.08 871.18 561.08 886.18 632.08C886.18 632.08 932.18 778.08 1003.18 763.08C1074.18 748.08 1066.18 626.08 1066.18 626.08C1066.18 626.08 1056.68 439.58 1017.68 373.58C1017.68 373.58 980.18 305.08 955.18 302.08C955.18 302.08 901.18 292.08 880.18 301.08L868.18 311.08L585.18 310.08Z" fill="#535461"/>
<path d="M476.18 495.08C524.229 495.08 563.18 456.129 563.18 408.08C563.18 360.031 524.229 321.08 476.18 321.08C428.131 321.08 389.18 360.031 389.18 408.08C389.18 456.129 428.131 495.08 476.18 495.08Z" fill="#E2E2EC"/>
<path d="M930.18 495.08C978.229 495.08 1017.18 456.129 1017.18 408.08C1017.18 360.031 978.229 321.08 930.18 321.08C882.131 321.08 843.18 360.031 843.18 408.08C843.18 456.129 882.131 495.08 930.18 495.08Z" fill="#E2E2EC"/>
<path d="M491.34 388.68L479.74 398.94C478.758 399.805 477.494 400.282 476.185 400.282C474.876 400.282 473.612 399.805 472.63 398.94L461.01 388.68C460.442 388.179 459.986 387.564 459.672 386.875C459.358 386.185 459.194 385.437 459.19 384.68V356.45C459.193 355.025 459.761 353.659 460.769 352.652C461.778 351.645 463.145 351.08 464.57 351.08H487.82C488.527 351.079 489.227 351.217 489.88 351.487C490.534 351.757 491.127 352.153 491.627 352.653C492.127 353.153 492.523 353.746 492.793 354.4C493.063 355.053 493.201 355.753 493.2 356.46V384.66C493.194 385.424 493.024 386.177 492.704 386.871C492.383 387.564 491.918 388.181 491.34 388.68Z" fill="#535461"/>
<path d="M491.34 427.47L479.74 417.22C478.758 416.355 477.494 415.878 476.185 415.878C474.876 415.878 473.612 416.355 472.63 417.22L461.01 427.48C460.442 427.981 459.986 428.596 459.672 429.285C459.358 429.975 459.194 430.723 459.19 431.48V459.68C459.189 460.387 459.327 461.087 459.597 461.74C459.867 462.394 460.263 462.987 460.763 463.487C461.263 463.987 461.856 464.383 462.51 464.653C463.163 464.923 463.863 465.061 464.57 465.06H487.82C488.526 465.061 489.225 464.923 489.878 464.654C490.531 464.385 491.124 463.99 491.624 463.491C492.123 462.992 492.52 462.4 492.79 461.747C493.061 461.095 493.2 460.396 493.2 459.69V431.49C493.194 430.726 493.024 429.973 492.704 429.279C492.383 428.586 491.918 427.969 491.34 427.47Z" fill="#535461"/>
<path d="M456.79 423.26L467.05 411.64C467.915 410.658 468.392 409.394 468.392 408.085C468.392 406.776 467.915 405.512 467.05 404.53L456.79 392.91C456.289 392.342 455.674 391.887 454.984 391.573C454.295 391.259 453.547 391.095 452.79 391.09H424.59C423.165 391.093 421.799 391.661 420.792 392.669C419.785 393.678 419.22 395.045 419.22 396.47V419.72C419.219 420.427 419.357 421.127 419.627 421.78C419.897 422.434 420.293 423.027 420.793 423.527C421.293 424.027 421.886 424.423 422.54 424.693C423.193 424.963 423.893 425.101 424.6 425.1H452.8C453.557 425.092 454.304 424.924 454.992 424.607C455.679 424.29 456.292 423.831 456.79 423.26Z" fill="#535461"/>
<path d="M495.58 423.26L485.34 411.63C484.473 410.649 483.995 409.384 483.995 408.075C483.995 406.766 484.473 405.501 485.34 404.52L495.6 392.9C496.101 392.332 496.716 391.876 497.405 391.562C498.095 391.248 498.843 391.084 499.6 391.08H527.8C528.507 391.079 529.207 391.217 529.86 391.487C530.514 391.757 531.107 392.153 531.607 392.653C532.107 393.153 532.503 393.746 532.773 394.4C533.043 395.053 533.181 395.753 533.18 396.46V419.71C533.181 420.416 533.043 421.115 532.774 421.768C532.505 422.421 532.11 423.014 531.611 423.514C531.112 424.013 530.52 424.41 529.867 424.68C529.215 424.951 528.516 425.09 527.81 425.09H499.61C498.847 425.089 498.093 424.925 497.398 424.609C496.703 424.294 496.083 423.834 495.58 423.26Z" fill="#535461"/>
<path d="M461.18 344.08H491.18L476.18 331.08L461.18 344.08Z" stroke="#535461" stroke-width="2" stroke-miterlimit="10"/>
<path d="M461.18 472.08H491.18L476.18 485.08L461.18 472.08Z" stroke="#535461" stroke-width="2" stroke-miterlimit="10"/>
<path d="M412.18 393.08V423.08L399.18 408.08L412.18 393.08Z" stroke="#535461" stroke-width="2" stroke-miterlimit="10"/>
<path d="M540.18 393.08V423.08L553.18 408.08L540.18 393.08Z" stroke="#535461" stroke-width="2" stroke-miterlimit="10"/>
<path d="M594.18 566.08C628.974 566.08 657.18 537.874 657.18 503.08C657.18 468.286 628.974 440.08 594.18 440.08C559.386 440.08 531.18 468.286 531.18 503.08C531.18 537.874 559.386 566.08 594.18 566.08Z" fill="#E2E2EC"/>
<path d="M592.18 535.08C615.376 535.08 634.18 516.276 634.18 493.08C634.18 469.884 615.376 451.08 592.18 451.08C568.984 451.08 550.18 469.884 550.18 493.08C550.18 516.276 568.984 535.08 592.18 535.08Z" fill="#535461"/>
<path d="M812.18 566.08C846.974 566.08 875.18 537.874 875.18 503.08C875.18 468.286 846.974 440.08 812.18 440.08C777.386 440.08 749.18 468.286 749.18 503.08C749.18 537.874 777.386 566.08 812.18 566.08Z" fill="#E2E2EC"/>
<path d="M810.18 535.08C833.376 535.08 852.18 516.276 852.18 493.08C852.18 469.884 833.376 451.08 810.18 451.08C786.984 451.08 768.18 469.884 768.18 493.08C768.18 516.276 786.984 535.08 810.18 535.08Z" fill="#535461"/>
<path opacity="0.1" d="M592.18 521.08C607.644 521.08 620.18 508.544 620.18 493.08C620.18 477.616 607.644 465.08 592.18 465.08C576.716 465.08 564.18 477.616 564.18 493.08C564.18 508.544 576.716 521.08 592.18 521.08Z" stroke="black" stroke-width="2" stroke-miterlimit="10"/>
<path opacity="0.1" d="M810.18 521.08C825.644 521.08 838.18 508.544 838.18 493.08C838.18 477.616 825.644 465.08 810.18 465.08C794.716 465.08 782.18 477.616 782.18 493.08C782.18 508.544 794.716 521.08 810.18 521.08Z" stroke="black" stroke-width="2" stroke-miterlimit="10"/>
<path d="M705.18 528.08C715.121 528.08 723.18 520.021 723.18 510.08C723.18 500.139 715.121 492.08 705.18 492.08C695.239 492.08 687.18 500.139 687.18 510.08C687.18 520.021 695.239 528.08 705.18 528.08Z" fill="#E2E2EC"/>
<path d="M677.67 453.93C679.84 453.93 681.6 452.171 681.6 450C681.6 447.83 679.84 446.07 677.67 446.07C675.5 446.07 673.74 447.83 673.74 450C673.74 452.171 675.5 453.93 677.67 453.93Z" fill="#E2E2EC"/>
<path d="M692.39 453.93C694.56 453.93 696.32 452.171 696.32 450C696.32 447.83 694.56 446.07 692.39 446.07C690.22 446.07 688.46 447.83 688.46 450C688.46 452.171 690.22 453.93 692.39 453.93Z" fill="#E2E2EC"/>
<path d="M690.43 472.58C692.6 472.58 694.36 470.82 694.36 468.65C694.36 466.479 692.6 464.72 690.43 464.72C688.26 464.72 686.5 466.479 686.5 468.65C686.5 470.82 688.26 472.58 690.43 472.58Z" fill="#E2E2EC"/>
<path d="M704.18 473.08C706.389 473.08 708.18 471.289 708.18 469.08C708.18 466.871 706.389 465.08 704.18 465.08C701.971 465.08 700.18 466.871 700.18 469.08C700.18 471.289 701.971 473.08 704.18 473.08Z" fill="#E2E2EC"/>
<path d="M717.91 472.58C720.08 472.58 721.84 470.82 721.84 468.65C721.84 466.479 720.08 464.72 717.91 464.72C715.739 464.72 713.98 466.479 713.98 468.65C713.98 470.82 715.739 472.58 717.91 472.58Z" fill="#E2E2EC"/>
<path d="M684.54 463.75C686.71 463.75 688.47 461.99 688.47 459.82C688.47 457.65 686.71 455.89 684.54 455.89C682.369 455.89 680.61 457.65 680.61 459.82C680.61 461.99 682.369 463.75 684.54 463.75Z" fill="#E2E2EC"/>
<path d="M697.18 464.08C699.389 464.08 701.18 462.289 701.18 460.08C701.18 457.871 699.389 456.08 697.18 456.08C694.971 456.08 693.18 457.871 693.18 460.08C693.18 462.289 694.971 464.08 697.18 464.08Z" fill="#E2E2EC"/>
<path d="M710.18 464.08C712.389 464.08 714.18 462.289 714.18 460.08C714.18 457.871 712.389 456.08 710.18 456.08C707.971 456.08 706.18 457.871 706.18 460.08C706.18 462.289 707.971 464.08 710.18 464.08Z" fill="#E2E2EC"/>
<path d="M723.8 463.75C725.971 463.75 727.73 461.99 727.73 459.82C727.73 457.65 725.971 455.89 723.8 455.89C721.63 455.89 719.87 457.65 719.87 459.82C719.87 461.99 721.63 463.75 723.8 463.75Z" fill="#E2E2EC"/>
<path d="M704.18 454.08C706.389 454.08 708.18 452.289 708.18 450.08C708.18 447.871 706.389 446.08 704.18 446.08C701.971 446.08 700.18 447.871 700.18 450.08C700.18 452.289 701.971 454.08 704.18 454.08Z" fill="#E2E2EC"/>
<path d="M718.18 454.08C720.389 454.08 722.18 452.289 722.18 450.08C722.18 447.871 720.389 446.08 718.18 446.08C715.971 446.08 714.18 447.871 714.18 450.08C714.18 452.289 715.971 454.08 718.18 454.08Z" fill="#E2E2EC"/>
<path d="M729.69 453.93C731.86 453.93 733.62 452.171 733.62 450C733.62 447.83 731.86 446.07 729.69 446.07C727.52 446.07 725.76 447.83 725.76 450C725.76 452.171 727.52 453.93 729.69 453.93Z" fill="#E2E2EC"/>
<path d="M560.68 317.08H555.68C550.986 317.08 547.18 320.886 547.18 325.58V346.58C547.18 351.274 550.986 355.08 555.68 355.08H560.68C565.374 355.08 569.18 351.274 569.18 346.58V325.58C569.18 320.886 565.374 317.08 560.68 317.08Z" fill="#E2E2EC"/>
<path d="M852.68 317.08H847.68C842.986 317.08 839.18 320.886 839.18 325.58V346.58C839.18 351.274 842.986 355.08 847.68 355.08H852.68C857.374 355.08 861.18 351.274 861.18 346.58V325.58C861.18 320.886 857.374 317.08 852.68 317.08Z" fill="#E2E2EC"/>
<path d="M931.18 379.08C944.435 379.08 955.18 368.335 955.18 355.08C955.18 341.825 944.435 331.08 931.18 331.08C917.925 331.08 907.18 341.825 907.18 355.08C907.18 368.335 917.925 379.08 931.18 379.08Z" fill="#535461"/>
<path d="M880.18 430.08C893.435 430.08 904.18 419.335 904.18 406.08C904.18 392.825 893.435 382.08 880.18 382.08C866.925 382.08 856.18 392.825 856.18 406.08C856.18 419.335 866.925 430.08 880.18 430.08Z" fill="#535461"/>
<path d="M984.18 427.08C997.435 427.08 1008.18 416.335 1008.18 403.08C1008.18 389.825 997.435 379.08 984.18 379.08C970.925 379.08 960.18 389.825 960.18 403.08C960.18 416.335 970.925 427.08 984.18 427.08Z" fill="#535461"/>
<path d="M935.18 480.08C948.435 480.08 959.18 469.335 959.18 456.08C959.18 442.825 948.435 432.08 935.18 432.08C921.925 432.08 911.18 442.825 911.18 456.08C911.18 469.335 921.925 480.08 935.18 480.08Z" fill="#535461"/>
<path d="M806.43 303.08H600.93C588.918 303.08 579.18 312.818 579.18 324.83V414.33C579.18 426.342 588.918 436.08 600.93 436.08H806.43C818.442 436.08 828.18 426.342 828.18 414.33V324.83C828.18 312.818 818.442 303.08 806.43 303.08Z" fill="#E2E2EC"/>
<path d="M916.68 365.08L930.68 341.08L945.68 365.08H916.68Z" stroke="#E2E2EC" stroke-width="2" stroke-miterlimit="10"/>
<path d="M892.68 395.08H867.68V417.08H892.68V395.08Z" stroke="#E2E2EC" stroke-width="2" stroke-miterlimit="10"/>
<path d="M984.18 417.08C991.912 417.08 998.18 410.812 998.18 403.08C998.18 395.348 991.912 389.08 984.18 389.08C976.448 389.08 970.18 395.348 970.18 403.08C970.18 410.812 976.448 417.08 984.18 417.08Z" stroke="#E2E2EC" stroke-width="2" stroke-miterlimit="10"/>
<path d="M923.68 444.83L946.18 467.33" stroke="#E2E2EC" stroke-width="2" stroke-miterlimit="10"/>
<path d="M946.68 444.83L923.68 466.83" stroke="#E2E2EC" stroke-width="2" stroke-miterlimit="10"/>
<path d="M575.99 756.63C578.99 754.34 581.84 751.63 582.71 748.36C583.156 746.623 582.918 744.781 582.045 743.214C581.172 741.648 579.731 740.476 578.02 739.94C573.71 738.6 569.11 741.03 565.61 743.49C562.11 745.95 558.12 748.76 553.55 748.24C558.28 744.82 560.55 739.24 559.23 734.24C559.008 733.151 558.456 732.156 557.65 731.39C555.26 729.3 550.92 730.2 548.06 731.84C538.95 737.07 536.41 747.16 536.36 756.25C535.44 752.97 536.22 749.56 536.19 746.19C536.16 742.82 535.04 739.1 531.56 737.29C529.334 736.328 526.924 735.867 524.5 735.94C520.41 735.82 515.84 736.15 513.05 738.6C509.58 741.6 510.48 746.73 513.5 750.07C516.52 753.41 521.12 755.51 525.35 757.82C528.58 759.58 531.84 761.63 533.82 764.41C534.073 764.779 534.285 765.174 534.45 765.59H560.12C565.76 763.271 571.09 760.261 575.99 756.63Z" fill="#6C63FF"/>
<path d="M1108.28 736.64C1108.28 736.64 1103.63 750.64 1098.2 754.48C1092.77 758.32 1098.2 766.89 1112.2 763.01C1126.2 759.13 1127.71 758.36 1133.91 746.73C1140.11 735.1 1139.34 732 1139.34 732C1139.34 732 1134.69 725.8 1132.34 726.57C1129.99 727.34 1108.28 736.64 1108.28 736.64Z" fill="#603556"/>
<path d="M1079.59 388.46C1079.59 388.46 1016.78 423.35 1031.51 413.27C1041.41 406.5 1040.81 388.53 1039.35 377.46C1038.89 374.01 1038.35 371.23 1038.02 369.67C1037.83 368.79 1037.71 368.3 1037.71 368.3C1037.71 368.3 1068.17 350.02 1066.46 361.01C1066.46 361.11 1066.46 361.21 1066.41 361.31C1066.26 362.044 1066.19 362.791 1066.18 363.54C1065.97 374.84 1079.59 388.46 1079.59 388.46Z" fill="#C87486"/>
<path d="M1011.34 422.58C1011.34 422.58 1005.91 431.11 996.61 422.58C987.31 414.05 957.84 388.46 957.84 388.46C957.84 388.46 944.66 355.89 935.34 362.1C926.02 368.31 946.2 398.55 946.2 398.55L990.4 445.85C990.4 445.85 991.95 455.93 1008.24 450.5C1024.53 445.07 1036.16 440.42 1036.16 440.42L1011.34 422.58Z" fill="#C87486"/>
<path d="M1137.75 729.66L1106.75 740.52L1105.44 740.9L1105.98 738.19C1110.63 714.93 1081.98 661.42 1076.51 657.54C1071.04 653.66 1066.41 631.15 1066.41 631.15C1066.41 631.15 1056.25 579.97 1054.7 569.15C1054.31 566.44 1052.89 564.28 1051.17 561.3C1048.58 556.784 1046.56 551.959 1045.17 546.94C1041.76 534.94 1033.81 513.64 1036.73 501.59C1037.32 499.14 1034.91 505.4 1035.73 503.01L1036.2 501.69L1098.98 493.15C1100.02 494.415 1101 495.733 1101.9 497.1C1106.65 504.15 1106.34 504.15 1107.34 517.55C1106.91 525.634 1105.77 533.665 1103.93 541.55C1095.48 579.18 1114.54 629.55 1114.54 629.55C1114.54 629.55 1130.05 665.22 1126.95 679.95C1123.85 694.68 1137.75 729.66 1137.75 729.66Z" fill="#555388"/>
<path opacity="0.1" d="M1101.9 497.09C1092.61 508.74 1033.1 517.79 1033.84 514.09C1034.06 512.813 1033.97 511.501 1033.56 510.27C1034.15 507.812 1034.87 505.386 1035.7 503L1036.17 501.68L1098.98 493.15C1100.02 494.412 1101 495.727 1101.9 497.09Z" fill="black"/>
<path d="M1074.94 372.15C1074.94 372.15 1049.34 379.93 1042.34 397.77C1035.34 415.61 1047.65 416.58 1047.65 416.58C1047.65 416.58 1025.65 474.58 1031.48 504.78C1031.48 504.78 1034.58 508.66 1033.81 512.53C1033.04 516.4 1098.17 506.33 1102.81 493.92C1107.45 481.51 1081.1 459.03 1088.08 438.09C1095.06 417.15 1074.94 372.15 1074.94 372.15Z" fill="#DFE5EE"/>
<path opacity="0.1" d="M1066.41 362.87C1066.37 363.103 1066.29 363.329 1066.18 363.54C1065.12 365.54 1061.75 363.35 1062.92 366.35C1058.42 370.87 1057 379.92 1050.13 379.92C1046.39 379.931 1042.7 379.093 1039.34 377.47C1038.88 374.02 1038.34 371.24 1038.01 369.68C1041.01 367.9 1065.01 354 1066.45 361.02C1066.56 361.633 1066.55 362.262 1066.41 362.87Z" fill="black"/>
<path d="M1050.12 378.38C1063.82 378.38 1074.93 367.272 1074.93 353.57C1074.93 339.868 1063.82 328.76 1050.12 328.76C1036.42 328.76 1025.31 339.868 1025.31 353.57C1025.31 367.272 1036.42 378.38 1050.12 378.38Z" fill="#C87486"/>
<path opacity="0.1" d="M1074.94 432.66L1031.52 452.82C1031.52 452.82 1002.05 430.34 1006.7 424.15C1011.35 417.96 1047.8 400.15 1047.8 400.15C1047.8 400.15 1085.02 407.85 1074.94 432.66Z" fill="black"/>
<path d="M1074.94 431.15L1031.52 451.31C1031.52 451.31 1002.05 428.82 1006.71 422.62C1011.37 416.42 1047.81 398.62 1047.81 398.62C1047.81 398.62 1085.02 406.3 1074.94 431.15Z" fill="#DFE5EE"/>
<path opacity="0.1" d="M1042.96 342.94C1039.17 342.56 1035.25 342.14 1031.96 340.23C1030.05 339.13 1028.3 337.31 1028.24 335.1C1028.17 332.5 1030.36 330.47 1032.37 328.82C1033.67 327.616 1035.18 326.651 1036.82 325.97C1038.97 325.22 1041.32 325.49 1043.59 325.3C1050.27 324.74 1056.25 320.2 1062.96 320.24C1067.89 320.24 1072.42 322.76 1076.71 325.19C1080.14 327.13 1083.95 329.59 1084.52 333.49C1084.56 334.748 1084.66 336.003 1084.83 337.25C1085.54 340.03 1088.53 341.65 1089.6 344.31C1090.77 347.22 1089.29 350.59 1087.13 352.86C1084.97 355.13 1082.13 356.69 1079.86 358.81C1077.75 360.763 1076.08 363.139 1074.96 365.783C1073.84 368.427 1073.28 371.278 1073.34 374.15C1073.39 374.529 1073.33 374.914 1073.17 375.26C1073 375.468 1072.78 375.637 1072.54 375.757C1072.3 375.878 1072.04 375.947 1071.77 375.96C1069.3 376.42 1066.25 376.67 1064.77 374.63C1063.29 372.59 1064.46 369.19 1062.77 367.18C1060.62 364.59 1056.1 366.65 1053.19 364.95C1052.21 364.314 1051.44 363.398 1050.99 362.32C1048.59 357.15 1051.34 353.09 1052.34 348.15C1053.51 342.38 1047.03 343.35 1042.96 342.94Z" fill="black"/>
<path d="M1043.74 342.15C1039.95 341.77 1036.03 341.35 1032.74 339.44C1030.83 338.34 1029.08 336.52 1029.02 334.31C1028.95 331.71 1031.14 329.68 1033.15 328.03C1034.45 326.825 1035.96 325.861 1037.6 325.18C1039.75 324.43 1042.1 324.7 1044.37 324.51C1051.05 323.95 1057.03 319.41 1063.74 319.45C1068.67 319.45 1073.2 321.97 1077.49 324.4C1080.92 326.34 1084.73 328.8 1085.3 332.7C1085.34 333.958 1085.44 335.213 1085.61 336.46C1086.32 339.24 1089.31 340.86 1090.38 343.52C1091.55 346.43 1090.07 349.8 1087.91 352.07C1085.75 354.34 1082.91 355.9 1080.64 358.02C1078.53 359.977 1076.85 362.359 1075.73 365.01C1074.6 367.661 1074.05 370.521 1074.11 373.4C1074.16 373.779 1074.1 374.164 1073.94 374.51C1073.77 374.717 1073.55 374.887 1073.31 375.007C1073.07 375.128 1072.81 375.197 1072.54 375.21C1070.07 375.67 1067.02 375.92 1065.54 373.88C1064.06 371.84 1065.23 368.44 1063.54 366.43C1061.39 363.84 1056.87 365.9 1053.96 364.2C1052.98 363.564 1052.21 362.648 1051.76 361.57C1049.34 356.39 1052.1 352.3 1053.1 347.31C1054.28 341.6 1047.8 342.58 1043.74 342.15Z" fill="#603456"/>
</g>
<defs>
<linearGradient id="paint0_linear" x1="1036.12" y1="769.05" x2="1036.12" y2="314.41" gradientUnits="userSpaceOnUse">
<stop stop-color="#808080" stop-opacity="0.25"/>
<stop offset="0.54" stop-color="#808080" stop-opacity="0.12"/>
<stop offset="1" stop-color="#808080" stop-opacity="0.1"/>
</linearGradient>
<linearGradient id="paint1_linear" x1="432170" y1="343427" x2="432170" y2="107676" gradientUnits="userSpaceOnUse">
<stop stop-color="#808080" stop-opacity="0.25"/>
<stop offset="0.54" stop-color="#808080" stop-opacity="0.12"/>
<stop offset="1" stop-color="#808080" stop-opacity="0.1"/>
</linearGradient>
<clipPath id="clip0">
<rect width="976.68" height="840.3" fill="white" transform="translate(232 92)"/>
</clipPath>
</defs>
</svg>
