<svg xmlns="http://www.w3.org/2000/svg" viewBox="0 0 64 64" width="64px" height="64px"><path fill="#ed7899" d="M32 4A28 28 0 1 0 32 60A28 28 0 1 0 32 4Z"/><path fill="none" stroke="#f283a5" stroke-linecap="round" stroke-miterlimit="10" stroke-width="6" d="M40.5,8.488 C47.952,11.19,53.765,17.34,56.003,25"/><path fill="none" stroke="#e0678f" stroke-linecap="round" stroke-miterlimit="10" stroke-width="6" d="M7.75,38 C10.44,48.905,20.264,57,32,57"/><path fill="none" stroke="#8d6c9f" stroke-linecap="round" stroke-miterlimit="10" stroke-width="2" d="M30.072 53.916L29.897 55.908M25.191 52.923L24.573 54.825M20.658 50.857L19.628 52.572M13.538 43.982L11.861 45.071M11.316 39.524L9.436 40.208M32 60C16.56 60 4 47.44 4 32S16.56 4 32 4s28 12.56 28 28S47.44 60 32 60z"/><path fill="none" stroke="#8d6c9f" stroke-miterlimit="10" stroke-width="2" d="M44.336 57.15c-.308-2.025-5.12-31.941-23.152-50.992M13.155 52.699c1.553-2.919 14.93-25.905 46.536-16.418"/><path fill="none" stroke="#8d6c9f" stroke-linecap="round" stroke-miterlimit="10" stroke-width="2" d="M4.179 28.826C6.487 29.001 30.61 30.547 45 19.717M48 17.09c.523-.519 1.018-1.069 1.5-1.633"/></svg>