<svg xmlns="http://www.w3.org/2000/svg" viewBox="0 0 64 64" width="64px" height="64px"><rect width="50" height="50" x="7" y="7" fill="#85cbf8" rx="6" ry="6"/><path fill="#faefde" d="M49.49,24.12l-.69.28a7.81,7.81,0,0,0,.94-2,.88.88,0,0,0-1.28-1,13,13,0,0,1-3.67,1.48,7.81,7.81,0,0,0-13.15,5.7q0,.31,0,.62A18.88,18.88,0,0,1,19.1,22.39a.88.88,0,0,0-1.44.11,7.82,7.82,0,0,0,.09,8,.88.88,0,0,0-1.21.8v.1a7.83,7.83,0,0,0,3,6.11A.88.88,0,0,0,19,38.59a7.8,7.8,0,0,0,5,5,13.18,13.18,0,0,1-7.83,1.51.88.88,0,0,0-.58,1.61A20.52,20.52,0,0,0,26.69,50,19.75,19.75,0,0,0,42,43.28a21.29,21.29,0,0,0,5.3-13.87c0-.16,0-.31,0-.47a14.83,14.83,0,0,0,3.3-3.53.88.88,0,0,0-1.08-1.29Z"/><path fill="#9fddff" d="M11,7H53a4,4,0,0,1,4,4v0a3,3,0,0,1-3,3H10a3,3,0,0,1-3-3v0a4,4,0,0,1,4-4Z"/><path fill="#8d6c9f" d="M51,6H13a7,7,0,0,0-7,7V51a7,7,0,0,0,7,7H51a7,7,0,0,0,7-7V13A7,7,0,0,0,51,6Zm5,45a5,5,0,0,1-5,5H13a5,5,0,0,1-5-5V13a5,5,0,0,1,5-5H51a5,5,0,0,1,5,5Z"/><path fill="#8d6c9f" d="M17 16a1 1 0 0 0 1-1V13a1 1 0 0 0-2 0v2A1 1 0 0 0 17 16zM12 12a1 1 0 0 0-1 1v2a1 1 0 0 0 2 0V13A1 1 0 0 0 12 12zM32 16a1 1 0 0 0 1-1V13a1 1 0 0 0-2 0v2A1 1 0 0 0 32 16zM37 16a1 1 0 0 0 1-1V13a1 1 0 0 0-2 0v2A1 1 0 0 0 37 16zM42 16a1 1 0 0 0 1-1V13a1 1 0 0 0-2 0v2A1 1 0 0 0 42 16zM47 16a1 1 0 0 0 1-1V13a1 1 0 0 0-2 0v2A1 1 0 0 0 47 16zM52 16a1 1 0 0 0 1-1V13a1 1 0 0 0-2 0v2A1 1 0 0 0 52 16zM22 16a1 1 0 0 0 1-1V13a1 1 0 0 0-2 0v2A1 1 0 0 0 22 16zM27 16a1 1 0 0 0 1-1V13a1 1 0 0 0-2 0v2A1 1 0 0 0 27 16zM49.49 24.12l-.69.28a7.81 7.81 0 0 0 .94-2 .88.88 0 0 0-1.28-1 13 13 0 0 1-3.67 1.48 7.81 7.81 0 0 0-13.15 5.7q0 .31 0 .62A18.88 18.88 0 0 1 19.1 22.39a.88.88 0 0 0-1.44.11 7.82 7.82 0 0 0 .09 8 .88.88 0 0 0-1.21.8v.1a7.83 7.83 0 0 0 3 6.11A.88.88 0 0 0 19 38.59a7.8 7.8 0 0 0 5 5 13.18 13.18 0 0 1-7.83 1.51.88.88 0 0 0-.58 1.61A20.52 20.52 0 0 0 26.69 50 19.75 19.75 0 0 0 42 43.28a21.29 21.29 0 0 0 5.3-13.87c0-.16 0-.31 0-.47a14.83 14.83 0 0 0 3.3-3.53.88.88 0 0 0-1.08-1.29zM45.87 27.8a.88.88 0 0 0-.36.75c0 .28 0 .57 0 .86A18.84 18.84 0 0 1 19.61 46.86a14.66 14.66 0 0 0 7.25-3 .88.88 0 0 0-.53-1.57 6.05 6.05 0 0 1-5.08-2.93 7.84 7.84 0 0 0 1.95-.27.88.88 0 0 0-.06-1.71 6.06 6.06 0 0 1-4.7-4.63 7.81 7.81 0 0 0 2.08.35.85.85 0 0 0 .86-.61.88.88 0 0 0-.35-1 6.06 6.06 0 0 1-2.4-6.92 20.62 20.62 0 0 0 14 6.51.86.86 0 0 0 .72-.31.88.88 0 0 0 .18-.76 6.06 6.06 0 0 1 10.31-5.52.88.88 0 0 0 .81.26 14.78 14.78 0 0 0 2.1-.58 6.12 6.12 0 0 1-1.37 1.12A.88.88 0 0 0 46 26.88q.63-.08 1.25-.2A13 13 0 0 1 45.87 27.8z"/></svg>