<svg xmlns="http://www.w3.org/2000/svg" viewBox="0 0 64 64" width="64px" height="64px"><rect width="50" height="50" x="7" y="7" fill="#ed7899" rx="6" ry="6" transform="rotate(180 32 32)"/><rect width="50" height="50" x="7" y="7" fill="#3a69ed" rx="6" ry="6"/><path fill="#8f34bf" d="M57,51V19.34A54.29,54.29,0,0,0,43.85,7H13a6,6,0,0,0-6,6V51a6,6,0,0,0,6,6H51A6,6,0,0,0,57,51Z"/><path fill="#bb52ce" d="M57,51V28.49A49.19,49.19,0,0,0,33.4,7H13a6,6,0,0,0-6,6V51a6,6,0,0,0,6,6H51A6,6,0,0,0,57,51Z"/><path fill="#e0678f" d="M57,51V42.67A44,44,0,0,0,14,8a44.49,44.49,0,0,0-4.65.25A6,6,0,0,0,7,13V51a6,6,0,0,0,6,6H51A6,6,0,0,0,57,51Z"/><path fill="#ff9800" d="M14,14a38.17,38.17,0,0,0-7,.65V51a6,6,0,0,0,6,6H51a6,6,0,0,0,.67,0A38.3,38.3,0,0,0,52,52,38,38,0,0,0,14,14Z"/><path fill="#f4b998" d="M14,20a32.08,32.08,0,0,0-7,.78V51a6,6,0,0,0,6,6H45.61A32.23,32.23,0,0,0,46,52,32,32,0,0,0,14,20Z"/><path fill="#f6d397" d="M14,26a26,26,0,0,0-7,1V51a6,6,0,0,0,6,6H39.51A26,26,0,0,0,14,26Z"/><path fill="#f9e3ae" d="M14,32a19.91,19.91,0,0,0-7,1.28V51a6,6,0,0,0,6,6H33.34A19.93,19.93,0,0,0,14,32Z"/><path fill="#faefde" d="M14,38a13.92,13.92,0,0,0-7,1.89V51a6,6,0,0,0,6,6H27.06A14,14,0,0,0,14,38Z"/><path fill="#f9e3ae" d="M32 19A13 13 0 1 0 32 45A13 13 0 1 0 32 19Z"/><path fill="#bbdef9" d="M32 23A9 9 0 1 0 32 41A9 9 0 1 0 32 23Z"/><path fill="#d2edff" d="M32 27A5 5 0 1 0 32 37A5 5 0 1 0 32 27Z"/><path fill="#f3f3f3" d="M30 27A3 3 0 1 0 30 33 3 3 0 1 0 30 27zM35.5 34A1.5 1.5 0 1 0 35.5 37 1.5 1.5 0 1 0 35.5 34z"/><path fill="#85cbf8" d="M48 14A2 2 0 1 0 48 18A2 2 0 1 0 48 14Z"/><path fill="#8d6c9f" d="M32,46A14,14,0,1,0,18,32,14,14,0,0,0,32,46Zm0-26A12,12,0,1,1,20,32,12,12,0,0,1,32,20Z"/><path fill="#8d6c9f" d="M32,42A10,10,0,1,0,22,32,10,10,0,0,0,32,42Zm0-18a8,8,0,1,1-8,8A8,8,0,0,1,32,24Z"/><path fill="#f9e3ae" d="M48,13a3,3,0,1,0,3,3A3,3,0,0,0,48,13Zm0,4.47A1.47,1.47,0,1,1,49.47,16,1.47,1.47,0,0,1,48,17.47Z"/><path fill="#8d6c9f" d="M51,6H13a7,7,0,0,0-7,7V51a7,7,0,0,0,7,7H51a7,7,0,0,0,7-7V13A7,7,0,0,0,51,6Zm5,45a5,5,0,0,1-5,5H13a5,5,0,0,1-5-5V13a5,5,0,0,1,5-5H51a5,5,0,0,1,5,5Z"/><path fill="#8d6c9f" d="M17 49a1 1 0 0 0-1 1v2a1 1 0 0 0 2 0V50A1 1 0 0 0 17 49zM12 49a1 1 0 0 0-1 1v2a1 1 0 0 0 2 0V50A1 1 0 0 0 12 49zM32 49a1 1 0 0 0-1 1v2a1 1 0 0 0 2 0V50A1 1 0 0 0 32 49zM37 49a1 1 0 0 0-1 1v2a1 1 0 0 0 2 0V50A1 1 0 0 0 37 49zM42 49a1 1 0 0 0-1 1v2a1 1 0 0 0 2 0V50A1 1 0 0 0 42 49zM47 49a1 1 0 0 0-1 1v2a1 1 0 0 0 2 0V50A1 1 0 0 0 47 49zM52 49a1 1 0 0 0-1 1v2a1 1 0 0 0 2 0V50A1 1 0 0 0 52 49zM22 49a1 1 0 0 0-1 1v2a1 1 0 0 0 2 0V50A1 1 0 0 0 22 49zM27 49a1 1 0 0 0-1 1v2a1 1 0 0 0 2 0V50A1 1 0 0 0 27 49z"/></svg>