<svg width="120" height="120" viewBox="0 0 120 120" fill="none" xmlns="http://www.w3.org/2000/svg">
<rect x="30" y="43" width="30" height="30" fill="#A259FF"/>
<path d="M30 77H60V102C60 104.761 57.7614 107 55 107H35C32.2386 107 30 104.761 30 102V77Z" fill="#0ACF83"/>
<rect x="30" y="10" width="60" height="29" rx="14.5" fill="#F24E1E"/>
<path d="M46.875 3.75C35.5078 3.75 26.25 13.0078 26.25 24.375C26.25 30.5859 29.0332 36.167 33.3984 39.9463C26.9092 43.4326 22.5 50.2734 22.5 58.125C22.5 65.0977 26.001 71.2646 31.3037 75C26.001 78.7354 22.5 84.9023 22.5 91.875C22.5 103.242 31.7578 112.5 43.125 112.5C54.4922 112.5 63.75 103.242 63.75 91.875V45H76.875C88.2422 45 97.5 35.7422 97.5 24.375C97.5 13.0078 88.2422 3.75 76.875 3.75H46.875ZM46.875 11.25H76.875C84.1113 11.25 90 17.1387 90 24.375C90 31.6113 84.1113 37.5 76.875 37.5H46.875C39.6387 37.5 33.75 31.6113 33.75 24.375C33.75 17.1387 39.6387 11.25 46.875 11.25ZM43.125 45H56.25V71.25H43.125C35.8887 71.25 30 65.3613 30 58.125C30 50.8887 35.8887 45 43.125 45ZM78.75 45C70.459 45 63.75 51.709 63.75 60C63.75 68.291 70.459 75 78.75 75C87.041 75 93.75 68.291 93.75 60C93.75 51.709 87.041 45 78.75 45ZM43.125 78.75H56.25V91.875C56.25 99.1113 50.3613 105 43.125 105C35.8887 105 30 99.1113 30 91.875C30 84.6387 35.8887 78.75 43.125 78.75Z" fill="black"/>
<circle cx="79" cy="60" r="10" fill="#1ABCFE"/>
</svg>
