<svg xmlns="http://www.w3.org/2000/svg" viewBox="0 0 64 64" width="64px" height="64px"><rect width="50" height="50" x="7" y="7" fill="#6e91ce" rx="6" ry="6"/><path fill="#faefde" d="M46 35L39 35 39 31.06 41 28 47 29 47 21 38 22 32 27 32 35 25 35 25 42 32 42 32 57 39 57 39 42 46 42 46 35z"/><path fill="#80a6dd" d="M11,7H53a4,4,0,0,1,4,4v0a3,3,0,0,1-3,3H10a3,3,0,0,1-3-3v0a4,4,0,0,1,4-4Z"/><path fill="#8d6c9f" d="M51,6H13a7,7,0,0,0-7,7V51a7,7,0,0,0,7,7H51a7,7,0,0,0,7-7V13A7,7,0,0,0,51,6ZM33,56V41H26V36h7V31.29c0-5.82,3.21-9.29,8.6-9.29a42.16,42.16,0,0,1,4.72.27v5.39H42.63c-4.24,0-4.73,2.71-4.73,4.75V36h7.87L45,41H37.9V56Zm23-5a5,5,0,0,1-5,5H39.9V43h5.91a1,1,0,0,0,1-.84l1.14-7a1,1,0,0,0-1-1.16h-7V32.4c0-1.9.39-2.75,2.73-2.75h4.65a1,1,0,0,0,1-1V21.41a1,1,0,0,0-.9-1c-1.49-.15-4.44-.42-5.82-.42C35.12,20,31,24.43,31,31.29V34H25a1,1,0,0,0-1,1v7a1,1,0,0,0,1,1h6V56H13a5,5,0,0,1-5-5V13a5,5,0,0,1,5-5H51a5,5,0,0,1,5,5Z"/><path fill="#8d6c9f" d="M17 12a1 1 0 0 0-1 1v2a1 1 0 0 0 2 0V13A1 1 0 0 0 17 12zM12 12a1 1 0 0 0-1 1v2a1 1 0 0 0 2 0V13A1 1 0 0 0 12 12zM32 12a1 1 0 0 0-1 1v2a1 1 0 0 0 2 0V13A1 1 0 0 0 32 12zM37 12a1 1 0 0 0-1 1v2a1 1 0 0 0 2 0V13A1 1 0 0 0 37 12zM42 12a1 1 0 0 0-1 1v2a1 1 0 0 0 2 0V13A1 1 0 0 0 42 12zM47 12a1 1 0 0 0-1 1v2a1 1 0 0 0 2 0V13A1 1 0 0 0 47 12zM52 12a1 1 0 0 0-1 1v2a1 1 0 0 0 2 0V13A1 1 0 0 0 52 12zM22 12a1 1 0 0 0-1 1v2a1 1 0 0 0 2 0V13A1 1 0 0 0 22 12zM27 12a1 1 0 0 0-1 1v2a1 1 0 0 0 2 0V13A1 1 0 0 0 27 12z"/></svg>