<svg xmlns="http://www.w3.org/2000/svg" viewBox="0 0 64 64" width="64px" height="64px"><path fill="#b5c4e0" d="M32 14A31 18.174 0 1 0 32 50.348A31 18.174 0 1 0 32 14Z"/><path fill="#ced9ed" d="M32,14C14.879,14,1,22.137,1,32.174s13.879,18.174,31,18.174s31-8.137,31-18.174S49.121,14,32,14z M32,45.348c-15.322,0-26-6.942-26-13.174C6,25.943,16.678,19,32,19s26,6.943,26,13.174C58,38.405,47.322,45.348,32,45.348z"/><path fill="#8d6c9e" d="M42.435 26.435l-2.733 14.826h3.566l.71-4.043h2.219c4.645 0 7.172-1.076 8.117-5.062.813-3.425-1.264-5.72-4.69-5.72H42.435zM46.786 34.522h-2.305l1.018-5.391h2.778c2.302 0 2.786 1.038 2.666 2.193C50.634 34.297 48.78 34.522 46.786 34.522zM14.13 26.435l-2.733 14.826h3.566l.71-4.043h2.219c4.645 0 7.172-1.076 8.117-5.062.813-3.425-1.264-5.72-4.69-5.72H14.13zM18.481 34.522h-2.305l1.018-5.391h2.778c2.302 0 2.786 1.038 2.666 2.193C22.329 34.297 20.476 34.522 18.481 34.522zM39.311 27.415c-.762-.698-2.104-.98-4.105-.98h-3.153l1.124-5.391H29.64l-3.379 16.174h3.538l1.706-8.087h2.828c.902 0 1.497.151 1.775.449.276.301.337.867.177 1.686l-1.291 5.952h3.593l1.399-6.44C40.286 29.234 40.059 28.102 39.311 27.415z"/><path fill="#8d6c9f" d="M32 51.348c-17.645 0-32-8.602-32-19.174S14.355 13 32 13c17.645 0 32 8.602 32 19.174S49.645 51.348 32 51.348zM32 15C15.458 15 2 22.704 2 32.174s13.458 17.174 30 17.174 30-7.704 30-17.174S48.542 15 32 15zM58.693 50.667c-.33 0-.653-.163-.845-.463l-1.074-1.687c-.297-.466-.159-1.084.307-1.381.464-.296 1.083-.16 1.381.307l1.074 1.687c.297.466.159 1.084-.307 1.381C59.063 50.616 58.877 50.667 58.693 50.667zM54.446 53.004c-.375 0-.734-.212-.905-.573l-.854-1.809c-.235-.499-.021-1.096.478-1.331.501-.237 1.095-.021 1.331.478l.854 1.809c.235.499.021 1.096-.478 1.331C54.734 52.974 54.589 53.004 54.446 53.004zM49.969 54.817c-.414 0-.802-.26-.945-.673l-.654-1.891c-.181-.522.097-1.092.618-1.272s1.091.097 1.272.618l.654 1.891c.181.522-.097 1.092-.618 1.272C50.188 54.8 50.077 54.817 49.969 54.817zM45.344 56.171c-.451 0-.86-.308-.971-.766l-.47-1.944c-.13-.536.2-1.077.737-1.206.529-.131 1.076.2 1.206.737l.47 1.944c.13.536-.2 1.077-.737 1.206C45.501 56.162 45.422 56.171 45.344 56.171zM40.621 57.093c-.487 0-.914-.356-.988-.853l-.296-1.979c-.081-.546.295-1.055.842-1.137.552-.074 1.056.296 1.137.842l.296 1.979c.081.546-.295 1.055-.842 1.137C40.72 57.089 40.67 57.093 40.621 57.093zM35.841 57.596c-.522 0-.963-.406-.997-.936l-.129-1.996c-.035-.551.383-1.026.934-1.063.544-.027 1.027.383 1.063.934l.129 1.996c.035.551-.383 1.026-.934 1.063C35.885 57.595 35.862 57.596 35.841 57.596z"/><g><path fill="#8d6c9f" d="M21.862,21.161c-0.448,0-0.856-0.304-0.97-0.759c-0.133-0.536,0.194-1.079,0.729-1.212 c1.345-0.334,2.766-0.618,4.224-0.845c0.547-0.084,1.057,0.289,1.142,0.834c0.085,0.546-0.289,1.057-0.834,1.142 c-1.4,0.218-2.762,0.49-4.049,0.81C22.023,21.152,21.942,21.161,21.862,21.161z"/></g><g><path fill="#8d6c9f" d="M6.999,29.997c-0.163,0-0.328-0.04-0.481-0.124c-0.481-0.266-0.659-0.869-0.396-1.352 c0.109-0.2,2.767-4.925,11.424-8.091c0.516-0.191,1.092,0.077,1.282,0.596c0.19,0.519-0.077,1.093-0.596,1.282 c-7.884,2.883-10.334,7.133-10.357,7.175C7.692,29.812,7.35,29.997,6.999,29.997z"/></g></svg>