<?xml version="1.0" encoding="UTF-8"?><svg version="1.1" xmlns="http://www.w3.org/2000/svg" xmlns:xlink="http://www.w3.org/1999/xlink" viewBox="0 0 1200 800" width="1200" height="800" x="0px" y="0px">
              
              <!-- ITEM 0 -->
<g transform="translate(476.0 333.0) rotate(0.0 313.5 206.0) scale(0.5649600428180243 0.5656162952407233)">
<g transform="translate(-0.0 -0.0)">
<g clip-path="url(#clipPathId-collage-item-0)">
		<defs>
			<clipPath id="clipPathId-collage-item-0">
				<rect x="0.0" y="0.0" width="1109.813" height="728.409"/>
			</clipPath>
		</defs>


<g id="Тень_жёлтая-i0">
</g>
<g id="Мыло-i0">
	<g>
		<polygon points="489.877,427.948 523.144,425.992 506.928,346.752 473.261,346.752   " style="fill:#FF9B19;"/>
		<polygon points="613.233,275.616 641.112,419.054 664.778,417.663 640.919,301.078 636.069,275.616   " style="fill:#FF9B19;"/>
		<polygon points="552.892,424.242 602.553,421.322 587.293,346.752 537.034,346.752   " style="fill:#FF9B19;"/>
		<polygon points="528.187,425.695 547.849,424.539 531.931,346.752 512.031,346.752   " style="fill:#FF9B19;"/>
		<polygon points="607.596,421.025 636.069,419.351 619.176,336.806 592.397,346.752   " style="fill:#FF9B19;"/>
	</g>
	<g>
		<path d="M502.3,488.653l3.097,15.136l33.801,0.653l-3.22-15.735C523.781,488.706,512.388,488.69,502.3,488.653z" style="fill:#FF9B19;"/>
		<path d="M541.082,488.706l3.241,15.835l19.978,0.386l-3.323-16.239C554.197,488.697,547.543,488.704,541.082,488.706z    " style="fill:#FF9B19;"/>
		<path d="M466.192,488.296l1.487,14.763l32.595,0.63l-3.082-15.058C483.539,488.568,472.714,488.461,466.192,488.296z" style="fill:#FF9B19;"/>
		<path d="M566.079,488.68l3.345,16.346L619.882,506l-3.571-17.452C599.641,488.605,582.558,488.652,566.079,488.68z" style="fill:#FF9B19;"/>
		<path d="M670.833,422.315l12.473,60.951c13.117-0.063,25.186-0.125,35.622-0.184    c-6.094-22.826-11.779-43.717-17.014-62.652c-0.167,0.046-0.34,0.077-0.519,0.087L670.833,422.315z" style="fill:#FF9B19;"/>
		<path d="M485.847,433.193l-25.057,1.474l4.902,48.668c5.946,0.154,16.62,0.253,30.48,0.31L485.847,433.193z" style="fill:#FF9B19;"/>
		<path d="M700.567,415.558c-23.786-85.8-37.868-129.899-37.868-129.899c-7.379-3.727-14.643-6.879-21.78-9.52    l28.902,141.227L700.567,415.558z" style="fill:#FF9B19;"/>
		<path d="M451.494,312.51c-7.348,5.998-2.324,6.784-2.324,6.784l11.119,110.394l24.546-1.443L451.494,312.51z" style="fill:#FF9B19;"/>
		<path d="M621.411,488.53l3.595,17.569l28.93,0.559l-3.733-18.239C640.933,488.458,631.265,488.496,621.411,488.53z" style="fill:#FF9B19;"/>
		<path d="M608.609,425.974l11.778,57.552c9.719-0.034,19.372-0.07,28.793-0.109L637.082,424.3L608.609,425.974z" style="fill:#FF9B19;"/>
		<path d="M642.125,424.003l12.155,59.393c8.219-0.035,16.233-0.07,23.929-0.106l-12.418-60.679L642.125,424.003z" style="fill:#FF9B19;"/>
		<path d="M655.303,488.397l3.757,18.36l24.046,0.465l-3.875-18.934C671.741,488.324,663.71,488.361,655.303,488.397z" style="fill:#FF9B19;"/>
		<path d="M553.905,429.191l11.15,54.483c16.266-0.028,33.303-0.074,50.232-0.131l-11.721-57.273L553.905,429.191z" style="fill:#FF9B19;"/>
		<path d="M490.89,432.897l10.389,50.767c9.986,0.032,21.376,0.045,33.676,0.042l-10.798-52.765L490.89,432.897z" style="fill:#FF9B19;"/>
		<path d="M688.117,506.77c0.038,0.185,0.05,0.368,0.047,0.55l37.387,0.722c-1.795-6.808-3.558-13.463-5.29-19.966    c-8.475,0.047-20.951,0.115-35.931,0.188L688.117,506.77z" style="fill:#FF9B19;"/>
		<path d="M529.2,430.644l10.859,53.06c6.433-0.003,13.086-0.01,19.895-0.021l-11.091-54.195L529.2,430.644z" style="fill:#FF9B19;"/>
		<path d="M683.218,507.773c0.242,1.184,1.284,1.999,2.447,1.999c0.166,0,0.334-0.017,0.504-0.051    c1.168-0.239,1.973-1.257,1.995-2.401l-5.058-0.098L683.218,507.773z" style="fill:#FF9B19;"/>
		<path d="M654.164,507.773c0.242,1.184,1.284,1.999,2.447,1.999c0.166,0,0.334-0.017,0.504-0.051    c1.353-0.277,2.225-1.598,1.948-2.951l-0.003-0.013l-5.124-0.099L654.164,507.773z" style="fill:#FF9B19;"/>
	</g>
	<g>
		<path d="M498.839,373.375c0,0,45.662,102.953,98.633,19.61s9.423-125.925,9.423-125.925l-51.505,70.675    L498.839,373.375z" style="fill:#2568EF;"/>
	</g>
	<g>
		<path d="M507.078,392.329l13.249,26.798c2.194,4.438,8.273,5.056,11.316,1.15l31.519-40.462l-50.442,2.834    C507.913,382.919,504.944,388.013,507.078,392.329z" style="fill:#324A58;"/>
	</g>
	<g>
		<path d="M600.284,354.923l11.297,27.11c2.529,6.069-2.883,12.448-9.283,10.942l-44.991-10.589l29.822-30.041    C591.177,348.267,598.073,349.618,600.284,354.923z" style="fill:#324A58;"/>
	</g>
	<g>
		
			<ellipse transform="matrix(0.9817 -0.1906 0.1906 0.9817 -63.1149 113.4544)" cx="558.09" cy="384.749" rx="13.623" ry="10.049" style="fill:#324A58;"/>
		<path d="M556.519,396.454c-2.569,0-5.033-0.521-7.173-1.538c-3.329-1.583-5.496-4.169-6.101-7.284    c-1.214-6.251,4.458-12.63,12.644-14.221c8.19-1.585,15.833,2.203,17.048,8.454l0,0c0.604,3.115-0.436,6.324-2.931,9.038    c-2.379,2.588-5.829,4.429-9.713,5.183C559.027,396.332,557.76,396.454,556.519,396.454z M559.675,376.044    c-1.044,0-2.122,0.101-3.214,0.313c-6.562,1.274-11.169,6.076-10.271,10.703c0.418,2.156,1.997,3.983,4.443,5.146    c2.601,1.236,5.828,1.568,9.087,0.935c3.26-0.633,6.128-2.148,8.077-4.268c1.833-1.994,2.613-4.28,2.194-6.435l0,0    C569.242,378.581,564.899,376.044,559.675,376.044z" style="fill:#FFFFFF;"/>
	</g>
	<g>
		<line x1="532.169" y1="401.341" x2="544.883" y2="391.207" style="fill:#324A58;"/>
		<path d="M532.169,402.84c-0.441,0-0.878-0.193-1.174-0.565c-0.517-0.648-0.41-1.592,0.238-2.108l12.714-10.134    c0.649-0.516,1.592-0.41,2.108,0.238c0.517,0.648,0.41,1.592-0.238,2.108l-12.714,10.134    C532.827,402.734,532.497,402.84,532.169,402.84z" style="fill:#FFFFFF;"/>
	</g>
	<g>
		<line x1="570.589" y1="379.815" x2="583.009" y2="366.423" style="fill:#324A58;"/>
		<path d="M570.588,381.315c-0.365,0-0.731-0.132-1.02-0.4c-0.607-0.563-0.643-1.512-0.08-2.12l12.42-13.392    c0.563-0.608,1.512-0.644,2.12-0.08c0.607,0.563,0.643,1.512,0.08,2.12l-12.42,13.392    C571.393,381.154,570.991,381.315,570.588,381.315z" style="fill:#FFFFFF;"/>
	</g>
	<g>
		<line x1="532.169" y1="388.287" x2="544.599" y2="386.415" style="fill:#324A58;"/>
		<path d="M532.167,389.787c-0.729,0-1.369-0.533-1.481-1.276c-0.123-0.819,0.441-1.583,1.26-1.707l12.43-1.872    c0.823-0.12,1.583,0.441,1.707,1.26c0.123,0.819-0.441,1.583-1.26,1.707l-12.43,1.872    C532.316,389.781,532.241,389.787,532.167,389.787z" style="fill:#FFFFFF;"/>
	</g>
	<g>
		<line x1="571.463" y1="382.152" x2="587.36" y2="381.342" style="fill:#324A58;"/>
		<path d="M571.462,383.652c-0.793,0-1.456-0.622-1.497-1.424c-0.042-0.827,0.594-1.532,1.422-1.574l15.896-0.811    c0.821-0.054,1.532,0.594,1.574,1.422c0.042,0.827-0.594,1.532-1.422,1.574l-15.896,0.811    C571.514,383.651,571.488,383.652,571.462,383.652z" style="fill:#FFFFFF;"/>
	</g>
	<g>
		<path d="M599.881,198.622c0,0-4.555-85.491-106.229-89.592c0,0-131.003,19.611-87.995,148.213    c43.007,128.602,129.059,123.327,144.203,116.358s76.682-33.4,63.714-118.492C613.573,255.11,678.721,198.153,599.881,198.622z     M542.063,255.725c0.174-0.869,1.02-1.433,1.889-1.259c0.869,0.174,1.433,1.02,1.259,1.889c-0.174,0.869-1.02,1.433-1.889,1.259    C542.453,257.44,541.889,256.594,542.063,255.725z M540.975,269.341c0.348-1.739,2.039-2.866,3.778-2.518    c1.739,0.348,2.866,2.04,2.518,3.778c-0.348,1.739-2.04,2.866-3.778,2.518C541.755,272.771,540.627,271.079,540.975,269.341z     M528.557,260.389c0.339-1.695,1.988-2.794,3.684-2.455c1.695,0.339,2.794,1.988,2.455,3.684s-1.988,2.794-3.684,2.455    C529.317,263.733,528.218,262.084,528.557,260.389z M534.824,274.972c-0.174,0.869-1.02,1.433-1.889,1.259    s-1.433-1.02-1.259-1.889c0.174-0.869,1.02-1.433,1.889-1.259C534.434,273.257,534.998,274.103,534.824,274.972z M439.748,304.133    c-0.339,1.695-1.989,2.794-3.684,2.455c-1.695-0.339-2.794-1.988-2.455-3.683c0.339-1.695,1.988-2.794,3.683-2.455    C438.989,300.789,440.088,302.438,439.748,304.133z M447.202,325.062c-0.174,0.869-1.02,1.433-1.889,1.259    c-0.869-0.174-1.433-1.02-1.259-1.889c0.174-0.869,1.02-1.433,1.889-1.259C446.812,323.346,447.376,324.192,447.202,325.062z     M448.335,311.22c-0.174,0.869-1.02,1.433-1.889,1.259c-0.869-0.174-1.433-1.02-1.259-1.889c0.174-0.869,1.02-1.433,1.889-1.259    C447.946,309.505,448.509,310.35,448.335,311.22z M442.38,277.296c-2.618-2.406-2.791-6.479-0.385-9.097    c2.406-2.618,6.479-2.791,9.097-0.385c0.413,0.379,0.781,0.828,1.072,1.278l14.057,22.029c0.899,1.408,0.486,3.279-0.923,4.178    c-1.181,0.754-2.689,0.583-3.674-0.323L442.38,277.296z M503.07,301.049l-24.364,32.048c-2.146,2.823-5.454,4.333-8.803,4.334    c-2.047,0-4.109-0.564-5.932-1.737c-2.501-1.609-4.212-4.092-4.824-6.994c-0.613-2.903-0.05-5.865,1.583-8.341l19.297-29.26    l-9.843-15.933c-0.436-0.705-0.217-1.629,0.487-2.064c0.705-0.436,1.63-0.217,2.064,0.487l10.85,17.563l-20.352,30.859    c-1.188,1.802-1.598,3.958-1.152,6.07s1.691,3.919,3.506,5.087c3.503,2.254,8.213,1.425,10.729-1.885l24.364-32.048    c0.502-0.66,1.442-0.787,2.102-0.287C503.443,299.448,503.571,300.39,503.07,301.049z M502.336,270.444    c-1.181,0.754-2.689,0.582-3.675-0.323l-19.243-17.679c-2.619-2.406-2.791-6.479-0.385-9.097c2.406-2.619,6.479-2.791,9.097-0.385    c0.413,0.379,0.781,0.828,1.072,1.278l14.057,22.029C504.157,267.675,503.744,269.546,502.336,270.444z M548.845,335.093    c-1.429,1.141-3.172,1.712-5.245,1.712c-3.776,0-8.647-1.897-14.715-5.713c-1.492-0.938-3.262-2.444-4.327-3.391    c-2.97,1.66-5.831,2.544-8.576,2.646c-6.325,0.222-9.477-3.878-9.608-4.054c-0.498-0.662-0.365-1.603,0.297-2.101    c0.661-0.495,1.596-0.366,2.095,0.29c0.111,0.143,2.448,3.079,7.187,2.863c1.994-0.088,4.475-0.735,7.452-2.457    c0.042-0.06,0.089-0.118,0.141-0.173c0.247-0.262,0.566-0.416,0.897-0.458c5.431-3.47,12.395-10.443,20.928-23.726    c0.31-0.482,0.869-0.745,1.437-0.679c0.569,0.066,1.051,0.452,1.241,0.992C549.028,303.633,557.375,328.283,548.845,335.093z     M557.542,275.931c-0.174,0.869-1.02,1.433-1.889,1.259c-0.869-0.174-1.433-1.02-1.259-1.889s1.02-1.433,1.889-1.259    S557.716,275.062,557.542,275.931z M609.487,243.465c-0.195,0.084-0.398,0.125-0.598,0.125c-0.579,0-1.13-0.337-1.376-0.901    c-0.331-0.759,0.017-1.643,0.776-1.974c0.067-0.029,2.902-1.281,6.372-3.307c-4.858-1.809-13.414-5.842-12.972-11.69    c0.094-1.25,0.726-2.267,1.779-2.861c4.458-2.519,17.52,3.424,22.101,5.657c0.656-0.911,1.179-1.846,1.511-2.794    c0.609-1.741,0.503-3.35-0.326-4.918c-5.249-9.927-26.555-4.986-26.769-4.935c-0.803,0.191-1.614-0.306-1.807-1.111    c-0.192-0.806,0.305-1.614,1.111-1.807c0.968-0.231,23.785-5.523,30.117,6.451c1.224,2.315,1.394,4.776,0.504,7.314    c-0.555,1.584-1.512,3.109-2.711,4.554c-0.036,0.05-0.075,0.096-0.117,0.141C621.308,238.255,610.063,243.214,609.487,243.465z" style="fill:#FF564F;"/>
		<path d="M604.944,225.468c-0.139,0.079-0.24,0.159-0.264,0.475c-0.319,4.22,9.098,8.103,13.253,9.419    c1.985-1.333,3.966-2.853,5.607-4.494C616.68,227.596,607.316,224.123,604.944,225.468z" style="fill:#FF564F;"/>
		<path d="M527.208,326.034c0.967,0.834,2.225,1.859,3.273,2.519c7.958,5.004,13.66,6.456,16.491,4.196    c5.145-4.106,1.762-19.568-0.798-27.971C539.482,314.792,533.141,321.894,527.208,326.034z" style="fill:#FF564F;"/>
	</g>
	<g>
		<path d="M520.689,98.756c0.674-0.211,1.036-0.334,1.036-0.334s-25.618-5.627-39.756-7.848    c-13.736-2.158-55.54,2.927-55.54,2.927s12.44,7.463,28.075,11.336c-26.944,4.679-62.14,15.009-62.14,15.009    s10.855,8.673,26.657,12.833c-4.916,3.938-9.216,7.882-12.575,11.61c-44.188,49.032-45.833,134.194-45.833,134.194    S577.707,115.502,520.689,98.756z" style="fill:#324A58;"/>
	</g>
	<g>
		<path d="M598.263,169.261c7.089-2.536,12.049-5.515,12.049-5.515s-11.452-9.155-24.324-17.345    c-0.116-0.173-0.23-0.349-0.348-0.522c15.383-1.65,17.051-4.458,17.051-4.458s-30.076-28.318-54.984-27.463    c-6.75-1.898-12.299-0.739-15.117,4.533c-11.834,22.14-26.116,56.062,9.442,88.198c4.489,4.057,25.493,19.857,28.064,14.095    c6.769-15.173,38.472-21.954,38.472-21.954S605.207,185.173,598.263,169.261z" style="fill:#324A58;"/>
	</g>
	<g>
		<path d="M1100.051,551.705c-91.329-34.534-898.406-37.4-898.406-37.4c-2.777,1.6-10.607,3.577-21.684,5.914    c-2.173,5.109-5.069,11.264-8.806,17.98c-8.537,15.344-24.117,24.104-46.309,26.037c-3.056,0.266-6.236,0.399-9.534,0.399    c-19.949,0-44.309-4.879-72.734-14.533c-36.259,10.816-59.469,23.575-41.555,38.02    c193.824,156.29,826.318,165.812,972.174,106.982C1072.501,655.05,1134.943,564.898,1100.051,551.705z" style="fill:#324A58;"/>
	</g>
	<g>
		<path d="M147.317,371.987c5.324,3.457,11.671,5.472,18.491,5.472c18.784,0,34.011-15.227,34.011-34.011    c0-5.461-1.295-10.618-3.582-15.191L147.317,371.987z" style="fill:#FF9B19;"/>
	</g>
	<g>
		<path d="M451.615,349.143c0,0-94.934,99.694-111.512,132.74c-0.489,16.499-1.658,34.553-4.298,45.584    c-0.274,1.147-1.299,1.918-2.429,1.918c-0.192,0-0.388-0.022-0.584-0.069c-1.343-0.321-2.17-1.67-1.849-3.013    c3.066-12.813,4.077-36.164,4.365-54.696c-3.912-36.977-11.183-114.985-11.008-144.244l-43.376,1.841    c0,0-26.861,162.501-7.364,248.202c0,0,33.092,38.414,83.343-30.222c0,0,92.267-133.481,100.87-142.475L451.615,349.143z" style="fill:#2568EF;"/>
	</g>
	<g>
		<path d="M662.699,285.659c0,0-17.932,3.946-0.783,47.679c15.268,38.937,110.16,130.542,129.734,161.876    c7.32-6.39,19.904-13.275,36.583-6.923c1.29,0.492,1.938,1.936,1.446,3.227c-0.492,1.29-1.937,1.936-3.227,1.446    c-14.983-5.711-26.156,1.009-32.346,6.714c0.334,0.738,0.611,1.431,0.791,2.048c9.917-2.596,26.343-4.599,43.303,3.279    c1.252,0.582,1.796,2.068,1.214,3.321c-0.423,0.911-1.326,1.447-2.269,1.447c-0.353,0-0.711-0.075-1.052-0.233    c-20.372-9.462-40.501-3.156-46.633-0.797c-29.125,22.144-71.26,95.71-71.26,95.71l14.7,28.063    c0,0,105.253-59.582,120.997-124.473C866.337,456.77,662.699,285.659,662.699,285.659z" style="fill:#2568EF;"/>
	</g>
	<g>
		<polygon points="407.54,530.869 537.645,544.464 537.645,652.617 328.7,637.25   " style="fill:#2568EF;"/>
	</g>
	<g>
		<polygon points="410.298,537.304 342.221,627.072 417.623,633.823 459.984,544.341   " style="fill:#FFE7E6;"/>
	</g>
	<g>
		<polygon points="467.822,543.904 424.124,633.823 527.877,641.639 531.58,550.479   " style="fill:#FFE7E6;"/>
	</g>
	<g>
		<path d="M123.136,559.255c20.437-1.78,34.693-9.682,42.374-23.486c4.86-8.735,8.282-16.579,10.494-22.253    c-16.265-8.067-39.053-13.083-64.284-13.083c-45.653,0-83.317,16.417-88.786,37.627C64.433,554.301,98.12,561.431,123.136,559.255    z" style="fill:#2568EF;"/>
		<path d="M180.456,515.892c-2.273,5.772-5.712,13.562-10.577,22.307c-8.537,15.344-24.117,24.104-46.309,26.037    c-3.056,0.266-6.236,0.399-9.534,0.399c-24.272,0-55.063-7.209-91.781-21.479c-0.001,0.078-0.006,0.156-0.006,0.234    c0,23.725,40.058,42.959,89.471,42.959c49.414,0,89.471-19.233,89.471-42.959C201.19,532.93,193.399,523.343,180.456,515.892z" style="fill:#2568EF;"/>
	</g>
	<g>
		<path d="M41.561,395.621L9.278,403.08c1.146,3.504,2.382,7.049,3.706,10.635c8.851,0.7,23.199,1.874,36.679,2.986    C46.508,409.309,43.821,402.286,41.561,395.621z" style="fill:#324A58;"/>
		<path d="M31.521,348.597l-32.74-20.619c-0.906,9.891-0.729,20.301,0.53,31.222l34.728,8.548    C32.708,360.881,31.901,354.51,31.521,348.597z" style="fill:#324A58;"/>
		<path d="M35.181,373.178L0,364.518c1.564,10.78,4.155,22.043,7.761,33.78L40,390.849    C38.033,384.644,36.438,378.756,35.181,373.178z" style="fill:#324A58;"/>
		<path d="M41.533,298.43l-24.919-22.394c-4.212,6.25-7.988,13.369-11.017,21.472    c-1.536,4.109-2.824,8.338-3.881,12.678l37.149-6.695C39.702,301.724,40.598,300.044,41.533,298.43z" style="fill:#324A58;"/>
		<path d="M-0.596,322.461l31.873,20.073c-0.213-13.463,1.882-24.322,5.054-32.989c0.069-0.189,0.147-0.367,0.218-0.554    l-35.99,6.486C0.109,317.774-0.277,320.102-0.596,322.461z" style="fill:#324A58;"/>
		<path d="M82.876,265.974l-0.108,0.027l-7.751-32.077c-1.649,0.399-33.282,8.394-55.485,38.012l24.705,22.201    C59.112,272.334,81.731,266.267,82.876,265.974z" style="fill:#324A58;"/>
		<path d="M108.272,517.265c-7.047-9.909-13.489-19.417-19.393-28.557l-35.705,5.235    c8.437,13.716,17.835,27.866,28.205,42.448c3.218,4.525,8.3,6.938,13.46,6.938c3.308,0,6.648-0.992,9.549-3.055    C111.815,534.993,113.554,524.692,108.272,517.265z" style="fill:#324A58;"/>
		<path d="M51.935,421.906c-13.111-1.082-27.469-2.26-36.993-3.02c3.148,8.099,6.734,16.401,10.768,24.908l32.74-8.066    C56.104,430.989,53.932,426.38,51.935,421.906z" style="fill:#324A58;"/>
		<path d="M60.751,440.311l-32.823,8.086c1.892,3.871,3.871,7.783,5.943,11.736c11.04,0.707,25.905,1.725,39.115,2.645    C68.48,454.979,64.416,447.497,60.751,440.311z" style="fill:#324A58;"/>
		<path d="M76.045,468.005c-12.842-0.897-27.81-1.928-39.413-2.684c4.224,7.837,8.798,15.832,13.717,23.983    l35.573-5.216C82.434,478.591,79.138,473.227,76.045,468.005z" style="fill:#324A58;"/>
	</g>
	<g>
		<path d="M107.429,259.254c0,0-14.708,12.175-23.9,24.7s-64.834-51.883-32.28-64.69S107.429,259.254,107.429,259.254z" style="fill:#2568EF;"/>
	</g>
	<g>
		<line x1="221.919" y1="357.019" x2="250.886" y2="362.957" style="fill:#FFFFFF;"/>
		<path d="M250.889,366.458c-0.233,0-0.469-0.023-0.707-0.072l-28.967-5.938c-1.894-0.388-3.114-2.238-2.726-4.132    c0.388-1.893,2.237-3.116,4.132-2.726l28.967,5.938c1.894,0.388,3.114,2.238,2.726,4.132    C253.975,365.317,252.517,366.458,250.889,366.458z" style="fill:#FF9B19;"/>
	</g>
	<g>
		<line x1="197.004" y1="377.459" x2="215.756" y2="398.685" style="fill:#FFFFFF;"/>
		<path d="M215.757,402.185c-0.969,0-1.933-0.4-2.625-1.183l-18.752-21.226c-1.28-1.449-1.143-3.661,0.306-4.94    s3.661-1.142,4.94,0.306l18.752,21.226c1.28,1.449,1.143,3.661-0.306,4.94C217.408,401.896,216.581,402.185,215.757,402.185z" style="fill:#FF9B19;"/>
	</g>
	<g>
		<path d="M167.694,426.366c-1.933,0-3.5-1.567-3.5-3.5v-28.416c0-1.933,1.567-3.5,3.5-3.5s3.5,1.567,3.5,3.5v28.416    C171.194,424.799,169.627,426.366,167.694,426.366z" style="fill:#FF9B19;"/>
	</g>
	<g>
		<path d="M409.688,621.615c-0.129,0-0.259-0.01-0.391-0.031l-42.897-6.741c-1.364-0.214-2.296-1.494-2.082-2.858    c0.214-1.364,1.49-2.296,2.858-2.082l42.897,6.741c1.364,0.214,2.296,1.494,2.082,2.858    C411.96,620.735,410.897,621.615,409.688,621.615z" style="fill:#324A58;"/>
	</g>
	<g>
		<path d="M424.126,604.456c-0.063,0-0.125-0.002-0.189-0.007l-45.693-3.416c-1.377-0.103-2.41-1.303-2.307-2.68    c0.103-1.377,1.296-2.4,2.68-2.307l45.693,3.416c1.377,0.103,2.41,1.303,2.307,2.68    C426.519,603.456,425.423,604.456,424.126,604.456z" style="fill:#324A58;"/>
	</g>
	<g>
		<path d="M388.234,588.054c-1.304,0-2.403-1.012-2.492-2.333c-0.093-1.377,0.949-2.569,2.327-2.662l38.607-2.596    c1.376-0.089,2.569,0.949,2.662,2.327c0.093,1.377-0.949,2.569-2.327,2.662l-38.607,2.596    C388.347,588.052,388.29,588.054,388.234,588.054z" style="fill:#324A58;"/>
	</g>
	<g>
		<path d="M518.156,626.517c-0.06,0-0.12-0.002-0.181-0.006l-68.635-4.902c-1.377-0.098-2.414-1.294-2.315-2.672    c0.099-1.376,1.282-2.41,2.672-2.315l68.635,4.902c1.377,0.098,2.414,1.294,2.315,2.672    C520.553,625.512,519.456,626.517,518.156,626.517z" style="fill:#324A58;"/>
	</g>
	<g>
		<path d="M518.156,610.584c-0.086,0-0.172-0.004-0.26-0.013l-59.379-6.128c-1.373-0.142-2.372-1.37-2.23-2.744    c0.142-1.374,1.371-2.373,2.744-2.23l59.379,6.128c1.373,0.142,2.372,1.37,2.23,2.744    C520.507,609.627,519.422,610.584,518.156,610.584z" style="fill:#324A58;"/>
	</g>
	<g>
		<path d="M518.156,592.404c-0.081,0-0.162-0.004-0.245-0.012l-58.169-5.647c-1.374-0.133-2.38-1.355-2.247-2.73    c0.134-1.375,1.352-2.377,2.73-2.247l58.169,5.647c1.374,0.133,2.38,1.355,2.247,2.73    C520.516,591.438,519.428,592.404,518.156,592.404z" style="fill:#324A58;"/>
	</g>
	<g>
		<path d="M521.297,571.977h-47.504c-1.381,0-2.5-1.119-2.5-2.5s1.119-2.5,2.5-2.5h47.504c1.381,0,2.5,1.119,2.5,2.5    S522.678,571.977,521.297,571.977z" style="fill:#324A58;"/>
	</g>
	<g>
		<path d="M426.847,570.862c-0.084,0-0.169-0.004-0.254-0.013l-19.304-1.95c-1.374-0.139-2.375-1.365-2.236-2.739    c0.139-1.374,1.364-2.379,2.739-2.236l19.304,1.95c1.374,0.139,2.375,1.365,2.236,2.739    C429.201,569.902,428.114,570.862,426.847,570.862z" style="fill:#324A58;"/>
	</g>
	<g>
		<g>
			<path d="M569.76,614.045c0.28-1.362-0.819-5.994-2.02-10.234c-3.674,2.858-4.951,8.832-3.389,15.32     C567.143,617.083,569.58,614.925,569.76,614.045z" style="fill:#FF564F;"/>
		</g>
		<g>
			<path d="M639.609,718.78l0.536,2.153c2-1.089,4.28-2.473,6.776-4.09l-1.606-3.363L639.609,718.78z" style="fill:#FF564F;"/>
		</g>
		<g>
			<path d="M614.46,695.872l-8.999,6.76c-1.447,1.088-2.034,2.972-1.46,4.689l0.034,0.102     c4.647-0.761,9.905-2.347,15.447-4.464C618.458,700.693,616.276,697.866,614.46,695.872z" style="fill:#FF564F;"/>
		</g>
		<g>
			<polygon points="554.797,684.598 555.864,689.275 569.482,687.656 565.327,679.631    " style="fill:#FF564F;"/>
		</g>
		<g>
			<path d="M745.712,622.91l-12.641-23.307c0,0-32.403-17.937-40.572-20.43c-12.213-3.726-20.707-10.89-56.385-7.161     l1.146,4.767c0.469,1.953,0.102,4.032-1.009,5.705c-1.11,1.673-2.884,2.82-4.865,3.146l-15.744,2.592     c2.907,2.611,6.779,4.553,8.577,4.856c9.468,1.595,30.097-3.306,45.704,1.221c3.266,0.947-5.525,15.237-7.687,17.24     c-12.063,11.174-26.054,13.827-42.026,15.117c-14.609,1.18-30.111-1.663-36.899-6.904c-8.728-6.739-7.1-19.533-13.513-17.102     c1.177,4.069,2.633,9.781,2.207,11.856c-0.414,2.017-4.26,5.048-6.974,6.969c2.586,7.563,9.009,15.387,19.94,19.51     c-0.977-4.433,2.281-9.623,2.465-9.911c0.34-0.533,1.048-0.689,1.58-0.348c0.533,0.34,0.689,1.048,0.35,1.581     c-0.043,0.068-3.835,6.125-1.511,9.646c5.418,1.604,11.811,2.347,19.256,1.824c10.298-0.723,23.093-2.24,35.255-4.93l21.68-6.624     c0.605-0.184,1.245,0.155,1.43,0.76c0.185,0.605-0.156,1.245-0.761,1.43l-14.708,4.494c-12.443,6.765-25.8,15.242-40.721,19.06     c-42.125,10.777-66.25,26.221-60.252,31.456c0.867,0.756,2.514,1.104,4.771,1.122l-1.649-7.233l14.191-6.695l5.665,10.942     c8.054-1.993,17.518-4.825,27.348-8.017l-4.086-11.235c-0.216-0.594,0.09-1.252,0.685-1.468c0.594-0.216,1.251,0.09,1.468,0.685     l4.112,11.307c18.985-6.232,39.016-13.654,52.669-18.861l23.061-11.344c0.568-0.279,1.254-0.046,1.533,0.522     c0.279,0.568,0.045,1.254-0.522,1.533l-16.492,8.112c-23.762,13.941-83.729,50.24-61.89,49.094     c0.603-0.032,1.224-0.088,1.855-0.156c-0.717-2.566,0.187-5.316,2.335-6.93l10.629-7.984l0.703,0.727     c0.582,0.602,4.504,4.74,6.178,8.587c7.296-2.922,14.998-6.679,22.392-10.632l-6.482-9.629c-0.353-0.525-0.214-1.236,0.311-1.59     c0.525-0.352,1.236-0.214,1.59,0.31l6.608,9.817c16.028-8.709,30.245-18.057,35.114-21.326l9.769-6.699     c0.522-0.358,1.234-0.224,1.592,0.297c0.358,0.522,0.225,1.234-0.297,1.592l-20.224,13.868     c-16.499,15.689-45.264,43.975-39.794,45.467c1.148,0.313,3.177-0.286,5.88-1.594l-0.993-3.988l8.979-8.341l2.815,5.893     c5.029-3.347,10.824-7.525,16.976-12.129l-4.507-6.748c-0.351-0.526-0.21-1.237,0.316-1.588c0.526-0.352,1.237-0.209,1.588,0.316     l4.437,6.643c15.243-11.482,32.388-25.289,45.415-35.506C731.461,652.147,745.712,622.91,745.712,622.91z" style="fill:#FF564F;"/>
		</g>
		<g>
			<path d="M634.343,581.218c0.771-1.162,1.016-2.548,0.69-3.904l-1.214-5.052c-0.197,0.023-0.384,0.041-0.583,0.064     c-22.209,2.581-23.417,8.891-19.498,13.888l17.276-2.844C632.389,583.144,633.572,582.379,634.343,581.218z" style="fill:#FF564F;"/>
		</g>
		<g>
			<polygon points="647.616,694.838 647.616,694.838 647.616,694.838    " style="fill:#FF564F;"/>
		</g>
	</g>
	<g>
		<polygon points="716.014,588.122 751.964,638.771 811.817,591.538 746.654,542.512   " style="fill:#FF9B19;"/>
	</g>
	<g>
		<g>
			<polygon points="835.717,602.487 923.749,551.838 1012.31,555.662 945.934,611.02    " style="fill:#2568EF;"/>
		</g>
		<g>
			<polygon points="835.717,602.487 945.934,611.02 945.934,640.435 835.717,626.545    " style="fill:#FFE7E6;"/>
		</g>
		<g>
			<polygon points="1012.31,555.662 1012.31,571.081 945.934,640.435 945.934,611.02    " style="fill:#FF9B19;"/>
		</g>
	</g>
	<g>
		<path d="M938.057,506.711c-0.045,0-0.09-0.001-0.136-0.003c-1.379-0.074-2.436-1.252-2.362-2.631l2.402-44.674    c0.065-1.205,0.981-2.191,2.177-2.345c1.201-0.153,2.333,0.568,2.7,1.717c0.116,0.358,0.981,2.915,2.955,6.297    c0.198-0.066,0.407-0.108,0.625-0.123c44.242-2.982,48.632,19.894,48.798,20.869c0.228,1.344-0.663,2.624-2.002,2.875    c-4.316,0.812-8.324,1.177-12.035,1.177c-21.433,0.001-33.109-12.178-38.725-20.905l-1.902,35.38    C940.48,505.678,939.376,506.711,938.057,506.711z M949,469.807c6.443,8.25,18.727,17.589,40.434,14.447    C987.062,479.255,978.484,468.372,949,469.807z" style="fill:#FF9B19;"/>
	</g>
	<path d="M955.331,497.064c-6.396,0-12.34,2.635-17.276,7.146c-3.779-4.514-8.289-7.146-13.137-7.146   c-13.304,0-24.089,19.754-24.089,44.123c0,24.368,10.785,44.123,24.089,44.123c3.606,0,7.025-1.455,10.095-4.058   c3.38-2.866,7.376-3.473,11.117-1.89c2.906,1.23,5.996,1.894,9.2,1.894c17.113,0,30.986-18.847,30.986-42.096   C986.317,515.911,972.444,497.064,955.331,497.064z M975.416,523.354c-0.34,0.157-0.697,0.231-1.048,0.231   c-0.944,0-1.848-0.538-2.271-1.451c-3.123-6.754-7.195-11.03-12.104-12.708c-6.369-2.176-12.188,0.784-12.246,0.814   c-1.221,0.636-2.731,0.165-3.371-1.054c-0.64-1.219-0.178-2.723,1.038-3.368c0.31-0.165,7.682-3.994,16.116-1.15   c6.289,2.119,11.371,7.29,15.105,15.367C977.215,521.289,976.669,522.775,975.416,523.354z" style="fill:#FF564F;"/>
	<g>
		<polygon points="379.582,334.701 386.565,330.429 387.21,345.541   " style="fill:#2568EF;"/>
	</g>
	<g>
		<path d="M130.909,352.79c-3.191-10.255-6.839-26.915,0.753-32.76c5.775-4.446,16.024-1.584,31.228,8.755    c-2.349-8.339-4.529-21.206,2.169-26.683c5.493-4.49,15.085-2.801,29.196,5.183c-3.104-6.136-6.33-14.14-5.869-20.206    l-46.566-23.6c-12.885-6.53-31.062-1.833-43.987,11.367h0c-13.366,13.65-17.466,32.644-9.792,45.356l14.846,24.92    c0.244-0.203,0.494-0.4,0.762-0.578C109.245,340.824,118.198,343.517,130.909,352.79z" style="fill:#2568EF;"/>
		<path d="M106.418,348.707c-0.334,0.222-0.638,0.494-0.913,0.809l12.491,20.967c4.402-3.566,9.005-7.171,13.748-10.781    C115.155,346.645,108.772,347.141,106.418,348.707z" style="fill:#2568EF;"/>
		<path d="M216.771,301.464l-23.413-11.865c0.582,5.73,4.566,14.51,8.609,21.338    C207.347,307.454,212.331,304.273,216.771,301.464z" style="fill:#2568EF;"/>
		<path d="M134.712,323.992c-5.23,4.026-1.651,20.302,2.409,31.658c8.923-6.661,18.196-13.284,27.35-19.63    C144.25,321.273,137.152,322.112,134.712,323.992z" style="fill:#2568EF;"/>
		<path d="M168.226,305.972c-4.885,3.991-2.08,17.778,1.139,26.67c9.47-6.498,18.706-12.645,27.178-18.178    C177.514,302.644,170.647,303.996,168.226,305.972z" style="fill:#2568EF;"/>
		<path d="M137.568,362.005c-0.33,0.242-0.705,0.389-1.089,0.449c-5.507,4.158-10.84,8.311-15.881,12.397l3.374,5.663    c3.99,6.697,12.797,8.647,19.241,4.261l83.868-57.085c7.948-5.41,7.178-17.362-1.397-21.708l-3.685-1.867    c-20.315,12.829-54.219,34.858-83.643,56.929C138.183,361.415,137.917,361.749,137.568,362.005z" style="fill:#2568EF;"/>
	</g>
	<g>
		<path d="M985.754,320.755c-0.048,0-0.097-0.001-0.146-0.002l-108.485-3.876c-2.152-0.077-3.857-1.844-3.857-3.998    v-57.895l-153.004-1.01c-1.995-0.013-3.675-1.494-3.938-3.471l-15.91-119.313c-0.292-2.19,1.247-4.202,3.436-4.494    c2.194-0.292,4.202,1.247,4.494,3.436l15.45,115.864l153.499,1.013c2.199,0.015,3.974,1.801,3.974,4v58.009l104.628,3.738    c2.208,0.079,3.934,1.933,3.855,4.14C989.672,319.057,987.897,320.755,985.754,320.755z" style="fill:#FF9B19;"/>
	</g>
	<g>
		<g>
			<polygon points="742.059,214.68 744.396,233.865 776.714,230.587 774.019,208.473    " style="fill:#2568EF;"/>
		</g>
		<g>
			<polygon points="756.95,68.379 724.633,71.657 738.725,187.32 770.686,181.113    " style="fill:#2568EF;"/>
		</g>
	</g>
	<g>
		<g>
			
				<rect x="922.451" y="197.701" transform="matrix(0.9817 -0.1906 0.1906 0.9817 -21.6464 182.1804)" width="27.103" height="11.779" style="fill:#FF564F;"/>
		</g>
		<g>
			
				<rect x="931.595" y="220.963" transform="matrix(0.9817 -0.1906 0.1906 0.9817 -30.4552 184.7873)" width="27.103" height="59.425" style="fill:#FF564F;"/>
		</g>
		<g>
			
				<rect x="939.552" y="286.345" transform="matrix(0.9817 -0.1906 0.1906 0.9817 -38.1208 187.0529)" width="27.103" height="10.611" style="fill:#FF564F;"/>
		</g>
	</g>
	<g>
		<g>
			<polygon points="926.947,293.515 898.596,143.793 881.709,147.072 909.904,295.973    " style="fill:#2568EF;"/>
		</g>
		<g>
			<polygon points="891.832,108.071 874.789,110.528 880.458,140.466 897.345,137.187    " style="fill:#2568EF;"/>
		</g>
	</g>
	<g>
		<g>
			<rect x="782.525" y="118.531" width="46.554" height="114.295" style="fill:#FF564F;"/>
		</g>
		<g>
			<rect x="782.525" y="97.386" width="46.554" height="15.717" style="fill:#FF564F;"/>
		</g>
	</g>
	<g>
		<g>
			
				<rect x="843.875" y="132.139" transform="matrix(0.9817 -0.1906 0.1906 0.9817 -16.8609 166.5973)" width="27.103" height="77.582" style="fill:#2568EF;"/>
		</g>
		<g>
			
				<rect x="854.496" y="219.215" transform="matrix(0.9817 -0.1906 0.1906 0.9817 -27.0919 169.6281)" width="27.103" height="12.803" style="fill:#2568EF;"/>
		</g>
	</g>
	<g>
		<circle cx="750.673" cy="269.112" r="8.109" style="fill:#FF9B19;"/>
	</g>
	<g>
		<circle cx="845.501" cy="269.112" r="8.109" style="fill:#FF9B19;"/>
	</g>
	<g>
		<circle cx="972.163" cy="336.995" r="8.109" style="fill:#FF9B19;"/>
	</g>
	<g>
		<path d="M154.199,517.688l3.6-13.584c1.898-7.162-3.798-14.072-11.191-13.575l-0.581,0.039    c-5.685,0.382-10.1,5.105-10.1,10.802v18.048L154.199,517.688z" style="fill:#FFE7E6;"/>
	</g>
	<g>
		<path d="M337.331,189.484c0,0-22.507-66.148-16.578-75.038l1.078-0.528c1.513-0.741,3.326,0.076,3.774,1.7    l20.591,69.789L337.331,189.484z" style="fill:#2568EF;"/>
	</g>
	<g>
		<path d="M386.346,257.334c-1.621-3.687-5.806-1.761-6.659-5.753c-0.953-4.456,6.695-10.125,5.665-13.786    c-1.079-3.837-7.453-6.157-7.432-8.015c0.086-7.828,7.17-5.397,5.755-15.62c-0.717-5.173-8.646-3.922-10.031-8.907    c-3.069-11.042,5.747-8.374,1.81-16.167c-3.838-7.597-18.649-4.102-32.292,0.427c-13.858,5.823-24.165,13.864-24.326,13.99    c-0.275,0.218-0.604,0.323-0.929,0.323c-0.443,0-0.882-0.195-1.178-0.57c-0.514-0.65-0.403-1.593,0.247-2.106    c0.565-0.447,7.971-6.235,18.666-11.555c3.269-6.397,5.569-12.793,5.141-17.647c-1.299-14.724-11.302-16.826-11.63-12.559    c-0.866,11.26-7.362,22.087-7.362,22.087c-30.552,17.234-27.435,49.6-25.931,58.455c-4.96,24.747,2.319,48.465,2.319,48.465    l-17.254,40.808l43.641-1.852c0,0-0.932-13.387,2.077-18.857c2.487-4.521,15.851-19.012,23.327-20.098    c13.564-1.971,22.232-10.708,27.325-15.976C380.33,269.281,390.154,265.995,386.346,257.334z" style="fill:#FF564F;"/>
	</g>
	<g>
		<polygon points="280.924,316.721 329.939,316.721 335.644,369.085 266.463,373.045   " style="fill:#FF9B19;"/>
	</g>
	<g>
		<path d="M364.389,283.169l13.944,49.166l8.232-4.971l-14.125-50.382C372.44,276.982,368.175,281.094,364.389,283.169z    " style="fill:#2568EF;"/>
	</g>
	<g>
		<path d="M460.055,241.232l0.006-0.832l0.026-0.7c0.024-0.46,0.06-0.909,0.11-1.356    c0.101-0.894,0.237-1.782,0.438-2.663c0.38-1.767,0.976-3.521,1.788-5.229c1.605-3.419,4.253-6.596,7.536-8.899    c1.64-1.146,3.403-2.065,5.207-2.82c1.804-0.722,3.648-1.28,5.477-1.663c3.673-0.795,7.278-0.988,10.767-0.909l0.355,0.008    c4.755,0.108,8.522,4.05,8.415,8.804s-4.05,8.522-8.804,8.415c-0.758-0.017-1.532-0.146-2.229-0.346    c-2.352-0.69-4.684-1.166-6.875-1.288c-1.104-0.076-2.159-0.046-3.188,0.05c-1.008,0.124-1.992,0.313-2.922,0.62    c-1.835,0.631-3.533,1.703-4.965,3.342c-0.711,0.815-1.364,1.753-1.898,2.79c-0.277,0.514-0.513,1.055-0.731,1.599    c-0.109,0.272-0.208,0.549-0.297,0.817l-0.127,0.395c-0.037,0.105-0.077,0.293-0.1,0.268c-0.111,2.207-1.99,3.905-4.196,3.794    C461.642,245.317,459.944,243.438,460.055,241.232z" style="fill:#324A58;"/>
	</g>
	<g>
		<path d="M420.755,257.899c0.351-0.472,0.572-0.727,0.853-1.068l0.805-0.926c0.539-0.605,1.091-1.188,1.659-1.758    c1.136-1.139,2.333-2.227,3.617-3.253c2.566-2.036,5.48-3.914,9.071-5.029c1.785-0.548,3.747-0.875,5.763-0.808    c2.013,0.048,4.054,0.546,5.826,1.375c1.773,0.821,3.352,1.902,4.617,3.121c1.323,1.196,2.355,2.514,3.328,3.833    c1.311,1.778,0.933,4.281-0.845,5.592c-1.663,1.226-3.961,0.975-5.324-0.518l-0.142-0.157c-1.59-1.753-3.368-3.084-5.006-3.548    c-1.624-0.513-3.139-0.266-4.881,0.498c-1.724,0.773-3.52,2.167-5.157,3.84c-0.822,0.836-1.612,1.744-2.357,2.694    c-0.372,0.475-0.734,0.961-1.076,1.452l-0.498,0.732c-0.141,0.22-0.342,0.529-0.391,0.635c-1.377,3.03-4.95,4.369-7.98,2.991    c-3.03-1.377-4.369-4.95-2.991-7.98c0.177-0.388,0.389-0.748,0.631-1.078L420.755,257.899z" style="fill:#324A58;"/>
	</g>
</g>

</g>
</g>
</g>

<!-- ITEM 1 -->
<g transform="translate(64.0 45.0) rotate(0.0 330.0 262.5) scale(3.5789039877666555 3.590062706428606)">
<g transform="translate(-0.0 -0.0)">
<g clip-path="url(#clipPathId-collage-item-1)">
		<defs>
			<clipPath id="clipPathId-collage-item-1">
				<rect x="0.0" y="0.0" width="184.414" height="146.237"/>
			</clipPath>
		</defs>

  <title>Разбор фоны</title>
  <g id="Мыло-i1">
    <g>
      <g>
        <path d="M117.26,13.634l-39.2,9.452A44.668,44.668,0,0,0,60.42,31.593L38.966,48.616a30.071,30.071,0,0,0-8.735,7.712c7.13,8.846,24.075,31.491,28.594,51.948a30.194,30.194,0,0,0,10.129-2.767L95.405,97.7a44.648,44.648,0,0,0,16.972-9.414L142.5,56.438C139.366,37.724,123.744,20.213,117.26,13.634Z" fill="#ff9b19"/>
        <path d="M150.065,5.723,137.394,8.779c5.678,6.09,14.985,17.974,18.575,33.416l8.553-9.043Z" fill="#ff9b19"/>
        <path d="M131.733,10.144l-8.807,2.124c7.163,7.579,19.655,22.709,23.775,39.726l5.065-5.355C148.77,28.749,136.718,15.125,131.733,10.144Z" fill="#ff9b19"/>
      </g>
      <path d="M27.412,60.845A24.3,24.3,0,0,0,27.29,83.15l6.575,12.474c3.919,7.435,11.457,11.914,19.844,12.66C49.339,90.3,34.654,70.047,27.412,60.845Z" fill="#ff9b19"/>
      <ellipse cx="92.57" cy="55.178" rx="29.674" ry="16.354" transform="translate(-15.049 49.53) rotate(-27.794)" fill="#2568ef"/>
      <g>
        <path d="M175.345.014l-37.9,7.853c6.289,7.1,15.564,19.985,18.029,36.332l27.8-31.385A8.576,8.576,0,0,0,175.345.014Z" fill="#2568ef"/>
        <path d="M131.591,9.081l.123-.026-.042-.045C131.62,9.052,131.591,9.081,131.591,9.081Z" fill="#2568ef"/>
      </g>
      <path d="M24.992,68.241,1.581,72.55S13.2,83.116,19.957,95.932c7.591,14.4,8.507,26.727,8.507,26.727l18.464-15.867Z" fill="#2568ef"/>
      <path d="M54.143,36.574S28.937,11,.4,32.126c0,0,31.593,18.136,30.678,23.147Z" fill="#ff564f"/>
      <path d="M61.225,107.961c4.7,5.34,1.344,38.276,1.344,38.276,35.225-33,26.328-46.615,26.328-46.615Z" fill="#ff564f"/>
      <path d="M60.479,74.573S24.7,71.614,9.1,99.031l-4.364,6.676S39.467,106.955,60.479,74.573Z" fill="#ff564f"/>
      <path d="M115.642,49.223a17.955,17.955,0,0,1-3.386,5.48A47.576,47.576,0,0,1,98.594,65.059a47.59,47.59,0,0,1-16.265,5.419c-5.657.62-9.666-.736-11.29-3.816s-.476-7.154,3.232-11.471A47.613,47.613,0,0,1,87.934,44.835,47.586,47.586,0,0,1,104.2,39.417c5.657-.62,9.666.735,11.29,3.816A7.264,7.264,0,0,1,115.642,49.223ZM75.585,62.359a2.6,2.6,0,0,0-.123,1.971c.464.88,2.6,1.585,6.323,1.178a42.558,42.558,0,0,0,14.478-4.872,42.565,42.565,0,0,0,12.2-9.191c2.441-2.841,3.066-5,2.6-5.881s-2.6-1.585-6.323-1.177a42.546,42.546,0,0,0-14.477,4.872,42.537,42.537,0,0,0-12.2,9.19A13.2,13.2,0,0,0,75.585,62.359Z" fill="#fff"/>
    </g>
  </g>

</g>
</g>
</g>

<!-- ITEM 2 -->
<g transform="translate(680.0 347.0) rotate(0.0 18.0 18.0) scale(0.32131668436883587 0.32283231551478303)">
<g transform="translate(-0.0 -0.0)">
<g clip-path="url(#clipPathId-collage-item-2)">
		<defs>
			<clipPath id="clipPathId-collage-item-2">
				<rect x="0.0" y="0.0" width="112.039" height="111.513"/>
			</clipPath>
		</defs>
<title>Circle_Yellow</title><circle id="b92d57cb-f583-494f-987d-758792ac9df8-i2" data-name="Circle_Yellow" cx="56.152" cy="55.756" r="55" fill="#ff9b19"/>
</g>
</g>
</g>

<!-- ITEM 3 -->
<g transform="translate(640.0 294.0) rotate(0.0 17.5 17.5) scale(0.31239122091414595 0.3138647511949279)">
<g transform="translate(-0.0 -0.0)">
<g clip-path="url(#clipPathId-collage-item-3)">
		<defs>
			<clipPath id="clipPathId-collage-item-3">
				<rect x="0.0" y="0.0" width="112.039" height="111.513"/>
			</clipPath>
		</defs>
<title>Circle_Yellow</title><circle id="b92d57cb-f583-494f-987d-758792ac9df8-i3" data-name="Circle_Yellow" cx="56.152" cy="55.756" r="55" fill="#ff9b19"/>
</g>
</g>
</g>

<!-- ITEM 4 -->
<g transform="translate(600.0 246.0) rotate(0.0 17.5 17.5) scale(0.31239122091414595 0.3138647511949279)">
<g transform="translate(-0.0 -0.0)">
<g clip-path="url(#clipPathId-collage-item-4)">
		<defs>
			<clipPath id="clipPathId-collage-item-4">
				<rect x="0.0" y="0.0" width="112.039" height="111.513"/>
			</clipPath>
		</defs>
<title>Circle_Yellow</title><circle id="b92d57cb-f583-494f-987d-758792ac9df8-i4" data-name="Circle_Yellow" cx="56.152" cy="55.756" r="55" fill="#ff9b19"/>
</g>
</g>
</g>

              </svg>