<svg width="1440" height="1024" viewBox="0 0 1440 1024" fill="none" xmlns="http://www.w3.org/2000/svg">
<g clip-path="url(#clip0)">
<path opacity="0.1" d="M1011.39 865.8C1117.43 865.8 1203.39 846.548 1203.39 822.8C1203.39 799.052 1117.43 779.8 1011.39 779.8C905.351 779.8 819.39 799.052 819.39 822.8C819.39 846.548 905.351 865.8 1011.39 865.8Z" fill="#0E6BA8"/>
<g opacity="0.1">
<path opacity="0.1" d="M793.02 184.79C793.02 340.89 890.95 467.2 1012.02 467.2L793.02 184.79Z" fill="#0E6BA8"/>
</g>
<path opacity="0.1" d="M795.42 288.03C724.67 288.57 656.69 272.58 591.69 254.76C526.69 236.94 462.22 216.9 392.9 208.72C348.28 203.45 297.5 204.28 262.43 224.72C228.68 244.38 218.69 276.61 213.76 306.35C210.05 328.73 208.24 352.21 221.3 372.57C230.32 386.7 245.9 398.3 256.9 411.76C295.16 458.59 271.43 518.86 233.49 567.27C215.7 589.98 194.89 611.77 181.39 635.75C167.89 659.73 162.21 686.85 175.6 710.35C188.88 733.63 219.14 750.35 251.69 761.8C317.82 784.9 394.9 789.5 469.95 790.96C636.09 794.21 802.66 784.33 968.78 774.46C1030.25 770.8 1092 767.12 1152.26 757.31C1185.72 751.86 1220.18 743.87 1244 726.7C1274.25 704.9 1280.68 669.59 1259 644.37C1222.63 602.08 1126 594.69 1100 548.84C1085.69 523.6 1098.43 494.47 1117 469.92C1156.94 417.28 1225.35 369.92 1227 311.3C1228.1 271.05 1193 232.02 1140.32 214.87C1085.07 196.87 1009.53 202.08 970.47 236.48C930.24 271.9 857.9 287.56 795.42 288.03Z" fill="#0E6BA8"/>
<path d="M1114.9 189.19V707.6C1114.9 723.02 1100.02 735.6 1081.66 735.6H378.24C359.88 735.6 345.01 723.06 345.01 707.6V189.19C345.01 173.74 359.88 158 378.24 158L1081.57 159.71C1099.9 159.71 1114.9 173.74 1114.9 189.19Z" fill="white"/>
<path d="M1114.9 189.35V213.35H345.01V189.35C345.01 181.037 348.312 173.065 354.189 167.186C360.066 161.307 368.037 158.003 376.35 158H1083.5C1087.62 157.995 1091.7 158.802 1095.51 160.375C1099.32 161.948 1102.78 164.256 1105.7 167.167C1108.61 170.079 1110.93 173.537 1112.51 177.343C1114.09 181.149 1114.9 185.229 1114.9 189.35Z" fill="#001C55"/>
<path opacity="0.8" d="M382.3 196.75C388.419 196.75 393.38 191.789 393.38 185.67C393.38 179.551 388.419 174.59 382.3 174.59C376.181 174.59 371.22 179.551 371.22 185.67C371.22 191.789 376.181 196.75 382.3 196.75Z" fill="#FA5959"/>
<path opacity="0.8" d="M414.53 196.75C420.649 196.75 425.61 191.789 425.61 185.67C425.61 179.551 420.649 174.59 414.53 174.59C408.411 174.59 403.45 179.551 403.45 185.67C403.45 191.789 408.411 196.75 414.53 196.75Z" fill="#FED253"/>
<path opacity="0.8" d="M446.76 196.75C452.879 196.75 457.84 191.789 457.84 185.67C457.84 179.551 452.879 174.59 446.76 174.59C440.641 174.59 435.68 179.551 435.68 185.67C435.68 191.789 440.641 196.75 446.76 196.75Z" fill="#8CCF4D"/>
<path opacity="0.2" d="M686.44 328.7H633.57C628.837 328.7 625 332.537 625 337.27V353.35C625 358.083 628.837 361.92 633.57 361.92H686.44C691.173 361.92 695.01 358.083 695.01 353.35V337.27C695.01 332.537 691.173 328.7 686.44 328.7Z" fill="#0E6BA8"/>
<path opacity="0.2" d="M828.28 328.7H775.41C770.677 328.7 766.84 332.537 766.84 337.27V353.35C766.84 358.083 770.677 361.92 775.41 361.92H828.28C833.013 361.92 836.85 358.083 836.85 353.35V337.27C836.85 332.537 833.013 328.7 828.28 328.7Z" fill="#0E6BA8"/>
<path d="M659.81 361.17L729.89 452.68L802.08 360.74" stroke="#001C55" stroke-miterlimit="10"/>
<path opacity="0.1" d="M774.83 449.75H684.94C680.207 449.75 676.37 453.587 676.37 458.32V491.97C676.37 496.703 680.207 500.54 684.94 500.54H774.83C779.563 500.54 783.4 496.703 783.4 491.97V458.32C783.4 453.587 779.563 449.75 774.83 449.75Z" fill="black"/>
<path d="M772.66 450.79H687.12C682.387 450.79 678.55 454.627 678.55 459.36V490.95C678.55 495.683 682.387 499.52 687.12 499.52H772.66C777.393 499.52 781.23 495.683 781.23 490.95V459.36C781.23 454.627 777.393 450.79 772.66 450.79Z" fill="#0E6BA8"/>
<path d="M660.29 328.7L659.38 296.35" stroke="#001C55" stroke-miterlimit="10"/>
<path d="M843.22 297.93L802.08 328.7L758.81 297.93" stroke="#001C55" stroke-miterlimit="10"/>
<path opacity="0.2" d="M686.05 264.7H633.18C628.447 264.7 624.61 268.537 624.61 273.27V289.35C624.61 294.083 628.447 297.92 633.18 297.92H686.05C690.783 297.92 694.62 294.083 694.62 289.35V273.27C694.62 268.537 690.783 264.7 686.05 264.7Z" fill="#0E6BA8"/>
<path opacity="0.2" d="M869.65 264.7H816.78C812.047 264.7 808.21 268.537 808.21 273.27V289.35C808.21 294.083 812.047 297.92 816.78 297.92H869.65C874.383 297.92 878.22 294.083 878.22 289.35V273.27C878.22 268.537 874.383 264.7 869.65 264.7Z" fill="#0E6BA8"/>
<path opacity="0.2" d="M785.25 264.7H732.38C727.647 264.7 723.81 268.537 723.81 273.27V289.35C723.81 294.083 727.647 297.92 732.38 297.92H785.25C789.983 297.92 793.82 294.083 793.82 289.35V273.27C793.82 268.537 789.983 264.7 785.25 264.7Z" fill="#0E6BA8"/>
<path d="M729.89 499.51L729.62 588.01" stroke="#001C55" stroke-miterlimit="10"/>
<path d="M630.42 651.11L729.42 620.48L828.82 650.89" stroke="#001C55" stroke-miterlimit="10"/>
<path opacity="0.2" d="M756.06 588.01H703.19C698.457 588.01 694.62 591.847 694.62 596.58V612.66C694.62 617.393 698.457 621.23 703.19 621.23H756.06C760.793 621.23 764.63 617.393 764.63 612.66V596.58C764.63 591.847 760.793 588.01 756.06 588.01Z" fill="#0E6BA8"/>
<path opacity="0.2" d="M1033.39 450.07V397.2C1033.39 392.467 1029.55 388.63 1024.82 388.63H1008.74C1004.01 388.63 1000.17 392.467 1000.17 397.2V450.07C1000.17 454.803 1004.01 458.64 1008.74 458.64H1024.82C1029.55 458.64 1033.39 454.803 1033.39 450.07Z" fill="#0E6BA8"/>
<path opacity="0.2" d="M1000.17 506.83V559.7C1000.17 564.433 1004.01 568.27 1008.74 568.27H1024.82C1029.55 568.27 1033.39 564.433 1033.39 559.7V506.83C1033.39 502.097 1029.55 498.26 1024.82 498.26H1008.74C1004.01 498.26 1000.17 502.097 1000.17 506.83Z" fill="#0E6BA8"/>
<path opacity="0.2" d="M855.26 650.66H802.39C797.657 650.66 793.82 654.497 793.82 659.23V675.31C793.82 680.043 797.657 683.88 802.39 683.88H855.26C859.993 683.88 863.83 680.043 863.83 675.31V659.23C863.83 654.497 859.993 650.66 855.26 650.66Z" fill="#0E6BA8"/>
<path opacity="0.2" d="M603.99 683.89H656.86C661.593 683.89 665.43 680.053 665.43 675.32V659.24C665.43 654.507 661.593 650.67 656.86 650.67H603.99C599.257 650.67 595.42 654.507 595.42 659.24V675.32C595.42 680.053 599.257 683.89 603.99 683.89Z" fill="#0E6BA8"/>
<path opacity="0.2" d="M704.93 683.89H757.8C762.533 683.89 766.37 680.053 766.37 675.32V659.24C766.37 654.507 762.533 650.67 757.8 650.67H704.93C700.197 650.67 696.36 654.507 696.36 659.24V675.32C696.36 680.053 700.197 683.89 704.93 683.89Z" fill="#0E6BA8"/>
<path d="M969 478.45L1000.16 532.94" stroke="#001C55" stroke-miterlimit="10"/>
<path d="M903.11 477.78H935.82" stroke="#001C55" stroke-miterlimit="10"/>
<path d="M781.23 475.15L870.51 477.78" stroke="#001C55" stroke-miterlimit="10"/>
<path d="M1000.16 423.63L969.15 478.21" stroke="#001C55" stroke-miterlimit="10"/>
<path opacity="0.2" d="M903.73 504.01V451.14C903.73 446.407 899.893 442.57 895.16 442.57H879.08C874.347 442.57 870.51 446.407 870.51 451.14V504.01C870.51 508.743 874.347 512.58 879.08 512.58H895.16C899.893 512.58 903.73 508.743 903.73 504.01Z" fill="#0E6BA8"/>
<path opacity="0.2" d="M969 504.88V452.01C969 447.277 965.163 443.44 960.43 443.44H944.35C939.617 443.44 935.78 447.277 935.78 452.01V504.88C935.78 509.613 939.617 513.45 944.35 513.45H960.43C965.163 513.45 969 509.613 969 504.88Z" fill="#0E6BA8"/>
<path opacity="0.2" d="M459.61 450.06V397.19C459.61 392.457 455.773 388.62 451.04 388.62H434.96C430.227 388.62 426.39 392.457 426.39 397.19V450.06C426.39 454.793 430.227 458.63 434.96 458.63H451.04C455.773 458.63 459.61 454.793 459.61 450.06Z" fill="#0E6BA8"/>
<path opacity="0.2" d="M426.39 506.83V559.7C426.39 564.433 430.227 568.27 434.96 568.27H451.04C455.773 568.27 459.61 564.433 459.61 559.7V506.83C459.61 502.097 455.773 498.26 451.04 498.26H434.96C430.227 498.26 426.39 502.097 426.39 506.83Z" fill="#0E6BA8"/>
<path d="M490.78 478.45L459.61 532.94" stroke="#001C55" stroke-miterlimit="10"/>
<path d="M556.66 477.78H523.96" stroke="#001C55" stroke-miterlimit="10"/>
<path d="M678.55 475.15L589.27 477.78" stroke="#001C55" stroke-miterlimit="10"/>
<path d="M459.61 423.63L490.62 478.21" stroke="#001C55" stroke-miterlimit="10"/>
<path opacity="0.2" d="M589.27 504.02V451.15C589.27 446.417 585.433 442.58 580.7 442.58H564.62C559.887 442.58 556.05 446.417 556.05 451.15V504.02C556.05 508.753 559.887 512.59 564.62 512.59H580.7C585.433 512.59 589.27 508.753 589.27 504.02Z" fill="#0E6BA8"/>
<path opacity="0.2" d="M524 504.88V452.01C524 447.277 520.163 443.44 515.43 443.44H499.35C494.617 443.44 490.78 447.277 490.78 452.01V504.88C490.78 509.613 494.617 513.45 499.35 513.45H515.43C520.163 513.45 524 509.613 524 504.88Z" fill="#0E6BA8"/>
<path d="M276.02 659.9C276.02 710.14 307.54 750.8 346.49 750.8L276.02 659.9Z" fill="#46455B"/>
<path d="M346.49 750.79C346.49 699.98 381.67 658.87 425.14 658.87L346.49 750.79Z" fill="#0E6BA8"/>
<path d="M301.56 664.45C301.56 712.17 321.66 750.79 346.49 750.79L301.56 664.45Z" fill="#0E6BA8"/>
<path d="M346.49 750.79C346.49 685.87 387.15 633.34 437.39 633.34L346.49 750.79Z" fill="#46455B"/>
<path opacity="0.1" d="M343.43 768.15C353.106 768.15 360.95 766.825 360.95 765.19C360.95 763.555 353.106 762.23 343.43 762.23C333.754 762.23 325.91 763.555 325.91 765.19C325.91 766.825 333.754 768.15 343.43 768.15Z" fill="#0E6BA8"/>
<path d="M331.67 751.43C331.67 751.43 341.67 751.12 344.67 748.98C347.67 746.84 360.04 744.27 360.79 747.71C361.54 751.15 375.79 764.82 364.52 764.91C353.25 765 338.3 763.15 335.3 761.32C332.3 759.49 331.67 751.43 331.67 751.43Z" fill="#A8A8A8"/>
<path opacity="0.2" d="M364.73 763.71C353.45 763.8 338.52 761.96 335.51 760.12C333.22 758.73 332.31 753.73 332 751.42H331.67C331.67 751.42 332.3 759.48 335.31 761.31C338.32 763.14 353.25 764.99 364.53 764.9C367.79 764.9 368.91 763.71 368.85 762C368.4 763.05 367.16 763.69 364.73 763.71Z" fill="black"/>
<path d="M1124.22 806.79L1096.55 766.67C1096.55 766.67 1096.03 756.74 1094.22 754.41C1092.41 752.08 1093.83 746.93 1093.83 746.93C1093.83 746.93 1095.77 744.09 1094.09 743.84C1092.41 743.59 1093.83 737.26 1093.83 737.26L1093.7 727.19C1093.7 727.19 1095.25 717.52 1093.96 715.19C1093.58 714.562 1093.4 713.838 1093.42 713.106C1093.44 712.374 1093.67 711.663 1094.09 711.06C1094.09 711.06 1095.64 705.51 1094.09 704.06C1092.54 702.61 1092.92 694 1093.31 687.17C1093.7 680.34 1090.6 676.46 1090.6 675.43C1090.6 674.4 1080.38 664.33 1080.38 663.43C1080.38 662.53 1073.92 658.79 1070.04 657.75C1066.16 656.71 1064.22 655.95 1064.35 655.43C1064.48 654.91 1058.27 652.85 1058.27 652.85C1058.27 652.85 1052.84 652.47 1050.77 649.76C1048.7 647.05 1042.37 646.26 1042.2 646.24C1042.2 646.06 1042.11 645.88 1042.08 645.7L1041.96 645.12C1042.45 644.3 1042.9 643.46 1043.31 642.59L1043.67 641.8C1045.95 641.807 1048.17 641.109 1050.03 639.8C1050.94 639.035 1051.69 638.091 1052.22 637.027C1052.76 635.962 1053.06 634.799 1053.13 633.61C1053.24 631.227 1052.72 628.858 1051.62 626.74C1050.48 624.41 1048.82 622.01 1049.39 619.49C1049.64 618.4 1050.29 617.49 1050.63 616.38C1051.13 614.3 1050.8 612.107 1049.7 610.27C1048.7 608.4 1047.36 606.75 1046.27 604.93C1044.88 602.618 1043.95 600.057 1043.54 597.39C1043.46 595.971 1043.12 594.579 1042.54 593.28C1041.96 592.364 1041.18 591.583 1040.27 590.99C1036.22 588.099 1031.34 586.62 1026.37 586.78C1022.85 586.9 1019.37 587.85 1015.85 587.42C1013.76 587.052 1011.7 586.513 1009.7 585.81C1005.37 584.53 1000.36 584 996.59 586.48C992.82 588.96 991.31 593.84 988.75 597.66C986.48 601.04 983.17 603.87 981.45 607.45C981.45 607.38 981.45 607.31 981.5 607.24C981.069 608.069 980.733 608.945 980.5 609.85C979.84 612.66 980.39 615.6 981.07 618.4C981.43 619.85 981.91 621.4 983.16 622.22C984.41 623.04 986.16 622.85 987.68 623.11C987.62 623.36 987.56 623.6 987.51 623.85C985.959 631.119 987.209 638.705 991.009 645.092C994.81 651.479 1000.88 656.196 1008.01 658.3C1008.01 658.56 1008.01 658.83 1008.01 659.08C1008.01 659.85 1007.95 660.59 1007.87 661.3C1007.87 661.3 994.87 658.63 991.38 660.43C987.89 662.23 981.03 663.66 980 664.69C978.97 665.72 976.38 664.95 974.05 671.01C971.72 677.07 971.47 683.27 968.49 686.1C965.51 688.93 963.97 690.88 963.84 692.94C963.71 695 964.22 695.52 963.06 696.17C961.9 696.82 960.22 699.52 960.73 700.55C960.73 700.55 961.38 703.13 959.31 704.42C958.698 704.852 958.209 705.436 957.892 706.115C957.574 706.794 957.439 707.543 957.5 708.29C957.5 708.29 956.72 711.13 954.91 711.77C953.1 712.41 951.91 716.68 951.91 716.68L946.05 723.42L934.42 710.56C933.549 709.599 932.333 709.023 931.037 708.957C929.742 708.891 928.474 709.342 927.51 710.21L921.9 715.41C919.697 715.942 917.707 717.127 916.19 718.81C914.936 720.086 913.92 721.576 913.19 723.21L910.07 726.03C909.582 726.464 909.187 726.992 908.91 727.584C908.633 728.175 908.48 728.817 908.46 729.47C908.055 730.338 907.915 731.306 908.059 732.253C908.204 733.199 908.625 734.082 909.27 734.79L916.71 743.03V743.1C914.067 743.32 911.555 744.342 909.51 746.03C898.39 755.83 898.26 764.86 899.94 769.03C901.62 773.2 915.71 789.03 915.71 789.03C915.71 789.03 923.9 799.68 935.71 805.34L935.63 805.43C935.39 805.68 935.16 805.95 934.93 806.24L934.74 806.49L934.56 806.74L934.35 807.05L934.19 807.3L933.96 807.67C933.919 807.757 933.873 807.84 933.82 807.92C933.73 808.08 933.64 808.25 933.56 808.42L933.47 808.59C933.36 808.81 933.26 809.05 933.15 809.29C933.04 809.53 933.08 809.47 933.05 809.55C933.02 809.63 932.91 809.89 932.85 810.07L932.73 810.4C932.67 810.56 932.62 810.73 932.56 810.9C932.5 811.07 932.49 811.14 932.45 811.27L932.3 811.83L932.21 812.18C932.13 812.48 932.07 812.79 932 813.11L931.94 813.48C931.94 813.69 931.86 813.91 931.83 814.14C931.8 814.37 931.78 814.45 931.76 814.61C931.74 814.77 931.76 815.03 931.68 815.25C931.6 815.47 931.68 815.58 931.63 815.74C931.58 815.9 931.63 816.23 931.63 816.48C931.63 816.73 931.63 816.77 931.63 816.93C931.63 817.33 931.63 817.75 931.58 818.18C931.32 833.27 932.2 835.46 932.2 835.46C932.2 835.46 934.03 840.27 939.07 840.61C939.809 840.662 940.551 840.622 941.28 840.49C948 839.33 963.78 836.62 969.34 837.66C972.68 838.28 978.87 837.36 983.27 836.53L984.44 836.3L985.24 838.87L987.8 838.17L989.97 839.42L991.34 840.21C993.89 848.86 1004.25 845.91 1004.25 845.91L1006.71 847.33L1031.71 847.97C1034.51 849.67 1037.47 851.093 1040.55 852.22C1040.96 852.34 1041.38 852.43 1041.8 852.49C1044.11 852.674 1046.43 852.717 1048.75 852.62C1050.67 852.62 1052.15 852.49 1052.15 852.49C1052.15 852.49 1051.89 845.72 1051.53 838.13C1061.06 837.73 1069.53 837.13 1074.64 836.24C1087.9 833.9 1093.45 821.74 1095.5 815.26C1096.11 817.895 1096.55 820.567 1096.8 823.26C1097.34 825.634 1098.04 827.972 1098.87 830.26C1099.6 832.092 1100.56 833.826 1101.72 835.42C1111.55 832.07 1105.6 827.04 1103.53 824.85C1101.46 822.66 1104.95 820.85 1104.95 820.85C1104.95 820.85 1107.67 819.04 1107.41 817.36C1107.15 815.68 1107.02 813.88 1115.81 814.01C1124.6 814.14 1124.22 806.79 1124.22 806.79ZM987.68 724.42C987.79 725.16 989.02 733.1 990.13 735.19C990.437 736.584 990.535 738.017 990.42 739.44C985.21 739.03 979.78 738.8 979.78 738.8C979.938 738.99 980.036 739.224 980.06 739.47L979.24 739.28C978.86 739.19 978.46 739.1 978.05 738.99L987.65 724.4L987.68 724.42ZM968.68 754.67L977.68 756.1L978.44 756.22C978.183 757.627 978.026 759.051 977.97 760.48C977.97 760.61 978.17 760.77 978.46 760.96C978.338 761.663 978.281 762.376 978.29 763.09C978.43 763.81 982.65 765.35 987.49 766.63C987.42 766.89 987.35 767.13 987.29 767.37C983.02 765.12 976.29 764.07 975.51 762.37C974.73 760.67 951.9 752.74 951.9 752.74C951.9 752.74 951.06 752.29 949.62 751.6L955.62 752.74L957.28 752.57C961.024 753.514 964.826 754.215 968.66 754.67H968.68Z" fill="url(#paint0_linear)"/>
<path d="M1094.79 812.4C1094.79 812.4 1091.2 834.05 1073 837.26C1054.8 840.47 994.06 839.82 994.06 839.82C994.06 839.82 959.33 834.82 946.77 805.48C934.21 776.14 926.14 764.48 936.9 763.95C947.66 763.42 1005.72 783.56 1009.05 783.82C1012.38 784.08 1097.99 739.22 1094.79 812.4Z" fill="#65617D"/>
<path opacity="0.05" d="M1094.79 812.4C1094.79 812.4 1091.2 834.05 1073 837.26C1054.8 840.47 994.06 839.82 994.06 839.82C994.06 839.82 959.33 834.82 946.77 805.48C934.21 776.14 926.14 764.48 936.9 763.95C947.66 763.42 1005.72 783.56 1009.05 783.82C1012.38 784.08 1097.99 739.22 1094.79 812.4Z" fill="black"/>
<path d="M931.9 836.49C931.9 836.49 933.71 841.26 938.7 841.61C939.432 841.662 940.168 841.622 940.89 841.49C947.56 840.33 963.19 837.64 968.7 838.67C972.02 839.28 978.15 838.37 982.52 837.55C985.42 837 987.52 836.49 987.52 836.49C987.52 836.49 982.4 819.49 981.75 818.93C981.1 818.37 958.69 804.93 958.69 804.93L940.9 803.69C938.52 804.057 936.372 805.324 934.9 807.23C933.03 809.5 931.42 813.23 931.31 819.33C931 834.31 931.9 836.49 931.9 836.49Z" fill="#001C55"/>
<path opacity="0.05" d="M931.9 836.49C931.9 836.49 933.71 841.26 938.7 841.61C936.96 839.371 935.351 837.034 933.88 834.61L933.97 822.18C933.611 818.771 934.057 815.326 935.273 812.122C936.489 808.917 938.44 806.043 940.97 803.73H940.9C940.9 803.73 931.55 804.37 931.29 819.37C931.03 834.37 931.9 836.49 931.9 836.49Z" fill="black"/>
<path opacity="0.1" d="M1008.9 809.32L1025.43 796.38L1051.43 770.75C1051.43 770.75 1048.62 770.61 1044.38 770.43C1043.38 771.1 1040.38 773.21 1040.26 775.78C1040.14 778.92 1033.26 776 1029.64 777.78C1026.02 779.56 1008.54 802.06 1005.46 801.9C1002.38 801.74 999.95 800.34 998.67 802.52L998.58 802.66L1008.9 809.32Z" fill="black"/>
<path opacity="0.1" d="M934.9 807.22C935.49 807.5 936.09 807.78 936.69 808.04C949.25 813.42 964.76 824.7 965.91 826.75C966.62 828 975.61 833.46 982.55 837.55C985.45 837 987.55 836.49 987.55 836.49C987.55 836.49 982.43 819.49 981.78 818.93C981.13 818.37 958.72 804.93 958.72 804.93L940.9 803.69C938.521 804.054 936.374 805.318 934.9 807.22Z" fill="black"/>
<path d="M899.99 770.49C901.66 774.59 915.63 790.35 915.63 790.35C915.63 790.35 924.47 801.89 937.03 807.27C949.59 812.65 965.09 823.93 966.25 825.98C966.99 827.3 977 833.33 984.05 837.47L985.63 838.39L989.13 840.39L990.98 841.46C990.98 841.46 995.27 838.01 999.55 834.54C1003.83 831.07 1007.96 827.68 1008.03 827.54C1008.15 827.16 1009.82 822.8 1009.43 822.54C1009.23 822.41 1008.35 820.63 1006.74 818.54C1005.02 816.253 1002.78 814.403 1000.21 813.14C994.31 810.45 991.75 804.32 991.75 804.32C991.75 804.32 991.19 803.92 990.34 803.38C988.593 802.172 986.636 801.301 984.57 800.81C981.75 800.46 976.5 794.69 976.5 794.69C976.5 794.69 972.91 792.38 971.5 789.44C970.09 786.5 950.28 772.98 948.44 771.71L996.62 802.66L1008.15 810.07L1024.69 797.13L1050.69 771.5C1050.69 771.5 1047.19 771.33 1042.11 771.11C1029.46 770.56 1007.01 769.7 1004.17 770.34C1001.88 770.876 999.513 771.032 997.17 770.8C997.17 770.8 990.77 771.09 986.54 768.86C982.31 766.63 975.64 765.58 974.87 763.93C974.1 762.28 951.42 754.32 951.42 754.32C951.42 754.32 920.54 737.92 909.51 747.66C898.48 757.4 898.33 766.39 899.99 770.49Z" fill="#65617D"/>
<path d="M999.57 676.43L1003.57 689.62L1008.7 719.36L1027.53 720.64L1032.99 711.64L1038.43 702.64C1038.43 702.64 1041.82 690.64 1044.26 679C1046.41 668.72 1047.82 658.74 1045.48 657.66C1043.4 656.66 1042.03 653.23 1041.14 649.51C1041.03 649.05 1040.92 648.58 1040.83 648.12C1040.21 644.964 1039.79 641.77 1039.58 638.56C1039.58 638.56 1000.11 636.51 1005.58 652.79C1006.57 655.567 1007.07 658.493 1007.07 661.44C1007.06 662.175 1007.01 662.909 1006.93 663.64C1006.65 666.164 1005.85 668.602 1004.58 670.803C1003.32 673.004 1001.61 674.919 999.57 676.43Z" fill="#EE8E9E"/>
<path d="M991.36 674.25L992.78 696.67L995.98 715.77L999.57 724.61L1002.77 772.99C1002.77 772.99 1033.67 776.56 1041.19 772.93C1041.73 772.699 1042.2 772.33 1042.55 771.86C1051.62 758.16 1048.65 718.46 1048.65 718.46L1052.11 692.83L1049.8 679.53L1044.23 678.93L1039.94 678.48C1039.94 678.48 1038.94 679.67 1037.57 681.48C1033.77 686.48 1026.78 696.36 1027.25 700.48C1027.89 706.12 1026.48 711.88 1024.25 712.78C1022.02 713.68 1020.25 715.22 1019.9 713.68C1019.55 712.14 1019.13 711.76 1019.51 709.58C1019.89 707.4 1017.84 700.73 1017.84 700.73C1017.84 700.73 1014.38 692.92 1014.64 689.58C1014.9 686.24 1014.26 682.41 1013.23 681.51C1012.2 680.61 1010.8 679.72 1011.95 675.62C1013.1 671.52 1006.9 663.57 1006.9 663.57L991.36 674.25Z" fill="#E3E8F4"/>
<path opacity="0.1" d="M1032.18 730.26L1033.47 768.58L1040.87 772.68C1041.41 772.449 1041.88 772.084 1042.23 771.62C1051.3 757.91 1048.33 718.21 1048.33 718.21L1051.79 692.58L1049.48 679.28L1043.91 678.68C1046.06 668.4 1047.47 658.42 1045.13 657.34C1043.05 656.34 1041.68 652.91 1040.79 649.19L1036.79 676.3C1036.79 676.3 1037.12 678.75 1037.24 681.3C1037.4 682.897 1037.29 684.509 1036.92 686.07C1036.02 688.38 1036.66 692.48 1036.66 692.48C1034.35 696.55 1033.19 704.09 1032.66 711.37C1031.9 721.03 1032.18 730.26 1032.18 730.26Z" fill="black"/>
<path d="M1040.9 648.58C1040.9 648.58 1047.36 649.38 1049.41 652.08C1051.46 654.78 1056.84 655.15 1056.84 655.15C1056.84 655.15 1062.99 657.15 1062.84 657.71C1062.69 658.27 1064.63 659 1068.47 660.02C1072.31 661.04 1078.73 664.76 1078.73 665.66C1078.73 666.56 1088.9 676.55 1088.9 677.58C1088.9 678.61 1091.98 682.45 1091.59 689.24C1091.2 696.03 1090.82 704.62 1092.36 706.03C1093.9 707.44 1092.36 712.95 1092.36 712.95C1091.95 713.548 1091.71 714.254 1091.69 714.981C1091.67 715.708 1091.85 716.427 1092.23 717.05C1093.51 719.36 1091.98 728.97 1091.98 728.97L1092.1 738.97C1092.1 738.97 1090.69 745.25 1092.36 745.51C1094.03 745.77 1092.1 748.59 1092.1 748.59C1092.1 748.59 1090.69 753.71 1092.49 756.02C1094.29 758.33 1094.8 768.19 1094.8 768.19L1122.22 808.05C1122.22 808.05 1122.61 815.35 1113.89 815.23C1105.17 815.11 1105.3 816.89 1105.56 818.56C1105.82 820.23 1103.13 822.02 1103.13 822.02C1103.13 822.02 1099.67 823.81 1101.72 826.02C1103.77 828.23 1109.66 833.2 1099.92 836.53C1098.77 834.943 1097.83 833.22 1097.1 831.4C1096.27 829.138 1095.59 826.827 1095.05 824.48C1095.05 824.48 1094.15 814.74 1092.36 813.48C1090.57 812.22 1090.82 806.05 1090.82 806.05C1090.82 806.05 1093.39 801.05 1089.82 799C1086.25 796.95 1034.2 768.11 1034.2 768.11L1032.9 729.74C1032.9 729.74 1032 701.42 1037.38 691.93C1037.38 691.93 1036.74 687.83 1037.64 685.52C1038.54 683.21 1037.51 675.78 1037.51 675.78L1040.9 648.58Z" fill="#001C55"/>
<path opacity="0.1" d="M1007.33 663.96C1007.33 663.96 994.44 661.3 990.98 663.1C987.52 664.9 980.73 666.3 979.7 667.33C978.67 668.36 976.12 667.58 973.81 673.61C971.5 679.64 971.25 685.78 968.3 688.61C965.35 691.44 963.81 693.35 963.68 695.4C963.55 697.45 964.07 697.96 962.92 698.61C961.77 699.26 960.1 701.94 960.61 702.96C961.12 703.98 987.26 726.54 987.26 726.54C987.26 726.54 988.55 735.13 989.7 737.31C990.85 739.49 988.42 769.47 985.86 771.53C983.3 773.59 1003.16 773.39 1003.16 773.39C1003.16 773.39 1004.05 753.71 1004.82 752.69C1005.59 751.67 1004.31 730.69 1004.31 730.69C1004.31 730.69 1004.18 712.75 1005.85 708.01C1007.52 703.27 1007.33 687.51 1007.33 687.51C1007.33 687.51 1008.8 678.05 1010.59 675.84C1012.38 673.63 1007.33 663.96 1007.33 663.96Z" fill="black"/>
<path d="M1006.9 663.57C1006.9 663.57 994.02 660.92 990.56 662.71C987.1 664.5 980.34 665.9 979.32 666.9C978.3 667.9 975.73 667.16 973.42 673.18C971.11 679.2 970.86 685.36 967.91 688.18C964.96 691 963.43 692.92 963.3 694.97C963.17 697.02 963.68 697.53 962.53 698.17C961.38 698.81 959.71 701.5 960.22 702.53C960.73 703.56 986.9 726.15 986.9 726.15C986.9 726.15 988.18 734.73 989.34 736.91C990.5 739.09 988.05 769.08 985.49 771.13C982.93 773.18 1002.79 772.99 1002.79 772.99C1002.79 772.99 1003.69 753.32 1004.46 752.29C1005.23 751.26 1003.94 730.29 1003.94 730.29C1003.94 730.29 1003.82 712.35 1005.48 707.61C1007.14 702.87 1006.9 687.06 1006.9 687.06C1006.9 687.06 1008.37 677.6 1010.16 675.4C1011.95 673.2 1006.9 663.57 1006.9 663.57Z" fill="#001C55"/>
<path opacity="0.1" d="M1005.59 652.72C1006.58 655.497 1007.08 658.423 1007.08 661.37C1013.38 663.245 1020.13 662.952 1026.24 660.537C1032.36 658.121 1037.48 653.725 1040.8 648.05C1040.18 644.894 1039.76 641.701 1039.55 638.49C1039.55 638.49 1000.08 636.44 1005.59 652.72Z" fill="black"/>
<path d="M986.11 632.47C986.111 639.988 988.997 647.219 994.173 652.672C999.35 658.125 1006.42 661.384 1013.93 661.776C1021.44 662.168 1028.81 659.664 1034.53 654.78C1040.24 649.897 1043.87 643.006 1044.65 635.528C1045.43 628.051 1043.32 620.558 1038.74 614.594C1034.16 608.63 1027.47 604.651 1020.05 603.476C1012.62 602.302 1005.03 604.021 998.831 608.281C992.636 612.541 988.312 619.016 986.75 626.37C986.324 628.375 986.11 630.42 986.11 632.47Z" fill="#EE8E9E"/>
<path d="M967.27 700.39L960.27 702.57C960.27 702.57 960.92 705.13 958.86 706.41C958.253 706.841 957.769 707.423 957.455 708.098C957.142 708.773 957.009 709.518 957.07 710.26C957.07 710.26 956.3 713.08 954.51 713.72C952.72 714.36 951.56 718.59 951.56 718.59L945.66 725.38C945.66 725.38 943.49 727.17 943.87 728.07C944.25 728.97 941.56 729.22 941.56 729.22L942.9 752.04L955.08 754.34L962.64 753.57L968.79 751.27L974.17 748.06L976.61 741.78L987.37 725.38L967.27 700.39Z" fill="#001C55"/>
<path d="M943.31 731.02C943.31 731.02 927.67 708.46 916.01 720.64C904.35 732.82 920.75 752.55 924.6 751.91C928.45 751.27 946.77 750.24 946.77 750.24L943.31 731.02Z" fill="#EE8E9E"/>
<path d="M980.66 721.566L910.518 685.765C909.76 685.378 908.833 685.679 908.446 686.436L880.96 740.288C880.574 741.045 880.874 741.973 881.632 742.359L951.774 778.16C952.531 778.547 953.459 778.246 953.845 777.488L981.331 723.637C981.718 722.88 981.417 721.952 980.66 721.566Z" fill="#001C55"/>
<path d="M973.66 724.426L912.398 693.158L888.836 739.323L950.097 770.591L973.66 724.426Z" fill="#0E6BA8"/>
<path d="M898.3 716.13C898.924 716.13 899.43 715.624 899.43 715C899.43 714.376 898.924 713.87 898.3 713.87C897.676 713.87 897.17 714.376 897.17 715C897.17 715.624 897.676 716.13 898.3 716.13Z" fill="#E6E8EC"/>
<path d="M964.61 750.83C965.637 750.83 966.47 749.997 966.47 748.97C966.47 747.943 965.637 747.11 964.61 747.11C963.583 747.11 962.75 747.943 962.75 748.97C962.75 749.997 963.583 750.83 964.61 750.83Z" fill="#E6E8EC"/>
<path d="M933.18 735.76C933.06 752.68 968.04 756.26 968.04 756.26L976.98 757.68L980.98 758.32L982.65 741.78C982.65 741.78 980.82 741.51 978.53 740.98C975.14 740.19 970.75 738.82 969.83 736.91C968.3 733.71 933.31 718.84 933.18 735.76Z" fill="#EE8E9E"/>
<path opacity="0.1" d="M986.75 626.37C987.563 626.435 988.326 626.79 988.9 627.37C989.9 628.42 989.9 630.28 991.23 630.92C991.71 631.134 992.244 631.197 992.76 631.1C996.17 630.62 998.14 626.77 1001.41 625.71C1003.32 625.22 1005.34 625.396 1007.14 626.21C1007.87 626.432 1008.53 626.85 1009.04 627.42C1010.14 628.84 1009.37 630.93 1009.88 632.64C1010.58 635.02 1013.42 635.97 1015.88 636.28C1018.34 636.59 1021.11 636.76 1022.76 638.62C1023.31 639.32 1023.7 640.127 1023.91 640.989C1024.12 641.851 1024.14 642.748 1023.98 643.62C1023.84 644.221 1023.84 644.849 1023.98 645.45C1024.66 647.38 1027.98 647.09 1028.85 645.57C1029.49 644.47 1029.3 643.57 1030.79 643.25C1031.87 643.159 1032.95 643.345 1033.93 643.79C1036.54 644.684 1039.28 645.104 1042.04 645.03C1043.8 641.284 1044.75 637.208 1044.83 633.069C1044.9 628.93 1044.1 624.822 1042.48 621.015C1040.85 617.208 1038.44 613.787 1035.4 610.978C1032.36 608.169 1028.76 606.035 1024.83 604.716C1020.91 603.397 1016.75 602.923 1012.63 603.325C1008.51 603.727 1004.52 604.996 1000.93 607.048C997.334 609.101 994.214 611.891 991.774 615.234C989.334 618.578 987.628 622.4 986.77 626.45L986.75 626.37Z" fill="black"/>
<path d="M1023.96 644.61C1023.82 644.005 1023.82 643.375 1023.96 642.77C1024.12 641.898 1024.1 641.001 1023.89 640.139C1023.68 639.277 1023.29 638.47 1022.74 637.77C1021.09 635.91 1018.32 635.77 1015.86 635.43C1013.4 635.09 1010.56 634.17 1009.86 631.79C1009.35 630.08 1010.12 627.99 1009.02 626.58C1008.51 626.005 1007.85 625.583 1007.12 625.36C1005.32 624.546 1003.3 624.37 1001.39 624.86C998.12 625.92 996.15 629.77 992.74 630.25C992.224 630.347 991.69 630.284 991.21 630.07C989.92 629.43 989.87 627.57 988.88 626.52C987.32 624.87 984.37 625.94 982.46 624.71C981.22 623.91 980.74 622.35 980.39 620.92C979.72 618.13 979.17 615.21 979.83 612.42C980.94 607.65 985.2 604.42 987.92 600.31C990.46 596.52 991.92 591.72 995.69 589.2C999.46 586.68 1004.39 587.26 1008.69 588.54C1010.67 589.238 1012.71 589.77 1014.78 590.13C1018.24 590.56 1021.72 589.62 1025.21 589.5C1030.13 589.345 1034.97 590.814 1038.98 593.68C1039.88 594.273 1040.65 595.05 1041.23 595.96C1041.81 597.247 1042.15 598.63 1042.23 600.04C1042.64 602.691 1043.56 605.238 1044.94 607.54C1046.01 609.34 1047.37 610.97 1048.34 612.84C1049.42 614.667 1049.75 616.844 1049.26 618.91C1048.93 619.96 1048.26 620.91 1048.03 622C1047.46 624.5 1049.11 626.89 1050.24 629.2C1051.33 631.306 1051.85 633.661 1051.74 636.03C1051.68 637.21 1051.37 638.364 1050.84 639.42C1050.31 640.477 1049.57 641.413 1048.66 642.17C1046.76 643.505 1044.49 644.205 1042.17 644.17C1039.36 644.256 1036.56 643.825 1033.9 642.9C1032.92 642.455 1031.84 642.269 1030.76 642.36C1029.27 642.66 1029.46 643.58 1028.82 644.68C1027.96 646.24 1024.64 646.53 1023.96 644.61Z" fill="#001C55"/>
<path opacity="0.1" d="M1008.15 810.09L1024.69 797.15L1050.69 771.52C1050.69 771.52 1047.19 771.35 1042.11 771.13C1041.1 772.039 1040.45 773.282 1040.29 774.63C1040.17 777.76 1033.29 774.85 1029.67 776.63C1026.05 778.41 1008.54 800.9 1005.46 800.76C1002.38 800.62 999.95 799.2 998.67 801.38L998.58 801.52C998.055 802.112 997.354 802.518 996.58 802.68L1008.15 810.09Z" fill="black"/>
<path d="M974.83 809.19L983.14 835.71L984.44 839.87L988.44 838.79L997.16 836.39L1036 825.72C1040.88 825.509 1045.66 824.236 1050 821.99C1057.35 817.882 1065.75 816.051 1074.14 816.73C1079.27 817.21 1084.98 815 1089.72 806.24C1089.72 806.24 1100.48 774.46 1073.31 765.36C1046.14 756.26 1044.85 770.2 1044.85 770.2L1044.48 770.43C1043.48 771.1 1040.48 773.21 1040.36 775.78C1040.24 778.92 1033.36 776 1029.74 777.78C1026.12 779.56 1008.54 802.06 1005.46 801.9C1002.38 801.74 999.95 800.34 998.67 802.52L998.58 802.66C997.63 803.97 994.77 804.27 992.89 804.33C991.89 804.33 991.11 804.33 991.11 804.33L990.87 804.4L988.87 804.99L974.83 809.19Z" fill="#65617D"/>
<path opacity="0.1" d="M976.98 757.68L980.98 758.32L982.65 741.78C982.65 741.78 980.82 741.51 978.53 740.98C979.13 743.28 977.76 752.2 976.98 757.68Z" fill="black"/>
<path opacity="0.1" d="M1081.77 680.43C1081.77 680.43 1093.69 676.97 1090.77 710.81C1087.85 744.65 1065.77 766.04 1065.77 766.04C1065.77 766.04 1040.4 777.19 1028.99 775.4C1022.45 774.344 1015.87 773.617 1009.26 773.22C1005.67 771.404 1001.74 770.355 997.72 770.14C991.32 769.89 977.86 765.91 977.6 764.63C977.34 763.35 980.94 744.51 979.4 743.1C979.4 743.1 997.34 743.84 999.13 745.1C1000.92 746.36 1003.49 745.47 1005.41 745.1C1007.33 744.73 1013.23 739.61 1024.89 744.1C1024.89 744.1 1028.89 744.48 1030.4 743.46C1031.91 742.44 1034.4 743.2 1034.4 743.2C1035.39 742.859 1036.33 742.385 1037.19 741.79C1037.57 741.28 1040.65 741.79 1040.65 741.79C1040.83 741.88 1041.03 741.927 1041.24 741.929C1041.44 741.93 1041.64 741.887 1041.83 741.8C1042.01 741.714 1042.17 741.587 1042.3 741.43C1042.43 741.272 1042.52 741.088 1042.57 740.89C1042.97 739.839 1043.58 738.88 1044.36 738.07C1044.36 738.07 1047.82 718.59 1054.36 711.29C1054.36 711.29 1056.28 709.62 1055.77 707.57C1055.26 705.52 1066.39 676.33 1081.77 680.43Z" fill="black"/>
<path d="M1081.46 677.83C1081.46 677.83 1093.38 674.37 1090.46 708.21C1087.54 742.05 1065.46 763.44 1065.46 763.44C1065.46 763.44 1040.08 774.59 1028.68 772.8C1017.28 771.01 1008.9 770.62 1008.9 770.62C1005.31 768.805 1001.39 767.756 997.37 767.54C990.96 767.29 977.51 763.31 977.25 762.03C976.99 760.75 980.58 741.91 979.04 740.5C979.04 740.5 996.98 741.24 998.78 742.5C1000.58 743.76 1003.14 742.86 1005.06 742.5C1006.98 742.14 1012.88 737 1024.54 741.5C1024.54 741.5 1028.54 741.88 1030.05 740.86C1031.56 739.84 1034.05 740.6 1034.05 740.6C1035.04 740.261 1035.97 739.786 1036.83 739.19C1037.21 738.68 1040.29 739.19 1040.29 739.19C1040.47 739.28 1040.67 739.327 1040.88 739.329C1041.08 739.33 1041.28 739.287 1041.47 739.2C1041.65 739.114 1041.81 738.987 1041.94 738.83C1042.07 738.672 1042.16 738.488 1042.21 738.29C1042.62 737.241 1043.23 736.283 1044.01 735.47C1044.01 735.47 1047.47 715.99 1054.01 708.69C1054.01 708.69 1055.94 707.02 1055.42 704.97C1054.9 702.92 1066.08 673.73 1081.46 677.83Z" fill="#001C55"/>
<path opacity="0.1" d="M988.9 804.98L1005.82 825.46C1005.89 825.4 1005.93 825.36 1005.93 825.34C1006.06 824.96 1007.72 820.6 1007.34 820.34C1006.96 820.08 1004.01 813.67 998.11 810.98C995.117 809.515 992.605 807.225 990.87 804.38L988.9 804.98Z" fill="black"/>
<path opacity="0.1" d="M989.13 840.42L990.98 841.49C990.98 841.49 995.27 838.04 999.55 834.57C1003.83 831.1 1007.96 827.71 1008.03 827.57C1008.15 827.19 1009.82 822.83 1009.43 822.57C1009.23 822.44 1008.35 820.66 1006.74 818.57C995.26 815.35 1002.57 823.32 1003.54 823.68C1003.54 823.68 989.54 820.48 988.8 835.68C988.7 837.268 988.811 838.862 989.13 840.42Z" fill="black"/>
<path d="M1003.28 846.9L1005.72 848.31L1030.45 848.95C1033.23 850.634 1036.16 852.045 1039.21 853.16C1039.61 853.288 1040.03 853.381 1040.45 853.44C1042.74 853.619 1045.04 853.662 1047.34 853.57C1049.24 853.57 1050.7 853.44 1050.7 853.44C1050.7 853.44 1049.53 822.24 1048.7 818.96C1048.28 817.39 1046.2 817.74 1044.16 818.52C1042.62 819.143 1041.14 819.892 1039.73 820.76C1039.73 820.76 1029.22 821.76 1027.55 822.69C1025.88 823.62 1021.15 822.17 1018.2 822.69C1015.25 823.21 1010 819.22 1010 819.22C995.64 814.48 1003.72 823.32 1004.74 823.7C1004.74 823.7 990.74 820.5 990.01 835.7C989.28 850.9 1003.28 846.9 1003.28 846.9Z" fill="#001C55"/>
<path d="M1039.04 834.82C1039.31 841.28 1044.34 849.3 1047.34 853.54C1049.24 853.54 1050.7 853.41 1050.7 853.41C1050.7 853.41 1049.53 822.21 1048.7 818.93C1048.28 817.36 1046.2 817.71 1044.16 818.49C1041.63 823.14 1038.82 829.62 1039.04 834.82Z" fill="#565387"/>
<path opacity="0.1" d="M1039.04 834.82C1039.31 841.28 1044.34 849.3 1047.34 853.54C1049.24 853.54 1050.7 853.41 1050.7 853.41C1050.7 853.41 1049.53 822.21 1048.7 818.93C1048.28 817.36 1046.2 817.71 1044.16 818.49C1041.63 823.14 1038.82 829.62 1039.04 834.82Z" fill="black"/>
<path opacity="0.05" d="M1034.81 835.68C1036.51 841.91 1036.49 848.9 1039.21 853.13C1039.61 853.258 1040.03 853.351 1040.45 853.41C1042.74 853.589 1045.04 853.632 1047.34 853.54C1049.24 853.54 1050.7 853.41 1050.7 853.41C1050.7 853.41 1049.53 822.21 1048.7 818.93C1048.28 817.36 1046.2 817.71 1044.16 818.49C1042.62 819.113 1041.14 819.862 1039.73 820.73C1039.73 820.73 1032.63 827.7 1034.81 835.68Z" fill="black"/>
<path opacity="0.1" d="M949.48 772.45C949.48 772.45 961.77 776.45 972.18 790.61L949.48 772.45Z" fill="black"/>
<g opacity="0.1">
<path opacity="0.1" d="M1049.31 618.67C1049.31 618.77 1049.31 618.86 1049.24 618.95C1049.12 619.314 1048.97 619.671 1048.81 620.02C1048.94 619.556 1049.1 619.104 1049.31 618.67Z" fill="black"/>
<path opacity="0.1" d="M979.8 612.46C980.032 611.561 980.368 610.692 980.8 609.87C980.73 610.09 980.67 610.31 980.61 610.54C979.96 613.33 980.5 616.25 981.18 619.03C981.53 620.47 982.01 622.03 983.25 622.83C985.16 624.05 988.11 622.99 989.67 624.64C990.67 625.64 990.67 627.55 992 628.19C992.48 628.404 993.014 628.467 993.53 628.37C996.93 627.89 998.91 624.04 1002.18 622.98C1004.09 622.49 1006.11 622.666 1007.91 623.48C1008.64 623.704 1009.3 624.126 1009.81 624.7C1010.9 626.11 1010.14 628.2 1010.64 629.91C1011.35 632.29 1014.19 633.23 1016.64 633.55C1019.09 633.87 1021.87 634.03 1023.52 635.89C1024.07 636.59 1024.46 637.397 1024.67 638.259C1024.88 639.121 1024.9 640.018 1024.74 640.89C1024.59 641.491 1024.59 642.119 1024.74 642.72C1025.42 644.64 1028.74 644.36 1029.61 642.84C1030.25 641.74 1030.05 640.84 1031.55 640.51C1032.63 640.427 1033.71 640.616 1034.69 641.06C1037.35 641.971 1040.16 642.391 1042.97 642.3C1045.29 642.335 1047.56 641.635 1049.46 640.3C1050.29 639.643 1050.97 638.818 1051.46 637.88C1051.03 639.586 1050.05 641.108 1048.69 642.22C1046.79 643.554 1044.52 644.255 1042.2 644.22C1039.38 644.294 1036.56 643.846 1033.9 642.9C1032.92 642.455 1031.84 642.269 1030.76 642.36C1029.27 642.66 1029.46 643.58 1028.82 644.68C1027.95 646.2 1024.63 646.49 1023.95 644.57C1023.81 643.965 1023.81 643.335 1023.95 642.73C1024.11 641.858 1024.09 640.961 1023.88 640.099C1023.67 639.237 1023.28 638.43 1022.73 637.73C1021.08 635.87 1018.31 635.73 1015.85 635.39C1013.39 635.05 1010.55 634.13 1009.85 631.75C1009.34 630.04 1010.11 627.95 1009.01 626.54C1008.5 625.967 1007.84 625.545 1007.11 625.32C1005.31 624.506 1003.29 624.33 1001.38 624.82C998.11 625.88 996.13 629.73 992.73 630.21C992.214 630.307 991.68 630.244 991.2 630.03C989.91 629.39 989.86 627.53 988.87 626.48C987.31 624.83 984.36 625.9 982.45 624.67C981.21 623.87 980.73 622.31 980.38 620.88C979.69 618.17 979.15 615.25 979.8 612.46Z" fill="black"/>
</g>
<path opacity="0.1" d="M1051.3 715.03C1048.95 718.2 1046.3 721.13 1044.19 724.48C1042.08 727.83 1040.65 731.75 1041.08 735.67C1043.23 733.47 1044.21 730.42 1045.57 727.67C1047.86 722.99 1051.29 719.02 1054.19 714.67C1054.74 713.85 1058.28 709.1 1056.49 708.87C1055.01 708.7 1052.1 713.95 1051.3 715.03Z" fill="black"/>
</g>
<defs>
<linearGradient id="paint0_linear" x1="1011.72" y1="852.62" x2="1011.72" y2="584.8" gradientUnits="userSpaceOnUse">
<stop stop-color="#808080" stop-opacity="0.25"/>
<stop offset="0.54" stop-color="#808080" stop-opacity="0.12"/>
<stop offset="1" stop-color="#808080" stop-opacity="0.1"/>
</linearGradient>
<clipPath id="clip0">
<rect width="1103.79" height="707.8" fill="white" transform="translate(168 158)"/>
</clipPath>
</defs>
</svg>
