<svg width="1375" height="556" viewBox="0 0 1375 556" fill="none" xmlns="http://www.w3.org/2000/svg">
<g clip-path="url(#clip0)">
<path opacity="0.1" d="M1011.55 556C1117.61 556 1203.59 540.877 1203.59 522.222C1203.59 503.567 1117.61 488.444 1011.55 488.444C905.492 488.444 819.514 503.567 819.514 522.222C819.514 540.877 905.492 556 1011.55 556Z" fill="#0E6BA8"/>
<g opacity="0.1">
<path opacity="0.1" d="M793.139 21.0444C793.139 143.666 891.088 242.887 1012.18 242.887Z" fill="#0E6BA8"/>
</g>
<path opacity="0.1" d="M795.539 102.143C724.776 102.567 656.783 90.0063 591.771 76.0081C526.758 62.01 462.276 46.2679 392.943 39.8422C348.314 35.7025 297.525 36.3545 262.448 52.4107C228.692 67.8543 218.7 93.172 213.769 116.534C210.058 134.114 208.248 152.558 221.31 168.552C230.332 179.651 245.915 188.763 256.917 199.337C295.184 236.123 271.45 283.467 233.502 321.495C215.709 339.334 194.895 356.451 181.393 375.288C167.89 394.125 162.209 415.429 175.601 433.889C188.884 452.176 219.15 465.31 251.706 474.305C317.848 492.45 394.943 496.064 470.007 497.211C636.179 499.764 802.781 492.003 968.932 484.249C1030.41 481.374 1092.18 478.484 1152.45 470.778C1185.91 466.496 1220.38 460.22 1244.2 446.732C1274.46 429.608 1280.89 401.871 1259.21 382.059C1222.83 348.839 1126.18 343.034 1100.18 307.018C1085.86 287.191 1098.61 264.308 1117.18 245.023C1157.13 203.673 1225.55 166.47 1227.2 120.422C1228.3 88.8045 1193.19 58.1451 1140.5 44.6732C1085.24 30.5337 1009.69 34.6263 970.623 61.6486C930.385 89.4722 858.031 101.774 795.539 102.143Z" fill="#0E6BA8"/>
<path d="M1115.08 24.5008V431.729C1115.08 443.842 1100.2 453.724 1081.83 453.724H378.28C359.917 453.724 345.044 443.873 345.044 431.729V24.5008C345.044 12.3643 359.917 0 378.28 0L1081.74 1.34326C1100.08 1.34326 1115.08 12.3643 1115.08 24.5008Z" fill="white"/>
<path d="M1115.08 24.6264V43.4792H345.044V24.6264C345.044 18.0965 348.346 11.8338 354.224 7.21569C360.102 2.59756 368.075 0.00208008 376.39 -2.84572e-06H1083.67C1087.8 -0.00413185 1091.88 0.629748 1095.69 1.8654C1099.5 3.10105 1102.96 4.91424 1105.88 7.20132C1108.79 9.48841 1111.11 12.2045 1112.69 15.1945C1114.27 18.1844 1115.08 21.3894 1115.08 24.6264V24.6264Z" fill="#001C55"/>
<path opacity="0.8" d="M382.341 30.4394C388.461 30.4394 393.423 26.5426 393.423 21.7357C393.423 16.9288 388.461 13.032 382.341 13.032C376.22 13.032 371.259 16.9288 371.259 21.7357C371.259 26.5426 376.22 30.4394 382.341 30.4394Z" fill="#FA5959"/>
<path opacity="0.8" d="M414.577 30.4394C420.697 30.4394 425.659 26.5426 425.659 21.7357C425.659 16.9288 420.697 13.032 414.577 13.032C408.456 13.032 403.495 16.9288 403.495 21.7357C403.495 26.5426 408.456 30.4394 414.577 30.4394Z" fill="#FED253"/>
<path opacity="0.8" d="M446.813 30.4394C452.934 30.4394 457.895 26.5426 457.895 21.7357C457.895 16.9288 452.934 13.032 446.813 13.032C440.693 13.032 435.731 16.9288 435.731 21.7357C435.731 26.5426 440.693 30.4394 446.813 30.4394Z" fill="#8CCF4D"/>
<path opacity="0.2" d="M686.539 134.09H633.659C628.925 134.09 625.087 137.104 625.087 140.822V153.454C625.087 157.172 628.925 160.186 633.659 160.186H686.539C691.273 160.186 695.11 157.172 695.11 153.454V140.822C695.11 137.104 691.273 134.09 686.539 134.09Z" fill="#0E6BA8"/>
<path opacity="0.2" d="M828.406 134.09H775.525C770.791 134.09 766.954 137.104 766.954 140.822V153.454C766.954 157.172 770.791 160.186 775.525 160.186H828.406C833.14 160.186 836.977 157.172 836.977 153.454V140.822C836.977 137.104 833.14 134.09 828.406 134.09Z" fill="#0E6BA8"/>
<path d="M659.904 159.597L729.997 231.481L802.201 159.259" stroke="#001C55" stroke-miterlimit="10"/>
<path opacity="0.1" d="M774.946 229.179H685.038C680.304 229.179 676.467 232.193 676.467 235.911V262.344C676.467 266.062 680.304 269.076 685.038 269.076H774.946C779.68 269.076 783.517 266.062 783.517 262.344V235.911C783.517 232.193 779.68 229.179 774.946 229.179Z" fill="black"/>
<path d="M772.775 229.996H687.219C682.485 229.996 678.647 233.01 678.647 236.728V261.543C678.647 265.261 682.485 268.275 687.219 268.275H772.775C777.509 268.275 781.347 265.261 781.347 261.543V236.728C781.347 233.01 777.509 229.996 772.775 229.996Z" fill="#0E6BA8"/>
<path d="M660.384 134.09L659.473 108.678" stroke="#001C55" stroke-miterlimit="10"/>
<path d="M843.348 109.92L802.201 134.09L758.922 109.92" stroke="#001C55" stroke-miterlimit="10"/>
<path opacity="0.2" d="M686.148 83.8163H633.268C628.534 83.8163 624.697 86.8304 624.697 90.5483V103.18C624.697 106.898 628.534 109.912 633.268 109.912H686.148C690.882 109.912 694.72 106.898 694.72 103.18V90.5483C694.72 86.8304 690.882 83.8163 686.148 83.8163Z" fill="#0E6BA8"/>
<path opacity="0.2" d="M869.783 83.8163H816.903C812.169 83.8163 808.332 86.8304 808.332 90.5483V103.18C808.332 106.898 812.169 109.912 816.903 109.912H869.783C874.517 109.912 878.355 106.898 878.355 103.18V90.5483C878.355 86.8304 874.517 83.8163 869.783 83.8163Z" fill="#0E6BA8"/>
<path opacity="0.2" d="M785.367 83.8163H732.487C727.753 83.8163 723.916 86.8304 723.916 90.5483V103.18C723.916 106.898 727.753 109.912 732.487 109.912H785.367C790.101 109.912 793.939 106.898 793.939 103.18V90.5483C793.939 86.8304 790.101 83.8163 785.367 83.8163Z" fill="#0E6BA8"/>
<path d="M729.997 268.267L729.727 337.787" stroke="#001C55" stroke-miterlimit="10"/>
<path d="M630.508 387.354L729.527 363.293L828.946 387.181" stroke="#001C55" stroke-miterlimit="10"/>
<path opacity="0.2" d="M756.172 337.787H703.292C698.558 337.787 694.72 340.801 694.72 344.519V357.15C694.72 360.868 698.558 363.882 703.292 363.882H756.172C760.906 363.882 764.744 360.868 764.744 357.15V344.519C764.744 340.801 760.906 337.787 756.172 337.787Z" fill="#0E6BA8"/>
<path opacity="0.2" d="M1033.55 229.431V187.899C1033.55 184.181 1029.72 181.167 1024.98 181.167H1008.9C1004.17 181.167 1000.33 184.181 1000.33 187.899V229.431C1000.33 233.149 1004.17 236.163 1008.9 236.163H1024.98C1029.72 236.163 1033.55 233.149 1033.55 229.431Z" fill="#0E6BA8"/>
<path opacity="0.2" d="M1000.33 274.017V315.548C1000.33 319.266 1004.17 322.28 1008.9 322.28H1024.98C1029.72 322.28 1033.55 319.266 1033.55 315.548V274.017C1033.55 270.299 1029.72 267.285 1024.98 267.285H1008.9C1004.17 267.285 1000.33 270.299 1000.33 274.017Z" fill="#0E6BA8"/>
<path opacity="0.2" d="M855.391 387.001H802.511C797.777 387.001 793.939 390.015 793.939 393.733V406.364C793.939 410.082 797.777 413.096 802.511 413.096H855.391C860.125 413.096 863.962 410.082 863.962 406.364V393.733C863.962 390.015 860.125 387.001 855.391 387.001Z" fill="#0E6BA8"/>
<path opacity="0.2" d="M604.073 413.104H656.953C661.687 413.104 665.525 410.09 665.525 406.372V393.74C665.525 390.022 661.687 387.008 656.953 387.008H604.073C599.339 387.008 595.501 390.022 595.501 393.74V406.372C595.501 410.09 599.339 413.104 604.073 413.104Z" fill="#0E6BA8"/>
<path opacity="0.2" d="M705.032 413.104H757.912C762.646 413.104 766.484 410.09 766.484 406.372V393.74C766.484 390.022 762.646 387.008 757.912 387.008H705.032C700.298 387.008 696.461 390.022 696.461 393.74V406.372C696.461 410.09 700.298 413.104 705.032 413.104Z" fill="#0E6BA8"/>
<path d="M969.152 251.724L1000.32 294.528" stroke="#001C55" stroke-miterlimit="10"/>
<path d="M903.25 251.198H935.966" stroke="#001C55" stroke-miterlimit="10"/>
<path d="M781.347 249.132L870.644 251.198" stroke="#001C55" stroke-miterlimit="10"/>
<path d="M1000.32 208.661L969.302 251.535" stroke="#001C55" stroke-miterlimit="10"/>
<path opacity="0.2" d="M903.87 271.802V230.271C903.87 226.553 900.032 223.539 895.298 223.539H879.215C874.481 223.539 870.643 226.553 870.643 230.271V271.802C870.643 275.52 874.481 278.534 879.215 278.534H895.298C900.032 278.534 903.87 275.52 903.87 271.802Z" fill="#0E6BA8"/>
<path opacity="0.2" d="M969.152 272.486V230.954C969.152 227.236 965.315 224.222 960.581 224.222H944.498C939.764 224.222 935.926 227.236 935.926 230.954V272.486C935.926 276.204 939.764 279.218 944.498 279.218H960.581C965.315 279.218 969.152 276.204 969.152 272.486Z" fill="#0E6BA8"/>
<path opacity="0.2" d="M459.666 229.423V187.892C459.666 184.174 455.828 181.16 451.094 181.16H435.011C430.277 181.16 426.439 184.174 426.439 187.892V229.423C426.439 233.141 430.277 236.155 435.011 236.155H451.094C455.828 236.155 459.666 233.141 459.666 229.423Z" fill="#0E6BA8"/>
<path opacity="0.2" d="M426.439 274.017V315.548C426.439 319.266 430.277 322.28 435.011 322.28H451.094C455.828 322.28 459.666 319.266 459.666 315.548V274.017C459.666 270.299 455.828 267.285 451.094 267.285H435.011C430.277 267.285 426.439 270.299 426.439 274.017Z" fill="#0E6BA8"/>
<path d="M490.841 251.724L459.666 294.528" stroke="#001C55" stroke-miterlimit="10"/>
<path d="M556.734 251.198H524.028" stroke="#001C55" stroke-miterlimit="10"/>
<path d="M678.647 249.132L589.35 251.198" stroke="#001C55" stroke-miterlimit="10"/>
<path d="M459.666 208.661L490.681 251.535" stroke="#001C55" stroke-miterlimit="10"/>
<path opacity="0.2" d="M589.35 271.81V230.279C589.35 226.561 585.512 223.547 580.778 223.547H564.695C559.961 223.547 556.124 226.561 556.124 230.279V271.81C556.124 275.528 559.961 278.542 564.695 278.542H580.778C585.512 278.542 589.35 275.528 589.35 271.81Z" fill="#0E6BA8"/>
<path opacity="0.2" d="M524.068 272.486V230.954C524.068 227.236 520.23 224.222 515.496 224.222H499.413C494.679 224.222 490.841 227.236 490.841 230.954V272.486C490.841 276.204 494.679 279.218 499.413 279.218H515.496C520.23 279.218 524.068 276.204 524.068 272.486Z" fill="#0E6BA8"/>
<path d="M276.041 394.259C276.041 433.724 307.567 465.664 346.524 465.664Z" fill="#46455B"/>
<path d="M346.524 465.656C346.524 425.743 381.711 393.45 425.189 393.45Z" fill="#0E6BA8"/>
<path d="M301.585 397.833C301.585 435.319 321.689 465.656 346.524 465.656Z" fill="#0E6BA8"/>
<path d="M346.524 465.656C346.524 414.659 387.192 373.395 437.441 373.395Z" fill="#46455B"/>
<path opacity="0.1" d="M343.463 479.293C353.141 479.293 360.987 478.252 360.987 476.968C360.987 475.683 353.141 474.642 343.463 474.642C333.785 474.642 325.94 475.683 325.94 476.968C325.94 478.252 333.785 479.293 343.463 479.293Z" fill="#0E6BA8"/>
<path d="M331.701 466.159C331.701 466.159 341.703 465.915 344.704 464.234C347.704 462.553 360.077 460.534 360.827 463.237C361.577 465.939 375.83 476.677 364.557 476.748C353.285 476.818 338.332 475.365 335.332 473.928C332.331 472.49 331.701 466.159 331.701 466.159Z" fill="#A8A8A8"/>
<path opacity="0.2" d="M364.767 475.805C353.485 475.876 338.552 474.43 335.542 472.985C333.251 471.893 332.341 467.965 332.031 466.151H331.701C331.701 466.151 332.331 472.482 335.342 473.92C338.352 475.357 353.285 476.81 364.567 476.74C367.828 476.74 368.948 475.805 368.888 474.462C368.438 475.287 367.198 475.789 364.767 475.805Z" fill="black"/>
<path d="M1124.4 509.646L1096.73 478.13C1096.73 478.13 1096.21 470.33 1094.4 468.5C1092.59 466.669 1094.01 462.624 1094.01 462.624C1094.01 462.624 1095.95 460.393 1094.27 460.196C1092.59 460 1094.01 455.028 1094.01 455.028L1093.88 447.117C1093.88 447.117 1095.43 439.521 1094.14 437.691C1093.76 437.197 1093.57 436.629 1093.59 436.054C1093.62 435.479 1093.85 434.921 1094.27 434.447C1094.27 434.447 1095.82 430.087 1094.27 428.948C1092.72 427.809 1093.1 421.046 1093.49 415.68C1093.88 410.315 1090.78 407.267 1090.78 406.458C1090.78 405.649 1080.55 397.739 1080.55 397.032C1080.55 396.325 1074.09 393.387 1070.21 392.57C1066.33 391.753 1064.39 391.156 1064.52 390.748C1064.65 390.339 1058.44 388.721 1058.44 388.721C1058.44 388.721 1053.01 388.422 1050.94 386.294C1048.87 384.165 1042.54 383.544 1042.37 383.528C1042.37 383.387 1042.28 383.246 1042.25 383.104L1042.13 382.649C1042.62 382.005 1043.07 381.345 1043.48 380.661L1043.84 380.041C1046.11 380.046 1048.34 379.498 1050.2 378.47C1051.11 377.869 1051.86 377.127 1052.39 376.291C1052.92 375.455 1053.23 374.541 1053.3 373.607C1053.41 371.735 1052.89 369.874 1051.79 368.211C1050.65 366.38 1048.99 364.495 1049.56 362.515C1049.81 361.659 1050.46 360.944 1050.8 360.072C1051.3 358.439 1050.96 356.716 1049.87 355.273C1048.87 353.804 1047.53 352.508 1046.44 351.078C1045.04 349.262 1044.12 347.25 1043.71 345.155C1043.62 344.041 1043.28 342.947 1042.71 341.927C1042.12 341.207 1041.35 340.593 1040.44 340.128C1036.39 337.857 1031.5 336.695 1026.53 336.821C1023.01 336.915 1019.53 337.661 1016.01 337.323C1013.92 337.034 1011.86 336.611 1009.86 336.059C1005.53 335.053 1000.52 334.637 996.748 336.585C992.977 338.533 991.467 342.367 988.906 345.367C986.636 348.022 983.325 350.245 981.605 353.058C981.605 353.003 981.605 352.948 981.655 352.893C981.224 353.544 980.888 354.232 980.655 354.943C979.994 357.15 980.545 359.46 981.225 361.659C981.585 362.798 982.065 364.016 983.315 364.66C984.565 365.304 986.316 365.155 987.836 365.359C987.776 365.556 987.716 365.744 987.666 365.94C986.115 371.65 987.365 377.61 991.166 382.627C994.967 387.644 1001.04 391.349 1008.17 393.002C1008.17 393.206 1008.17 393.418 1008.17 393.615C1008.17 394.22 1008.11 394.801 1008.03 395.359C1008.03 395.359 995.027 393.261 991.537 394.675C988.046 396.089 981.185 397.212 980.155 398.022C979.124 398.831 976.534 398.226 974.203 402.986C971.873 407.746 971.623 412.617 968.642 414.84C965.662 417.063 964.121 418.595 963.991 420.213C963.861 421.831 964.372 422.24 963.211 422.75C962.051 423.261 960.371 425.382 960.881 426.191C960.881 426.191 961.531 428.217 959.461 429.231C958.848 429.57 958.36 430.029 958.042 430.562C957.725 431.095 957.59 431.684 957.65 432.271C957.65 432.271 956.87 434.502 955.06 435.004C953.249 435.507 952.059 438.861 952.059 438.861L946.198 444.156L934.566 434.054C933.695 433.299 932.478 432.846 931.183 432.795C929.887 432.743 928.618 433.097 927.655 433.779L922.043 437.864C919.841 438.282 917.85 439.213 916.332 440.535C915.078 441.537 914.062 442.707 913.332 443.991L910.211 446.206C909.723 446.547 909.328 446.962 909.051 447.427C908.774 447.891 908.621 448.396 908.601 448.908C908.196 449.59 908.056 450.351 908.2 451.094C908.345 451.838 908.766 452.531 909.411 453.087L916.852 459.56V459.615C914.209 459.788 911.696 460.591 909.651 461.917C898.529 469.615 898.399 476.708 900.079 479.984C901.76 483.26 915.852 495.695 915.852 495.695C915.852 495.695 924.044 504.061 935.856 508.507L935.776 508.577C935.536 508.774 935.306 508.986 935.076 509.214L934.886 509.41L934.706 509.606L934.496 509.85L934.336 510.046L934.106 510.337C934.065 510.405 934.018 510.471 933.966 510.533C933.876 510.659 933.786 510.793 933.706 510.926L933.616 511.06C933.506 511.233 933.406 511.421 933.296 511.61C933.186 511.798 933.226 511.751 933.196 511.814C933.166 511.877 933.056 512.081 932.996 512.222L932.876 512.482C932.816 512.607 932.765 512.741 932.705 512.874C932.645 513.008 932.635 513.063 932.595 513.165L932.445 513.605L932.355 513.88C932.275 514.115 932.215 514.359 932.145 514.61L932.085 514.901C932.085 515.066 932.005 515.239 931.975 515.419C931.945 515.6 931.925 515.663 931.905 515.789C931.885 515.914 931.905 516.119 931.825 516.291C931.745 516.464 931.825 516.551 931.775 516.676C931.725 516.802 931.775 517.061 931.775 517.258C931.775 517.454 931.775 517.485 931.775 517.611C931.775 517.925 931.775 518.255 931.725 518.593C931.465 530.447 932.345 532.167 932.345 532.167C932.345 532.167 934.176 535.945 939.217 536.212C939.956 536.253 940.698 536.222 941.427 536.118C948.148 535.207 963.931 533.078 969.493 533.895C972.833 534.382 979.024 533.659 983.425 533.007L984.595 532.827L985.396 534.846L987.956 534.296L990.126 535.278L991.497 535.898C994.047 542.693 1004.41 540.376 1004.41 540.376L1006.87 541.491L1031.87 541.994C1034.68 543.329 1037.64 544.447 1040.72 545.332C1041.13 545.427 1041.54 545.498 1041.97 545.545C1044.28 545.689 1046.6 545.723 1048.92 545.647C1050.84 545.647 1052.32 545.545 1052.32 545.545C1052.32 545.545 1052.06 540.227 1051.7 534.264C1061.23 533.95 1069.7 533.479 1074.81 532.78C1088.08 530.942 1093.63 521.389 1095.68 516.299C1096.29 518.369 1096.72 520.468 1096.98 522.583C1097.52 524.448 1098.21 526.285 1099.05 528.082C1099.78 529.521 1100.74 530.883 1101.9 532.136C1111.73 529.504 1105.78 525.553 1103.71 523.832C1101.64 522.112 1105.13 520.69 1105.13 520.69C1105.13 520.69 1107.85 519.269 1107.59 517.949C1107.33 516.629 1107.2 515.215 1115.99 515.317C1124.78 515.419 1124.4 509.646 1124.4 509.646ZM987.836 444.941C987.946 445.523 989.176 451.76 990.286 453.402C990.594 454.497 990.692 455.622 990.577 456.74C985.366 456.418 979.935 456.237 979.935 456.237C980.093 456.387 980.19 456.57 980.215 456.764L979.394 456.614C979.014 456.544 978.614 456.473 978.204 456.387L987.806 444.926L987.836 444.941ZM968.832 468.704L977.834 469.827L978.594 469.921C978.337 471.027 978.18 472.145 978.124 473.268C978.124 473.37 978.324 473.496 978.614 473.645C978.493 474.197 978.436 474.757 978.444 475.318C978.584 475.884 982.805 477.093 987.646 478.099C987.576 478.303 987.506 478.491 987.446 478.68C983.175 476.913 976.444 476.088 975.664 474.752C974.884 473.417 952.049 467.188 952.049 467.188C952.049 467.188 951.209 466.834 949.769 466.292L955.77 467.188L957.43 467.054C961.175 467.795 964.977 468.346 968.812 468.704H968.832Z" fill="url(#paint0_linear)"/>
<path d="M1094.97 514.053C1094.97 514.053 1091.38 531.059 1073.17 533.581C1054.97 536.103 994.217 535.592 994.217 535.592C994.217 535.592 959.481 531.664 946.918 508.617C934.356 485.569 926.284 476.41 937.046 475.994C947.808 475.577 1005.88 491.398 1009.21 491.602C1012.54 491.806 1098.17 456.567 1094.97 514.053Z" fill="#65617D"/>
<path opacity="0.05" d="M1094.97 514.053C1094.97 514.053 1091.38 531.059 1073.17 533.581C1054.97 536.103 994.217 535.592 994.217 535.592C994.217 535.592 959.481 531.664 946.918 508.617C934.356 485.569 926.284 476.41 937.046 475.994C947.808 475.577 1005.88 491.398 1009.21 491.602C1012.54 491.806 1098.17 456.567 1094.97 514.053Z" fill="black"/>
<path d="M932.045 532.976C932.045 532.976 933.856 536.723 938.847 536.998C939.579 537.039 940.315 537.007 941.037 536.904C947.708 535.993 963.341 533.879 968.852 534.689C972.173 535.168 978.304 534.453 982.675 533.809C985.575 533.377 987.676 532.976 987.676 532.976C987.676 532.976 982.555 519.622 981.905 519.182C981.255 518.742 958.84 508.185 958.84 508.185L941.047 507.211C938.667 507.499 936.518 508.494 935.046 509.991C933.175 511.775 931.565 514.705 931.455 519.496C931.145 531.264 932.045 532.976 932.045 532.976Z" fill="#001C55"/>
<path opacity="0.05" d="M932.045 532.976C932.045 532.976 933.856 536.723 938.847 536.998C937.107 535.239 935.497 533.403 934.026 531.499L934.116 521.735C933.757 519.058 934.203 516.351 935.419 513.834C936.635 511.317 938.587 509.059 941.117 507.242H941.047C941.047 507.242 931.695 507.745 931.435 519.528C931.175 531.311 932.045 532.976 932.045 532.976Z" fill="black"/>
<path opacity="0.1" d="M1009.06 511.633L1025.59 501.468L1051.6 481.335C1051.6 481.335 1048.79 481.225 1044.55 481.084C1043.55 481.61 1040.55 483.268 1040.43 485.286C1040.31 487.753 1033.42 485.459 1029.8 486.857C1026.18 488.256 1008.7 505.93 1005.62 505.804C1002.54 505.679 1000.11 504.579 998.828 506.292L998.738 506.401L1009.06 511.633Z" fill="black"/>
<path opacity="0.1" d="M935.046 509.984C935.636 510.203 936.236 510.423 936.836 510.628C949.399 514.854 964.912 523.715 966.062 525.325C966.772 526.307 975.764 530.596 982.705 533.809C985.606 533.377 987.706 532.976 987.706 532.976C987.706 532.976 982.585 519.622 981.935 519.182C981.285 518.742 958.87 508.185 958.87 508.185L941.047 507.211C938.668 507.497 936.52 508.489 935.046 509.984Z" fill="black"/>
<path d="M900.129 481.131C901.8 484.352 915.772 496.732 915.772 496.732C915.772 496.732 924.614 505.797 937.176 510.023C949.739 514.249 965.242 523.11 966.402 524.72C967.142 525.757 977.154 530.494 984.205 533.746L985.786 534.469L989.286 536.04L991.137 536.88C991.137 536.88 995.427 534.17 999.708 531.444C1003.99 528.719 1008.12 526.056 1008.19 525.946C1008.31 525.647 1009.98 522.222 1009.59 522.018C1009.39 521.916 1008.51 520.518 1006.9 518.876C1005.18 517.079 1002.94 515.626 1000.37 514.634C994.467 512.521 991.907 507.705 991.907 507.705C991.907 507.705 991.347 507.391 990.497 506.967C988.749 506.018 986.792 505.334 984.725 504.948C981.905 504.673 976.654 500.141 976.654 500.141C976.654 500.141 973.063 498.326 971.653 496.017C970.243 493.707 950.429 483.087 948.589 482.089L996.778 506.402L1008.31 512.222L1024.85 502.057L1050.86 481.924C1050.86 481.924 1047.36 481.791 1042.28 481.618C1029.62 481.186 1007.17 480.51 1004.33 481.013C1002.04 481.434 999.671 481.557 997.328 481.374C997.328 481.374 990.927 481.602 986.696 479.85C982.465 478.099 975.794 477.274 975.024 475.978C974.253 474.682 951.569 468.429 951.569 468.429C951.569 468.429 920.683 455.546 909.651 463.197C898.619 470.848 898.469 477.91 900.129 481.131Z" fill="#65617D"/>
<path d="M999.728 407.244L1003.73 417.605L1008.86 440.967L1027.69 441.972L1033.15 434.902L1038.6 427.832C1038.6 427.832 1041.99 418.406 1044.43 409.262C1046.58 401.187 1047.99 393.348 1045.65 392.499C1043.57 391.714 1042.2 389.019 1041.31 386.097C1041.2 385.736 1041.09 385.367 1041 385.005C1040.37 382.526 1039.95 380.018 1039.75 377.496C1039.75 377.496 1000.27 375.885 1005.74 388.674C1006.73 390.855 1007.23 393.153 1007.23 395.469C1007.22 396.046 1007.17 396.623 1007.09 397.197C1006.81 399.179 1006.01 401.095 1004.74 402.823C1003.48 404.552 1001.77 406.057 999.728 407.244V407.244Z" fill="#EE8E9E"/>
<path d="M991.517 405.531L992.937 423.143L996.137 438.147L999.728 445.091L1002.93 483.095C1002.93 483.095 1033.83 485.899 1041.36 483.048C1041.9 482.867 1042.37 482.577 1042.72 482.207C1051.79 471.445 1048.82 440.26 1048.82 440.26L1052.28 420.126L1049.97 409.679L1044.4 409.208L1040.11 408.854C1040.11 408.854 1039.11 409.789 1037.74 411.211C1033.93 415.138 1026.94 422.899 1027.41 426.136C1028.05 430.566 1026.64 435.091 1024.41 435.798C1022.18 436.505 1020.41 437.715 1020.06 436.505C1019.71 435.295 1019.29 434.997 1019.67 433.284C1020.05 431.572 1018 426.332 1018 426.332C1018 426.332 1014.54 420.197 1014.8 417.573C1015.06 414.95 1014.42 411.941 1013.39 411.234C1012.36 410.527 1010.96 409.828 1012.11 406.607C1013.26 403.387 1007.06 397.142 1007.06 397.142L991.517 405.531Z" fill="#E3E8F4"/>
<path opacity="0.1" d="M1032.34 449.529L1033.63 479.63L1041.04 482.851C1041.57 482.67 1042.04 482.383 1042.4 482.018C1051.47 471.249 1048.5 440.063 1048.5 440.063L1051.96 419.93L1049.65 409.482L1044.08 409.011C1046.23 400.936 1047.64 393.096 1045.3 392.248C1043.22 391.462 1041.85 388.768 1040.96 385.846L1036.96 407.142C1036.96 407.142 1037.29 409.066 1037.41 411.069C1037.57 412.323 1037.46 413.59 1037.09 414.816C1036.19 416.631 1036.83 419.851 1036.83 419.851C1034.51 423.049 1033.35 428.971 1032.82 434.69C1032.06 442.278 1032.34 449.529 1032.34 449.529Z" fill="black"/>
<path d="M1041.07 385.367C1041.07 385.367 1047.53 385.995 1049.58 388.116C1051.63 390.237 1057.01 390.528 1057.01 390.528C1057.01 390.528 1063.16 392.099 1063.01 392.539C1062.86 392.978 1064.8 393.552 1068.64 394.353C1072.48 395.154 1078.9 398.077 1078.9 398.784C1078.9 399.49 1089.08 407.338 1089.08 408.147C1089.08 408.956 1092.16 411.973 1091.77 417.306C1091.38 422.64 1091 429.388 1092.54 430.495C1094.08 431.603 1092.54 435.931 1092.54 435.931C1092.12 436.401 1091.89 436.955 1091.87 437.527C1091.84 438.098 1092.03 438.662 1092.41 439.152C1093.69 440.967 1092.16 448.516 1092.16 448.516L1092.28 456.371C1092.28 456.371 1090.87 461.304 1092.54 461.508C1094.21 461.713 1092.28 463.928 1092.28 463.928C1092.28 463.928 1090.87 467.95 1092.67 469.764C1094.47 471.579 1094.98 479.324 1094.98 479.324L1122.4 510.635C1122.4 510.635 1122.79 516.37 1114.07 516.276C1105.35 516.181 1105.48 517.58 1105.74 518.891C1106 520.203 1103.31 521.609 1103.31 521.609C1103.31 521.609 1099.85 523.015 1101.9 524.751C1103.95 526.488 1109.84 530.392 1100.1 533.007C1098.95 531.761 1098 530.407 1097.28 528.978C1096.45 527.201 1095.77 525.385 1095.23 523.542C1095.23 523.542 1094.33 515.891 1092.54 514.901C1090.75 513.911 1091 509.064 1091 509.064C1091 509.064 1093.57 505.137 1090 503.526C1086.42 501.916 1034.36 479.261 1034.36 479.261L1033.06 449.12C1033.06 449.12 1032.16 426.874 1037.55 419.419C1037.55 419.419 1036.91 416.199 1037.81 414.384C1038.71 412.57 1037.68 406.733 1037.68 406.733L1041.07 385.367Z" fill="#001C55"/>
<path opacity="0.1" d="M1007.49 397.448C1007.49 397.448 994.597 395.359 991.137 396.773C987.676 398.186 980.885 399.286 979.854 400.095C978.824 400.904 976.274 400.292 973.963 405.028C971.653 409.765 971.403 414.588 968.452 416.811C965.502 419.035 963.961 420.535 963.831 422.145C963.701 423.756 964.222 424.156 963.071 424.667C961.921 425.177 960.251 427.283 960.761 428.084C961.271 428.885 987.416 446.607 987.416 446.607C987.416 446.607 988.706 453.354 989.856 455.067C991.007 456.779 988.576 480.33 986.016 481.948C983.455 483.566 1003.32 483.409 1003.32 483.409C1003.32 483.409 1004.21 467.95 1004.98 467.148C1005.75 466.347 1004.47 449.867 1004.47 449.867C1004.47 449.867 1004.34 435.774 1006.01 432.051C1007.68 428.327 1007.49 415.947 1007.49 415.947C1007.49 415.947 1008.96 408.516 1010.75 406.78C1012.54 405.044 1007.49 397.448 1007.49 397.448Z" fill="black"/>
<path d="M1007.06 397.142C1007.06 397.142 994.177 395.06 990.716 396.466C987.256 397.872 980.495 398.972 979.474 399.758C978.454 400.543 975.884 399.962 973.573 404.691C971.263 409.42 971.013 414.259 968.062 416.474C965.112 418.689 963.581 420.197 963.451 421.807C963.321 423.418 963.831 423.818 962.681 424.321C961.531 424.824 959.861 426.937 960.371 427.746C960.881 428.555 987.056 446.3 987.056 446.3C987.056 446.3 988.336 453.04 989.496 454.753C990.657 456.465 988.206 480.023 985.646 481.634C983.085 483.244 1002.95 483.095 1002.95 483.095C1002.95 483.095 1003.85 467.643 1004.62 466.834C1005.39 466.025 1004.1 449.552 1004.1 449.552C1004.1 449.552 1003.98 435.46 1005.64 431.737C1007.3 428.013 1007.06 415.594 1007.06 415.594C1007.06 415.594 1008.53 408.163 1010.32 406.435C1012.11 404.706 1007.06 397.142 1007.06 397.142Z" fill="#001C55"/>
<path opacity="0.1" d="M1005.75 388.619C1006.74 390.8 1007.24 393.098 1007.24 395.414C1013.54 396.887 1020.29 396.656 1026.4 394.759C1032.52 392.862 1037.65 389.408 1040.97 384.95C1040.34 382.471 1039.92 379.963 1039.72 377.441C1039.72 377.441 1000.24 375.83 1005.75 388.619Z" fill="black"/>
<path d="M986.266 372.712C986.267 378.618 989.153 384.298 994.331 388.581C999.508 392.865 1006.58 395.424 1014.09 395.732C1021.6 396.04 1028.97 394.074 1034.69 390.237C1040.41 386.401 1044.03 380.988 1044.82 375.114C1045.6 369.24 1043.49 363.354 1038.91 358.67C1034.33 353.985 1027.63 350.859 1020.21 349.936C1012.78 349.013 1005.19 350.364 998.989 353.711C992.793 357.057 988.467 362.143 986.906 367.92C986.48 369.495 986.265 371.101 986.266 372.712V372.712Z" fill="#EE8E9E"/>
<path d="M967.422 426.065L960.421 427.778C960.421 427.778 961.071 429.789 959.01 430.794C958.403 431.133 957.919 431.59 957.605 432.12C957.291 432.65 957.159 433.235 957.22 433.818C957.22 433.818 956.45 436.033 954.659 436.536C952.869 437.039 951.709 440.362 951.709 440.362L945.808 445.696C945.808 445.696 943.637 447.102 944.017 447.809C944.398 448.516 941.707 448.712 941.707 448.712L943.047 466.638L955.23 468.445L962.791 467.84L968.942 466.033L974.323 463.511L976.764 458.578L987.526 445.696L967.422 426.065Z" fill="#001C55"/>
<path d="M943.457 450.126C943.457 450.126 927.814 432.404 916.152 441.972C904.49 451.54 920.893 467.038 924.744 466.536C928.595 466.033 946.918 465.224 946.918 465.224L943.457 450.126Z" fill="#EE8E9E"/>
<path d="M980.814 442.699L910.659 414.577C909.901 414.273 908.974 414.509 908.587 415.104L881.096 457.406C880.709 458.001 881.01 458.73 881.767 459.033L951.923 487.156C952.68 487.46 953.608 487.224 953.995 486.628L981.486 444.327C981.873 443.732 981.572 443.003 980.814 442.699Z" fill="#001C55"/>
<path d="M973.813 444.946L912.54 420.384L888.973 456.648L950.246 481.21L973.813 444.946Z" fill="#0E6BA8"/>
<path d="M898.439 438.429C899.063 438.429 899.569 438.032 899.569 437.542C899.569 437.051 899.063 436.654 898.439 436.654C897.815 436.654 897.309 437.051 897.309 437.542C897.309 438.032 897.815 438.429 898.439 438.429Z" fill="#E6E8EC"/>
<path d="M964.761 465.687C965.789 465.687 966.622 465.033 966.622 464.226C966.622 463.419 965.789 462.765 964.761 462.765C963.734 462.765 962.901 463.419 962.901 464.226C962.901 465.033 963.734 465.687 964.761 465.687Z" fill="#E6E8EC"/>
<path d="M933.326 453.849C933.205 467.141 968.192 469.953 968.192 469.953L977.134 471.068L981.135 471.571L982.805 458.578C982.805 458.578 980.975 458.366 978.684 457.95C975.293 457.329 970.903 456.253 969.982 454.753C968.452 452.239 933.456 440.558 933.326 453.849Z" fill="#EE8E9E"/>
<path opacity="0.1" d="M986.906 367.92C987.719 367.971 988.482 368.25 989.056 368.705C990.056 369.53 990.056 370.991 991.387 371.494C991.867 371.663 992.4 371.712 992.917 371.636C996.328 371.258 998.298 368.234 1001.57 367.401C1003.48 367.016 1005.5 367.155 1007.3 367.794C1008.03 367.969 1008.69 368.297 1009.2 368.745C1010.3 369.86 1009.53 371.502 1010.04 372.845C1010.74 374.715 1013.58 375.461 1016.04 375.705C1018.5 375.948 1021.27 376.082 1022.92 377.543C1023.47 378.092 1023.86 378.727 1024.07 379.404C1024.28 380.081 1024.3 380.785 1024.14 381.47C1024 381.943 1024 382.435 1024.14 382.908C1024.82 384.424 1028.14 384.196 1029.01 383.002C1029.65 382.138 1029.46 381.431 1030.95 381.18C1032.03 381.108 1033.11 381.254 1034.09 381.604C1036.7 382.306 1039.45 382.636 1042.21 382.578C1043.97 379.636 1044.92 376.434 1044.99 373.182C1045.07 369.931 1044.27 366.704 1042.64 363.714C1041.02 360.723 1038.61 358.036 1035.56 355.829C1032.52 353.623 1028.92 351.946 1025 350.91C1021.07 349.874 1016.91 349.501 1012.79 349.817C1008.67 350.133 1004.68 351.13 1001.09 352.742C997.492 354.354 994.371 356.546 991.931 359.173C989.49 361.799 987.784 364.802 986.926 367.983L986.906 367.92Z" fill="black"/>
<path d="M1024.12 382.248C1023.98 381.773 1023.98 381.278 1024.12 380.803C1024.28 380.117 1024.26 379.413 1024.05 378.736C1023.84 378.059 1023.45 377.425 1022.9 376.875C1021.25 375.414 1018.48 375.304 1016.02 375.037C1013.56 374.77 1010.72 374.047 1010.02 372.178C1009.51 370.834 1010.28 369.192 1009.18 368.085C1008.67 367.633 1008.01 367.302 1007.28 367.127C1005.48 366.487 1003.46 366.349 1001.55 366.734C998.278 367.566 996.308 370.591 992.897 370.968C992.38 371.044 991.846 370.995 991.367 370.826C990.076 370.324 990.026 368.863 989.036 368.038C987.476 366.742 984.525 367.582 982.615 366.616C981.375 365.988 980.895 364.762 980.545 363.639C979.874 361.447 979.324 359.153 979.984 356.962C981.095 353.215 985.355 350.677 988.076 347.449C990.616 344.472 992.077 340.701 995.847 338.722C999.618 336.742 1004.55 337.198 1008.85 338.203C1010.83 338.752 1012.87 339.169 1014.94 339.452C1018.4 339.79 1021.88 339.052 1025.37 338.957C1030.3 338.836 1035.14 339.99 1039.15 342.241C1040.05 342.706 1040.82 343.317 1041.4 344.032C1041.98 345.043 1042.32 346.129 1042.4 347.237C1042.81 349.32 1043.73 351.32 1045.11 353.128C1046.18 354.542 1047.54 355.823 1048.51 357.292C1049.59 358.727 1049.92 360.437 1049.43 362.06C1049.1 362.885 1048.43 363.631 1048.2 364.487C1047.63 366.451 1049.28 368.328 1050.41 370.143C1051.5 371.797 1052.01 373.647 1051.91 375.508C1051.84 376.435 1051.54 377.342 1051.01 378.171C1050.48 379.001 1049.74 379.737 1048.83 380.331C1046.93 381.38 1044.66 381.93 1042.34 381.902C1039.52 381.97 1036.72 381.632 1034.06 380.905C1033.08 380.555 1032 380.409 1030.92 380.481C1029.43 380.716 1029.62 381.439 1028.98 382.303C1028.12 383.528 1024.8 383.756 1024.12 382.248Z" fill="#001C55"/>
<path opacity="0.1" d="M1008.31 512.238L1024.85 502.073L1050.86 481.94C1050.86 481.94 1047.36 481.806 1042.28 481.634C1041.27 482.348 1040.62 483.324 1040.46 484.383C1040.34 486.842 1033.45 484.556 1029.83 485.954C1026.21 487.352 1008.7 505.019 1005.62 504.909C1002.54 504.799 1000.11 503.684 998.828 505.396L998.738 505.506C998.213 505.971 997.512 506.29 996.738 506.417L1008.31 512.238Z" fill="black"/>
<path d="M974.983 511.531L983.295 532.363L984.595 535.631L988.596 534.783L997.318 532.898L1036.17 524.516C1041.05 524.35 1045.83 523.35 1050.17 521.586C1057.52 518.358 1065.92 516.92 1074.31 517.454C1079.44 517.831 1085.15 516.095 1089.9 509.214C1089.9 509.214 1100.66 484.249 1073.48 477.101C1046.31 469.953 1045.02 480.903 1045.02 480.903L1044.65 481.084C1043.65 481.61 1040.65 483.268 1040.53 485.286C1040.41 487.753 1033.52 485.459 1029.9 486.857C1026.28 488.256 1008.7 505.93 1005.62 505.805C1002.54 505.679 1000.11 504.579 998.828 506.292L998.738 506.402C997.788 507.431 994.927 507.666 993.047 507.713C992.047 507.713 991.267 507.713 991.267 507.713L991.026 507.768L989.026 508.232L974.983 511.531Z" fill="#65617D"/>
<path opacity="0.1" d="M977.134 471.068L981.135 471.571L982.805 458.578C982.805 458.578 980.975 458.366 978.684 457.95C979.284 459.757 977.914 466.764 977.134 471.068Z" fill="black"/>
<path opacity="0.1" d="M1081.94 410.386C1081.94 410.386 1093.87 407.668 1090.95 434.25C1088.02 460.833 1065.94 477.635 1065.94 477.635C1065.94 477.635 1040.57 486.394 1029.15 484.988C1022.62 484.159 1016.03 483.587 1009.42 483.275C1005.83 481.849 1001.9 481.025 997.878 480.856C991.477 480.66 978.014 477.533 977.754 476.528C977.494 475.522 981.095 460.723 979.554 459.615C979.554 459.615 997.498 460.196 999.288 461.186C1001.08 462.176 1003.65 461.477 1005.57 461.186C1007.49 460.896 1013.39 456.874 1025.05 460.401C1025.05 460.401 1029.05 460.699 1030.56 459.898C1032.07 459.097 1034.56 459.694 1034.56 459.694C1035.55 459.426 1036.49 459.053 1037.36 458.586C1037.74 458.185 1040.82 458.586 1040.82 458.586C1041 458.656 1041.2 458.694 1041.4 458.695C1041.61 458.696 1041.81 458.662 1041.99 458.594C1042.18 458.526 1042.34 458.427 1042.47 458.303C1042.6 458.179 1042.69 458.034 1042.74 457.879C1043.14 457.053 1043.75 456.3 1044.53 455.664C1044.53 455.664 1047.99 440.362 1054.53 434.627C1054.53 434.627 1056.45 433.316 1055.94 431.705C1055.43 430.095 1066.56 407.165 1081.94 410.386Z" fill="black"/>
<path d="M1081.63 408.343C1081.63 408.343 1093.56 405.626 1090.64 432.208C1087.71 458.79 1065.63 475.593 1065.63 475.593C1065.63 475.593 1040.25 484.352 1028.84 482.945C1017.44 481.539 1009.06 481.233 1009.06 481.233C1005.47 479.807 1001.54 478.983 997.528 478.814C991.117 478.617 977.664 475.491 977.404 474.485C977.144 473.48 980.735 458.68 979.194 457.573C979.194 457.573 997.138 458.154 998.938 459.144C1000.74 460.134 1003.3 459.427 1005.22 459.144C1007.14 458.861 1013.04 454.823 1024.7 458.358C1024.7 458.358 1028.7 458.657 1030.21 457.856C1031.72 457.054 1034.21 457.651 1034.21 457.651C1035.2 457.385 1036.14 457.012 1037 456.544C1037.38 456.143 1040.46 456.544 1040.46 456.544C1040.64 456.614 1040.84 456.651 1041.04 456.653C1041.25 456.654 1041.45 456.62 1041.63 456.552C1041.82 456.484 1041.98 456.384 1042.11 456.261C1042.24 456.137 1042.33 455.992 1042.38 455.837C1042.79 455.013 1043.4 454.26 1044.18 453.622C1044.18 453.622 1047.64 438.319 1054.18 432.585C1054.18 432.585 1056.11 431.273 1055.59 429.663C1055.07 428.052 1066.25 405.123 1081.63 408.343Z" fill="#001C55"/>
<path opacity="0.1" d="M989.056 508.224L1005.98 524.312C1006.05 524.264 1006.09 524.233 1006.09 524.217C1006.22 523.919 1007.88 520.494 1007.5 520.29C1007.12 520.085 1004.17 515.05 998.268 512.937C995.275 511.786 992.762 509.987 991.026 507.753L989.056 508.224Z" fill="black"/>
<path opacity="0.1" d="M989.286 536.063L991.137 536.904C991.137 536.904 995.427 534.194 999.708 531.468C1003.99 528.742 1008.12 526.079 1008.19 525.969C1008.31 525.671 1009.98 522.246 1009.59 522.041C1009.39 521.939 1008.51 520.541 1006.9 518.899C995.417 516.37 1002.73 522.631 1003.7 522.913C1003.7 522.913 989.696 520.4 988.956 532.34C988.856 533.587 988.967 534.839 989.286 536.063Z" fill="black"/>
<path d="M1003.44 541.153L1005.88 542.261L1030.61 542.764C1033.39 544.087 1036.33 545.195 1039.38 546.071C1039.78 546.171 1040.2 546.245 1040.62 546.291C1042.91 546.431 1045.21 546.465 1047.51 546.393C1049.41 546.393 1050.87 546.291 1050.87 546.291C1050.87 546.291 1049.7 521.782 1048.87 519.206C1048.45 517.972 1046.37 518.247 1044.33 518.86C1042.79 519.349 1041.31 519.938 1039.9 520.62C1039.9 520.62 1029.38 521.405 1027.71 522.136C1026.04 522.866 1021.31 521.727 1018.36 522.136C1015.41 522.544 1010.16 519.41 1010.16 519.41C995.797 515.686 1003.88 522.631 1004.9 522.929C1004.9 522.929 990.896 520.415 990.166 532.355C989.436 544.296 1003.44 541.153 1003.44 541.153Z" fill="#001C55"/>
<path d="M1039.21 531.664C1039.48 536.739 1044.51 543.039 1047.51 546.369C1049.41 546.369 1050.87 546.267 1050.87 546.267C1050.87 546.267 1049.7 521.759 1048.87 519.182C1048.45 517.949 1046.37 518.224 1044.33 518.837C1041.8 522.489 1038.99 527.579 1039.21 531.664Z" fill="#565387"/>
<path opacity="0.1" d="M1039.21 531.664C1039.48 536.739 1044.51 543.039 1047.51 546.369C1049.41 546.369 1050.87 546.267 1050.87 546.267C1050.87 546.267 1049.7 521.759 1048.87 519.182C1048.45 517.949 1046.37 518.224 1044.33 518.837C1041.8 522.489 1038.99 527.579 1039.21 531.664Z" fill="black"/>
<path opacity="0.05" d="M1034.97 532.34C1036.68 537.234 1036.66 542.725 1039.38 546.047C1039.78 546.148 1040.2 546.221 1040.62 546.267C1042.91 546.408 1045.21 546.442 1047.51 546.369C1049.41 546.369 1050.87 546.267 1050.87 546.267C1050.87 546.267 1049.7 521.759 1048.87 519.182C1048.45 517.949 1046.37 518.224 1044.33 518.837C1042.79 519.326 1041.31 519.914 1039.9 520.596C1039.9 520.596 1032.79 526.071 1034.97 532.34Z" fill="black"/>
<path opacity="0.1" d="M949.629 482.671C949.629 482.671 961.921 485.813 972.333 496.936L949.629 482.671Z" fill="black"/>
<g opacity="0.1">
<path opacity="0.1" d="M1049.48 361.871C1049.48 361.95 1049.48 362.021 1049.41 362.091C1049.28 362.377 1049.14 362.658 1048.98 362.932C1049.1 362.567 1049.27 362.212 1049.48 361.871V361.871Z" fill="black"/>
<path opacity="0.1" d="M979.954 356.993C980.187 356.287 980.522 355.604 980.955 354.959C980.885 355.131 980.825 355.304 980.765 355.485C980.114 357.677 980.655 359.97 981.335 362.154C981.685 363.285 982.165 364.511 983.405 365.139C985.315 366.097 988.266 365.265 989.826 366.561C990.827 367.346 990.826 368.847 992.157 369.35C992.637 369.518 993.171 369.567 993.687 369.491C997.088 369.114 999.068 366.09 1002.34 365.257C1004.25 364.872 1006.27 365.01 1008.07 365.65C1008.8 365.826 1009.46 366.157 1009.97 366.608C1011.06 367.716 1010.3 369.357 1010.8 370.701C1011.51 372.57 1014.35 373.309 1016.8 373.56C1019.25 373.811 1022.03 373.937 1023.68 375.398C1024.23 375.948 1024.62 376.582 1024.83 377.259C1025.04 377.936 1025.07 378.641 1024.9 379.326C1024.75 379.798 1024.75 380.291 1024.9 380.763C1025.58 382.272 1028.9 382.052 1029.77 380.858C1030.41 379.994 1030.21 379.287 1031.71 379.027C1032.79 378.962 1033.87 379.111 1034.85 379.459C1037.52 380.175 1040.32 380.505 1043.14 380.433C1045.46 380.461 1047.73 379.911 1049.63 378.862C1050.46 378.346 1051.14 377.698 1051.63 376.961C1051.19 378.302 1050.22 379.497 1048.86 380.371C1046.96 381.419 1044.69 381.969 1042.37 381.942C1039.54 381.999 1036.73 381.648 1034.06 380.905C1033.08 380.555 1032 380.409 1030.92 380.481C1029.43 380.716 1029.62 381.439 1028.98 382.303C1028.11 383.497 1024.79 383.725 1024.11 382.217C1023.97 381.741 1023.97 381.247 1024.11 380.771C1024.27 380.086 1024.25 379.382 1024.04 378.705C1023.83 378.027 1023.44 377.393 1022.89 376.844C1021.24 375.383 1018.47 375.273 1016.01 375.005C1013.55 374.738 1010.71 374.016 1010.01 372.146C1009.5 370.803 1010.27 369.161 1009.17 368.053C1008.66 367.603 1008 367.272 1007.27 367.095C1005.47 366.456 1003.45 366.317 1001.54 366.702C998.268 367.535 996.288 370.559 992.887 370.936C992.37 371.013 991.836 370.963 991.357 370.795C990.066 370.292 990.016 368.831 989.026 368.006C987.466 366.71 984.515 367.551 982.605 366.585C981.365 365.956 980.885 364.731 980.535 363.607C979.844 361.479 979.304 359.185 979.954 356.993Z" fill="black"/>
</g>
<path opacity="0.1" d="M1051.47 437.565C1049.12 440.055 1046.47 442.357 1044.36 444.989C1042.25 447.62 1040.82 450.699 1041.25 453.779C1043.4 452.051 1044.38 449.655 1045.74 447.494C1048.03 443.818 1051.46 440.7 1054.36 437.283C1054.91 436.638 1058.45 432.907 1056.66 432.726C1055.18 432.593 1052.27 436.717 1051.47 437.565Z" fill="black"/>
</g>
<defs>
<linearGradient id="paint0_linear" x1="1011.88" y1="545.647" x2="1011.88" y2="335.265" gradientUnits="userSpaceOnUse">
<stop stop-color="#808080" stop-opacity="0.25"/>
<stop offset="0.54" stop-color="#808080" stop-opacity="0.12"/>
<stop offset="1" stop-color="#808080" stop-opacity="0.1"/>
</linearGradient>
<clipPath id="clip0">
<rect width="1375" height="556" fill="white"/>
</clipPath>
</defs>
</svg>
