<?xml version="1.0" encoding="utf-8"?>
<!-- Generator: Adobe Illustrator 23.0.2, SVG Export Plug-In . SVG Version: 6.00 Build 0)  -->
<svg version="1.1" id="Capa_1" xmlns="http://www.w3.org/2000/svg" xmlns:xlink="http://www.w3.org/1999/xlink" x="0px" y="0px" viewBox="0 0 800 965.4" style="enable-background:new 0 0 800 965.4;" xml:space="preserve">

<g>
	<path d="M772.4,270.5c-28.1-74.8-78.7-140.7-150.1-183.8c-39.9-24.2-84-41.6-127.6-59.2c-44.4-17.8-88.5-32-137.2-23.8
		c-42.9,7.3-84.9,25.1-121.8,46.5c-35,20.2-66.7,45.4-93.9,74.4c-30,32-53.4,68.8-72.2,107.6c-20.1,41-36.7,84.1-49.7,127.6
		C6.6,403.9-0.7,449.5,0.1,495.4c0.6,45.5,8.1,90.9,19.9,134.9c11.6,42.9,26.8,85.5,45.9,125.9c14.8,31.3,34.5,63.2,65,83
		c13.7,9,29.2,14.4,45.9,16.3c2.1,0.2,3.4-0.6,4.1-1.9c48.5,11.6,97.8,20.6,147.5,26.8c50.2,6.4,101.6,11.1,152.2,10.1
		c45.5-0.7,89.8-9,129.3-30.7c35-19.3,64.7-46.5,88.5-77.4c27-35.2,45.7-75.3,60-116.2c15.2-43.9,26.2-89.4,33.5-135.1
		C805.5,444.6,803.8,354.1,772.4,270.5z" style="fill:#56597A;"/>
	<path d="M303.5,434.9c1.9-1.7,2.6-4.5,0.4-6.7c-11.1-11.6-21.4-24.9-33.7-35.2c-8.2-6.9-19.1-12-30.2-8.1
		c-10.5,3.7-16.3,13.7-19.9,23.1c-5.4,13.9-8.6,28.7-12.4,42.9c-16.7,62.6-29.4,126.3-33.9,190.6c-1.1,15.9-1.7,31.9-1.7,48
		c0,15-0.4,30.4,2.2,45.2c1.9,11.4,7.3,22.3,18.2,28.5c10.1,5.8,21.9,4.9,30.9-2.1c10.1-7.9,17.4-20.1,24-30.4
		c7.7-11.8,14.4-24,20.4-36.7c11.6-24.6,20.1-50.2,25.9-76.6C306.8,557.6,307.6,495.8,303.5,434.9z" style="fill:#F087B1;"/>
	<path d="M668.5,627.3c-2.8-28.7-11.8-56.6-19.5-84.1c-15.2-54.5-31.7-109.1-57.2-160.2c-8.8-17.8-25.1-48-51.5-37.1
		c-13.1,5.2-22.3,18.6-30,29.4c-7.5,10.3-13.7,21.6-18.7,33c-3-2.2-9.2,0.2-8.1,5.1c12.2,56.6,23.4,114.9,51,167
		c11.8,22.1,26.8,42.7,45.5,60.2c9,8.4,18.9,15.9,29.6,22.5c9.7,6,21.6,13.1,33.2,14.2C671.5,679.6,670.2,644.9,668.5,627.3z" style="fill:#F087B1;"/>
	<path d="M682.2,837.6c-17.6-16.9-39.4-29.6-62.6-38.4c-55.7-21.6-118.8-21.4-178-21.6c-60.3-0.4-121.4,2.6-179.9,17.2
		c-45.4,11.2-96.3,30.2-121.3,70.1c-0.4,0.6-0.7,1.3-1.1,1.9c-3.9,3.7-7.9,7.7-11.4,11.8c-13.9,16.7-24.2,39.4-3.9,55.7
		c9,7.3,20.4,11.2,31.7,14.8c14.2,4.5,28.9,7.7,43.7,10.1c60.2,9.6,122.2,5.6,182.9,3.9c63.5-1.9,127.3-4.7,190.2-12.6
		c30.4-3.7,61.1-8.1,90.7-15.6c19.5-4.9,41.8-14.2,47.6-34.1C717.8,877.3,698.5,853.2,682.2,837.6z" style="fill:#B6C8E8;"/>
	<path d="M488.1,742.6c-3.2-9.4-6.7-18.7-10.7-27.9c-3.2-7.3-6.2-18.2-12.7-23.4c-6-4.9-15.9-2.8-23.2-2.6
		c-11.2,0.4-22.7,0.2-34.1,0.9c-14.2,0.9-30.5,6-36.4,18.6c-1.9,0-3.7,1.1-4.3,3.4c-5.6,20.8-8.8,42.2-9.4,63.7
		c-0.4,16.3-3,39.7,10.1,52.5c2.4,2.2,7.7,1.5,8.4-2.1c0.6-2.6,0.9-5.2,1.3-7.9c1.5,6.2,3.2,12.4,5.2,18.6
		c4.5,13.1,9.6,33.5,24.2,39.9c2.8,1.3,6.6,0.4,7.3-2.8c1.9-6.9,3.4-13.7,4.5-20.6c2.8,6.9,6.2,13.9,10.3,20.2
		c1.1,1.9,3.6,2.6,5.6,2.1c5.4-1.3,8.2-4.9,10.1-9.7c3.2-8.4,4.7-17.4,6.4-26.2c0.2-0.7,0.2-1.3,0.4-2.1c3,6.4,8.8,12.2,15.9,6.4
		c8.8-6.9,7.9-23.4,9.2-33c1.1-8.2,2.1-16.5,2.8-24.7c1.7,4.1,3.4,8.1,5.2,12.2c1.9,4.1,7.7,2.1,9.2-1.1
		C501.2,779.7,493.7,759.4,488.1,742.6z" style="fill:#F7D16F;"/>
	<path d="M505.3,639.1c-7.3-2.4-15.2,0-22.5,1.1c-12,1.9-24.2,2.4-36.2,2.8c-24.2,0.6-48.4-0.9-72.7-0.7
		c-11.6,0.2-23.1,0.6-34.5,1.9c-8.1,0.9-17.1,0.9-22.1,7.9c-0.4,0.4-0.6,0.7-0.6,1.1c-0.9,0.7-1.5,1.9-1.5,3.4
		c0.4,14.2,2.4,31.9,18.6,38.4c3.4,1.3,9.2,0.9,11.4,3.7c1.9,2.2,1.3,6.7,1.5,9.4c0.6,7.1,1.9,13.3,6.6,19.1
		c10.7,13.3,29.2,16.3,45.9,17.2c19.7,1.3,40.3,0.4,59.6-3.9c15.2-3.4,31.1-12,33.9-27.7c0.7-4.1-0.4-7.9,3.7-10.7
		c2.6-1.7,5.8-2.4,8.2-4.5c6.2-5.1,9.7-12.4,11.1-20.1C517.9,667.2,519.2,643.8,505.3,639.1z" style="fill:#74A3D7;"/>
	<path d="M550.5,543.9c-3.2-45.9-9.6-91.5-18.9-136.6c-9.6-45.5-22.3-90.7-38-134.7c-7.9-22.1-16.5-43.9-26-65.2
		c-6.9-15.7-15.4-31.7-29-43.1c-12.6-10.7-29-15.6-45.4-9.2c-18.4,7.1-32.6,24.4-43.3,39.4c-24.7,34.3-36.2,75.3-45.9,115.3
		c-25.5,105.3-34.7,214-27.5,322c0,0.9,0.4,1.9,0.9,2.4c0,0.9,0.4,2.1,1.3,3c28.1,29.6,69.2,45.2,110.9,47.4
		c24.2,1.3,48.5-1.5,72-7.3c20.8-5.1,42.9-11.6,61.1-22.7c16.5-10.1,27-24.2,29.4-42.7C554.8,589.5,552,566,550.5,543.9z" style="fill:#FFFFFF;"/>
	<path d="M475.7,352.6c-4.9-15.6-14.6-28.1-27.2-38c-2.6-2.4-5.2-4.9-8.1-7.3c-7.3-6.7-15.9-11.6-24.9-14.2
		c-6.2-2.1-12.7-3.4-19.3-3c-1.7,0-3.2,0.7-4.1,1.7c-7.9,1.3-15.4,4.7-21.9,10.1c-18,10.1-31.9,26-37.7,45.2
		c-8.2,27.4-0.2,61.3,26,78c24.9,15.7,62.4,12.7,87.5-1.3c7.3-4.1,13.5-9.2,18.4-15c1.3-0.4,2.4-1.1,3.2-2.4
		c0.9-1.9,1.9-3.7,2.6-5.8C478.9,386.3,480.9,369.3,475.7,352.6z" style="fill:#F087B1;"/>
	<path d="M454,347c-7.5-15.9-16.5-29-32.8-34.3c-1.9-0.6-3.9-1.3-5.6-2.2c-2.4-1.3-8.2-1.9-10.7-1.7
		c-6,0.4-11.8,1.7-17.4,3.4c-0.7,0.2-1.3,0.2-2.1,0.4c-0.9,0.2-1.7,0.6-2.2,1.1c-15.6,6.2-28.5,17.6-35,32.6
		c-9.4,21.6-3,48.4,15.4,64.1c18.7,15.9,48.7,18.6,70.1,5.8C458.5,401.5,465.6,371.5,454,347z" style="fill:#B6C8E8;"/>
	<path d="M335.9,506.6c-0.2-9.6,1.7-24.2-9.9-28.7c-6-2.4-13.7-1.9-20.1-2.1c-9.2-0.2-18.4,0.4-27.5,1.3
		c-4.7,0.6-5.8,5.6-3.7,8.1c-4.3,26-6.6,52.5-6,78.9c0.2,13.9,1.3,27.7,2.8,41.6c0.6,4.7,0.4,11.6,3.2,15.7
		c2.8,3.9,7.1,3.9,11.6,3.9c7.1,0.2,14.2,0,21.2-0.2c5.4-0.2,12.2,0.2,17.2-2.1c10.5-4.7,8.4-19.5,9-28.3
		C335.7,565.9,336.5,536.2,335.9,506.6z" style="fill:#F7D16F;"/>
	<path d="M553.8,534.9c-2.2-32-7.3-64.1-15-95.4c-0.4-1.7-1.5-2.6-2.8-3.2c-1.5-1.1-3.6-1.7-5.8-0.9l-19.5,8.1
		c-4.7,1.9-10.7,3.4-14.2,7.1c-2.8,3-3.2,6.7-3.4,10.5c-0.4,7.1-0.4,14.4-0.6,21.6c-0.4,26.6,0.2,53.6,5.2,79.8
		c1.1,6,2.6,12.2,4.3,18.2c1.5,5.1,2.6,11.8,6.4,15.7c6.6,7.1,21.4,2.1,29.4,0c10.9-3,17.1-8.6,17.4-19.5
		C555.7,563,554.8,549,553.8,534.9z" style="fill:#F7D16F;"/>
	<path d="M440.1,404.7c-3.7-15-9.2-29.2-16.3-43.1c-1.9-3.6-8.4-2.8-9.2,1.1c-0.6,3-1.1,6-1.7,9c0,0.2,0,0.6-0.2,0.9
		c-8.4,0.9-16.9,1.9-25.1,3.2c-1.7-5.2-3.6-10.5-5.2-15.7c-1.5-4.5-8.1-4.3-9.6,0c-5.2,14.2-6.2,30.5-7.9,45.5
		c-2.2,1.5-3.2,4.7-0.7,6.9c0,0,0,0,0.2,0.2c0.4,1.5,1.7,2.4,3.2,2.6c9.9,7.7,22.9,9.4,35.6,8.8c7.1-0.4,15.4-0.6,22.1-3
		c6.6-2.4,10.1-5.8,15.2-9.7C441.6,410.5,440.5,406.2,440.1,404.7z" style="fill:#56597A;"/>
	<path d="M250.6,154.5c-4.3-0.6-6.9-4.7-6.2-8.4c0.9-4.1-3.6-6.7-6.9-5.6c-2.8,0.6-5.6,3.7-3.9,7.1
		c0.4,0.9,0.7,1.9,0.9,2.8c0,0.2,0.2,0.6,0.2,0.7c0.9,4.9-0.9,9.7-4.3,13.5c-3.6,0.7-6.6,3-8.1,6.2c-2.1,4.3,2.1,8.4,6.7,6.4
		c2.2-0.9,4.1-2.2,6-3.6c3,0.9,6.4,5.1,7.5,6.7c3.2,4.3,10.3,1.7,9.2-3.6c-1.3-5.6,0-10.3,3.2-15.2
		C257.2,158.2,254.2,154.9,250.6,154.5z M242,166.5c-0.2-0.2-0.4-0.2-0.6-0.4c0.7-1.3,1.5-2.8,1.9-4.3c0,0,0,0,0.2,0
		C242.9,163.3,242.4,165,242,166.5z" style="fill:#F7D16F;"/>
	<path d="M630.5,247.1c-0.7,0.2-1.7,0.6-2.4,0.9c-1.9,0.7-3.9,1.5-5.8,2.1c-0.9-3.7-1.7-7.3-2.6-11.1
		c-0.2-0.7-0.6-1.3-0.9-1.9c-0.2-0.9-0.2-1.9-0.6-2.8c-1.3-5.8-10.9-3.4-9.6,2.4c0.4,1.9,0.6,3.6,0.6,5.2c-0.2,1.1-0.4,2.4-0.4,3.6
		c-0.7,3.6-2.2,6.7-4.7,9.7c-3,1.3-5.2,3.7-6.4,6.9c-1.7,4.9,4.9,7.1,8.4,4.5c1.3-0.9,2.6-2.1,3.9-3.4c3,0.9,7.1,5.8,7.9,6.6
		c2.6,3,9,0.6,8.6-3.4c-0.7-5.1,1.5-9.4,6.9-10.9C639.1,254,636.9,245.4,630.5,247.1z" style="fill:#F7D16F;"/>
	<path d="M694.4,432.8c-5.4,1.1-9.4-1.3-10.9-4.9c0.7-2.6,0.9-5.4,0.7-8.2c0.2-0.2,0.2-0.4,0.4-0.6
		c1.7-2.4,0.4-4.9-1.7-6.2c0-0.2-0.2-0.4-0.2-0.6c-2.1-5.6-11.6-3.2-9.6,2.4c0.4,1.1,0.6,2.1,0.7,3.2c-1.3,3.4-1.5,6.7-0.9,9.7
		c-1.5,3.7-4.1,6.9-7.7,9.2c-0.9,0.4-1.9,0.9-2.8,1.5c-5.1,3.6-0.7,10.9,5.1,8.1c0.9-0.4,1.7-0.7,2.4-1.3c5.8-2.2,12.9,0,14.8,6.2
		c1.5,4.9,10.1,4.3,9.7-1.3c-0.4-4.3,1.1-7.1,4.7-9.9C703.4,437.5,698.9,431.9,694.4,432.8z" style="fill:#F7D16F;"/>
	<path d="M592.5,727.6c-6.2,0.7-12-4.1-10.1-10.1c0.6-1.7,0-3-0.7-3.9c0-1.1-0.2-2.2-0.4-3.6c-1.1-6-10.7-3.4-9.6,2.4
		c1.5,8.2-2.1,16.9-9.4,21.9c-5.1,3.6-0.2,11.6,5.1,8.1c5.6-3.7,13.5-2.8,17.2,3c3.2,4.7,10.1,1.5,9.2-3.6c-0.6-2.6,0.6-4.3,2.4-6
		C598.8,733,596.9,727,592.5,727.6z" style="fill:#F7D16F;"/>
	<path d="M131.6,741.3c-1.1,0.2-2.2,0.6-3.4,0.9c-3.7,0.4-7.9-2.2-9.2-5.8c0.4-3.4,0.2-6.7-0.6-10.1
		c-1.3-5.8-11.1-3.4-9.6,2.4c0.2,0.6,0.2,1.1,0.4,1.9v0.2c-0.4,2.1-0.4,4.1,0,6c-0.6,3.4-1.7,6.6-3.7,9.4c-0.9,0-1.7,0.2-2.6,0.4
		c-6.6,1.5-10.5,7.1-9.2,13.3c0.7,3,4.7,4.1,7.3,2.8c3-1.5,5.6-3.4,7.9-5.6c0.7,0.4,1.1,0.6,1.3,0.6c1.7,1.1,3,2.8,4.3,4.1
		c2.6,2.8,7.1,0.9,8.4-2.1c1.7-4.3,5.1-7.1,9.4-8.6c0.7-0.2,1.5-0.4,2.2-0.6l0,0l0,0c0.4-0.2,0.7-0.4,1.1-0.4
		C140.8,747.6,136.9,740.1,131.6,741.3z" style="fill:#F7D16F;"/>
	<path d="M103.1,489.2c-1.3,0.9-2.6,1.5-4.1,1.7l-0.7-5.8c-0.2-1.7-1.1-2.8-2.4-3.6c0-2.1-0.4-4.1-0.9-6.2
		c-1.9-5.8-11.4-3.4-9.6,2.4c2.4,8.2-2.2,16.1-10.1,18.9c-1.3,0.2-2.4,0.6-3.7,0.9c-6,2.2-3.7,9.9,2.6,9c1.1-0.2,2.2-0.4,3.4-0.7
		c5.8-0.6,12,2.2,14.1,7.5c0.2,1.1,0.4,2.4,0.7,3.7c1.5,4.9,10.5,4.1,9.7-1.3c0-0.4-0.2-0.7-0.2-1.3l0,0c0-0.2-0.2-0.6-0.2-0.7
		c0-0.2-0.2-0.6-0.2-0.7c-1.3-6.2,0.9-12,6.6-15.9C113.2,493.9,108.6,486,103.1,489.2z" style="fill:#F7D16F;"/>
	<path d="M120.6,302.2c-0.9,0.7-1.7,1.7-2.4,2.6c-1.1,0.4-2.4,0-3.6-0.9c0.6-1.1,0.6-2.4,0-3.7
		c-0.4-0.7-0.6-1.5-0.9-2.1c0.6-5.2-0.7-10.7-3.9-15.4c-3.4-5.1-12-0.4-8.6,4.7c0.2,0.4,0.4,0.7,0.6,1.1c-0.9,0.7-1.5,1.9-1.5,3.2
		c0.2,3.6,0.7,7.5,1.9,11.1c-0.7,1.3-1.5,2.6-2.6,3.7c-2.8,0.9-5.4,2.8-7.1,5.6c-2.8,4.1,2.6,8.4,6.7,6.4c2.1-0.9,3.9-2.2,5.8-3.7
		c3.9,0.4,8.6,6,10.3,8.1c3.2,4.1,10.5,1.9,9.2-3.6c-0.7-2.8-0.4-5.2,1.1-7.5c1.3-0.9,2.4-2.1,3.2-3.6
		C131.1,303.1,124.9,298.6,120.6,302.2z" style="fill:#F7D16F;"/>
	<path d="M465.6,78.2c-3.4,0-6.6,0-9.9,0c-0.6-1.7-0.9-3.6-1.5-5.2c0.2-2.4,0-4.9-0.4-7.3c-1.1-6-10.7-3.4-9.6,2.4
		c0,0.4,0.2,0.9,0.2,1.3c-0.6,0.9-0.7,2.1-0.4,3.4c0.2,0.4,0.2,0.7,0.4,1.3c-0.7,5.1-3.9,9.7-8.6,12.7l0,0c-0.4,0.2-0.6,0.4-0.9,0.6
		l0,0c-0.4,0.2-0.7,0.4-1.1,0.7c-4.5,3.4,1.3,10.1,6,7.3c0.9-0.6,1.9-1.1,2.6-1.7c5.2-2.6,12.4-0.4,15.2,4.5
		c2.8,4.5,10.9,1.5,9.2-3.6c-1.1-3.4-0.4-6.2,2.4-8.6C472.3,83.5,469.7,78.2,465.6,78.2z" style="fill:#F7D16F;"/>
	<path d="M387.4,391.9c-0.7-1.9-2.4-3.2-4.9-3.2c-7.3,0-7.3,11.2,0,11.2c0.7,0,1.3-0.2,1.9-0.4c1.1-0.2,2.1-0.6,2.8-1.3
		C389.1,396.6,389.3,393.8,387.4,391.9z" style="fill:#57455E;"/>
	<path d="M421.2,387.1c-7.3,0-7.3,11.2,0,11.2C428.5,398.3,428.5,387.1,421.2,387.1z" style="fill:#57455E;"/>
	<path d="M424.5,576.2l-24.4,3c-7.1,0.9-7.1,12.2,0,11.2l24.4-3C431.7,586.5,431.7,575.2,424.5,576.2z" style="fill:#57455E;"/>
	<path d="M421.2,550.1c-7.1,0.2-14.4,0.6-21.6,0.7c-7.3,0.2-7.3,11.4,0,11.2c7.1-0.2,14.4-0.6,21.6-0.7
		C428.5,561.2,428.5,549.9,421.2,550.1z" style="fill:#57455E;"/>
	<path d="M422.3,523.9c-6.7,0-13.5,0.6-20.2,1.7c-7.1,1.1-4.1,12,3,10.9c5.8-0.9,11.4-1.3,17.2-1.3
		C429.6,535.1,429.6,523.9,422.3,523.9z" style="fill:#57455E;"/>
	<path d="M420.2,497.1c-6,1.3-12.2,1.9-18.4,2.1c-7.3,0.2-7.3,11.4,0,11.2c7.1-0.2,14.2-1.1,21.4-2.6
		C430.3,506.4,427.3,495.6,420.2,497.1z" style="fill:#57455E;"/>
	<path d="M414.8,405.8c-3.9-3.4-9-10.1-14.8-7.3c-4.7,2.2-7.7,8.2-9.4,12.9c-0.9,2.8,1.1,6.2,3.9,6.9
		c3.2,0.9,5.8-1.1,6.9-3.9c0.4-1.3,1.1-2.4,1.9-3.6l0.2,0.2c1.1,0.9,2.2,1.9,3.4,2.8C412.4,418.4,420.2,410.5,414.8,405.8z" style="fill:#57455E;"/>
	<path d="M378.6,403.9c-5.1-2.4-9.7-5.2-14.2-8.4c-2.4-1.7-6.2-0.4-7.7,2.1c-1.7,2.8-0.6,6,2.1,7.7
		c4.5,3.2,9.4,6,14.2,8.4c2.8,1.3,6,0.7,7.7-2.1C382.2,409.2,381.4,405.2,378.6,403.9z" style="fill:#57455E;"/>
	<path d="M445.7,391.6c-2.2-2.2-5.6-2.1-7.9,0c-3.4,2.8-6.7,5.8-10.1,8.6c-2.2,2.1-2.1,6,0,7.9c2.2,2.2,5.6,2.1,7.9,0
		c3.4-2.8,6.7-5.8,10.1-8.6C448,397.6,447.8,393.6,445.7,391.6z" style="fill:#57455E;"/>
	<path d="M426.2,366.8l-0.7-4.3c-0.2-1.3-1.5-2.8-2.6-3.4c-1.1-0.7-3-0.9-4.3-0.6c-1.3,0.4-2.6,1.3-3.4,2.6
		c-0.7,1.5-0.7,2.8-0.6,4.3l0.7,4.3c0.2,1.3,1.5,2.8,2.6,3.4c1.1,0.7,3,0.9,4.3,0.6c1.3-0.4,2.6-1.3,3.4-2.6
		C426.4,369.8,426.4,368.5,426.2,366.8z" style="fill:#57455E;"/>
	<path d="M379.2,355c-3,0.2-5.6,2.4-5.6,5.6v8.2c0,3,2.6,5.8,5.6,5.6c3-0.2,5.6-2.4,5.6-5.6v-8.2
		C384.8,357.6,382.2,354.8,379.2,355z" style="fill:#57455E;"/>
	<path d="M322.8,525c-0.6-8.1,0-18.2-3-25.7c-2.4-6-8.8-7.9-14.6-9.7c-8.8-2.8-17.8-4.1-27-4.3
		c-7.3-0.2-7.3,11.1,0,11.2c6.6,0.2,12.9,0.9,19.3,2.6c2.2,0.6,5.8,0.9,7.7,2.4c5.4,3.7,5.1,9,5.6,14.4c1.1,13.5,1.9,27,1.9,40.7
		c0,6.2-0.2,12.4-0.4,18.6c-0.2,6.7,0.6,15.6-1.3,22.1c-1.1,3.7-0.4,4.9-4.9,5.8c-2.6,0.6-6,0-8.8,0c-6.9,0-14.1,0-21,0
		c-7.3,0-7.3,11.2,0,11.2c9.9,0,19.9,0,29.6,0c5.2,0,10.3-0.6,13.5-5.2c3.9-6,3-15.9,3.6-22.9c0.6-10.5,0.9-21,0.9-31.3
		C323.9,544.7,323.5,534.9,322.8,525z" style="fill:#57455E;"/>
	<path d="M551,567.4c-6.6,1.3-13.3,2.6-19.9,3.9c-0.7,0.2-7.3,1.9-7.5,3c-0.9-1.5-1.5-7.1-1.7-8.1
		c-3-13.7-3.2-27.7-3.2-41.6c0-12.7,0.6-25.7-0.2-38.6c-0.4-8.1-2.8-14.6,4.3-20.1c5.4-4.1,13.5-6.6,19.5-9.7
		c6.6-3.2,0.7-12.9-5.6-9.7c-11.4,5.6-30.9,10.3-30.5,26c0.2,9,1.5,18.2,1.5,27.2c0,9.9-0.2,19.9-0.2,29.8c0,9.2,0.4,18.6,1.7,27.7
		c0.9,6.9,1.5,15.9,5.1,22.3c2.8,4.9,6.7,4.9,11.8,4.1c9.4-1.5,18.9-3.7,28.1-5.6C561.2,576.7,558.2,566,551,567.4z" style="fill:#57455E;"/>
	<path d="M468.8,708.7c-42.9,7.3-86.6,2.4-127.1-13.1c-6.7-2.6-9.7,8.2-3,10.9c42.5,16.5,88.3,20.8,133.1,13.1
		C478.9,718.4,475.9,707.5,468.8,708.7z" style="fill:#57455E;"/>
	<path d="M390.4,790c-1.1-4.5-1.1-9-0.6-13.5c0.4-3-2.8-5.6-5.6-5.6c-3.4,0-5.2,2.6-5.6,5.6c-0.7,5.6-0.2,11.1,0.9,16.5
		C381.2,800.1,392.1,797.1,390.4,790z" style="fill:#57455E;"/>
	<path d="M411,819c-0.4-3-2.2-5.6-5.6-5.6c-2.8,0-6,2.6-5.6,5.6c0.4,3.4,0.9,6.7,1.3,9.9c0.4,3,2.2,5.6,5.6,5.6
		c2.8,0,6-2.6,5.6-5.6C412,825.6,411.6,822.2,411,819z" style="fill:#57455E;"/>
	<path d="M434.7,778.8c-2.1-6.9-12.9-3.9-10.9,3c1.1,3.7,1.3,7.1,0.9,11.1c-0.4,3,2.8,5.6,5.6,5.6
		c3.4,0,5.2-2.6,5.6-5.6C436.5,787.9,436,783.3,434.7,778.8z" style="fill:#57455E;"/>
	<path d="M463.5,771.4c-1.7-2.6-5.1-3.6-7.7-2.1c-2.4,1.5-3.7,5.1-2.1,7.7c1.7,2.4,2.2,5.1,1.5,8.1
		c-1.9,6.9,9,9.9,10.9,3C467.6,782.5,466.7,776.3,463.5,771.4z" style="fill:#57455E;"/>
	<path d="M447.2,844.9c-0.4-2.4-0.7-5.1-1.3-7.5c-0.6-3-4.3-4.9-6.9-3.9c-3.2,0.9-4.5,3.7-3.9,6.9
		c0.4,2.4,0.7,5.1,1.3,7.5c0.6,3,4.3,4.9,6.9,3.9C446.5,850.9,447.8,848.1,447.2,844.9z" style="fill:#57455E;"/>
	<path d="M488.8,246.1c-9.4-24.2-20.4-48-34.7-69.7c-12-18.2-30.4-35.8-54-32.4c-11.2,1.5-18.7,8.4-26.2,16.3
		c-8.6,9-17.1,18.2-24.9,27.7c-15.2,18.6-27.9,39-33.5,62.8c-0.6,2.4,0.4,4.3,1.9,5.6c-3.6,2.4-4.1,9,1.3,9.9
		c55.7,9.7,112.8,5.2,166.2-13.3C487.5,252.1,489.9,249.1,488.8,246.1z" style="fill:#74A3D7;"/>
	<path d="M526.5,156.7c-7.3,0-7.3,11.2,0,11.2S533.8,156.7,526.5,156.7z" style="fill:#FFFFFF;"/>
	<path d="M547.1,100.5c-7.3,0-7.3,11.2,0,11.2C554.4,111.8,554.4,100.5,547.1,100.5z" style="fill:#FFFFFF;"/>
	<path d="M640.8,162.4h-1.9c-3,0-5.8,2.6-5.6,5.6c0.2,3,2.4,5.6,5.6,5.6h1.9c3,0,5.8-2.6,5.6-5.6
		C646.2,165,644,162.4,640.8,162.4z" style="fill:#FFFFFF;"/>
	<path d="M693.3,299.2c-7.3,0-7.3,11.2,0,11.2S700.6,299.2,693.3,299.2z" style="fill:#FFFFFF;"/>
	<path d="M552.7,263.6c-7.3,0-7.3,11.2,0,11.2C560,274.8,560,263.6,552.7,263.6z" style="fill:#FFFFFF;"/>
	<path d="M637.1,353.5c-3,0.2-5.6,2.4-5.6,5.6v1.9c0,3,2.6,5.8,5.6,5.6c3-0.2,5.6-2.4,5.6-5.6v-1.9
		C642.7,356.3,640.1,353.5,637.1,353.5z" style="fill:#FFFFFF;"/>
	<path d="M760.7,381.6c-7.3,0-7.3,11.2,0,11.2S768.1,381.6,760.7,381.6z" style="fill:#FFFFFF;"/>
	<path d="M712,529.7c-7.3,0-7.3,11.2,0,11.2S719.3,529.7,712,529.7z" style="fill:#FFFFFF;"/>
	<path d="M697,670.2c-7.3,0-7.3,11.2,0,11.2S704.3,670.2,697,670.2z" style="fill:#FFFFFF;"/>
	<path d="M543.3,696.5h-1.9c-3,0-5.8,2.6-5.6,5.6c0.2,3,2.4,5.6,5.6,5.6h1.9c3,0,5.8-2.6,5.6-5.6
		C548.8,699.1,546.5,696.5,543.3,696.5z" style="fill:#FFFFFF;"/>
	<path d="M631.4,767.7c-7.3,0-7.3,11.2,0,11.2C638.7,778.9,638.7,767.7,631.4,767.7z" style="fill:#FFFFFF;"/>
	<path d="M153.5,793.9c-7.3,0-7.3,11.2,0,11.2S160.8,793.9,153.5,793.9z" style="fill:#FFFFFF;"/>
	<path d="M314.7,698.4c-7.3,0-7.3,11.2,0,11.2C322,709.6,322,698.4,314.7,698.4z" style="fill:#FFFFFF;"/>
	<path d="M318.5,754.6c-7.3,0-7.3,11.2,0,11.2C325.8,765.8,325.8,754.6,318.5,754.6z" style="fill:#FFFFFF;"/>
	<path d="M71.1,636.5c-7.3,0-7.3,11.2,0,11.2S78.4,636.5,71.1,636.5z" style="fill:#FFFFFF;"/>
	<path d="M168.5,503.5c-7.3,0-7.3,11.2,0,11.2S175.8,503.5,168.5,503.5z" style="fill:#FFFFFF;"/>
	<path d="M80.5,377.9c-7.3,0-7.3,11.2,0,11.2S87.8,377.9,80.5,377.9z" style="fill:#FFFFFF;"/>
	<path d="M234.1,332.9c-7.3,0-7.3,11.2,0,11.2S241.4,332.9,234.1,332.9z" style="fill:#FFFFFF;"/>
	<path d="M157.3,228c-7.3,0-7.3,11.2,0,11.2S164.6,228,157.3,228z" style="fill:#FFFFFF;"/>
	<path d="M282.9,218.6c-7.3,0-7.3,11.2,0,11.2C290.2,229.8,290.2,218.6,282.9,218.6z" style="fill:#FFFFFF;"/>
	<path d="M322.2,119.3c-7.3,0-7.3,11.2,0,11.2S329.5,119.3,322.2,119.3z" style="fill:#FFFFFF;"/>
	<path d="M354.1,44.3c-7.3,0-7.3,11.2,0,11.2C361.4,55.5,361.4,44.3,354.1,44.3z" style="fill:#FFFFFF;"/>
	<path d="M172.3,353.5c-3,0.2-5.6,2.4-5.6,5.6v1.9c0,3,2.6,5.8,5.6,5.6c3-0.2,5.6-2.4,5.6-5.6v-1.9
		C177.9,356.3,175.3,353.5,172.3,353.5z" style="fill:#FFFFFF;"/>
	<path d="M116.1,595.3c-3,0.2-5.6,2.4-5.6,5.6v1.9c0,3,2.6,5.8,5.6,5.6c3-0.2,5.6-2.4,5.6-5.6v-1.9
		C121.7,598.1,119.1,595.3,116.1,595.3z" style="fill:#FFFFFF;"/>
	<path d="M295.6,891c-9.9-7.3-17.4-16.9-22.3-28.1c0-0.6,0.2-1.3,0.2-2.1c-0.4-17.6-21.9-13.9-32.6-11.1
		c-10.5,2.8-34.3,6.4-30.2,22.1c-0.9,0.9-1.9,1.9-2.8,3c-8.2,9.6-16.7,19.1-24.9,28.9c-4.7,5.4,3.2,13.5,7.9,7.9
		c7.1-8.2,14.2-16.5,21.4-24.7c3-3.6,6-8.6,10.3-10.1c4.9-1.7,11.6-0.9,16.9-1.1c6.4-0.4,18.2,0.4,26-3
		c5.8,11.2,14.1,20.6,24.4,28.1C295.8,905.1,301.4,895.3,295.6,891z M257.4,863.3c-1.7,0.7-5.1,0.4-6.7,0.4
		c-6.9,0.4-13.7,0.6-20.6,0.9c-0.6,0-1.1,0-1.7,0c7.9-3.4,20.8-5.8,23.6-6.4c5.2-2.6,7.9-1.9,7.5,2.1
		C260.4,862.7,259.6,863.6,257.4,863.3z" style="fill:#57455E;"/>
	<path d="M625.1,857.3c-8.1-2.1-16.3-3.9-24.4-6c-1.1-0.4-2.2-0.2-3.2,0.2c-7.3-1.1-15-1.5-20.8,3.7
		c-4.9,4.3-7.1,12.6-3.7,18.4c4.5,8.1,15.4,6.6,23.1,5.6c10.9-1.5,21.2-5.6,30.4-11.6C630.1,865,629.9,858.4,625.1,857.3z
		 M593.8,868.1c-3,0.4-12.9,2.1-10.5-3.2c2.2-5.1,11.6-2.6,15.7-1.9c0.9,0.2,1.7,0.2,2.6,0c2.1,0.6,4.1,0.9,6.2,1.5
		C603.1,866.3,598.6,867.4,593.8,868.1z" style="fill:#57455E;"/>
	<path d="M559.1,820.9c-7.7-0.7-15.6-1.7-23.2-2.4c-7.1-0.7-7.1,10.5,0,11.2c7.7,0.7,15.6,1.7,23.2,2.4
		C566.2,832.9,566.2,821.7,559.1,820.9z" style="fill:#57455E;"/>
	<path d="M355.8,874.1H343c-7.3,0-7.3,11.2,0,11.2h12.7C362.9,885.4,362.9,874.1,355.8,874.1z" style="fill:#57455E;"/>
	<path d="M516.5,888.4c-8.4,0.9-16.9,1.7-25.3,2.6c-7.1,0.7-7.1,12,0,11.2c8.4-0.9,16.9-1.7,25.3-2.6
		C523.7,898.9,523.9,887.6,516.5,888.4z" style="fill:#57455E;"/>
	<path d="M313.4,808.4c-7.7-0.4-15,1.5-21.9,5.1c-6.4,3.4-0.7,13.1,5.6,9.7c5.1-2.6,10.5-3.7,16.1-3.6
		C320.5,819.8,320.5,808.6,313.4,808.4z" style="fill:#57455E;"/>
</g>
</svg>
