<svg width="1302" height="554" viewBox="0 0 1302 554" fill="none" xmlns="http://www.w3.org/2000/svg">
<g clip-path="url(#clip0)">
<path opacity="0.1" d="M1106.48 438.21C1105.32 440.71 1104.16 443.177 1103.01 445.61C1101.21 449.39 1099.43 453.097 1097.68 456.73C1096.9 458.34 1096.12 459.92 1095.36 461.5C1086.76 479.07 1078.73 494.61 1071.91 507.39C1065.72 518.97 1056.53 528.672 1045.31 535.481C1034.08 542.29 1021.23 545.954 1008.1 546.09L856.45 547.74H854.85L841.85 547.88L830.73 548L796.63 548.37H795.25L777.89 548.56H777.36L670.36 549.72L574.85 550.72L563.74 550.84L494.74 551.59H494.66L449.91 552.07H449.43L307.93 553.6L265.6 554.06C256.567 554.162 247.571 552.874 238.93 550.24C223.892 545.698 210.377 537.141 199.84 525.49C181.66 505.46 168.41 482.09 159.51 456.73C158.223 453.07 157.023 449.363 155.91 445.61C125.1 341.46 162.66 207.09 230.26 117.17C233.093 113.41 235.973 109.743 238.9 106.17L238.97 106.09C259.76 80.57 283.07 59.25 307.9 44.09C351.9 17.18 400.65 9.60001 448.6 32.19C489.17 51.31 527.05 60.3 563.77 62.74C567.48 62.98 571.19 63.16 574.88 63.27C659.11 65.92 738.05 35.57 830.75 15.98C834.44 15.2 838.14 14.43 841.87 13.7C908 0.540001 981.36 -6.39999 1068.6 8.19001C1077.66 9.67067 1086.61 11.8097 1095.36 14.59C1099.21 15.83 1102.91 17.1633 1106.48 18.59C1148.12 35.53 1170.83 66.83 1180.48 106.05C1181.39 109.69 1182.18 113.393 1182.85 117.16C1199.96 211.5 1149.85 345.32 1106.48 438.21Z" fill="#6C63FF"/>
<g opacity="0.1">
<path opacity="0.1" d="M307.9 44.0901V553.71L265.57 554.17C256.537 554.272 247.541 552.984 238.9 550.35V106.09H238.97C259.76 80.5401 283.07 59.2201 307.9 44.0901Z" fill="#6C63FF"/>
<path opacity="0.1" d="M1182.9 117.17H230.26C233.093 113.41 235.973 109.743 238.9 106.17V106.09H1180.53C1181.44 109.71 1182.23 113.403 1182.9 117.17Z" fill="#6C63FF"/>
<path opacity="0.1" d="M1106.48 18.6001V445.6H1103.01C1101.21 449.38 1099.43 453.087 1097.68 456.72C1096.9 458.33 1096.12 459.91 1095.36 461.49V14.5601C1099.21 15.8001 1102.91 17.1467 1106.48 18.6001Z" fill="#6C63FF"/>
<path opacity="0.1" d="M841.87 13.67V547.92L830.75 548.04V15.95C834.44 15.17 838.14 14.4 841.87 13.67Z" fill="#6C63FF"/>
<path opacity="0.1" d="M574.88 63.2401V550.82L563.77 550.94V62.7101C567.48 62.9501 571.19 63.0901 574.88 63.2401Z" fill="#6C63FF"/>
<path opacity="0.1" d="M1103.01 445.61C1101.21 449.39 1099.43 453.097 1097.68 456.73H159.51C158.223 453.07 157.023 449.363 155.91 445.61H1103.01Z" fill="#6C63FF"/>
</g>
<path d="M375.6 265.83H356.6V323.49H375.6V265.83Z" fill="#3F3D56"/>
<path d="M886.93 262.83H867.93V323.83H886.93V262.83Z" fill="#3F3D56"/>
<path d="M1008.1 533.65V546.65L856.18 548.05L854.56 548.08L796.82 548.61L795.44 548.63L777.89 548.78H777.37L670.39 549.77L494.78 551.4H494.63L449.98 551.82L449.5 551.83L251.1 553.65V538.65L297.75 510.65L391.35 509.87L393.35 509.86L394.01 509.85L396.01 509.82L440.95 509.45L442.96 509.44L443.6 509.43L445.6 509.42L460.01 509.3L460.39 509.29L495.94 508.99H496.23L773.63 506.65L780.42 506.6H781.1L786.28 506.55L823.93 506.24L825.93 506.21L827.78 506.19H828.74L840.45 506.1L842.77 506.07L845.88 506.05L855.63 505.96L871.1 505.83L873.1 505.81L876.58 505.79H877.23L951.94 505.15L1008.1 533.65Z" fill="#65617D"/>
<path opacity="0.2" d="M1008.1 533.65V546.65L856.18 548.05L854.56 548.08L796.82 548.61L795.44 548.63L777.89 548.78H777.37L670.39 549.77L494.78 551.4H494.63L449.98 551.82L449.5 551.83L251.1 553.65V538.65L297.75 510.65L391.35 509.87L393.35 509.86L394.01 509.85L396.01 509.82L440.95 509.45L442.96 509.44L443.6 509.43L445.6 509.42L460.01 509.3L460.39 509.29L495.94 508.99H496.23L773.63 506.65L780.42 506.6H781.1L786.28 506.55L823.93 506.24L825.93 506.21L827.78 506.19H828.74L840.45 506.1L842.77 506.07L845.88 506.05L855.63 505.96L871.1 505.83L873.1 505.81L876.58 505.79H877.23L951.94 505.15L1008.1 533.65Z" fill="black"/>
<path d="M441.1 483.66V508.15C441.1 509.31 440.772 510.446 440.152 511.427C439.533 512.408 438.648 513.192 437.6 513.69C436.82 514.068 435.967 514.273 435.1 514.29L400.2 515.03C399.268 515.052 398.343 514.857 397.5 514.46C396.434 513.971 395.53 513.186 394.897 512.199C394.265 511.211 393.929 510.063 393.93 508.89V483.66H441.1Z" fill="#3F3D56"/>
<path opacity="0.1" d="M441.1 483.66V508.15C441.1 509.31 440.772 510.446 440.152 511.427C439.533 512.408 438.648 513.192 437.6 513.69C436.82 514.068 435.967 514.273 435.1 514.29L400.2 515.03C399.268 515.052 398.343 514.857 397.5 514.46C396.434 513.971 395.53 513.186 394.897 512.199C394.265 511.211 393.929 510.063 393.93 508.89V483.66H441.1Z" fill="black"/>
<path d="M443.1 483.66V508.15C443.1 509.31 442.772 510.446 442.152 511.427C441.533 512.408 440.648 513.192 439.6 513.69C438.82 514.068 437.967 514.273 437.1 514.29L402.2 515.03C401.268 515.052 400.343 514.857 399.5 514.46C398.434 513.971 397.53 513.186 396.897 512.199C396.265 511.211 395.929 510.063 395.93 508.89V483.66H443.1Z" fill="#3F3D56"/>
<path d="M873.1 483.66H825.93V515.16H873.1V483.66Z" fill="#3F3D56"/>
<path opacity="0.1" d="M873.1 483.66H825.93V515.16H873.1V483.66Z" fill="black"/>
<path d="M871.1 483.66H823.93V515.16H871.1V483.66Z" fill="#3F3D56"/>
<path opacity="0.1" d="M375.6 265.82V271.55L356.6 271.06V265.82H375.6Z" fill="black"/>
<path d="M500.66 104.4L477.83 268.4C477.685 269.447 477.16 270.405 476.353 271.089C475.547 271.774 474.517 272.137 473.46 272.11L290.66 267.37L287.19 267.28C286.586 267.266 285.992 267.124 285.446 266.865C284.9 266.605 284.415 266.234 284.022 265.774C283.63 265.315 283.339 264.777 283.168 264.198C282.997 263.618 282.95 263.009 283.03 262.41L308.66 90.73C308.825 89.6665 309.383 88.7037 310.224 88.0316C311.064 87.3596 312.126 87.0271 313.2 87.1L496.66 99.5199C497.252 99.5542 497.83 99.7109 498.359 99.9799C498.887 100.249 499.354 100.625 499.73 101.083C500.106 101.542 500.382 102.073 500.542 102.644C500.703 103.215 500.743 103.813 500.66 104.4V104.4Z" fill="#65617D"/>
<path d="M320.93 99.16L301.6 250.49L469.6 255.82L490.26 109.82L320.93 99.16Z" fill="#6C63FF"/>
<path d="M728.94 96.8199H534.93C531.986 96.8199 529.6 99.2063 529.6 102.15V264.82C529.6 267.764 531.986 270.15 534.93 270.15H728.94C731.884 270.15 734.27 267.764 734.27 264.82V102.15C734.27 99.2063 731.884 96.8199 728.94 96.8199Z" fill="#65617D"/>
<path d="M725.26 108.49H539.26V252.82H725.26V108.49Z" fill="#6C63FF"/>
<path opacity="0.1" d="M886.93 262.82V266.61L867.93 267V262.82H886.93Z" fill="black"/>
<path d="M972.66 259.62C972.687 260.034 972.63 260.45 972.492 260.842C972.355 261.233 972.139 261.593 971.859 261.9C971.579 262.206 971.24 262.453 970.862 262.624C970.484 262.796 970.075 262.89 969.66 262.9L782.46 266.77C781.682 266.786 780.927 266.507 780.347 265.99C779.766 265.472 779.403 264.754 779.33 263.98L763.24 96.7C763.2 96.2849 763.245 95.8662 763.372 95.4691C763.499 95.0719 763.705 94.7047 763.978 94.3896C764.251 94.0745 764.585 93.8181 764.96 93.636C765.335 93.4538 765.744 93.3497 766.16 93.33L951.94 84.09L953.94 83.99C954.735 83.9481 955.515 84.2167 956.116 84.7391C956.717 85.2615 957.091 85.9969 957.16 86.79L972.66 259.62Z" fill="#65617D"/>
<path d="M773.93 103.16L943.6 94.8199L957.93 246.82L789.6 250.82L773.93 103.16Z" fill="#6C63FF"/>
<path opacity="0.1" d="M972.66 259.62C972.687 260.034 972.63 260.45 972.492 260.842C972.355 261.233 972.139 261.593 971.859 261.9C971.579 262.206 971.24 262.453 970.862 262.624C970.484 262.796 970.075 262.89 969.66 262.9L951.94 84.09L953.94 83.99C954.735 83.9481 955.515 84.2167 956.116 84.7391C956.717 85.2615 957.091 85.9969 957.16 86.79L972.66 259.62Z" fill="black"/>
<path opacity="0.1" d="M313.23 87.09L290.66 267.37L287.19 267.28C286.586 267.266 285.992 267.124 285.446 266.865C284.9 266.605 284.415 266.234 284.022 265.774C283.63 265.315 283.339 264.777 283.168 264.198C282.997 263.618 282.95 263.009 283.03 262.41L308.66 90.73C308.823 89.6592 309.385 88.6895 310.232 88.0147C311.079 87.3398 312.15 87.0096 313.23 87.09V87.09Z" fill="black"/>
<path opacity="0.1" d="M375.6 306.41H356.6V323.49H375.6V306.41Z" fill="black"/>
<path opacity="0.1" d="M443.1 483.65V488.62L395.93 489.88V483.65H443.1Z" fill="black"/>
<path d="M526.35 312.36V480.56C526.338 481.587 525.931 482.569 525.215 483.305C524.498 484.04 523.526 484.472 522.5 484.51L330.85 489.61H330.8C329.757 489.597 328.759 489.177 328.021 488.439C327.283 487.701 326.863 486.704 326.85 485.66V312.36C326.863 311.316 327.283 310.319 328.021 309.581C328.759 308.843 329.757 308.423 330.8 308.41H522.4C523.444 308.423 524.441 308.843 525.179 309.581C525.917 310.319 526.337 311.316 526.35 312.36V312.36Z" fill="#65617D"/>
<path opacity="0.1" d="M330.85 308.41V489.61H330.8C329.757 489.597 328.759 489.177 328.021 488.439C327.283 487.701 326.863 486.704 326.85 485.66V312.36C326.863 311.316 327.283 310.319 328.021 309.581C328.759 308.843 329.757 308.423 330.8 308.41H330.85Z" fill="black"/>
<path d="M339.6 319.15H517.1V467.4L339.6 471.4V319.15Z" fill="#D4DFEC"/>
<path opacity="0.1" d="M886.93 306.41H867.93V323.83H886.93V306.41Z" fill="black"/>
<path opacity="0.1" d="M871.1 483.65V490.06L823.93 488.8V483.65H871.1Z" fill="black"/>
<path d="M933.35 312.36V485.66C933.337 486.712 932.91 487.717 932.161 488.456C931.412 489.196 930.402 489.61 929.35 489.61V489.61L737.66 484.51C736.634 484.472 735.662 484.04 734.945 483.305C734.229 482.569 733.822 481.587 733.81 480.56V312.36C733.823 311.316 734.243 310.319 734.981 309.581C735.719 308.843 736.716 308.423 737.76 308.41H929.36C930.411 308.413 931.418 308.828 932.164 309.567C932.911 310.306 933.337 311.31 933.35 312.36V312.36Z" fill="#65617D"/>
<path opacity="0.1" d="M933.35 312.36V485.66C933.337 486.712 932.91 487.717 932.161 488.456C931.412 489.196 930.402 489.61 929.35 489.61V489.61V308.41C930.402 308.41 931.412 308.825 932.161 309.564C932.91 310.303 933.337 311.308 933.35 312.36Z" fill="black"/>
<path d="M920.6 319.15H743.1V467.4L920.6 471.4V319.15Z" fill="#D4DFEC"/>
<path d="M728.85 312.36V480.56C728.838 481.587 728.432 482.569 727.715 483.305C726.998 484.04 726.026 484.472 725 484.51L533.35 489.61C532.298 489.61 531.288 489.196 530.539 488.456C529.79 487.717 529.363 486.712 529.35 485.66V312.36C529.363 311.316 529.783 310.319 530.521 309.581C531.259 308.843 532.257 308.423 533.3 308.41H724.9C725.944 308.423 726.941 308.843 727.679 309.581C728.417 310.319 728.837 311.316 728.85 312.36V312.36Z" fill="#65617D"/>
<path d="M542.1 319.15H719.6V467.4L542.1 471.4V319.15Z" fill="#D4DFEC"/>
<path opacity="0.1" d="M1008.1 533.65V546.65L856.18 548.05L854.56 548.08L796.82 548.61L795.44 548.63L777.89 548.78H777.37L670.39 549.77L494.78 551.4H494.63L449.98 551.82L449.5 551.83L251.1 553.65V538.65L453.61 537.32H454.09L495.08 537.04H495.27L778.35 535.17H778.64L778.81 535.16H779.28L784.07 535.13H785.53L860.02 534.63L864.42 534.61L865.4 534.6L1008.1 533.65Z" fill="black"/>
<path d="M632.26 323.49C660.609 323.49 683.59 300.509 683.59 272.16C683.59 243.811 660.609 220.83 632.26 220.83C603.911 220.83 580.93 243.811 580.93 272.16C580.93 300.509 603.911 323.49 632.26 323.49Z" fill="#FBBEBE"/>
<path d="M683.6 377.16C683.6 377.16 584.1 389.16 593.6 377.16C597.04 372.82 597.99 359.96 597.8 345.31C597.74 340.86 597.58 336.25 597.35 331.66C596.25 309.66 593.6 288.16 593.6 288.16C593.6 288.16 680.6 247.16 670.6 279.66C666.6 292.79 667.91 311.23 670.95 328.54C671.84 333.59 672.87 338.54 673.95 343.24C676.586 354.704 679.807 366.025 683.6 377.16V377.16Z" fill="#FBBEBE"/>
<path opacity="0.1" d="M683.6 377.16C683.6 377.16 584.1 389.16 593.6 377.16C597.04 372.82 597.99 359.96 597.8 345.31C612.97 338.83 632.27 343.66 632.27 343.66C652.59 339.61 665.62 340.4 673.95 343.24C676.586 354.704 679.807 366.025 683.6 377.16V377.16Z" fill="black"/>
<path d="M494.74 552.53V551.69L670.36 549.78L777.36 548.78H777.66L777.55 550.26L777.7 548.78H777.89V548.61L779.26 535.16L779.78 530.07L779.94 528.48L780.08 527.15L786.26 506.54L792.44 485.96L797.64 468.63L805.58 442.15C805.58 442.15 801.08 431.65 798.58 428.65C796.08 425.65 793.58 405.15 793.58 405.15C793.58 405.15 772.24 384.82 762.91 382.48C759 381.48 751.28 380.15 743.08 378.48C740.01 377.86 736.86 377.2 733.83 376.48C732.12 376.09 730.44 375.68 728.83 375.27C725.697 374.487 722.609 373.533 719.58 372.41C717.992 371.833 716.481 371.064 715.08 370.12C707.73 364.73 689.31 364.12 688.6 364.12C688.598 364.097 688.598 364.073 688.6 364.05V363.96C688.626 363.54 688.626 363.12 688.6 362.7C688.6 362.3 688.6 361.83 688.51 361.3C688.51 361.14 688.51 360.97 688.44 360.8C688.39 360.44 688.33 360.06 688.24 359.66C688.21 359.481 688.17 359.304 688.12 359.13C687.83 357.925 687.411 356.755 686.87 355.64C686.8 355.48 686.71 355.31 686.63 355.15C686.14 354.226 685.571 353.346 684.93 352.52C684.8 352.35 684.66 352.17 684.51 352C683.691 351.034 682.78 350.15 681.79 349.36C681.52 349.15 681.24 348.93 680.95 348.73C680.788 348.599 680.618 348.478 680.44 348.37L679.55 347.79L678.72 347.31C677.99 346.91 677.22 346.52 676.38 346.15C676.12 346.03 675.84 345.92 675.56 345.81C675.28 345.7 674.84 345.53 674.47 345.39H674.41L673.66 345.09C673.09 344.9 672.51 344.73 671.9 344.56L670.97 344.32L669.97 344.09L668.97 343.88C667.97 343.68 666.9 343.5 665.78 343.36L664.64 343.22L663.47 343.1L662.26 343L660.54 342.9L658.54 342.83C649.719 342.829 640.923 343.764 632.3 345.62C626.309 344.287 620.173 343.722 614.04 343.94H613.17L612.17 344H611.53L610.24 344.12C609.81 344.12 609.37 344.21 608.94 344.27C608.51 344.33 608.06 344.38 607.63 344.45L606.97 344.56C606.32 344.67 605.66 344.79 604.97 344.93C604.75 344.97 604.53 345.02 604.31 345.08C603.44 345.27 602.57 345.5 601.71 345.76C601.28 345.88 600.85 346.02 600.42 346.17C600.2 346.23 599.99 346.31 599.78 346.39L599.14 346.62L598.51 346.87L597.76 347.17C597.38 347.33 597.01 347.5 596.64 347.68C596.43 347.77 596.22 347.87 596.02 347.98C595.82 348.09 595.61 348.18 595.42 348.29C593.159 349.458 591.069 350.932 589.21 352.67L588.7 353.16L588.2 353.67C588.03 353.84 587.87 354.02 587.71 354.2C587.058 354.912 586.451 355.664 585.89 356.45C585.73 356.66 585.58 356.87 585.43 357.09C584.795 358.026 584.221 359.001 583.71 360.01C583.58 360.25 583.46 360.5 583.34 360.74C582.524 362.429 581.855 364.186 581.34 365.99C581.153 366.657 580.983 367.323 580.83 367.99C580.83 367.99 559.66 377.33 542.1 384.09C537.43 385.89 533.03 387.52 529.35 388.75C528.28 389.11 527.28 389.44 526.35 389.75C524.332 390.479 522.234 390.963 520.1 391.19C519.094 391.206 518.091 391.3 517.1 391.47C509.03 392.78 495.2 398.47 493.69 404.18C493.567 404.636 493.534 405.111 493.59 405.58C493.59 405.58 493.59 405.65 493.59 405.69C494.59 412.69 487.59 411.69 487.59 411.69C487.59 411.69 485.09 430.19 481.59 435.19C479.06 438.79 477.33 446.82 477.11 452.88C476.984 454.768 477.133 456.664 477.55 458.51C477.55 458.56 477.55 458.61 477.55 458.65C477.95 459.99 476.99 463.65 475.36 468.34C473.59 473.49 471.01 479.89 468.53 485.93C464.79 495.05 461.27 503.33 461.05 505.15C460.96 505.96 460.7 507.41 460.34 509.28C458.88 516.9 455.64 531.41 454.04 537.28C452.85 541.66 451.12 547.66 449.93 551.78C449.93 551.9 449.86 552.02 449.83 552.13L494.66 551.69V552.53H494.8H494.74Z" fill="#6C63FF"/>
<path opacity="0.1" d="M511.1 434.66C511.1 434.66 568.1 464.16 588.6 460.66L511.1 434.66Z" fill="black"/>
<path opacity="0.1" d="M627.1 422.66C627.1 422.66 682.6 440.66 701.1 443.16C719.6 445.66 627.1 422.66 627.1 422.66Z" fill="black"/>
<path opacity="0.1" d="M688.66 364.74C659.66 370.08 605.06 368.93 581.46 368.12C590.11 337.12 632.29 347.66 632.29 347.66C684.5 337.24 688.5 358.86 688.66 364.74Z" fill="black"/>
<path d="M688.66 362.74C659.66 368.08 605.06 366.93 581.46 366.12C590.11 335.12 632.29 345.66 632.29 345.66C684.5 335.24 688.5 356.86 688.66 362.74Z" fill="#6C63FF"/>
<path d="M842.6 499.41C842.6 499.41 876.76 494.16 877.43 509.16C878.1 524.16 860.01 534.64 860.01 534.64L842.6 499.41Z" fill="#FBBEBE"/>
<path opacity="0.1" d="M670.95 328.54C669.481 329.197 667.979 329.777 666.45 330.28C655.67 334 644.8 337.75 633.45 339.11C622.1 340.47 610.19 339.27 600.29 333.61C599.251 333.023 598.249 332.372 597.29 331.66C596.19 309.66 593.54 288.16 593.54 288.16C593.54 288.16 680.54 247.16 670.54 279.66C666.56 292.79 667.91 311.23 670.95 328.54Z" fill="black"/>
<path d="M618.18 191.93C616.753 192.307 615.257 192.345 613.813 192.041C612.368 191.737 611.015 191.1 609.86 190.18L611.94 193.07C610.714 193.211 609.472 193.083 608.301 192.695C607.13 192.306 606.058 191.666 605.16 190.82C604.971 193.407 605.079 196.007 605.48 198.57C602.038 198.736 598.65 197.673 595.92 195.57C595.867 196.472 596.091 197.369 596.563 198.14C597.035 198.91 597.732 199.518 598.56 199.88C595.103 199.467 591.613 200.326 588.743 202.297C585.872 204.267 583.817 207.215 582.96 210.59L588.18 211.07C584.078 211.946 580.396 214.193 577.74 217.44C576.14 219.44 574.92 222 575.62 224.44C576.32 226.88 579.7 228.44 581.54 226.7C578.923 229.824 577.02 233.483 575.967 237.42C574.913 241.356 574.733 245.476 575.44 249.49C575.915 251.2 576.071 252.983 575.9 254.75C575.57 256.4 574.53 257.83 574.01 259.44C573.01 262.36 573.96 265.53 574.85 268.44L579.54 283.86C581.24 289.43 582.93 295.01 585.15 300.4C586.722 303.808 588.059 307.319 589.15 310.91C590.41 315.75 590.46 321.05 593.15 325.28C594.994 327.942 597.458 330.115 600.33 331.61C610.22 337.27 622.17 338.47 633.49 337.11C644.81 335.75 655.67 332 666.44 328.28C668.833 327.559 671.129 326.552 673.28 325.28C680.73 320.4 682.39 310.42 683.78 301.63C685.33 291.83 687.4 282.05 691.07 272.83C693.25 267.34 696.07 261.77 695.59 255.89C694.98 248.08 688.8 241.75 687.27 234.07C686.758 231.503 686.782 228.857 687.34 226.3C687.815 224.776 688.08 223.195 688.13 221.6C687.96 218.38 685.32 215.9 682.84 213.83C677.46 209.337 671.907 205.09 666.18 201.09C665.89 199.09 668.61 198.23 669.84 196.65C671.58 194.42 669.78 190.88 667.14 189.84C664.5 188.8 661.54 189.48 658.79 190.17C658.969 188.762 658.689 187.335 657.992 186.099C657.294 184.863 656.217 183.885 654.919 183.311C653.622 182.737 652.173 182.597 650.79 182.912C649.406 183.227 648.161 183.981 647.24 185.06C646.51 183.385 645.343 181.938 643.862 180.868C642.381 179.799 640.639 179.146 638.82 178.98C632.19 178.46 632.06 183.53 627.82 186.32C623.58 189.11 620.08 185.43 616.82 182.75C616.221 184.265 616.031 185.911 616.27 187.522C616.509 189.134 617.168 190.654 618.18 191.93V191.93Z" fill="#3F3D56"/>
<path d="M867.93 529.41C867.93 529.41 867.04 531.53 865.4 534.6C862.919 539.323 859.899 543.743 856.4 547.77L856.13 548.06H854.51L796.77 548.59H795.39L795.22 548.39L784.02 535.1L779.8 530.09L779.63 529.88L779.27 529.46L779.07 529.22L778.81 528.91L770.6 519.17L773.6 506.67L778.71 485.61L778.84 485.1L779.84 481.1L780.55 478.1L782.93 468.32L791.09 434.67L805.59 442.17L820.88 469.17L829.09 483.67H833.59C834.44 483.67 836.39 485.31 838.35 487.2C839.05 487.87 839.75 488.58 840.35 489.2C842.13 491.04 843.54 492.62 843.54 492.62C843.54 492.62 850.83 492.78 852.79 498.52C852.891 498.798 852.975 499.082 853.04 499.37C853.691 501.626 854.537 503.821 855.57 505.93C856.86 508.74 858.48 511.93 860.12 515.12C863.17 520.97 866.27 526.54 867.41 528.56L867.55 528.81L867.93 529.41Z" fill="#6C63FF"/>
<path opacity="0.1" d="M782.03 484.26L781.93 485.69V485.79L781.76 488.09L780.43 506.6L778.82 528.9L778.36 535.18L777.36 548.62V548.79L670.36 549.79L494.77 551.69V552.53H494.63V551.69V551.41L495.08 537.05L495.94 508.99L496.68 485.2L496.75 482.83C496.794 481.4 497.129 479.993 497.734 478.696C498.34 477.4 499.203 476.24 500.272 475.288C501.341 474.336 502.592 473.612 503.95 473.161C505.308 472.709 506.744 472.538 508.17 472.66C512.89 473.06 519.02 473.55 526.35 474.07L529.35 474.29C571.68 477.23 649.91 481.03 728.85 476.29C730.51 476.2 732.18 476.1 733.85 475.98C746.09 475.21 758.32 474.22 770.43 472.98C771.961 472.82 773.508 472.997 774.963 473.499C776.418 474.001 777.745 474.817 778.851 475.887C779.957 476.958 780.815 478.258 781.364 479.696C781.913 481.134 782.141 482.675 782.03 484.21V484.26Z" fill="black"/>
<path d="M494.74 552.53V551.69L670.36 549.78L777.36 548.78H777.66V548.61L778.66 535.17L779.09 529.17L780.73 506.56L782.02 488.66V488.22C782.08 487.395 782.043 486.566 781.91 485.75C781.916 485.717 781.916 485.683 781.91 485.65C781.635 483.962 780.948 482.368 779.91 481.01C778.809 479.598 777.366 478.49 775.718 477.79C774.07 477.09 772.271 476.822 770.49 477.01C758.38 478.25 746.15 479.24 733.91 480.01C732.24 480.13 730.57 480.23 728.91 480.32C649.97 485.01 571.74 481.21 529.41 478.32L526.41 478.1C519.08 477.58 512.95 477.1 508.23 476.69C505.633 476.471 503.048 477.221 500.972 478.797C498.896 480.372 497.478 482.66 496.99 485.22C496.889 485.761 496.829 486.31 496.81 486.86L496.13 509.02L495.2 537.09L494.76 551.45V551.73V552.57L494.74 552.53Z" fill="#3F3D56"/>
<path opacity="0.1" d="M782.33 491.27L781.1 506.6L779.27 529.45L778.81 535.17L777.81 547.98L777.75 548.62V548.79L777.6 550.27L777.71 548.79H777.42L670.42 549.79L494.77 551.69V551.41L495.26 537.05L496.26 508.99L496.9 490.34C496.931 489.279 497.228 488.243 497.762 487.326C498.297 486.409 499.052 485.64 499.96 485.09C501.092 484.396 502.416 484.081 503.74 484.19C505.84 484.36 508.42 484.56 511.43 484.78C516.32 485.14 522.35 485.56 529.37 486C542.37 486.82 558.68 487.7 577.37 488.42C629.37 490.42 699.57 491.09 766.25 485.25C769.25 484.99 772.35 484.7 775.38 484.41C776.579 484.29 777.788 484.52 778.86 485.07C779.164 485.221 779.452 485.402 779.72 485.61C780.591 486.241 781.28 487.089 781.72 488.07C781.822 488.265 781.906 488.469 781.97 488.68C782.27 489.509 782.393 490.391 782.33 491.27V491.27Z" fill="black"/>
<path opacity="0.1" d="M443.1 504.96V508.15C443.1 509.31 442.772 510.446 442.152 511.427C441.533 512.408 440.648 513.192 439.6 513.69L399.5 514.46C398.434 513.971 397.53 513.186 396.897 512.199C396.265 511.211 395.929 510.063 395.93 508.89V505.89L443.1 504.96Z" fill="black"/>
<path d="M443.6 515.57L391.35 516.57V507.9L443.6 506.9V515.57Z" fill="#3F3D56"/>
<path opacity="0.1" d="M443.6 515.57L391.35 516.57V507.9L443.6 506.9V515.57Z" fill="black"/>
<path d="M445.6 515.57L393.35 516.57V507.9L445.6 506.9V515.57Z" fill="#3F3D56"/>
<g opacity="0.1">
<path opacity="0.1" d="M618.59 188.65C617.613 187.381 616.964 185.89 616.7 184.31C616.459 185.855 616.603 187.435 617.12 188.91C617.616 188.864 618.108 188.777 618.59 188.65Z" fill="black"/>
<path opacity="0.1" d="M605.89 195.29C605.701 194.064 605.578 192.829 605.52 191.59C605.52 192.82 605.52 194.06 605.52 195.3L605.89 195.29Z" fill="black"/>
<path opacity="0.1" d="M687.39 228.66C687.445 227.769 687.566 226.883 687.75 226.01C688.223 224.489 688.492 222.912 688.55 221.32C688.527 220.963 688.474 220.608 688.39 220.26C688.22 221.18 687.95 222.1 687.75 223.01C687.35 224.865 687.229 226.769 687.39 228.66Z" fill="black"/>
<path opacity="0.1" d="M666.59 197.76L667.68 198.55C668.599 197.885 669.459 197.143 670.25 196.33C670.626 195.81 670.859 195.2 670.926 194.561C670.993 193.922 670.891 193.277 670.63 192.69C670.53 192.918 670.403 193.133 670.25 193.33C669.02 194.91 666.3 195.78 666.59 197.76Z" fill="black"/>
<path opacity="0.1" d="M584.42 207.38C584.055 208.109 583.764 208.873 583.55 209.66C585.114 208.787 586.799 208.15 588.55 207.77L584.42 207.38Z" fill="black"/>
<path opacity="0.1" d="M598.21 196.5C597.553 196.138 596.925 195.727 596.33 195.27C596.305 195.666 596.335 196.063 596.42 196.45C597.017 196.422 597.615 196.438 598.21 196.5V196.5Z" fill="black"/>
<path opacity="0.1" d="M695.98 255.42C695.57 260.27 693.31 264.94 691.48 269.54C687.81 278.76 685.74 288.54 684.19 298.35C682.8 307.14 681.19 317.12 673.69 321.99C671.547 323.27 669.253 324.278 666.86 324.99C656.08 328.72 645.21 332.46 633.86 333.82C622.51 335.18 610.6 333.99 600.7 328.33C597.83 326.832 595.366 324.66 593.52 322C590.85 317.77 590.8 312.47 589.52 307.63C588.429 304.036 587.092 300.521 585.52 297.11C583.31 291.73 581.61 286.11 579.92 280.58C578.353 275.44 576.79 270.297 575.23 265.15C574.716 263.602 574.335 262.013 574.09 260.4C573.7 262.96 574.46 265.64 575.23 268.15C576.79 273.303 578.353 278.447 579.92 283.58C581.61 289.15 583.31 294.73 585.52 300.11C587.092 303.521 588.429 307.036 589.52 310.63C590.78 315.47 590.83 320.77 593.52 325C595.366 327.66 597.83 329.832 600.7 331.33C610.6 336.99 622.54 338.18 633.86 336.82C645.18 335.46 656.04 331.72 666.86 327.99C669.253 327.278 671.547 326.27 673.69 324.99C681.14 320.12 682.8 310.14 684.19 301.35C685.74 291.54 687.81 281.76 691.48 272.54C693.66 267.06 696.48 261.49 696 255.6C696 255.54 695.98 255.48 695.98 255.42Z" fill="black"/>
<path opacity="0.1" d="M576.29 251.55C576.29 251.55 576.29 251.48 576.29 251.44C576.47 249.677 576.314 247.895 575.83 246.19C575.63 245.093 575.5 243.984 575.44 242.87C575.325 244.985 575.456 247.106 575.83 249.19C575.99 249.97 576.17 250.76 576.29 251.55Z" fill="black"/>
<path opacity="0.1" d="M579.34 227.09C580.109 225.798 580.982 224.571 581.95 223.42C580.12 225.17 576.74 223.61 576.03 221.18C575.768 222.163 575.768 223.197 576.03 224.18C576.276 224.914 576.712 225.569 577.293 226.081C577.875 226.592 578.581 226.94 579.34 227.09V227.09Z" fill="black"/>
</g>
<path opacity="0.1" d="M829.1 483.66C829.1 483.66 832.27 495.16 829.1 505.16C825.93 515.16 829.1 483.66 829.1 483.66Z" fill="black"/>
<path opacity="0.1" d="M842.6 495.39C842.6 495.39 843.93 509.99 840.93 512.58C837.93 515.17 842.6 495.39 842.6 495.39Z" fill="black"/>
<path d="M343.99 342.86L445.6 341.86" stroke="#6C63FF" stroke-width="2" stroke-miterlimit="10"/>
<path d="M343.99 355.33L445.6 354.34" stroke="#6C63FF" stroke-width="2" stroke-miterlimit="10"/>
<path d="M343.99 367.81L445.6 366.81" stroke="#6C63FF" stroke-width="2" stroke-miterlimit="10"/>
</g>
<defs>
<clipPath id="clip0">
<rect width="1302" height="554" fill="white"/>
</clipPath>
</defs>
</svg>
