<svg width="1231" height="582" viewBox="0 0 1231 582" fill="none" xmlns="http://www.w3.org/2000/svg">
<path d="M947.811 74.0864C947.587 73.8985 947.386 73.6999 947.17 73.5011L947.226 72.7686C947.091 72.5611 946.946 72.3491 946.818 72.1373C946.792 71.9097 946.758 71.6834 946.745 71.4595C946.744 71.231 946.765 71.0034 946.808 70.7785C946.816 70.5588 946.81 70.3385 946.79 70.1185L946.731 69.4691L946.467 68.8361L946.456 68.187L946.379 67.5411C946.273 67.3251 946.16 67.1105 946.061 66.8931L946.121 66.2374L946.576 65.5892L946.577 64.9381C946.579 64.7208 946.6 64.503 946.618 64.2858C946.531 64.0629 946.462 63.8363 946.413 63.6077C946.451 63.39 946.476 63.1715 946.538 62.9648L946.798 62.3216L946.808 61.6379L947.508 61.0996C947.523 60.8767 947.568 60.6576 947.604 60.434C947.733 60.2366 947.889 60.0467 948.037 59.8581C948.064 59.6315 948.109 59.407 948.171 59.1856C948.323 58.9963 948.467 58.8055 948.639 58.628C948.79 58.4374 948.974 58.2637 949.186 58.1117C949.297 58.0293 949.313 57.8961 949.452 57.827C949.447 57.8007 949.43 57.7763 949.403 57.7585C949.205 57.4542 949.439 57.5785 949.469 57.5635C949.635 57.4869 949.811 57.4224 949.993 57.3707C950.244 57.2338 950.511 57.1131 950.789 57.0099C951.028 56.796 951.299 56.6045 951.597 56.4392C952.009 56.4309 952.423 56.4585 952.83 56.5215C953.28 56.4143 953.756 56.379 954.232 56.4177C954.666 56.6109 955.045 56.8703 955.345 57.1792C955.797 57.3275 956.217 57.5319 956.586 57.7838C956.753 58.0786 956.872 58.3865 956.942 58.7007C957.037 58.9609 957.11 59.225 957.159 59.4912C957.201 59.7407 957.229 59.9836 957.247 60.2003L957.477 60.8366L957.012 61.5021L957.725 62.1206L957.372 62.7747L957.273 63.4128L957.504 64.052L957.53 64.6889L957.762 65.331L957.498 65.9655L957.325 66.5957L957.697 67.2368L957.41 67.8632L957.743 68.5054L957.231 69.1206L957.673 69.7644L957.359 70.3833L957.946 71.0312L957.231 71.6375L957.403 72.2813L957.9 72.9553L957.41 73.5851L957.448 74.2568L957.708 74.9774C957.456 75.1802 957.19 75.3722 956.91 75.5526C956.875 75.779 956.839 75.9996 956.788 76.2353C956.784 76.5185 956.744 76.7998 956.67 77.0753C956.405 77.3698 956.079 77.6287 955.704 77.8425C955.482 78.1733 955.161 78.4574 954.766 78.6729C954.322 78.8184 953.836 78.8796 953.346 78.8513L953.291 78.8305C952.846 78.6501 952.457 78.3952 952.155 78.0855C951.686 78.0853 951.11 77.9344 950.743 77.9372C950.517 77.734 950.327 77.5087 950.111 77.3005C949.896 77.0924 949.615 76.9489 949.383 76.7594C949.309 76.4871 949.256 76.2125 949.222 75.9368C948.891 75.8028 948.57 75.6551 948.26 75.4944C948.247 75.2242 948.252 74.9542 948.276 74.6855C948.13 74.4956 947.976 74.2916 947.811 74.0864Z" fill="#102B4C"/>
<path d="M959.269 107.495C959.269 107.495 959.159 106.725 959.095 105.959C959.03 105.192 958.983 104.429 958.983 104.429L958.533 103.518L958.187 102.794C958.124 102.62 957.465 101.75 960.325 101.485L960.317 101.465L960.102 101.467C959.676 101.465 959.245 101.461 958.89 101.443C958.16 101.398 957.93 101.273 957.893 101.137C957.752 100.383 957.683 99.6237 957.69 98.8659L957.202 95.9307L956.948 93.0083C956.651 92.0528 956.339 91.1041 956.012 90.1623C955.684 89.2217 955.235 88.2352 954.867 87.274C954.792 86.2775 954.739 85.2831 954.707 84.2908L953.83 81.3533C953.818 80.3575 953.822 79.3638 953.843 78.3722C953.775 77.3837 953.713 76.3938 953.669 75.4041C953.524 74.4171 953.388 73.4288 953.278 72.4386C953.459 71.4506 953.66 70.465 953.869 69.481L953.322 66.5012L952.945 63.53C953.1 62.4581 953.358 61.3994 953.717 60.3624C953.711 59.237 953.843 58.1177 954.113 57.0193C954.652 55.9394 955.359 54.9171 956.22 53.974C957.129 53.0248 958.221 52.1891 959.462 51.4941C960.484 50.6003 961.661 49.819 962.964 49.1705C964.405 48.8833 965.886 48.7137 967.385 48.6644C968.77 48.5893 970.163 48.5795 971.556 48.635C972.84 48.2832 974.125 47.9778 975.414 47.681L979.249 47.4751L983.14 48.2568L986.874 47.2823L990.741 47.8857C992.006 47.8256 993.279 47.7519 994.625 47.7171C996.014 47.6572 997.409 47.6709 998.802 47.758C1000.36 47.7088 1001.93 47.8267 1003.47 48.1085C1005.06 48.5683 1006.55 49.2259 1007.87 50.0539C1008.84 51.0412 1009.62 52.1232 1010.19 53.2675C1010.97 54.179 1011.66 55.1339 1012.25 56.1233C1013.3 56.9161 1014.3 57.7434 1015.24 58.5687C1015.38 59.6316 1015.57 60.6769 1015.63 61.7226C1016.11 62.6737 1016.61 63.6201 1017.01 64.5859C1017.74 65.4841 1018.47 66.391 1019.16 67.3178L1019.27 68.8687L1019.31 70.4111C1019.42 71.4253 1019.47 72.439 1019.52 73.449C1020.26 74.3734 1020.92 75.3138 1021.62 76.2603C1021.46 77.2954 1021.22 78.3242 1021.02 79.3402L1022.35 82.2539L1022.02 85.2599C1022.46 86.2311 1022.93 87.2083 1023.36 88.1867C1023.04 89.1871 1022.71 90.1832 1022.36 91.1751C1022.67 92.1539 1022.97 93.1334 1023.24 94.1119L1022.71 97.0598C1023.06 98.039 1023.34 99.0139 1023.62 99.9904C1023.36 100.968 1023.3 101.954 1022.78 102.936C1022.51 103.915 1022.24 104.912 1021.95 105.894L1021.93 106.08L1021.94 106.101L1021.88 106.11L1021.9 106.154L1021.91 106.248L1021.96 106.622L1022.06 107.376C1022.12 107.88 1022.17 108.387 1022.21 108.899C1022.11 109.909 1021.95 110.913 1021.73 111.907C1021.61 112.422 1021.45 112.929 1021.24 113.423C1021.05 113.95 1020.79 114.458 1020.46 114.94L1019.9 115.613C1019.71 115.83 1019.47 116.022 1019.25 116.223L1018.59 116.816C1018.36 116.999 1018.11 117.169 1017.87 117.346L1017.26 117.942C1017.05 118.133 1016.82 118.309 1016.6 118.495C1016.16 118.868 1015.7 119.222 1015.22 119.556C1014.35 120.311 1013.43 121.029 1012.46 121.708L1010.88 122.586L1009.24 123.402C1008 123.75 1006.76 124.077 1005.51 124.347C1004.98 124.63 1004.42 124.882 1003.87 125.145C1003.32 125.407 1002.76 125.659 1002.19 125.907C1001.57 126.05 1000.94 126.182 1000.3 126.293C999.662 126.405 999.032 126.527 998.386 126.625C997.785 126.81 997.178 126.981 996.566 127.138C995.955 127.309 995.31 127.444 994.668 127.587C992.024 127.853 989.348 127.952 986.666 127.881C985.996 127.856 985.321 127.819 984.655 127.762C983.989 127.705 983.312 127.632 982.645 127.538C981.272 127.452 979.906 127.29 978.556 127.053C977.219 126.705 975.917 126.274 974.665 125.763L973.739 125.351C973.435 125.209 973.143 125.046 972.845 124.897C972.246 124.589 971.671 124.254 971.123 123.894C970.153 123.078 969.295 122.189 968.561 121.243C967.614 120.46 966.743 119.626 965.955 118.748C965.092 117.913 964.295 117.04 963.541 116.163C962.987 115.217 962.489 114.274 962.013 113.345C961.603 112.42 961.154 111.39 960.82 110.398C960.238 109.45 959.72 108.481 959.269 107.495V107.495Z" fill="#E68688"/>
<path d="M952.217 91.9446C952.762 91.6672 953.103 91.5019 953.312 91.4138C953.843 91.1732 953.585 91.3819 953.602 91.4067C953.686 91.5047 953.76 91.607 953.825 91.7127C953.999 91.8233 954.182 91.9251 954.372 92.0177C954.66 91.9956 954.941 91.9438 955.207 91.8636C955.336 92.0304 955.492 92.1849 955.67 92.3237C955.935 92.2447 956.192 92.1526 956.44 92.0481C956.662 92.192 956.896 92.3239 957.14 92.4427C957.398 92.2668 957.641 92.0781 957.867 91.8778C958.126 91.9243 958.388 91.9607 958.652 91.987C958.911 91.9732 959.182 91.9449 959.456 91.916C959.73 91.887 960.016 91.856 960.302 91.8156L961.104 91.5063L962.239 91.9167C962.427 91.6154 962.603 91.3134 962.757 91.009C963.105 91.0842 963.453 91.1594 963.801 91.2224C964.1 91.1951 964.392 91.1598 964.686 91.1209C964.897 90.961 965.103 90.799 965.288 90.6346C965.526 90.538 965.764 90.4415 965.981 90.3331C966.138 90.1617 966.279 89.9824 966.405 89.7962C966.684 89.7695 966.958 89.7282 967.241 89.6791C967.495 89.6212 967.733 89.5322 967.947 89.4154C967.968 89.1864 967.965 88.9558 967.939 88.7258C968.193 88.6351 968.438 88.5298 968.671 88.4108C968.634 88.1758 968.588 87.9488 968.525 87.7186C968.858 87.6062 969.181 87.4772 969.492 87.3324C969.358 87.0721 969.215 86.8225 969.061 86.5721C969.269 86.3941 969.463 86.1878 969.656 86.0003C969.416 85.7348 969.16 85.4719 968.91 85.2237C969.292 85.0261 969.637 84.8819 970.004 84.69C969.935 84.4801 969.844 84.274 969.734 84.0736C969.484 83.8817 969.209 83.7111 968.912 83.5651C969.099 83.372 969.264 83.1664 969.404 82.9505C969.296 82.7839 969.172 82.6233 969.034 82.4702C968.791 82.3628 968.54 82.2683 968.282 82.1875C968.447 81.9221 968.576 81.6439 968.667 81.3569C968.485 81.2199 968.291 81.0921 968.088 80.9741C967.834 80.9028 967.574 80.8472 967.31 80.8078C967.191 80.6118 967.048 80.4243 966.883 80.2481C966.582 80.2457 966.281 80.2598 965.984 80.2901C965.761 80.2043 965.494 80.1761 965.26 80.0952C965.098 79.8309 964.912 79.5752 964.703 79.3302C964.364 79.5013 964.034 79.6986 963.719 79.8807C963.474 79.768 963.212 79.6644 962.952 79.5667C962.685 79.5602 962.426 79.5647 962.128 79.5731C961.844 79.3869 961.535 79.2084 961.225 79.0364L960.327 79.5369C960.011 79.3721 959.687 79.2087 959.352 79.0597L958.444 79.2523C958.153 79.3803 957.865 79.5141 957.584 79.6466C957.266 79.565 956.945 79.4879 956.622 79.415C956.336 79.5112 956.054 79.6067 955.782 79.7096C955.478 79.7129 955.186 79.7236 954.889 79.735C954.592 79.7464 954.275 79.6996 953.972 79.6935C953.685 79.7026 953.401 79.7383 953.128 79.7997C952.867 79.8553 952.612 79.9232 952.363 80.0029C952.181 80.1327 952.018 80.2781 951.879 80.4365C951.711 80.503 951.553 80.5821 951.406 80.6724C951.33 80.7455 951.275 80.8306 951.244 80.9224C951.328 81.0166 951.447 81.0898 951.585 81.1323C951.556 81.3081 951.541 81.6114 951.517 81.8423L950.915 82.5733L950.986 83.3134L951.046 84.0461L951.522 84.7641L951.596 85.4789C951.571 85.7191 951.553 85.958 951.54 86.1991L951.938 86.8788C951.748 87.1308 951.53 87.3941 951.346 87.6606C951.488 87.8855 951.628 88.1076 951.772 88.3289C951.756 88.5736 951.763 88.8141 951.764 89.0618L952.337 89.6846L952.437 90.3945C952.473 90.6095 952.529 90.8229 952.604 91.0332C952.657 91.1814 952.954 91.2164 952.72 91.4984C952.704 91.5291 952.832 91.6265 952.217 91.9446Z" fill="#96CCED"/>
<path d="M952.02 92.0468L952.132 91.9881L952.02 92.0468Z" fill="#96CCED"/>
<path d="M948.46 88.8165C948.438 88.5448 948.427 88.2709 948.43 88.0008C948.247 87.7494 948.084 87.4975 947.922 87.239C947.952 86.967 947.974 86.6962 948.028 86.4229C948.004 86.1576 947.985 85.8945 947.975 85.633L947.749 84.8533L948.147 84.067L947.733 83.3003L947.455 82.5303L947.729 81.7698L947.5 81.3906L947.387 81.2007C947.334 81.1285 947.298 81.0503 947.28 80.9695C947.309 80.5161 947.453 80.0747 947.704 79.6699C947.96 79.3072 948.297 78.9837 948.702 78.7139C948.909 78.3642 949.161 78.0322 949.454 77.7226C949.889 77.6263 950.338 77.5663 950.793 77.5436C951.195 77.5028 951.6 77.4838 952.008 77.4868C952.276 77.242 952.558 77.0132 952.852 76.7823C953.218 76.6868 953.545 76.6047 953.891 76.5285C954.305 76.6535 954.706 76.7871 955.097 76.9257C955.388 76.6985 955.686 76.4821 955.997 76.2666C956.375 76.3798 956.751 76.4994 957.117 76.6241L958.131 76.5113L959.147 76.3949L960.154 76.0075L961.202 75.9102C961.562 76.0855 961.912 76.2658 962.262 76.4584C962.609 76.4872 962.986 76.52 963.348 76.5678C963.74 76.3558 964.161 76.1325 964.603 75.9362C964.949 76.1791 965.278 76.4361 965.587 76.7061C965.964 76.7729 966.345 76.8172 966.719 76.9093C967.179 76.825 967.648 76.7694 968.123 76.7432C968.42 77.019 968.694 77.3092 968.942 77.6117C969.22 77.8676 969.471 78.1394 969.693 78.4246C970.234 78.4062 970.779 78.427 971.319 78.487C971.437 78.8737 971.514 79.266 971.547 79.66C971.971 79.8261 972.383 80.0121 972.779 80.2167C972.849 80.5653 972.889 80.9163 972.898 81.2672C973.306 81.4949 973.692 81.746 974.051 82.0182C973.9 82.3899 973.701 82.7476 973.455 83.086C973.715 83.3692 973.948 83.666 974.153 83.9738C974.006 84.2941 973.822 84.6028 973.604 84.8965C973.834 85.2011 974.066 85.5427 974.269 85.8275C974.052 86.0815 973.833 86.3296 973.604 86.5704C973.516 86.8376 973.424 87.1056 973.315 87.3705C973.53 87.7049 973.722 88.0471 973.89 88.3957C973.769 88.6816 973.636 88.9666 973.478 89.2529C973.299 89.5353 973.086 89.8038 972.842 90.0553C972.408 90.2325 971.957 90.3862 971.493 90.5152C971.312 90.7828 971.111 91.0414 970.891 91.2897C970.822 91.643 970.723 91.9916 970.594 92.3332C970.332 92.5737 970.061 92.8098 969.771 93.0306C969.27 93.0296 968.767 93.0033 968.267 92.9518C968.09 93.2604 967.893 93.5572 967.677 93.8575C967.25 93.8649 966.83 93.8557 966.419 93.8387C966.137 94.024 965.85 94.2071 965.559 94.3786C965.171 94.4131 964.822 94.4342 964.458 94.4487L963.467 94.6811L962.502 94.9399C962.226 95.1397 961.942 95.3533 961.639 95.5363C961.296 95.6182 960.948 95.698 960.585 95.7711C960.215 95.8339 959.838 95.8735 959.457 95.8895C959.033 95.7355 958.621 95.5728 958.219 95.3928C957.84 95.4904 957.453 95.5721 957.061 95.6377C956.645 95.7817 956.216 95.9024 955.776 95.9989C955.338 95.9149 954.906 95.8081 954.485 95.6792C954.067 95.5007 953.667 95.2966 953.29 95.0692C952.811 94.9858 952.343 94.8645 951.892 94.7074C951.756 94.5284 951.632 94.3444 951.521 94.1561C951.363 93.8752 951.243 93.5874 951.243 93.5874C951.101 93.5433 950.964 93.4886 950.835 93.4241L950.548 93.2631C950.47 93.2343 950.004 93.0538 952.017 92.0343L952.128 91.9765L952.016 92.0314L951.919 92.074C951.729 92.1587 951.539 92.2434 951.381 92.3036C951.029 92.4399 950.916 92.4484 950.873 92.4191C950.674 92.2423 950.527 92.0356 950.442 91.8137C950.249 91.5587 950.076 91.2956 949.924 91.0258C949.819 90.7353 949.754 90.4994 949.675 90.2351L949.104 89.5221L948.46 88.8165ZM953.602 91.41C953.686 91.508 953.76 91.6102 953.825 91.716C953.999 91.8265 954.182 91.9284 954.372 92.0209C954.66 91.9989 954.94 91.9471 955.207 91.8669C955.336 92.0336 955.492 92.1881 955.67 92.3269C955.935 92.2479 956.192 92.1559 956.44 92.0514C956.662 92.1953 956.896 92.3271 957.14 92.446C957.398 92.2701 957.641 92.0814 957.866 91.8811C958.126 91.9275 958.388 91.964 958.652 91.9903C958.911 91.9764 959.182 91.9482 959.456 91.9192C959.73 91.8903 960.016 91.8593 960.302 91.8189L961.104 91.5095L962.239 91.9199C962.427 91.6187 962.602 91.3166 962.757 91.0122C963.105 91.0875 963.453 91.1627 963.801 91.2256C964.099 91.1983 964.391 91.163 964.686 91.1241C964.897 90.9643 965.103 90.8023 965.288 90.6379C965.526 90.5413 965.764 90.4447 965.981 90.3364C966.138 90.165 966.279 89.9856 966.405 89.7995C966.684 89.7727 966.957 89.7315 967.24 89.6823C967.494 89.6245 967.733 89.5354 967.947 89.4186C967.968 89.1896 967.965 88.959 967.938 88.729C968.193 88.6383 968.438 88.533 968.671 88.414C968.634 88.1791 968.588 87.952 968.525 87.7219C968.858 87.6094 969.181 87.4804 969.492 87.3357C969.358 87.0753 969.215 86.8257 969.061 86.5753C969.269 86.3974 969.463 86.1911 969.656 86.0036C969.416 85.738 969.16 85.4752 968.91 85.2269C969.292 85.0294 969.637 84.8851 970.004 84.6932C969.935 84.4833 969.844 84.2772 969.733 84.0769C969.484 83.8849 969.209 83.7143 968.912 83.5683C969.099 83.3753 969.264 83.1697 969.404 82.9537C969.296 82.7871 969.172 82.6266 969.034 82.4734C968.791 82.366 968.54 82.2716 968.282 82.1907C968.447 81.9254 968.576 81.6472 968.667 81.3601C968.485 81.2232 968.291 81.0953 968.088 80.9774C967.834 80.9061 967.574 80.8504 967.31 80.8111C967.191 80.615 967.048 80.4275 966.883 80.2514C966.582 80.249 966.281 80.263 965.984 80.2934C965.761 80.2075 965.494 80.1793 965.26 80.0985C965.098 79.8342 964.912 79.5785 964.703 79.3335C964.364 79.5046 964.034 79.7018 963.719 79.884C963.474 79.7712 963.212 79.6677 962.952 79.57C962.685 79.5635 962.426 79.5679 962.128 79.5764C961.844 79.3901 961.535 79.2116 961.224 79.0396L960.327 79.5401C960.01 79.3753 959.687 79.2119 959.352 79.0629L958.443 79.2555C958.153 79.3836 957.864 79.5174 957.584 79.6498C957.265 79.5683 956.945 79.4911 956.622 79.4183C956.336 79.5145 956.053 79.61 955.782 79.7128C955.478 79.7162 955.185 79.7269 954.889 79.7382C954.592 79.7496 954.275 79.7029 953.972 79.6968C953.685 79.7059 953.401 79.7415 953.128 79.803C952.867 79.8586 952.612 79.9264 952.363 80.0061C952.181 80.1359 952.018 80.2813 951.878 80.4397C951.711 80.5063 951.553 80.5853 951.406 80.6756C951.33 80.7487 951.274 80.8339 951.244 80.9257C951.328 81.0198 951.447 81.0931 951.585 81.1355C951.556 81.3113 951.541 81.6147 951.516 81.8455L950.915 82.5766L950.986 83.3166L951.046 84.0494L951.522 84.7674L951.596 85.4821C951.57 85.7224 951.553 85.9613 951.539 86.2023L951.937 86.882C951.748 87.134 951.53 87.3973 951.346 87.6638C951.487 87.8888 951.628 88.1108 951.772 88.3322C951.756 88.5769 951.763 88.8174 951.764 89.0651L952.338 89.6875L952.438 90.3974C952.475 90.6125 952.53 90.8259 952.605 91.0362C952.658 91.1843 952.956 91.2193 952.721 91.5014C952.682 91.5489 952.809 91.6462 952.196 91.9672C952.741 91.6898 953.082 91.5246 953.291 91.4364C953.844 91.1762 953.586 91.382 953.602 91.41Z" fill="#1B557A"/>
<path d="M969.851 96.7012C969.911 96.501 969.993 96.3061 970.067 96.122C970.133 95.9922 970.193 95.9253 970.255 95.8208L970.184 95.214L970.374 94.6303L970.652 94.0582L970.842 93.4745L970.979 92.8882L970.938 92.2758L971.096 91.6919L971.19 91.098L971.087 90.4786L971.276 89.892L971.742 89.3504L971.837 88.7594L971.944 88.1692L971.844 87.5492L971.973 86.9613L972.179 86.3995L972.168 85.7816L972.704 85.2579L972.714 84.6518L972.977 84.0824L972.948 83.468L973.175 82.8991L973.398 82.3279C973.45 82.1944 973.33 82.0304 973.578 81.9289C973.604 81.8958 973.643 81.8697 973.69 81.854C973.736 81.8383 973.788 81.8335 973.839 81.8404C973.931 81.7057 974.029 81.579 974.029 81.579C974.187 81.3155 974.404 81.077 974.673 80.8744C974.868 80.6019 975.127 80.3599 975.437 80.1599C975.845 80.089 976.269 80.0779 976.688 80.1273C977.128 80.0299 977.595 80.0148 978.052 80.0832C978.417 80.2649 978.735 80.4976 978.989 80.7687C979.371 80.8934 979.734 81.0535 980.068 81.2453C980.228 81.4861 980.36 81.7366 980.462 81.9938C980.59 82.2244 980.694 82.4469 980.784 82.6627L981.007 83.2787L981.345 83.8362L981.123 84.4972L981.885 84.9763L981.764 85.6185L981.862 86.2204L982.241 86.7703L982.451 87.3514L982.838 87.9L982.8 88.5269L982.829 89.1413L983.321 89.6704L983.261 90.3015L983.723 90.8361L983.466 91.5033L984.018 92.043L983.924 92.6803L984.647 93.2598L984.192 93.9326L984.346 94.2142C984.382 94.2805 984.413 94.3482 984.439 94.417L984.531 94.6698C984.773 95.0064 985.023 95.4002 985.293 95.8464C985.269 96.0181 985.242 96.1782 985.21 96.3267L985.198 96.3816L985.1 96.3996L984.875 96.4101L984.443 96.4248L983.198 96.7725L982.584 97.0378C982.439 97.1141 982.36 97.1721 982.255 97.2379L981.332 96.9683L980.605 97.1768L979.921 97.5016L979.117 97.498L978.456 97.8867L977.724 98.0807L976.836 97.8975C976.653 98.1017 976.463 98.3074 976.256 98.5128L975.412 98.5509C975.148 98.6183 974.871 98.6849 974.591 98.7428C974.27 98.675 973.954 98.6 973.648 98.5172C973.577 98.5546 973.504 98.5888 973.428 98.6197C973.321 98.6579 973.203 98.686 973.087 98.7198C972.839 98.7883 972.584 98.8436 972.325 98.8853C971.907 98.7736 971.531 98.5784 971.239 98.3203C970.856 98.1821 970.541 97.9509 970.344 97.6641C970.076 97.3777 969.906 97.0461 969.851 96.7012V96.7012Z" fill="#102B4C"/>
<path d="M1003.61 75.9014L1003.55 75.9922L1004.37 75.8931C1004.14 75.855 1003.91 75.8169 1003.68 75.7854L1003.61 75.9014Z" fill="#96CCED"/>
<path d="M1003.55 75.9922C1003.39 76.2573 1003.26 76.4786 1003.16 76.6624C1003.41 76.7436 1003.68 76.7892 1003.96 76.797C1004.01 76.788 1004.08 76.7155 1004.19 76.4441C1004.2 76.4174 1004.21 76.3849 1004.22 76.3546C1004.02 76.2097 1003.79 76.0876 1003.55 75.9922V75.9922Z" fill="#96CCED"/>
<path d="M981.361 80.5879L981.648 81.3811C981.744 81.6455 981.872 81.9008 981.994 82.1603C982.236 82.3977 982.487 82.6271 982.745 82.8523L983.188 83.5888L982.904 84.5122C983.017 84.7702 983.128 85.0319 983.252 85.2849C983.694 85.441 984.146 85.58 984.605 85.7014C984.525 86.0014 984.448 86.31 984.392 86.621C984.58 86.8311 984.778 87.0333 984.983 87.2248C985.36 87.3213 985.744 87.3985 986.133 87.4557C986.152 87.7219 986.193 87.9877 986.256 88.2512C986.357 88.4951 986.483 88.733 986.634 88.9626C987.071 88.9144 987.5 88.8352 987.916 88.7259C988.008 89.0358 988.134 89.3402 988.293 89.6358C988.657 89.6025 989.02 89.5511 989.372 89.4924C989.601 89.6949 989.853 89.9026 990.125 90.1003C990.485 89.9874 990.871 89.8572 991.233 89.716C991.486 89.9947 991.773 90.2672 992.071 90.5376C992.437 90.442 992.8 90.3349 993.16 90.2219C993.486 90.3817 993.818 90.5466 994.164 90.7029L995.246 90.1931L996.28 90.6222C996.624 90.6547 996.967 90.6813 997.302 90.7C997.618 90.4803 997.917 90.2462 998.196 89.9988C998.503 89.9948 998.801 89.9769 999.09 89.9546C999.379 89.9323 999.681 89.9601 999.97 89.9501C1000.33 90.1149 1000.7 90.2607 1001.08 90.3864C1001.34 90.2799 1001.6 90.161 1001.84 90.0303C1001.98 89.7816 1002.08 89.5205 1002.14 89.252C1002.31 89.1173 1002.46 88.9704 1002.59 88.813C1002.98 88.8705 1003.38 88.8891 1003.78 88.8683C1003.74 88.6114 1003.65 88.3591 1003.51 88.1187C1003.8 88.0215 1004.06 87.8934 1004.3 87.7382C1004.27 87.5106 1004.22 87.2755 1004.16 87.0324C1004.29 86.8183 1004.42 86.5811 1004.54 86.3409C1004.57 86.0847 1004.59 85.8118 1004.61 85.5418L1004.57 84.7281L1004.01 83.9001L1003.89 83.1016L1003.84 82.3023C1004.06 82.026 1004.28 81.7474 1004.48 81.4622L1004.02 80.6756C1003.76 80.4128 1003.51 80.1746 1003.25 79.9342L1003.18 79.1471C1003.22 78.9012 1003.25 78.6689 1003.27 78.4489C1003.12 78.2925 1002.93 78.1542 1002.72 78.0388C1002.72 78.0388 1002.81 77.8925 1002.88 77.7519C1002.93 77.6562 1002.98 77.5581 1003.01 77.4581L1002.82 77.4935C1002.79 77.4956 1002.75 77.5022 1002.72 77.513C1002.72 77.513 1002.65 77.5588 1002.75 77.3851L1003.02 76.9078L1003.16 76.6561C1002.81 76.6127 1002.45 76.5866 1002.09 76.5627C1001.73 76.5144 1001.38 76.4523 1001.03 76.3767L999.941 76.5128C999.565 76.5822 999.225 76.6823 998.871 76.7693C998.523 76.7034 998.169 76.6448 997.813 76.5927L996.771 76.8378L995.704 76.6815C995.347 76.6699 994.996 76.6881 994.64 76.6888C994.298 76.752 993.949 76.7977 993.614 76.8783L992.485 76.628L991.514 77.0366C991.186 77.1405 990.867 77.2675 990.546 77.3888C990.184 77.375 989.814 77.3474 989.447 77.3437L988.565 77.8661L987.548 78.0353C987.195 78.0694 986.852 78.1174 986.507 78.1718C986.242 78.3819 985.976 78.5796 985.727 78.7993L984.586 78.7807C984.207 78.7885 983.843 78.8217 983.465 78.8419C983.239 79.0943 983.027 79.3504 982.828 79.6197L981.997 80.0273C981.905 79.9443 981.793 79.8761 981.667 79.8273C981.541 79.7785 981.404 79.7501 981.265 79.744C981.326 79.8369 981.412 79.9194 981.517 79.9861C981.622 80.0528 981.744 80.102 981.874 80.1306C981.767 80.1295 981.665 80.1571 981.585 80.2087C981.494 80.3286 981.419 80.4556 981.361 80.5879Z" fill="#96CCED"/>
<path d="M979.133 85.4843C979.298 85.7637 979.467 86.0425 979.656 86.333C979.726 86.6486 979.814 86.9673 979.908 87.294C980.38 87.4919 980.848 87.6782 981.311 87.85C981.287 88.2305 981.292 88.6126 981.324 88.9945C981.583 89.2818 981.864 89.557 982.167 89.8182C982.577 90.0184 983.002 90.1998 983.438 90.3616C983.677 90.6796 983.943 90.9857 984.235 91.2777C984.664 91.4345 985.108 91.5671 985.561 91.6744C985.953 91.8356 986.357 91.9806 986.768 92.1086C987.037 92.4784 987.331 92.838 987.647 93.1862C988.129 93.1872 988.601 93.1743 989.054 93.1403C989.476 93.1988 989.895 93.2485 990.308 93.2808C990.676 93.5228 991.052 93.7416 991.437 93.9649C991.886 93.8324 992.315 93.6881 992.735 93.5394C993.125 93.5106 993.537 93.4748 993.931 93.4331C994.305 93.7237 994.685 94.0099 995.069 94.2955C995.473 94.0938 995.872 93.887 996.268 93.6743C996.666 93.7992 997.075 93.922 997.496 94.0333C997.9 93.8627 998.295 93.6812 998.685 93.504C999.131 93.679 999.588 93.8345 1000.06 93.9699C1000.46 93.7964 1000.85 93.6062 1001.23 93.4094C1001.71 93.4343 1002.18 93.4363 1002.66 93.4151C1003.02 93.1647 1003.35 92.896 1003.66 92.6105C1004.11 92.5137 1004.55 92.3931 1004.98 92.2495C1005.46 92.1269 1005.92 91.9719 1006.36 91.7863C1006.64 91.4597 1006.88 91.113 1007.08 90.7506C1007.38 90.4371 1007.64 90.103 1007.86 89.7522C1007.97 89.3814 1008.04 89.0027 1008.06 88.6204C1008.25 88.3013 1008.4 87.9739 1008.54 87.6399C1008.8 87.3342 1009.04 87.0225 1009.28 86.7159C1008.99 86.3702 1008.68 86.0548 1008.37 85.7424C1008.67 85.455 1008.94 85.1675 1009.21 84.872L1009 83.9591L1009 83.0473L1008.95 82.1277L1009.02 81.2099C1008.72 80.92 1008.43 80.6366 1008.13 80.3574C1008.22 80.0489 1008.3 79.736 1008.38 79.4208L1007.65 78.574C1007.7 78.2209 1007.71 77.8648 1007.69 77.5082C1007.35 77.189 1006.97 76.8887 1006.57 76.6097C1006.31 76.2383 1005.98 75.8981 1005.58 75.6015C1005.47 75.4754 1005.35 75.3596 1005.2 75.2566C1005.05 75.1484 1004.9 75.049 1004.73 74.9594C1004.67 74.9264 1004.63 74.5864 1004.25 74.9614L1004.2 75.0102C1004.22 75.0326 1004.23 75.0557 1004.25 75.0794C1004.27 75.1346 1004.53 75.1425 1004.39 75.7071C1004.38 75.7679 1004.36 75.8279 1004.34 75.887V75.887C1004.33 75.9137 1004.32 75.9404 1004.31 75.9664L1004.18 76.337C1004.17 76.3673 1004.16 76.3998 1004.15 76.4265C1004.05 76.7096 1003.97 76.788 1003.92 76.7796C1003.65 76.7717 1003.38 76.7261 1003.12 76.6449L1002.98 76.8966L1002.71 77.3739C1002.61 77.5477 1002.66 77.5046 1002.68 77.5018C1002.71 77.491 1002.75 77.4845 1002.78 77.4824L1002.97 77.447C1002.94 77.5469 1002.89 77.645 1002.84 77.7407C1002.77 77.8814 1002.68 78.0277 1002.68 78.0277C1002.89 78.1431 1003.08 78.2813 1003.23 78.4377C1003.21 78.6578 1003.18 78.89 1003.14 79.136L1003.21 79.9231C1003.47 80.1635 1003.73 80.4103 1003.98 80.6644L1004.44 81.4511C1004.23 81.7363 1004.02 82.0148 1003.8 82.2912L1003.85 83.0905L1003.97 83.8889L1004.53 84.7169L1004.57 85.5306C1004.55 85.8006 1004.53 86.0735 1004.5 86.3297C1004.39 86.5659 1004.26 86.7968 1004.12 87.0212C1004.18 87.2643 1004.23 87.4994 1004.26 87.7271C1004.02 87.8823 1003.76 88.0104 1003.47 88.1075C1003.61 88.3479 1003.7 88.6002 1003.74 88.8572C1003.34 88.878 1002.94 88.8594 1002.55 88.8019C1002.42 88.9592 1002.27 89.1061 1002.1 89.2408C1002.04 89.5094 1001.94 89.7705 1001.8 90.0192C1001.55 90.1498 1001.3 90.2688 1001.04 90.3752C1000.66 90.2495 1000.29 90.1037 999.93 89.939C999.641 89.9489 999.35 89.9531 999.05 89.9434C998.749 89.9338 998.463 89.9836 998.155 89.9877C997.876 90.2351 997.578 90.4692 997.262 90.6888C996.926 90.6702 996.584 90.6435 996.239 90.611L995.206 90.1819L994.123 90.6918C993.778 90.5354 993.446 90.3705 993.119 90.2107C992.759 90.3237 992.397 90.4309 992.031 90.5264C991.731 90.2651 991.451 89.9907 991.192 89.7048C990.842 89.844 990.463 89.9727 990.084 90.0892C989.812 89.8915 989.561 89.6837 989.331 89.4812C988.976 89.5449 988.616 89.5928 988.252 89.6247C988.094 89.3291 987.968 89.0247 987.875 88.7148C987.46 88.824 987.031 88.9032 986.594 88.9515C986.443 88.7219 986.317 88.484 986.216 88.2401C986.153 87.9765 986.112 87.7108 986.093 87.4445C985.704 87.3873 985.32 87.3102 984.943 87.2136C984.737 87.0222 984.54 86.82 984.352 86.6099C984.405 86.2901 984.485 85.9902 984.565 85.6903C984.105 85.5689 983.654 85.4299 983.211 85.2738C983.088 85.0207 982.977 84.7591 982.864 84.501L983.148 83.5777L982.705 82.8411C982.447 82.616 982.196 82.3865 981.954 82.1492C981.832 81.8896 981.715 81.6323 981.608 81.3699C981.501 81.1076 981.417 80.8411 981.321 80.5767C981.374 80.4435 981.445 80.3153 981.531 80.1938C981.611 80.1422 981.714 80.1146 981.82 80.1157C981.69 80.0872 981.568 80.0379 981.463 79.9712C981.358 79.9046 981.272 79.822 981.211 79.7291C981.35 79.7353 981.487 79.7636 981.613 79.8124C981.74 79.8612 981.852 79.9294 981.943 80.0124L982.774 79.6048C982.974 79.3355 983.186 79.0794 983.411 78.827C983.804 78.8041 984.154 78.7736 984.532 78.7658L985.673 78.7844C985.923 78.5648 986.192 78.3786 986.453 78.1569C986.796 78.0967 987.144 78.0512 987.494 78.0205L988.512 77.8512L989.429 77.3255C989.795 77.3292 990.166 77.3568 990.527 77.3706C990.849 77.2493 991.167 77.1222 991.495 77.0184L992.466 76.6098L993.597 76.8659L994.623 76.6764C994.98 76.6757 995.33 76.6575 995.687 76.669L996.757 76.8435L997.799 76.5984C998.154 76.6505 998.508 76.7092 998.857 76.775C999.226 76.6852 999.568 76.591 999.927 76.5185L1001.02 76.3824C1001.37 76.4346 1001.72 76.5091 1002.07 76.5684C1002.42 76.6277 1002.79 76.6184 1003.15 76.6618C1003.25 76.478 1003.38 76.2566 1003.54 75.9914L1003.59 75.9006L1003.67 75.7816C1003.82 75.5128 1004.01 75.2555 1004.22 75.0126C1004.02 74.7553 1003.74 74.8624 1003.5 74.8054C1003.12 74.6981 1002.75 74.6089 1002.37 74.5181C1001.99 74.4274 1001.61 74.3201 1001.23 74.2417L1000.05 74.398C999.661 74.308 999.277 74.2303 998.892 74.1526C998.504 74.19 998.121 74.2391 997.742 74.2998C997.351 74.1054 996.953 73.8936 996.542 73.7092L995.386 73.9505C994.972 73.9153 994.597 73.9072 994.199 73.8845C993.804 73.8796 993.411 73.9065 993.026 73.9648L991.937 74.3921L990.792 74.5538C990.41 74.6057 990.041 74.6926 989.665 74.762C989.232 74.6745 988.793 74.5695 988.365 74.4936L987.221 74.6583L986.219 75.2122C985.852 75.3078 985.491 75.4179 985.132 75.5337C984.773 75.6496 984.389 75.6958 984.024 75.7972L983.06 76.313C982.697 76.4173 982.341 76.5419 981.981 76.6549C981.62 76.7679 981.25 76.8518 980.891 76.9677C980.532 77.0836 980.139 77.1065 979.707 77.2204C979.069 77.4378 978.511 77.7678 978.078 78.1843C977.777 78.659 977.655 79.1929 977.726 79.7278C977.647 79.9851 977.598 80.2482 977.581 80.514L977.497 81.0471C977.717 81.3321 977.946 81.612 978.177 81.8855C978.329 82.1736 978.487 82.4544 978.65 82.7281L978.35 83.7288C978.67 83.9798 979.004 84.228 979.342 84.4755L979.133 85.4843Z" fill="#1B557A"/>
<path d="M1003.16 76.651C1003.41 76.7322 1003.68 76.7778 1003.95 76.7857C1004 76.7766 1004.08 76.7041 1004.19 76.4326C1004.2 76.4059 1004.21 76.3734 1004.22 76.3431L1004.35 75.9725C1004.34 75.9493 1004.36 75.9198 1004.37 75.8931C1004.39 75.834 1004.41 75.774 1004.42 75.7132C1004.56 75.1486 1004.32 75.1379 1004.28 75.0855C1004.27 75.0618 1004.25 75.0387 1004.24 75.0163C1004.02 75.2592 1003.84 75.5165 1003.68 75.7854L1003.61 75.9043L1003.55 75.9951C1003.39 76.2575 1003.27 76.4788 1003.16 76.651Z" fill="#1B557A"/>
<path d="M971.262 79.3933C970.872 78.8795 971.146 79.2069 971.161 79.2136L971.355 79.3296C971.378 79.2962 971.415 79.2698 971.46 79.2544L971.249 78.7478L971.614 79.0245L971.455 78.5858L971.833 78.9003L971.615 78.2959L971.865 78.4232L972.023 78.4158L972.192 78.428L972.251 78.259L972.744 78.8562L972.471 78.1007L972.867 78.5327L973.093 78.6678L973.114 78.4159L973.253 78.3902L973.274 78.1166L973.564 78.4072L973.798 78.5996L973.761 78.1756L974.037 78.4748L974.026 78.0894L974.39 78.642L974.344 78.1361L974.608 78.4562L974.519 77.7877L974.922 78.5471L974.992 78.3326L974.96 77.7558L975.248 78.2296L975.354 78.1015L975.393 77.7006L975.716 78.4036L975.833 78.3169L975.913 78.0387L976.112 78.3119L976.179 77.9336L976.312 77.8782L976.552 78.4538L976.577 77.7021L976.75 77.8933L976.883 77.7944L977.067 78.3029L977.15 77.7357L977.334 78.2442L977.46 78.0815L977.581 77.7182L977.741 78.0606L977.876 77.856L978.021 77.9811L978.161 78.2125L978.297 78.3237L978.431 78.3733L978.576 78.1854L978.714 78.2561L978.853 78.2304L979.017 77.9398L979.15 78.0329L979.238 78.5406L979.373 78.5156L979.509 78.5153L979.698 78.2046L979.837 78.2253L979.952 78.3747L980.133 78.177L980.151 78.7935L980.331 78.6023L980.407 78.8144L980.613 78.5625L980.715 78.7111L980.816 78.8474C980.829 78.8822 980.949 78.6275 980.867 78.9869C980.836 79.2401 980.77 79.4892 980.67 79.7298L980.557 80.0607L980.374 80.6647C980.259 81.0331 980.214 81.1407 980.214 81.1407L980.169 81.0187L980.068 81.0034L980.015 80.8581L979.86 81.0603L979.69 81.3552L979.618 81.1576L979.474 81.3796L979.4 81.1762L979.313 81.1117L979.198 81.2042L979.153 80.8251L979.014 81.0955L978.894 81.2851L978.805 81.0381L978.673 81.3724L978.585 81.305L978.496 81.1696L978.38 81.5598L978.3 81.1934L978.208 80.8725L978.105 81.375L978.012 81.4387L977.903 80.8389L977.825 81.4329L977.707 80.9496L977.611 81.0075L977.518 81.0929L977.456 81.4669L977.371 81.5509L977.21 80.9854L977.102 80.9309L977.119 81.709L976.935 81.123L976.848 81.1918L976.861 81.7721L976.678 81.3223L976.511 80.9935L976.589 81.7728L976.356 81.1277L976.378 81.6009L976.181 81.2219L976.251 81.8135L975.961 81.1571L975.999 81.5935L975.78 81.2216L975.876 81.7989L975.65 81.4284L975.533 81.3818L975.697 82.0582L975.603 82.0509L975.47 81.9513L975.105 81.3277L975.052 81.4366L975.202 81.9854L975.172 82.1242L974.743 81.4472L974.926 82.0085L974.615 81.604L974.654 81.8665L974.449 81.678L974.355 81.6954L974.294 81.7688L974.454 82.2133L974.419 82.3159L974.336 82.3311L973.89 81.7937L973.995 82.0843L974.256 82.6065L974.133 82.5671L973.895 82.3754L974.037 82.6996L973.57 82.2185L973.661 82.3815L973.735 82.5074C973.74 82.5219 973.806 82.6151 973.641 82.4161L972.18 80.5907L971.262 79.3933Z" fill="#1B557A"/>
<path d="M1005.49 76.4149C1005.45 75.8619 1005.52 76.2174 1005.53 76.2305L1005.73 76.377C1005.81 76.3477 1005.91 76.3307 1006 76.327L1006.22 75.8218L1006.53 76.1575L1006.77 75.7162L1007.09 76.0852L1007.3 75.4763L1007.6 75.6511L1007.88 75.6801L1008.16 75.7273L1008.42 75.5802L1008.76 76.2261L1008.95 75.4592L1009.28 75.9442L1009.58 76.1132L1009.83 75.8718L1010.1 75.877L1010.35 75.6175L1010.66 75.9416L1010.96 76.162L1011.19 75.7416L1011.5 76.0744L1011.73 75.6967L1012.07 76.2789L1012.29 75.7765L1012.6 76.1217L1012.81 75.4642L1013.17 76.2523L1013.43 76.0472L1013.62 75.4809L1013.95 75.9717L1014.21 75.8551L1014.44 75.4593L1014.8 76.169L1015.06 76.0886L1015.31 75.8168L1015.61 76.0713L1015.85 75.6966L1016.12 75.6466L1016.45 76.2048L1016.64 75.4596L1016.94 75.6467L1017.2 75.5452L1017.53 76.0419L1017.73 75.4785L1018.06 75.9788L1018.32 75.8135L1018.55 75.4598L1018.87 75.7926L1019.12 75.5911L1019.41 75.7021L1019.71 75.9167L1019.99 76.0154L1020.27 76.0538L1020.53 75.861L1020.81 75.9147L1021.08 75.8829L1021.32 75.5995L1021.61 75.68L1021.94 76.1433L1022.21 76.118L1022.48 76.1049L1022.72 75.8092L1023 75.8172L1023.29 75.9347L1023.54 75.7455L1023.87 76.2697L1024.13 76.095L1024.42 76.2582L1024.67 76.0233C1024.76 76.0618 1024.86 76.0901 1024.96 76.1372L1025.25 76.2576C1025.31 76.2857 1025.36 76.0854 1025.45 76.3715C1025.47 76.418 1025.52 76.3597 1025.59 76.9658L1025.62 77.2369L1025.66 77.7131C1025.68 77.8407 1025.68 77.9695 1025.66 78.0963C1025.6 78.1334 1025.52 78.0611 1025.45 78.046L1025.18 78.096C1025.08 78.0748 1024.99 78.0489 1024.89 78.0184L1024.64 78.2293L1024.4 78.5221C1024.3 78.4808 1024.2 78.4402 1024.11 78.393L1023.86 78.625L1023.57 78.477L1023.29 78.4538L1023.03 78.5705L1022.72 78.2558L1022.47 78.5363L1022.22 78.7443L1021.92 78.542L1021.69 78.8957L1021.41 78.8602L1021.12 78.7521L1020.89 79.1479L1020.58 78.8151L1020.27 78.5244L1020.05 79.0267L1019.78 79.1071L1019.45 78.5489L1019.24 79.1426L1018.91 78.6851L1018.65 78.7561L1018.38 78.8546L1018.15 79.2352L1017.89 79.3214L1017.55 78.7639L1017.26 78.7138L1017.08 79.4924L1016.74 78.9073L1016.47 78.9783L1016.28 79.5533L1015.95 79.1081L1015.64 78.7811L1015.45 79.5568L1015.1 78.9144L1014.87 79.3877L1014.56 79.0063L1014.34 79.5971L1014 78.933L1013.75 79.3743L1013.44 78.9958L1013.23 79.5801L1012.91 79.1958L1012.63 79.1422L1012.43 79.8301L1012.15 79.8191L1011.86 79.7082L1011.51 79.0506L1011.25 79.152L1011.05 79.7067L1010.79 79.8357L1010.43 79.1078L1010.23 79.674L1009.91 79.2318L1009.66 79.4913L1009.36 79.2708L1009.09 79.2686L1008.82 79.3186L1008.58 79.7686L1008.32 79.8578L1008.04 79.865L1007.7 79.2799L1007.46 79.5698L1007.25 80.1012L1006.97 80.0294L1006.66 79.7908L1006.42 80.1076L1006.25 79.8295L1006.09 79.5501L1006.02 79.7147L1005.96 79.8424C1005.96 79.8424 1005.94 79.9516 1005.89 79.7376C1005.84 79.5235 1005.77 78.9927 1005.63 77.7654L1005.49 76.4149Z" fill="#1B557A"/>
<path d="M993.494 82.1169C993.806 81.9466 994.191 81.867 994.581 81.8918C994.972 81.9165 995.344 82.044 995.634 82.2525C995.924 82.461 996.115 82.7375 996.173 83.0348C996.231 83.332 996.153 83.6316 995.952 83.8822C995.76 84.1148 995.47 84.2893 995.127 84.3789C994.785 84.4684 994.409 84.468 994.058 84.3776C993.713 84.2707 993.423 84.075 993.24 83.8251C993.057 83.5753 992.993 83.2873 993.06 83.0122C993.152 82.7443 993.375 82.5172 993.684 82.3772C993.993 82.2372 994.365 82.1948 994.724 82.2586" fill="#102B4C"/>
<path d="M994.489 83.0056L994.447 83.1342L994.456 83.1017L994.463 83.0228L994.439 83.0552C994.435 83.1026 994.435 83.1502 994.438 83.1979L994.42 83.1485C994.432 83.1877 994.446 83.2265 994.462 83.2647L994.469 83.2821C994.449 83.2502 994.427 83.2192 994.403 83.1889C994.439 83.2584 994.481 83.3262 994.529 83.392L994.522 83.3746L994.494 83.3519L994.448 83.3233L994.379 83.2894C994.313 83.2561 994.244 83.2254 994.173 83.1972L994.261 83.2522L994.333 83.2825L994.314 83.286L994.265 83.2733L994.199 83.2669C994.253 83.2786 994.308 83.2861 994.363 83.2893C994.42 83.2897 994.476 83.2865 994.532 83.2797C994.456 83.2873 994.382 83.301 994.31 83.3207C994.259 83.3388 994.211 83.3612 994.166 83.3876C994.265 83.3765 994.362 83.3586 994.455 83.3342C994.387 83.3668 994.322 83.4046 994.264 83.4471C994.347 83.4218 994.427 83.3904 994.503 83.3534C994.395 83.4229 994.297 83.5002 994.209 83.5842C994.309 83.5332 994.402 83.4745 994.487 83.409C994.436 83.4612 994.391 83.5171 994.354 83.576C994.406 83.529 994.454 83.4798 994.498 83.4287L994.55 83.3632L994.492 83.4576C994.453 83.5243 994.419 83.5927 994.39 83.6625C994.421 83.6326 994.448 83.6006 994.471 83.5668C994.496 83.5167 994.516 83.4653 994.532 83.413L994.556 83.3249L994.546 83.395C994.541 83.4414 994.54 83.4891 994.54 83.5355L994.574 83.4735C994.581 83.3987 994.579 83.3233 994.569 83.2482C994.601 83.3845 994.649 83.5188 994.714 83.6492C994.729 83.6318 994.742 83.6138 994.754 83.5952C994.752 83.5417 994.743 83.4883 994.729 83.4356C994.769 83.4817 994.814 83.5252 994.864 83.5656C994.838 83.4955 994.804 83.4272 994.762 83.3613C994.76 83.3504 994.756 83.3397 994.75 83.3293C994.848 83.4199 994.956 83.5037 995.074 83.5796C994.961 83.4621 994.834 83.3526 994.695 83.2528C994.734 83.2778 994.775 83.3002 994.819 83.3197C994.803 83.3063 994.785 83.2941 994.766 83.2831C994.879 83.3336 994.999 83.3749 995.123 83.4062C995 83.348 994.87 83.2983 994.737 83.2575C994.861 83.2894 994.988 83.3115 995.117 83.3236C995.082 83.3026 995.044 83.2837 995.005 83.2669C994.917 83.2441 994.827 83.2264 994.737 83.214C994.825 83.2136 994.912 83.2068 994.998 83.1937C994.946 83.1816 994.894 83.1727 994.84 83.1671L994.922 83.1272C994.978 83.1082 995.031 83.0859 995.082 83.0604C995.106 83.0401 995.128 83.0185 995.147 82.9957L995.158 82.9379C995.11 82.9379 995.061 82.9406 995.013 82.9461L995.029 82.8905L994.988 82.867C994.927 82.8937 994.87 82.925 994.818 82.9605C994.826 82.9435 994.832 82.9258 994.835 82.9077C994.896 82.8297 994.947 82.7466 994.986 82.6598C994.962 82.6528 994.939 82.6468 994.915 82.6418L994.844 82.6239C994.798 82.6683 994.756 82.7154 994.719 82.7648L994.663 82.7441C994.649 82.7152 994.631 82.6874 994.609 82.6611C994.583 82.6929 994.561 82.7261 994.541 82.7605C994.515 82.6559 994.478 82.5528 994.43 82.4525C994.403 82.4875 994.38 82.5238 994.361 82.5613C994.327 82.5308 994.29 82.5024 994.25 82.4764C994.238 82.5267 994.231 82.5777 994.229 82.6291C994.197 82.614 994.164 82.6005 994.13 82.5884L994.024 82.5615C993.998 82.5664 994.066 82.6777 993.929 82.5325C993.809 82.4417 993.704 82.3404 993.616 82.2308L993.479 82.0856L993.242 81.8193C993.101 81.6625 993.071 81.6122 993.077 81.605C993.136 81.591 993.196 81.5799 993.257 81.5717L993.453 81.4922C993.53 81.4883 993.607 81.4875 993.685 81.4897C993.735 81.4358 993.79 81.3842 993.849 81.3353C993.905 81.2701 993.965 81.2073 994.03 81.147C994.114 81.1668 994.196 81.1909 994.276 81.2193C994.35 81.1721 994.426 81.128 994.505 81.0871C994.638 81.1693 994.796 81.2228 994.962 81.2414C995.044 81.232 995.126 81.2261 995.208 81.2239C995.266 81.2995 995.316 81.3784 995.358 81.4597C995.452 81.4306 995.549 81.4064 995.648 81.3875C995.745 81.3806 995.842 81.3782 995.939 81.3804C995.986 81.4492 996.028 81.5202 996.064 81.5929C996.184 81.5796 996.306 81.5726 996.429 81.5719C996.489 81.626 996.545 81.6837 996.599 81.7421C996.645 81.8043 996.681 81.8706 996.706 81.9392C996.846 81.9484 996.986 81.9641 997.124 81.986C997.101 82.0784 997.069 82.1691 997.03 82.2576C997.001 82.3385 996.965 82.4176 996.923 82.4943C997.07 82.5193 997.216 82.5514 997.358 82.5905C997.404 82.6516 997.445 82.7143 997.482 82.7784C997.354 82.8637 997.217 82.9409 997.073 83.0091C997.232 83.0585 997.388 83.1169 997.537 83.1837C997.421 83.2509 997.298 83.3109 997.169 83.3633C997.181 83.4256 997.189 83.4883 997.192 83.5511C997.204 83.6159 997.21 83.681 997.211 83.7461C997.288 83.8328 997.356 83.9239 997.413 84.0186C997.403 84.0927 997.387 84.1661 997.365 84.2384C997.197 84.2581 997.027 84.2666 996.857 84.264C996.802 84.3132 996.744 84.3601 996.683 84.4045C996.796 84.5488 996.894 84.6999 996.974 84.8559C996.799 84.8326 996.625 84.7982 996.456 84.7533C996.405 84.8048 996.351 84.8542 996.293 84.9011C996.315 85.0312 996.325 85.162 996.322 85.2925C996.18 85.256 996.042 85.211 995.909 85.1581C995.793 85.1288 995.681 85.0926 995.573 85.0496C995.575 85.2117 995.559 85.3732 995.527 85.5323C995.386 85.4318 995.256 85.3232 995.137 85.2076C995.079 85.3076 995.012 85.4039 994.936 85.4957C994.833 85.4276 994.735 85.3545 994.644 85.2768C994.561 85.3886 994.465 85.4944 994.358 85.5932C994.268 85.4589 994.193 85.3192 994.135 85.1756C994.03 85.2435 993.918 85.3037 993.799 85.3555C993.732 85.2662 993.674 85.1732 993.626 85.0774C993.488 85.1486 993.341 85.21 993.187 85.2607C993.138 85.1604 993.101 85.0573 993.076 84.9527C993.01 84.9029 992.953 84.8453 992.894 84.7941C992.716 84.8391 992.532 84.873 992.345 84.8954C992.282 84.8326 992.216 84.7705 992.161 84.7063C992.127 84.6299 992.099 84.5523 992.077 84.4739C992.153 84.3479 992.244 84.2275 992.347 84.1139C992.288 84.0647 992.233 84.0127 992.183 83.9583C992.025 83.9323 991.869 83.8957 991.718 83.8488C991.661 83.7802 991.608 83.7091 991.561 83.6361C991.713 83.538 991.876 83.4509 992.049 83.3756C991.901 83.3075 991.762 83.2296 991.632 83.1427C991.735 83.0719 991.846 83.0079 991.963 82.9512C991.916 82.8697 991.878 82.7855 991.848 82.6997C991.926 82.6381 992.01 82.5821 992.101 82.5322C992.137 82.467 992.18 82.4042 992.229 82.3442C992.262 82.2793 992.301 82.2162 992.345 82.1554C992.311 82.0483 992.288 81.9396 992.276 81.8304C992.328 81.7638 992.385 81.6994 992.447 81.6376C992.514 81.5814 992.593 81.5343 992.681 81.4983C992.84 81.544 992.994 81.5995 993.142 81.6642C993.182 81.5856 993.23 81.5095 993.284 81.4365C993.317 81.3213 993.364 81.2089 993.424 81.1008C993.533 81.0905 993.644 81.0856 993.755 81.0861C993.873 81.1146 993.989 81.1492 994.101 81.1896C994.195 81.1242 994.301 81.0701 994.416 81.0292C994.527 81.1388 994.627 81.2538 994.717 81.3735L994.829 81.3063L994.924 81.2578C994.924 81.2578 994.983 81.2097 994.977 81.3256C994.919 81.6688 994.827 82.0071 994.701 82.3374L994.489 83.0056Z" fill="#102B4C"/>
<path d="M960.453 84.5877C960.799 84.496 961.184 84.5144 961.524 84.6387C961.863 84.763 962.129 84.9832 962.265 85.2512C962.379 85.5272 962.357 85.8218 962.204 86.0787C962.052 86.3356 961.778 86.5368 961.437 86.6439C961.089 86.7345 960.707 86.732 960.352 86.6369C959.997 86.5417 959.69 86.3593 959.479 86.1189C959.307 85.9245 959.217 85.6961 959.222 85.4657C959.226 85.2353 959.325 85.0145 959.504 84.8342C959.595 84.7529 959.707 84.6867 959.834 84.6395C959.961 84.5923 960.099 84.565 960.242 84.5592C960.384 84.5534 960.528 84.5692 960.664 84.6057C960.801 84.6422 960.927 84.6986 961.037 84.7718V84.7718C961.06 84.7866 961.081 84.8021 961.102 84.8182" fill="#102B4C"/>
<path d="M960.457 85.2098L960.431 85.2364L960.403 85.2818C960.393 85.2993 960.385 85.3174 960.379 85.3359C960.373 85.3539 960.369 85.3723 960.366 85.3909L960.39 85.4548L960.352 85.3502C960.339 85.3365 960.325 85.3235 960.31 85.3115L960.303 85.2941L960.441 85.3864L960.466 85.4004L960.415 85.3819C960.459 85.4012 960.506 85.4176 960.553 85.4308V85.4308C960.598 85.441 960.644 85.4491 960.69 85.4551C960.624 85.4486 960.558 85.4464 960.491 85.4484C960.436 85.4543 960.382 85.4642 960.33 85.4782C960.429 85.4861 960.529 85.4874 960.628 85.4821C960.548 85.4912 960.471 85.5056 960.395 85.5251C960.483 85.5203 960.571 85.5094 960.656 85.4925C960.524 85.5286 960.396 85.5739 960.276 85.6277C960.39 85.6044 960.501 85.5726 960.606 85.5326C960.534 85.5659 960.468 85.6052 960.408 85.6498C960.544 85.5906 960.672 85.5224 960.791 85.4457C960.647 85.5375 960.515 85.6398 960.396 85.7511C960.442 85.7352 960.487 85.7167 960.529 85.6957C960.627 85.6241 960.716 85.5463 960.798 85.4632C960.733 85.5405 960.678 85.6222 960.633 85.7074L960.707 85.6689C960.759 85.6088 960.805 85.5455 960.843 85.4795C960.789 85.6059 960.747 85.7359 960.719 85.8682L960.786 85.8404C960.815 85.7946 960.84 85.7465 960.858 85.6969C960.862 85.7492 960.872 85.8013 960.886 85.8528C960.905 85.7841 960.915 85.7138 960.915 85.643C960.921 85.6339 960.924 85.6238 960.924 85.6134C960.95 85.722 960.989 85.829 961.04 85.933C961.019 85.8635 960.994 85.7946 960.965 85.7267L960.918 85.596C960.98 85.6723 961.052 85.7442 961.132 85.8106C961.055 85.7181 960.968 85.6304 960.872 85.5485C960.962 85.6222 961.06 85.6892 961.165 85.7486C961.145 85.7197 961.121 85.6919 961.095 85.6655C961.03 85.6163 960.96 85.5711 960.886 85.5305C960.963 85.5644 961.043 85.5932 961.126 85.6165C961.086 85.5904 961.044 85.5671 961 85.5467L961.095 85.5539C961.152 85.5614 961.21 85.5653 961.268 85.5655L961.354 85.5495L961.392 85.5208C961.345 85.509 961.296 85.5014 961.247 85.4979L961.296 85.4889L961.291 85.4744L961.133 85.5035C961.238 85.4575 961.335 85.4022 961.422 85.3386L961.379 85.3187L961.338 85.2952C961.274 85.3298 961.215 85.3689 961.16 85.4118L961.151 85.3885C961.158 85.3624 961.162 85.3358 961.163 85.3089C961.131 85.3377 961.102 85.3679 961.075 85.3995C961.116 85.2937 961.144 85.1848 961.158 85.0742C961.129 85.1007 961.101 85.1285 961.076 85.1576C961.067 85.1191 961.053 85.0811 961.035 85.0443C961.014 85.0873 960.998 85.1318 960.987 85.1772C960.972 85.1525 960.954 85.1289 960.933 85.1065C960.912 85.0856 960.889 85.0661 960.864 85.048C960.864 85.048 960.903 85.1555 960.797 84.9953C960.715 84.8875 960.645 84.775 960.587 84.659L960.498 84.5018L960.348 84.2196C960.259 84.0501 960.244 83.9971 960.265 83.99C960.326 83.987 960.388 83.987 960.45 83.9901L960.668 83.9498C960.744 83.9598 960.819 83.9727 960.894 83.9886C960.96 83.9485 961.033 83.9071 961.111 83.8679C961.189 83.8287 961.275 83.7664 961.366 83.7186C961.439 83.755 961.51 83.7948 961.577 83.8376C961.671 83.8203 961.761 83.779 961.86 83.7544C961.925 83.8043 961.984 83.8589 962.035 83.9174C962.102 83.9516 962.166 83.9884 962.227 84.0276C962.29 84.0686 962.387 84.06 962.467 84.0795C962.481 84.1682 962.486 84.2573 962.483 84.3461C962.587 84.3455 962.692 84.3499 962.796 84.3595C962.892 84.3814 962.986 84.4075 963.077 84.4378C963.085 84.5177 963.084 84.5976 963.076 84.6768C963.196 84.7015 963.313 84.7337 963.427 84.7731C963.459 84.8426 963.484 84.9135 963.504 84.9852C963.504 85.0571 963.498 85.1287 963.485 85.1995C963.602 85.2533 963.713 85.3136 963.819 85.3796C963.743 85.455 963.658 85.5246 963.565 85.5876C963.49 85.6483 963.408 85.7039 963.32 85.7537C963.442 85.8294 963.556 85.9119 963.662 86.0005C963.663 86.0676 963.659 86.1345 963.651 86.201C963.486 86.2274 963.319 86.2427 963.15 86.247C963.264 86.3449 963.368 86.4489 963.463 86.5581C963.32 86.5717 963.176 86.5766 963.031 86.5727C962.974 86.6878 962.915 86.802 962.854 86.9153C962.874 87.0112 962.884 87.108 962.882 87.2045C962.83 87.2612 962.774 87.3152 962.712 87.3661C962.553 87.3199 962.398 87.2634 962.25 87.1973C962.174 87.2156 962.096 87.23 962.017 87.2403C962.03 87.4021 962.024 87.564 962 87.724C961.859 87.6407 961.729 87.5474 961.61 87.4456C961.536 87.4706 961.459 87.492 961.381 87.5097C961.324 87.63 961.255 87.7464 961.174 87.8578C961.076 87.7765 960.987 87.6893 960.907 87.5971C960.829 87.5307 960.758 87.4599 960.694 87.3853C960.601 87.522 960.494 87.6526 960.374 87.7761C960.319 87.6424 960.278 87.5059 960.251 87.368C960.145 87.435 960.033 87.4961 959.916 87.5507C959.872 87.4557 959.837 87.3586 959.811 87.2602C959.682 87.3323 959.546 87.3968 959.404 87.4532C959.409 87.312 959.428 87.1717 959.46 87.0335C959.338 87.0639 959.212 87.0871 959.085 87.1029C959.079 87.008 959.083 86.9132 959.094 86.8191C958.941 86.8517 958.785 86.8744 958.626 86.887C958.638 86.7898 958.66 86.6936 958.69 86.5993C958.654 86.5402 958.623 86.4797 958.596 86.4182C958.412 86.4218 958.227 86.4145 958.043 86.3963L957.968 86.1871C957.964 86.1133 957.966 86.0396 957.972 85.9662C958.103 85.8736 958.245 85.7894 958.394 85.7147C958.373 85.6566 958.334 85.6019 958.304 85.5423C958.166 85.4846 958.034 85.4189 957.908 85.3457C957.877 85.2741 957.85 85.2014 957.829 85.1278C958.01 85.0761 958.197 85.0364 958.388 85.0092C958.272 84.9222 958.167 84.8276 958.073 84.7263C958.203 84.6858 958.338 84.6537 958.476 84.6304C958.458 84.5477 958.449 84.4643 958.45 84.381C958.544 84.3436 958.643 84.312 958.744 84.2863C958.807 84.2326 958.875 84.1819 958.946 84.1344C959.009 84.0816 959.077 84.0319 959.149 83.9854C959.165 83.8742 959.196 83.7648 959.239 83.6587C959.323 83.6114 959.41 83.5683 959.501 83.5297C959.6 83.5069 959.7 83.4883 959.802 83.4742C959.933 83.5602 960.053 83.6553 960.161 83.7581C960.209 83.7132 960.261 83.6706 960.316 83.6305C960.407 83.5386 960.511 83.4549 960.626 83.3809C960.737 83.4105 960.846 83.4453 960.953 83.4849C961.05 83.5531 961.141 83.6265 961.224 83.7044C961.353 83.7024 961.482 83.7129 961.609 83.7358C961.641 83.8702 961.658 84.006 961.659 84.1418L961.8 84.1436L961.911 84.151C961.937 84.1462 962.178 84.1235 961.005 84.8608L960.457 85.2098Z" fill="#102B4C"/>
<path d="M1018.46 96.344L1018.53 96.0882L1018.63 95.8934L1017.84 95.2149L1018.3 94.4364L1017.28 93.7509L1017.47 92.9927L1017.46 92.248L1017.49 91.5045L1017.24 90.7629L1018.22 90.0313C1017.83 89.7935 1017.43 89.5281 1017.05 89.2701C1017.3 89.0278 1017.55 88.7889 1017.81 88.5534L1018.11 87.8387L1017.79 87.0844L1017.87 86.3535L1017.56 85.5861L1018.16 84.9029L1018.61 84.2155L1018.11 83.4126L1018.75 82.7442C1018.62 82.4599 1018.48 82.1756 1018.36 81.8878C1018.71 81.6864 1019.08 81.4938 1019.44 81.3062C1019.27 81.0064 1019.1 80.7001 1018.94 80.3845C1019.21 80.1702 1019.49 79.9746 1019.77 79.7639C1019.55 79.4126 1019.35 79.0548 1019.17 78.6908C1019.7 78.5589 1020.22 78.4436 1020.76 78.3516C1020.82 78.0648 1020.89 77.7812 1020.99 77.5017C1020.92 77.1216 1020.88 76.7392 1020.88 76.3571C1021.33 76.2335 1021.79 76.1315 1022.27 76.0518C1022.49 75.7935 1022.73 75.5473 1023 75.3146C1023.18 74.976 1023.39 74.6485 1023.63 74.3346L1024.08 74.3875C1024.25 74.3934 1024.42 74.4062 1024.59 74.4257C1024.91 74.4606 1025.23 74.516 1025.54 74.5912C1025.99 74.4218 1026.47 74.3009 1026.97 74.2319C1027.22 74.1565 1027.47 74.0987 1027.74 74.0592C1028 74.0074 1028.28 73.9764 1028.56 73.9666C1029.06 74.1582 1029.52 74.4059 1029.93 74.7012C1030.51 74.744 1031.07 74.8486 1031.61 75.0117C1032.01 75.2511 1032.38 75.5148 1032.73 75.8C1032.77 76.2005 1032.76 76.6015 1032.69 76.997C1033.26 77.0876 1033.83 77.2079 1034.39 77.3569C1034.48 77.67 1034.55 77.9861 1034.6 78.3038L1035.12 79.0461C1034.98 79.3707 1034.81 79.6884 1034.62 79.9981C1035.03 80.1933 1035.44 80.4006 1035.85 80.62C1035.65 80.9334 1035.42 81.2351 1035.2 81.5296C1035.37 81.7779 1035.53 82.0327 1035.67 82.2902L1036.44 83.0584C1036.28 83.3396 1036.09 83.6155 1035.94 83.88C1036.08 84.1448 1036.23 84.4154 1036.34 84.6887L1036.13 85.4873C1035.99 85.7462 1035.82 86.0005 1035.66 86.2491C1035.57 86.5041 1035.49 86.7606 1035.38 87.0088L1035.16 87.7683C1035.23 88.044 1035.26 88.3167 1035.31 88.5981C1035.21 88.8471 1035.09 89.1004 1034.98 89.3392L1034.75 90.1088C1034.83 90.4035 1034.89 90.7024 1034.95 91.0172C1034.78 91.2534 1034.62 91.4933 1034.43 91.7185C1034 91.8613 1033.58 91.9958 1033.17 92.1219C1033.04 92.3614 1032.89 92.5919 1032.74 92.8196C1032.6 93.0547 1032.44 93.2829 1032.27 93.5031C1032.26 93.8092 1032.25 94.121 1032.24 94.4386C1032.04 94.6579 1031.82 94.8684 1031.61 95.0804C1031.34 95.2549 1031.07 95.4287 1030.77 95.5828L1030.37 96.3857C1029.84 96.3778 1029.31 96.3576 1028.8 96.3245C1028.63 96.5846 1028.44 96.8367 1028.24 97.0798C1027.87 97.1811 1027.5 97.268 1027.13 97.3432C1026.91 97.6225 1026.65 97.8791 1026.35 98.1075C1025.93 98.1692 1025.5 98.2101 1025.06 98.2297C1024.85 98.2427 1024.63 98.2468 1024.41 98.2418C1024.19 98.2248 1023.96 98.1924 1023.74 98.1452C1023.53 98.1079 1023.25 98.2665 1023.01 98.0697C1023 98.5403 1022.93 99.0069 1022.79 99.4615C1022.53 100.096 1022.25 99.6484 1022.16 99.6122C1021.87 99.5448 1021.59 99.4509 1021.33 99.3324C1021.16 99.2529 1021.02 99.1571 1020.89 99.0478C1020.83 99.0025 1020.78 98.9552 1020.73 98.906C1020.24 98.5918 1019.85 98.2028 1019.57 97.7661C1019.13 97.4983 1018.72 97.2042 1018.34 96.887C1018.37 96.6982 1018.41 96.5167 1018.46 96.344Z" fill="#E68688"/>
<path d="M945.155 51.5287C945.181 50.8388 945.341 50.1596 945.629 49.5132C945.668 48.8028 945.872 48.1082 946.231 47.4617C946.654 46.8067 947.24 46.2242 947.956 45.7453C948.748 45.368 949.624 45.1013 950.546 44.9572C951.419 44.648 952.367 44.4729 953.339 44.4415C953.445 44.4734 953.543 44.5193 953.629 44.5771V44.5771L953.734 44.6569C953.773 44.6869 953.76 44.6521 953.772 44.65C953.788 44.6183 953.802 44.5858 953.813 44.5525C953.748 44.4714 953.668 44.3984 953.574 44.3362L953.52 44.309L953.49 44.3145C953.479 44.3166 953.463 44.239 953.449 44.2012L953.341 43.6912C953.509 43.037 953.753 42.3976 954.07 41.7806C954.356 41.1763 954.717 40.596 955.147 40.0473C955.298 39.3984 955.525 38.7632 955.825 38.1493C956.275 37.5914 956.791 37.0676 957.368 36.5843C957.738 36.4033 958.125 36.2419 958.525 36.1011C958.912 35.9548 959.312 35.8271 959.722 35.7189C960.297 35.22 960.941 34.7698 961.642 34.3756C962.497 34.2544 963.368 34.1974 964.243 34.2053C965.052 34.0625 965.879 33.9783 966.714 33.9536C967.56 33.9261 968.41 33.9547 969.255 34.0393C970.124 34.0434 970.993 34.1081 971.851 34.2326C972.274 34.3283 972.689 34.4432 973.095 34.5765C973.301 34.6344 973.505 34.7004 973.703 34.7741L974.004 34.8859L974.185 34.9518C974.173 35.053 974.202 35.1557 974.267 35.2465C974.308 35.3183 974.355 35.3883 974.407 35.4563L974.502 35.5751L974.556 35.6364L974.579 35.6322C974.61 35.5422 974.657 35.4563 974.719 35.3769C974.756 35.3359 974.789 35.2927 974.83 35.2511L974.954 35.1289C975.026 35.06 975.092 34.9888 975.169 34.925C975.59 34.2601 976.162 33.6607 976.859 33.1532C977.712 32.9724 978.593 32.8639 979.484 32.8296C980.246 32.6348 981.024 32.4756 981.814 32.353C982.587 32.0956 983.27 31.8765 984.03 31.6494C984.846 31.6879 985.666 31.7379 986.5 31.8287C987.335 31.8851 988.164 31.9942 988.98 32.155C989.899 32.0338 990.841 32.0228 991.775 32.1225C992.577 32.5444 993.288 33.0613 993.88 33.6525C994.293 33.8407 994.684 34.0583 995.045 34.3022C995.141 34.3642 995.231 34.4302 995.317 34.5L995.45 34.6024C995.495 34.6376 995.551 34.68 995.546 34.6684C995.589 34.676 995.633 34.6774 995.676 34.6723C995.652 34.7728 995.65 34.922 995.636 35.1261C995.651 35.1697 995.694 35.1556 995.736 35.1603C995.827 35.0487 995.903 34.9308 995.966 34.8079L995.977 34.7718L995.972 34.7573L995.904 34.7698L996.222 34.6181C996.438 34.5112 996.666 34.4193 996.904 34.3433C997.886 34.3136 998.873 34.4407 999.802 34.7164C1000.72 34.7012 1001.64 34.7954 1002.54 34.9956C1003.33 35.3767 1004.05 35.846 1004.67 36.3875C1005.48 36.7834 1006.21 37.2769 1006.83 37.8484C1007.18 38.4996 1007.41 39.181 1007.51 39.8733C1007.56 39.9833 1007.59 40.0954 1007.61 40.2087C1007.95 40.1044 1008.3 40.0243 1008.65 39.9694C1009 39.8294 1009.36 39.714 1009.73 39.6246C1010.44 39.3874 1011.24 39.3161 1012.02 39.4192C1012.4 39.4345 1012.78 39.4736 1013.15 39.5363C1013.86 39.6516 1014.57 39.8106 1015.26 40.0117C1015.97 40.0938 1016.68 40.204 1017.38 40.3417C1017.99 40.6443 1018.58 40.9646 1019.14 41.3026C1019.71 41.6418 1020.27 41.9686 1020.8 42.327C1021.47 42.5135 1022.14 42.7261 1022.79 42.9609C1023.37 43.2755 1023.92 43.6132 1024.47 43.9616C1024.87 44.4292 1025.25 44.9088 1025.6 45.3896C1026.22 45.672 1026.82 45.9753 1027.43 46.2909C1027.77 46.7804 1028.08 47.274 1028.37 47.7732C1028.79 48.1967 1029.2 48.6295 1029.58 49.0736C1029.96 49.5178 1030.33 49.9676 1030.7 50.4175C1031.07 50.8673 1031.56 51.2755 1031.96 51.735C1032.27 52.2112 1032.59 52.6868 1032.88 53.1707C1032.98 53.7104 1033.06 54.247 1033.11 54.7834C1033.33 55.2784 1033.51 55.7789 1033.69 56.2787C1034.13 56.7262 1034.52 57.1878 1034.94 57.6555C1034.93 58.1943 1034.89 58.7307 1034.87 59.2599C1035.01 59.763 1035.18 60.2656 1035.31 60.7708C1035.6 61.2576 1035.9 61.7504 1036.16 62.2472C1036.12 62.772 1036.07 63.2924 1036.01 63.8242C1035.95 64.3561 1035.96 64.8545 1035.91 65.3647C1036.22 65.8604 1036.49 66.361 1036.78 66.8623L1036.31 68.3998L1036.82 69.9206C1036.73 70.4428 1036.61 70.9699 1036.47 71.4881C1036.63 72.0394 1036.74 72.5961 1036.81 73.1552C1036.51 73.6819 1036.16 74.1885 1035.76 74.6706C1035.64 75.2615 1035.43 75.836 1035.13 76.3799C1034.59 76.8433 1033.96 77.231 1033.25 77.5266C1032.71 77.9838 1032.08 78.3725 1031.39 78.6791C1030.7 78.7603 1030.01 78.8149 1029.31 78.8427C1028.74 78.9319 1028.19 79.0578 1027.66 79.2191C1027.25 79.5207 1026.88 79.8579 1026.58 80.2244C1026.15 80.4565 1025.76 80.7212 1025.4 81.0145C1025.31 81.0847 1025.22 81.1572 1025.13 81.2296C1025.06 81.2808 1025 81.3347 1024.94 81.3911C1024.8 81.5291 1024.69 81.6776 1024.59 81.8344C1024.17 82.2126 1023.77 82.6099 1023.41 83.0244C1023.3 83.2992 1023.16 83.567 1023 83.8257C1022.82 84.1197 1022.58 84.3896 1022.29 84.6268C1022.08 84.901 1021.83 85.1551 1021.54 85.3842C1021.39 85.5158 1021.22 85.6348 1021.03 85.7394C1020.82 85.847 1020.6 85.956 1020.34 86.0583C1020.05 86.1177 1019.74 86.1632 1019.44 86.1944C1019.13 86.1967 1018.82 86.1819 1018.5 86.1499C1018.2 86.0894 1017.91 86.0115 1017.62 85.9168C1017.37 85.8011 1017.11 85.7012 1016.87 85.5689C1016.28 85.0228 1015.88 84.3725 1015.71 83.6837C1015.22 83.2095 1014.8 82.6969 1014.45 82.1554C1014.39 81.5742 1014.4 80.9918 1014.49 80.4167L1014.09 78.9026L1014.13 77.3986C1014.08 76.9027 1014.02 76.4141 1013.96 75.9269C1013.9 75.4396 1013.78 74.9643 1013.66 74.494C1013.44 74.033 1013.18 73.5877 1012.92 73.1553C1012.76 72.7103 1012.56 72.2718 1012.33 71.8418C1012.11 71.4119 1011.89 70.9677 1011.64 70.5346C1011.54 70.05 1011.41 69.563 1011.27 69.0686C1010.9 68.6612 1010.52 68.2603 1010.13 67.8658C1009.67 67.4971 1009.21 67.1356 1008.74 66.7826C1008.42 66.3592 1008.08 65.9385 1007.73 65.5186L1006.79 64.1993L1005.43 63.0801L1005 62.3278C1004.77 61.9175 1004.6 61.5119 1004.6 61.5119C1004.45 61.3767 1004.29 61.2385 1004.14 61.0983L1003.79 60.7594C1003.71 60.6819 1003.17 60.2893 1005.02 59.7147L1004.95 59.7279C1004.82 59.7572 1004.68 59.7741 1004.54 59.7782C1004.28 59.795 1004.17 59.7477 1004.11 59.6849C1003.84 59.3288 1003.64 58.9495 1003.5 58.5566C1003.27 58.0644 1003.04 57.5664 1002.86 57.0638C1002.69 56.5583 1002.56 56.047 1002.47 55.5324C1002.27 55.031 1002.09 54.5254 1001.92 54.0128L1001.87 53.8471C1001.28 54.122 1000.7 54.373 1000.11 54.6268C999.673 55.126 999.241 55.6396 998.752 56.1173C998.065 56.4363 997.363 56.7116 996.66 56.987C996.1 57.4004 995.494 57.7635 994.898 58.1462C994.191 58.4099 993.526 58.7095 992.8 58.9209C992.127 59.2095 991.439 59.4821 990.735 59.7176C990.03 59.9531 989.301 60.1899 988.607 60.4204L987.554 60.8349C987.386 60.9096 987.211 60.975 987.031 61.0306L986.432 61.07C986.225 61.0647 986.027 61.0609 985.81 61.0483L985.499 61.0313L985.477 61.0355L985.459 60.9861L985.339 61.0083C985.292 61.0148 985.245 61.0234 985.2 61.034C984.841 61.1499 984.474 61.2454 984.112 61.3526C983.381 61.5495 982.627 61.6825 981.878 61.8271C981.094 61.8768 980.317 61.9034 979.549 61.9068C978.797 62.0456 978.045 62.1844 977.284 62.2971C976.523 62.4097 975.79 62.6008 975.038 62.7396C974.249 62.7767 973.494 62.7953 972.725 62.8072C971.955 62.8191 971.18 62.7484 970.412 62.7103C969.633 62.7736 968.868 62.8217 968.09 62.8632L966.926 62.6721L965.769 62.4549L965.023 62.5119L964.432 62.5498C964.295 62.5596 963.541 62.7143 963.727 61.2882L963.7 61.3923C963.65 61.5852 963.585 61.7752 963.505 61.9615C963.37 62.2965 963.257 62.3854 963.135 62.3801C962.537 62.303 961.946 62.187 961.37 62.0334C960.594 61.9069 959.82 61.771 959.048 61.6004C958.279 61.4119 957.526 61.1822 956.795 60.913C956.009 60.748 955.238 60.5651 954.462 60.3488C953.666 60.1433 952.885 59.9002 952.126 59.6209C951.456 59.2173 950.824 58.7777 950.235 58.3055C949.532 57.9256 948.863 57.5095 948.233 57.0603C947.718 56.5123 947.268 55.9314 946.888 55.3249C946.455 54.7435 946.1 54.1319 945.827 53.4998C945.507 52.8615 945.282 52.2002 945.155 51.5287Z" fill="#102B4C"/>
<path d="M1027.78 120.116L1026.3 118.824L1026.87 116.903L1024.81 115.79C1024.8 115.582 1024.76 115.375 1024.69 115.172C1024.63 114.935 1024.55 114.701 1024.44 114.472C1024.25 113.993 1023.97 113.534 1023.61 113.109C1022.54 112.581 1021.28 112.322 1020.03 112.369C1019.76 112.255 1019.48 112.152 1019.2 112.061C1018.93 111.991 1018.67 111.903 1018.42 111.798L1017.41 111.31L1015.31 112.222L1013.25 111.469L1011.13 111.937L1009.05 110.984L1006.91 111.473L1004.77 111.495C1004.06 111.149 1003.35 110.794 1002.62 110.458C1001.89 110.462 1001.17 110.462 1000.43 110.482C999.703 110.521 998.975 110.59 998.256 110.689C997.552 111.026 996.857 111.372 996.173 111.728C995.449 111.71 994.717 111.715 993.986 111.723C993.22 111.501 992.441 111.32 991.647 111.132C990.899 111.136 990.145 111.192 989.396 111.237C988.749 111.667 988.122 112.151 987.527 112.602C986.727 112.462 985.919 112.344 985.095 112.239C984.456 112.602 983.834 112.968 983.229 113.355C982.471 113.424 981.713 113.511 980.945 113.628C980.299 113.949 979.662 114.293 979.045 114.661C978.35 114.939 977.677 115.247 977.028 115.582C976.324 115.912 975.654 116.282 975.022 116.687C974.163 116.993 973.36 117.379 972.631 117.838C972.496 117.975 972.299 118.172 972.134 118.37C971.964 118.578 971.814 118.796 971.683 119.021C971.427 119.476 971.245 119.955 971.14 120.447C971.023 121.225 971.039 122.015 971.188 122.797C971.639 123.415 972.162 124.001 972.751 124.548C972.784 125.162 972.855 125.769 972.935 126.346C972.882 126.976 972.852 127.601 972.826 128.207C973.145 128.734 973.475 129.247 973.787 129.756L975.067 131.166C975.194 131.719 975.3 132.279 975.446 132.816L977.206 133.979C977.184 134.15 977.188 134.323 977.22 134.494L977.297 134.864C977.312 134.905 977.27 135.064 977.694 135.073C977.833 135.075 977.971 135.069 978.108 135.055C978.214 135.047 978.319 135.033 978.423 135.016L978.757 134.954C979.216 134.869 979.851 134.752 980.693 134.541L980.56 134.584C980.303 134.672 980.039 134.761 979.851 134.839C979.416 135.012 979.31 135.119 979.329 135.193C979.469 135.597 979.671 135.99 979.932 136.361C980.165 136.885 980.412 137.413 980.692 137.944C981.026 138.463 981.394 138.969 981.794 139.461C982.064 140.009 982.346 140.568 982.682 141.107C983.017 141.647 983.301 142.233 983.664 142.77C984.209 143.193 984.781 143.596 985.378 143.976C985.804 144.477 986.252 144.961 986.711 145.444C987.33 145.791 987.96 146.115 988.588 146.433C989.216 146.751 989.757 147.147 990.346 147.478L991.968 148.639C992.669 148.847 993.375 149.036 994.081 149.216L994.805 149.866L994.895 149.949L995.054 150.065L995.396 150.312L995.745 150.557C995.852 150.649 995.973 150.731 996.105 150.801C996.61 151.092 997.163 151.329 997.747 151.505C998.33 151.667 998.943 151.745 999.555 151.735C1000.72 151.466 1001.71 150.899 1002.37 150.128C1002.49 150.063 1002.6 149.995 1002.73 149.937L1003.1 149.724L1003.19 149.669L1003.25 149.658L1003.38 149.607L1003.62 149.507C1003.94 149.376 1004.25 149.232 1004.57 149.095L1005.8 147.833L1006.92 146.504L1008.91 145.733L1009.64 144.152L1010.44 142.613C1011.16 142.401 1011.88 142.181 1012.6 141.955L1014.01 140.809L1014.29 138.939L1016.58 138.36L1017.07 136.624L1018.46 135.471L1019.9 134.344L1021.81 133.518L1023.23 132.381L1023.59 130.566L1024.79 129.285L1027.33 128.871C1027.43 128.176 1027.59 127.49 1027.82 126.819C1028.53 126.108 1028.97 125.257 1029.1 124.355C1029.33 123.902 1029.47 123.425 1029.53 122.937C1029.56 122.679 1029.57 122.419 1029.56 122.16C1029.56 122.036 1029.53 121.87 1029.54 121.776L1029.54 121.466C1028.99 120.987 1028.41 120.536 1027.78 120.116V120.116Z" fill="#E68688"/>
<path d="M984.878 69.8373C984.537 69.4818 984.799 69.6969 984.827 69.6978L985.083 69.7281L985.286 69.5914L985.199 69.1395L985.633 69.2299C985.618 69.09 985.608 68.9494 985.609 68.819L986.064 68.9705L985.973 68.4511L986.317 68.4713L986.581 68.3916L986.863 68.3395L987.046 68.1476L987.608 68.5273L987.509 67.8855C987.67 67.9766 987.825 68.0626 987.984 68.1573L988.316 68.2107L988.475 67.9643L988.742 67.915L988.904 67.6527C989.033 67.7095 989.162 67.7786 989.288 67.839L989.63 67.9526L989.755 67.5762L990.127 67.7741L990.281 67.4356L990.718 67.8448L990.847 67.4148L991.208 67.6582L991.319 67.1014L991.77 67.6939L991.996 67.5096L992.162 67.0358L992.523 67.403L992.775 67.2913L992.995 66.9686L993.36 67.5213L993.619 67.4517L993.867 67.2291C993.967 67.2975 994.065 67.3683 994.161 67.4415L994.412 67.1502L994.688 67.1148L994.978 67.5727L995.191 66.9631L995.468 67.1319L995.75 67.0799L996.005 67.4977L996.326 67.0635L996.566 67.4841L996.852 67.3879L997.162 67.1355L997.395 67.4365L997.696 67.3158C997.784 67.3585 997.866 67.4084 997.951 67.4547L998.183 67.6753L998.43 67.8033L998.684 67.8865C998.789 67.8671 998.888 67.8179 998.987 67.7933L999.235 67.9025L999.504 67.946L999.848 67.7894L1000.09 67.9152L1000.2 68.3435L1000.47 68.4006L1000.72 68.4679L1001.07 68.3258C1001.15 68.354 1001.24 68.3808 1001.32 68.4126L1001.53 68.5953L1001.85 68.5356L1001.87 69.0189L1002.19 68.9744C1002.25 69.0415 1002.31 69.118 1002.36 69.1887L1002.73 69.1193L1002.92 69.299L1003.11 69.4692C1003.15 69.5109 1003.33 69.3689 1003.21 69.6164C1003.2 69.6568 1003.28 69.6358 1002.91 70.1101L1002.73 70.3281L1002.42 70.6964C1002.35 70.8019 1002.26 70.9003 1002.16 70.9898C1002.09 70.9864 1002.09 70.893 1002.06 70.8529L1001.86 70.7629L1001.71 70.5915L1001.42 70.6456C1001.3 70.6741 1001.19 70.7131 1001.09 70.7618L1000.95 70.5731L1000.65 70.6627L1000.52 70.4682L1000.33 70.3638C1000.24 70.3738 1000.16 70.378 1000.07 70.3762L999.962 70.0682L999.656 70.2084L999.383 70.2961C999.336 70.2211 999.287 70.1432 999.234 70.0725L998.909 70.2843L998.712 70.1936L998.525 70.0545L998.216 70.3069L998.074 70.0045L997.909 69.725L997.598 70.0738L997.369 70.0944L997.235 69.6015L996.933 70.0416L996.767 69.6477L996.534 69.669L996.304 69.7114C996.22 69.7983 996.138 69.894 996.059 69.9861L995.833 70.0277L995.631 69.5691L995.406 69.5115L995.183 70.1137L994.956 69.6411L994.73 69.6828L994.537 70.1368L994.291 69.7763C994.21 69.6858 994.127 69.5989 994.039 69.5128L993.892 70.1381L993.601 69.6309L993.505 70.064L993.228 69.7648L993.108 70.252L992.771 69.7437L992.634 70.107L992.335 69.8242C992.304 69.9819 992.275 70.1453 992.249 70.3052L991.942 70.0333L991.709 70.0205L991.684 70.586L991.472 70.5974C991.392 70.575 991.311 70.562 991.233 70.5454L990.811 70.0778L990.629 70.1951L990.615 70.6564C990.561 70.7008 990.509 70.7475 990.461 70.7964L989.979 70.3057L990.003 70.7818L989.615 70.5063L989.518 70.7504C989.417 70.7133 989.322 70.6843 989.218 70.6509L989.016 70.713L988.841 70.8166L988.867 71.1992C988.818 71.2423 988.764 71.2803 988.72 71.3255L988.539 71.4023L988.019 71.0736L987.99 71.3486L988.107 71.7827L987.883 71.8055L987.555 71.7203L987.559 71.9956L987.063 71.7337L987.152 71.9807C987.152 71.9807 987.206 72.0637 987.052 71.9372C986.898 71.8106 986.543 71.4825 985.738 70.6982L984.878 69.8373Z" fill="#102B4C"/>
<path d="M966.584 74.216C966.218 74.5346 966.439 74.314 966.439 74.3046L966.467 74.16L966.321 74.1096C966.174 74.1924 966.032 74.2796 965.894 74.3712C965.922 74.2819 965.943 74.1911 965.956 74.0994L965.565 74.3483L965.614 74.0293C965.456 74.1553 965.302 74.2871 965.152 74.4246C965.133 74.3723 965.127 74.302 965.109 74.2403L964.98 74.1618L964.858 74.0666L964.64 74.1069L964.78 73.5416L964.294 74.0932L964.34 73.654L964.246 73.4605L963.993 73.5939L963.838 73.5297L963.584 73.6942L963.529 73.3758L963.444 73.1405L963.151 73.4394L963.078 73.1151L962.803 73.3953L962.783 72.8628L962.486 73.2522L962.397 72.9155L962.084 73.4475L962.07 72.7339L961.854 72.8792L961.585 73.3442L961.49 72.8813C961.422 72.8975 961.357 72.9219 961.3 72.9537L961.085 73.2815L960.986 72.6303L960.798 72.665L960.609 72.8829L960.447 72.6245L960.268 72.949L960.102 72.9795L959.914 72.4594L959.775 73.1051L959.602 72.9262L959.453 73.0127L959.236 72.5691L959.15 73.0624L958.907 72.6237C958.858 72.6711 958.815 72.7216 958.777 72.7747L958.705 73.0979L958.48 72.8296L958.387 73.0142L958.203 72.9273L957.99 72.7713L957.81 72.7177L957.643 72.7113L957.58 72.8904C957.527 72.881 957.473 72.8764 957.419 72.8768L957.309 72.9404L957.352 73.2022L957.192 73.1821C957.059 73.0796 956.908 72.9741 956.772 72.8846L956.683 72.9723L956.586 73.0461C956.617 73.1349 956.661 73.2215 956.715 73.3042L956.609 73.3548C956.55 73.3519 956.491 73.3514 956.432 73.3534L956.531 73.5396C956.343 73.4642 956.15 73.3964 955.953 73.3365L956.045 73.5147C955.966 73.512 955.887 73.5172 955.81 73.5302L956.024 73.7448L955.859 73.7971L955.694 73.8617C955.648 73.87 955.909 73.98 955.528 73.8922C955.257 73.8569 954.993 73.7931 954.742 73.7026L954.383 73.5983L953.752 73.4049C953.583 73.3656 953.42 73.3103 953.268 73.2402C953.249 73.1879 953.407 73.1711 953.463 73.139L953.575 72.9602L953.806 72.8339L953.712 72.5724C953.654 72.4724 953.606 72.3693 953.568 72.2641L953.891 72.1798L953.846 71.8782L954.173 71.8178C954.24 71.7712 954.308 71.7247 954.381 71.6833L954.501 71.4844C954.658 71.5112 954.812 71.5428 954.961 71.5793L954.969 71.2679L955.048 70.9991C955.172 71.0128 955.296 71.0324 955.418 71.0579L955.447 70.7054L955.721 70.6547L956.019 70.6463C956.034 70.5102 956.055 70.3793 956.077 70.2513C956.213 70.319 956.347 70.3884 956.477 70.4595C956.599 70.5206 956.72 70.5788 956.836 70.6442C956.85 70.4888 956.868 70.3303 956.893 70.1688C956.967 70.1302 957.047 70.0845 957.122 70.0489C957.268 70.1996 957.407 70.3535 957.542 70.5108C957.563 70.3333 957.59 70.1537 957.624 69.9718C957.748 70.0936 957.867 70.2172 957.982 70.3427L958.207 70.2547C958.279 70.2178 958.354 70.1843 958.431 70.1544L958.612 69.8111L958.849 69.7239C958.955 69.8821 959.055 70.0423 959.151 70.2043L959.389 70.241L959.581 69.5516L959.845 70.0825L960.082 70.0387L960.325 69.5351L960.554 69.9484C960.631 70.049 960.699 70.1603 960.77 70.2681L961.049 69.5967L961.225 70.1841L961.487 69.8009L961.672 70.1667L961.984 69.6876L962.109 70.3122L962.407 69.972L962.563 70.3463L962.905 69.8833L963.043 70.2669L963.248 70.3685L963.643 69.84L963.869 69.9099L964.064 70.0629L964.09 70.678L964.336 70.6604L964.739 70.2762L965.002 70.2276L964.964 70.8886L965.389 70.5002L965.434 70.9351L965.752 70.8051L965.873 71.0618C965.944 71.0874 966.013 71.116 966.08 71.1474L966.311 71.1978L966.729 70.947L966.985 70.9773L967.203 71.0703C967.174 71.2461 967.146 71.4342 967.108 71.6178L967.454 71.5323C967.614 71.4491 967.776 71.3695 967.941 71.2935L968.1 71.4781L968.16 71.777L968.546 71.7337L968.483 71.9715L968.415 72.2042L968.59 72.144L968.729 72.0966C968.729 72.0966 968.831 72.0467 968.708 72.1841C968.586 72.3214 968.257 72.6425 967.445 73.369L966.584 74.216Z" fill="#102B4C"/>
<path d="M991.187 106.756C991.489 106.983 991.267 106.856 991.256 106.858L991.075 106.892L990.957 107.041L991.081 107.383L990.73 107.355C990.758 107.455 990.775 107.555 990.778 107.656L990.406 107.592L990.522 107.979L990.25 108.002C990.184 108.033 990.117 108.06 990.047 108.086L989.831 108.153L989.701 108.314L989.22 108.093L989.344 108.569L988.949 108.397L988.687 108.383L988.582 108.579L988.382 108.647C988.348 108.719 988.312 108.787 988.272 108.854L987.959 108.741L987.684 108.68L987.616 108.969L987.312 108.848L987.222 109.11L986.851 108.837L986.786 109.159L986.49 109.015L986.459 109.439L986.054 109.031L985.903 109.189L985.832 109.558L985.513 109.307L985.334 109.412L985.209 109.676L984.857 109.289L984.668 109.367L984.514 109.56L984.26 109.424L984.116 109.67L983.916 109.726L983.621 109.409L983.526 109.879L983.291 109.783L983.095 109.862L982.824 109.577L982.685 109.938L982.417 109.65L982.229 109.762L982.061 109.997L981.819 109.803L981.633 109.943L981.415 109.884L981.192 109.755L980.979 109.698L980.772 109.68L980.578 109.809L980.369 109.776L980.165 109.799L979.97 109.993L979.759 109.951L979.537 109.648L979.334 109.664L979.128 109.671L978.929 109.875L978.723 109.87L978.516 109.784L978.31 109.915L978.108 109.534L977.902 109.662C977.835 109.621 977.766 109.584 977.701 109.538L977.491 109.7C977.423 109.666 977.356 109.638 977.288 109.605L977.089 109.508C977.041 109.486 976.984 109.639 976.95 109.413C976.937 109.378 976.905 109.421 976.929 108.955L976.945 108.744L976.98 108.375C976.979 108.276 976.994 108.178 977.022 108.082C977.075 108.072 977.119 108.126 977.165 108.143L977.359 108.138C977.423 108.16 977.483 108.192 977.55 108.22L977.745 108.085L977.942 107.897L978.132 108.023L978.324 107.879L978.515 108.008L978.705 108.044L978.895 107.981L979.091 108.215L979.276 108.038L979.46 107.914L979.659 108.066L979.834 107.851L980.025 107.89L980.221 107.969L980.385 107.722L980.595 107.937L980.807 108.124L980.957 107.808L981.145 107.773L981.387 108.132L981.521 107.76L981.75 108.028L981.938 107.993L982.116 107.929L982.257 107.689L982.431 107.626L982.689 107.95L982.883 107.967L982.958 107.485L983.231 107.819L983.405 107.759L983.491 107.396L983.754 107.658L983.997 107.833L984.03 107.346L984.335 107.702L984.419 107.401L984.68 107.601L984.726 107.23L985.055 107.585L985.129 107.301L985.401 107.49L985.431 107.128L985.705 107.31L985.895 107.303L985.87 106.879L986.039 106.848L986.241 106.873L986.611 107.186L986.746 107.083L986.724 106.734L986.838 106.617L987.251 106.95L987.198 106.591L987.522 106.767L987.577 106.577L987.821 106.631L987.97 106.566L988.093 106.472L988.037 106.173L988.139 106.067C988.184 106.045 988.228 106.02 988.269 105.993L988.684 106.199L988.676 105.989L988.534 105.675C988.589 105.668 988.643 105.658 988.696 105.645L988.938 105.671C988.917 105.604 988.902 105.535 988.892 105.466L989.116 105.552L989.341 105.631L989.281 105.466C989.281 105.466 989.234 105.412 989.367 105.493C989.5 105.574 989.808 105.771 990.499 106.251L991.187 106.756Z" fill="#102B4C"/>
<path d="M961.564 114.665C961.674 114.793 961.807 114.915 961.931 115.037L961.6 115.641L962.511 115.832L962.994 116.158L962.336 116.9L963.369 117.019L963.249 117.574L964.086 117.754L963.714 118.421C963.943 118.5 964.171 118.576 964.425 118.646L964.368 119.199L965.126 119.388L965.192 119.893L965.152 120.459L965.764 120.708L966.092 121.094L966.682 121.342L966.853 121.815C966.805 122.035 966.759 122.254 966.725 122.459L967.866 122.375L967.616 123.125L968.143 123.409L968.483 123.805L968.876 124.172L969.139 124.632C969.427 124.619 969.72 124.599 970.009 124.577L970.107 124.559L970.144 124.664C970.35 124.832 970.559 125 970.772 125.168L971.066 125.172L971.171 125.463L971.469 125.677C971.965 126.026 972.485 126.353 973.026 126.658C974.158 127.298 975.394 127.818 976.7 128.202C977.928 128.654 979.206 129.014 980.517 129.276C981.821 129.512 983.143 129.672 984.471 129.755C985.477 129.857 986.491 129.885 987.496 129.838C987.604 129.833 987.706 129.807 987.794 129.762C987.882 129.717 987.952 129.655 987.997 129.581C988.059 129.485 988.11 129.384 988.149 129.281C988.144 129.266 988.165 129.247 988.17 129.227L988.196 129.222C988.329 130.899 989.585 130.602 989.817 130.556L990.813 130.372C991.231 130.295 991.652 130.218 992.058 130.112L992.704 130.079C993.097 130.056 993.615 130.013 994.099 129.967C995.09 129.88 996.076 129.757 996.076 129.757C997.312 129.405 998.524 129.03 999.716 128.623C1000.96 128.334 1002.2 128.015 1003.42 127.678C1004.65 127.341 1005.81 126.904 1006.98 126.495C1008.06 125.954 1009.13 125.406 1010.18 124.851L1013.43 123.321C1014.7 122.974 1015.93 122.56 1017.12 122.082C1018.27 121.442 1019.3 120.682 1020.18 119.822C1021 118.961 1021.7 118.028 1022.24 117.041C1022.67 116.068 1023.01 115.073 1023.27 114.062C1023.63 113.099 1023.96 112.121 1024.21 111.129C1024.46 110.138 1024.7 109.146 1024.82 108.141C1025.02 107.146 1025.18 106.137 1025.26 105.119C1025.19 104.099 1025.07 103.079 1024.88 102.071C1024.91 101.046 1024.87 100.018 1024.77 98.9917L1024.17 97.5709L1023.62 96.1599C1023.66 95.1781 1023.73 94.1987 1023.81 93.2084L1023.22 90.2689C1022.87 89.2926 1022.52 88.3134 1022.13 87.334C1021.87 86.3417 1021.58 85.35 1021.21 84.3678C1021.18 84.109 1021.13 83.8551 1021.09 83.5955C1021.06 83.3179 1021 83.0415 1020.93 82.7677C1020.79 82.3283 1020.52 81.9184 1020.12 81.5777C1019.83 81.3352 1019.47 81.1415 1019.08 81.0094C1018.68 80.8774 1018.26 80.81 1017.84 80.8119C1017.12 80.8508 1016.45 81.0541 1015.9 81.3953C1015.39 81.7097 1015 82.1249 1014.77 82.5993C1014.47 83.3145 1014.42 84.0841 1014.62 84.8333C1014.77 85.4256 1014.89 85.8097 1015 86.2879C1015.12 86.7661 1015.21 87.2072 1015.29 87.6678C1015.67 88.5622 1015.97 89.4743 1016.19 90.3969C1016.17 91.2789 1016.01 92.1514 1015.7 92.9917C1015.28 93.6928 1014.64 94.2962 1013.83 94.7461C1013.13 95.4665 1012.33 96.128 1011.45 96.7209C1010.34 97.1784 1009.18 97.6789 1008.07 98.2458C1007.11 98.9724 1006.23 99.7676 1005.46 100.621C1005.25 100.77 1005.02 100.913 1004.82 101.071L1004.51 101.315L1004.35 101.437C1004.31 101.47 1004.27 101.501 1004.22 101.529C1004.06 101.59 1003.95 101.594 1003.89 101.538C1003.86 101.517 1003.84 101.49 1003.82 101.46C1003.87 101.697 1003.82 102.137 1003.88 102.785C1003.88 102.801 1003.88 102.817 1003.87 102.831C1003.81 102.287 1003.71 101.897 1003.67 101.656L1003.66 101.577C1003.61 101.58 1003.56 101.572 1003.52 101.554L1003.47 101.538C1003.51 101.561 1003.42 101.497 1003.4 101.483L1003 101.162C1002.47 100.756 1001.89 100.389 1001.27 100.066C1000.26 99.2159 999.077 98.4914 997.777 97.9209C996.363 97.6824 994.922 97.5788 993.488 97.6126C993.154 97.5534 992.811 97.505 992.472 97.453C992.121 97.399 991.767 97.3609 991.412 97.3387C990.722 97.2832 990.054 97.2547 989.371 97.2383C987.994 97.1682 986.616 97.1759 985.249 97.2616C983.921 97.6246 982.566 98.0048 981.279 98.8686C980.853 99.1117 980.495 99.4166 980.224 99.7669C979.963 100.118 979.82 100.515 979.809 100.925C979.805 101.329 979.92 101.731 980.146 102.103C980.387 102.472 980.749 102.789 981.196 103.022C981.409 103.156 981.636 103.276 981.875 103.38C981.995 103.436 982.119 103.486 982.246 103.531L982.538 103.639C982.902 103.763 983.273 103.873 983.651 103.966C984.346 104.132 985.051 104.271 985.762 104.383C987.14 104.258 988.425 104.061 989.666 103.901C989.971 103.912 990.273 103.928 990.559 103.953C990.695 103.965 990.832 103.977 990.951 103.995L991.108 104.019L991.324 104.062C991.897 104.173 992.461 104.314 993.012 104.482C993.948 104.854 994.745 105.409 995.317 106.09C995.919 106.577 996.265 107.215 996.282 107.874C996.44 108.602 996.27 109.34 995.799 109.965C995.203 110.643 994.42 111.211 993.502 111.629C992.49 112.084 991.414 112.454 990.292 112.733L988.906 112.915C988.689 112.936 988.378 112.984 988.28 112.981C988.227 112.968 988.178 112.946 988.137 112.917C988.095 112.878 988.053 112.83 988.069 112.796C987.87 112.754 987.682 112.683 987.513 112.589L987.329 112.502L987.027 112.341C986.813 112.224 986.591 112.117 986.361 112.021C985.936 111.836 985.467 111.723 984.986 111.689C984.754 111.682 984.522 111.694 984.294 111.727C984.075 111.773 983.862 111.834 983.659 111.909C983.519 111.968 983.388 112.038 983.269 112.117C982.833 112.304 982.451 112.553 982.143 112.852C982.084 112.914 982.013 112.968 981.932 113.012L981.784 113.101C981.688 113.16 981.587 113.214 981.481 113.263C981.074 113.465 980.627 113.62 980.155 113.721C979.333 114.096 978.393 114.302 977.421 114.322C976.432 114.476 975.395 114.408 974.432 114.127C973.58 113.638 972.895 112.997 972.439 112.263C972.004 111.569 971.798 110.809 971.84 110.052C971.725 109.697 971.672 109.334 971.682 108.972C971.686 108.635 971.771 108.304 971.935 107.995C972.412 107.452 973.399 106.922 974.425 106.187C974.55 106.09 974.675 106.002 974.799 105.901L974.981 105.75L975.124 105.637C975.147 105.633 975.158 105.609 975.172 105.603L975.198 105.598L975.33 105.54L975.676 105.389C975.8 105.334 975.919 105.273 976.031 105.206C976.241 105.079 976.422 104.927 976.565 104.754C976.705 104.572 976.8 104.371 976.844 104.16C976.915 103.721 976.861 103.273 976.685 102.844C976.588 102.624 976.462 102.412 976.308 102.21L976.072 101.913L975.775 101.658C975.574 101.487 975.352 101.331 975.11 101.195C974.906 101.084 974.691 100.986 974.467 100.901C973.661 100.606 972.783 100.456 971.903 100.463C971.029 100.378 970.148 100.45 969.333 100.674C969.216 100.705 969.104 100.745 968.998 100.792C968.899 100.826 968.803 100.865 968.712 100.91L968.267 101.119L967.371 101.548C966.312 102.267 965.41 103.11 964.694 104.048C964.35 104.517 964.057 105.009 963.818 105.517C963.699 105.769 963.601 106.026 963.523 106.288C963.42 106.54 963.343 106.799 963.293 107.062C963.109 107.428 962.958 107.805 962.843 108.189C962.749 108.142 962.656 108.094 962.57 108.045L962.317 107.657L962.096 107.267L962.505 106.767L961.666 106.476L962.218 105.962L962.007 105.567L961.304 105.241L961.539 104.782L961.81 104.323L961.252 103.967L961.282 103.54L961.244 103.122L960.753 102.751L960.911 102.313L960.607 101.916L960.217 101.524L960.522 101.08L960.314 100.672L960.29 100.252L960.417 99.8253L960.098 99.4193C960.135 99.2791 960.159 99.1352 960.186 98.997C960.048 98.8612 959.919 98.7363 959.794 98.589L959.516 98.1754C959.547 98.036 959.558 97.8936 959.547 97.7512L959.376 97.3333C959.382 97.2194 959.341 97.1054 959.258 97.0079C959.251 96.9876 959.157 96.9709 958.926 96.9545L958.556 96.9392L958.353 96.9332C957.917 96.9363 957.906 97.0158 957.864 97.0452C957.58 97.1472 957.674 97.2508 957.655 97.3535L957.456 97.7901C957.391 97.9325 957.345 98.0802 957.318 98.2308C957.402 98.3734 957.491 98.5089 957.593 98.6575L957.428 99.1001C957.504 99.2441 957.574 99.383 957.663 99.5279L957.094 99.9955L957.36 100.421L957.269 100.868L957.323 101.305L957.736 101.715L957.824 102.148L957.924 102.579L957.47 103.066L957.471 103.512L957.893 103.915L958.009 104.346L958.03 104.791L958.36 105.195L958.418 105.634L958.405 106.086L958.256 106.56C958.246 106.71 958.241 106.873 958.236 107.016L958.604 107.413L958.337 107.915L958.892 108.274L959.215 108.67L958.764 109.218L959.595 109.489L959.155 110.045L959.429 110.45L959.363 110.933L960.437 111.153L959.94 111.741L960.202 112.167L960.832 112.478C960.785 112.648 960.734 112.806 960.704 112.989L961.225 113.32L961.527 113.714L960.888 114.387L961.564 114.665Z" fill="#102B4C"/>
<path d="M1030.41 125.195L968.313 133.962L1027.67 152.549L1030.41 125.195Z" fill="#E68688"/>
<g clip-path="url(#clip0)">
<path d="M1063.58 582C1143.34 582 1208 576.115 1208 568.855C1208 561.595 1143.34 555.71 1063.58 555.71C983.818 555.71 919.158 561.595 919.158 568.855C919.158 576.115 983.818 582 1063.58 582Z" fill="#001C55"/>
<path d="M524 19.2878H88V210.061H524V19.2878Z" fill="#E6E6E6"/>
<path d="M551.5 0.70137H115.5V191.475H551.5V0.70137Z" stroke="#001C55" stroke-width="2" stroke-miterlimit="10"/>
<path d="M400.468 142.356C413.614 133.136 422.567 121.389 426.194 108.6C429.821 95.8106 427.959 82.5545 420.845 70.5075C413.73 58.4605 401.682 48.1638 386.224 40.9194C370.765 33.6751 352.591 29.8084 334 29.8084V95.7375L400.468 142.356Z" fill="#001C55"/>
<path d="M334 29.8084C313.107 29.8101 292.81 34.6933 276.314 43.6867C259.819 52.6801 248.065 65.2712 242.908 79.4717C237.752 93.6723 239.487 108.673 247.839 122.105C256.191 135.537 270.685 146.635 289.032 153.646L334 95.7374V29.8084Z" fill="#0E6BA8"/>
<path d="M400.468 142.356L334 95.7375L289.032 153.646C306.857 160.448 327.341 163.024 347.425 160.989C367.509 158.954 386.116 152.418 400.468 142.356Z" fill="#0A2472"/>
<path d="M150 151.847H132V164.472H150V151.847Z" fill="#0E6BA8"/>
<path d="M176 151.847H158V164.472H176V151.847Z" fill="#001C55"/>
<path d="M202 151.847H184V164.472H202V151.847Z" fill="#0A2472"/>
<path d="M517 154.653H443V156.757H517V154.653Z" fill="#001C55"/>
<path d="M517 160.965H443V163.069H517V160.965Z" fill="#001C55"/>
<path d="M517 167.278H443V169.382H517V167.278Z" fill="#001C55"/>
<path d="M473 285.108H225V475.882H473V285.108Z" fill="#E6E6E6"/>
<path d="M498 266.873H250V457.646H498V266.873Z" stroke="#001C55" stroke-width="2" stroke-miterlimit="10"/>
<path d="M276.371 436.124H263V445.502H276.371V436.124Z" fill="#0E6BA8"/>
<path d="M295.686 436.124H282.314V445.502H295.686V436.124Z" fill="#001C55"/>
<path d="M315 436.124H301.629V445.502H315V436.124Z" fill="#0A2472"/>
<path d="M465 440.197H413V441.676H465V440.197Z" fill="#001C55"/>
<path d="M465 444.633H413V446.111H465V444.633Z" fill="#001C55"/>
<path d="M465 449.068H413V450.547H465V449.068Z" fill="#001C55"/>
<path d="M374 300.538V315.969C387.054 315.969 399.814 318.684 410.668 323.77C421.521 328.857 429.981 336.086 434.976 344.545C439.971 353.003 441.279 362.311 438.732 371.29C436.185 380.27 429.899 388.518 420.669 394.992L436.225 405.903C448.532 397.271 456.914 386.273 460.309 374.3C463.705 362.328 461.962 349.918 455.301 338.64C448.641 327.362 437.362 317.722 422.89 310.94C408.419 304.158 391.405 300.538 374 300.538V300.538Z" fill="#001C55"/>
<path d="M436.225 405.903L420.669 394.992C409.385 402.908 394.393 407.687 378.47 408.444C362.548 409.201 346.773 405.885 334.069 399.11L320.753 411.399C337.695 420.43 358.728 424.849 379.959 423.839C401.189 422.828 421.179 416.456 436.225 405.903Z" fill="#0A2472"/>
<path d="M308 362.259C308 349.982 314.954 338.208 327.331 329.527C339.708 320.846 356.496 315.969 374 315.969V300.538C355.578 300.538 337.621 304.593 322.659 312.131C307.697 319.669 296.486 330.31 290.605 342.555C284.724 354.799 284.47 368.029 289.879 380.38C295.287 392.732 306.086 403.581 320.753 411.399L334.069 399.11C325.961 394.797 319.388 389.225 314.865 382.831C310.343 376.438 307.993 369.397 308 362.259V362.259Z" fill="#0E6BA8"/>
<path d="M990.479 264.464L953.757 324.971C953.757 324.971 925.195 313.524 908.291 314.75C891.387 315.977 870.403 301.668 870.403 301.668L891.387 230.532L930.441 154.898L984.651 179.019L990.479 264.464Z" fill="#0A2472"/>
<path opacity="0.1" d="M990.479 264.464L953.757 324.971C953.757 324.971 925.195 313.524 908.291 314.75C891.387 315.977 870.403 301.668 870.403 301.668L891.387 230.532L930.441 154.898L984.651 179.019L990.479 264.464Z" fill="black"/>
<path d="M1048.19 521.617V541.241H1021.96L1026.04 518.346L1048.19 521.617Z" fill="#0A2472"/>
<path d="M1116.38 487.684L1135.62 495.861L1121.63 518.346L1107.06 517.12L1093.07 503.22L1116.38 487.684Z" fill="#0A2472"/>
<path d="M1053.43 258.741L1087.82 315.568C1087.82 315.568 1075.58 378.527 1076.17 383.842C1076.75 389.157 1077.33 391.201 1074.42 395.698C1071.5 400.195 1070.34 403.057 1072.09 408.372C1073.83 413.686 1074.42 415.731 1073.25 417.775C1072.09 419.819 1063.92 504.037 1059.84 509.761C1055.76 515.485 1062.18 524.888 1058.1 525.705C1054.02 526.523 1023.7 524.479 1021.96 519.573C1020.21 514.667 1027.79 502.811 1023.7 499.132C1019.62 495.452 1024.29 362.992 1018.46 353.998C1012.63 345.003 948.511 336.827 948.511 336.827C948.511 336.827 942.682 310.662 946.18 306.574C949.677 302.485 954.34 276.729 954.34 276.729L1053.43 258.741Z" fill="#00072D"/>
<path d="M1019.62 537.97C1019.62 537.97 1035.95 524.479 1049.94 537.97C1049.94 537.97 1051.1 553.915 1061.01 557.185C1070.92 560.456 1066.26 573.538 1052.27 573.947C1038.28 574.356 1020.21 575.991 1019.62 570.676C1019.04 565.362 1021.96 562.091 1016.71 560.456C1011.46 558.82 1016.71 549.417 1016.71 549.417L1019.62 537.97Z" fill="#00072D"/>
<path d="M1021.37 342.55C1021.37 342.55 1020.79 371.986 1016.71 376.074C1012.63 380.163 1010.3 382.616 1012.63 387.113C1014.96 391.61 1018.46 399.786 1016.71 401.422C1014.96 403.057 1018.46 411.642 1018.46 411.642C1018.46 411.642 1063.34 426.769 1084.33 458.249C1084.33 458.249 1105.89 483.187 1112.3 483.596C1118.72 484.005 1126.29 480.734 1122.8 490.137C1119.3 499.54 1105.89 511.805 1095.98 510.579C1086.07 509.352 1078.5 497.496 1078.5 497.496C1078.5 497.496 1000.97 442.304 992.811 440.669C984.651 439.034 961.335 425.951 957.254 417.775C953.174 409.598 944.431 341.324 948.511 336.827C952.591 332.33 967.747 326.197 967.747 326.197L1021.37 342.55Z" fill="#00072D"/>
<path d="M1122.21 486.049C1122.21 486.049 1158.35 486.867 1158.94 492.999C1159.52 499.132 1143.78 535.517 1146.11 544.103C1148.44 552.688 1128.04 572.312 1114.64 568.223C1101.23 564.135 1111.72 542.876 1111.72 542.876C1111.72 542.876 1098.32 513.849 1100.65 513.44C1102.98 513.032 1126.29 508.126 1125.13 503.22C1123.96 498.314 1122.21 486.049 1122.21 486.049Z" fill="#00072D"/>
<path d="M1028.95 134.457C1028.95 134.457 1009.13 149.175 994.56 146.722C979.988 144.269 972.41 126.689 972.41 126.689L946.18 123.419C946.18 123.419 927.527 181.472 927.527 187.196C927.527 192.919 946.18 254.652 946.18 265.691C946.18 276.729 931.024 283.27 954.34 282.862C977.656 282.453 966.581 277.138 1000.39 276.729C1034.2 276.32 1039.44 281.635 1046.44 273.05C1051.21 267.448 1057.1 262.354 1063.92 257.923L1051.68 227.67L1049.94 142.225C1049.94 142.225 1034.99 121.783 1028.18 123.419C1028.18 123.419 1031.87 132.413 1028.95 134.457Z" fill="#0E6BA8"/>
<path d="M1021.77 119.803C1021.77 119.803 1052.85 122.192 1061.59 126.689C1070.34 131.186 1094.82 134.457 1094.24 137.728C1093.65 140.998 1065.67 187.605 1065.67 187.605C1065.67 187.605 1052.85 224.399 1063.92 232.985C1075 241.57 1116.39 335.192 1109.39 342.959C1102.4 350.727 1080.25 319.247 1080.25 319.247C1080.25 319.247 1050.52 251.791 1034.2 240.343C1017.88 228.896 1016.71 167.163 1016.71 164.301C1016.71 161.44 1021.77 119.803 1021.77 119.803Z" fill="#0A2472"/>
<path d="M976.313 124.545C976.313 124.545 938.019 114.424 924.612 118.513C911.206 122.601 903.045 123.419 903.045 123.419L898.382 163.484C898.382 163.484 896.633 221.128 881.478 235.029C866.323 248.929 856.414 306.982 858.745 312.706C861.077 318.43 854.665 328.241 864.574 325.788C874.483 323.335 901.88 266.917 901.88 266.917C901.88 266.917 901.88 234.62 918.201 225.626C934.522 216.631 961.335 179.428 962.501 170.434C963.667 161.44 974.742 136.501 974.742 136.501L976.313 124.545Z" fill="#0A2472"/>
<path d="M1107.64 253.426C1107.64 253.426 1090.15 276.32 1087.82 280.409C1085.49 284.497 1069.17 312.297 1045.85 306.165C1022.54 300.032 1068.59 270.188 1068.59 270.188L1079.08 245.249C1079.08 245.249 1106.48 241.161 1107.64 253.426Z" fill="#FFB9B9"/>
<path d="M908.874 123.419H903.045C903.045 123.419 897.216 120.148 890.221 122.192C883.227 124.236 866.905 121.374 866.905 122.601C866.905 123.827 848.836 118.922 841.258 121.374C833.68 123.827 806.284 124.645 806.284 124.645C806.284 124.645 795.209 144.269 802.787 147.948C810.365 151.628 821.44 148.766 826.686 151.628C831.932 154.49 841.841 151.219 845.338 154.898C848.836 158.578 861.659 165.119 864.574 161.031C867.488 156.943 861.659 153.263 873.9 157.76C886.141 162.257 905.377 162.257 905.377 162.257L908.874 123.419Z" fill="#0A2472"/>
<path d="M843 165.875H595V356.648H843V165.875Z" fill="#E6E6E6"/>
<path d="M868 147.639H620V338.413H868V147.639Z" stroke="#001C55" stroke-width="2" stroke-miterlimit="10"/>
<path d="M644 159.562V305.448H845" stroke="#001C55" stroke-width="2" stroke-miterlimit="10"/>
<path d="M700 254.248H655V304.747H700V254.248Z" fill="#0A2472"/>
<path d="M765 219.881H720V304.747H765V219.881Z" fill="#001C55"/>
<path d="M830 179.902H785V304.747H830V179.902Z" fill="#0E6BA8"/>
<path d="M654.371 316.89H641V326.269H654.371V316.89Z" fill="#0E6BA8"/>
<path d="M673.686 316.89H660.314V326.269H673.686V316.89Z" fill="#001C55"/>
<path d="M693 316.89H679.628V326.269H693V316.89Z" fill="#0A2472"/>
<path d="M843 320.964H791V322.442H843V320.964Z" fill="#001C55"/>
<path d="M843 325.399H791V326.878H843V325.399Z" fill="#001C55"/>
<path d="M843 329.835H791V331.314H843V329.835Z" fill="#001C55"/>
<path d="M812.308 124.622C822.936 124.946 830.833 131.706 829.684 139.124C828.642 145.844 824.8 154.207 812.696 157.419C791.129 163.142 792.295 130.845 796.375 129.618C799.095 128.801 803.37 124.349 812.308 124.622Z" fill="#FFB9B9"/>
<path d="M1087.82 135.543L1094.24 137.728C1094.24 137.728 1108.22 157.76 1108.81 160.622C1109.39 163.484 1118.72 174.113 1115.22 176.975C1111.72 179.837 1106.48 187.196 1109.97 190.058C1113.47 192.919 1121.63 204.367 1121.63 208.455C1121.63 212.543 1112.89 223.581 1118.72 224.808C1124.55 226.034 1122.8 241.979 1121.63 243.205C1120.47 244.432 1105.31 264.464 1105.31 264.464C1105.31 264.464 1102.4 241.57 1073.83 250.973C1073.83 250.973 1071.5 239.526 1073.83 238.708C1076.17 237.89 1081.99 232.985 1077.33 232.167C1072.67 231.349 1066.26 221.537 1067.42 220.311C1068.59 219.084 1071.5 217.449 1068.59 216.223C1065.67 214.996 1063.34 208.046 1063.92 206.82C1064.51 205.593 1057.51 199.869 1057.51 199.869L1087.82 135.543Z" fill="#0A2472"/>
</g>
<defs>
<clipPath id="clip0">
<rect width="1231" height="582" fill="white"/>
</clipPath>
</defs>
</svg>
