<svg width="1243" height="563" viewBox="0 0 1243 563" fill="none" xmlns="http://www.w3.org/2000/svg">
<g clip-path="url(#clip0)">
<path opacity="0.1" d="M1035.63 305.499C997.669 348.855 1002.84 407.152 1017.63 452.959C1022.57 468.296 1028.32 484.449 1023.2 501.789C1016.94 522.961 995.889 539.811 974.792 549.567C936.339 567.355 893.025 567.482 862.015 549.902C835.216 534.706 818.071 507.799 790.672 493.441C744.827 469.421 680.555 485.28 624.407 509.125C584.684 525.996 540.9 547.282 504.988 536.093C479.72 528.22 464.495 505.213 457.813 480.034C454.581 467.88 452.811 454.574 444.858 445.388C440.127 439.928 433.515 436.323 426.642 433.389C363.852 406.589 277.133 430.97 216.724 400.505C175.92 379.93 153.643 336.574 147.271 289.955C140.899 243.337 148.721 193.254 158.134 143.896C164.827 108.835 173.599 71.2678 199.888 42.4511C227.697 11.9662 270.551 -2.07701 307.363 0.241188C344.175 2.55938 375.726 19.0012 402.745 39.2217C436.506 64.5075 466.675 96.9756 511.1 104.661C541.36 109.893 574.781 102.872 607.211 98.7042C661.419 91.7362 714.637 92.768 767.464 94.3492C818.041 95.8634 868.907 97.927 915.713 110.128C948.833 118.764 973.902 137.356 1004.74 149.242C1024.82 156.987 1047.71 157.684 1066.31 168.13C1089.24 181 1108.7 205.08 1098.46 236C1088.73 265.42 1055.82 282.485 1035.63 305.499Z" fill="#6C63FF"/>
<path d="M307.803 442.186C307.803 442.186 241.062 368.144 259.788 301.707C267.66 273.822 262.599 244.972 243.922 219.498C235.032 207.422 224.508 195.917 212.482 185.127" stroke="#535461" stroke-width="2" stroke-miterlimit="10"/>
<path d="M223.966 143.219C227.817 153.055 212.412 186.246 212.412 186.246C212.412 186.246 174.65 162.401 170.788 152.565C168.931 147.842 169.952 142.818 173.625 138.599C177.298 134.38 183.323 131.311 190.375 130.067C197.427 128.823 204.927 129.506 211.227 131.967C217.526 134.427 222.109 138.462 223.966 143.185V143.219Z" fill="#6C63FF"/>
<path d="M289.267 189.971C284.526 199.633 244.653 221.883 244.653 221.883C244.653 221.883 232.299 188.122 237.05 178.461C238.14 176.133 239.909 173.973 242.256 172.107C244.603 170.241 247.48 168.705 250.72 167.591C253.96 166.476 257.499 165.803 261.131 165.613C264.762 165.422 268.414 165.716 271.874 166.479C275.335 167.242 278.534 168.458 281.286 170.056C284.039 171.654 286.29 173.602 287.908 175.788C289.526 177.974 290.48 180.354 290.713 182.788C290.947 185.223 290.455 187.665 289.267 189.971V189.971Z" fill="#6C63FF"/>
<path d="M323.829 283.403C312.455 290.103 261.258 295.865 261.258 295.865C261.258 295.865 276.043 262.546 287.417 255.812C292.896 252.658 300.009 251.076 307.217 251.408C314.424 251.739 321.148 253.958 325.932 257.584C330.716 261.21 333.176 265.952 332.781 270.784C332.385 275.616 329.166 280.149 323.819 283.403H323.829Z" fill="#6C63FF"/>
<path d="M326.219 358.041C316.706 365.967 267.7 377.404 267.7 377.404C267.7 377.404 273.862 342.885 283.375 334.966C287.958 331.189 294.586 328.781 301.812 328.268C309.037 327.755 316.272 329.179 321.935 332.228C327.598 335.278 331.227 339.705 332.03 344.542C332.833 349.379 330.744 354.232 326.219 358.041Z" fill="#6C63FF"/>
<path d="M189.574 233.602C202.789 238.6 254.596 237.072 254.596 237.072C254.596 237.072 229.788 206.541 216.583 201.562C213.435 200.3 209.941 199.473 206.308 199.13C202.675 198.786 198.976 198.933 195.429 199.562C191.882 200.192 188.559 201.29 185.656 202.793C182.753 204.295 180.328 206.172 178.525 208.313C176.722 210.453 175.577 212.813 175.157 215.255C174.738 217.696 175.052 220.169 176.082 222.528C177.112 224.886 178.836 227.083 181.153 228.989C183.47 230.894 186.334 232.469 189.574 233.622V233.602Z" fill="#6C63FF"/>
<path d="M194.016 320.869C208.861 322.993 257.657 311.141 257.657 311.141C257.657 311.141 220.365 286.981 205.49 284.85C198.36 283.831 190.917 284.751 184.8 287.407C178.682 290.063 174.391 294.238 172.869 299.014C171.348 303.789 172.721 308.774 176.687 312.872C180.652 316.969 186.886 319.843 194.016 320.862V320.869Z" fill="#6C63FF"/>
<path d="M215.713 405.289C229.808 409.061 280.895 402.904 280.895 402.904C280.895 402.904 250.215 374.864 236.12 371.092C229.418 369.481 222.044 369.675 215.551 371.632C209.057 373.589 203.952 377.158 201.308 381.586C198.665 386.015 198.69 390.957 201.379 395.374C204.068 399.79 209.21 403.335 215.723 405.262L215.713 405.289Z" fill="#6C63FF"/>
<path d="M223.966 143.219C227.817 153.055 212.412 186.246 212.412 186.246C212.412 186.246 174.65 162.401 170.788 152.565C168.931 147.842 169.952 142.818 173.625 138.599C177.298 134.38 183.323 131.311 190.375 130.067C197.427 128.823 204.927 129.506 211.227 131.967C217.526 134.427 222.109 138.462 223.966 143.185V143.219Z" fill="#6C63FF"/>
<path d="M289.267 189.971C284.526 199.633 244.653 221.883 244.653 221.883C244.653 221.883 232.299 188.122 237.05 178.461C238.14 176.133 239.909 173.973 242.256 172.107C244.603 170.241 247.48 168.705 250.72 167.591C253.96 166.476 257.499 165.803 261.131 165.613C264.762 165.422 268.414 165.716 271.874 166.479C275.335 167.242 278.534 168.458 281.286 170.056C284.039 171.654 286.29 173.602 287.908 175.788C289.526 177.974 290.48 180.354 290.713 182.788C290.947 185.223 290.455 187.665 289.267 189.971V189.971Z" fill="#6C63FF"/>
<path d="M323.829 283.403C312.455 290.103 261.258 295.865 261.258 295.865C261.258 295.865 276.043 262.546 287.417 255.812C292.896 252.658 300.009 251.076 307.217 251.408C314.424 251.739 321.148 253.958 325.932 257.584C330.716 261.21 333.176 265.952 332.781 270.784C332.385 275.616 329.166 280.149 323.819 283.403H323.829Z" fill="#FC6681"/>
<path d="M326.219 358.041C316.706 365.967 267.7 377.404 267.7 377.404C267.7 377.404 273.862 342.885 283.375 334.966C287.958 331.189 294.586 328.781 301.812 328.268C309.037 327.755 316.272 329.179 321.935 332.228C327.598 335.278 331.227 339.705 332.03 344.542C332.833 349.379 330.744 354.232 326.219 358.041Z" fill="#FC6681"/>
<path d="M189.574 233.602C202.789 238.6 254.596 237.072 254.596 237.072C254.596 237.072 229.788 206.541 216.583 201.562C213.435 200.3 209.941 199.473 206.308 199.13C202.675 198.786 198.976 198.933 195.429 199.562C191.882 200.192 188.559 201.29 185.656 202.793C182.753 204.295 180.328 206.172 178.525 208.313C176.722 210.453 175.577 212.813 175.157 215.255C174.738 217.696 175.052 220.169 176.082 222.528C177.112 224.886 178.836 227.083 181.153 228.989C183.47 230.894 186.334 232.469 189.574 233.622V233.602Z" fill="#6C63FF"/>
<path d="M194.016 320.869C208.861 322.993 257.657 311.141 257.657 311.141C257.657 311.141 220.365 286.981 205.49 284.85C198.36 283.831 190.917 284.751 184.8 287.407C178.682 290.063 174.391 294.238 172.869 299.014C171.348 303.789 172.721 308.774 176.687 312.872C180.652 316.969 186.886 319.843 194.016 320.862V320.869Z" fill="#6C63FF"/>
<path d="M215.713 405.289C229.808 409.061 280.895 402.904 280.895 402.904C280.895 402.904 250.215 374.864 236.12 371.092C229.418 369.481 222.044 369.675 215.551 371.632C209.057 373.589 203.952 377.158 201.308 381.586C198.665 386.015 198.69 390.957 201.379 395.374C204.068 399.79 209.21 403.335 215.723 405.262L215.713 405.289Z" fill="#6C63FF"/>
<path opacity="0.1" d="M641.343 472.738C906.802 472.738 1122 462.839 1122 450.628C1122 438.417 906.802 428.518 641.343 428.518C375.883 428.518 160.685 438.417 160.685 450.628C160.685 462.839 375.883 472.738 641.343 472.738Z" fill="#6C63FF"/>
<path d="M1054.95 431.687C1054.95 431.687 1054.15 430.97 1053.04 430.166L1053.36 430.092C1053.36 430.092 1039.07 406.18 1042.25 396.083C1045.43 385.986 1029.56 361.545 1029.56 361.545C1029.56 361.545 1006.14 329.425 1017.23 303.791C1018.49 300.772 1019.45 297.698 1020.09 294.592C1023.4 279.41 1022.23 276.281 1016.68 270.733L1016.07 270.137C1016.75 269.69 1017.29 269.154 1017.66 268.562C1022.42 260.06 995.449 244.65 1002.62 230.299C1009.24 216.999 992.007 189.556 989.447 185.61L989.156 185.161L988.296 185.348C988.44 181.922 990.455 178.649 993.958 176.149L994.118 176.042C996.499 174.575 999.39 173.496 1001.62 171.922L1001.75 171.821C1001.97 171.681 1002.2 171.54 1002.41 171.392C1004.62 169.838 1006.13 167.533 1004.93 165.537C1003.84 163.714 1000.78 162.602 1000.06 160.699C999.887 159.844 999.78 158.983 999.74 158.12C999.16 155.44 995.268 153.758 991.737 152.431C987.346 150.77 982.734 149.081 977.663 149.041C970.8 149.041 964.658 152.123 957.846 152.505C955.525 152.639 953.115 152.452 950.914 152.967C949.237 153.435 947.696 154.097 946.362 154.924C945.578 155.337 944.837 155.785 944.142 156.264C942.601 157.229 941.291 158.368 941.351 159.734C941.462 160.732 942.16 161.66 943.291 162.314C941.096 164.314 939.581 166.612 938.853 169.047C938.125 171.481 938.201 173.993 939.078 176.406C939.954 178.818 941.608 181.073 943.924 183.011C946.24 184.95 949.162 186.525 952.484 187.626C952.565 187.995 952.645 188.37 952.725 188.765C953.725 193.797 954.315 200.913 951.644 206.487C940.25 210.42 922.495 216.832 919.314 219.679C919.067 219.92 918.901 220.194 918.829 220.482C918.756 220.77 918.778 221.066 918.893 221.348C918.803 221.609 918.783 221.879 918.833 222.145C916.343 222.527 913.032 222.145 909 219.679C899.477 213.837 869.337 196.296 869.337 196.296C869.337 196.296 855.853 173.979 846.33 178.206C836.807 182.434 857.433 203.184 857.433 203.184L902.588 235.612C902.588 235.612 904.179 242.519 920.834 238.801C926.336 237.575 931.308 236.402 935.509 235.391L936.509 235.96C932.758 250.66 930.817 270.251 944.652 275.999C945.735 276.961 946.518 278.06 946.953 279.229C946.883 279.403 946.813 279.584 946.753 279.758C945.692 282.692 945.023 285.683 944.752 288.696C942.144 292.689 940.943 297.031 941.241 301.386L935.939 351.977C935.939 351.977 935.149 363.133 940.701 371.635C946.252 380.137 963.708 422.649 951.804 425.838L952.935 425.938C949.524 428.29 943.782 431.854 939.41 432.558C932.768 433.617 934.629 440.437 949.353 441.576C964.078 442.715 965.849 442.621 976.202 436.839C985.325 431.747 986.776 429.469 986.986 428.98L987.506 429.027C987.506 429.027 981.954 415.212 987.506 409.369C993.058 403.527 974.822 367.93 974.822 367.93C974.669 363.381 974.919 358.831 975.572 354.302C978.373 359.213 980.374 362.617 980.374 362.617C980.374 362.617 985.135 378.027 990.687 380.707C996.239 383.387 1025.6 420.029 1020.84 435.968L1020.29 437.824L1021.63 437.563H1021.75C1019.92 440.598 1016.59 445.395 1012.9 447.157C1007.35 449.837 1012.9 455.659 1027.19 453C1041.47 450.34 1043.05 449.81 1049.41 441.844C1055.76 433.878 1054.95 431.687 1054.95 431.687Z" fill="url(#paint0_linear)"/>
<path d="M949.813 289.808L946.332 286.934C942.772 291.364 941.075 296.359 941.421 301.385L936.239 350.852C936.239 350.852 935.459 361.759 940.891 370.074C946.322 378.388 963.388 419.948 951.754 423.064L986.615 426.22C986.615 426.22 981.184 412.713 986.615 406.997C992.047 401.282 974.201 366.476 974.201 366.476C974.201 366.476 972.651 337.385 987.386 330.624C1002.12 323.864 949.813 289.808 949.813 289.808Z" fill="#555388"/>
<path d="M955.696 421.114C955.696 421.114 946.122 428.605 939.64 429.643C933.158 430.682 934.969 437.342 949.364 438.461C963.758 439.58 965.489 439.486 975.622 433.831C985.756 428.176 986.206 426.052 986.206 426.052C986.206 426.052 984.205 421.027 981.784 420.92C979.363 420.813 955.696 421.114 955.696 421.114Z" fill="#603556"/>
<path opacity="0.1" d="M952.144 291.369L946.343 286.934C942.782 291.364 941.085 296.359 941.431 301.385L936.249 350.852C936.249 350.852 935.469 361.759 940.901 370.074C946.333 378.388 963.398 419.948 951.764 423.064L986.616 426.22C986.616 426.22 981.184 412.713 986.616 406.997C992.048 401.282 974.202 366.476 974.202 366.476C974.202 366.476 972.651 337.385 987.386 330.624C1002.12 323.864 952.144 291.369 952.144 291.369Z" fill="black"/>
<path d="M986.676 359.166C986.676 359.166 976.983 231.726 937.19 186.621C937.19 186.621 908.01 150.924 883.622 140.512V136.398C843.829 117.947 794.863 136.398 794.863 136.398V138.221L784.66 143.916L738.714 143.808C736.635 142.13 734.029 140.779 731.081 139.853C728.132 138.926 724.915 138.447 721.659 138.449H512.01C508.946 138.446 505.914 138.87 503.108 139.694C500.301 140.517 497.78 141.722 495.705 143.232H447.989C447.989 143.232 445.178 141.041 437.786 138.837V136.398C397.993 117.947 349.027 136.398 349.027 136.398V141.35C347.864 141.864 346.83 142.5 345.966 143.232C345.966 143.232 305.663 161.322 296.48 183.888C296.48 183.888 246.993 283.316 245.973 361.216C244.953 439.117 289.848 450.052 313.305 452.102C336.763 454.152 378.597 451.432 419.41 382.422L436.756 342.108C436.756 342.108 439.817 318.189 476.549 333.224C513.281 348.259 545.921 325.023 545.921 325.023H683.667C683.667 325.023 729.532 344.131 771.405 329.07C771.405 329.07 787.731 314.718 803.036 363.24C803.036 363.24 849.971 463.009 922.405 452.758C994.838 442.507 986.676 359.166 986.676 359.166Z" fill="url(#paint1_linear)"/>
<path d="M354.249 146.783V139.413C354.249 139.413 402.264 121.323 441.277 139.413V146.113L354.249 146.783Z" fill="#535461"/>
<path d="M791.392 146.783V139.413C791.392 139.413 839.407 121.323 878.42 139.413V146.113L791.392 146.783Z" fill="#535461"/>
<path opacity="0.1" d="M354.249 146.783V139.413C354.249 139.413 402.264 121.323 441.277 139.413V146.113L354.249 146.783Z" fill="black"/>
<path opacity="0.1" d="M791.392 146.783V139.413C791.392 139.413 839.407 121.323 878.42 139.413V146.113L791.392 146.783Z" fill="black"/>
<path d="M498.296 146.113H451.28C451.28 146.113 439.276 136.733 399.263 137.403C359.25 138.073 351.248 146.113 351.248 146.113C351.248 146.113 311.735 163.868 302.732 185.978C302.732 185.978 254.216 283.463 253.215 359.843C252.215 436.223 296.23 446.943 319.237 448.953C342.245 450.963 383.258 448.283 423.271 380.613L440.277 341.083C440.277 341.083 443.278 317.633 479.29 332.373C515.301 347.113 547.312 324.333 547.312 324.333H682.356C682.356 324.333 727.371 343.093 768.384 328.353C768.384 328.353 784.39 314.283 799.394 361.853C799.394 361.853 845.41 459.673 916.433 449.623C987.456 439.573 979.453 357.833 979.453 357.833C979.453 357.833 969.95 232.878 930.938 188.658C930.938 188.658 893.425 142.763 868.417 140.753C868.417 140.753 814.399 134.053 793.392 140.083L781.389 146.783L498.296 146.113Z" fill="#535461"/>
<path d="M389.26 270.063C437.324 270.063 476.288 243.966 476.288 211.773C476.288 179.581 437.324 153.483 389.26 153.483C341.195 153.483 302.231 179.581 302.231 211.773C302.231 243.966 341.195 270.063 389.26 270.063Z" fill="#E2E2EC"/>
<path d="M843.409 270.063C891.473 270.063 930.437 243.966 930.437 211.773C930.437 179.581 891.473 153.483 843.409 153.483C795.344 153.483 756.38 179.581 756.38 211.773C756.38 243.966 795.344 270.063 843.409 270.063Z" fill="#E2E2EC"/>
<path d="M404.425 198.775L392.821 205.649C391.838 206.229 390.574 206.548 389.265 206.548C387.956 206.548 386.691 206.229 385.709 205.649L374.085 198.775C373.517 198.44 373.06 198.028 372.747 197.566C372.433 197.104 372.269 196.603 372.264 196.095V177.181C372.267 176.226 372.835 175.311 373.844 174.637C374.853 173.962 376.221 173.583 377.646 173.583H400.904C401.611 173.582 402.311 173.675 402.965 173.856C403.618 174.037 404.212 174.302 404.712 174.637C405.212 174.972 405.609 175.37 405.879 175.807C406.149 176.245 406.287 176.714 406.286 177.188V196.082C406.279 196.594 406.11 197.099 405.789 197.563C405.468 198.027 405.003 198.441 404.425 198.775V198.775Z" fill="#535461"/>
<path d="M404.425 224.764L392.821 217.897C391.838 217.318 390.574 216.998 389.265 216.998C387.956 216.998 386.691 217.318 385.709 217.897L374.085 224.771C373.517 225.107 373.06 225.519 372.747 225.981C372.433 226.443 372.269 226.944 372.264 227.451V246.345C372.263 246.819 372.401 247.288 372.671 247.726C372.941 248.163 373.338 248.561 373.838 248.896C374.338 249.231 374.932 249.496 375.585 249.677C376.239 249.858 376.939 249.951 377.646 249.95H400.904C401.61 249.951 402.31 249.858 402.963 249.678C403.615 249.497 404.209 249.232 404.709 248.898C405.209 248.564 405.605 248.167 405.876 247.73C406.146 247.293 406.286 246.825 406.286 246.352V227.458C406.279 226.946 406.11 226.441 405.789 225.977C405.468 225.512 405.003 225.099 404.425 224.764V224.764Z" fill="#535461"/>
<path d="M369.864 221.944L380.127 214.158C380.992 213.5 381.469 212.653 381.469 211.777C381.469 210.9 380.992 210.053 380.127 209.395L369.864 201.609C369.362 201.229 368.747 200.924 368.057 200.713C367.368 200.503 366.62 200.393 365.862 200.39H337.653C336.227 200.392 334.861 200.772 333.854 201.448C332.847 202.124 332.281 203.04 332.281 203.994V219.572C332.28 220.046 332.418 220.515 332.688 220.952C332.958 221.39 333.355 221.788 333.855 222.123C334.355 222.458 334.948 222.723 335.602 222.904C336.255 223.085 336.956 223.177 337.663 223.177H365.872C366.63 223.171 367.377 223.059 368.065 222.846C368.753 222.634 369.366 222.326 369.864 221.944V221.944Z" fill="#535461"/>
<path d="M408.666 221.944L398.423 214.152C397.556 213.494 397.077 212.647 397.077 211.77C397.077 210.893 397.556 210.046 398.423 209.388L408.686 201.603C409.187 201.222 409.803 200.916 410.492 200.706C411.182 200.496 411.93 200.386 412.688 200.383H440.897C441.604 200.382 442.304 200.475 442.958 200.656C443.612 200.837 444.205 201.102 444.705 201.437C445.205 201.772 445.602 202.17 445.872 202.607C446.142 203.045 446.28 203.514 446.279 203.988V219.565C446.28 220.038 446.142 220.507 445.873 220.944C445.603 221.382 445.208 221.779 444.709 222.114C444.21 222.449 443.617 222.714 442.965 222.895C442.313 223.077 441.613 223.17 440.907 223.17H412.698C411.934 223.169 411.18 223.059 410.485 222.848C409.79 222.637 409.17 222.328 408.666 221.944Z" fill="#535461"/>
<path d="M374.255 168.893H404.265L389.26 160.183L374.255 168.893Z" stroke="#535461" stroke-width="2" stroke-miterlimit="10"/>
<path d="M374.255 254.653H404.265L389.26 263.363L374.255 254.653Z" stroke="#535461" stroke-width="2" stroke-miterlimit="10"/>
<path d="M325.239 201.723V221.823L312.235 211.773L325.239 201.723Z" stroke="#535461" stroke-width="2" stroke-miterlimit="10"/>
<path d="M453.281 201.723V221.823L466.285 211.773L453.281 201.723Z" stroke="#535461" stroke-width="2" stroke-miterlimit="10"/>
<path d="M507.299 317.633C542.104 317.633 570.319 298.735 570.319 275.423C570.319 252.111 542.104 233.213 507.299 233.213C472.493 233.213 444.278 252.111 444.278 275.423C444.278 298.735 472.493 317.633 507.299 317.633Z" fill="#E2E2EC"/>
<path d="M505.298 296.863C528.502 296.863 547.312 284.264 547.312 268.723C547.312 253.182 528.502 240.583 505.298 240.583C482.094 240.583 463.284 253.182 463.284 268.723C463.284 284.264 482.094 296.863 505.298 296.863Z" fill="#535461"/>
<path d="M725.37 317.633C760.176 317.633 788.391 298.735 788.391 275.423C788.391 252.111 760.176 233.213 725.37 233.213C690.565 233.213 662.35 252.111 662.35 275.423C662.35 298.735 690.565 317.633 725.37 317.633Z" fill="#E2E2EC"/>
<path d="M723.369 296.863C746.573 296.863 765.383 284.264 765.383 268.723C765.383 253.182 746.573 240.583 723.369 240.583C700.166 240.583 681.356 253.182 681.356 268.723C681.356 284.264 700.166 296.863 723.369 296.863Z" fill="#535461"/>
<path opacity="0.1" d="M505.298 287.483C520.767 287.483 533.307 279.084 533.307 268.723C533.307 258.362 520.767 249.963 505.298 249.963C489.829 249.963 477.289 258.362 477.289 268.723C477.289 279.084 489.829 287.483 505.298 287.483Z" stroke="black" stroke-width="2" stroke-miterlimit="10"/>
<path opacity="0.1" d="M723.37 287.483C738.839 287.483 751.379 279.084 751.379 268.723C751.379 258.362 738.839 249.963 723.37 249.963C707.9 249.963 695.36 258.362 695.36 268.723C695.36 279.084 707.9 287.483 723.37 287.483Z" stroke="black" stroke-width="2" stroke-miterlimit="10"/>
<path d="M618.335 292.173C628.279 292.173 636.341 286.774 636.341 280.113C636.341 273.453 628.279 268.053 618.335 268.053C608.391 268.053 600.329 273.453 600.329 280.113C600.329 286.774 608.391 292.173 618.335 292.173Z" fill="#E2E2EC"/>
<path d="M590.816 242.493C592.987 242.493 594.747 241.314 594.747 239.86C594.747 238.405 592.987 237.226 590.816 237.226C588.645 237.226 586.885 238.405 586.885 239.86C586.885 241.314 588.645 242.493 590.816 242.493Z" fill="#E2E2EC"/>
<path d="M605.541 242.493C607.712 242.493 609.472 241.314 609.472 239.86C609.472 238.405 607.712 237.226 605.541 237.226C603.37 237.226 601.61 238.405 601.61 239.86C601.61 241.314 603.37 242.493 605.541 242.493Z" fill="#E2E2EC"/>
<path d="M603.58 254.988C605.751 254.988 607.512 253.809 607.512 252.355C607.512 250.901 605.751 249.722 603.58 249.722C601.409 249.722 599.649 250.901 599.649 252.355C599.649 253.809 601.409 254.988 603.58 254.988Z" fill="#E2E2EC"/>
<path d="M617.335 255.323C619.545 255.323 621.336 254.123 621.336 252.643C621.336 251.163 619.545 249.963 617.335 249.963C615.125 249.963 613.333 251.163 613.333 252.643C613.333 254.123 615.125 255.323 617.335 255.323Z" fill="#E2E2EC"/>
<path d="M631.069 254.988C633.24 254.988 635 253.809 635 252.355C635 250.901 633.24 249.722 631.069 249.722C628.898 249.722 627.138 250.901 627.138 252.355C627.138 253.809 628.898 254.988 631.069 254.988Z" fill="#E2E2EC"/>
<path d="M597.688 249.072C599.859 249.072 601.619 247.893 601.619 246.439C601.619 244.985 599.859 243.806 597.688 243.806C595.517 243.806 593.757 244.985 593.757 246.439C593.757 247.893 595.517 249.072 597.688 249.072Z" fill="#E2E2EC"/>
<path d="M610.332 249.293C612.542 249.293 614.334 248.093 614.334 246.613C614.334 245.133 612.542 243.933 610.332 243.933C608.122 243.933 606.331 245.133 606.331 246.613C606.331 248.093 608.122 249.293 610.332 249.293Z" fill="#E2E2EC"/>
<path d="M623.337 249.293C625.547 249.293 627.338 248.093 627.338 246.613C627.338 245.133 625.547 243.933 623.337 243.933C621.127 243.933 619.335 245.133 619.335 246.613C619.335 248.093 621.127 249.293 623.337 249.293Z" fill="#E2E2EC"/>
<path d="M636.961 249.072C639.132 249.072 640.892 247.893 640.892 246.439C640.892 244.985 639.132 243.806 636.961 243.806C634.79 243.806 633.03 244.985 633.03 246.439C633.03 247.893 634.79 249.072 636.961 249.072Z" fill="#E2E2EC"/>
<path d="M617.335 242.593C619.545 242.593 621.336 241.393 621.336 239.913C621.336 238.433 619.545 237.233 617.335 237.233C615.125 237.233 613.333 238.433 613.333 239.913C613.333 241.393 615.125 242.593 617.335 242.593Z" fill="#E2E2EC"/>
<path d="M631.339 242.593C633.549 242.593 635.341 241.393 635.341 239.913C635.341 238.433 633.549 237.233 631.339 237.233C629.129 237.233 627.338 238.433 627.338 239.913C627.338 241.393 629.129 242.593 631.339 242.593Z" fill="#E2E2EC"/>
<path d="M642.853 242.493C645.024 242.493 646.784 241.314 646.784 239.86C646.784 238.405 645.024 237.226 642.853 237.226C640.682 237.226 638.922 238.405 638.922 239.86C638.922 241.314 640.682 242.493 642.853 242.493Z" fill="#E2E2EC"/>
<path d="M473.788 150.803H468.786C464.09 150.803 460.283 153.353 460.283 156.498V170.568C460.283 173.714 464.09 176.263 468.786 176.263H473.788C478.484 176.263 482.29 173.714 482.29 170.568V156.498C482.29 153.353 478.484 150.803 473.788 150.803Z" fill="#E2E2EC"/>
<path d="M765.883 150.803H760.882C756.186 150.803 752.379 153.353 752.379 156.498V170.568C752.379 173.714 756.186 176.263 760.882 176.263H765.883C770.579 176.263 774.386 173.714 774.386 170.568V156.498C774.386 153.353 770.579 150.803 765.883 150.803Z" fill="#E2E2EC"/>
<path d="M844.409 192.343C857.668 192.343 868.417 185.144 868.417 176.263C868.417 167.383 857.668 160.183 844.409 160.183C831.15 160.183 820.401 167.383 820.401 176.263C820.401 185.144 831.15 192.343 844.409 192.343Z" fill="#535461"/>
<path d="M793.392 226.513C806.652 226.513 817.4 219.314 817.4 210.433C817.4 201.553 806.652 194.353 793.392 194.353C780.133 194.353 769.385 201.553 769.385 210.433C769.385 219.314 780.133 226.513 793.392 226.513Z" fill="#535461"/>
<path d="M897.426 224.503C910.686 224.503 921.434 217.304 921.434 208.423C921.434 199.543 910.686 192.343 897.426 192.343C884.167 192.343 873.418 199.543 873.418 208.423C873.418 217.304 884.167 224.503 897.426 224.503Z" fill="#535461"/>
<path d="M848.41 260.013C861.67 260.013 872.418 252.814 872.418 243.933C872.418 235.052 861.67 227.853 848.41 227.853C835.151 227.853 824.403 235.052 824.403 243.933C824.403 252.814 835.151 260.013 848.41 260.013Z" fill="#535461"/>
<path d="M719.618 141.423H514.051C502.035 141.423 492.294 147.948 492.294 155.996V215.961C492.294 224.009 502.035 230.533 514.051 230.533H719.618C731.634 230.533 741.375 224.009 741.375 215.961V155.996C741.375 147.948 731.634 141.423 719.618 141.423Z" fill="#E2E2EC"/>
<path d="M829.904 182.963L843.909 166.883L858.914 182.963H829.904Z" stroke="#E2E2EC" stroke-width="2" stroke-miterlimit="10"/>
<path d="M805.896 203.063H780.888V217.803H805.896V203.063Z" stroke="#E2E2EC" stroke-width="2" stroke-miterlimit="10"/>
<path d="M897.426 217.803C905.161 217.803 911.431 213.604 911.431 208.423C911.431 203.243 905.161 199.043 897.426 199.043C889.692 199.043 883.422 203.243 883.422 208.423C883.422 213.604 889.692 217.803 897.426 217.803Z" stroke="#E2E2EC" stroke-width="2" stroke-miterlimit="10"/>
<path d="M836.907 236.396L859.414 251.471" stroke="#E2E2EC" stroke-width="2" stroke-miterlimit="10"/>
<path d="M859.914 236.396L836.907 251.136" stroke="#E2E2EC" stroke-width="2" stroke-miterlimit="10"/>
<path d="M489.103 445.301C492.104 443.767 494.955 441.951 495.825 439.76C496.271 438.597 496.032 437.362 495.16 436.313C494.287 435.263 492.845 434.478 491.133 434.119C486.822 433.221 482.22 434.849 478.719 436.498C475.218 438.146 471.227 440.028 466.655 439.68C471.387 437.389 473.658 433.65 472.337 430.3C472.115 429.57 471.563 428.904 470.757 428.391C468.366 426.99 464.024 427.593 461.163 428.692C452.05 432.196 449.51 438.956 449.46 445.047C448.539 442.849 449.32 440.564 449.29 438.306C449.26 436.049 448.139 433.556 444.658 432.344C442.431 431.699 440.02 431.39 437.596 431.439C433.504 431.359 428.933 431.58 426.142 433.221C422.671 435.231 423.571 438.668 426.592 440.906C429.613 443.144 434.215 444.551 438.446 446.099C441.677 447.278 444.938 448.651 446.919 450.514C447.172 450.761 447.384 451.026 447.549 451.304H473.227C478.869 449.75 484.202 447.734 489.103 445.301V445.301Z" fill="#6C63FF"/>
<path d="M1021.57 431.908C1021.57 431.908 1016.92 441.288 1011.48 443.861C1006.05 446.434 1011.48 452.176 1025.49 449.576C1039.49 446.976 1041 446.46 1047.21 438.668C1053.41 430.876 1052.64 428.799 1052.64 428.799C1052.64 428.799 1047.99 424.645 1045.64 425.161C1043.28 425.677 1021.57 431.908 1021.57 431.908Z" fill="#603556"/>
<path d="M992.868 198.628C992.868 198.628 930.037 222.004 944.772 215.25C954.675 210.715 954.075 198.675 952.615 191.258C952.154 188.946 951.614 187.084 951.284 186.039C951.094 185.449 950.974 185.121 950.974 185.121C950.974 185.121 981.444 172.873 979.733 180.236C979.733 180.303 979.733 180.37 979.683 180.437C979.536 180.929 979.459 181.43 979.453 181.931C979.243 189.502 992.868 198.628 992.868 198.628Z" fill="#C87486"/>
<path d="M924.595 221.488C924.595 221.488 919.163 227.203 909.86 221.488C900.557 215.773 871.078 198.628 871.078 198.628C871.078 198.628 857.893 176.806 848.57 180.967C839.247 185.127 859.434 205.388 859.434 205.388L903.648 237.079C903.648 237.079 905.199 243.833 921.494 240.195C937.79 236.556 949.423 233.441 949.423 233.441L924.595 221.488Z" fill="#C87486"/>
<path d="M1051.05 427.231L1020.04 434.508L1018.73 434.762L1019.27 432.947C1023.92 417.362 995.259 381.511 989.787 378.911C984.315 376.312 979.683 361.23 979.683 361.23C979.683 361.23 969.52 326.939 967.97 319.69C967.579 317.874 966.159 316.427 964.438 314.43C961.844 311.405 959.827 308.172 958.436 304.809C955.025 296.769 947.073 282.498 949.994 274.425C950.584 272.783 948.173 276.977 948.993 275.376L949.463 274.492L1012.26 268.77C1013.31 269.617 1014.28 270.501 1015.19 271.417C1019.94 276.14 1019.63 276.14 1020.63 285.118C1020.19 290.535 1019.05 295.915 1017.22 301.198C1008.76 326.41 1027.83 360.158 1027.83 360.158C1027.83 360.158 1043.34 384.057 1040.24 393.926C1037.14 403.795 1051.05 427.231 1051.05 427.231Z" fill="#555388"/>
<path opacity="0.1" d="M1015.19 271.41C1005.89 279.215 946.363 285.279 947.103 282.8C947.326 281.944 947.23 281.065 946.823 280.24C947.414 278.594 948.129 276.968 948.963 275.37L949.434 274.485L1012.26 268.77C1013.31 269.615 1014.28 270.496 1015.19 271.41V271.41Z" fill="black"/>
<path d="M988.216 187.7C988.216 187.7 962.608 192.913 955.606 204.866C948.603 216.818 960.917 217.468 960.917 217.468C960.917 217.468 938.91 256.328 944.742 276.562C944.742 276.562 947.843 279.162 947.073 281.755C946.303 284.348 1011.45 277.601 1016.1 269.286C1020.74 260.971 994.378 245.91 1001.36 231.88C1008.34 217.85 988.216 187.7 988.216 187.7Z" fill="#DFE5EE"/>
<path opacity="0.1" d="M979.684 181.483C979.64 181.639 979.562 181.79 979.453 181.932C978.393 183.272 975.022 181.804 976.192 183.814C971.691 186.843 970.27 192.906 963.398 192.906C959.661 192.914 955.97 192.352 952.605 191.265C952.144 188.953 951.604 187.09 951.274 186.045C954.275 184.853 978.283 175.54 979.724 180.243C979.835 180.654 979.822 181.075 979.684 181.483V181.483Z" fill="black"/>
<path d="M963.388 191.874C977.095 191.874 988.206 184.432 988.206 175.252C988.206 166.071 977.095 158.629 963.388 158.629C949.681 158.629 938.57 166.071 938.57 175.252C938.57 184.432 949.681 191.874 963.388 191.874Z" fill="#C87486"/>
<path opacity="0.1" d="M988.216 228.242L944.782 241.749C944.782 241.749 915.302 226.687 919.954 222.54C924.605 218.393 961.067 206.46 961.067 206.46C961.067 206.46 998.299 211.619 988.216 228.242Z" fill="black"/>
<path d="M988.216 227.23L944.782 240.737C944.782 240.737 915.302 225.669 919.964 221.515C924.625 217.361 961.077 205.435 961.077 205.435C961.077 205.435 998.3 210.581 988.216 227.23Z" fill="#DFE5EE"/>
<path opacity="0.1" d="M956.226 168.129C952.434 167.875 948.513 167.593 945.222 166.314C943.311 165.577 941.561 164.357 941.501 162.877C941.431 161.135 943.622 159.775 945.632 158.669C946.937 157.862 948.444 157.216 950.084 156.76C952.234 156.257 954.585 156.438 956.856 156.311C963.538 155.935 969.52 152.894 976.232 152.92C981.164 152.92 985.695 154.609 989.987 156.237C993.418 157.537 997.229 159.185 997.799 161.798C997.837 162.641 997.941 163.482 998.109 164.317C998.82 166.18 1001.81 167.265 1002.88 169.047C1004.05 170.997 1002.57 173.255 1000.41 174.776C998.249 176.297 995.409 177.342 993.138 178.762C991.031 180.071 989.36 181.663 988.236 183.434C987.112 185.205 986.56 187.116 986.616 189.04C986.666 189.294 986.607 189.552 986.446 189.784C986.274 189.923 986.06 190.036 985.819 190.117C985.578 190.198 985.314 190.244 985.045 190.253C982.574 190.561 979.523 190.729 978.043 189.362C976.562 187.995 977.733 185.717 976.042 184.37C973.891 182.635 969.37 184.015 966.459 182.876C965.478 182.45 964.711 181.836 964.258 181.114C961.858 177.65 964.608 174.93 965.609 171.62C966.779 167.754 960.297 168.404 956.226 168.129Z" fill="black"/>
<path d="M957.006 167.6C953.215 167.346 949.294 167.064 946.002 165.784C944.092 165.047 942.341 163.828 942.281 162.347C942.211 160.605 944.402 159.245 946.413 158.14C947.717 157.333 949.224 156.686 950.864 156.23C953.015 155.728 955.366 155.909 957.636 155.781C964.318 155.406 970.3 152.364 977.013 152.391C981.944 152.391 986.476 154.08 990.767 155.708C994.198 157.007 998.009 158.656 998.58 161.269C998.618 162.111 998.721 162.952 998.89 163.788C999.6 165.65 1002.59 166.736 1003.66 168.518C1004.83 170.468 1003.35 172.726 1001.19 174.247C999.03 175.767 996.189 176.813 993.918 178.233C991.804 179.544 990.129 181.14 989.003 182.916C987.877 184.693 987.326 186.608 987.386 188.538C987.437 188.791 987.377 189.049 987.216 189.281C987.044 189.42 986.831 189.534 986.589 189.615C986.348 189.695 986.085 189.742 985.815 189.75C983.345 190.059 980.294 190.226 978.813 188.859C977.333 187.492 978.503 185.214 976.813 183.868C974.662 182.132 970.14 183.513 967.229 182.374C966.248 181.948 965.481 181.334 965.029 180.612C962.608 177.141 965.369 174.401 966.369 171.057C967.549 167.232 961.067 167.888 957.006 167.6Z" fill="#603456"/>
</g>
<defs>
<linearGradient id="paint0_linear" x1="949.383" y1="453.623" x2="949.383" y2="149.014" gradientUnits="userSpaceOnUse">
<stop stop-color="#808080" stop-opacity="0.25"/>
<stop offset="0.54" stop-color="#808080" stop-opacity="0.12"/>
<stop offset="1" stop-color="#808080" stop-opacity="0.1"/>
</linearGradient>
<linearGradient id="paint1_linear" x1="432224" y1="230034" x2="432224" y2="72081.3" gradientUnits="userSpaceOnUse">
<stop stop-color="#808080" stop-opacity="0.25"/>
<stop offset="0.54" stop-color="#808080" stop-opacity="0.12"/>
<stop offset="1" stop-color="#808080" stop-opacity="0.1"/>
</linearGradient>
<clipPath id="clip0">
<rect width="1243" height="563" fill="white"/>
</clipPath>
</defs>
</svg>
