<svg width="1024" height="825" viewBox="0 0 1024 825" fill="none" xmlns="http://www.w3.org/2000/svg">
<g clip-path="url(#clip0)">
<path d="M738.121 784.606H114.404V787.068H738.121V784.606Z" fill="#3F3D56"/>
<path d="M445.173 445.746C445.173 445.746 431.936 501.137 458.41 491.29C484.884 481.443 468.999 443.284 468.999 443.284L445.173 445.746Z" fill="#E68688"/>
<path d="M692.702 464.21C692.702 464.21 724.471 499.906 704.616 507.292C684.76 514.678 674.171 474.057 676.818 470.364C679.466 466.671 692.702 464.21 692.702 464.21Z" fill="#E68688"/>
<path d="M611.957 226.64C611.957 226.64 589.518 216.338 584.853 207.949L574.894 216.793C574.894 216.793 503.415 210.638 492.825 243.873C482.236 277.108 491.502 397.739 491.502 397.739C491.502 397.739 476.941 451.9 480.912 453.131C484.883 454.362 533.86 476.519 602.691 464.209C602.691 464.209 633.136 459.286 638.431 462.979C643.726 466.671 635.784 403.894 635.784 403.894C635.784 403.894 688.731 293.11 679.465 279.57C670.199 266.03 629.165 237.718 629.165 237.718L631.812 224.178C631.812 224.178 613.281 231.564 611.957 226.64Z" fill="#CFCCE0"/>
<path d="M503.415 235.257C503.415 235.257 479.589 246.335 475.618 263.568C471.647 280.801 434.584 423.589 438.555 432.205C442.526 440.822 441.202 451.9 441.202 451.9L475.618 448.207C475.618 448.207 468.999 439.591 472.97 435.898C476.941 432.205 480.913 419.896 478.265 414.972C475.618 410.049 472.97 418.665 487.531 402.663C502.092 386.661 535.184 240.18 503.415 235.257Z" fill="#CFCCE0"/>
<path d="M671.523 277.108C671.523 277.108 682.775 277.724 685.422 294.957C688.069 312.19 692.702 418.665 692.702 418.665C692.702 418.665 709.91 453.131 703.292 458.055C696.673 462.979 700.644 470.364 700.644 470.364L676.818 476.519L625.194 401.432L671.523 277.108Z" fill="#CFCCE0"/>
<path d="M484.884 448.207C484.884 448.207 476.942 449.438 476.942 476.519C476.942 503.599 462.381 587.302 471.647 600.843C480.913 614.383 482.236 736.245 482.236 736.245C482.236 736.245 507.386 746.092 528.565 714.088L531.213 696.855L536.508 613.152L557.687 508.523L586.808 624.23C586.808 624.23 582.837 763.325 597.397 763.325C611.958 763.325 639.755 752.247 639.755 752.247C639.755 752.247 646.373 739.938 643.726 733.783C641.079 727.628 638.431 728.859 641.079 723.936C643.726 719.012 647.697 590.995 647.697 590.995C647.697 590.995 642.402 459.286 635.784 455.593C629.166 451.9 484.884 448.207 484.884 448.207Z" fill="#2F2E41"/>
<path d="M484.884 731.321L463.705 752.247C463.705 752.247 425.318 785.482 458.41 786.713C491.502 787.944 510.034 767.018 510.034 764.556C510.034 762.094 511.358 753.478 520.623 753.478C529.889 753.478 552.392 732.552 547.097 723.936C541.802 715.319 525.918 711.626 525.918 711.626L484.884 731.321Z" fill="#2F2E41"/>
<path d="M598.72 758.402C598.72 758.402 582.836 787.944 592.102 794.099C601.368 800.253 604.015 802.715 604.015 802.715C604.015 802.715 611.957 801.484 610.633 812.563C609.31 823.641 658.286 829.796 660.934 821.179C663.581 812.563 662.257 795.33 656.963 790.406C651.668 785.482 635.784 751.016 635.784 751.016C635.784 751.016 618.576 732.552 598.72 758.402Z" fill="#2F2E41"/>
<path d="M1023.91 563.681H811.933V566.04H1023.91V563.681Z" fill="#3F3D56"/>
<path d="M231.555 745.429H180.458V792.945H231.555V745.429Z" fill="#CFCCE0"/>
<path d="M224.832 786.693H171.045V736.676H224.832V786.693ZM173.735 784.192H222.142V739.177H173.735L173.735 784.192Z" fill="#3F3D56"/>
<path d="M287.458 330.245L255.122 341.875L267.195 370.905L299.532 359.275L287.458 330.245Z" fill="#F2F2F2"/>
<path d="M293.688 356.985L259.65 369.227L246.941 338.67L280.98 326.428L293.688 356.985ZM260.716 367.087L291.351 356.069L279.913 328.568L249.278 339.586L260.716 367.087Z" fill="#3F3D56"/>
<path d="M881.649 684.137L870.377 653.647L838.725 663.766L849.997 694.256L881.649 684.137Z" fill="#F2F2F2"/>
<path d="M852.679 688.913L840.813 656.818L874.131 646.166L885.997 678.261L852.679 688.913ZM843.073 657.89L853.752 686.775L883.738 677.189L873.059 648.304L843.073 657.89Z" fill="#3F3D56"/>
<path d="M160.768 532.57C179.727 532.948 194.808 545.725 194.808 545.725C194.808 545.725 179.151 557.888 160.193 557.51C141.234 557.131 126.152 544.355 126.152 544.355C126.152 544.355 141.809 532.192 160.768 532.57Z" fill="#6C63FF"/>
<path d="M65.4525 472.389C82.5809 479.956 102.222 474.825 102.222 474.825C102.222 474.825 94.0919 457.425 76.9635 449.858C59.8351 442.291 40.1943 447.422 40.1943 447.422C40.1943 447.422 48.3242 464.822 65.4525 472.389Z" fill="#6C63FF"/>
<path d="M67.1937 464.869C86.0781 463.265 102.608 474.384 102.608 474.384C102.608 474.384 88.5194 488.106 69.635 489.711C50.7506 491.316 34.2212 480.196 34.2212 480.196C34.2212 480.196 48.3093 466.474 67.1937 464.869Z" fill="#3F3D56"/>
<path d="M136.418 467.91C134.608 485.464 146.492 500.884 146.492 500.884C146.492 500.884 161.31 487.845 163.12 470.291C164.93 452.737 153.047 437.317 153.047 437.317C153.047 437.317 138.228 450.356 136.418 467.91Z" fill="#3F3D56"/>
<path d="M225.354 575.566C215.449 590.604 218.857 609.309 218.857 609.309C218.857 609.309 238.324 603.633 248.229 588.596C258.134 573.558 254.726 554.853 254.726 554.853C254.726 554.853 235.259 560.529 225.354 575.566Z" fill="#3F3D56"/>
<path d="M196.619 739.063L198.062 738.155C192.974 731.289 190.196 723.171 190.081 714.834C190.121 702.637 196.563 691.356 202.794 680.446C203.95 678.421 205.103 676.403 206.212 674.386C210.866 666.16 214.575 657.501 217.277 648.553C226.941 615.157 217.427 575.756 191.826 543.155C171.518 517.293 141.244 494.678 99.2758 474.017L98.4609 475.449C140.19 495.991 170.27 518.451 190.419 544.11C215.712 576.319 225.123 615.205 215.595 648.132C212.924 656.971 209.259 665.524 204.661 673.648C203.556 675.658 202.407 677.669 201.255 679.687C194.926 690.77 188.381 702.231 188.339 714.829C188.454 723.492 191.336 731.927 196.619 739.063V739.063Z" fill="#3F3D56"/>
<path d="M16.5501 476.146C25.6902 476.146 33.0997 469.255 33.0997 460.756C33.0997 452.256 25.6902 445.366 16.5501 445.366C7.41 445.366 0.000488281 452.256 0.000488281 460.756C0.000488281 469.255 7.41 476.146 16.5501 476.146Z" fill="#3F3D56"/>
<path d="M917.499 551.661L704.473 480.512L742.504 382.041L875.145 351.791L955.532 453.191L917.499 551.661Z" fill="#2F2E41"/>
<path d="M891.693 532.135L732.497 475.703C773.825 424.225 792.306 387.912 792.319 330.771L951.515 387.203C914.531 436.057 899.064 472.783 891.693 532.135Z" fill="#F2F2F2"/>
<path d="M904.223 394.925L821.748 365.689L820.286 369.256L902.761 398.492L904.223 394.925Z" fill="#3F3D56"/>
<path d="M898.374 409.194L815.899 379.958L814.437 383.525L896.912 412.761L898.374 409.194Z" fill="#3F3D56"/>
<path d="M892.525 423.463L810.05 394.227L808.588 397.794L891.063 427.03L892.525 423.463Z" fill="#3F3D56"/>
<path d="M886.676 437.732L804.201 408.496L802.739 412.063L885.214 441.299L886.676 437.732Z" fill="#3F3D56"/>
<path d="M880.826 452.001L798.352 422.765L796.889 426.332L879.364 455.568L880.826 452.001Z" fill="#3F3D56"/>
<path d="M874.978 466.27L792.503 437.034L791.041 440.601L873.515 469.837L874.978 466.27Z" fill="#3F3D56"/>
<path d="M869.129 480.539L786.654 451.303L785.192 454.87L867.666 484.106L869.129 480.539Z" fill="#3F3D56"/>
<path d="M863.28 494.808L780.805 465.572L779.342 469.139L861.817 498.375L863.28 494.808Z" fill="#3F3D56"/>
<path d="M912.578 564.404L699.551 493.255L742.504 382.041L832.464 460.479L955.532 453.191L912.578 564.404Z" fill="#3F3D56"/>
<path d="M804.337 529.361L698.117 493.884L723.998 426.869L726.11 427.574L700.987 492.625L805.095 527.397L804.337 529.361Z" fill="#6C63FF"/>
<path d="M766.58 458.092L735.436 447.69L730.961 459.275L762.106 469.677L766.58 458.092Z" fill="#6C63FF"/>
<path d="M414.446 785.482L247.717 785.4L249.026 698.357L331.886 732.989L415.755 700.525L414.446 785.482Z" fill="#3F3D56"/>
<path d="M285.368 745.987L260.992 745.67L260.856 754.737L285.231 755.054L285.368 745.987Z" fill="#6C63FF"/>
<path d="M416.313 700.406L332.037 740.36L248.587 700.406V698.101H416.313V700.406Z" fill="#6C63FF"/>
<path d="M900.792 370.951C902.785 366.091 892.669 357.993 878.199 352.864C863.729 347.734 850.384 347.516 848.392 352.376C846.399 357.236 856.514 365.334 870.985 370.464C885.455 375.593 898.8 375.811 900.792 370.951Z" fill="#6C63FF"/>
<path d="M923.692 222.732C918.347 221.187 912.728 220.635 907.154 221.11C901.58 221.584 896.162 223.074 891.208 225.496C886.253 227.917 881.86 231.223 878.28 235.223C874.699 239.223 872.001 243.84 870.339 248.81C863.35 269.712 882.397 346.23 882.397 346.23C882.397 346.23 944.746 293.248 951.735 272.346C955.091 262.309 954.022 251.443 948.763 242.138C943.504 232.834 934.485 225.853 923.692 222.732V222.732ZM905.043 278.505C901.23 277.403 897.854 275.274 895.343 272.387C892.831 269.5 891.296 265.986 890.933 262.289C890.569 258.591 891.392 254.876 893.299 251.614C895.206 248.351 898.11 245.688 901.644 243.96C905.178 242.233 909.184 241.518 913.155 241.908C917.126 242.298 920.884 243.773 923.952 246.149C927.021 248.524 929.264 251.693 930.396 255.253C931.529 258.814 931.501 262.607 930.315 266.152C929.528 268.507 928.25 270.694 926.554 272.588C924.857 274.483 922.777 276.049 920.43 277.196C918.083 278.343 915.516 279.049 912.876 279.274C910.236 279.498 907.574 279.237 905.043 278.505V278.505Z" fill="#6C63FF"/>
<path d="M658.712 150.384C658.912 150.154 659.09 149.912 659.282 149.67L659.185 148.806C659.3 148.557 659.424 148.301 659.533 148.047C659.544 147.777 659.562 147.508 659.56 147.243C659.547 146.973 659.514 146.705 659.46 146.441C659.439 146.182 659.431 145.921 659.437 145.661L659.453 144.892L659.665 144.135L659.636 143.368L659.67 142.602C659.757 142.343 659.851 142.086 659.932 141.825L659.836 141.053L659.366 140.303L659.326 139.534C659.311 139.277 659.278 139.021 659.248 138.765C659.317 138.499 659.368 138.229 659.401 137.957C659.352 137.701 659.315 137.444 659.245 137.202L658.96 136.451L658.909 135.644L658.216 135.033C658.188 134.77 658.132 134.512 658.085 134.25C657.951 134.021 657.792 133.802 657.641 133.585C657.602 133.318 657.546 133.054 657.474 132.795C657.319 132.577 657.172 132.356 656.998 132.153C656.844 131.933 656.66 131.734 656.45 131.562C656.341 131.468 656.318 131.312 656.182 131.235C656.185 131.204 656.2 131.174 656.224 131.152C656.393 130.786 656.18 130.941 656.15 130.924C655.989 130.84 655.819 130.77 655.644 130.715C655.398 130.562 655.139 130.429 654.87 130.317C654.631 130.072 654.364 129.856 654.072 129.671C653.683 129.675 653.294 129.722 652.913 129.811C652.482 129.7 652.029 129.675 651.582 129.738C651.184 129.981 650.841 130.301 650.576 130.676C650.158 130.867 649.774 131.123 649.441 131.434C649.301 131.788 649.207 132.156 649.16 132.529C649.085 132.84 649.033 133.154 649.002 133.471C648.977 133.767 648.966 134.055 648.962 134.311L648.783 135.071L649.262 135.841L648.626 136.597L648.999 137.357L649.131 138.107L648.951 138.87L648.965 139.623L648.784 140.39L649.072 141.13L649.273 141.869L648.961 142.639L649.269 143.369L648.994 144.139L649.514 144.848L649.136 145.624L649.47 146.344L648.954 147.13L649.666 147.821L649.542 148.587L649.114 149.401L649.615 150.128L649.619 150.923L649.416 151.783C649.667 152.014 649.93 152.231 650.205 152.434C650.252 152.701 650.299 152.96 650.362 153.237C650.383 153.571 650.437 153.902 650.523 154.225C650.792 154.563 651.115 154.858 651.482 155.097C651.712 155.48 652.033 155.804 652.419 156.045C652.846 156.201 653.31 156.257 653.77 156.206L653.821 156.18C654.231 155.951 654.582 155.636 654.849 155.26C655.292 155.243 655.827 155.045 656.175 155.035C656.376 154.787 656.541 154.514 656.732 154.261C656.924 154.007 657.18 153.828 657.388 153.596C657.441 153.272 657.475 152.946 657.491 152.619C657.795 152.449 658.089 152.263 658.373 152.063C658.369 151.743 658.347 151.424 658.309 151.108C658.435 150.878 658.569 150.632 658.712 150.384Z" fill="#102B4C"/>
<path d="M649.901 190.248C649.901 190.248 649.958 189.335 649.973 188.428C649.987 187.52 649.986 186.617 649.986 186.617L650.356 185.524L650.639 184.658C650.688 184.45 651.259 183.399 648.541 183.186L648.547 183.162L648.751 183.158C649.153 183.14 649.559 183.12 649.894 183.087C650.581 183.008 650.79 182.852 650.817 182.691C650.906 181.795 650.924 180.895 650.872 180L651.156 176.516L651.22 173.055C651.444 171.916 651.681 170.784 651.933 169.66C652.187 168.538 652.551 167.357 652.84 166.209C652.852 165.029 652.842 163.852 652.812 162.679L653.463 159.178C653.415 158.002 653.351 156.828 653.271 155.657C653.277 154.487 653.275 153.316 653.258 152.145C653.334 150.974 653.404 149.802 653.448 148.629C653.218 147.468 652.968 146.311 652.711 145.156L653.049 141.617L653.225 138.094C653.015 136.833 652.707 135.592 652.306 134.379C652.244 133.05 652.051 131.732 651.73 130.444C651.156 129.187 650.426 128.005 649.557 126.921C648.641 125.831 647.559 124.882 646.345 124.105C645.326 123.085 644.166 122.203 642.896 121.483C641.518 121.194 640.109 121.046 638.69 121.04C637.377 121 636.061 121.037 634.748 121.151C633.514 120.781 632.282 120.465 631.047 120.16L627.412 120.051L623.783 121.11L620.197 120.09L616.581 120.938C615.382 120.912 614.176 120.869 612.901 120.875C611.586 120.853 610.269 120.918 608.958 121.07C607.481 121.066 606.005 121.261 604.572 121.647C603.098 122.246 601.731 123.075 600.529 124.1C599.677 125.3 599.004 126.605 598.531 127.977C597.847 129.081 597.254 130.233 596.758 131.422C595.819 132.396 594.916 133.408 594.082 134.416C594.018 135.676 593.895 136.918 593.9 138.155C593.511 139.295 593.097 140.43 592.769 141.586C592.138 142.672 591.504 143.769 590.91 144.888L590.898 146.724L590.953 148.547C590.906 149.749 590.921 150.948 590.932 152.143C590.293 153.261 589.722 154.395 589.119 155.537C589.339 156.754 589.622 157.961 589.87 159.155L588.793 162.643L589.289 166.182C588.925 167.345 588.544 168.515 588.201 169.686C588.559 170.857 588.931 172.022 589.319 173.181C589.089 174.348 588.863 175.516 588.664 176.681L589.35 180.144C589.074 181.314 588.872 182.475 588.662 183.638C588.963 184.784 589.087 185.946 589.637 187.088C589.948 188.235 590.259 189.404 590.597 190.553L590.627 190.773L590.622 190.797L590.672 190.807L590.66 190.859L590.652 190.97L590.627 191.414L590.581 192.308C590.553 192.905 590.537 193.506 590.532 194.112C590.682 195.302 590.893 196.482 591.167 197.649C591.307 198.253 591.493 198.846 591.722 199.423C591.932 200.038 592.208 200.629 592.545 201.186L593.113 201.962C593.314 202.211 593.548 202.43 593.764 202.66L594.423 203.337C594.656 203.545 594.903 203.737 595.137 203.938L595.75 204.621C595.961 204.839 596.192 205.039 596.409 205.251C596.842 205.676 597.298 206.078 597.777 206.456C598.643 207.317 599.556 208.133 600.513 208.901L602.061 209.883L603.654 210.79C604.848 211.156 606.036 211.5 607.24 211.774C607.759 212.091 608.298 212.368 608.834 212.659C609.37 212.951 609.913 213.229 610.464 213.501C611.064 213.649 611.667 213.782 612.276 213.891C612.885 214.001 613.486 214.123 614.103 214.216C614.682 214.414 615.265 214.595 615.853 214.758C616.441 214.939 617.058 215.076 617.673 215.223C620.186 215.444 622.72 215.466 625.249 215.289C625.881 215.236 626.516 215.169 627.142 215.078C627.768 214.988 628.402 214.877 629.027 214.743C630.319 214.594 631.6 214.354 632.86 214.027C634.103 213.57 635.306 213.014 636.458 212.367L637.308 211.848C637.587 211.67 637.852 211.467 638.125 211.28C638.672 210.895 639.195 210.479 639.691 210.035C640.558 209.037 641.316 207.957 641.952 206.814C642.799 205.856 643.572 204.841 644.263 203.776C645.028 202.759 645.728 201.7 646.388 200.637C646.854 199.501 647.267 198.369 647.661 197.255C647.993 196.148 648.355 194.916 648.611 193.732C649.104 192.592 649.534 191.429 649.901 190.248V190.248Z" fill="#E68688"/>
<path d="M616.042 161.47C615.737 161.28 615.369 161.199 615.002 161.242C614.635 161.285 614.291 161.449 614.029 161.705C613.767 161.962 613.604 162.295 613.567 162.648C613.53 163.001 613.622 163.352 613.827 163.641C614.023 163.909 614.307 164.105 614.636 164.199C614.965 164.293 615.319 164.279 615.645 164.16C615.966 164.022 616.228 163.78 616.385 163.479C616.543 163.177 616.586 162.835 616.507 162.512C616.404 162.199 616.179 161.939 615.878 161.784C615.578 161.63 615.224 161.593 614.889 161.68" fill="#102B4C"/>
<path d="M615.156 162.555L615.203 162.705L615.193 162.667L615.182 162.574L615.207 162.611C615.213 162.667 615.216 162.724 615.216 162.78L615.23 162.721C615.221 162.768 615.21 162.814 615.197 162.86L615.192 162.881C615.209 162.842 615.228 162.805 615.249 162.768C615.218 162.851 615.183 162.933 615.142 163.012L615.147 162.992L615.172 162.964L615.215 162.928L615.277 162.886C615.338 162.844 615.401 162.806 615.466 162.77L615.386 162.838L615.321 162.876L615.339 162.88L615.384 162.863L615.446 162.853C615.396 162.869 615.344 162.88 615.292 162.885C615.239 162.888 615.185 162.886 615.132 162.88C615.204 162.886 615.275 162.9 615.344 162.921C615.394 162.94 615.441 162.965 615.484 162.995C615.39 162.985 615.298 162.967 615.208 162.942C615.275 162.978 615.338 163.02 615.396 163.068C615.315 163.041 615.238 163.007 615.164 162.966C615.27 163.044 615.367 163.132 615.456 163.228C615.358 163.172 615.266 163.106 615.183 163.031C615.234 163.091 615.279 163.155 615.318 163.224C615.266 163.17 615.218 163.114 615.174 163.055L615.12 162.979L615.181 163.089C615.221 163.166 615.258 163.246 615.29 163.327C615.259 163.293 615.231 163.256 615.207 163.217C615.181 163.159 615.158 163.099 615.14 163.037L615.112 162.934L615.126 163.017C615.133 163.071 615.138 163.128 615.14 163.182L615.104 163.11C615.093 163.022 615.09 162.933 615.095 162.844C615.073 163.006 615.036 163.166 614.983 163.323C614.968 163.303 614.954 163.282 614.941 163.26C614.94 163.197 614.945 163.134 614.956 163.071C614.92 163.127 614.88 163.18 614.836 163.229C614.856 163.146 614.884 163.064 614.92 162.984C614.921 162.971 614.924 162.959 614.929 162.946C614.842 163.057 614.745 163.159 614.639 163.253C614.738 163.11 614.851 162.977 614.977 162.854C614.941 162.885 614.904 162.913 614.863 162.937C614.878 162.921 614.894 162.906 614.911 162.892C614.807 162.956 614.697 163.009 614.581 163.05C614.694 162.977 614.813 162.914 614.938 162.861C614.822 162.903 614.703 162.933 614.582 162.952C614.614 162.926 614.649 162.902 614.685 162.881C614.766 162.851 614.85 162.827 614.935 162.81C614.851 162.812 614.768 162.807 614.687 162.795C614.735 162.778 614.784 162.766 614.834 162.758L614.755 162.713C614.701 162.693 614.649 162.668 614.599 162.64C614.575 162.617 614.554 162.592 614.534 162.566L614.52 162.498C614.566 162.496 614.612 162.498 614.658 162.503L614.639 162.438L614.676 162.408C614.735 162.438 614.791 162.473 614.843 162.513C614.834 162.493 614.828 162.472 614.824 162.451C614.761 162.361 614.708 162.265 614.666 162.164C614.688 162.154 614.71 162.147 614.732 162.14L614.798 162.116C614.844 162.167 614.887 162.221 614.925 162.278L614.976 162.252C614.988 162.217 615.003 162.184 615.022 162.152C615.048 162.189 615.072 162.227 615.092 162.267C615.11 162.142 615.139 162.019 615.179 161.899C615.206 161.94 615.23 161.982 615.251 162.025C615.281 161.988 615.314 161.953 615.35 161.921C615.365 161.98 615.374 162.04 615.379 162.101C615.409 162.082 615.439 162.065 615.47 162.049L615.569 162.014C615.594 162.019 615.536 162.152 615.657 161.976C615.764 161.865 615.858 161.741 615.935 161.609L616.055 161.432L616.262 161.11C616.386 160.919 616.411 160.859 616.406 160.851C616.349 160.836 616.292 160.825 616.233 160.818L616.044 160.731C615.971 160.729 615.898 160.73 615.825 160.736C615.773 160.674 615.718 160.615 615.66 160.559C615.603 160.484 615.542 160.412 615.478 160.343C615.4 160.369 615.323 160.401 615.249 160.437C615.177 160.384 615.103 160.334 615.025 160.289C614.905 160.391 614.759 160.459 614.603 160.487C614.526 160.479 614.448 160.475 614.369 160.475C614.319 160.567 614.277 160.661 614.242 160.759C614.151 160.728 614.058 160.703 613.963 160.684C613.872 160.679 613.781 160.68 613.689 160.686C613.648 160.769 613.613 160.854 613.584 160.941C613.469 160.93 613.353 160.926 613.237 160.929C613.184 160.995 613.134 161.065 613.087 161.136C613.047 161.211 613.017 161.291 612.998 161.373C612.866 161.388 612.735 161.412 612.606 161.443C612.633 161.551 612.668 161.657 612.711 161.76C612.743 161.855 612.782 161.947 612.827 162.036C612.689 162.071 612.553 162.114 612.421 162.165C612.381 162.239 612.346 162.314 612.315 162.391C612.441 162.487 612.575 162.574 612.716 162.649C612.568 162.713 612.425 162.788 612.288 162.872C612.402 162.947 612.522 163.014 612.647 163.071C612.638 163.145 612.634 163.219 612.635 163.294C612.629 163.371 612.627 163.448 612.63 163.525C612.562 163.63 612.504 163.74 612.455 163.854C612.469 163.941 612.489 164.027 612.514 164.112C612.674 164.129 612.835 164.133 612.996 164.124C613.05 164.18 613.108 164.234 613.168 164.284C613.07 164.458 612.987 164.64 612.92 164.827C613.085 164.794 613.246 164.747 613.403 164.688C613.455 164.747 613.509 164.803 613.566 164.857C613.553 165.011 613.552 165.166 613.562 165.32C613.694 165.272 613.822 165.214 613.945 165.147C614.052 165.108 614.156 165.062 614.256 165.007C614.264 165.199 614.288 165.389 614.328 165.576C614.455 165.452 614.572 165.319 614.677 165.178C614.737 165.294 614.806 165.406 614.884 165.512C614.977 165.428 615.065 165.338 615.146 165.243C615.232 165.372 615.329 165.494 615.436 165.607C615.513 165.445 615.575 165.277 615.622 165.106C615.724 165.182 615.834 165.249 615.95 165.306C616.008 165.198 616.057 165.087 616.096 164.972C616.231 165.051 616.374 165.118 616.522 165.173C616.562 165.053 616.591 164.93 616.609 164.805C616.668 164.744 616.718 164.674 616.771 164.611C616.942 164.658 617.117 164.692 617.295 164.712C617.351 164.635 617.41 164.56 617.458 164.482C617.485 164.391 617.507 164.298 617.523 164.204C617.443 164.058 617.351 163.919 617.246 163.789C617.299 163.729 617.347 163.665 617.392 163.599C617.54 163.563 617.684 163.514 617.824 163.454C617.875 163.371 617.92 163.285 617.96 163.197C617.811 163.086 617.651 162.989 617.484 162.906C617.619 162.821 617.746 162.724 617.864 162.616C617.762 162.536 617.653 162.465 617.539 162.402C617.578 162.304 617.61 162.203 617.632 162.101C617.556 162.031 617.472 161.967 617.384 161.912C617.345 161.836 617.301 161.763 617.251 161.694C617.216 161.619 617.175 161.546 617.13 161.475C617.156 161.347 617.171 161.218 617.176 161.089C617.122 161.012 617.065 160.938 617.003 160.867C616.936 160.803 616.858 160.75 616.773 160.711C616.626 160.77 616.483 160.841 616.348 160.923C616.305 160.831 616.256 160.743 616.2 160.659C616.161 160.524 616.111 160.393 616.048 160.267C615.943 160.259 615.839 160.257 615.734 160.262C615.624 160.299 615.517 160.344 615.413 160.396C615.321 160.322 615.217 160.262 615.106 160.217C615.008 160.351 614.92 160.49 614.842 160.635L614.732 160.559L614.64 160.505C614.64 160.505 614.582 160.451 614.594 160.587C614.669 160.991 614.777 161.387 614.916 161.773L615.156 162.555Z" fill="#102B4C"/>
<path d="M647.404 163.231C647.072 163.135 646.709 163.17 646.396 163.329C646.083 163.488 645.845 163.757 645.733 164.078C645.642 164.408 645.68 164.756 645.84 165.054C646 165.352 646.27 165.58 646.599 165.694C646.933 165.789 647.293 165.773 647.623 165.648C647.953 165.523 648.232 165.297 648.417 165.006C648.567 164.77 648.639 164.497 648.62 164.225C648.602 163.953 648.496 163.696 648.316 163.489C648.225 163.396 648.115 163.322 647.992 163.271C647.87 163.219 647.737 163.192 647.602 163.19C647.468 163.188 647.333 163.212 647.206 163.26C647.079 163.308 646.963 163.379 646.864 163.469V163.469C646.843 163.487 646.824 163.506 646.805 163.526" fill="#102B4C"/>
<path d="M647.437 163.966L647.464 163.997L647.493 164.049C647.503 164.07 647.512 164.091 647.519 164.112C647.526 164.133 647.531 164.155 647.534 164.177L647.516 164.253L647.545 164.128C647.556 164.112 647.569 164.096 647.583 164.081L647.588 164.06L647.463 164.174L647.44 164.192L647.487 164.168C647.447 164.192 647.404 164.213 647.36 164.231V164.231C647.318 164.244 647.275 164.255 647.232 164.264C647.294 164.254 647.357 164.249 647.419 164.249C647.472 164.254 647.523 164.264 647.574 164.279C647.48 164.292 647.386 164.297 647.292 164.294C647.368 164.302 647.442 164.316 647.515 164.336C647.431 164.334 647.348 164.324 647.267 164.307C647.394 164.345 647.517 164.394 647.634 164.453C647.525 164.43 647.418 164.396 647.316 164.353C647.386 164.39 647.451 164.434 647.51 164.484C647.379 164.419 647.253 164.343 647.136 164.257C647.278 164.36 647.409 164.476 647.527 164.603C647.483 164.586 647.44 164.566 647.399 164.543C647.302 164.461 647.213 164.373 647.131 164.277C647.196 164.366 647.253 164.461 647.301 164.56L647.228 164.517C647.176 164.448 647.129 164.375 647.089 164.298C647.148 164.446 647.195 164.598 647.229 164.753L647.165 164.723C647.134 164.669 647.108 164.614 647.088 164.556C647.087 164.617 647.081 164.679 647.071 164.741C647.049 164.66 647.036 164.577 647.031 164.494C647.025 164.483 647.021 164.471 647.021 164.459C647.003 164.588 646.972 164.716 646.931 164.841C646.946 164.758 646.965 164.676 646.989 164.595L647.025 164.438C646.971 164.531 646.908 164.618 646.836 164.699C646.903 164.587 646.98 164.481 647.065 164.381C646.986 164.471 646.897 164.554 646.801 164.627C646.819 164.593 646.839 164.559 646.862 164.527C646.92 164.466 646.984 164.411 647.051 164.36C646.981 164.403 646.907 164.439 646.83 164.47C646.866 164.438 646.904 164.409 646.945 164.383L646.855 164.395C646.802 164.406 646.748 164.412 646.693 164.415L646.611 164.399L646.573 164.366C646.617 164.351 646.662 164.34 646.708 164.334L646.662 164.325L646.666 164.308L646.817 164.337C646.715 164.286 646.62 164.224 646.533 164.152L646.573 164.127L646.61 164.098C646.673 164.137 646.731 164.181 646.786 164.229L646.792 164.202C646.784 164.171 646.779 164.14 646.777 164.108C646.808 164.141 646.838 164.175 646.865 164.212C646.82 164.088 646.787 163.961 646.767 163.831C646.796 163.861 646.824 163.893 646.85 163.926C646.856 163.88 646.866 163.835 646.881 163.791C646.904 163.841 646.922 163.893 646.935 163.946C646.948 163.917 646.963 163.888 646.981 163.861C647 163.835 647.021 163.811 647.043 163.789C647.043 163.789 647.013 163.918 647.103 163.725C647.174 163.594 647.234 163.459 647.281 163.32L647.356 163.131L647.481 162.793C647.555 162.589 647.566 162.526 647.545 162.519C647.487 162.517 647.429 162.519 647.371 162.525L647.163 162.485C647.091 162.5 647.021 162.518 646.951 162.539C646.886 162.494 646.815 162.448 646.739 162.404C646.663 162.36 646.578 162.29 646.489 162.236C646.422 162.282 646.358 162.332 646.296 162.385C646.207 162.367 646.12 162.322 646.024 162.296C645.966 162.357 645.914 162.424 645.869 162.495C645.808 162.538 645.75 162.583 645.694 162.632C645.637 162.682 645.545 162.676 645.471 162.701C645.463 162.807 645.463 162.912 645.472 163.017C645.373 163.02 645.274 163.029 645.176 163.044C645.087 163.073 645 163.107 644.916 163.146C644.913 163.241 644.919 163.335 644.932 163.428C644.82 163.462 644.711 163.504 644.605 163.554C644.58 163.638 644.56 163.722 644.546 163.808C644.55 163.892 644.56 163.977 644.576 164.06C644.47 164.128 644.368 164.203 644.272 164.284C644.348 164.371 644.433 164.45 644.524 164.521C644.599 164.59 644.679 164.653 644.765 164.709C644.655 164.803 644.552 164.904 644.457 165.012C644.461 165.092 644.469 165.171 644.48 165.249C644.637 165.274 644.796 165.287 644.956 165.286C644.854 165.405 644.762 165.532 644.679 165.664C644.815 165.675 644.952 165.676 645.088 165.666C645.149 165.8 645.211 165.933 645.276 166.065C645.263 166.179 645.259 166.293 645.266 166.407C645.319 166.472 645.376 166.534 645.437 166.592C645.585 166.532 645.727 166.46 645.863 166.377C645.936 166.396 646.011 166.41 646.086 166.419C646.084 166.611 646.099 166.802 646.132 166.99C646.26 166.887 646.377 166.772 646.483 166.648C646.555 166.674 646.628 166.697 646.703 166.715C646.764 166.855 646.837 166.99 646.92 167.119C647.007 167.02 647.086 166.914 647.156 166.802C647.226 166.721 647.289 166.635 647.344 166.544C647.441 166.702 647.549 166.853 647.67 166.995C647.714 166.835 647.745 166.672 647.762 166.508C647.866 166.584 647.975 166.652 648.089 166.712C648.125 166.599 648.153 166.483 648.171 166.365C648.297 166.446 648.43 166.518 648.568 166.579C648.554 166.413 648.528 166.248 648.489 166.085C648.606 166.117 648.726 166.14 648.848 166.154C648.847 166.042 648.838 165.93 648.822 165.819C648.968 165.852 649.118 165.874 649.268 165.883C649.251 165.769 649.225 165.656 649.19 165.546C649.22 165.474 649.246 165.402 649.268 165.328C649.442 165.326 649.616 165.311 649.789 165.283L649.848 165.033C649.847 164.946 649.841 164.859 649.83 164.773C649.701 164.668 649.562 164.573 649.416 164.49C649.433 164.421 649.467 164.355 649.491 164.283C649.618 164.21 649.739 164.128 649.853 164.037C649.879 163.952 649.899 163.865 649.915 163.777C649.741 163.722 649.562 163.682 649.38 163.657C649.484 163.55 649.578 163.434 649.66 163.312C649.535 163.268 649.406 163.235 649.274 163.212C649.286 163.114 649.289 163.015 649.284 162.917C649.192 162.876 649.097 162.842 649 162.815C648.937 162.754 648.87 162.696 648.8 162.643C648.737 162.583 648.67 162.526 648.6 162.474C648.577 162.343 648.542 162.215 648.494 162.091C648.413 162.038 648.327 161.99 648.239 161.948C648.145 161.925 648.049 161.906 647.952 161.893C647.833 161.999 647.725 162.116 647.629 162.241C647.581 162.19 647.53 162.141 647.476 162.096C647.384 161.99 647.281 161.895 647.167 161.812C647.064 161.851 646.963 161.895 646.865 161.946C646.778 162.03 646.696 162.12 646.622 162.215C646.5 162.217 646.379 162.234 646.261 162.265C646.238 162.425 646.231 162.586 646.237 162.747L646.104 162.754L646 162.766C645.975 162.762 645.746 162.743 646.899 163.573L647.437 163.966Z" fill="#102B4C"/>
<path d="M593.32 179.15L593.233 178.851L593.128 178.624L593.834 177.795L593.356 176.891L594.28 176.046L594.05 175.157L594.017 174.277L593.942 173.4L594.132 172.515L593.167 171.685C593.522 171.39 593.877 171.063 594.222 170.745C593.972 170.467 593.718 170.194 593.461 169.925L593.14 169.091L593.39 168.189L593.269 167.328L593.515 166.411L592.912 165.625L592.446 164.829L592.873 163.863L592.22 163.096C592.334 162.755 592.448 162.414 592.544 162.07C592.199 161.845 591.837 161.63 591.484 161.421C591.629 161.061 591.772 160.693 591.899 160.315C591.629 160.071 591.362 159.85 591.081 159.611C591.27 159.188 591.438 158.759 591.583 158.322C591.075 158.185 590.573 158.067 590.065 157.977C589.991 157.641 589.899 157.308 589.789 156.982C589.833 156.53 589.846 156.077 589.827 155.626C589.392 155.495 588.949 155.391 588.5 155.314C588.273 155.016 588.026 154.734 587.76 154.469C587.573 154.075 587.356 153.695 587.111 153.333L586.688 153.411C586.525 153.424 586.364 153.445 586.203 153.474C585.902 153.527 585.605 153.603 585.316 153.703C584.881 153.519 584.421 153.393 583.947 153.329C583.709 153.248 583.463 153.189 583.212 153.151C582.956 153.1 582.694 153.073 582.431 153.071C581.969 153.315 581.545 153.624 581.175 153.987C580.638 154.057 580.111 154.201 579.611 154.412C579.248 154.709 578.91 155.034 578.601 155.383C578.587 155.857 578.623 156.33 578.708 156.795C578.172 156.922 577.645 157.084 577.13 157.28C577.062 157.653 577.014 158.029 576.988 158.406L576.533 159.301C576.691 159.679 576.87 160.049 577.069 160.408C576.696 160.653 576.32 160.912 575.943 161.186C576.154 161.549 576.384 161.897 576.608 162.237C576.466 162.537 576.326 162.843 576.216 163.152L575.53 164.087C575.701 164.413 575.893 164.733 576.057 165.04C575.937 165.357 575.815 165.682 575.723 166.009L575.972 166.945C576.123 167.246 576.298 167.54 576.459 167.828C576.557 168.127 576.648 168.427 576.775 168.716L577.028 169.605C576.98 169.933 576.964 170.257 576.931 170.591C577.046 170.881 577.168 171.177 577.294 171.454L577.551 172.356C577.491 172.707 577.453 173.062 577.417 173.436C577.593 173.709 577.757 173.987 577.955 174.246C578.367 174.4 578.772 174.544 579.171 174.678C579.3 174.957 579.463 175.223 579.611 175.487C579.759 175.76 579.924 176.024 580.104 176.278C580.124 176.64 580.153 177.008 580.19 177.382C580.389 177.634 580.607 177.875 580.816 178.118C581.085 178.315 581.351 178.511 581.641 178.682L582.07 179.617C582.569 179.589 583.067 179.546 583.546 179.49C583.722 179.791 583.915 180.082 584.125 180.362C584.475 180.469 584.829 180.558 585.187 180.634C585.41 180.956 585.674 181.25 585.972 181.51C586.375 181.568 586.783 181.601 587.191 181.609C587.397 181.617 587.603 181.614 587.809 181.601C588.021 181.572 588.23 181.526 588.435 181.463C588.639 181.411 588.905 181.589 589.123 181.348C589.158 181.904 589.255 182.452 589.413 182.984C589.701 183.725 589.936 183.186 590.018 183.14C590.289 183.051 590.548 182.93 590.79 182.781C590.939 182.681 591.073 182.563 591.188 182.429C591.238 182.374 591.284 182.316 591.327 182.256C591.768 181.868 592.119 181.394 592.356 180.869C592.755 180.537 593.127 180.175 593.466 179.787C593.425 179.565 593.374 179.353 593.32 179.15Z" fill="#E68688"/>
<path d="M659.862 123.644C659.795 122.831 659.603 122.034 659.292 121.28C659.213 120.443 658.979 119.629 658.6 118.878C658.161 118.119 657.573 117.452 656.867 116.911C656.097 116.493 655.253 116.209 654.373 116.071C653.531 115.736 652.624 115.563 651.704 115.56C651.606 115.601 651.516 115.659 651.438 115.73V115.73L651.344 115.828C651.309 115.865 651.319 115.823 651.308 115.821C651.29 115.784 651.276 115.746 651.263 115.707C651.319 115.609 651.391 115.52 651.476 115.443L651.525 115.409L651.554 115.415C651.565 115.417 651.575 115.325 651.586 115.28L651.657 114.673C651.459 113.906 651.19 113.16 650.854 112.442C650.547 111.738 650.171 111.065 649.731 110.432C649.549 109.671 649.297 108.929 648.977 108.214C648.518 107.571 647.999 106.97 647.425 106.419C647.064 106.219 646.69 106.042 646.303 105.889C645.928 105.73 645.543 105.593 645.149 105.48C644.576 104.91 643.941 104.401 643.254 103.96C642.44 103.847 641.614 103.81 640.787 103.85C640.015 103.71 639.228 103.639 638.438 103.639C637.637 103.637 636.836 103.7 636.043 103.83C635.223 103.865 634.406 103.972 633.602 104.149C633.209 104.277 632.824 104.427 632.449 104.599C632.257 104.674 632.069 104.759 631.885 104.853L631.608 104.996L631.442 105.08C631.459 105.199 631.438 105.322 631.381 105.431C631.347 105.517 631.307 105.602 631.262 105.684L631.179 105.828L631.132 105.902L631.11 105.898C631.075 105.793 631.025 105.693 630.962 105.601C630.924 105.554 630.891 105.504 630.85 105.456L630.725 105.316C630.654 105.238 630.586 105.156 630.51 105.083C630.072 104.312 629.496 103.624 628.807 103.049C627.99 102.866 627.152 102.768 626.308 102.759C625.576 102.556 624.832 102.395 624.078 102.278C623.332 102.001 622.674 101.766 621.943 101.524C621.174 101.598 620.403 101.686 619.62 101.823C618.835 101.918 618.058 102.076 617.297 102.295C616.422 102.184 615.531 102.204 614.655 102.354C613.923 102.881 613.283 103.516 612.759 104.236C612.38 104.472 612.024 104.743 611.697 105.044C611.611 105.12 611.529 105.201 611.452 105.287L611.333 105.413C611.292 105.456 611.243 105.508 611.246 105.494C611.206 105.504 611.164 105.507 611.124 105.503C611.152 105.621 611.163 105.797 611.189 106.038C611.177 106.09 611.135 106.075 611.096 106.082C611.004 105.953 610.924 105.816 610.858 105.673L610.846 105.631L610.85 105.614L610.914 105.626L610.605 105.458C610.394 105.339 610.173 105.239 609.943 105.157C609.014 105.157 608.09 105.341 607.229 105.7C606.359 105.714 605.493 105.857 604.662 106.125C603.934 106.603 603.284 107.183 602.733 107.844C601.986 108.34 601.327 108.949 600.78 109.645C600.491 110.427 600.315 111.24 600.256 112.061C600.222 112.193 600.198 112.326 600.185 112.461C599.861 112.349 599.526 112.267 599.184 112.215C598.851 112.061 598.503 111.938 598.145 111.845C597.458 111.59 596.703 111.534 595.971 111.683C595.615 111.714 595.26 111.774 594.912 111.861C594.242 112.022 593.586 112.235 592.949 112.496C592.28 112.618 591.617 112.773 590.962 112.96C590.404 113.339 589.868 113.738 589.355 114.157C588.843 114.578 588.331 114.983 587.855 115.425C587.234 115.669 586.606 115.944 586.014 116.244C585.486 116.636 584.982 117.054 584.486 117.485C584.131 118.051 583.807 118.631 583.505 119.211C582.937 119.566 582.382 119.946 581.828 120.34C581.539 120.93 581.271 121.524 581.032 122.124C580.656 122.639 580.295 123.164 579.962 123.702C579.629 124.24 579.309 124.785 578.989 125.329C578.67 125.873 578.229 126.372 577.88 126.929C577.618 127.502 577.336 128.076 577.098 128.657C577.037 129.298 576.992 129.935 576.978 130.57C576.797 131.163 576.66 131.76 576.52 132.357C576.125 132.901 575.787 133.46 575.417 134.027C575.462 134.663 575.527 135.296 575.587 135.92C575.479 136.519 575.353 137.119 575.256 137.72C575.017 138.305 574.761 138.898 574.542 139.494C574.61 140.112 574.688 140.725 574.777 141.352C574.866 141.978 574.892 142.567 574.965 143.168C574.708 143.764 574.476 144.365 574.233 144.967L574.77 146.767L574.381 148.581C574.499 149.195 574.642 149.813 574.803 150.421C574.69 151.077 574.617 151.739 574.585 152.402C574.899 153.013 575.263 153.599 575.674 154.155C575.815 154.849 576.049 155.52 576.371 156.152C576.902 156.68 577.526 157.116 578.215 157.44C578.749 157.962 579.365 158.399 580.042 158.737C580.697 158.808 581.355 158.849 582.015 158.857C582.555 158.943 583.084 159.072 583.599 159.244C584.004 159.586 584.366 159.971 584.68 160.393C585.096 160.653 585.483 160.952 585.836 161.286C585.93 161.365 586.019 161.448 586.109 161.53C586.174 161.588 586.236 161.65 586.295 161.714C586.432 161.873 586.553 162.044 586.655 162.226C587.076 162.658 587.47 163.113 587.835 163.59C587.958 163.911 588.104 164.222 588.273 164.522C588.464 164.863 588.707 165.174 588.994 165.444C589.209 165.76 589.46 166.052 589.743 166.312C589.897 166.462 590.067 166.597 590.25 166.714C590.458 166.833 590.674 166.954 590.918 167.066C591.202 167.126 591.49 167.169 591.781 167.195C592.075 167.187 592.369 167.159 592.661 167.11C592.942 167.028 593.217 166.926 593.484 166.804C593.709 166.659 593.953 166.531 594.172 166.367C594.698 165.701 595.034 164.919 595.149 164.099C595.584 163.522 595.952 162.902 596.246 162.25C596.271 161.561 596.225 160.874 596.11 160.197L596.391 158.395L596.265 156.62C596.283 156.032 596.307 155.453 596.338 154.875C596.369 154.297 596.446 153.732 596.533 153.172C596.715 152.62 596.931 152.085 597.152 151.565C597.281 151.033 597.441 150.508 597.631 149.993C597.816 149.477 597.99 148.945 598.207 148.424C598.267 147.848 598.362 147.269 598.467 146.68C598.79 146.185 599.125 145.699 599.472 145.219C599.879 144.767 600.291 144.324 600.716 143.891C600.998 143.379 601.294 142.87 601.594 142.362L602.408 140.771L603.624 139.401L603.98 138.498C604.171 138.005 604.308 137.52 604.308 137.52C604.448 137.355 604.589 137.186 604.72 137.015L605.027 136.603C605.102 136.508 605.591 136.025 603.806 135.411L603.874 135.425C604 135.455 604.13 135.47 604.261 135.47C604.506 135.48 604.611 135.421 604.666 135.344C604.894 134.914 605.063 134.459 605.169 133.99C605.364 133.401 605.546 132.804 605.687 132.204C605.814 131.601 605.905 130.993 605.959 130.382C606.123 129.782 606.265 129.179 606.386 128.568L606.433 128.37C606.999 128.674 607.569 128.95 608.138 129.229C608.581 129.804 609.019 130.395 609.51 130.942C610.178 131.295 610.858 131.596 611.538 131.897C612.092 132.365 612.687 132.773 613.273 133.204C613.956 133.491 614.603 133.821 615.301 134.046C615.955 134.363 616.62 134.661 617.3 134.914C617.98 135.168 618.682 135.422 619.352 135.67L620.372 136.123C620.535 136.205 620.704 136.276 620.878 136.336L621.446 136.361C621.641 136.348 621.828 136.336 622.032 136.314L622.324 136.283L622.346 136.287L622.36 136.228L622.475 136.25C622.52 136.256 622.564 136.265 622.608 136.275C622.954 136.4 623.306 136.5 623.655 136.614C624.357 136.821 625.077 136.951 625.794 137.096C626.537 137.127 627.272 137.131 627.998 137.109C628.717 137.246 629.435 137.384 630.161 137.49C630.887 137.597 631.591 137.797 632.309 137.934C633.057 137.95 633.771 137.946 634.499 137.933C635.226 137.92 635.955 137.809 636.677 137.738C637.417 137.785 638.142 137.815 638.88 137.837L639.968 137.57L641.048 137.273L641.756 137.314L642.317 137.338C642.447 137.345 643.168 137.502 642.906 135.824L642.938 135.946C642.997 136.172 643.07 136.394 643.156 136.611C643.305 137.002 643.416 137.103 643.531 137.093C644.092 136.981 644.643 136.823 645.178 136.621C645.903 136.445 646.626 136.257 647.345 136.028C648.06 135.779 648.758 135.481 649.432 135.137C650.164 134.915 650.882 134.672 651.602 134.389C652.341 134.119 653.064 133.804 653.765 133.448C654.373 132.947 654.944 132.406 655.472 131.828C656.113 131.354 656.719 130.839 657.288 130.286C657.741 129.621 658.131 128.919 658.454 128.189C658.827 127.488 659.126 126.753 659.346 125.996C659.609 125.231 659.782 124.442 659.862 123.644Z" fill="#102B4C"/>
<path d="M585.943 207.557L587.265 205.979L586.615 203.73L588.493 202.342C588.491 202.097 588.515 201.851 588.564 201.609C588.606 201.327 588.672 201.047 588.761 200.773C588.913 200.2 589.148 199.648 589.459 199.134C590.444 198.472 591.613 198.123 592.799 198.135C593.048 197.991 593.304 197.86 593.568 197.742C593.815 197.65 594.054 197.536 594.282 197.404L595.211 196.791L597.253 197.795L599.147 196.835L601.185 197.312L603.086 196.114L605.141 196.616L607.158 196.567C607.812 196.134 608.461 195.689 609.135 195.267C609.823 195.247 610.501 195.221 611.196 195.22C611.89 195.24 612.581 195.296 613.267 195.388C613.952 195.761 614.629 196.145 615.296 196.542C615.979 196.495 616.671 196.475 617.362 196.459C618.072 196.17 618.797 195.929 619.536 195.679C620.243 195.658 620.958 195.697 621.669 195.725C622.306 196.209 622.927 196.76 623.516 197.271C624.264 197.077 625.02 196.91 625.792 196.757C626.417 197.163 627.027 197.574 627.622 198.011C628.342 198.065 629.063 198.141 629.795 198.253C630.425 198.609 631.048 198.993 631.653 199.406C632.326 199.71 632.98 200.05 633.613 200.423C634.298 200.789 634.954 201.202 635.575 201.658C636.405 201.989 637.187 202.418 637.903 202.934C638.039 203.091 638.237 203.317 638.405 203.545C638.577 203.785 638.733 204.037 638.869 204.298C639.139 204.826 639.34 205.386 639.468 205.964C639.626 206.879 639.658 207.813 639.565 208.742C639.176 209.487 638.717 210.197 638.194 210.865C638.199 211.591 638.169 212.31 638.128 212.995C638.216 213.737 638.282 214.475 638.343 215.19C638.074 215.823 637.793 216.44 637.529 217.053L636.405 218.763C636.318 219.421 636.251 220.086 636.146 220.726L634.554 222.161C634.585 222.362 634.591 222.566 634.572 222.77L634.521 223.21C634.509 223.258 634.559 223.445 634.159 223.47C634.028 223.478 633.896 223.475 633.766 223.464C633.666 223.457 633.566 223.445 633.467 223.428L633.147 223.367C632.709 223.283 632.101 223.167 631.294 222.947L631.422 222.993C631.67 223.088 631.925 223.184 632.107 223.269C632.528 223.459 632.635 223.581 632.622 223.669C632.513 224.152 632.346 224.623 632.122 225.071C631.933 225.698 631.732 226.33 631.499 226.967C631.215 227.591 630.898 228.202 630.55 228.797C630.328 229.455 630.095 230.124 629.811 230.773C629.526 231.422 629.294 232.124 628.983 232.772C628.494 233.291 627.977 233.786 627.436 234.256C627.064 234.862 626.67 235.45 626.266 236.036C625.702 236.469 625.126 236.873 624.552 237.271C623.978 237.668 623.492 238.155 622.955 238.567L621.493 239.995C620.843 240.266 620.188 240.513 619.531 240.75L618.886 241.544L618.806 241.645L618.664 241.788L618.356 242.091L618.04 242.394C617.945 242.506 617.835 242.607 617.714 242.694C617.255 243.055 616.747 243.354 616.206 243.583C615.665 243.795 615.091 243.909 614.512 243.918C613.4 243.641 612.43 243.006 611.76 242.119C611.642 242.045 611.529 241.969 611.401 241.905L611.044 241.666L610.953 241.605L610.892 241.594L610.774 241.538L610.541 241.428C610.225 241.285 609.925 241.126 609.615 240.976L608.379 239.528L607.238 237.997L605.311 237.156L604.528 235.313L603.684 233.524C602.986 233.298 602.291 233.065 601.597 232.823L600.199 231.519L599.824 229.319L597.623 228.716L597.058 226.682L595.67 225.369L594.245 224.088L592.394 223.179L590.983 221.886L590.531 219.755L589.323 218.283L586.894 217.883C586.763 217.066 586.567 216.262 586.308 215.476C585.594 214.662 585.127 213.672 584.956 212.61C584.711 212.084 584.546 211.525 584.464 210.95C584.422 210.647 584.398 210.34 584.391 210.033C584.384 209.887 584.397 209.69 584.386 209.579L584.367 209.213C584.854 208.629 585.381 208.075 585.943 207.557V207.557Z" fill="#E68688"/>
<path d="M623.442 146.663C623.743 146.231 623.508 146.494 623.482 146.496L623.242 146.541L623.042 146.387L623.097 145.85L622.693 145.972C622.698 145.806 622.7 145.64 622.691 145.486L622.27 145.681L622.325 145.064L622.001 145.1L621.747 145.015L621.477 144.963L621.293 144.743L620.784 145.211L620.84 144.45C620.693 144.563 620.551 144.67 620.407 144.787L620.097 144.862L619.931 144.577L619.676 144.528L619.508 144.224C619.389 144.295 619.272 144.381 619.156 144.457L618.84 144.603L618.7 144.163L618.36 144.41L618.194 144.015L617.806 144.514L617.658 144.011L617.332 144.311L617.193 143.657L616.803 144.373L616.578 144.163L616.393 143.609L616.074 144.055L615.829 143.932L615.602 143.559L615.291 144.224L615.042 144.151L614.794 143.897C614.704 143.981 614.616 144.068 614.529 144.158L614.274 143.823L614.012 143.791L613.765 144.342L613.528 143.629L613.276 143.838L613.006 143.787L612.79 144.289L612.462 143.788L612.26 144.293L611.984 144.189L611.676 143.902L611.474 144.266L611.182 144.134C611.102 144.187 611.028 144.249 610.95 144.307L610.744 144.575L610.519 144.735L610.283 144.842C610.183 144.823 610.087 144.768 609.991 144.743L609.764 144.881L609.513 144.941L609.178 144.768L608.957 144.925L608.875 145.435L608.631 145.512L608.393 145.6L608.054 145.445C607.978 145.481 607.894 145.516 607.821 145.556L607.641 145.779L607.332 145.72L607.344 146.291L607.034 146.25C606.985 146.332 606.937 146.424 606.891 146.509L606.532 146.44L606.367 146.659L606.202 146.867C606.164 146.917 605.984 146.756 606.108 147.045C606.127 147.092 606.049 147.07 606.427 147.617L606.605 147.868L606.925 148.292C607 148.414 607.089 148.528 607.191 148.63C607.253 148.623 607.245 148.513 607.275 148.465L607.46 148.351L607.587 148.144L607.867 148.197C607.978 148.227 608.084 148.269 608.183 148.323L608.301 148.095L608.59 148.191L608.709 147.956L608.882 147.826C608.961 147.835 609.041 147.837 609.121 147.832L609.208 147.464L609.505 147.619L609.769 147.713C609.809 147.623 609.85 147.529 609.896 147.444L610.215 147.683L610.396 147.569L610.564 147.398L610.872 147.685L610.987 147.323L611.126 146.987L611.441 147.388L611.659 147.404L611.756 146.817L612.067 147.327L612.201 146.856L612.422 146.873L612.641 146.915C612.727 147.014 612.81 147.124 612.89 147.23L613.105 147.272L613.268 146.723L613.478 146.647L613.725 147.351L613.911 146.784L614.127 146.826L614.336 147.355L614.547 146.921C614.618 146.811 614.692 146.705 614.769 146.601L614.945 147.334L615.19 146.725L615.307 147.233L615.55 146.87L615.694 147.441L615.98 146.829L616.132 147.253L616.397 146.909C616.436 147.094 616.474 147.286 616.508 147.474L616.782 147.142L617.001 147.119L617.058 147.786L617.259 147.792C617.334 147.763 617.409 147.744 617.482 147.722L617.852 147.155L618.031 147.287L618.072 147.832C618.127 147.882 618.178 147.935 618.226 147.991L618.652 147.395L618.658 147.958L619.008 147.619L619.114 147.904C619.208 147.857 619.295 147.819 619.392 147.776L619.587 147.842L619.758 147.959L619.757 148.412C619.805 148.461 619.859 148.504 619.903 148.556L620.078 148.64L620.549 148.233L620.593 148.557L620.509 149.074L620.722 149.093L621.027 148.981L621.04 149.306L621.493 148.98L621.423 149.275C621.423 149.275 621.377 149.375 621.515 149.22C621.653 149.065 621.969 148.665 622.681 147.71L623.442 146.663Z" fill="#102B4C"/>
<path d="M640.987 151.194C641.351 151.558 641.129 151.305 641.128 151.294L641.093 151.124L641.229 151.059C641.372 151.152 641.512 151.25 641.647 151.354C641.616 151.249 641.591 151.143 641.572 151.035L641.957 151.315L641.891 150.94C642.048 151.083 642.202 151.234 642.352 151.391C642.367 151.328 642.368 151.245 642.381 151.171L642.498 151.074L642.608 150.958L642.816 150.997L642.65 150.335L643.142 150.969L643.073 150.452L643.15 150.22L643.396 150.369L643.539 150.287L643.788 150.473L643.821 150.095L643.887 149.814L644.182 150.157L644.232 149.771L644.509 150.093L644.496 149.463L644.799 149.912L644.863 149.511L645.191 150.129L645.161 149.286L645.374 149.45L645.656 149.99L645.718 149.439C645.783 149.456 645.845 149.483 645.902 149.518L646.124 149.898L646.178 149.125L646.358 149.16L646.551 149.41L646.688 149.099L646.877 149.476L647.035 149.507L647.181 148.886L647.352 149.644L647.504 149.426L647.65 149.523L647.828 148.992L647.939 149.571L648.142 149.045C648.191 149.099 648.235 149.157 648.274 149.218L648.361 149.598L648.558 149.273L648.657 149.488L648.826 149.379L649.017 149.187L649.184 149.117L649.341 149.104L649.412 149.313C649.461 149.3 649.512 149.293 649.563 149.291L649.671 149.363L649.646 149.673L649.796 149.644C649.915 149.518 650.051 149.388 650.175 149.278L650.264 149.378L650.36 149.462C650.336 149.568 650.3 149.672 650.254 149.772L650.357 149.828C650.413 149.822 650.468 149.82 650.524 149.82L650.441 150.043C650.615 149.948 650.793 149.861 650.976 149.783L650.899 149.997C650.974 149.991 651.049 149.994 651.122 150.007L650.933 150.268L651.092 150.324L651.252 150.394C651.295 150.403 651.056 150.542 651.41 150.425C651.664 150.373 651.91 150.289 652.142 150.173L652.474 150.037L653.059 149.787C653.216 149.734 653.367 149.663 653.506 149.575C653.521 149.513 653.371 149.499 653.315 149.463L653.199 149.255L652.973 149.114L653.047 148.802C653.096 148.682 653.135 148.558 653.164 148.433L652.854 148.345L652.878 147.987L652.566 147.927C652.499 147.874 652.433 147.822 652.361 147.775L652.235 147.544C652.088 147.582 651.946 147.624 651.807 147.673L651.781 147.305L651.69 146.99C651.573 147.011 651.457 147.038 651.344 147.073L651.295 146.657L651.033 146.607L650.751 146.608C650.729 146.447 650.701 146.293 650.673 146.143C650.548 146.228 650.426 146.314 650.308 146.403C650.196 146.479 650.085 146.552 649.979 146.634C649.957 146.451 649.93 146.264 649.897 146.074C649.824 146.031 649.746 145.98 649.673 145.941C649.545 146.124 649.422 146.31 649.305 146.501C649.274 146.292 649.237 146.081 649.195 145.867C649.085 146.015 648.979 146.165 648.878 146.318L648.661 146.222C648.59 146.181 648.518 146.144 648.443 146.111L648.251 145.712L648.022 145.617C647.932 145.808 647.847 146.001 647.766 146.195L647.543 146.247L647.321 145.439L647.103 146.076L646.877 146.032L646.617 145.446L646.425 145.942C646.359 146.064 646.301 146.198 646.24 146.327L645.937 145.544L645.806 146.244L645.535 145.801L645.383 146.239L645.059 145.684L644.978 146.426L644.676 146.035L644.552 146.482L644.201 145.948L644.093 146.405L643.905 146.533L643.501 145.922L643.292 146.013L643.116 146.2L643.129 146.928L642.895 146.916L642.492 146.476L642.241 146.428L642.316 147.207L641.891 146.763L641.875 147.279L641.567 147.136L641.468 147.444C641.403 147.476 641.339 147.513 641.277 147.552L641.063 147.62L640.652 147.338L640.412 147.383L640.212 147.5C640.25 147.707 640.288 147.928 640.335 148.144L640.003 148.055C639.847 147.962 639.689 147.874 639.528 147.79L639.389 148.013L639.351 148.369L638.984 148.331L639.057 148.61L639.136 148.882L638.967 148.817L638.833 148.766C638.833 148.766 638.733 148.711 638.857 148.869C638.982 149.027 639.312 149.394 640.123 150.224L640.987 151.194Z" fill="#102B4C"/>
<path d="M619.707 190.494C619.435 190.772 619.637 190.615 619.648 190.617L619.82 190.65L619.941 190.822L619.845 191.231L620.174 191.186C620.153 191.304 620.144 191.424 620.147 191.543L620.494 191.454L620.408 191.916L620.667 191.933C620.73 191.967 620.796 191.997 620.863 192.025L621.071 192.097L621.204 192.282L621.645 192.004L621.557 192.571L621.919 192.354L622.166 192.329L622.277 192.557L622.47 192.63C622.507 192.713 622.544 192.793 622.586 192.87L622.876 192.726L623.131 192.644L623.213 192.982L623.493 192.829L623.594 193.135L623.928 192.8L624.008 193.178L624.279 192.998L624.334 193.498L624.692 193.001L624.844 193.182L624.934 193.616L625.22 193.309L625.395 193.426L625.529 193.734L625.839 193.264L626.021 193.35L626.179 193.572L626.411 193.403L626.561 193.689L626.754 193.748L627.013 193.362L627.131 193.914L627.348 193.792L627.537 193.879L627.776 193.534L627.929 193.954L628.165 193.605L628.35 193.731L628.522 194.003L628.739 193.765L628.924 193.924L629.126 193.847L629.329 193.686L629.527 193.612L629.721 193.583L629.912 193.729L630.107 193.683L630.301 193.702L630.497 193.924L630.694 193.868L630.885 193.502L631.078 193.513L631.273 193.515L631.473 193.749L631.668 193.735L631.858 193.627L632.06 193.774L632.228 193.317L632.431 193.461C632.491 193.411 632.555 193.365 632.613 193.307L632.821 193.492C632.884 193.45 632.945 193.414 633.007 193.372L633.19 193.251C633.234 193.223 633.297 193.402 633.315 193.133C633.325 193.092 633.358 193.142 633.307 192.592L633.279 192.344L633.224 191.909C633.219 191.792 633.199 191.676 633.166 191.564C633.116 191.554 633.078 191.62 633.036 191.641L632.852 191.642C632.792 191.67 632.738 191.71 632.677 191.746L632.484 191.593L632.287 191.378L632.115 191.533L631.924 191.37L631.752 191.529L631.575 191.578L631.392 191.511L631.22 191.793L631.035 191.591L630.854 191.451L630.675 191.638L630.497 191.39L630.319 191.443L630.138 191.542L629.969 191.256L629.783 191.518L629.594 191.746L629.433 191.378L629.253 191.344L629.047 191.776L628.897 191.341L628.697 191.665L628.517 191.631L628.346 191.562L628.198 191.283L628.03 191.215L627.806 191.607L627.623 191.634L627.524 191.067L627.286 191.471L627.117 191.406L627.015 190.98L626.782 191.299L626.563 191.514L626.502 190.94L626.236 191.371L626.138 191.019L625.904 191.264L625.838 190.828L625.549 191.258L625.462 190.926L625.216 191.158L625.166 190.732L624.918 190.956L624.738 190.954L624.736 190.453L624.574 190.422L624.386 190.459L624.055 190.841L623.921 190.725L623.921 190.312L623.806 190.177L623.436 190.585L623.465 190.159L623.169 190.378L623.105 190.156L622.878 190.228L622.733 190.157L622.612 190.05L622.647 189.694L622.544 189.573C622.5 189.549 622.457 189.521 622.417 189.491L622.037 189.748L622.032 189.5L622.147 189.124C622.095 189.117 622.043 189.107 621.992 189.094L621.765 189.134C621.781 189.053 621.792 188.972 621.797 188.89L621.591 188.999L621.383 189.101L621.429 188.903C621.429 188.903 621.471 188.838 621.35 188.938C621.228 189.038 620.949 189.282 620.326 189.873L619.707 190.494Z" fill="#102B4C"/>
<path d="M648.165 198.798C648.069 198.954 647.951 199.102 647.841 199.251L648.19 199.952L647.341 200.21L646.905 200.613L647.571 201.465L646.602 201.642L646.749 202.294L645.969 202.536L646.361 203.311C646.149 203.412 645.939 203.509 645.703 203.602L645.79 204.253L645.085 204.502L645.053 205.102L645.125 205.768L644.562 206.084L644.276 206.552L643.733 206.865L643.6 207.43C643.659 207.688 643.715 207.945 643.76 208.186L642.677 208.127L642.959 209.004L642.477 209.358L642.18 209.837L641.831 210.285L641.611 210.838C641.338 210.833 641.059 210.819 640.785 210.803L640.692 210.785L640.663 210.91C640.479 211.116 640.291 211.322 640.1 211.527L639.823 211.543L639.741 211.89L639.472 212.154C639.025 212.582 638.553 212.987 638.06 213.366C637.03 214.162 635.894 214.82 634.683 215.319C633.551 215.896 632.365 216.366 631.143 216.722C629.925 217.046 628.686 217.281 627.436 217.426C626.492 217.581 625.536 217.65 624.583 217.63C624.482 217.628 624.383 217.601 624.298 217.551C624.212 217.501 624.142 217.429 624.095 217.344C624.03 217.233 623.976 217.116 623.933 216.994C623.937 216.977 623.916 216.955 623.911 216.932L623.885 216.927C623.861 218.913 622.656 218.606 622.435 218.56L621.483 218.378C621.084 218.301 620.681 218.224 620.291 218.113L619.679 218.097C619.306 218.084 618.815 218.051 618.354 218.014C617.413 217.946 616.474 217.835 616.474 217.835C615.285 217.462 614.118 217.061 612.967 216.623C611.772 216.326 610.582 215.992 609.407 215.637C608.233 215.282 607.11 214.805 605.979 214.364C604.922 213.763 603.881 213.152 602.858 212.534L599.694 210.84C598.476 210.475 597.287 210.029 596.137 209.506C595.008 208.791 593.989 207.929 593.11 206.943C592.279 205.955 591.568 204.878 590.991 203.731C590.532 202.596 590.149 201.433 589.843 200.248C589.44 199.123 589.071 197.979 588.774 196.817C588.477 195.654 588.196 194.491 588.02 193.308C587.77 192.14 587.557 190.953 587.427 189.754C587.429 188.547 587.477 187.338 587.602 186.14C587.511 184.93 587.484 183.715 587.521 182.499L588 180.799L588.434 179.113C588.332 177.955 588.209 176.801 588.079 175.634L588.451 172.141C588.725 170.975 589.001 169.806 589.306 168.636C589.498 167.454 589.709 166.273 590 165.1C590.009 164.793 590.042 164.491 590.062 164.184C590.077 163.854 590.113 163.526 590.17 163.2C590.269 162.676 590.507 162.182 590.86 161.766C591.123 161.469 591.447 161.228 591.811 161.058C592.174 160.888 592.569 160.794 592.97 160.781C593.647 160.802 594.296 161.019 594.832 161.403C595.335 161.756 595.729 162.233 595.974 162.785C596.301 163.62 596.396 164.527 596.248 165.419C596.142 166.124 596.053 166.582 595.975 167.151C595.897 167.719 595.834 168.244 595.792 168.79C595.482 169.86 595.254 170.948 595.108 172.046C595.172 173.087 595.381 174.112 595.726 175.094C596.158 175.907 596.8 176.598 597.593 177.101C598.301 177.927 599.096 178.68 599.965 179.35C601.034 179.852 602.166 180.402 603.245 181.033C604.201 181.857 605.074 182.766 605.853 183.748C606.065 183.915 606.286 184.077 606.484 184.256L606.794 184.533L606.953 184.673C606.993 184.71 607.035 184.744 607.079 184.776C607.236 184.843 607.337 184.844 607.394 184.775C607.421 184.749 607.441 184.716 607.45 184.681C607.425 184.962 607.495 185.48 607.476 186.248C607.476 186.267 607.481 186.285 607.489 186.302C607.513 185.657 607.585 185.192 607.608 184.907L607.611 184.813C607.658 184.815 607.705 184.803 607.746 184.781L607.789 184.76C607.752 184.789 607.834 184.711 607.853 184.693L608.208 184.3C608.687 183.801 609.214 183.347 609.782 182.945C610.686 181.905 611.756 181.008 612.949 180.288C614.271 179.957 615.626 179.784 616.983 179.774C617.295 179.692 617.615 179.623 617.933 179.55C618.261 179.474 618.593 179.416 618.927 179.378C619.575 179.288 620.204 179.231 620.849 179.188C622.145 179.057 623.447 179.017 624.744 179.071C626.02 179.453 627.323 179.855 628.591 180.83C629.008 181.102 629.364 181.45 629.641 181.854C629.909 182.259 630.068 182.724 630.103 183.208C630.131 183.685 630.046 184.164 629.856 184.611C629.65 185.055 629.327 185.442 628.919 185.733C628.726 185.899 628.519 186.048 628.3 186.18C628.19 186.25 628.075 186.314 627.958 186.372L627.689 186.509C627.353 186.668 627.009 186.811 626.657 186.935C626.011 187.155 625.353 187.344 624.688 187.5C623.379 187.402 622.154 187.214 620.972 187.068C620.684 187.092 620.4 187.121 620.131 187.16C620.003 187.179 619.875 187.198 619.764 187.224L619.617 187.258L619.415 187.317C618.881 187.468 618.357 187.654 617.846 187.872C616.984 188.344 616.264 189.028 615.766 189.852C615.226 190.449 614.938 191.214 614.961 191.993C614.856 192.858 615.061 193.724 615.543 194.446C616.147 195.227 616.921 195.869 617.814 196.331C618.797 196.834 619.836 197.233 620.912 197.523L622.232 197.689C622.439 197.707 622.736 197.753 622.827 197.745C622.877 197.728 622.922 197.701 622.959 197.665C622.996 197.618 623.033 197.559 623.016 197.52C623.201 197.462 623.375 197.373 623.528 197.256L623.697 197.146L623.973 196.946C624.167 196.8 624.371 196.665 624.582 196.544C624.973 196.311 625.409 196.16 625.861 196.103C626.081 196.087 626.301 196.094 626.517 196.124C626.727 196.171 626.931 196.236 627.129 196.317C627.264 196.382 627.392 196.46 627.509 196.55C627.932 196.755 628.308 197.036 628.617 197.378C628.676 197.449 628.747 197.51 628.826 197.56L628.971 197.66C629.066 197.726 629.164 197.786 629.267 197.84C629.664 198.065 630.095 198.232 630.547 198.335C631.346 198.748 632.247 198.96 633.166 198.949C634.11 199.096 635.085 198.98 635.978 198.614C636.753 198.006 637.362 197.225 637.748 196.343C638.117 195.507 638.266 194.602 638.18 193.71C638.268 193.287 638.296 192.856 638.264 192.428C638.241 192.03 638.14 191.642 637.967 191.284C637.484 190.658 636.519 190.067 635.506 189.235C635.382 189.124 635.259 189.025 635.136 188.91L634.955 188.738L634.812 188.609C634.791 188.605 634.779 188.577 634.765 188.571L634.74 188.566L634.612 188.502L634.276 188.336C634.156 188.276 634.04 188.207 633.93 188.132C633.724 187.99 633.544 187.816 633.398 187.617C633.255 187.407 633.153 187.172 633.099 186.925C633.005 186.409 633.03 185.877 633.17 185.365C633.248 185.102 633.355 184.846 633.488 184.603L633.693 184.243L633.958 183.932C634.137 183.722 634.338 183.531 634.558 183.361C634.744 183.224 634.942 183.1 635.148 182.992C635.892 182.616 636.712 182.408 637.543 182.385C638.364 182.254 639.2 182.308 639.984 182.544C640.096 182.577 640.204 182.62 640.307 182.672C640.403 182.708 640.496 182.751 640.584 182.801L641.018 183.032L641.89 183.508C642.933 184.32 643.837 185.284 644.569 186.367C644.922 186.909 645.229 187.48 645.485 188.072C645.612 188.365 645.721 188.666 645.81 188.972C645.923 189.266 646.011 189.569 646.074 189.878C646.27 190.304 646.435 190.744 646.567 191.194C646.653 191.134 646.738 191.075 646.816 191.013L647.031 190.547L647.217 190.079L646.801 189.502L647.576 189.129L647.023 188.541L647.199 188.067L647.843 187.657L647.594 187.123L647.31 186.591L647.815 186.151L647.761 185.647L647.772 185.153L648.214 184.697L648.038 184.185L648.301 183.706L648.646 183.228L648.332 182.715L648.503 182.226L648.5 181.728L648.355 181.229L648.632 180.738C648.588 180.574 648.556 180.405 648.523 180.243C648.645 180.077 648.76 179.925 648.869 179.747L649.107 179.249C649.068 179.085 649.05 178.917 649.052 178.749L649.188 178.249C649.175 178.115 649.207 177.979 649.28 177.861C649.285 177.836 649.373 177.813 649.59 177.786L649.939 177.755L650.13 177.741C650.542 177.729 650.558 177.822 650.599 177.856C650.873 177.966 650.791 178.092 650.815 178.213L651.029 178.721C651.099 178.887 651.152 179.06 651.186 179.237C651.115 179.409 651.039 179.572 650.952 179.751L651.134 180.268C651.071 180.441 651.013 180.607 650.938 180.781L651.504 181.314L651.278 181.825L651.391 182.351L651.367 182.868L651.001 183.368L650.944 183.882L650.876 184.395L651.334 184.954L651.36 185.481L650.985 185.971L650.902 186.485L650.909 187.012L650.621 187.5L650.593 188.021L650.632 188.554L650.802 189.108C650.82 189.286 650.835 189.477 650.848 189.647L650.524 190.128L650.807 190.712L650.305 191.156L650.023 191.635L650.482 192.267L649.713 192.616L650.163 193.257L649.928 193.745L650.019 194.313L649.018 194.611L649.523 195.288L649.301 195.8L648.725 196.19C648.779 196.389 648.837 196.574 648.877 196.788L648.405 197.198L648.143 197.674L648.787 198.446L648.165 198.798Z" fill="#102B4C"/>
</g>
<defs>
<clipPath id="clip0">
<rect width="1024" height="825" fill="white"/>
</clipPath>
</defs>
</svg>
