<svg width="1440" height="762" viewBox="0 0 1440 762" fill="none" xmlns="http://www.w3.org/2000/svg">
<g filter="url(#filter0_d)">
<g filter="url(#filter1_bd)">
<path d="M92.3533 189.866V463.617L145.054 483.307V239.408L259.126 359.452L356.522 239.408V372.155L448.58 283.233H413.224V248.935H511.287V348.654H472.596V309.275L356.522 426.143V572.229L413.224 597V414.075H584V167H356.522L255.124 287.679L145.054 167H61L92.3533 189.866Z" fill="#FFF500"/>
<path d="M92.3533 189.866V463.617L145.054 483.307V239.408L259.126 359.452L356.522 239.408V372.155L448.58 283.233H413.224V248.935H511.287V348.654H472.596V309.275L356.522 426.143V572.229L413.224 597V414.075H584V167H356.522L255.124 287.679L145.054 167H61L92.3533 189.866Z" fill="url(#paint0_linear)"/>
<path d="M92.3533 189.866V463.617L145.054 483.307V239.408L259.126 359.452L356.522 239.408V372.155L448.58 283.233H413.224V248.935H511.287V348.654H472.596V309.275L356.522 426.143V572.229L413.224 597V414.075H584V167H356.522L255.124 287.679L145.054 167H61L92.3533 189.866Z" stroke="white"/>
</g>
<g filter="url(#filter2_dd)">
<path d="M672.879 206.031L705.75 298.844L738.445 206.031H773.074V334H746.619V299.02L749.256 238.639L714.715 334H696.609L662.156 238.727L664.793 299.02V334H638.426V206.031H672.879ZM849.539 334C848.367 331.715 847.518 328.873 846.99 325.475C840.838 332.33 832.84 335.758 822.996 335.758C813.68 335.758 805.945 333.062 799.793 327.672C793.699 322.281 790.652 315.484 790.652 307.281C790.652 297.203 794.373 289.469 801.814 284.078C809.314 278.688 820.125 275.963 834.246 275.904H845.936V270.455C845.936 266.061 844.793 262.545 842.508 259.908C840.281 257.271 836.736 255.953 831.873 255.953C827.596 255.953 824.227 256.979 821.766 259.029C819.363 261.08 818.162 263.893 818.162 267.467H792.762C792.762 261.959 794.461 256.861 797.859 252.174C801.258 247.486 806.062 243.824 812.273 241.188C818.484 238.492 825.457 237.145 833.191 237.145C844.91 237.145 854.197 240.104 861.053 246.021C867.967 251.881 871.424 260.143 871.424 270.807V312.027C871.482 321.051 872.742 327.877 875.203 332.506V334H849.539ZM828.533 316.334C832.283 316.334 835.74 315.514 838.904 313.873C842.068 312.174 844.412 309.918 845.936 307.105V290.758H836.443C823.729 290.758 816.961 295.152 816.141 303.941L816.053 305.436C816.053 308.6 817.166 311.207 819.393 313.258C821.619 315.309 824.666 316.334 828.533 316.334ZM942.439 307.721C942.439 304.615 940.887 302.184 937.781 300.426C934.734 298.609 929.812 296.998 923.016 295.592C900.398 290.846 889.09 281.236 889.09 266.764C889.09 258.326 892.576 251.295 899.549 245.67C906.58 239.986 915.75 237.145 927.059 237.145C939.129 237.145 948.768 239.986 955.975 245.67C963.24 251.354 966.873 258.736 966.873 267.818H941.473C941.473 264.186 940.301 261.197 937.957 258.854C935.613 256.451 931.951 255.25 926.971 255.25C922.693 255.25 919.383 256.217 917.039 258.15C914.695 260.084 913.523 262.545 913.523 265.533C913.523 268.346 914.842 270.631 917.479 272.389C920.174 274.088 924.686 275.582 931.014 276.871C937.342 278.102 942.674 279.508 947.01 281.09C960.428 286.012 967.137 294.537 967.137 306.666C967.137 315.338 963.416 322.369 955.975 327.76C948.533 333.092 938.924 335.758 927.146 335.758C919.178 335.758 912.088 334.352 905.877 331.539C899.725 328.668 894.891 324.771 891.375 319.85C887.859 314.869 886.102 309.508 886.102 303.766H910.184C910.418 308.277 912.088 311.734 915.193 314.137C918.299 316.539 922.459 317.74 927.674 317.74C932.537 317.74 936.199 316.832 938.66 315.016C941.18 313.141 942.439 310.709 942.439 307.721ZM1013.98 215.523V238.902H1030.24V257.535H1013.98V304.996C1013.98 308.512 1014.66 311.031 1016 312.555C1017.35 314.078 1019.93 314.84 1023.74 314.84C1026.55 314.84 1029.04 314.635 1031.21 314.225V333.473C1026.23 334.996 1021.1 335.758 1015.83 335.758C998.016 335.758 988.934 326.764 988.582 308.775V257.535H974.695V238.902H988.582V215.523H1013.98ZM1088.16 335.758C1074.22 335.758 1062.85 331.48 1054.06 322.926C1045.33 314.371 1040.96 302.975 1040.96 288.736V286.275C1040.96 276.725 1042.81 268.199 1046.5 260.699C1050.19 253.141 1055.41 247.34 1062.15 243.297C1068.94 239.195 1076.68 237.145 1085.35 237.145C1098.36 237.145 1108.58 241.246 1116.02 249.449C1123.52 257.652 1127.27 269.283 1127.27 284.342V294.713H1066.72C1067.54 300.924 1070 305.904 1074.1 309.654C1078.26 313.404 1083.5 315.279 1089.83 315.279C1099.62 315.279 1107.26 311.734 1112.77 304.645L1125.25 318.619C1121.44 324.01 1116.29 328.229 1109.78 331.275C1103.28 334.264 1096.07 335.758 1088.16 335.758ZM1085.26 257.711C1080.22 257.711 1076.12 259.41 1072.96 262.809C1069.85 266.207 1067.86 271.07 1066.98 277.398H1102.31V275.377C1102.2 269.752 1100.67 265.416 1097.74 262.369C1094.81 259.264 1090.65 257.711 1085.26 257.711ZM1195.21 262.721C1191.76 262.252 1188.71 262.018 1186.07 262.018C1176.46 262.018 1170.16 265.27 1167.18 271.773V334H1141.78V238.902H1165.77L1166.47 250.24C1171.57 241.51 1178.63 237.145 1187.65 237.145C1190.47 237.145 1193.1 237.525 1195.56 238.287L1195.21 262.721ZM664.793 510.912V556H638.426V428.031H688.348C697.957 428.031 706.395 429.789 713.66 433.305C720.984 436.82 726.609 441.83 730.535 448.334C734.461 454.779 736.424 462.133 736.424 470.395C736.424 482.934 732.117 492.836 723.504 500.102C714.949 507.309 703.084 510.912 687.908 510.912H664.793ZM664.793 489.555H688.348C695.32 489.555 700.623 487.914 704.256 484.633C707.947 481.352 709.793 476.664 709.793 470.57C709.793 464.301 707.947 459.232 704.256 455.365C700.564 451.498 695.467 449.506 688.963 449.389H664.793V489.555ZM747.762 507.572C747.762 498.139 749.578 489.73 753.211 482.348C756.844 474.965 762.059 469.252 768.855 465.209C775.711 461.166 783.65 459.145 792.674 459.145C805.506 459.145 815.965 463.07 824.051 470.922C832.195 478.773 836.736 489.438 837.674 502.914L837.85 509.418C837.85 524.008 833.777 535.727 825.633 544.574C817.488 553.363 806.561 557.758 792.85 557.758C779.139 557.758 768.182 553.363 759.979 544.574C751.834 535.785 747.762 523.832 747.762 508.715V507.572ZM773.162 509.418C773.162 518.441 774.861 525.355 778.26 530.16C781.658 534.906 786.521 537.279 792.85 537.279C799.002 537.279 803.807 534.936 807.264 530.248C810.721 525.502 812.449 517.943 812.449 507.572C812.449 498.725 810.721 491.869 807.264 487.006C803.807 482.143 798.943 479.711 792.674 479.711C786.463 479.711 781.658 482.143 778.26 487.006C774.861 491.811 773.162 499.281 773.162 509.418ZM906.932 484.721C903.475 484.252 900.428 484.018 897.791 484.018C888.182 484.018 881.883 487.27 878.895 493.773V556H853.494V460.902H877.488L878.191 472.24C883.289 463.51 890.35 459.145 899.373 459.145C902.186 459.145 904.822 459.525 907.283 460.287L906.932 484.721ZM954.041 437.523V460.902H970.301V479.535H954.041V526.996C954.041 530.512 954.715 533.031 956.062 534.555C957.41 536.078 959.988 536.84 963.797 536.84C966.609 536.84 969.1 536.635 971.268 536.225V555.473C966.287 556.996 961.16 557.758 955.887 557.758C938.074 557.758 928.992 548.764 928.641 530.775V479.535H914.754V460.902H928.641V437.523H954.041ZM991.395 556V479.535H977.244V460.902H991.395V452.816C991.395 442.152 994.441 433.891 1000.54 428.031C1006.69 422.113 1015.27 419.154 1026.29 419.154C1029.8 419.154 1034.11 419.74 1039.21 420.912L1038.94 440.6C1036.83 440.072 1034.26 439.809 1031.21 439.809C1021.66 439.809 1016.88 444.291 1016.88 453.256V460.902H1035.78V479.535H1016.88V556H991.395ZM1045.01 507.572C1045.01 498.139 1046.82 489.73 1050.46 482.348C1054.09 474.965 1059.3 469.252 1066.1 465.209C1072.96 461.166 1080.9 459.145 1089.92 459.145C1102.75 459.145 1113.21 463.07 1121.3 470.922C1129.44 478.773 1133.98 489.438 1134.92 502.914L1135.1 509.418C1135.1 524.008 1131.02 535.727 1122.88 544.574C1114.73 553.363 1103.81 557.758 1090.1 557.758C1076.38 557.758 1065.43 553.363 1057.22 544.574C1049.08 535.785 1045.01 523.832 1045.01 508.715V507.572ZM1070.41 509.418C1070.41 518.441 1072.11 525.355 1075.51 530.16C1078.9 534.906 1083.77 537.279 1090.1 537.279C1096.25 537.279 1101.05 534.936 1104.51 530.248C1107.97 525.502 1109.7 517.943 1109.7 507.572C1109.7 498.725 1107.97 491.869 1104.51 487.006C1101.05 482.143 1096.19 479.711 1089.92 479.711C1083.71 479.711 1078.9 482.143 1075.51 487.006C1072.11 491.811 1070.41 499.281 1070.41 509.418ZM1177.55 556H1152.06V421H1177.55V556ZM1225.36 556H1199.87V460.902H1225.36V556ZM1198.38 436.293C1198.38 432.484 1199.64 429.35 1202.16 426.889C1204.73 424.428 1208.22 423.197 1212.62 423.197C1216.95 423.197 1220.41 424.428 1222.99 426.889C1225.56 429.35 1226.85 432.484 1226.85 436.293C1226.85 440.16 1225.54 443.324 1222.9 445.785C1220.32 448.246 1216.89 449.477 1212.62 449.477C1208.34 449.477 1204.88 448.246 1202.24 445.785C1199.67 443.324 1198.38 440.16 1198.38 436.293ZM1242.41 507.572C1242.41 498.139 1244.23 489.73 1247.86 482.348C1251.49 474.965 1256.71 469.252 1263.5 465.209C1270.36 461.166 1278.3 459.145 1287.32 459.145C1300.15 459.145 1310.61 463.07 1318.7 470.922C1326.84 478.773 1331.38 489.438 1332.32 502.914L1332.5 509.418C1332.5 524.008 1328.43 535.727 1320.28 544.574C1312.14 553.363 1301.21 557.758 1287.5 557.758C1273.79 557.758 1262.83 553.363 1254.63 544.574C1246.48 535.785 1242.41 523.832 1242.41 508.715V507.572ZM1267.81 509.418C1267.81 518.441 1269.51 525.355 1272.91 530.16C1276.31 534.906 1281.17 537.279 1287.5 537.279C1293.65 537.279 1298.46 534.936 1301.91 530.248C1305.37 525.502 1307.1 517.943 1307.1 507.572C1307.1 498.725 1305.37 491.869 1301.91 487.006C1298.46 482.143 1293.59 479.711 1287.32 479.711C1281.11 479.711 1276.31 482.143 1272.91 487.006C1269.51 491.811 1267.81 499.281 1267.81 509.418Z" fill="#FFF50D"/>
<path d="M672.879 206.031L705.75 298.844L738.445 206.031H773.074V334H746.619V299.02L749.256 238.639L714.715 334H696.609L662.156 238.727L664.793 299.02V334H638.426V206.031H672.879ZM849.539 334C848.367 331.715 847.518 328.873 846.99 325.475C840.838 332.33 832.84 335.758 822.996 335.758C813.68 335.758 805.945 333.062 799.793 327.672C793.699 322.281 790.652 315.484 790.652 307.281C790.652 297.203 794.373 289.469 801.814 284.078C809.314 278.688 820.125 275.963 834.246 275.904H845.936V270.455C845.936 266.061 844.793 262.545 842.508 259.908C840.281 257.271 836.736 255.953 831.873 255.953C827.596 255.953 824.227 256.979 821.766 259.029C819.363 261.08 818.162 263.893 818.162 267.467H792.762C792.762 261.959 794.461 256.861 797.859 252.174C801.258 247.486 806.062 243.824 812.273 241.188C818.484 238.492 825.457 237.145 833.191 237.145C844.91 237.145 854.197 240.104 861.053 246.021C867.967 251.881 871.424 260.143 871.424 270.807V312.027C871.482 321.051 872.742 327.877 875.203 332.506V334H849.539ZM828.533 316.334C832.283 316.334 835.74 315.514 838.904 313.873C842.068 312.174 844.412 309.918 845.936 307.105V290.758H836.443C823.729 290.758 816.961 295.152 816.141 303.941L816.053 305.436C816.053 308.6 817.166 311.207 819.393 313.258C821.619 315.309 824.666 316.334 828.533 316.334ZM942.439 307.721C942.439 304.615 940.887 302.184 937.781 300.426C934.734 298.609 929.812 296.998 923.016 295.592C900.398 290.846 889.09 281.236 889.09 266.764C889.09 258.326 892.576 251.295 899.549 245.67C906.58 239.986 915.75 237.145 927.059 237.145C939.129 237.145 948.768 239.986 955.975 245.67C963.24 251.354 966.873 258.736 966.873 267.818H941.473C941.473 264.186 940.301 261.197 937.957 258.854C935.613 256.451 931.951 255.25 926.971 255.25C922.693 255.25 919.383 256.217 917.039 258.15C914.695 260.084 913.523 262.545 913.523 265.533C913.523 268.346 914.842 270.631 917.479 272.389C920.174 274.088 924.686 275.582 931.014 276.871C937.342 278.102 942.674 279.508 947.01 281.09C960.428 286.012 967.137 294.537 967.137 306.666C967.137 315.338 963.416 322.369 955.975 327.76C948.533 333.092 938.924 335.758 927.146 335.758C919.178 335.758 912.088 334.352 905.877 331.539C899.725 328.668 894.891 324.771 891.375 319.85C887.859 314.869 886.102 309.508 886.102 303.766H910.184C910.418 308.277 912.088 311.734 915.193 314.137C918.299 316.539 922.459 317.74 927.674 317.74C932.537 317.74 936.199 316.832 938.66 315.016C941.18 313.141 942.439 310.709 942.439 307.721ZM1013.98 215.523V238.902H1030.24V257.535H1013.98V304.996C1013.98 308.512 1014.66 311.031 1016 312.555C1017.35 314.078 1019.93 314.84 1023.74 314.84C1026.55 314.84 1029.04 314.635 1031.21 314.225V333.473C1026.23 334.996 1021.1 335.758 1015.83 335.758C998.016 335.758 988.934 326.764 988.582 308.775V257.535H974.695V238.902H988.582V215.523H1013.98ZM1088.16 335.758C1074.22 335.758 1062.85 331.48 1054.06 322.926C1045.33 314.371 1040.96 302.975 1040.96 288.736V286.275C1040.96 276.725 1042.81 268.199 1046.5 260.699C1050.19 253.141 1055.41 247.34 1062.15 243.297C1068.94 239.195 1076.68 237.145 1085.35 237.145C1098.36 237.145 1108.58 241.246 1116.02 249.449C1123.52 257.652 1127.27 269.283 1127.27 284.342V294.713H1066.72C1067.54 300.924 1070 305.904 1074.1 309.654C1078.26 313.404 1083.5 315.279 1089.83 315.279C1099.62 315.279 1107.26 311.734 1112.77 304.645L1125.25 318.619C1121.44 324.01 1116.29 328.229 1109.78 331.275C1103.28 334.264 1096.07 335.758 1088.16 335.758ZM1085.26 257.711C1080.22 257.711 1076.12 259.41 1072.96 262.809C1069.85 266.207 1067.86 271.07 1066.98 277.398H1102.31V275.377C1102.2 269.752 1100.67 265.416 1097.74 262.369C1094.81 259.264 1090.65 257.711 1085.26 257.711ZM1195.21 262.721C1191.76 262.252 1188.71 262.018 1186.07 262.018C1176.46 262.018 1170.16 265.27 1167.18 271.773V334H1141.78V238.902H1165.77L1166.47 250.24C1171.57 241.51 1178.63 237.145 1187.65 237.145C1190.47 237.145 1193.1 237.525 1195.56 238.287L1195.21 262.721ZM664.793 510.912V556H638.426V428.031H688.348C697.957 428.031 706.395 429.789 713.66 433.305C720.984 436.82 726.609 441.83 730.535 448.334C734.461 454.779 736.424 462.133 736.424 470.395C736.424 482.934 732.117 492.836 723.504 500.102C714.949 507.309 703.084 510.912 687.908 510.912H664.793ZM664.793 489.555H688.348C695.32 489.555 700.623 487.914 704.256 484.633C707.947 481.352 709.793 476.664 709.793 470.57C709.793 464.301 707.947 459.232 704.256 455.365C700.564 451.498 695.467 449.506 688.963 449.389H664.793V489.555ZM747.762 507.572C747.762 498.139 749.578 489.73 753.211 482.348C756.844 474.965 762.059 469.252 768.855 465.209C775.711 461.166 783.65 459.145 792.674 459.145C805.506 459.145 815.965 463.07 824.051 470.922C832.195 478.773 836.736 489.438 837.674 502.914L837.85 509.418C837.85 524.008 833.777 535.727 825.633 544.574C817.488 553.363 806.561 557.758 792.85 557.758C779.139 557.758 768.182 553.363 759.979 544.574C751.834 535.785 747.762 523.832 747.762 508.715V507.572ZM773.162 509.418C773.162 518.441 774.861 525.355 778.26 530.16C781.658 534.906 786.521 537.279 792.85 537.279C799.002 537.279 803.807 534.936 807.264 530.248C810.721 525.502 812.449 517.943 812.449 507.572C812.449 498.725 810.721 491.869 807.264 487.006C803.807 482.143 798.943 479.711 792.674 479.711C786.463 479.711 781.658 482.143 778.26 487.006C774.861 491.811 773.162 499.281 773.162 509.418ZM906.932 484.721C903.475 484.252 900.428 484.018 897.791 484.018C888.182 484.018 881.883 487.27 878.895 493.773V556H853.494V460.902H877.488L878.191 472.24C883.289 463.51 890.35 459.145 899.373 459.145C902.186 459.145 904.822 459.525 907.283 460.287L906.932 484.721ZM954.041 437.523V460.902H970.301V479.535H954.041V526.996C954.041 530.512 954.715 533.031 956.062 534.555C957.41 536.078 959.988 536.84 963.797 536.84C966.609 536.84 969.1 536.635 971.268 536.225V555.473C966.287 556.996 961.16 557.758 955.887 557.758C938.074 557.758 928.992 548.764 928.641 530.775V479.535H914.754V460.902H928.641V437.523H954.041ZM991.395 556V479.535H977.244V460.902H991.395V452.816C991.395 442.152 994.441 433.891 1000.54 428.031C1006.69 422.113 1015.27 419.154 1026.29 419.154C1029.8 419.154 1034.11 419.74 1039.21 420.912L1038.94 440.6C1036.83 440.072 1034.26 439.809 1031.21 439.809C1021.66 439.809 1016.88 444.291 1016.88 453.256V460.902H1035.78V479.535H1016.88V556H991.395ZM1045.01 507.572C1045.01 498.139 1046.82 489.73 1050.46 482.348C1054.09 474.965 1059.3 469.252 1066.1 465.209C1072.96 461.166 1080.9 459.145 1089.92 459.145C1102.75 459.145 1113.21 463.07 1121.3 470.922C1129.44 478.773 1133.98 489.438 1134.92 502.914L1135.1 509.418C1135.1 524.008 1131.02 535.727 1122.88 544.574C1114.73 553.363 1103.81 557.758 1090.1 557.758C1076.38 557.758 1065.43 553.363 1057.22 544.574C1049.08 535.785 1045.01 523.832 1045.01 508.715V507.572ZM1070.41 509.418C1070.41 518.441 1072.11 525.355 1075.51 530.16C1078.9 534.906 1083.77 537.279 1090.1 537.279C1096.25 537.279 1101.05 534.936 1104.51 530.248C1107.97 525.502 1109.7 517.943 1109.7 507.572C1109.7 498.725 1107.97 491.869 1104.51 487.006C1101.05 482.143 1096.19 479.711 1089.92 479.711C1083.71 479.711 1078.9 482.143 1075.51 487.006C1072.11 491.811 1070.41 499.281 1070.41 509.418ZM1177.55 556H1152.06V421H1177.55V556ZM1225.36 556H1199.87V460.902H1225.36V556ZM1198.38 436.293C1198.38 432.484 1199.64 429.35 1202.16 426.889C1204.73 424.428 1208.22 423.197 1212.62 423.197C1216.95 423.197 1220.41 424.428 1222.99 426.889C1225.56 429.35 1226.85 432.484 1226.85 436.293C1226.85 440.16 1225.54 443.324 1222.9 445.785C1220.32 448.246 1216.89 449.477 1212.62 449.477C1208.34 449.477 1204.88 448.246 1202.24 445.785C1199.67 443.324 1198.38 440.16 1198.38 436.293ZM1242.41 507.572C1242.41 498.139 1244.23 489.73 1247.86 482.348C1251.49 474.965 1256.71 469.252 1263.5 465.209C1270.36 461.166 1278.3 459.145 1287.32 459.145C1300.15 459.145 1310.61 463.07 1318.7 470.922C1326.84 478.773 1331.38 489.438 1332.32 502.914L1332.5 509.418C1332.5 524.008 1328.43 535.727 1320.28 544.574C1312.14 553.363 1301.21 557.758 1287.5 557.758C1273.79 557.758 1262.83 553.363 1254.63 544.574C1246.48 535.785 1242.41 523.832 1242.41 508.715V507.572ZM1267.81 509.418C1267.81 518.441 1269.51 525.355 1272.91 530.16C1276.31 534.906 1281.17 537.279 1287.5 537.279C1293.65 537.279 1298.46 534.936 1301.91 530.248C1305.37 525.502 1307.1 517.943 1307.1 507.572C1307.1 498.725 1305.37 491.869 1301.91 487.006C1298.46 482.143 1293.59 479.711 1287.32 479.711C1281.11 479.711 1276.31 482.143 1272.91 487.006C1269.51 491.811 1267.81 499.281 1267.81 509.418Z" fill="url(#paint1_linear)"/>
<path d="M672.879 206.031L673.822 205.697L673.586 205.031H672.879V206.031ZM705.75 298.844L704.807 299.178L705.753 301.846L706.693 299.176L705.75 298.844ZM738.445 206.031V205.031H737.737L737.502 205.699L738.445 206.031ZM773.074 206.031H774.074V205.031H773.074V206.031ZM773.074 334V335H774.074V334H773.074ZM746.619 334H745.619V335H746.619V334ZM746.619 299.02L745.62 298.976L745.619 298.998V299.02H746.619ZM749.256 238.639L750.255 238.682L748.316 238.298L749.256 238.639ZM714.715 334V335H715.416L715.655 334.341L714.715 334ZM696.609 334L695.669 334.34L695.908 335H696.609V334ZM662.156 238.727L663.097 238.386L661.157 238.77L662.156 238.727ZM664.793 299.02H665.793V298.998L665.792 298.976L664.793 299.02ZM664.793 334V335H665.793V334H664.793ZM638.426 334H637.426V335H638.426V334ZM638.426 206.031V205.031H637.426V206.031H638.426ZM671.936 206.365L704.807 299.178L706.693 298.51L673.822 205.697L671.936 206.365ZM706.693 299.176L739.389 206.364L737.502 205.699L704.807 298.511L706.693 299.176ZM738.445 207.031H773.074V205.031H738.445V207.031ZM772.074 206.031V334H774.074V206.031H772.074ZM773.074 333H746.619V335H773.074V333ZM747.619 334V299.02H745.619V334H747.619ZM747.618 299.063L750.255 238.682L748.257 238.595L745.62 298.976L747.618 299.063ZM748.316 238.298L713.775 333.659L715.655 334.341L750.196 238.979L748.316 238.298ZM714.715 333H696.609V335H714.715V333ZM697.55 333.66L663.097 238.386L661.216 239.067L695.669 334.34L697.55 333.66ZM661.157 238.77L663.794 299.063L665.792 298.976L663.155 238.683L661.157 238.77ZM663.793 299.02V334H665.793V299.02H663.793ZM664.793 333H638.426V335H664.793V333ZM639.426 334V206.031H637.426V334H639.426ZM638.426 207.031H672.879V205.031H638.426V207.031ZM849.539 334L848.649 334.456L848.928 335H849.539V334ZM846.99 325.475L847.978 325.321L847.655 323.237L846.246 324.807L846.99 325.475ZM799.793 327.672L799.13 328.421L799.134 328.424L799.793 327.672ZM801.814 284.078L801.231 283.266L801.228 283.268L801.814 284.078ZM834.246 275.904V274.904L834.242 274.904L834.246 275.904ZM845.936 275.904V276.904H846.936V275.904H845.936ZM842.508 259.908L841.744 260.553L841.752 260.563L842.508 259.908ZM821.766 259.029L821.125 258.261L821.116 258.269L821.766 259.029ZM818.162 267.467V268.467H819.162V267.467H818.162ZM792.762 267.467H791.762V268.467H792.762V267.467ZM812.273 241.188L812.664 242.108L812.672 242.105L812.273 241.188ZM861.053 246.021L860.399 246.778L860.406 246.784L861.053 246.021ZM871.424 312.027H870.424L870.424 312.034L871.424 312.027ZM875.203 332.506H876.203V332.257L876.086 332.036L875.203 332.506ZM875.203 334V335H876.203V334H875.203ZM838.904 313.873L839.365 314.761L839.371 314.757L839.377 314.754L838.904 313.873ZM845.936 307.105L846.815 307.582L846.936 307.359V307.105H845.936ZM845.936 290.758H846.936V289.758H845.936V290.758ZM816.141 303.941L815.145 303.848L815.143 303.866L815.142 303.883L816.141 303.941ZM816.053 305.436L815.054 305.377L815.053 305.406V305.436H816.053ZM850.429 333.544C849.319 331.38 848.495 328.648 847.978 325.321L846.002 325.628C846.541 329.099 847.415 332.05 848.649 334.456L850.429 333.544ZM846.246 324.807C840.298 331.435 832.578 334.758 822.996 334.758V336.758C833.102 336.758 841.378 333.225 847.734 326.143L846.246 324.807ZM822.996 334.758C813.886 334.758 806.397 332.128 800.452 326.92L799.134 328.424C805.494 333.997 813.473 336.758 822.996 336.758V334.758ZM800.456 326.923C794.578 321.724 791.652 315.201 791.652 307.281H789.652C789.652 315.768 792.82 322.839 799.13 328.421L800.456 326.923ZM791.652 307.281C791.652 297.488 795.247 290.07 802.401 284.888L801.228 283.268C793.499 288.867 789.652 296.919 789.652 307.281H791.652ZM802.398 284.89C809.661 279.67 820.234 276.962 834.25 276.904L834.242 274.904C820.016 274.963 808.968 277.705 801.231 283.266L802.398 284.89ZM834.246 276.904H845.936V274.904H834.246V276.904ZM846.936 275.904V270.455H844.936V275.904H846.936ZM846.936 270.455C846.936 265.884 845.744 262.115 843.264 259.253L841.752 260.563C843.842 262.975 844.936 266.237 844.936 270.455H846.936ZM843.272 259.263C840.787 256.32 836.905 254.953 831.873 254.953V256.953C836.567 256.953 839.775 258.223 841.744 260.553L843.272 259.263ZM831.873 254.953C827.441 254.953 823.819 256.017 821.125 258.261L822.406 259.798C824.635 257.94 827.751 256.953 831.873 256.953V254.953ZM821.116 258.269C818.461 260.536 817.162 263.643 817.162 267.467H819.162C819.162 264.142 820.266 261.624 822.415 259.79L821.116 258.269ZM818.162 266.467H792.762V268.467H818.162V266.467ZM793.762 267.467C793.762 262.181 795.388 257.287 798.669 252.761L797.05 251.587C793.534 256.436 791.762 261.737 791.762 267.467H793.762ZM798.669 252.761C801.944 248.243 806.593 244.686 812.664 242.108L811.883 240.267C805.532 242.963 800.571 246.729 797.05 251.587L798.669 252.761ZM812.672 242.105C818.74 239.471 825.575 238.145 833.191 238.145V236.145C825.339 236.145 818.229 237.513 811.875 240.27L812.672 242.105ZM833.191 238.145C844.742 238.145 853.773 241.059 860.399 246.778L861.706 245.265C854.621 239.148 845.078 236.145 833.191 236.145V238.145ZM860.406 246.784C867.056 252.419 870.424 260.379 870.424 270.807H872.424C872.424 259.906 868.878 251.342 861.699 245.259L860.406 246.784ZM870.424 270.807V312.027H872.424V270.807H870.424ZM870.424 312.034C870.483 321.118 871.747 328.135 874.32 332.975L876.086 332.036C873.737 327.619 872.482 320.984 872.424 312.021L870.424 312.034ZM874.203 332.506V334H876.203V332.506H874.203ZM875.203 333H849.539V335H875.203V333ZM828.533 317.334C832.435 317.334 836.051 316.479 839.365 314.761L838.444 312.985C835.43 314.548 832.132 315.334 828.533 315.334V317.334ZM839.377 314.754C842.692 312.974 845.187 310.586 846.815 307.582L845.056 306.629C843.637 309.249 841.445 311.373 838.431 312.992L839.377 314.754ZM846.936 307.105V290.758H844.936V307.105H846.936ZM845.936 289.758H836.443V291.758H845.936V289.758ZM836.443 289.758C829.995 289.758 824.901 290.868 821.287 293.215C817.62 295.596 815.58 299.182 815.145 303.848L817.136 304.034C817.521 299.912 819.275 296.906 822.376 294.892C825.529 292.845 830.177 291.758 836.443 291.758V289.758ZM815.142 303.883L815.054 305.377L817.051 305.494L817.139 304L815.142 303.883ZM815.053 305.436C815.053 308.865 816.273 311.744 818.715 313.993L820.07 312.522C818.059 310.67 817.053 308.334 817.053 305.436H815.053ZM818.715 313.993C821.173 316.257 824.487 317.334 828.533 317.334V315.334C824.845 315.334 822.065 314.36 820.07 312.522L818.715 313.993ZM937.781 300.426L937.269 301.285L937.279 301.29L937.289 301.296L937.781 300.426ZM923.016 295.592L922.81 296.57L922.813 296.571L923.016 295.592ZM899.549 245.67L900.177 246.448L900.177 246.448L899.549 245.67ZM955.975 245.67L955.355 246.455L955.358 246.458L955.975 245.67ZM966.873 267.818V268.818H967.873V267.818H966.873ZM941.473 267.818H940.473V268.818H941.473V267.818ZM937.957 258.854L937.241 259.552L937.25 259.561L937.957 258.854ZM917.479 272.389L916.924 273.221L916.934 273.228L916.945 273.235L917.479 272.389ZM931.014 276.871L930.814 277.851L930.823 277.853L931.014 276.871ZM947.01 281.09L947.354 280.151L947.353 280.15L947.01 281.09ZM955.975 327.76L956.557 328.573L956.561 328.57L955.975 327.76ZM905.877 331.539L905.454 332.445L905.464 332.45L905.877 331.539ZM891.375 319.85L890.558 320.426L890.561 320.431L891.375 319.85ZM886.102 303.766V302.766H885.102V303.766H886.102ZM910.184 303.766L911.182 303.714L911.133 302.766H910.184V303.766ZM938.66 315.016L939.254 315.82L939.257 315.818L938.66 315.016ZM943.439 307.721C943.439 304.195 941.637 301.459 938.274 299.556L937.289 301.296C940.137 302.908 941.439 305.036 941.439 307.721H943.439ZM938.293 299.567C935.098 297.662 930.041 296.024 923.218 294.613L922.813 296.571C929.584 297.972 934.371 299.557 937.269 301.285L938.293 299.567ZM923.221 294.613C911.993 292.257 903.694 288.716 898.219 284.063C892.782 279.443 890.09 273.698 890.09 266.764H888.09C888.09 274.302 891.052 280.598 896.924 285.587C902.757 290.544 911.421 294.181 922.81 296.57L923.221 294.613ZM890.09 266.764C890.09 258.649 893.423 251.897 900.177 246.448L898.921 244.892C891.73 250.693 888.09 258.003 888.09 266.764H890.09ZM900.177 246.448C906.99 240.941 915.92 238.145 927.059 238.145V236.145C915.58 236.145 906.17 239.032 898.92 244.892L900.177 246.448ZM927.059 238.145C938.975 238.145 948.373 240.949 955.355 246.455L956.594 244.885C949.162 239.024 939.283 236.145 927.059 236.145V238.145ZM955.358 246.458C962.386 251.955 965.873 259.05 965.873 267.818H967.873C967.873 258.423 964.094 250.752 956.591 244.882L955.358 246.458ZM966.873 266.818H941.473V268.818H966.873V266.818ZM942.473 267.818C942.473 263.948 941.214 260.697 938.664 258.146L937.25 259.561C939.387 261.698 940.473 264.423 940.473 267.818H942.473ZM938.673 258.155C936.066 255.483 932.091 254.25 926.971 254.25V256.25C931.812 256.25 935.16 257.419 937.241 259.552L938.673 258.155ZM926.971 254.25C922.554 254.25 918.986 255.248 916.403 257.379L917.675 258.922C919.779 257.186 922.832 256.25 926.971 256.25V254.25ZM916.403 257.379C913.833 259.499 912.523 262.241 912.523 265.533H914.523C914.523 262.849 915.557 260.669 917.675 258.922L916.403 257.379ZM912.523 265.533C912.523 268.727 914.05 271.305 916.924 273.221L918.033 271.557C915.633 269.957 914.523 267.965 914.523 265.533H912.523ZM916.945 273.235C919.802 275.035 924.464 276.557 930.814 277.851L931.213 275.891C924.907 274.607 920.546 273.14 918.012 271.543L916.945 273.235ZM930.823 277.853C937.118 279.077 942.396 280.471 946.667 282.029L947.353 280.15C942.952 278.545 937.566 277.126 931.205 275.889L930.823 277.853ZM946.665 282.029C953.254 284.446 958.11 287.716 961.319 291.794C964.519 295.859 966.137 300.798 966.137 306.666H968.137C968.137 300.405 966.4 295.017 962.891 290.557C959.391 286.109 954.183 282.656 947.354 280.151L946.665 282.029ZM966.137 306.666C966.137 314.996 962.588 321.734 955.388 326.95L956.561 328.57C964.244 323.004 968.137 315.68 968.137 306.666H966.137ZM955.392 326.947C948.164 332.126 938.775 334.758 927.146 334.758V336.758C939.073 336.758 948.903 334.057 956.557 328.573L955.392 326.947ZM927.146 334.758C919.296 334.758 912.351 333.373 906.289 330.628L905.464 332.45C911.825 335.33 919.059 336.758 927.146 336.758V334.758ZM906.3 330.633C900.284 327.826 895.592 324.034 892.189 319.268L890.561 320.431C894.189 325.509 899.165 329.51 905.454 332.445L906.3 330.633ZM892.192 319.273C888.788 314.45 887.102 309.288 887.102 303.766H885.102C885.102 309.727 886.931 315.288 890.558 320.426L892.192 319.273ZM886.102 304.766H910.184V302.766H886.102V304.766ZM909.185 303.818C909.432 308.571 911.21 312.319 914.581 314.928L915.805 313.346C912.966 311.15 911.404 307.983 911.182 303.714L909.185 303.818ZM914.581 314.928C917.912 317.504 922.31 318.74 927.674 318.74V316.74C922.608 316.74 918.686 315.574 915.805 313.346L914.581 314.928ZM927.674 318.74C932.634 318.74 936.546 317.819 939.254 315.82L938.066 314.211C935.852 315.845 932.44 316.74 927.674 316.74V318.74ZM939.257 315.818C942.015 313.765 943.439 311.043 943.439 307.721H941.439C941.439 310.375 940.344 312.516 938.063 314.213L939.257 315.818ZM1013.98 215.523H1014.98V214.523H1013.98V215.523ZM1013.98 238.902H1012.98V239.902H1013.98V238.902ZM1030.24 238.902H1031.24V237.902H1030.24V238.902ZM1030.24 257.535V258.535H1031.24V257.535H1030.24ZM1013.98 257.535V256.535H1012.98V257.535H1013.98ZM1031.21 314.225H1032.21V313.018L1031.02 313.242L1031.21 314.225ZM1031.21 333.473L1031.5 334.429L1032.21 334.213V333.473H1031.21ZM988.582 308.775H987.582V308.785L987.582 308.795L988.582 308.775ZM988.582 257.535H989.582V256.535H988.582V257.535ZM974.695 257.535H973.695V258.535H974.695V257.535ZM974.695 238.902V237.902H973.695V238.902H974.695ZM988.582 238.902V239.902H989.582V238.902H988.582ZM988.582 215.523V214.523H987.582V215.523H988.582ZM1012.98 215.523V238.902H1014.98V215.523H1012.98ZM1013.98 239.902H1030.24V237.902H1013.98V239.902ZM1029.24 238.902V257.535H1031.24V238.902H1029.24ZM1030.24 256.535H1013.98V258.535H1030.24V256.535ZM1012.98 257.535V304.996H1014.98V257.535H1012.98ZM1012.98 304.996C1012.98 308.593 1013.66 311.418 1015.25 313.217L1016.75 311.892C1015.65 310.645 1014.98 308.43 1014.98 304.996H1012.98ZM1015.25 313.217C1016.9 315.081 1019.87 315.84 1023.74 315.84V313.84C1019.99 313.84 1017.8 313.075 1016.75 311.892L1015.25 313.217ZM1023.74 315.84C1026.6 315.84 1029.15 315.632 1031.39 315.207L1031.02 313.242C1028.93 313.638 1026.5 313.84 1023.74 313.84V315.84ZM1030.21 314.225V333.473H1032.21V314.225H1030.21ZM1030.92 332.516C1026.03 334.01 1021 334.758 1015.83 334.758V336.758C1021.2 336.758 1026.43 335.982 1031.5 334.429L1030.92 332.516ZM1015.83 334.758C1007.08 334.758 1000.65 332.55 996.361 328.302C992.069 324.051 989.755 317.597 989.582 308.756L987.582 308.795C987.761 317.942 990.164 324.979 994.954 329.723C999.745 334.468 1006.76 336.758 1015.83 336.758V334.758ZM989.582 308.775V257.535H987.582V308.775H989.582ZM988.582 256.535H974.695V258.535H988.582V256.535ZM975.695 257.535V238.902H973.695V257.535H975.695ZM974.695 239.902H988.582V237.902H974.695V239.902ZM989.582 238.902V215.523H987.582V238.902H989.582ZM988.582 216.523H1013.98V214.523H988.582V216.523ZM1054.06 322.926L1053.36 323.64L1053.36 323.642L1054.06 322.926ZM1046.5 260.699L1047.4 261.141L1047.4 261.138L1046.5 260.699ZM1062.15 243.297L1062.66 244.154L1062.66 244.153L1062.15 243.297ZM1116.02 249.449L1115.28 250.121L1115.29 250.124L1116.02 249.449ZM1127.27 294.713V295.713H1128.27V294.713H1127.27ZM1066.72 294.713V293.713H1065.58L1065.73 294.844L1066.72 294.713ZM1074.1 309.654L1073.42 310.392L1073.43 310.397L1074.1 309.654ZM1112.77 304.645L1113.52 303.978L1112.72 303.083L1111.98 304.031L1112.77 304.645ZM1125.25 318.619L1126.07 319.196L1126.53 318.546L1126 317.953L1125.25 318.619ZM1109.78 331.275L1110.2 332.184L1110.21 332.181L1109.78 331.275ZM1072.96 262.809L1072.23 262.127L1072.22 262.134L1072.96 262.809ZM1066.98 277.398L1065.99 277.261L1065.83 278.398H1066.98V277.398ZM1102.31 277.398V278.398H1103.31V277.398H1102.31ZM1102.31 275.377H1103.31V275.367L1103.31 275.356L1102.31 275.377ZM1097.74 262.369L1097.01 263.055L1097.02 263.062L1097.74 262.369ZM1088.16 334.758C1074.44 334.758 1063.33 330.557 1054.76 322.209L1053.36 323.642C1062.36 332.404 1073.99 336.758 1088.16 336.758V334.758ZM1054.76 322.212C1046.25 313.876 1041.96 302.754 1041.96 288.736H1039.96C1039.96 303.195 1044.41 314.866 1053.36 323.64L1054.76 322.212ZM1041.96 288.736V286.275H1039.96V288.736H1041.96ZM1041.96 286.275C1041.96 276.856 1043.78 268.485 1047.4 261.141L1045.6 260.258C1041.84 267.913 1039.96 276.593 1039.96 286.275H1041.96ZM1047.4 261.138C1051.01 253.74 1056.1 248.091 1062.66 244.154L1061.63 242.439C1054.72 246.589 1049.37 252.541 1045.6 260.26L1047.4 261.138ZM1062.66 244.153C1069.29 240.154 1076.84 238.145 1085.35 238.145V236.145C1076.51 236.145 1068.6 238.236 1061.63 242.441L1062.66 244.153ZM1085.35 238.145C1098.13 238.145 1108.06 242.164 1115.28 250.121L1116.76 248.777C1109.1 240.328 1098.59 236.145 1085.35 236.145V238.145ZM1115.29 250.124C1122.56 258.086 1126.27 269.443 1126.27 284.342H1128.27C1128.27 269.123 1124.48 257.219 1116.76 248.774L1115.29 250.124ZM1126.27 284.342V294.713H1128.27V284.342H1126.27ZM1127.27 293.713H1066.72V295.713H1127.27V293.713ZM1065.73 294.844C1066.57 301.256 1069.13 306.463 1073.42 310.392L1074.77 308.916C1070.87 305.345 1068.5 300.591 1067.71 294.582L1065.73 294.844ZM1073.43 310.397C1077.8 314.334 1083.29 316.279 1089.83 316.279V314.279C1083.72 314.279 1078.72 312.474 1074.77 308.912L1073.43 310.397ZM1089.83 316.279C1099.89 316.279 1107.85 312.616 1113.56 305.258L1111.98 304.031C1106.68 310.853 1099.34 314.279 1089.83 314.279V316.279ZM1112.03 305.311L1124.51 319.285L1126 317.953L1113.52 303.978L1112.03 305.311ZM1124.44 318.042C1120.74 323.279 1115.72 327.39 1109.36 330.37L1110.21 332.181C1116.85 329.067 1122.15 324.741 1126.07 319.196L1124.44 318.042ZM1109.37 330.367C1103.01 333.289 1095.94 334.758 1088.16 334.758V336.758C1096.2 336.758 1103.55 335.239 1110.2 332.184L1109.37 330.367ZM1085.26 256.711C1079.97 256.711 1075.6 258.507 1072.23 262.127L1073.69 263.49C1076.65 260.313 1080.47 258.711 1085.26 258.711V256.711ZM1072.22 262.134C1068.93 265.73 1066.89 270.808 1065.99 277.261L1067.97 277.536C1068.83 271.333 1070.77 266.685 1073.7 263.483L1072.22 262.134ZM1066.98 278.398H1102.31V276.398H1066.98V278.398ZM1103.31 277.398V275.377H1101.31V277.398H1103.31ZM1103.31 275.356C1103.19 269.565 1101.62 264.957 1098.46 261.676L1097.02 263.062C1099.73 265.875 1101.2 269.939 1101.31 275.398L1103.31 275.356ZM1098.47 261.683C1095.3 258.327 1090.85 256.711 1085.26 256.711V258.711C1090.45 258.711 1094.32 260.2 1097.01 263.055L1098.47 261.683ZM1195.21 262.721L1195.08 263.712L1196.2 263.863L1196.21 262.735L1195.21 262.721ZM1167.18 271.773L1166.27 271.356L1166.18 271.555V271.773H1167.18ZM1167.18 334V335H1168.18V334H1167.18ZM1141.78 334H1140.78V335H1141.78V334ZM1141.78 238.902V237.902H1140.78V238.902H1141.78ZM1165.77 238.902L1166.77 238.84L1166.71 237.902H1165.77V238.902ZM1166.47 250.24L1165.47 250.302L1165.68 253.584L1167.34 250.744L1166.47 250.24ZM1195.56 238.287L1196.56 238.301L1196.58 237.553L1195.86 237.332L1195.56 238.287ZM1195.35 261.73C1191.86 261.257 1188.77 261.018 1186.07 261.018V263.018C1188.65 263.018 1191.65 263.247 1195.08 263.712L1195.35 261.73ZM1186.07 261.018C1176.23 261.018 1169.48 264.373 1166.27 271.356L1168.08 272.191C1170.85 266.167 1176.69 263.018 1186.07 263.018V261.018ZM1166.18 271.773V334H1168.18V271.773H1166.18ZM1167.18 333H1141.78V335H1167.18V333ZM1142.78 334V238.902H1140.78V334H1142.78ZM1141.78 239.902H1165.77V237.902H1141.78V239.902ZM1164.77 238.964L1165.47 250.302L1167.47 250.178L1166.77 238.84L1164.77 238.964ZM1167.34 250.744C1172.28 242.277 1179.04 238.145 1187.65 238.145V236.145C1178.23 236.145 1170.86 240.743 1165.61 249.736L1167.34 250.744ZM1187.65 238.145C1190.38 238.145 1192.91 238.513 1195.27 239.242L1195.86 237.332C1193.3 236.538 1190.56 236.145 1187.65 236.145V238.145ZM1194.56 238.273L1194.21 262.706L1196.21 262.735L1196.56 238.301L1194.56 238.273ZM664.793 510.912V509.912H663.793V510.912H664.793ZM664.793 556V557H665.793V556H664.793ZM638.426 556H637.426V557H638.426V556ZM638.426 428.031V427.031H637.426V428.031H638.426ZM713.66 433.305L713.225 434.205L713.227 434.206L713.66 433.305ZM730.535 448.334L729.679 448.851L729.681 448.854L730.535 448.334ZM723.504 500.102L724.148 500.866L724.149 500.866L723.504 500.102ZM664.793 489.555H663.793V490.555H664.793V489.555ZM704.256 484.633L703.591 483.885L703.586 483.891L704.256 484.633ZM688.963 449.389L688.981 448.389L688.972 448.389H688.963V449.389ZM664.793 449.389V448.389H663.793V449.389H664.793ZM663.793 510.912V556H665.793V510.912H663.793ZM664.793 555H638.426V557H664.793V555ZM639.426 556V428.031H637.426V556H639.426ZM638.426 429.031H688.348V427.031H638.426V429.031ZM688.348 429.031C697.835 429.031 706.118 430.766 713.225 434.205L714.096 432.405C706.671 428.812 698.079 427.031 688.348 427.031V429.031ZM713.227 434.206C720.389 437.644 725.861 442.525 729.679 448.851L731.391 447.817C727.358 441.135 721.58 435.997 714.093 432.403L713.227 434.206ZM729.681 448.854C733.502 455.128 735.424 462.298 735.424 470.395H737.424C737.424 461.967 735.419 454.43 731.389 447.814L729.681 448.854ZM735.424 470.395C735.424 482.676 731.22 492.284 722.859 499.337L724.149 500.866C733.014 493.387 737.424 483.191 737.424 470.395H735.424ZM722.86 499.337C714.541 506.345 702.932 509.912 687.908 509.912V511.912C703.236 511.912 715.358 508.272 724.148 500.866L722.86 499.337ZM687.908 509.912H664.793V511.912H687.908V509.912ZM664.793 490.555H688.348V488.555H664.793V490.555ZM688.348 490.555C695.464 490.555 701.045 488.881 704.926 485.375L703.586 483.891C700.202 486.947 695.177 488.555 688.348 488.555V490.555ZM704.92 485.38C708.874 481.866 710.793 476.877 710.793 470.57H708.793C708.793 476.451 707.021 480.837 703.591 483.885L704.92 485.38ZM710.793 470.57C710.793 464.091 708.879 458.76 704.979 454.675L703.533 456.056C707.016 459.705 708.793 464.51 708.793 470.57H710.793ZM704.979 454.675C701.065 450.574 695.69 448.51 688.981 448.389L688.945 450.389C695.244 450.502 700.064 452.422 703.533 456.056L704.979 454.675ZM688.963 448.389H664.793V450.389H688.963V448.389ZM663.793 449.389V489.555H665.793V449.389H663.793ZM768.855 465.209L768.347 464.348L768.344 464.35L768.855 465.209ZM824.051 470.922L823.354 471.639L823.357 471.642L824.051 470.922ZM837.674 502.914L838.673 502.887L838.673 502.866L838.671 502.845L837.674 502.914ZM837.85 509.418H838.85V509.404L838.849 509.391L837.85 509.418ZM825.633 544.574L826.366 545.254L826.369 545.251L825.633 544.574ZM759.979 544.574L759.245 545.254L759.247 545.257L759.979 544.574ZM778.26 530.16L777.443 530.738L777.447 530.742L778.26 530.16ZM807.264 530.248L808.068 530.842L808.072 530.837L807.264 530.248ZM778.26 487.006L779.076 487.583L779.079 487.579L778.26 487.006ZM748.762 507.572C748.762 498.269 750.552 490.016 754.108 482.789L752.314 481.906C748.604 489.445 746.762 498.008 746.762 507.572H748.762ZM754.108 482.789C757.659 475.573 762.743 470.008 769.367 466.068L768.344 464.35C761.374 468.496 756.028 474.357 752.314 481.906L754.108 482.789ZM769.363 466.07C776.045 462.13 783.805 460.145 792.674 460.145V458.145C783.496 458.145 775.377 460.202 768.347 464.348L769.363 466.07ZM792.674 460.145C805.285 460.145 815.481 463.994 823.354 471.639L824.747 470.204C816.449 462.146 805.727 458.145 792.674 458.145V460.145ZM823.357 471.642C831.29 479.289 835.752 489.703 836.676 502.983L838.671 502.845C837.72 489.172 833.101 478.258 824.745 470.202L823.357 471.642ZM836.674 502.941L836.85 509.445L838.849 509.391L838.673 502.887L836.674 502.941ZM836.85 509.418C836.85 523.813 832.837 535.272 824.897 543.897L826.369 545.251C834.718 536.182 838.85 524.202 838.85 509.418H836.85ZM824.899 543.895C816.972 552.449 806.326 556.758 792.85 556.758V558.758C806.795 558.758 818.004 554.277 826.366 545.254L824.899 543.895ZM792.85 556.758C779.373 556.758 768.696 552.449 760.71 543.892L759.247 545.257C767.667 554.278 778.904 558.758 792.85 558.758V556.758ZM760.712 543.895C752.78 535.335 748.762 523.649 748.762 508.715H746.762C746.762 524.015 750.888 536.235 759.245 545.254L760.712 543.895ZM748.762 508.715V507.572H746.762V508.715H748.762ZM772.162 509.418C772.162 518.545 773.877 525.696 777.443 530.738L779.076 529.583C775.845 525.015 774.162 518.338 774.162 509.418H772.162ZM777.447 530.742C781.051 535.775 786.231 538.279 792.85 538.279V536.279C786.812 536.279 782.266 534.037 779.073 529.578L777.447 530.742ZM792.85 538.279C799.299 538.279 804.411 535.801 808.068 530.842L806.459 529.655C803.202 534.07 798.705 536.279 792.85 536.279V538.279ZM808.072 530.837C811.717 525.832 813.449 518.012 813.449 507.572H811.449C811.449 517.875 809.724 525.172 806.455 529.659L808.072 530.837ZM813.449 507.572C813.449 498.612 811.701 491.523 808.079 486.426L806.449 487.585C809.74 492.215 811.449 498.837 811.449 507.572H813.449ZM808.079 486.426C804.423 481.284 799.248 478.711 792.674 478.711V480.711C798.639 480.711 803.19 483.001 806.449 487.585L808.079 486.426ZM792.674 478.711C786.154 478.711 781.036 481.288 777.44 486.433L779.079 487.579C782.281 482.998 786.771 480.711 792.674 480.711V478.711ZM777.443 486.428C773.867 491.485 772.162 499.208 772.162 509.418H774.162C774.162 499.355 775.856 492.136 779.076 487.583L777.443 486.428ZM906.932 484.721L906.797 485.712L907.915 485.863L907.932 484.735L906.932 484.721ZM878.895 493.773L877.986 493.356L877.895 493.555V493.773H878.895ZM878.895 556V557H879.895V556H878.895ZM853.494 556H852.494V557H853.494V556ZM853.494 460.902V459.902H852.494V460.902H853.494ZM877.488 460.902L878.486 460.84L878.428 459.902H877.488V460.902ZM878.191 472.24L877.193 472.302L877.397 475.584L879.055 472.744L878.191 472.24ZM907.283 460.287L908.283 460.301L908.294 459.553L907.579 459.332L907.283 460.287ZM907.066 483.73C903.578 483.257 900.484 483.018 897.791 483.018V485.018C900.371 485.018 903.371 485.247 906.797 485.712L907.066 483.73ZM897.791 483.018C887.95 483.018 881.194 486.373 877.986 493.356L879.803 494.191C882.571 488.167 888.414 485.018 897.791 485.018V483.018ZM877.895 493.773V556H879.895V493.773H877.895ZM878.895 555H853.494V557H878.895V555ZM854.494 556V460.902H852.494V556H854.494ZM853.494 461.902H877.488V459.902H853.494V461.902ZM876.49 460.964L877.193 472.302L879.189 472.178L878.486 460.84L876.49 460.964ZM879.055 472.744C883.999 464.277 890.754 460.145 899.373 460.145V458.145C889.945 458.145 882.579 462.743 877.328 471.736L879.055 472.744ZM899.373 460.145C902.094 460.145 904.631 460.513 906.988 461.242L907.579 459.332C905.014 458.538 902.277 458.145 899.373 458.145V460.145ZM906.283 460.273L905.932 484.706L907.932 484.735L908.283 460.301L906.283 460.273ZM954.041 437.523H955.041V436.523H954.041V437.523ZM954.041 460.902H953.041V461.902H954.041V460.902ZM970.301 460.902H971.301V459.902H970.301V460.902ZM970.301 479.535V480.535H971.301V479.535H970.301ZM954.041 479.535V478.535H953.041V479.535H954.041ZM971.268 536.225H972.268V535.018L971.082 535.242L971.268 536.225ZM971.268 555.473L971.56 556.429L972.268 556.213V555.473H971.268ZM928.641 530.775H927.641V530.785L927.641 530.795L928.641 530.775ZM928.641 479.535H929.641V478.535H928.641V479.535ZM914.754 479.535H913.754V480.535H914.754V479.535ZM914.754 460.902V459.902H913.754V460.902H914.754ZM928.641 460.902V461.902H929.641V460.902H928.641ZM928.641 437.523V436.523H927.641V437.523H928.641ZM953.041 437.523V460.902H955.041V437.523H953.041ZM954.041 461.902H970.301V459.902H954.041V461.902ZM969.301 460.902V479.535H971.301V460.902H969.301ZM970.301 478.535H954.041V480.535H970.301V478.535ZM953.041 479.535V526.996H955.041V479.535H953.041ZM953.041 526.996C953.041 530.593 953.722 533.418 955.314 535.217L956.811 533.892C955.708 532.645 955.041 530.43 955.041 526.996H953.041ZM955.314 535.217C956.962 537.081 959.93 537.84 963.797 537.84V535.84C960.047 535.84 957.858 535.075 956.811 533.892L955.314 535.217ZM963.797 537.84C966.656 537.84 969.21 537.632 971.453 537.207L971.082 535.242C968.989 535.638 966.563 535.84 963.797 535.84V537.84ZM970.268 536.225V555.473H972.268V536.225H970.268ZM970.975 554.516C966.091 556.01 961.062 556.758 955.887 556.758V558.758C961.258 558.758 966.484 557.982 971.56 556.429L970.975 554.516ZM955.887 556.758C947.139 556.758 940.71 554.55 936.419 550.302C932.127 546.051 929.813 539.597 929.64 530.756L927.641 530.795C927.82 539.942 930.222 546.979 935.012 551.723C939.804 556.468 946.822 558.758 955.887 558.758V556.758ZM929.641 530.775V479.535H927.641V530.775H929.641ZM928.641 478.535H914.754V480.535H928.641V478.535ZM915.754 479.535V460.902H913.754V479.535H915.754ZM914.754 461.902H928.641V459.902H914.754V461.902ZM929.641 460.902V437.523H927.641V460.902H929.641ZM928.641 438.523H954.041V436.523H928.641V438.523ZM991.395 556H990.395V557H991.395V556ZM991.395 479.535H992.395V478.535H991.395V479.535ZM977.244 479.535H976.244V480.535H977.244V479.535ZM977.244 460.902V459.902H976.244V460.902H977.244ZM991.395 460.902V461.902H992.395V460.902H991.395ZM1000.54 428.031L1001.23 428.752L1001.23 428.752L1000.54 428.031ZM1039.21 420.912L1040.21 420.926L1040.22 420.118L1039.43 419.938L1039.21 420.912ZM1038.94 440.6L1038.7 441.57L1039.93 441.876L1039.94 440.613L1038.94 440.6ZM1016.88 460.902H1015.88V461.902H1016.88V460.902ZM1035.78 460.902H1036.78V459.902H1035.78V460.902ZM1035.78 479.535V480.535H1036.78V479.535H1035.78ZM1016.88 479.535V478.535H1015.88V479.535H1016.88ZM1016.88 556V557H1017.88V556H1016.88ZM992.395 556V479.535H990.395V556H992.395ZM991.395 478.535H977.244V480.535H991.395V478.535ZM978.244 479.535V460.902H976.244V479.535H978.244ZM977.244 461.902H991.395V459.902H977.244V461.902ZM992.395 460.902V452.816H990.395V460.902H992.395ZM992.395 452.816C992.395 442.349 995.379 434.376 1001.23 428.752L999.842 427.31C993.504 433.405 990.395 441.956 990.395 452.816H992.395ZM1001.23 428.752C1007.14 423.061 1015.45 420.154 1026.29 420.154V418.154C1015.09 418.154 1006.23 421.166 999.842 427.311L1001.23 428.752ZM1026.29 420.154C1029.7 420.154 1033.93 420.724 1038.98 421.887L1039.43 419.938C1034.29 418.756 1029.91 418.154 1026.29 418.154V420.154ZM1038.21 420.899L1037.94 440.586L1039.94 440.613L1040.21 420.926L1038.21 420.899ZM1039.19 439.629C1036.97 439.076 1034.31 438.809 1031.21 438.809V440.809C1034.2 440.809 1036.7 441.068 1038.7 441.57L1039.19 439.629ZM1031.21 438.809C1026.29 438.809 1022.42 439.961 1019.78 442.441C1017.13 444.933 1015.88 448.603 1015.88 453.256H1017.88C1017.88 448.944 1019.03 445.89 1021.15 443.9C1023.28 441.898 1026.57 440.809 1031.21 440.809V438.809ZM1015.88 453.256V460.902H1017.88V453.256H1015.88ZM1016.88 461.902H1035.78V459.902H1016.88V461.902ZM1034.78 460.902V479.535H1036.78V460.902H1034.78ZM1035.78 478.535H1016.88V480.535H1035.78V478.535ZM1015.88 479.535V556H1017.88V479.535H1015.88ZM1016.88 555H991.395V557H1016.88V555ZM1066.1 465.209L1065.59 464.348L1065.59 464.35L1066.1 465.209ZM1121.3 470.922L1120.6 471.639L1120.6 471.642L1121.3 470.922ZM1134.92 502.914L1135.92 502.887L1135.92 502.866L1135.92 502.845L1134.92 502.914ZM1135.1 509.418H1136.1V509.404L1136.1 509.391L1135.1 509.418ZM1122.88 544.574L1123.61 545.254L1123.61 545.251L1122.88 544.574ZM1057.22 544.574L1056.49 545.254L1056.49 545.257L1057.22 544.574ZM1075.51 530.16L1074.69 530.738L1074.69 530.742L1075.51 530.16ZM1104.51 530.248L1105.31 530.842L1105.32 530.837L1104.51 530.248ZM1075.51 487.006L1076.32 487.583L1076.33 487.579L1075.51 487.006ZM1046.01 507.572C1046.01 498.269 1047.8 490.016 1051.35 482.789L1049.56 481.906C1045.85 489.445 1044.01 498.008 1044.01 507.572H1046.01ZM1051.35 482.789C1054.91 475.573 1059.99 470.008 1066.61 466.068L1065.59 464.35C1058.62 468.496 1053.27 474.357 1049.56 481.906L1051.35 482.789ZM1066.61 466.07C1073.29 462.13 1081.05 460.145 1089.92 460.145V458.145C1080.74 458.145 1072.62 460.202 1065.59 464.348L1066.61 466.07ZM1089.92 460.145C1102.53 460.145 1112.73 463.994 1120.6 471.639L1121.99 470.204C1113.69 462.146 1102.97 458.145 1089.92 458.145V460.145ZM1120.6 471.642C1128.54 479.289 1133 489.703 1133.92 502.983L1135.92 502.845C1134.97 489.172 1130.35 478.258 1121.99 470.202L1120.6 471.642ZM1133.92 502.941L1134.1 509.445L1136.1 509.391L1135.92 502.887L1133.92 502.941ZM1134.1 509.418C1134.1 523.813 1130.08 535.272 1122.14 543.897L1123.61 545.251C1131.96 536.182 1136.1 524.202 1136.1 509.418H1134.1ZM1122.15 543.895C1114.22 552.449 1103.57 556.758 1090.1 556.758V558.758C1104.04 558.758 1115.25 554.277 1123.61 545.254L1122.15 543.895ZM1090.1 556.758C1076.62 556.758 1065.94 552.449 1057.96 543.892L1056.49 545.257C1064.91 554.278 1076.15 558.758 1090.1 558.758V556.758ZM1057.96 543.895C1050.03 535.335 1046.01 523.649 1046.01 508.715H1044.01C1044.01 524.015 1048.13 536.235 1056.49 545.254L1057.96 543.895ZM1046.01 508.715V507.572H1044.01V508.715H1046.01ZM1069.41 509.418C1069.41 518.545 1071.12 525.696 1074.69 530.738L1076.32 529.583C1073.09 525.015 1071.41 518.338 1071.41 509.418H1069.41ZM1074.69 530.742C1078.3 535.775 1083.48 538.279 1090.1 538.279V536.279C1084.06 536.279 1079.51 534.037 1076.32 529.578L1074.69 530.742ZM1090.1 538.279C1096.54 538.279 1101.66 535.801 1105.31 530.842L1103.7 529.655C1100.45 534.07 1095.95 536.279 1090.1 536.279V538.279ZM1105.32 530.837C1108.96 525.832 1110.7 518.012 1110.7 507.572H1108.7C1108.7 517.875 1106.97 525.172 1103.7 529.659L1105.32 530.837ZM1110.7 507.572C1110.7 498.612 1108.95 491.523 1105.32 486.426L1103.69 487.585C1106.99 492.215 1108.7 498.837 1108.7 507.572H1110.7ZM1105.32 486.426C1101.67 481.284 1096.49 478.711 1089.92 478.711V480.711C1095.89 480.711 1100.44 483.001 1103.69 487.585L1105.32 486.426ZM1089.92 478.711C1083.4 478.711 1078.28 481.288 1074.69 486.433L1076.33 487.579C1079.53 482.998 1084.02 480.711 1089.92 480.711V478.711ZM1074.69 486.428C1071.11 491.485 1069.41 499.208 1069.41 509.418H1071.41C1071.41 499.355 1073.1 492.136 1076.32 487.583L1074.69 486.428ZM1177.55 556V557H1178.55V556H1177.55ZM1152.06 556H1151.06V557H1152.06V556ZM1152.06 421V420H1151.06V421H1152.06ZM1177.55 421H1178.55V420H1177.55V421ZM1177.55 555H1152.06V557H1177.55V555ZM1153.06 556V421H1151.06V556H1153.06ZM1152.06 422H1177.55V420H1152.06V422ZM1176.55 421V556H1178.55V421H1176.55ZM1225.36 556V557H1226.36V556H1225.36ZM1199.87 556H1198.87V557H1199.87V556ZM1199.87 460.902V459.902H1198.87V460.902H1199.87ZM1225.36 460.902H1226.36V459.902H1225.36V460.902ZM1202.16 426.889L1201.47 426.165L1201.46 426.173L1202.16 426.889ZM1222.9 445.785L1222.22 445.054L1222.21 445.062L1222.9 445.785ZM1202.24 445.785L1201.55 446.509L1201.56 446.516L1202.24 445.785ZM1225.36 555H1199.87V557H1225.36V555ZM1200.87 556V460.902H1198.87V556H1200.87ZM1199.87 461.902H1225.36V459.902H1199.87V461.902ZM1224.36 460.902V556H1226.36V460.902H1224.36ZM1199.38 436.293C1199.38 432.729 1200.54 429.861 1202.85 427.604L1201.46 426.173C1198.73 428.839 1197.38 432.239 1197.38 436.293H1199.38ZM1202.85 427.612C1205.2 425.368 1208.41 424.197 1212.62 424.197V422.197C1208.03 422.197 1204.27 423.488 1201.47 426.165L1202.85 427.612ZM1212.62 424.197C1216.75 424.197 1219.94 425.366 1222.3 427.612L1223.68 426.165C1220.87 423.49 1217.15 422.197 1212.62 422.197V424.197ZM1222.3 427.612C1224.66 429.87 1225.85 432.737 1225.85 436.293H1227.85C1227.85 432.232 1226.47 428.829 1223.68 426.165L1222.3 427.612ZM1225.85 436.293C1225.85 439.905 1224.63 442.797 1222.22 445.054L1223.58 446.516C1226.44 443.851 1227.85 440.415 1227.85 436.293H1225.85ZM1222.21 445.062C1219.85 447.311 1216.69 448.477 1212.62 448.477V450.477C1217.1 450.477 1220.79 449.181 1223.59 446.509L1222.21 445.062ZM1212.62 448.477C1208.54 448.477 1205.34 447.311 1202.93 445.054L1201.56 446.516C1204.42 449.181 1208.13 450.477 1212.62 450.477V448.477ZM1202.93 445.062C1200.57 442.807 1199.38 439.913 1199.38 436.293H1197.38C1197.38 440.408 1198.76 443.842 1201.55 446.509L1202.93 445.062ZM1263.5 465.209L1263 464.348L1262.99 464.35L1263.5 465.209ZM1318.7 470.922L1318 471.639L1318.01 471.642L1318.7 470.922ZM1332.32 502.914L1333.32 502.887L1333.32 502.866L1333.32 502.845L1332.32 502.914ZM1332.5 509.418H1333.5V509.404L1333.5 509.391L1332.5 509.418ZM1320.28 544.574L1321.01 545.254L1321.02 545.251L1320.28 544.574ZM1254.63 544.574L1253.89 545.254L1253.9 545.257L1254.63 544.574ZM1272.91 530.16L1272.09 530.738L1272.1 530.742L1272.91 530.16ZM1301.91 530.248L1302.72 530.842L1302.72 530.837L1301.91 530.248ZM1272.91 487.006L1273.72 487.583L1273.73 487.579L1272.91 487.006ZM1243.41 507.572C1243.41 498.269 1245.2 490.016 1248.76 482.789L1246.96 481.906C1243.25 489.445 1241.41 498.008 1241.41 507.572H1243.41ZM1248.76 482.789C1252.31 475.573 1257.39 470.008 1264.02 466.068L1262.99 464.35C1256.02 468.496 1250.68 474.357 1246.96 481.906L1248.76 482.789ZM1264.01 466.07C1270.69 462.13 1278.45 460.145 1287.32 460.145V458.145C1278.14 458.145 1270.03 460.202 1263 464.348L1264.01 466.07ZM1287.32 460.145C1299.93 460.145 1310.13 463.994 1318 471.639L1319.4 470.204C1311.1 462.146 1300.38 458.145 1287.32 458.145V460.145ZM1318.01 471.642C1325.94 479.289 1330.4 489.703 1331.32 502.983L1333.32 502.845C1332.37 489.172 1327.75 478.258 1319.39 470.202L1318.01 471.642ZM1331.32 502.941L1331.5 509.445L1333.5 509.391L1333.32 502.887L1331.32 502.941ZM1331.5 509.418C1331.5 523.813 1327.49 535.272 1319.55 543.897L1321.02 545.251C1329.37 536.182 1333.5 524.202 1333.5 509.418H1331.5ZM1319.55 543.895C1311.62 552.449 1300.97 556.758 1287.5 556.758V558.758C1301.44 558.758 1312.65 554.277 1321.01 545.254L1319.55 543.895ZM1287.5 556.758C1274.02 556.758 1263.34 552.449 1255.36 543.892L1253.9 545.257C1262.32 554.278 1273.55 558.758 1287.5 558.758V556.758ZM1255.36 543.895C1247.43 535.335 1243.41 523.649 1243.41 508.715H1241.41C1241.41 524.015 1245.54 536.235 1253.89 545.254L1255.36 543.895ZM1243.41 508.715V507.572H1241.41V508.715H1243.41ZM1266.81 509.418C1266.81 518.545 1268.53 525.696 1272.09 530.738L1273.72 529.583C1270.49 525.015 1268.81 518.338 1268.81 509.418H1266.81ZM1272.1 530.742C1275.7 535.775 1280.88 538.279 1287.5 538.279V536.279C1281.46 536.279 1276.91 534.037 1273.72 529.578L1272.1 530.742ZM1287.5 538.279C1293.95 538.279 1299.06 535.801 1302.72 530.842L1301.11 529.655C1297.85 534.07 1293.35 536.279 1287.5 536.279V538.279ZM1302.72 530.837C1306.37 525.832 1308.1 518.012 1308.1 507.572H1306.1C1306.1 517.875 1304.37 525.172 1301.1 529.659L1302.72 530.837ZM1308.1 507.572C1308.1 498.612 1306.35 491.523 1302.73 486.426L1301.1 487.585C1304.39 492.215 1306.1 498.837 1306.1 507.572H1308.1ZM1302.73 486.426C1299.07 481.284 1293.9 478.711 1287.32 478.711V480.711C1293.29 480.711 1297.84 483.001 1301.1 487.585L1302.73 486.426ZM1287.32 478.711C1280.8 478.711 1275.68 481.288 1272.09 486.433L1273.73 487.579C1276.93 482.998 1281.42 480.711 1287.32 480.711V478.711ZM1272.09 486.428C1268.51 491.485 1266.81 499.208 1266.81 509.418H1268.81C1268.81 499.355 1270.5 492.136 1273.72 487.583L1272.09 486.428Z" fill="white"/>
</g>
</g>
<defs>
<filter id="filter0_d" x="-4" y="0" width="1448" height="770" filterUnits="userSpaceOnUse" color-interpolation-filters="sRGB">
<feFlood flood-opacity="0" result="BackgroundImageFix"/>
<feColorMatrix in="SourceAlpha" type="matrix" values="0 0 0 0 0 0 0 0 0 0 0 0 0 0 0 0 0 0 127 0"/>
<feOffset dy="4"/>
<feGaussianBlur stdDeviation="2"/>
<feColorMatrix type="matrix" values="0 0 0 0 0 0 0 0 0 0 0 0 0 0 0 0 0 0 0.25 0"/>
<feBlend mode="normal" in2="BackgroundImageFix" result="effect1_dropShadow"/>
<feBlend mode="normal" in="SourceGraphic" in2="effect1_dropShadow" result="shape"/>
</filter>
<filter id="filter1_bd" x="55.4658" y="162.5" width="533.034" height="443.264" filterUnits="userSpaceOnUse" color-interpolation-filters="sRGB">
<feFlood flood-opacity="0" result="BackgroundImageFix"/>
<feGaussianBlur in="BackgroundImage" stdDeviation="2"/>
<feComposite in2="SourceAlpha" operator="in" result="effect1_backgroundBlur"/>
<feColorMatrix in="SourceAlpha" type="matrix" values="0 0 0 0 0 0 0 0 0 0 0 0 0 0 0 0 0 0 127 0"/>
<feOffset dy="4"/>
<feGaussianBlur stdDeviation="2"/>
<feColorMatrix type="matrix" values="0 0 0 0 0 0 0 0 0 0 0 0 0 0 0 0 0 0 0.25 0"/>
<feBlend mode="normal" in2="effect1_backgroundBlur" result="effect2_dropShadow"/>
<feBlend mode="normal" in="SourceGraphic" in2="effect2_dropShadow" result="shape"/>
</filter>
<filter id="filter2_dd" x="633.426" y="205.031" width="704.072" height="361.727" filterUnits="userSpaceOnUse" color-interpolation-filters="sRGB">
<feFlood flood-opacity="0" result="BackgroundImageFix"/>
<feColorMatrix in="SourceAlpha" type="matrix" values="0 0 0 0 0 0 0 0 0 0 0 0 0 0 0 0 0 0 127 0"/>
<feOffset dy="4"/>
<feGaussianBlur stdDeviation="2"/>
<feColorMatrix type="matrix" values="0 0 0 0 0 0 0 0 0 0 0 0 0 0 0 0 0 0 0.25 0"/>
<feBlend mode="normal" in2="BackgroundImageFix" result="effect1_dropShadow"/>
<feColorMatrix in="SourceAlpha" type="matrix" values="0 0 0 0 0 0 0 0 0 0 0 0 0 0 0 0 0 0 127 0"/>
<feOffset dy="4"/>
<feGaussianBlur stdDeviation="2"/>
<feColorMatrix type="matrix" values="0 0 0 0 0 0 0 0 0 0 0 0 0 0 0 0 0 0 0.25 0"/>
<feBlend mode="normal" in2="effect1_dropShadow" result="effect2_dropShadow"/>
<feBlend mode="normal" in="SourceGraphic" in2="effect2_dropShadow" result="shape"/>
</filter>
<linearGradient id="paint0_linear" x1="322.5" y1="167" x2="322.5" y2="597" gradientUnits="userSpaceOnUse">
<stop stop-color="#FD0000"/>
<stop offset="1" stop-color="white" stop-opacity="0"/>
</linearGradient>
<linearGradient id="paint1_linear" x1="987" y1="167" x2="987" y2="597" gradientUnits="userSpaceOnUse">
<stop stop-color="#FD0C06"/>
<stop offset="0.690442" stop-color="#D9423E" stop-opacity="0"/>
</linearGradient>
</defs>
</svg>
