<svg width="1323" height="250" viewBox="0 0 1323 250" fill="none" xmlns="http://www.w3.org/2000/svg">
<rect x="120.915" y="23.1481" width="34.0607" height="18.5185" rx="9.25926" fill="#E6E8EB" fill-opacity="0.25"/>
<rect y="23.1481" width="17.0303" height="18.5185" rx="8.51517" fill="#E6E8EB" fill-opacity="0.25"/>
<rect x="311.655" y="69.4444" width="28.1001" height="18.5185" rx="9.25926" fill="#E6E8EB" fill-opacity="0.25"/>
<rect x="46.8334" y="138.889" width="39.1698" height="18.5185" rx="9.25926" fill="#E6E8EB" fill-opacity="0.25"/>
<rect y="162.037" width="30.6546" height="18.5185" rx="9.25926" fill="#E6E8EB" fill-opacity="0.25"/>
<rect x="321.022" y="46.2963" width="18.7334" height="18.5185" rx="9.25926" fill="#E6E8EB" fill-opacity="0.25"/>
<rect x="640.341" y="92.5926" width="18.7334" height="18.5185" rx="9.25926" fill="#E6E8EB" fill-opacity="0.25"/>
<rect x="445.343" y="23.1481" width="18.7334" height="18.5185" rx="9.25926" fill="#E6E8EB" fill-opacity="0.25"/>
<rect x="445.343" y="46.2963" width="18.7334" height="18.5185" rx="9.25926" fill="#E6E8EB" fill-opacity="0.25"/>
<rect x="445.343" y="69.4444" width="18.7334" height="18.5185" rx="9.25926" fill="#E6E8EB" fill-opacity="0.25"/>
<rect x="445.343" y="92.5926" width="18.7334" height="18.5185" rx="9.25926" fill="#E6E8EB" fill-opacity="0.25"/>
<rect x="445.343" y="115.741" width="18.7334" height="18.5185" rx="9.25926" fill="#E6E8EB" fill-opacity="0.25"/>
<rect x="445.343" y="138.889" width="18.7334" height="18.5185" rx="9.25926" fill="#E6E8EB" fill-opacity="0.25"/>
<rect x="445.343" y="162.037" width="18.7334" height="18.5185" rx="9.25926" fill="#E6E8EB" fill-opacity="0.25"/>
<rect x="567.11" y="162.037" width="14.4758" height="18.5185" rx="7.2379" fill="#E6E8EB" fill-opacity="0.25"/>
<rect x="718.68" y="162.037" width="14.4758" height="18.5185" rx="7.2379" fill="#E6E8EB" fill-opacity="0.25"/>
<rect x="445.343" y="185.185" width="18.7334" height="18.5185" rx="9.25926" fill="#E6E8EB" fill-opacity="0.25"/>
<rect x="567.11" y="185.185" width="28.9516" height="18.5185" rx="9.25926" fill="#E6E8EB" fill-opacity="0.25"/>
<rect x="657.371" y="46.2963" width="28.9516" height="18.5185" rx="9.25926" fill="#E6E8EB" fill-opacity="0.25"/>
<rect x="625.014" y="69.4444" width="46.8334" height="18.5185" rx="9.25926" fill="#E6E8EB" fill-opacity="0.25"/>
<rect x="605.429" y="46.2963" width="43.4274" height="18.5185" rx="9.25926" fill="#E6E8EB" fill-opacity="0.25"/>
<rect x="842.15" y="46.2963" width="63.0123" height="18.5185" rx="9.25926" fill="#E6E8EB" fill-opacity="0.25"/>
<rect x="842.15" y="23.1481" width="43.4274" height="18.5185" rx="9.25926" fill="#E6E8EB" fill-opacity="0.25"/>
<rect x="894.093" y="23.1481" width="74.9335" height="18.5185" rx="9.25926" fill="#E6E8EB" fill-opacity="0.25"/>
<rect x="969.026" y="185.185" width="71.5274" height="18.5185" rx="9.25926" fill="#E6E8EB" fill-opacity="0.25"/>
<rect x="981.799" y="162.037" width="46.8334" height="18.5185" rx="9.25926" fill="#E6E8EB" fill-opacity="0.25"/>
<rect x="990.314" y="138.889" width="24.694" height="18.5185" rx="9.25926" fill="#E6E8EB" fill-opacity="0.25"/>
<rect x="957.957" y="208.333" width="97.9245" height="18.5185" rx="9.25926" fill="#E6E8EB" fill-opacity="0.25"/>
<rect x="1078.87" y="69.4444" width="88.5578" height="18.5185" rx="9.25926" fill="#E6E8EB" fill-opacity="0.25"/>
<rect x="1105.27" y="46.2963" width="62.1607" height="18.5185" rx="9.25926" fill="#E6E8EB" fill-opacity="0.25"/>
<rect x="1095.9" y="92.5926" width="71.5274" height="18.5185" rx="9.25926" fill="#E6E8EB" fill-opacity="0.25"/>
<rect x="1273.02" y="162.037" width="45.9819" height="18.5185" rx="9.25926" fill="#E6E8EB" fill-opacity="0.25"/>
<rect x="1273.02" y="138.889" width="45.9819" height="18.5185" rx="9.25926" fill="#E6E8EB" fill-opacity="0.25"/>
<rect x="1273.02" y="115.741" width="45.9819" height="18.5185" rx="9.25926" fill="#E6E8EB" fill-opacity="0.25"/>
<rect x="1273.02" y="46.2963" width="45.9819" height="18.5185" rx="9.25926" fill="#E6E8EB" fill-opacity="0.25"/>
<rect x="1273.02" y="23.1481" width="45.9819" height="18.5185" rx="9.25926" fill="#E6E8EB" fill-opacity="0.25"/>
<rect x="1273.02" y="92.5926" width="45.9819" height="18.5185" rx="9.25926" fill="#E6E8EB" fill-opacity="0.25"/>
<rect x="1273.02" y="69.4444" width="45.9819" height="18.5185" rx="9.25926" fill="#E6E8EB" fill-opacity="0.25"/>
<rect x="1135.07" y="138.889" width="32.3577" height="18.5185" rx="9.25926" fill="#E6E8EB" fill-opacity="0.25"/>
<rect x="1145.29" y="23.1481" width="22.1394" height="18.5185" rx="9.25926" fill="#E6E8EB" fill-opacity="0.25"/>
<rect x="1147.85" y="185.185" width="19.5849" height="18.5185" rx="9.25926" fill="#E6E8EB" fill-opacity="0.25"/>
<rect x="1140.18" y="162.037" width="27.2485" height="18.5185" rx="9.25926" fill="#E6E8EB" fill-opacity="0.25"/>
<rect x="1043.96" y="23.1481" width="88.5578" height="18.5185" rx="9.25926" fill="#E6E8EB" fill-opacity="0.25"/>
<rect x="1058.44" y="46.2963" width="37.4668" height="18.5185" rx="9.25926" fill="#E6E8EB" fill-opacity="0.25"/>
<rect x="1112.93" y="115.741" width="54.4971" height="18.5185" rx="9.25926" fill="#E6E8EB" fill-opacity="0.25"/>
<rect x="918.787" y="46.2963" width="25.5455" height="18.5185" rx="9.25926" fill="#E6E8EB" fill-opacity="0.25"/>
<rect x="870.25" y="69.4444" width="58.7547" height="18.5185" rx="9.25926" fill="#E6E8EB" fill-opacity="0.25"/>
<rect x="842.15" y="69.4444" width="18.7334" height="18.5185" rx="9.25926" fill="#E6E8EB" fill-opacity="0.25"/>
<rect x="842.15" y="92.5926" width="68.1214" height="18.5185" rx="9.25926" fill="#E6E8EB" fill-opacity="0.25"/>
<rect x="842.15" y="115.741" width="51.9425" height="18.5185" rx="9.25926" fill="#E6E8EB" fill-opacity="0.25"/>
<rect x="839.596" y="138.889" width="40.8728" height="18.5185" rx="9.25926" fill="#E6E8EB" fill-opacity="0.25"/>
<rect x="839.596" y="162.037" width="30.6546" height="18.5185" rx="9.25926" fill="#E6E8EB" fill-opacity="0.25"/>
<rect x="837.041" y="185.185" width="21.2879" height="18.5185" rx="9.25926" fill="#E6E8EB" fill-opacity="0.25"/>
<rect x="837.041" y="208.333" width="9.36669" height="18.5185" rx="4.68334" fill="#E6E8EB" fill-opacity="0.25"/>
<rect x="594.359" y="23.1481" width="46.8334" height="18.5185" rx="9.25926" fill="#E6E8EB" fill-opacity="0.25"/>
<rect x="656.52" y="23.1481" width="46.8334" height="18.5185" rx="9.25926" fill="#E6E8EB" fill-opacity="0.25"/>
<rect x="707.611" y="185.185" width="28.9516" height="18.5185" rx="9.25926" fill="#E6E8EB" fill-opacity="0.25"/>
<rect x="566.259" y="208.333" width="47.685" height="18.5185" rx="9.25926" fill="#E6E8EB" fill-opacity="0.25"/>
<rect x="681.214" y="208.333" width="56.2001" height="18.5185" rx="9.25926" fill="#E6E8EB" fill-opacity="0.25"/>
<rect x="445.343" y="208.333" width="18.7334" height="18.5185" rx="9.25926" fill="#E6E8EB" fill-opacity="0.25"/>
<rect x="332.943" y="23.1481" width="10.2182" height="18.5185" rx="5.1091" fill="#E6E8EB" fill-opacity="0.25"/>
<rect x="164.343" y="23.1481" width="62.1607" height="18.5185" rx="9.25926" fill="#E6E8EB" fill-opacity="0.25"/>
<rect y="69.4444" width="46.8334" height="18.5185" rx="9.25926" fill="#E6E8EB" fill-opacity="0.25"/>
<rect y="115.741" width="70.6759" height="18.5185" rx="9.25926" fill="#E6E8EB" fill-opacity="0.25"/>
<rect x="39.1698" y="162.037" width="63.8638" height="18.5185" rx="9.25926" fill="#E6E8EB" fill-opacity="0.25"/>
<rect y="208.333" width="51.9425" height="18.5185" rx="9.25926" fill="#E6E8EB" fill-opacity="0.25"/>
<rect y="231.481" width="68.1214" height="18.5185" rx="9.25926" fill="#E6E8EB" fill-opacity="0.25"/>
<rect width="68.1214" height="18.5185" rx="9.25926" fill="#E6E8EB" fill-opacity="0.25"/>
<rect x="364.449" width="85.1517" height="18.5185" rx="9.25926" fill="#E6E8EB" fill-opacity="0.25"/>
<rect x="364.449" y="231.481" width="85.1517" height="18.5185" rx="9.25926" fill="#E6E8EB" fill-opacity="0.25"/>
<rect x="745.929" y="231.481" width="85.1517" height="18.5185" rx="9.25926" fill="#E6E8EB" fill-opacity="0.25"/>
<rect x="745.929" width="85.1517" height="18.5185" rx="9.25926" fill="#E6E8EB" fill-opacity="0.25"/>
<rect x="173.709" y="231.481" width="85.1517" height="18.5185" rx="9.25926" fill="#E6E8EB" fill-opacity="0.25"/>
<rect x="173.709" width="85.1517" height="18.5185" rx="9.25926" fill="#E6E8EB" fill-opacity="0.25"/>
<rect x="555.189" width="85.1517" height="18.5185" rx="9.25926" fill="#E6E8EB" fill-opacity="0.25"/>
<rect x="555.189" y="231.481" width="85.1517" height="18.5185" rx="9.25926" fill="#E6E8EB" fill-opacity="0.25"/>
<rect x="936.669" y="231.481" width="85.1517" height="18.5185" rx="9.25926" fill="#E6E8EB" fill-opacity="0.25"/>
<rect x="936.669" width="85.1517" height="18.5185" rx="9.25926" fill="#E6E8EB" fill-opacity="0.25"/>
<rect x="1132.52" width="91.1123" height="18.5185" rx="9.25926" fill="#E6E8EB" fill-opacity="0.25"/>
<rect x="1128.26" y="231.481" width="95.3699" height="18.5185" rx="9.25926" fill="#E6E8EB" fill-opacity="0.25"/>
<rect x="78.3396" y="231.481" width="85.1517" height="18.5185" rx="9.25926" fill="#E6E8EB" fill-opacity="0.25"/>
<rect x="78.3396" width="85.1517" height="18.5185" rx="9.25926" fill="#E6E8EB" fill-opacity="0.25"/>
<rect x="459.819" width="85.1517" height="18.5185" rx="9.25926" fill="#E6E8EB" fill-opacity="0.25"/>
<rect x="459.819" y="231.481" width="85.1517" height="18.5185" rx="9.25926" fill="#E6E8EB" fill-opacity="0.25"/>
<rect x="841.299" y="231.481" width="85.1517" height="18.5185" rx="9.25926" fill="#E6E8EB" fill-opacity="0.25"/>
<rect x="841.299" width="85.1517" height="18.5185" rx="9.25926" fill="#E6E8EB" fill-opacity="0.25"/>
<rect x="269.079" y="231.481" width="85.1517" height="18.5185" rx="9.25926" fill="#E6E8EB" fill-opacity="0.25"/>
<rect x="269.079" width="85.1517" height="18.5185" rx="9.25926" fill="#E6E8EB" fill-opacity="0.25"/>
<rect x="650.559" width="85.1517" height="18.5185" rx="9.25926" fill="#E6E8EB" fill-opacity="0.25"/>
<rect x="650.559" y="231.481" width="85.1517" height="18.5185" rx="9.25926" fill="#E6E8EB" fill-opacity="0.25"/>
<rect x="1032.04" y="231.481" width="85.1517" height="18.5185" rx="9.25926" fill="#E6E8EB" fill-opacity="0.25"/>
<rect x="1032.04" width="85.1517" height="18.5185" rx="9.25926" fill="#E6E8EB" fill-opacity="0.25"/>
<rect x="1233.85" width="85.1517" height="18.5185" rx="9.25926" fill="#E6E8EB" fill-opacity="0.25"/>
<rect x="1233.85" y="231.481" width="85.1517" height="18.5185" rx="9.25926" fill="#E6E8EB" fill-opacity="0.25"/>
<rect y="185.185" width="66.4183" height="18.5185" rx="9.25926" fill="#E6E8EB" fill-opacity="0.25"/>
<rect x="75.785" y="185.185" width="40.0213" height="18.5185" rx="9.25926" fill="#E6E8EB" fill-opacity="0.25"/>
<rect x="269.079" y="138.889" width="35.7637" height="18.5185" rx="9.25926" fill="#E6E8EB" fill-opacity="0.25"/>
<rect x="321.022" y="138.889" width="17.8819" height="18.5185" rx="8.94093" fill="#E6E8EB" fill-opacity="0.25"/>
<rect x="62.1608" y="208.333" width="70.6759" height="18.5185" rx="9.25926" fill="#E6E8EB" fill-opacity="0.25"/>
<rect x="212.028" y="208.333" width="70.6759" height="18.5185" rx="9.25926" fill="#E6E8EB" fill-opacity="0.25"/>
<rect x="296.328" y="208.333" width="42.5759" height="18.5185" rx="9.25926" fill="#E6E8EB" fill-opacity="0.25"/>
<rect x="228.207" y="185.185" width="22.991" height="18.5185" rx="9.25926" fill="#E6E8EB" fill-opacity="0.25"/>
<rect x="268.228" y="185.185" width="70.6759" height="18.5185" rx="9.25926" fill="#E6E8EB" fill-opacity="0.25"/>
<rect x="251.198" y="162.037" width="87.7063" height="18.5185" rx="9.25926" fill="#E6E8EB" fill-opacity="0.25"/>
<rect x="286.11" y="115.741" width="53.6456" height="18.5185" rx="9.25926" fill="#E6E8EB" fill-opacity="0.25"/>
<rect y="92.5926" width="61.3092" height="18.5185" rx="9.25926" fill="#E6E8EB" fill-opacity="0.25"/>
<rect x="296.328" y="92.5926" width="43.4274" height="18.5185" rx="9.25926" fill="#E6E8EB" fill-opacity="0.25"/>
<rect y="46.2963" width="32.3577" height="18.5185" rx="9.25926" fill="#E6E8EB" fill-opacity="0.25"/>
<rect y="138.889" width="39.1698" height="18.5185" rx="9.25926" fill="#E6E8EB" fill-opacity="0.25"/>
<rect x="130.282" y="46.2963" width="34.0607" height="18.5185" rx="9.25926" fill="#E6E8EB" fill-opacity="0.25"/>
<rect x="171.155" y="46.2963" width="40.8728" height="18.5185" rx="9.25926" fill="#E6E8EB" fill-opacity="0.25"/>
<rect x="150.719" y="69.4444" width="54.4971" height="18.5185" rx="9.25926" fill="#E6E8EB" fill-opacity="0.25"/>
<rect x="160.085" y="92.5926" width="32.3577" height="18.5185" rx="9.25926" fill="#E6E8EB" fill-opacity="0.25"/>
<g filter="url(#filter0_d)">
<rect x="349.974" y="208.333" width="85.1517" height="18.5185" rx="9.25926" fill="#44CC11"/>
<rect x="349.974" y="46.2963" width="34.0607" height="18.5185" rx="9.25926" fill="#47B5B8"/>
<rect x="349.974" y="138.889" width="34.0607" height="18.5185" rx="9.25926" fill="#7000FF"/>
<rect x="349.974" y="92.5926" width="56.2001" height="18.5185" rx="9.25926" fill="#44CC11"/>
<rect x="349.974" y="185.185" width="56.2001" height="18.5185" rx="9.25926" fill="#F24C42"/>
<rect x="392.549" y="46.2963" width="42.5759" height="18.5185" rx="9.25926" fill="#EE499B"/>
<rect x="392.549" y="138.889" width="42.5759" height="18.5185" rx="9.25926" fill="#F8C300"/>
<rect x="412.986" y="92.5926" width="22.1394" height="18.5185" rx="9.25926" fill="#7000FF"/>
<rect x="412.986" y="185.185" width="22.1394" height="18.5185" rx="9.25926" fill="#47B5B8"/>
<rect x="349.974" y="23.1481" width="85.1517" height="18.5185" rx="9.25926" fill="#F8C300"/>
<rect x="349.974" y="115.741" width="85.1517" height="18.5185" rx="9.25926" fill="#47B5B8"/>
<rect x="349.974" y="69.4444" width="85.1517" height="18.5185" rx="9.25926" fill="#F24C42"/>
<rect x="349.974" y="162.037" width="85.1517" height="18.5185" rx="9.25926" fill="#C56DBD"/>
</g>
<g filter="url(#filter1_d)">
<rect x="1176.8" y="208.333" width="42.5759" height="18.5185" rx="9.25926" fill="#C56DBD"/>
<rect x="1176.8" y="46.2963" width="34.0607" height="18.5185" rx="9.25926" fill="#EE499B"/>
<rect x="1176.8" y="138.889" width="34.0607" height="18.5185" rx="9.25926" fill="#EE499B"/>
<rect x="1176.8" y="92.5926" width="56.2001" height="18.5185" rx="9.25926" fill="#F8C300"/>
<rect x="1176.8" y="185.185" width="63.0123" height="18.5185" rx="9.25926" fill="#44CC11"/>
<rect x="1219.37" y="46.2963" width="42.5759" height="18.5185" rx="9.25926" fill="#7000FF"/>
<rect x="1219.37" y="138.889" width="42.5759" height="18.5185" rx="9.25926" fill="#7000FF"/>
<rect x="1239.81" y="92.5926" width="22.1394" height="18.5185" rx="9.25926" fill="#44CC11"/>
<rect x="1250.03" y="185.185" width="68.9729" height="18.5185" rx="9.25926" fill="#47B5B8"/>
<rect x="1176.8" y="23.1481" width="85.1517" height="18.5185" rx="9.25926" fill="#F24C42"/>
<rect x="1176.8" y="115.741" width="85.1517" height="18.5185" rx="9.25926" fill="#47B5B8"/>
<rect x="1176.8" y="69.4444" width="85.1517" height="18.5185" rx="9.25926" fill="#C56DBD"/>
<rect x="1176.8" y="162.037" width="85.1517" height="18.5185" rx="9.25926" fill="#F24C42"/>
<rect x="1229.59" y="208.333" width="89.4093" height="18.5185" rx="9.25926" fill="#F8C300"/>
</g>
<g filter="url(#filter2_d)">
<rect x="183.928" y="115.741" width="85.1517" height="18.5185" rx="9.25926" fill="#44CC11"/>
<rect x="132.837" y="185.185" width="85.1517" height="18.5185" rx="9.25926" fill="#F24C42"/>
<rect x="39.1698" y="46.2963" width="34.0607" height="18.5185" rx="9.25926" fill="#7000FF"/>
<rect x="66.4183" y="92.5926" width="34.0607" height="18.5185" rx="9.25926" fill="#44CC11"/>
<rect x="226.504" y="46.2963" width="34.0607" height="18.5185" rx="9.25926" fill="#7000FF"/>
<rect x="200.958" y="92.5926" width="34.0607" height="18.5185" rx="9.25926" fill="#F24C42"/>
<rect x="176.264" y="162.037" width="58.7547" height="18.5185" rx="9.25926" fill="#F8C300"/>
<rect x="96.2214" y="138.889" width="34.0607" height="18.5185" rx="9.25926" fill="#F24C42"/>
<rect x="117.509" y="162.037" width="51.091" height="18.5185" rx="9.25926" fill="#C56DBD"/>
<rect x="80.8941" y="46.2963" width="42.5759" height="18.5185" rx="9.25926" fill="#F24C42"/>
<rect x="108.143" y="92.5926" width="42.5759" height="18.5185" rx="9.25926" fill="#EE499B"/>
<rect x="269.079" y="46.2963" width="42.5759" height="18.5185" rx="9.25926" fill="#C56DBD"/>
<rect x="243.534" y="92.5926" width="42.5759" height="18.5185" rx="9.25926" fill="#47B5B8"/>
<rect x="154.976" y="208.333" width="42.5759" height="18.5185" rx="9.25926" fill="#44CC11"/>
<rect x="213.731" y="138.889" width="42.5759" height="18.5185" rx="9.25926" fill="#47B5B8"/>
<rect x="26.397" y="23.1481" width="85.1517" height="18.5185" rx="9.25926" fill="#47B5B8"/>
<rect x="53.6456" y="69.4444" width="85.1517" height="18.5185" rx="9.25926" fill="#C56DBD"/>
<rect x="83.4487" y="115.741" width="85.1517" height="18.5185" rx="9.25926" fill="#47B5B8"/>
<rect x="141.352" y="138.889" width="59.6062" height="18.5185" rx="9.25926" fill="#7000FF"/>
<rect x="239.276" y="23.1481" width="85.1517" height="18.5185" rx="9.25926" fill="#44CC11"/>
<rect x="213.731" y="69.4444" width="85.1517" height="18.5185" rx="9.25926" fill="#F8C300"/>
</g>
<g filter="url(#filter3_d)">
<rect x="995.423" y="134.259" width="85.1517" height="18.5185" rx="9.25926" transform="rotate(-180 995.423 134.259)" fill="#47B5B8"/>
<rect x="1046.51" y="64.8148" width="85.1517" height="18.5185" rx="9.25926" transform="rotate(-180 1046.51 64.8148)" fill="#47B5B8"/>
<rect x="1140.18" y="203.704" width="34.0607" height="18.5185" rx="9.25926" transform="rotate(-180 1140.18 203.704)" fill="#44CC11"/>
<rect x="1112.93" y="157.407" width="34.0607" height="18.5185" rx="9.25926" transform="rotate(-180 1112.93 157.407)" fill="#47B5B8"/>
<rect x="952.848" y="203.704" width="34.0607" height="18.5185" rx="9.25926" transform="rotate(-180 952.848 203.704)" fill="#F24C42"/>
<rect x="978.393" y="157.407" width="34.0607" height="18.5185" rx="9.25926" transform="rotate(-180 978.393 157.407)" fill="#7000FF"/>
<rect x="1003.09" y="87.963" width="58.7547" height="18.5185" rx="9.25926" transform="rotate(-180 1003.09 87.963)" fill="#F24C42"/>
<rect x="1083.13" y="111.111" width="34.0607" height="18.5185" rx="9.25926" transform="rotate(-180 1083.13 111.111)" fill="#7000FF"/>
<rect x="1061.84" y="87.963" width="51.091" height="18.5185" rx="9.25926" transform="rotate(-180 1061.84 87.963)" fill="#F8C300"/>
<rect x="1098.46" y="203.704" width="42.5759" height="18.5185" rx="9.25926" transform="rotate(-180 1098.46 203.704)" fill="#F8C300"/>
<rect x="1071.21" y="157.407" width="42.5759" height="18.5185" rx="9.25926" transform="rotate(-180 1071.21 157.407)" fill="#F24C42"/>
<rect x="910.272" y="203.704" width="42.5759" height="18.5185" rx="9.25926" transform="rotate(-180 910.272 203.704)" fill="#C56DBD"/>
<rect x="935.817" y="157.407" width="42.5759" height="18.5185" rx="9.25926" transform="rotate(-180 935.817 157.407)" fill="#EE499B"/>
<rect x="1024.38" y="41.6667" width="42.5759" height="18.5185" rx="9.25926" transform="rotate(-180 1024.38 41.6667)" fill="#44CC11"/>
<rect x="965.62" y="111.111" width="42.5759" height="18.5185" rx="9.25926" transform="rotate(-180 965.62 111.111)" fill="#44CC11"/>
<rect x="1152.95" y="226.852" width="85.1517" height="18.5185" rx="9.25926" transform="rotate(-180 1152.95 226.852)" fill="#47B5B8"/>
<rect x="1125.71" y="180.556" width="85.1517" height="18.5185" rx="9.25926" transform="rotate(-180 1125.71 180.556)" fill="#C56DBD"/>
<rect x="1095.9" y="134.259" width="85.1517" height="18.5185" rx="9.25926" transform="rotate(-180 1095.9 134.259)" fill="#44CC11"/>
<rect x="1038" y="111.111" width="59.6062" height="18.5185" rx="9.25926" transform="rotate(-180 1038 111.111)" fill="#C56DBD"/>
<rect x="940.075" y="226.852" width="85.1517" height="18.5185" rx="9.25926" transform="rotate(-180 940.075 226.852)" fill="#44CC11"/>
<rect x="965.62" y="180.556" width="85.1517" height="18.5185" rx="9.25926" transform="rotate(-180 965.62 180.556)" fill="#F8C300"/>
</g>
<g filter="url(#filter4_d)">
<rect x="745.929" y="208.333" width="85.1517" height="18.5185" rx="9.25926" fill="#F24C42"/>
<rect x="474.295" y="138.889" width="83.4487" height="18.5185" rx="9.25926" fill="#44CC11"/>
<rect x="656.52" y="115.741" width="85.1517" height="18.5185" rx="9.25926" fill="#EE499B"/>
<rect x="605.429" y="185.185" width="85.1517" height="18.5185" rx="9.25926" fill="#F8C300"/>
<rect x="504.098" y="46.2963" width="34.0607" height="18.5185" rx="9.25926" fill="#C4C4C4"/>
<rect x="539.01" y="92.5926" width="34.0607" height="18.5185" rx="9.25926" fill="#7000FF"/>
<rect x="699.096" y="46.2963" width="34.0607" height="18.5185" rx="9.25926" fill="#F24C42"/>
<rect x="745.929" y="46.2963" width="34.0607" height="18.5185" rx="9.25926" fill="#C4C4C4"/>
<rect x="745.929" y="138.889" width="34.0607" height="18.5185" rx="9.25926" fill="#F24C42"/>
<rect x="474.295" y="69.4444" width="39.1698" height="18.5185" rx="9.25926" fill="#C56DBD"/>
<rect x="474.295" y="208.333" width="34.0607" height="18.5185" rx="9.25926" fill="#C56DBD"/>
<rect x="745.929" y="92.5926" width="56.2001" height="18.5185" rx="9.25926" fill="#7000FF"/>
<rect x="474.295" y="23.1481" width="56.2001" height="18.5185" rx="9.25926" fill="#F24C42"/>
<rect x="474.295" y="162.037" width="56.2001" height="18.5185" rx="9.25926" fill="#7000FF"/>
<rect x="745.929" y="185.185" width="56.2001" height="18.5185" rx="9.25926" fill="#44CC11"/>
<rect x="474.295" y="115.741" width="70.6759" height="18.5185" rx="9.25926" fill="#F24C42"/>
<rect x="673.55" y="92.5926" width="34.0607" height="18.5185" rx="9.25926" fill="#F8C300"/>
<rect x="648.856" y="162.037" width="58.7547" height="18.5185" rx="9.25926" fill="#44CC11"/>
<rect x="568.813" y="138.889" width="34.0607" height="18.5185" rx="9.25926" fill="#47B5B8"/>
<rect x="590.101" y="162.037" width="51.091" height="18.5185" rx="9.25926" fill="#7000FF"/>
<rect x="553.486" y="46.2963" width="42.5759" height="18.5185" rx="9.25926" fill="#EE499B"/>
<rect x="580.735" y="92.5926" width="42.5759" height="18.5185" rx="9.25926" fill="#47B5B8"/>
<rect x="737.414" y="46.2963" width="42.5759" height="18.5185" rx="9.25926" fill="#47B5B8"/>
<rect x="716.126" y="92.5926" width="42.5759" height="18.5185" rx="9.25926" fill="#7000FF"/>
<rect x="788.505" y="46.2963" width="42.5759" height="18.5185" rx="9.25926" fill="#EE499B"/>
<rect x="788.505" y="138.889" width="42.5759" height="18.5185" rx="9.25926" fill="#EE499B"/>
<rect x="524.535" y="69.4444" width="42.5759" height="18.5185" rx="9.25926" fill="#C4C4C4"/>
<rect x="513.465" y="208.333" width="42.5759" height="18.5185" rx="9.25926" fill="#47B5B8"/>
<rect x="808.941" y="92.5926" width="22.1394" height="18.5185" rx="9.25926" fill="#F8C300"/>
<rect x="544.971" y="23.1481" width="22.1394" height="18.5185" rx="9.25926" fill="#C4C4C4"/>
<rect x="533.901" y="162.037" width="22.1394" height="18.5185" rx="9.25926" fill="#F24C42"/>
<rect x="808.941" y="185.185" width="22.1394" height="18.5185" rx="9.25926" fill="#F8C300"/>
<rect x="627.568" y="208.333" width="42.5759" height="18.5185" rx="9.25926" fill="#C56DBD"/>
<rect x="686.323" y="138.889" width="42.5759" height="18.5185" rx="9.25926" fill="#47B5B8"/>
<rect x="544.971" y="23.1481" width="35.7637" height="18.5185" rx="9.25926" fill="#47B5B8"/>
<rect x="526.238" y="69.4444" width="85.1517" height="18.5185" rx="9.25926" fill="#F8C300"/>
<rect x="556.041" y="115.741" width="85.1517" height="18.5185" rx="9.25926" fill="#C56DBD"/>
<rect x="773.178" y="23.1481" width="57.9032" height="18.5185" rx="9.25926" fill="#44CC11"/>
<rect x="745.929" y="115.741" width="85.1517" height="18.5185" rx="9.25926" fill="#44CC11"/>
<rect x="474.295" y="46.2963" width="70.6759" height="18.5185" rx="9.25926" fill="#44CC11"/>
<rect x="474.295" y="185.185" width="85.1517" height="18.5185" rx="9.25926" fill="#EE499B"/>
<rect x="764.662" y="69.4444" width="66.4183" height="18.5185" rx="9.25926" fill="#C56DBD"/>
<rect x="745.929" y="162.037" width="85.1517" height="18.5185" rx="9.25926" fill="#47B5B8"/>
<rect x="474.295" y="92.5926" width="56.2001" height="18.5185" rx="9.25926" fill="#47B5B8"/>
<rect x="613.944" y="138.889" width="59.6062" height="18.5185" rx="9.25926" fill="#F24C42"/>
<rect x="716.126" y="23.1481" width="42.5759" height="18.5185" rx="9.25926" fill="#F8C300"/>
<rect x="682.065" y="69.4444" width="69.8244" height="18.5185" rx="9.25926" fill="#44CC11"/>
</g>
<defs>
<filter id="filter0_d" x="345.974" y="23.1481" width="93.1517" height="211.704" filterUnits="userSpaceOnUse" color-interpolation-filters="sRGB">
<feFlood flood-opacity="0" result="BackgroundImageFix"/>
<feColorMatrix in="SourceAlpha" type="matrix" values="0 0 0 0 0 0 0 0 0 0 0 0 0 0 0 0 0 0 127 0"/>
<feOffset dy="4"/>
<feGaussianBlur stdDeviation="2"/>
<feColorMatrix type="matrix" values="0 0 0 0 0 0 0 0 0 0 0 0 0 0 0 0 0 0 0.25 0"/>
<feBlend mode="normal" in2="BackgroundImageFix" result="effect1_dropShadow"/>
<feBlend mode="normal" in="SourceGraphic" in2="effect1_dropShadow" result="shape"/>
</filter>
<filter id="filter1_d" x="1172.8" y="23.1481" width="150.203" height="211.704" filterUnits="userSpaceOnUse" color-interpolation-filters="sRGB">
<feFlood flood-opacity="0" result="BackgroundImageFix"/>
<feColorMatrix in="SourceAlpha" type="matrix" values="0 0 0 0 0 0 0 0 0 0 0 0 0 0 0 0 0 0 127 0"/>
<feOffset dy="4"/>
<feGaussianBlur stdDeviation="2"/>
<feColorMatrix type="matrix" values="0 0 0 0 0 0 0 0 0 0 0 0 0 0 0 0 0 0 0.25 0"/>
<feBlend mode="normal" in2="BackgroundImageFix" result="effect1_dropShadow"/>
<feBlend mode="normal" in="SourceGraphic" in2="effect1_dropShadow" result="shape"/>
</filter>
<filter id="filter2_d" x="22.397" y="23.1481" width="306.031" height="211.704" filterUnits="userSpaceOnUse" color-interpolation-filters="sRGB">
<feFlood flood-opacity="0" result="BackgroundImageFix"/>
<feColorMatrix in="SourceAlpha" type="matrix" values="0 0 0 0 0 0 0 0 0 0 0 0 0 0 0 0 0 0 127 0"/>
<feOffset dy="4"/>
<feGaussianBlur stdDeviation="2"/>
<feColorMatrix type="matrix" values="0 0 0 0 0 0 0 0 0 0 0 0 0 0 0 0 0 0 0.25 0"/>
<feBlend mode="normal" in2="BackgroundImageFix" result="effect1_dropShadow"/>
<feBlend mode="normal" in="SourceGraphic" in2="effect1_dropShadow" result="shape"/>
</filter>
<filter id="filter3_d" x="850.923" y="23.1481" width="306.031" height="211.704" filterUnits="userSpaceOnUse" color-interpolation-filters="sRGB">
<feFlood flood-opacity="0" result="BackgroundImageFix"/>
<feColorMatrix in="SourceAlpha" type="matrix" values="0 0 0 0 0 0 0 0 0 0 0 0 0 0 0 0 0 0 127 0"/>
<feOffset dy="4"/>
<feGaussianBlur stdDeviation="2"/>
<feColorMatrix type="matrix" values="0 0 0 0 0 0 0 0 0 0 0 0 0 0 0 0 0 0 0.25 0"/>
<feBlend mode="normal" in2="BackgroundImageFix" result="effect1_dropShadow"/>
<feBlend mode="normal" in="SourceGraphic" in2="effect1_dropShadow" result="shape"/>
</filter>
<filter id="filter4_d" x="470.295" y="23.1481" width="364.786" height="211.704" filterUnits="userSpaceOnUse" color-interpolation-filters="sRGB">
<feFlood flood-opacity="0" result="BackgroundImageFix"/>
<feColorMatrix in="SourceAlpha" type="matrix" values="0 0 0 0 0 0 0 0 0 0 0 0 0 0 0 0 0 0 127 0"/>
<feOffset dy="4"/>
<feGaussianBlur stdDeviation="2"/>
<feColorMatrix type="matrix" values="0 0 0 0 0 0 0 0 0 0 0 0 0 0 0 0 0 0 0.25 0"/>
<feBlend mode="normal" in2="BackgroundImageFix" result="effect1_dropShadow"/>
<feBlend mode="normal" in="SourceGraphic" in2="effect1_dropShadow" result="shape"/>
</filter>
</defs>
</svg>
